# Tiled2Unity generated file. Do not modify by hand.
# Wavefront file for 'TileTest_mesh_0004.obj'

# Vertices (Count = 612)
v -208 -288 0
v -224 -288 0
v -224 -272 0
v -208 -272 0
v -224 -288 0
v -240 -288 0
v -240 -272 0
v -224 -272 0
v -240 -288 0
v -256 -288 0
v -256 -272 0
v -240 -272 0
v -256 -288 0
v -272 -288 0
v -272 -272 0
v -256 -272 0
v -272 -288 0
v -288 -288 0
v -288 -272 0
v -272 -272 0
v -288 -288 0
v -304 -288 0
v -304 -272 0
v -288 -272 0
v -304 -288 0
v -320 -288 0
v -320 -272 0
v -304 -272 0
v -320 -288 0
v -336 -288 0
v -336 -272 0
v -320 -272 0
v -336 -288 0
v -352 -288 0
v -352 -272 0
v -336 -272 0
v -352 -288 0
v -368 -288 0
v -368 -272 0
v -352 -272 0
v -368 -288 0
v -384 -288 0
v -384 -272 0
v -368 -272 0
v -384 -288 0
v -400 -288 0
v -400 -272 0
v -384 -272 0
v -400 -288 0
v -416 -288 0
v -416 -272 0
v -400 -272 0
v -192 -304 0
v -208 -304 0
v -208 -288 0
v -192 -288 0
v -208 -304 0
v -224 -304 0
v -224 -288 0
v -208 -288 0
v -400 -304 0
v -416 -304 0
v -416 -288 0
v -400 -288 0
v -416 -304 0
v -432 -304 0
v -432 -288 0
v -416 -288 0
v -176 -320 0
v -192 -320 0
v -192 -304 0
v -176 -304 0
v -192 -320 0
v -208 -320 0
v -208 -304 0
v -192 -304 0
v -256 -320 0
v -272 -320 0
v -272 -304 0
v -256 -304 0
v -304 -320 0
v -320 -320 0
v -320 -304 0
v -304 -304 0
v -416 -320 0
v -432 -320 0
v -432 -304 0
v -416 -304 0
v -432 -320 0
v -448 -320 0
v -448 -304 0
v -432 -304 0
v -448 -320 0
v -464 -320 0
v -464 -304 0
v -448 -304 0
v -160 -336 0
v -176 -336 0
v -176 -320 0
v -160 -320 0
v -176 -336 0
v -192 -336 0
v -192 -320 0
v -176 -320 0
v -224 -336 0
v -240 -336 0
v -240 -320 0
v -224 -320 0
v -240 -336 0
v -256 -336 0
v -256 -320 0
v -240 -320 0
v -256 -336 0
v -272 -336 0
v -272 -320 0
v -256 -320 0
v -272 -336 0
v -288 -336 0
v -288 -320 0
v -272 -320 0
v -288 -336 0
v -304 -336 0
v -304 -320 0
v -288 -320 0
v -304 -336 0
v -320 -336 0
v -320 -320 0
v -304 -320 0
v -320 -336 0
v -336 -336 0
v -336 -320 0
v -320 -320 0
v -336 -336 0
v -352 -336 0
v -352 -320 0
v -336 -320 0
v -352 -336 0
v -368 -336 0
v -368 -320 0
v -352 -320 0
v -368 -336 0
v -384 -336 0
v -384 -320 0
v -368 -320 0
v -384 -336 0
v -400 -336 0
v -400 -320 0
v -384 -320 0
v -448 -336 0
v -464 -336 0
v -464 -320 0
v -448 -320 0
v -464 -336 0
v -480 -336 0
v -480 -320 0
v -464 -320 0
v -160 -352 0
v -176 -352 0
v -176 -336 0
v -160 -336 0
v -192 -352 0
v -208 -352 0
v -208 -336 0
v -192 -336 0
v -208 -352 0
v -224 -352 0
v -224 -336 0
v -208 -336 0
v -224 -352 0
v -240 -352 0
v -240 -336 0
v -224 -336 0
v -384 -352 0
v -400 -352 0
v -400 -336 0
v -384 -336 0
v -400 -352 0
v -416 -352 0
v -416 -336 0
v -400 -336 0
v -432 -352 0
v -448 -352 0
v -448 -336 0
v -432 -336 0
v -464 -352 0
v -480 -352 0
v -480 -336 0
v -464 -336 0
v -160 -368 0
v -176 -368 0
v -176 -352 0
v -160 -352 0
v -208 -368 0
v -224 -368 0
v -224 -352 0
v -208 -352 0
v -400 -368 0
v -416 -368 0
v -416 -352 0
v -400 -352 0
v -416 -368 0
v -432 -368 0
v -432 -352 0
v -416 -352 0
v -464 -368 0
v -480 -368 0
v -480 -352 0
v -464 -352 0
v -480 -368 0
v -496 -368 0
v -496 -352 0
v -480 -352 0
v -144 -384 0
v -160 -384 0
v -160 -368 0
v -144 -368 0
v -160 -384 0
v -176 -384 0
v -176 -368 0
v -160 -368 0
v -192 -384 0
v -208 -384 0
v -208 -368 0
v -192 -368 0
v -208 -384 0
v -224 -384 0
v -224 -368 0
v -208 -368 0
v -416 -384 0
v -432 -384 0
v -432 -368 0
v -416 -368 0
v -432 -384 0
v -448 -384 0
v -448 -368 0
v -432 -368 0
v -480 -384 0
v -496 -384 0
v -496 -368 0
v -480 -368 0
v -144 -400 0
v -160 -400 0
v -160 -384 0
v -144 -384 0
v -192 -400 0
v -208 -400 0
v -208 -384 0
v -192 -384 0
v -432 -400 0
v -448 -400 0
v -448 -384 0
v -432 -384 0
v -448 -400 0
v -464 -400 0
v -464 -384 0
v -448 -384 0
v -480 -400 0
v -496 -400 0
v -496 -384 0
v -480 -384 0
v -144 -416 0
v -160 -416 0
v -160 -400 0
v -144 -400 0
v -176 -416 0
v -192 -416 0
v -192 -400 0
v -176 -400 0
v -192 -416 0
v -208 -416 0
v -208 -400 0
v -192 -400 0
v -448 -416 0
v -464 -416 0
v -464 -400 0
v -448 -400 0
v -480 -416 0
v -496 -416 0
v -496 -400 0
v -480 -400 0
v -144 -432 0
v -160 -432 0
v -160 -416 0
v -144 -416 0
v -192 -432 0
v -208 -432 0
v -208 -416 0
v -192 -416 0
v -432 -432 0
v -448 -432 0
v -448 -416 0
v -432 -416 0
v -448 -432 0
v -464 -432 0
v -464 -416 0
v -448 -416 0
v -480 -432 0
v -496 -432 0
v -496 -416 0
v -480 -416 0
v -144 -448 0
v -160 -448 0
v -160 -432 0
v -144 -432 0
v -192 -448 0
v -208 -448 0
v -208 -432 0
v -192 -432 0
v -432 -448 0
v -448 -448 0
v -448 -432 0
v -432 -432 0
v -480 -448 0
v -496 -448 0
v -496 -432 0
v -480 -432 0
v -144 -464 0
v -160 -464 0
v -160 -448 0
v -144 -448 0
v -160 -464 0
v -176 -464 0
v -176 -448 0
v -160 -448 0
v -192 -464 0
v -208 -464 0
v -208 -448 0
v -192 -448 0
v -416 -464 0
v -432 -464 0
v -432 -448 0
v -416 -448 0
v -432 -464 0
v -448 -464 0
v -448 -448 0
v -432 -448 0
v -480 -464 0
v -496 -464 0
v -496 -448 0
v -480 -448 0
v -144 -480 0
v -160 -480 0
v -160 -464 0
v -144 -464 0
v -160 -480 0
v -176 -480 0
v -176 -464 0
v -160 -464 0
v -192 -480 0
v -208 -480 0
v -208 -464 0
v -192 -464 0
v -208 -480 0
v -224 -480 0
v -224 -464 0
v -208 -464 0
v -400 -480 0
v -416 -480 0
v -416 -464 0
v -400 -464 0
v -416 -480 0
v -432 -480 0
v -432 -464 0
v -416 -464 0
v -480 -480 0
v -496 -480 0
v -496 -464 0
v -480 -464 0
v -144 -496 0
v -160 -496 0
v -160 -480 0
v -144 -480 0
v -208 -496 0
v -224 -496 0
v -224 -480 0
v -208 -480 0
v -320 -496 0
v -336 -496 0
v -336 -480 0
v -320 -480 0
v -336 -496 0
v -352 -496 0
v -352 -480 0
v -336 -480 0
v -352 -496 0
v -368 -496 0
v -368 -480 0
v -352 -480 0
v -368 -496 0
v -384 -496 0
v -384 -480 0
v -368 -480 0
v -384 -496 0
v -400 -496 0
v -400 -480 0
v -384 -480 0
v -400 -496 0
v -416 -496 0
v -416 -480 0
v -400 -480 0
v -464 -496 0
v -480 -496 0
v -480 -480 0
v -464 -480 0
v -480 -496 0
v -496 -496 0
v -496 -480 0
v -480 -480 0
v -144 -512 0
v -160 -512 0
v -160 -496 0
v -144 -496 0
v -160 -512 0
v -176 -512 0
v -176 -496 0
v -160 -496 0
v -208 -512 0
v -224 -512 0
v -224 -496 0
v -208 -496 0
v -224 -512 0
v -240 -512 0
v -240 -496 0
v -224 -496 0
v -288 -512 0
v -304 -512 0
v -304 -496 0
v -288 -496 0
v -304 -512 0
v -320 -512 0
v -320 -496 0
v -304 -496 0
v -320 -512 0
v -336 -512 0
v -336 -496 0
v -320 -496 0
v -448 -512 0
v -464 -512 0
v -464 -496 0
v -448 -496 0
v -464 -512 0
v -480 -512 0
v -480 -496 0
v -464 -496 0
v -160 -528 0
v -176 -528 0
v -176 -512 0
v -160 -512 0
v -224 -528 0
v -240 -528 0
v -240 -512 0
v -224 -512 0
v -240 -528 0
v -256 -528 0
v -256 -512 0
v -240 -512 0
v -256 -528 0
v -272 -528 0
v -272 -512 0
v -256 -512 0
v -272 -528 0
v -288 -528 0
v -288 -512 0
v -272 -512 0
v -288 -528 0
v -304 -528 0
v -304 -512 0
v -288 -512 0
v -320 -528 0
v -336 -528 0
v -336 -512 0
v -320 -512 0
v -336 -528 0
v -352 -528 0
v -352 -512 0
v -336 -512 0
v -352 -528 0
v -368 -528 0
v -368 -512 0
v -352 -512 0
v -384 -528 0
v -400 -528 0
v -400 -512 0
v -384 -512 0
v -432 -528 0
v -448 -528 0
v -448 -512 0
v -432 -512 0
v -448 -528 0
v -464 -528 0
v -464 -512 0
v -448 -512 0
v -160 -544 0
v -176 -544 0
v -176 -528 0
v -160 -528 0
v -176 -544 0
v -192 -544 0
v -192 -528 0
v -176 -528 0
v -256 -544 0
v -272 -544 0
v -272 -528 0
v -256 -528 0
v -272 -544 0
v -288 -544 0
v -288 -528 0
v -272 -528 0
v -320 -544 0
v -336 -544 0
v -336 -528 0
v -320 -528 0
v -400 -544 0
v -416 -544 0
v -416 -528 0
v -400 -528 0
v -416 -544 0
v -432 -544 0
v -432 -528 0
v -416 -528 0
v -432 -544 0
v -448 -544 0
v -448 -528 0
v -432 -528 0
v -176 -560 0
v -192 -560 0
v -192 -544 0
v -176 -544 0
v -192 -560 0
v -208 -560 0
v -208 -544 0
v -192 -544 0
v -256 -560 0
v -272 -560 0
v -272 -544 0
v -256 -544 0
v -272 -560 0
v -288 -560 0
v -288 -544 0
v -272 -544 0
v -304 -560 0
v -320 -560 0
v -320 -544 0
v -304 -544 0
v -352 -560 0
v -368 -560 0
v -368 -544 0
v -352 -544 0
v -368 -560 0
v -384 -560 0
v -384 -544 0
v -368 -544 0
v -384 -560 0
v -400 -560 0
v -400 -544 0
v -384 -544 0
v -400 -560 0
v -416 -560 0
v -416 -544 0
v -400 -544 0
v -192 -576 0
v -208 -576 0
v -208 -560 0
v -192 -560 0
v -208 -576 0
v -224 -576 0
v -224 -560 0
v -208 -560 0
v -224 -576 0
v -240 -576 0
v -240 -560 0
v -224 -560 0
v -336 -576 0
v -352 -576 0
v -352 -560 0
v -336 -560 0
v -352 -576 0
v -368 -576 0
v -368 -560 0
v -352 -560 0
v -224 -592 0
v -240 -592 0
v -240 -576 0
v -224 -576 0
v -240 -592 0
v -256 -592 0
v -256 -576 0
v -240 -576 0
v -256 -592 0
v -272 -592 0
v -272 -576 0
v -256 -576 0
v -272 -592 0
v -288 -592 0
v -288 -576 0
v -272 -576 0
v -288 -592 0
v -304 -592 0
v -304 -576 0
v -288 -576 0
v -304 -592 0
v -320 -592 0
v -320 -576 0
v -304 -576 0
v -320 -592 0
v -336 -592 0
v -336 -576 0
v -320 -576 0
v -336 -592 0
v -352 -592 0
v -352 -576 0
v -336 -576 0

# Texture cooridinates (Count = 49)
vt 0.05 0.8055556
vt 0.075 0.8055556
vt 0.075 0.8333333
vt 0.05 0.8333333
vt 0.1 0.8055556
vt 0.1 0.8333333
vt 0.125 0.8055556
vt 0.125 0.8333333
vt 0.075 0.6944444
vt 0.1 0.6944444
vt 0.1 0.7222222
vt 0.075 0.7222222
vt 0.05 0.6944444
vt 0.05 0.7222222
vt 0.075 0.9722222
vt 0.1 0.9722222
vt 0.1 1
vt 0.075 1
vt 0.35 0.6944444
vt 0.375 0.6944444
vt 0.375 0.7222222
vt 0.35 0.7222222
vt 0.075 0.75
vt 0.05 0.75
vt 0.1 0.75
vt 0.1 0.7777778
vt 0.075 0.7777778
vt 0.05 0.7777778
vt 0.3 0.6944444
vt 0.325 0.6944444
vt 0.325 0.7222222
vt 0.3 0.7222222
vt 0.125 0.75
vt 0.125 0.7777778
vt 0.125 0.9722222
vt 0.15 0.9722222
vt 0.15 1
vt 0.125 1
vt 0.05 0.9722222
vt 0.05 1
vt 0.275 0.7777778
vt 0.3 0.7777778
vt 0.3 0.8055556
vt 0.275 0.8055556
vt 0.325 0.7777778
vt 0.325 0.8055556
vt 0.275 0.75
vt 0.3 0.75
vt 0.325 0.75

# Normal
vn 0 0 -1

# Mesh description
g TileTest_mesh_0004

# Faces
f 1/1/1 2/2/1 3/3/1 4/4/1
f 5/2/1 6/5/1 7/6/1 8/3/1
f 9/2/1 10/5/1 11/6/1 12/3/1
f 13/2/1 14/5/1 15/6/1 16/3/1
f 17/2/1 18/5/1 19/6/1 20/3/1
f 21/2/1 22/5/1 23/6/1 24/3/1
f 25/2/1 26/5/1 27/6/1 28/3/1
f 29/2/1 30/5/1 31/6/1 32/3/1
f 33/2/1 34/5/1 35/6/1 36/3/1
f 37/2/1 38/5/1 39/6/1 40/3/1
f 41/2/1 42/5/1 43/6/1 44/3/1
f 45/2/1 46/5/1 47/6/1 48/3/1
f 49/5/1 50/7/1 51/8/1 52/6/1
f 53/1/1 54/2/1 55/3/1 56/4/1
f 57/9/1 58/10/1 59/11/1 60/12/1
f 61/13/1 62/9/1 63/12/1 64/14/1
f 65/5/1 66/7/1 67/8/1 68/6/1
f 69/1/1 70/2/1 71/3/1 72/4/1
f 73/9/1 74/10/1 75/11/1 76/12/1
f 77/15/1 78/16/1 79/17/1 80/18/1
f 81/19/1 82/20/1 83/21/1 84/22/1
f 85/13/1 86/9/1 87/12/1 88/14/1
f 89/2/1 90/5/1 91/6/1 92/3/1
f 93/5/1 94/7/1 95/8/1 96/6/1
f 97/1/1 98/2/1 99/3/1 100/4/1
f 101/9/1 102/10/1 103/11/1 104/12/1
f 105/14/1 106/12/1 107/23/1 108/24/1
f 109/23/1 110/25/1 111/26/1 112/27/1
f 113/23/1 114/25/1 115/26/1 116/27/1
f 117/23/1 118/25/1 119/26/1 120/27/1
f 121/23/1 122/25/1 123/26/1 124/27/1
f 125/23/1 126/25/1 127/26/1 128/27/1
f 129/23/1 130/25/1 131/26/1 132/27/1
f 133/23/1 134/25/1 135/26/1 136/27/1
f 137/23/1 138/25/1 139/26/1 140/27/1
f 141/23/1 142/25/1 143/26/1 144/27/1
f 145/12/1 146/11/1 147/25/1 148/23/1
f 149/13/1 150/9/1 151/12/1 152/14/1
f 153/5/1 154/7/1 155/8/1 156/6/1
f 157/28/1 158/27/1 159/2/1 160/1/1
f 161/29/1 162/30/1 163/31/1 164/32/1
f 165/14/1 166/12/1 167/23/1 168/24/1
f 169/25/1 170/33/1 171/34/1 172/26/1
f 173/24/1 174/23/1 175/27/1 176/28/1
f 177/12/1 178/11/1 179/25/1 180/23/1
f 181/35/1 182/36/1 183/37/1 184/38/1
f 185/26/1 186/34/1 187/7/1 188/5/1
f 189/28/1 190/27/1 191/2/1 192/1/1
f 193/26/1 194/34/1 195/7/1 196/5/1
f 197/24/1 198/23/1 199/27/1 200/28/1
f 201/12/1 202/11/1 203/25/1 204/23/1
f 205/13/1 206/9/1 207/12/1 208/14/1
f 209/5/1 210/7/1 211/8/1 212/6/1
f 213/1/1 214/2/1 215/3/1 216/4/1
f 217/9/1 218/10/1 219/11/1 220/12/1
f 221/14/1 222/12/1 223/23/1 224/24/1
f 225/25/1 226/33/1 227/34/1 228/26/1
f 229/24/1 230/23/1 231/27/1 232/28/1
f 233/12/1 234/11/1 235/25/1 236/23/1
f 237/26/1 238/34/1 239/7/1 240/5/1
f 241/28/1 242/27/1 243/2/1 244/1/1
f 245/26/1 246/34/1 247/7/1 248/5/1
f 249/24/1 250/23/1 251/27/1 252/28/1
f 253/12/1 254/11/1 255/25/1 256/23/1
f 257/26/1 258/34/1 259/7/1 260/5/1
f 261/28/1 262/27/1 263/2/1 264/1/1
f 265/39/1 266/15/1 267/18/1 268/40/1
f 269/26/1 270/34/1 271/7/1 272/5/1
f 273/28/1 274/27/1 275/2/1 276/1/1
f 277/26/1 278/34/1 279/7/1 280/5/1
f 281/28/1 282/27/1 283/2/1 284/1/1
f 285/26/1 286/34/1 287/7/1 288/5/1
f 289/1/1 290/2/1 291/3/1 292/4/1
f 293/9/1 294/10/1 295/11/1 296/12/1
f 297/26/1 298/34/1 299/7/1 300/5/1
f 301/28/1 302/27/1 303/2/1 304/1/1
f 305/26/1 306/34/1 307/7/1 308/5/1
f 309/28/1 310/27/1 311/2/1 312/1/1
f 313/26/1 314/34/1 315/7/1 316/5/1
f 317/28/1 318/27/1 319/2/1 320/1/1
f 321/39/1 322/15/1 323/18/1 324/40/1
f 325/26/1 326/34/1 327/7/1 328/5/1
f 329/1/1 330/2/1 331/3/1 332/4/1
f 333/9/1 334/10/1 335/11/1 336/12/1
f 337/26/1 338/34/1 339/7/1 340/5/1
f 341/28/1 342/27/1 343/2/1 344/1/1
f 345/19/1 346/20/1 347/21/1 348/22/1
f 349/13/1 350/9/1 351/12/1 352/14/1
f 353/5/1 354/7/1 355/8/1 356/6/1
f 357/1/1 358/2/1 359/3/1 360/4/1
f 361/9/1 362/10/1 363/11/1 364/12/1
f 365/26/1 366/34/1 367/7/1 368/5/1
f 369/28/1 370/27/1 371/2/1 372/1/1
f 373/26/1 374/34/1 375/7/1 376/5/1
f 377/1/1 378/2/1 379/3/1 380/4/1
f 381/2/1 382/5/1 383/6/1 384/3/1
f 385/2/1 386/5/1 387/6/1 388/3/1
f 389/2/1 390/5/1 391/6/1 392/3/1
f 393/2/1 394/5/1 395/6/1 396/3/1
f 397/9/1 398/10/1 399/11/1 400/12/1
f 401/14/1 402/12/1 403/23/1 404/24/1
f 405/25/1 406/33/1 407/34/1 408/26/1
f 409/24/1 410/23/1 411/27/1 412/28/1
f 413/12/1 414/11/1 415/25/1 416/23/1
f 417/13/1 418/9/1 419/12/1 420/14/1
f 421/5/1 422/7/1 423/8/1 424/6/1
f 425/1/1 426/2/1 427/3/1 428/4/1
f 429/2/1 430/5/1 431/6/1 432/3/1
f 433/9/1 434/10/1 435/11/1 436/12/1
f 437/14/1 438/12/1 439/23/1 440/24/1
f 441/25/1 442/33/1 443/34/1 444/26/1
f 445/28/1 446/27/1 447/2/1 448/1/1
f 449/13/1 450/9/1 451/12/1 452/14/1
f 453/2/1 454/5/1 455/6/1 456/3/1
f 457/2/1 458/5/1 459/6/1 460/3/1
f 461/2/1 462/5/1 463/6/1 464/3/1
f 465/9/1 466/10/1 467/11/1 468/12/1
f 469/27/1 470/26/1 471/5/1 472/2/1
f 473/27/1 474/26/1 475/5/1 476/2/1
f 477/39/1 478/15/1 479/18/1 480/40/1
f 481/30/1 482/19/1 483/22/1 484/31/1
f 485/14/1 486/12/1 487/23/1 488/24/1
f 489/25/1 490/33/1 491/34/1 492/26/1
f 493/24/1 494/23/1 495/27/1 496/28/1
f 497/12/1 498/11/1 499/25/1 500/23/1
f 501/41/1 502/42/1 503/43/1 504/44/1
f 505/42/1 506/45/1 507/46/1 508/43/1
f 509/27/1 510/26/1 511/5/1 512/2/1
f 513/14/1 514/12/1 515/23/1 516/24/1
f 517/23/1 518/25/1 519/26/1 520/27/1
f 521/25/1 522/33/1 523/34/1 524/26/1
f 525/24/1 526/23/1 527/27/1 528/28/1
f 529/12/1 530/11/1 531/25/1 532/23/1
f 533/47/1 534/48/1 535/42/1 536/41/1
f 537/48/1 538/49/1 539/45/1 540/42/1
f 541/19/1 542/20/1 543/21/1 544/22/1
f 545/14/1 546/12/1 547/23/1 548/24/1
f 549/23/1 550/25/1 551/26/1 552/27/1
f 553/23/1 554/25/1 555/26/1 556/27/1
f 557/25/1 558/33/1 559/34/1 560/26/1
f 561/24/1 562/23/1 563/27/1 564/28/1
f 565/23/1 566/25/1 567/26/1 568/27/1
f 569/12/1 570/11/1 571/25/1 572/23/1
f 573/14/1 574/12/1 575/23/1 576/24/1
f 577/25/1 578/33/1 579/34/1 580/26/1
f 581/24/1 582/23/1 583/27/1 584/28/1
f 585/23/1 586/25/1 587/26/1 588/27/1
f 589/23/1 590/25/1 591/26/1 592/27/1
f 593/23/1 594/25/1 595/26/1 596/27/1
f 597/23/1 598/25/1 599/26/1 600/27/1
f 601/23/1 602/25/1 603/26/1 604/27/1
f 605/23/1 606/25/1 607/26/1 608/27/1
f 609/25/1 610/33/1 611/34/1 612/26/1

