# Tiled2Unity generated file. Do not modify by hand.
# Wavefront file for 'RoomDR_mesh_0023.obj'

# Vertices (Count = 64)
v 0 -8 0
v -8 -8 0
v -8 0 0
v 0 0 0
v -8 -8 0
v -16 -8 0
v -16 0 0
v -8 0 0
v -16 -8 0
v -24 -8 0
v -24 0 0
v -16 0 0
v -24 -8 0
v -32 -8 0
v -32 0 0
v -24 0 0
v -32 -8 0
v -40 -8 0
v -40 0 0
v -32 0 0
v -40 -8 0
v -48 -8 0
v -48 0 0
v -40 0 0
v -48 -8 0
v -56 -8 0
v -56 0 0
v -48 0 0
v -56 -8 0
v -64 -8 0
v -64 0 0
v -56 0 0
v -64 -8 0
v -72 -8 0
v -72 0 0
v -64 0 0
v -72 -8 0
v -80 -8 0
v -80 0 0
v -72 0 0
v -80 -8 0
v -88 -8 0
v -88 0 0
v -80 0 0
v -88 -8 0
v -96 -8 0
v -96 0 0
v -88 0 0
v -96 -8 0
v -104 -8 0
v -104 0 0
v -96 0 0
v -104 -8 0
v -112 -8 0
v -112 0 0
v -104 0 0
v -112 -8 0
v -120 -8 0
v -120 0 0
v -112 0 0
v -120 -8 0
v -128 -8 0
v -128 0 0
v -120 0 0

# Texture cooridinates (Count = 34)
vt 0.5735294 0.6938776
vt 0.5882353 0.6938776
vt 0.5882353 0.7040817
vt 0.5735294 0.7040817
vt 0.6029412 0.6938776
vt 0.6029412 0.7040817
vt 0.6176471 0.6938776
vt 0.6176471 0.7040817
vt 0.5588235 0.6938776
vt 0.5588235 0.7040817
vt 0.2058824 0.6530612
vt 0.2205882 0.6530612
vt 0.2205882 0.6632653
vt 0.2058824 0.6632653
vt 0.8529412 0.8469388
vt 0.8676471 0.8469388
vt 0.8676471 0.8571429
vt 0.8529412 0.8571429
vt 0.2352941 0.6530612
vt 0.25 0.6530612
vt 0.25 0.6632653
vt 0.2352941 0.6632653
vt 0.2647059 0.6530612
vt 0.2647059 0.6632653
vt 0.2794118 0.6530612
vt 0.2794118 0.6632653
vt 0.2941177 0.6530612
vt 0.2941177 0.6632653
vt 0.5294118 0.755102
vt 0.5441176 0.755102
vt 0.5441176 0.7653061
vt 0.5294118 0.7653061
vt 0.5588235 0.755102
vt 0.5588235 0.7653061

# Normal
vn 0 0 -1

# Mesh description
g RoomDR_mesh_0023

# Faces
f 1/1/1 2/2/1 3/3/1 4/4/1
f 5/2/1 6/5/1 7/6/1 8/3/1
f 9/5/1 10/7/1 11/8/1 12/6/1
f 13/9/1 14/1/1 15/4/1 16/10/1
f 17/1/1 18/2/1 19/3/1 20/4/1
f 21/2/1 22/5/1 23/6/1 24/3/1
f 25/5/1 26/7/1 27/8/1 28/6/1
f 29/11/1 30/12/1 31/13/1 32/14/1
f 33/15/1 34/16/1 35/17/1 36/18/1
f 37/19/1 38/20/1 39/21/1 40/22/1
f 41/20/1 42/23/1 43/24/1 44/21/1
f 45/23/1 46/25/1 47/26/1 48/24/1
f 49/25/1 50/27/1 51/28/1 52/26/1
f 53/29/1 54/30/1 55/31/1 56/32/1
f 57/30/1 58/33/1 59/34/1 60/31/1
f 61/15/1 62/16/1 63/17/1 64/18/1

