# Tiled2Unity generated file. Do not modify by hand.
# Wavefront file for 'RoomDR_mesh_0022.obj'

# Vertices (Count = 64)
v 0 -8 0
v -8 -8 0
v -8 0 0
v 0 0 0
v -8 -8 0
v -16 -8 0
v -16 0 0
v -8 0 0
v -16 -8 0
v -24 -8 0
v -24 0 0
v -16 0 0
v -24 -8 0
v -32 -8 0
v -32 0 0
v -24 0 0
v -32 -8 0
v -40 -8 0
v -40 0 0
v -32 0 0
v -40 -8 0
v -48 -8 0
v -48 0 0
v -40 0 0
v -48 -8 0
v -56 -8 0
v -56 0 0
v -48 0 0
v -56 -8 0
v -64 -8 0
v -64 0 0
v -56 0 0
v -64 -8 0
v -72 -8 0
v -72 0 0
v -64 0 0
v -72 -8 0
v -80 -8 0
v -80 0 0
v -72 0 0
v -80 -8 0
v -88 -8 0
v -88 0 0
v -80 0 0
v -88 -8 0
v -96 -8 0
v -96 0 0
v -88 0 0
v -96 -8 0
v -104 -8 0
v -104 0 0
v -96 0 0
v -104 -8 0
v -112 -8 0
v -112 0 0
v -104 0 0
v -112 -8 0
v -120 -8 0
v -120 0 0
v -112 0 0
v -120 -8 0
v -128 -8 0
v -128 0 0
v -120 0 0

# Texture cooridinates (Count = 34)
vt 0.4264706 0.6530612
vt 0.4411765 0.6530612
vt 0.4411765 0.6632653
vt 0.4264706 0.6632653
vt 0.4558823 0.6530612
vt 0.4558823 0.6632653
vt 0.4705882 0.6530612
vt 0.4705882 0.6632653
vt 0.4852941 0.6530612
vt 0.4852941 0.6632653
vt 0.5 0.6530612
vt 0.5 0.6632653
vt 0.5147059 0.6530612
vt 0.5147059 0.6632653
vt 0.5294118 0.6530612
vt 0.5294118 0.6632653
vt 0.5441176 0.6530612
vt 0.5441176 0.6632653
vt 0.5588235 0.6530612
vt 0.5588235 0.6632653
vt 0.5735294 0.6530612
vt 0.5735294 0.6632653
vt 0.5882353 0.6530612
vt 0.5882353 0.6632653
vt 0.5588235 0.6938776
vt 0.5735294 0.6938776
vt 0.5735294 0.7040817
vt 0.5588235 0.7040817
vt 0.5882353 0.6938776
vt 0.5882353 0.7040817
vt 0.6029412 0.6938776
vt 0.6029412 0.7040817
vt 0.6176471 0.6938776
vt 0.6176471 0.7040817

# Normal
vn 0 0 -1

# Mesh description
g RoomDR_mesh_0022

# Faces
f 1/1/1 2/2/1 3/3/1 4/4/1
f 5/2/1 6/5/1 7/6/1 8/3/1
f 9/5/1 10/7/1 11/8/1 12/6/1
f 13/7/1 14/9/1 15/10/1 16/8/1
f 17/9/1 18/11/1 19/12/1 20/10/1
f 21/11/1 22/13/1 23/14/1 24/12/1
f 25/13/1 26/15/1 27/16/1 28/14/1
f 29/15/1 30/17/1 31/18/1 32/16/1
f 33/17/1 34/19/1 35/20/1 36/18/1
f 37/19/1 38/21/1 39/22/1 40/20/1
f 41/21/1 42/23/1 43/24/1 44/22/1
f 45/25/1 46/26/1 47/27/1 48/28/1
f 49/26/1 50/29/1 51/30/1 52/27/1
f 53/29/1 54/31/1 55/32/1 56/30/1
f 57/31/1 58/33/1 59/34/1 60/32/1
f 61/25/1 62/26/1 63/27/1 64/28/1

