# Tiled2Unity generated file. Do not modify by hand.
# Wavefront file for 'RoomDR_mesh_0003.obj'

# Vertices (Count = 960)
v 0 -16 0
v -8 -16 0
v -8 -8 0
v 0 -8 0
v -8 -16 0
v -16 -16 0
v -16 -8 0
v -8 -8 0
v -16 -16 0
v -24 -16 0
v -24 -8 0
v -16 -8 0
v -24 -16 0
v -32 -16 0
v -32 -8 0
v -24 -8 0
v -32 -16 0
v -40 -16 0
v -40 -8 0
v -32 -8 0
v -40 -16 0
v -48 -16 0
v -48 -8 0
v -40 -8 0
v -48 -16 0
v -56 -16 0
v -56 -8 0
v -48 -8 0
v -56 -16 0
v -64 -16 0
v -64 -8 0
v -56 -8 0
v -64 -16 0
v -72 -16 0
v -72 -8 0
v -64 -8 0
v -72 -16 0
v -80 -16 0
v -80 -8 0
v -72 -8 0
v -80 -16 0
v -88 -16 0
v -88 -8 0
v -80 -8 0
v -88 -16 0
v -96 -16 0
v -96 -8 0
v -88 -8 0
v -96 -16 0
v -104 -16 0
v -104 -8 0
v -96 -8 0
v -104 -16 0
v -112 -16 0
v -112 -8 0
v -104 -8 0
v -112 -16 0
v -120 -16 0
v -120 -8 0
v -112 -8 0
v -120 -16 0
v -128 -16 0
v -128 -8 0
v -120 -8 0
v 0 -24 0
v -8 -24 0
v -8 -16 0
v 0 -16 0
v -8 -24 0
v -16 -24 0
v -16 -16 0
v -8 -16 0
v -16 -24 0
v -24 -24 0
v -24 -16 0
v -16 -16 0
v -24 -24 0
v -32 -24 0
v -32 -16 0
v -24 -16 0
v -32 -24 0
v -40 -24 0
v -40 -16 0
v -32 -16 0
v -40 -24 0
v -48 -24 0
v -48 -16 0
v -40 -16 0
v -48 -24 0
v -56 -24 0
v -56 -16 0
v -48 -16 0
v -56 -24 0
v -64 -24 0
v -64 -16 0
v -56 -16 0
v -64 -24 0
v -72 -24 0
v -72 -16 0
v -64 -16 0
v -72 -24 0
v -80 -24 0
v -80 -16 0
v -72 -16 0
v -80 -24 0
v -88 -24 0
v -88 -16 0
v -80 -16 0
v -88 -24 0
v -96 -24 0
v -96 -16 0
v -88 -16 0
v -96 -24 0
v -104 -24 0
v -104 -16 0
v -96 -16 0
v -104 -24 0
v -112 -24 0
v -112 -16 0
v -104 -16 0
v -112 -24 0
v -120 -24 0
v -120 -16 0
v -112 -16 0
v -120 -24 0
v -128 -24 0
v -128 -16 0
v -120 -16 0
v 0 -32 0
v -8 -32 0
v -8 -24 0
v 0 -24 0
v -8 -32 0
v -16 -32 0
v -16 -24 0
v -8 -24 0
v -16 -32 0
v -24 -32 0
v -24 -24 0
v -16 -24 0
v -24 -32 0
v -32 -32 0
v -32 -24 0
v -24 -24 0
v -32 -32 0
v -40 -32 0
v -40 -24 0
v -32 -24 0
v -40 -32 0
v -48 -32 0
v -48 -24 0
v -40 -24 0
v -48 -32 0
v -56 -32 0
v -56 -24 0
v -48 -24 0
v -56 -32 0
v -64 -32 0
v -64 -24 0
v -56 -24 0
v -64 -32 0
v -72 -32 0
v -72 -24 0
v -64 -24 0
v -72 -32 0
v -80 -32 0
v -80 -24 0
v -72 -24 0
v -80 -32 0
v -88 -32 0
v -88 -24 0
v -80 -24 0
v -88 -32 0
v -96 -32 0
v -96 -24 0
v -88 -24 0
v -96 -32 0
v -104 -32 0
v -104 -24 0
v -96 -24 0
v -104 -32 0
v -112 -32 0
v -112 -24 0
v -104 -24 0
v -112 -32 0
v -120 -32 0
v -120 -24 0
v -112 -24 0
v -120 -32 0
v -128 -32 0
v -128 -24 0
v -120 -24 0
v 0 -40 0
v -8 -40 0
v -8 -32 0
v 0 -32 0
v -8 -40 0
v -16 -40 0
v -16 -32 0
v -8 -32 0
v -16 -40 0
v -24 -40 0
v -24 -32 0
v -16 -32 0
v -24 -40 0
v -32 -40 0
v -32 -32 0
v -24 -32 0
v -32 -40 0
v -40 -40 0
v -40 -32 0
v -32 -32 0
v -40 -40 0
v -48 -40 0
v -48 -32 0
v -40 -32 0
v -48 -40 0
v -56 -40 0
v -56 -32 0
v -48 -32 0
v -56 -40 0
v -64 -40 0
v -64 -32 0
v -56 -32 0
v -64 -40 0
v -72 -40 0
v -72 -32 0
v -64 -32 0
v -72 -40 0
v -80 -40 0
v -80 -32 0
v -72 -32 0
v -80 -40 0
v -88 -40 0
v -88 -32 0
v -80 -32 0
v -88 -40 0
v -96 -40 0
v -96 -32 0
v -88 -32 0
v -96 -40 0
v -104 -40 0
v -104 -32 0
v -96 -32 0
v -104 -40 0
v -112 -40 0
v -112 -32 0
v -104 -32 0
v -112 -40 0
v -120 -40 0
v -120 -32 0
v -112 -32 0
v -120 -40 0
v -128 -40 0
v -128 -32 0
v -120 -32 0
v 0 -48 0
v -8 -48 0
v -8 -40 0
v 0 -40 0
v -8 -48 0
v -16 -48 0
v -16 -40 0
v -8 -40 0
v -16 -48 0
v -24 -48 0
v -24 -40 0
v -16 -40 0
v -24 -48 0
v -32 -48 0
v -32 -40 0
v -24 -40 0
v -32 -48 0
v -40 -48 0
v -40 -40 0
v -32 -40 0
v -40 -48 0
v -48 -48 0
v -48 -40 0
v -40 -40 0
v -48 -48 0
v -56 -48 0
v -56 -40 0
v -48 -40 0
v -56 -48 0
v -64 -48 0
v -64 -40 0
v -56 -40 0
v -64 -48 0
v -72 -48 0
v -72 -40 0
v -64 -40 0
v -72 -48 0
v -80 -48 0
v -80 -40 0
v -72 -40 0
v -80 -48 0
v -88 -48 0
v -88 -40 0
v -80 -40 0
v -88 -48 0
v -96 -48 0
v -96 -40 0
v -88 -40 0
v -96 -48 0
v -104 -48 0
v -104 -40 0
v -96 -40 0
v -104 -48 0
v -112 -48 0
v -112 -40 0
v -104 -40 0
v -112 -48 0
v -120 -48 0
v -120 -40 0
v -112 -40 0
v -120 -48 0
v -128 -48 0
v -128 -40 0
v -120 -40 0
v 0 -56 0
v -8 -56 0
v -8 -48 0
v 0 -48 0
v -8 -56 0
v -16 -56 0
v -16 -48 0
v -8 -48 0
v -16 -56 0
v -24 -56 0
v -24 -48 0
v -16 -48 0
v -24 -56 0
v -32 -56 0
v -32 -48 0
v -24 -48 0
v -32 -56 0
v -40 -56 0
v -40 -48 0
v -32 -48 0
v -40 -56 0
v -48 -56 0
v -48 -48 0
v -40 -48 0
v -48 -56 0
v -56 -56 0
v -56 -48 0
v -48 -48 0
v -56 -56 0
v -64 -56 0
v -64 -48 0
v -56 -48 0
v -64 -56 0
v -72 -56 0
v -72 -48 0
v -64 -48 0
v -72 -56 0
v -80 -56 0
v -80 -48 0
v -72 -48 0
v -80 -56 0
v -88 -56 0
v -88 -48 0
v -80 -48 0
v -88 -56 0
v -96 -56 0
v -96 -48 0
v -88 -48 0
v -96 -56 0
v -104 -56 0
v -104 -48 0
v -96 -48 0
v -104 -56 0
v -112 -56 0
v -112 -48 0
v -104 -48 0
v -112 -56 0
v -120 -56 0
v -120 -48 0
v -112 -48 0
v -120 -56 0
v -128 -56 0
v -128 -48 0
v -120 -48 0
v 0 -64 0
v -8 -64 0
v -8 -56 0
v 0 -56 0
v -8 -64 0
v -16 -64 0
v -16 -56 0
v -8 -56 0
v -16 -64 0
v -24 -64 0
v -24 -56 0
v -16 -56 0
v -24 -64 0
v -32 -64 0
v -32 -56 0
v -24 -56 0
v -32 -64 0
v -40 -64 0
v -40 -56 0
v -32 -56 0
v -40 -64 0
v -48 -64 0
v -48 -56 0
v -40 -56 0
v -48 -64 0
v -56 -64 0
v -56 -56 0
v -48 -56 0
v -56 -64 0
v -64 -64 0
v -64 -56 0
v -56 -56 0
v -64 -64 0
v -72 -64 0
v -72 -56 0
v -64 -56 0
v -72 -64 0
v -80 -64 0
v -80 -56 0
v -72 -56 0
v -80 -64 0
v -88 -64 0
v -88 -56 0
v -80 -56 0
v -88 -64 0
v -96 -64 0
v -96 -56 0
v -88 -56 0
v -96 -64 0
v -104 -64 0
v -104 -56 0
v -96 -56 0
v -104 -64 0
v -112 -64 0
v -112 -56 0
v -104 -56 0
v -112 -64 0
v -120 -64 0
v -120 -56 0
v -112 -56 0
v -120 -64 0
v -128 -64 0
v -128 -56 0
v -120 -56 0
v 0 -72 0
v -8 -72 0
v -8 -64 0
v 0 -64 0
v -8 -72 0
v -16 -72 0
v -16 -64 0
v -8 -64 0
v -16 -72 0
v -24 -72 0
v -24 -64 0
v -16 -64 0
v -24 -72 0
v -32 -72 0
v -32 -64 0
v -24 -64 0
v -32 -72 0
v -40 -72 0
v -40 -64 0
v -32 -64 0
v -40 -72 0
v -48 -72 0
v -48 -64 0
v -40 -64 0
v -48 -72 0
v -56 -72 0
v -56 -64 0
v -48 -64 0
v -56 -72 0
v -64 -72 0
v -64 -64 0
v -56 -64 0
v -64 -72 0
v -72 -72 0
v -72 -64 0
v -64 -64 0
v -72 -72 0
v -80 -72 0
v -80 -64 0
v -72 -64 0
v -80 -72 0
v -88 -72 0
v -88 -64 0
v -80 -64 0
v -88 -72 0
v -96 -72 0
v -96 -64 0
v -88 -64 0
v -96 -72 0
v -104 -72 0
v -104 -64 0
v -96 -64 0
v -104 -72 0
v -112 -72 0
v -112 -64 0
v -104 -64 0
v -112 -72 0
v -120 -72 0
v -120 -64 0
v -112 -64 0
v -120 -72 0
v -128 -72 0
v -128 -64 0
v -120 -64 0
v 0 -80 0
v -8 -80 0
v -8 -72 0
v 0 -72 0
v -8 -80 0
v -16 -80 0
v -16 -72 0
v -8 -72 0
v -16 -80 0
v -24 -80 0
v -24 -72 0
v -16 -72 0
v -24 -80 0
v -32 -80 0
v -32 -72 0
v -24 -72 0
v -32 -80 0
v -40 -80 0
v -40 -72 0
v -32 -72 0
v -40 -80 0
v -48 -80 0
v -48 -72 0
v -40 -72 0
v -48 -80 0
v -56 -80 0
v -56 -72 0
v -48 -72 0
v -56 -80 0
v -64 -80 0
v -64 -72 0
v -56 -72 0
v -64 -80 0
v -72 -80 0
v -72 -72 0
v -64 -72 0
v -72 -80 0
v -80 -80 0
v -80 -72 0
v -72 -72 0
v -80 -80 0
v -88 -80 0
v -88 -72 0
v -80 -72 0
v -88 -80 0
v -96 -80 0
v -96 -72 0
v -88 -72 0
v -96 -80 0
v -104 -80 0
v -104 -72 0
v -96 -72 0
v -104 -80 0
v -112 -80 0
v -112 -72 0
v -104 -72 0
v -112 -80 0
v -120 -80 0
v -120 -72 0
v -112 -72 0
v -120 -80 0
v -128 -80 0
v -128 -72 0
v -120 -72 0
v 0 -88 0
v -8 -88 0
v -8 -80 0
v 0 -80 0
v -8 -88 0
v -16 -88 0
v -16 -80 0
v -8 -80 0
v -16 -88 0
v -24 -88 0
v -24 -80 0
v -16 -80 0
v -24 -88 0
v -32 -88 0
v -32 -80 0
v -24 -80 0
v -32 -88 0
v -40 -88 0
v -40 -80 0
v -32 -80 0
v -40 -88 0
v -48 -88 0
v -48 -80 0
v -40 -80 0
v -48 -88 0
v -56 -88 0
v -56 -80 0
v -48 -80 0
v -56 -88 0
v -64 -88 0
v -64 -80 0
v -56 -80 0
v -64 -88 0
v -72 -88 0
v -72 -80 0
v -64 -80 0
v -72 -88 0
v -80 -88 0
v -80 -80 0
v -72 -80 0
v -80 -88 0
v -88 -88 0
v -88 -80 0
v -80 -80 0
v -88 -88 0
v -96 -88 0
v -96 -80 0
v -88 -80 0
v -96 -88 0
v -104 -88 0
v -104 -80 0
v -96 -80 0
v -104 -88 0
v -112 -88 0
v -112 -80 0
v -104 -80 0
v -112 -88 0
v -120 -88 0
v -120 -80 0
v -112 -80 0
v -120 -88 0
v -128 -88 0
v -128 -80 0
v -120 -80 0
v 0 -96 0
v -8 -96 0
v -8 -88 0
v 0 -88 0
v -8 -96 0
v -16 -96 0
v -16 -88 0
v -8 -88 0
v -16 -96 0
v -24 -96 0
v -24 -88 0
v -16 -88 0
v -24 -96 0
v -32 -96 0
v -32 -88 0
v -24 -88 0
v -32 -96 0
v -40 -96 0
v -40 -88 0
v -32 -88 0
v -40 -96 0
v -48 -96 0
v -48 -88 0
v -40 -88 0
v -48 -96 0
v -56 -96 0
v -56 -88 0
v -48 -88 0
v -56 -96 0
v -64 -96 0
v -64 -88 0
v -56 -88 0
v -64 -96 0
v -72 -96 0
v -72 -88 0
v -64 -88 0
v -72 -96 0
v -80 -96 0
v -80 -88 0
v -72 -88 0
v -80 -96 0
v -88 -96 0
v -88 -88 0
v -80 -88 0
v -88 -96 0
v -96 -96 0
v -96 -88 0
v -88 -88 0
v -96 -96 0
v -104 -96 0
v -104 -88 0
v -96 -88 0
v -104 -96 0
v -112 -96 0
v -112 -88 0
v -104 -88 0
v -112 -96 0
v -120 -96 0
v -120 -88 0
v -112 -88 0
v -120 -96 0
v -128 -96 0
v -128 -88 0
v -120 -88 0
v 0 -104 0
v -8 -104 0
v -8 -96 0
v 0 -96 0
v -8 -104 0
v -16 -104 0
v -16 -96 0
v -8 -96 0
v -16 -104 0
v -24 -104 0
v -24 -96 0
v -16 -96 0
v -24 -104 0
v -32 -104 0
v -32 -96 0
v -24 -96 0
v -32 -104 0
v -40 -104 0
v -40 -96 0
v -32 -96 0
v -40 -104 0
v -48 -104 0
v -48 -96 0
v -40 -96 0
v -48 -104 0
v -56 -104 0
v -56 -96 0
v -48 -96 0
v -56 -104 0
v -64 -104 0
v -64 -96 0
v -56 -96 0
v -64 -104 0
v -72 -104 0
v -72 -96 0
v -64 -96 0
v -72 -104 0
v -80 -104 0
v -80 -96 0
v -72 -96 0
v -80 -104 0
v -88 -104 0
v -88 -96 0
v -80 -96 0
v -88 -104 0
v -96 -104 0
v -96 -96 0
v -88 -96 0
v -96 -104 0
v -104 -104 0
v -104 -96 0
v -96 -96 0
v -104 -104 0
v -112 -104 0
v -112 -96 0
v -104 -96 0
v -112 -104 0
v -120 -104 0
v -120 -96 0
v -112 -96 0
v -120 -104 0
v -128 -104 0
v -128 -96 0
v -120 -96 0
v 0 -112 0
v -8 -112 0
v -8 -104 0
v 0 -104 0
v -8 -112 0
v -16 -112 0
v -16 -104 0
v -8 -104 0
v -16 -112 0
v -24 -112 0
v -24 -104 0
v -16 -104 0
v -24 -112 0
v -32 -112 0
v -32 -104 0
v -24 -104 0
v -32 -112 0
v -40 -112 0
v -40 -104 0
v -32 -104 0
v -40 -112 0
v -48 -112 0
v -48 -104 0
v -40 -104 0
v -48 -112 0
v -56 -112 0
v -56 -104 0
v -48 -104 0
v -56 -112 0
v -64 -112 0
v -64 -104 0
v -56 -104 0
v -64 -112 0
v -72 -112 0
v -72 -104 0
v -64 -104 0
v -72 -112 0
v -80 -112 0
v -80 -104 0
v -72 -104 0
v -80 -112 0
v -88 -112 0
v -88 -104 0
v -80 -104 0
v -88 -112 0
v -96 -112 0
v -96 -104 0
v -88 -104 0
v -96 -112 0
v -104 -112 0
v -104 -104 0
v -96 -104 0
v -104 -112 0
v -112 -112 0
v -112 -104 0
v -104 -104 0
v -112 -112 0
v -120 -112 0
v -120 -104 0
v -112 -104 0
v -120 -112 0
v -128 -112 0
v -128 -104 0
v -120 -104 0
v 0 -120 0
v -8 -120 0
v -8 -112 0
v 0 -112 0
v -8 -120 0
v -16 -120 0
v -16 -112 0
v -8 -112 0
v -16 -120 0
v -24 -120 0
v -24 -112 0
v -16 -112 0
v -24 -120 0
v -32 -120 0
v -32 -112 0
v -24 -112 0
v -32 -120 0
v -40 -120 0
v -40 -112 0
v -32 -112 0
v -40 -120 0
v -48 -120 0
v -48 -112 0
v -40 -112 0
v -48 -120 0
v -56 -120 0
v -56 -112 0
v -48 -112 0
v -56 -120 0
v -64 -120 0
v -64 -112 0
v -56 -112 0
v -64 -120 0
v -72 -120 0
v -72 -112 0
v -64 -112 0
v -72 -120 0
v -80 -120 0
v -80 -112 0
v -72 -112 0
v -80 -120 0
v -88 -120 0
v -88 -112 0
v -80 -112 0
v -88 -120 0
v -96 -120 0
v -96 -112 0
v -88 -112 0
v -96 -120 0
v -104 -120 0
v -104 -112 0
v -96 -112 0
v -104 -120 0
v -112 -120 0
v -112 -112 0
v -104 -112 0
v -112 -120 0
v -120 -120 0
v -120 -112 0
v -112 -112 0
v -120 -120 0
v -128 -120 0
v -128 -112 0
v -120 -112 0
v 0 -128 0
v -8 -128 0
v -8 -120 0
v 0 -120 0
v -8 -128 0
v -16 -128 0
v -16 -120 0
v -8 -120 0
v -16 -128 0
v -24 -128 0
v -24 -120 0
v -16 -120 0
v -24 -128 0
v -32 -128 0
v -32 -120 0
v -24 -120 0
v -32 -128 0
v -40 -128 0
v -40 -120 0
v -32 -120 0
v -40 -128 0
v -48 -128 0
v -48 -120 0
v -40 -120 0
v -48 -128 0
v -56 -128 0
v -56 -120 0
v -48 -120 0
v -56 -128 0
v -64 -128 0
v -64 -120 0
v -56 -120 0
v -64 -128 0
v -72 -128 0
v -72 -120 0
v -64 -120 0
v -72 -128 0
v -80 -128 0
v -80 -120 0
v -72 -120 0
v -80 -128 0
v -88 -128 0
v -88 -120 0
v -80 -120 0
v -88 -128 0
v -96 -128 0
v -96 -120 0
v -88 -120 0
v -96 -128 0
v -104 -128 0
v -104 -120 0
v -96 -120 0
v -104 -128 0
v -112 -128 0
v -112 -120 0
v -104 -120 0
v -112 -128 0
v -120 -128 0
v -120 -120 0
v -112 -120 0
v -120 -128 0
v -128 -128 0
v -128 -120 0
v -120 -120 0

# Texture cooridinates (Count = 93)
vt 0.3382353 0.9693878
vt 0.3529412 0.9693878
vt 0.3529412 0.9795918
vt 0.3382353 0.9795918
vt 0.4117647 0.9693878
vt 0.4264706 0.9693878
vt 0.4264706 0.9795918
vt 0.4117647 0.9795918
vt 0.6176471 0.7857143
vt 0.6323529 0.7857143
vt 0.6323529 0.7959183
vt 0.6176471 0.7959183
vt 0.3235294 0.9693878
vt 0.3235294 0.9795918
vt 0.3382353 0.9591837
vt 0.3529412 0.9591837
vt 0.4117647 0.9591837
vt 0.4264706 0.9591837
vt 0.3235294 0.9591837
vt 0.4117647 0.9489796
vt 0.4264706 0.9489796
vt 0.6617647 0.9489796
vt 0.6764706 0.9489796
vt 0.6764706 0.9591837
vt 0.6617647 0.9591837
vt 0.4411765 0.9489796
vt 0.4411765 0.9591837
vt 0.3823529 0.9489796
vt 0.3970588 0.9489796
vt 0.3970588 0.9591837
vt 0.3823529 0.9591837
vt 0.4117647 0.9387755
vt 0.4264706 0.9387755
vt 0.4411765 0.9387755
vt 0.3823529 0.9387755
vt 0.3970588 0.9387755
vt 0.3529412 0.9489796
vt 0.3676471 0.9489796
vt 0.3676471 0.9591837
vt 0.4411765 0.9285714
vt 0.4558823 0.9285714
vt 0.4558823 0.9387755
vt 0.4705882 0.9285714
vt 0.4705882 0.9387755
vt 0.6617647 0.9285714
vt 0.6764706 0.9285714
vt 0.6764706 0.9387755
vt 0.6617647 0.9387755
vt 0.2794118 0.9285714
vt 0.2941177 0.9285714
vt 0.2941177 0.9387755
vt 0.2794118 0.9387755
vt 0.3088235 0.9285714
vt 0.3088235 0.9387755
vt 0.3235294 0.9285714
vt 0.3235294 0.9387755
vt 0.3382353 0.9285714
vt 0.3382353 0.9387755
vt 0.3529412 0.9285714
vt 0.3529412 0.9387755
vt 0.3676471 0.9285714
vt 0.3676471 0.9387755
vt 0.3823529 0.9285714
vt 0.3970588 0.9285714
vt 0.4117647 0.9285714
vt 0.4264706 0.9285714
vt 0.4264706 0.8979592
vt 0.4411765 0.8979592
vt 0.4411765 0.9081632
vt 0.4264706 0.9081632
vt 0.4558823 0.8979592
vt 0.4558823 0.9081632
vt 0.4264706 0.8877551
vt 0.4411765 0.8877551
vt 0.4558823 0.8877551
vt 0.4117647 0.877551
vt 0.4264706 0.877551
vt 0.4117647 0.8877551
vt 0.4411765 0.877551
vt 0.3823529 0.9081632
vt 0.3970588 0.9081632
vt 0.3970588 0.9183673
vt 0.3823529 0.9183673
vt 0.4117647 0.9081632
vt 0.4117647 0.9183673
vt 0.4117647 0.8673469
vt 0.4264706 0.8673469
vt 0.3823529 0.8979592
vt 0.3970588 0.8979592
vt 0.4117647 0.8979592
vt 0.4411765 0.8673469
vt 0.3823529 0.8877551
vt 0.3970588 0.8877551

# Normal
vn 0 0 -1

# Mesh description
g RoomDR_mesh_0003

# Faces
f 1/1/1 2/2/1 3/3/1 4/4/1
f 5/5/1 6/6/1 7/7/1 8/8/1
f 9/9/1 10/10/1 11/11/1 12/12/1
f 13/9/1 14/10/1 15/11/1 16/12/1
f 17/1/1 18/2/1 19/3/1 20/4/1
f 21/5/1 22/6/1 23/7/1 24/8/1
f 25/1/1 26/2/1 27/3/1 28/4/1
f 29/5/1 30/6/1 31/7/1 32/8/1
f 33/1/1 34/2/1 35/3/1 36/4/1
f 37/13/1 38/1/1 39/4/1 40/14/1
f 41/1/1 42/2/1 43/3/1 44/4/1
f 45/13/1 46/1/1 47/4/1 48/14/1
f 49/9/1 50/10/1 51/11/1 52/12/1
f 53/9/1 54/10/1 55/11/1 56/12/1
f 57/1/1 58/2/1 59/3/1 60/4/1
f 61/5/1 62/6/1 63/7/1 64/8/1
f 65/15/1 66/16/1 67/2/1 68/1/1
f 69/17/1 70/18/1 71/6/1 72/5/1
f 73/15/1 74/16/1 75/2/1 76/1/1
f 77/17/1 78/18/1 79/6/1 80/5/1
f 81/15/1 82/16/1 83/2/1 84/1/1
f 85/17/1 86/18/1 87/6/1 88/5/1
f 89/15/1 90/16/1 91/2/1 92/1/1
f 93/17/1 94/18/1 95/6/1 96/5/1
f 97/15/1 98/16/1 99/2/1 100/1/1
f 101/19/1 102/15/1 103/1/1 104/13/1
f 105/15/1 106/16/1 107/2/1 108/1/1
f 109/19/1 110/15/1 111/1/1 112/13/1
f 113/15/1 114/16/1 115/2/1 116/1/1
f 117/19/1 118/15/1 119/1/1 120/13/1
f 121/15/1 122/16/1 123/2/1 124/1/1
f 125/17/1 126/18/1 127/6/1 128/5/1
f 129/20/1 130/21/1 131/18/1 132/17/1
f 133/20/1 134/21/1 135/18/1 136/17/1
f 137/22/1 138/23/1 139/24/1 140/25/1
f 141/20/1 142/21/1 143/18/1 144/17/1
f 145/20/1 146/21/1 147/18/1 148/17/1
f 149/20/1 150/21/1 151/18/1 152/17/1
f 153/20/1 154/21/1 155/18/1 156/17/1
f 157/20/1 158/21/1 159/18/1 160/17/1
f 161/20/1 162/21/1 163/18/1 164/17/1
f 165/21/1 166/26/1 167/27/1 168/18/1
f 169/28/1 170/29/1 171/30/1 172/31/1
f 173/29/1 174/20/1 175/17/1 176/30/1
f 177/20/1 178/21/1 179/18/1 180/17/1
f 181/20/1 182/21/1 183/18/1 184/17/1
f 185/20/1 186/21/1 187/18/1 188/17/1
f 189/20/1 190/21/1 191/18/1 192/17/1
f 193/32/1 194/33/1 195/21/1 196/20/1
f 197/32/1 198/33/1 199/21/1 200/20/1
f 201/22/1 202/23/1 203/24/1 204/25/1
f 205/32/1 206/33/1 207/21/1 208/20/1
f 209/22/1 210/23/1 211/24/1 212/25/1
f 213/32/1 214/33/1 215/21/1 216/20/1
f 217/32/1 218/33/1 219/21/1 220/20/1
f 221/32/1 222/33/1 223/21/1 224/20/1
f 225/32/1 226/33/1 227/21/1 228/20/1
f 229/33/1 230/34/1 231/26/1 232/21/1
f 233/35/1 234/36/1 235/29/1 236/28/1
f 237/36/1 238/32/1 239/20/1 240/29/1
f 241/32/1 242/33/1 243/21/1 244/20/1
f 245/32/1 246/33/1 247/21/1 248/20/1
f 249/22/1 250/23/1 251/24/1 252/25/1
f 253/32/1 254/33/1 255/21/1 256/20/1
f 257/37/1 258/38/1 259/39/1 260/16/1
f 261/38/1 262/28/1 263/31/1 264/39/1
f 265/22/1 266/23/1 267/24/1 268/25/1
f 269/37/1 270/38/1 271/39/1 272/16/1
f 273/22/1 274/23/1 275/24/1 276/25/1
f 277/37/1 278/38/1 279/39/1 280/16/1
f 281/37/1 282/38/1 283/39/1 284/16/1
f 285/37/1 286/38/1 287/39/1 288/16/1
f 289/37/1 290/38/1 291/39/1 292/16/1
f 293/37/1 294/38/1 295/39/1 296/16/1
f 297/37/1 298/38/1 299/39/1 300/16/1
f 301/37/1 302/38/1 303/39/1 304/16/1
f 305/37/1 306/38/1 307/39/1 308/16/1
f 309/38/1 310/28/1 311/31/1 312/39/1
f 313/22/1 314/23/1 315/24/1 316/25/1
f 317/37/1 318/38/1 319/39/1 320/16/1
f 321/40/1 322/41/1 323/42/1 324/34/1
f 325/41/1 326/43/1 327/44/1 328/42/1
f 329/45/1 330/46/1 331/47/1 332/48/1
f 333/49/1 334/50/1 335/51/1 336/52/1
f 337/50/1 338/53/1 339/54/1 340/51/1
f 341/53/1 342/55/1 343/56/1 344/54/1
f 345/55/1 346/57/1 347/58/1 348/56/1
f 349/57/1 350/59/1 351/60/1 352/58/1
f 353/59/1 354/61/1 355/62/1 356/60/1
f 357/61/1 358/63/1 359/35/1 360/62/1
f 361/63/1 362/64/1 363/36/1 364/35/1
f 365/64/1 366/65/1 367/32/1 368/36/1
f 369/65/1 370/66/1 371/33/1 372/32/1
f 373/66/1 374/40/1 375/34/1 376/33/1
f 377/40/1 378/41/1 379/42/1 380/34/1
f 381/41/1 382/43/1 383/44/1 384/42/1
f 385/67/1 386/68/1 387/69/1 388/70/1
f 389/67/1 390/68/1 391/69/1 392/70/1
f 393/67/1 394/68/1 395/69/1 396/70/1
f 397/67/1 398/68/1 399/69/1 400/70/1
f 401/67/1 402/68/1 403/69/1 404/70/1
f 405/67/1 406/68/1 407/69/1 408/70/1
f 409/67/1 410/68/1 411/69/1 412/70/1
f 413/67/1 414/68/1 415/69/1 416/70/1
f 417/67/1 418/68/1 419/69/1 420/70/1
f 421/67/1 422/68/1 423/69/1 424/70/1
f 425/68/1 426/71/1 427/72/1 428/69/1
f 429/67/1 430/68/1 431/69/1 432/70/1
f 433/67/1 434/68/1 435/69/1 436/70/1
f 437/68/1 438/71/1 439/72/1 440/69/1
f 441/68/1 442/71/1 443/72/1 444/69/1
f 445/68/1 446/71/1 447/72/1 448/69/1
f 449/73/1 450/74/1 451/68/1 452/67/1
f 453/73/1 454/74/1 455/68/1 456/67/1
f 457/73/1 458/74/1 459/68/1 460/67/1
f 461/73/1 462/74/1 463/68/1 464/67/1
f 465/73/1 466/74/1 467/68/1 468/67/1
f 469/73/1 470/74/1 471/68/1 472/67/1
f 473/73/1 474/74/1 475/68/1 476/67/1
f 477/73/1 478/74/1 479/68/1 480/67/1
f 481/67/1 482/68/1 483/69/1 484/70/1
f 485/68/1 486/71/1 487/72/1 488/69/1
f 489/68/1 490/71/1 491/72/1 492/69/1
f 493/67/1 494/68/1 495/69/1 496/70/1
f 497/67/1 498/68/1 499/69/1 500/70/1
f 501/67/1 502/68/1 503/69/1 504/70/1
f 505/67/1 506/68/1 507/69/1 508/70/1
f 509/67/1 510/68/1 511/69/1 512/70/1
f 513/67/1 514/68/1 515/69/1 516/70/1
f 517/67/1 518/68/1 519/69/1 520/70/1
f 521/73/1 522/74/1 523/68/1 524/67/1
f 525/73/1 526/74/1 527/68/1 528/67/1
f 529/73/1 530/74/1 531/68/1 532/67/1
f 533/74/1 534/75/1 535/71/1 536/68/1
f 537/67/1 538/68/1 539/69/1 540/70/1
f 541/68/1 542/71/1 543/72/1 544/69/1
f 545/68/1 546/71/1 547/72/1 548/69/1
f 549/74/1 550/75/1 551/71/1 552/68/1
f 553/74/1 554/75/1 555/71/1 556/68/1
f 557/73/1 558/74/1 559/68/1 560/67/1
f 561/73/1 562/74/1 563/68/1 564/67/1
f 565/73/1 566/74/1 567/68/1 568/67/1
f 569/73/1 570/74/1 571/68/1 572/67/1
f 573/73/1 574/74/1 575/68/1 576/67/1
f 577/73/1 578/74/1 579/68/1 580/67/1
f 581/73/1 582/74/1 583/68/1 584/67/1
f 585/73/1 586/74/1 587/68/1 588/67/1
f 589/67/1 590/68/1 591/69/1 592/70/1
f 593/68/1 594/71/1 595/72/1 596/69/1
f 597/67/1 598/68/1 599/69/1 600/70/1
f 601/68/1 602/71/1 603/72/1 604/69/1
f 605/68/1 606/71/1 607/72/1 608/69/1
f 609/67/1 610/68/1 611/69/1 612/70/1
f 613/67/1 614/68/1 615/69/1 616/70/1
f 617/68/1 618/71/1 619/72/1 620/69/1
f 621/68/1 622/71/1 623/72/1 624/69/1
f 625/68/1 626/71/1 627/72/1 628/69/1
f 629/74/1 630/75/1 631/71/1 632/68/1
f 633/68/1 634/71/1 635/72/1 636/69/1
f 637/67/1 638/68/1 639/69/1 640/70/1
f 641/74/1 642/75/1 643/71/1 644/68/1
f 645/67/1 646/68/1 647/69/1 648/70/1
f 649/67/1 650/68/1 651/69/1 652/70/1
f 653/67/1 654/68/1 655/69/1 656/70/1
f 657/67/1 658/68/1 659/69/1 660/70/1
f 661/67/1 662/68/1 663/69/1 664/70/1
f 665/67/1 666/68/1 667/69/1 668/70/1
f 669/68/1 670/71/1 671/72/1 672/69/1
f 673/68/1 674/71/1 675/72/1 676/69/1
f 677/68/1 678/71/1 679/72/1 680/69/1
f 681/74/1 682/75/1 683/71/1 684/68/1
f 685/74/1 686/75/1 687/71/1 688/68/1
f 689/74/1 690/75/1 691/71/1 692/68/1
f 693/74/1 694/75/1 695/71/1 696/68/1
f 697/74/1 698/75/1 699/71/1 700/68/1
f 701/67/1 702/68/1 703/69/1 704/70/1
f 705/68/1 706/71/1 707/72/1 708/69/1
f 709/67/1 710/68/1 711/69/1 712/70/1
f 713/73/1 714/74/1 715/68/1 716/67/1
f 717/67/1 718/68/1 719/69/1 720/70/1
f 721/76/1 722/77/1 723/73/1 724/78/1
f 725/76/1 726/77/1 727/73/1 728/78/1
f 729/76/1 730/77/1 731/73/1 732/78/1
f 733/76/1 734/77/1 735/73/1 736/78/1
f 737/76/1 738/77/1 739/73/1 740/78/1
f 741/76/1 742/77/1 743/73/1 744/78/1
f 745/76/1 746/77/1 747/73/1 748/78/1
f 749/77/1 750/79/1 751/74/1 752/73/1
f 753/76/1 754/77/1 755/73/1 756/78/1
f 757/76/1 758/77/1 759/73/1 760/78/1
f 761/76/1 762/77/1 763/73/1 764/78/1
f 765/76/1 766/77/1 767/73/1 768/78/1
f 769/80/1 770/81/1 771/82/1 772/83/1
f 773/81/1 774/84/1 775/85/1 776/82/1
f 777/68/1 778/71/1 779/72/1 780/69/1
f 781/68/1 782/71/1 783/72/1 784/69/1
f 785/76/1 786/77/1 787/73/1 788/78/1
f 789/77/1 790/79/1 791/74/1 792/73/1
f 793/76/1 794/77/1 795/73/1 796/78/1
f 797/77/1 798/79/1 799/74/1 800/73/1
f 801/77/1 802/79/1 803/74/1 804/73/1
f 805/76/1 806/77/1 807/73/1 808/78/1
f 809/76/1 810/77/1 811/73/1 812/78/1
f 813/77/1 814/79/1 815/74/1 816/73/1
f 817/76/1 818/77/1 819/73/1 820/78/1
f 821/77/1 822/79/1 823/74/1 824/73/1
f 825/86/1 826/87/1 827/77/1 828/76/1
f 829/86/1 830/87/1 831/77/1 832/76/1
f 833/88/1 834/89/1 835/81/1 836/80/1
f 837/89/1 838/90/1 839/84/1 840/81/1
f 841/74/1 842/75/1 843/71/1 844/68/1
f 845/74/1 846/75/1 847/71/1 848/68/1
f 849/76/1 850/77/1 851/73/1 852/78/1
f 853/76/1 854/77/1 855/73/1 856/78/1
f 857/86/1 858/87/1 859/77/1 860/76/1
f 861/87/1 862/91/1 863/79/1 864/77/1
f 865/87/1 866/91/1 867/79/1 868/77/1
f 869/86/1 870/87/1 871/77/1 872/76/1
f 873/76/1 874/77/1 875/73/1 876/78/1
f 877/77/1 878/79/1 879/74/1 880/73/1
f 881/76/1 882/77/1 883/73/1 884/78/1
f 885/76/1 886/77/1 887/73/1 888/78/1
f 889/77/1 890/79/1 891/74/1 892/73/1
f 893/76/1 894/77/1 895/73/1 896/78/1
f 897/92/1 898/93/1 899/89/1 900/88/1
f 901/93/1 902/78/1 903/90/1 904/89/1
f 905/74/1 906/75/1 907/71/1 908/68/1
f 909/74/1 910/75/1 911/71/1 912/68/1
f 913/86/1 914/87/1 915/77/1 916/76/1
f 917/76/1 918/77/1 919/73/1 920/78/1
f 921/76/1 922/77/1 923/73/1 924/78/1
f 925/77/1 926/79/1 927/74/1 928/73/1
f 929/76/1 930/77/1 931/73/1 932/78/1
f 933/86/1 934/87/1 935/77/1 936/76/1
f 937/76/1 938/77/1 939/73/1 940/78/1
f 941/76/1 942/77/1 943/73/1 944/78/1
f 945/86/1 946/87/1 947/77/1 948/76/1
f 949/76/1 950/77/1 951/73/1 952/78/1
f 953/76/1 954/77/1 955/73/1 956/78/1
f 957/76/1 958/77/1 959/73/1 960/78/1

