# Tiled2Unity generated file. Do not modify by hand.
# Wavefront file for 'RoomDR_mesh_0007.obj'

# Vertices (Count = 1024)
v 0 -8 0
v -8 -8 0
v -8 0 0
v 0 0 0
v -8 -8 0
v -16 -8 0
v -16 0 0
v -8 0 0
v -16 -8 0
v -24 -8 0
v -24 0 0
v -16 0 0
v -24 -8 0
v -32 -8 0
v -32 0 0
v -24 0 0
v -32 -8 0
v -40 -8 0
v -40 0 0
v -32 0 0
v -40 -8 0
v -48 -8 0
v -48 0 0
v -40 0 0
v -48 -8 0
v -56 -8 0
v -56 0 0
v -48 0 0
v -56 -8 0
v -64 -8 0
v -64 0 0
v -56 0 0
v -64 -8 0
v -72 -8 0
v -72 0 0
v -64 0 0
v -72 -8 0
v -80 -8 0
v -80 0 0
v -72 0 0
v -80 -8 0
v -88 -8 0
v -88 0 0
v -80 0 0
v -88 -8 0
v -96 -8 0
v -96 0 0
v -88 0 0
v -96 -8 0
v -104 -8 0
v -104 0 0
v -96 0 0
v -104 -8 0
v -112 -8 0
v -112 0 0
v -104 0 0
v -112 -8 0
v -120 -8 0
v -120 0 0
v -112 0 0
v -120 -8 0
v -128 -8 0
v -128 0 0
v -120 0 0
v 0 -16 0
v -8 -16 0
v -8 -8 0
v 0 -8 0
v -8 -16 0
v -16 -16 0
v -16 -8 0
v -8 -8 0
v -16 -16 0
v -24 -16 0
v -24 -8 0
v -16 -8 0
v -24 -16 0
v -32 -16 0
v -32 -8 0
v -24 -8 0
v -32 -16 0
v -40 -16 0
v -40 -8 0
v -32 -8 0
v -40 -16 0
v -48 -16 0
v -48 -8 0
v -40 -8 0
v -48 -16 0
v -56 -16 0
v -56 -8 0
v -48 -8 0
v -56 -16 0
v -64 -16 0
v -64 -8 0
v -56 -8 0
v -64 -16 0
v -72 -16 0
v -72 -8 0
v -64 -8 0
v -72 -16 0
v -80 -16 0
v -80 -8 0
v -72 -8 0
v -80 -16 0
v -88 -16 0
v -88 -8 0
v -80 -8 0
v -88 -16 0
v -96 -16 0
v -96 -8 0
v -88 -8 0
v -96 -16 0
v -104 -16 0
v -104 -8 0
v -96 -8 0
v -104 -16 0
v -112 -16 0
v -112 -8 0
v -104 -8 0
v -112 -16 0
v -120 -16 0
v -120 -8 0
v -112 -8 0
v -120 -16 0
v -128 -16 0
v -128 -8 0
v -120 -8 0
v 0 -24 0
v -8 -24 0
v -8 -16 0
v 0 -16 0
v -8 -24 0
v -16 -24 0
v -16 -16 0
v -8 -16 0
v -16 -24 0
v -24 -24 0
v -24 -16 0
v -16 -16 0
v -24 -24 0
v -32 -24 0
v -32 -16 0
v -24 -16 0
v -32 -24 0
v -40 -24 0
v -40 -16 0
v -32 -16 0
v -40 -24 0
v -48 -24 0
v -48 -16 0
v -40 -16 0
v -48 -24 0
v -56 -24 0
v -56 -16 0
v -48 -16 0
v -56 -24 0
v -64 -24 0
v -64 -16 0
v -56 -16 0
v -64 -24 0
v -72 -24 0
v -72 -16 0
v -64 -16 0
v -72 -24 0
v -80 -24 0
v -80 -16 0
v -72 -16 0
v -80 -24 0
v -88 -24 0
v -88 -16 0
v -80 -16 0
v -88 -24 0
v -96 -24 0
v -96 -16 0
v -88 -16 0
v -96 -24 0
v -104 -24 0
v -104 -16 0
v -96 -16 0
v -104 -24 0
v -112 -24 0
v -112 -16 0
v -104 -16 0
v -112 -24 0
v -120 -24 0
v -120 -16 0
v -112 -16 0
v -120 -24 0
v -128 -24 0
v -128 -16 0
v -120 -16 0
v 0 -32 0
v -8 -32 0
v -8 -24 0
v 0 -24 0
v -8 -32 0
v -16 -32 0
v -16 -24 0
v -8 -24 0
v -16 -32 0
v -24 -32 0
v -24 -24 0
v -16 -24 0
v -24 -32 0
v -32 -32 0
v -32 -24 0
v -24 -24 0
v -32 -32 0
v -40 -32 0
v -40 -24 0
v -32 -24 0
v -40 -32 0
v -48 -32 0
v -48 -24 0
v -40 -24 0
v -48 -32 0
v -56 -32 0
v -56 -24 0
v -48 -24 0
v -56 -32 0
v -64 -32 0
v -64 -24 0
v -56 -24 0
v -64 -32 0
v -72 -32 0
v -72 -24 0
v -64 -24 0
v -72 -32 0
v -80 -32 0
v -80 -24 0
v -72 -24 0
v -80 -32 0
v -88 -32 0
v -88 -24 0
v -80 -24 0
v -88 -32 0
v -96 -32 0
v -96 -24 0
v -88 -24 0
v -96 -32 0
v -104 -32 0
v -104 -24 0
v -96 -24 0
v -104 -32 0
v -112 -32 0
v -112 -24 0
v -104 -24 0
v -112 -32 0
v -120 -32 0
v -120 -24 0
v -112 -24 0
v -120 -32 0
v -128 -32 0
v -128 -24 0
v -120 -24 0
v 0 -40 0
v -8 -40 0
v -8 -32 0
v 0 -32 0
v -8 -40 0
v -16 -40 0
v -16 -32 0
v -8 -32 0
v -16 -40 0
v -24 -40 0
v -24 -32 0
v -16 -32 0
v -24 -40 0
v -32 -40 0
v -32 -32 0
v -24 -32 0
v -32 -40 0
v -40 -40 0
v -40 -32 0
v -32 -32 0
v -40 -40 0
v -48 -40 0
v -48 -32 0
v -40 -32 0
v -48 -40 0
v -56 -40 0
v -56 -32 0
v -48 -32 0
v -56 -40 0
v -64 -40 0
v -64 -32 0
v -56 -32 0
v -64 -40 0
v -72 -40 0
v -72 -32 0
v -64 -32 0
v -72 -40 0
v -80 -40 0
v -80 -32 0
v -72 -32 0
v -80 -40 0
v -88 -40 0
v -88 -32 0
v -80 -32 0
v -88 -40 0
v -96 -40 0
v -96 -32 0
v -88 -32 0
v -96 -40 0
v -104 -40 0
v -104 -32 0
v -96 -32 0
v -104 -40 0
v -112 -40 0
v -112 -32 0
v -104 -32 0
v -112 -40 0
v -120 -40 0
v -120 -32 0
v -112 -32 0
v -120 -40 0
v -128 -40 0
v -128 -32 0
v -120 -32 0
v 0 -48 0
v -8 -48 0
v -8 -40 0
v 0 -40 0
v -8 -48 0
v -16 -48 0
v -16 -40 0
v -8 -40 0
v -16 -48 0
v -24 -48 0
v -24 -40 0
v -16 -40 0
v -24 -48 0
v -32 -48 0
v -32 -40 0
v -24 -40 0
v -32 -48 0
v -40 -48 0
v -40 -40 0
v -32 -40 0
v -40 -48 0
v -48 -48 0
v -48 -40 0
v -40 -40 0
v -48 -48 0
v -56 -48 0
v -56 -40 0
v -48 -40 0
v -56 -48 0
v -64 -48 0
v -64 -40 0
v -56 -40 0
v -64 -48 0
v -72 -48 0
v -72 -40 0
v -64 -40 0
v -72 -48 0
v -80 -48 0
v -80 -40 0
v -72 -40 0
v -80 -48 0
v -88 -48 0
v -88 -40 0
v -80 -40 0
v -88 -48 0
v -96 -48 0
v -96 -40 0
v -88 -40 0
v -96 -48 0
v -104 -48 0
v -104 -40 0
v -96 -40 0
v -104 -48 0
v -112 -48 0
v -112 -40 0
v -104 -40 0
v -112 -48 0
v -120 -48 0
v -120 -40 0
v -112 -40 0
v -120 -48 0
v -128 -48 0
v -128 -40 0
v -120 -40 0
v 0 -56 0
v -8 -56 0
v -8 -48 0
v 0 -48 0
v -8 -56 0
v -16 -56 0
v -16 -48 0
v -8 -48 0
v -16 -56 0
v -24 -56 0
v -24 -48 0
v -16 -48 0
v -24 -56 0
v -32 -56 0
v -32 -48 0
v -24 -48 0
v -32 -56 0
v -40 -56 0
v -40 -48 0
v -32 -48 0
v -40 -56 0
v -48 -56 0
v -48 -48 0
v -40 -48 0
v -48 -56 0
v -56 -56 0
v -56 -48 0
v -48 -48 0
v -56 -56 0
v -64 -56 0
v -64 -48 0
v -56 -48 0
v -64 -56 0
v -72 -56 0
v -72 -48 0
v -64 -48 0
v -72 -56 0
v -80 -56 0
v -80 -48 0
v -72 -48 0
v -80 -56 0
v -88 -56 0
v -88 -48 0
v -80 -48 0
v -88 -56 0
v -96 -56 0
v -96 -48 0
v -88 -48 0
v -96 -56 0
v -104 -56 0
v -104 -48 0
v -96 -48 0
v -104 -56 0
v -112 -56 0
v -112 -48 0
v -104 -48 0
v -112 -56 0
v -120 -56 0
v -120 -48 0
v -112 -48 0
v -120 -56 0
v -128 -56 0
v -128 -48 0
v -120 -48 0
v 0 -64 0
v -8 -64 0
v -8 -56 0
v 0 -56 0
v -8 -64 0
v -16 -64 0
v -16 -56 0
v -8 -56 0
v -16 -64 0
v -24 -64 0
v -24 -56 0
v -16 -56 0
v -24 -64 0
v -32 -64 0
v -32 -56 0
v -24 -56 0
v -32 -64 0
v -40 -64 0
v -40 -56 0
v -32 -56 0
v -40 -64 0
v -48 -64 0
v -48 -56 0
v -40 -56 0
v -48 -64 0
v -56 -64 0
v -56 -56 0
v -48 -56 0
v -56 -64 0
v -64 -64 0
v -64 -56 0
v -56 -56 0
v -64 -64 0
v -72 -64 0
v -72 -56 0
v -64 -56 0
v -72 -64 0
v -80 -64 0
v -80 -56 0
v -72 -56 0
v -80 -64 0
v -88 -64 0
v -88 -56 0
v -80 -56 0
v -88 -64 0
v -96 -64 0
v -96 -56 0
v -88 -56 0
v -96 -64 0
v -104 -64 0
v -104 -56 0
v -96 -56 0
v -104 -64 0
v -112 -64 0
v -112 -56 0
v -104 -56 0
v -112 -64 0
v -120 -64 0
v -120 -56 0
v -112 -56 0
v -120 -64 0
v -128 -64 0
v -128 -56 0
v -120 -56 0
v 0 -72 0
v -8 -72 0
v -8 -64 0
v 0 -64 0
v -8 -72 0
v -16 -72 0
v -16 -64 0
v -8 -64 0
v -16 -72 0
v -24 -72 0
v -24 -64 0
v -16 -64 0
v -24 -72 0
v -32 -72 0
v -32 -64 0
v -24 -64 0
v -32 -72 0
v -40 -72 0
v -40 -64 0
v -32 -64 0
v -40 -72 0
v -48 -72 0
v -48 -64 0
v -40 -64 0
v -48 -72 0
v -56 -72 0
v -56 -64 0
v -48 -64 0
v -56 -72 0
v -64 -72 0
v -64 -64 0
v -56 -64 0
v -64 -72 0
v -72 -72 0
v -72 -64 0
v -64 -64 0
v -72 -72 0
v -80 -72 0
v -80 -64 0
v -72 -64 0
v -80 -72 0
v -88 -72 0
v -88 -64 0
v -80 -64 0
v -88 -72 0
v -96 -72 0
v -96 -64 0
v -88 -64 0
v -96 -72 0
v -104 -72 0
v -104 -64 0
v -96 -64 0
v -104 -72 0
v -112 -72 0
v -112 -64 0
v -104 -64 0
v -112 -72 0
v -120 -72 0
v -120 -64 0
v -112 -64 0
v -120 -72 0
v -128 -72 0
v -128 -64 0
v -120 -64 0
v 0 -80 0
v -8 -80 0
v -8 -72 0
v 0 -72 0
v -8 -80 0
v -16 -80 0
v -16 -72 0
v -8 -72 0
v -16 -80 0
v -24 -80 0
v -24 -72 0
v -16 -72 0
v -24 -80 0
v -32 -80 0
v -32 -72 0
v -24 -72 0
v -32 -80 0
v -40 -80 0
v -40 -72 0
v -32 -72 0
v -40 -80 0
v -48 -80 0
v -48 -72 0
v -40 -72 0
v -48 -80 0
v -56 -80 0
v -56 -72 0
v -48 -72 0
v -56 -80 0
v -64 -80 0
v -64 -72 0
v -56 -72 0
v -64 -80 0
v -72 -80 0
v -72 -72 0
v -64 -72 0
v -72 -80 0
v -80 -80 0
v -80 -72 0
v -72 -72 0
v -80 -80 0
v -88 -80 0
v -88 -72 0
v -80 -72 0
v -88 -80 0
v -96 -80 0
v -96 -72 0
v -88 -72 0
v -96 -80 0
v -104 -80 0
v -104 -72 0
v -96 -72 0
v -104 -80 0
v -112 -80 0
v -112 -72 0
v -104 -72 0
v -112 -80 0
v -120 -80 0
v -120 -72 0
v -112 -72 0
v -120 -80 0
v -128 -80 0
v -128 -72 0
v -120 -72 0
v 0 -88 0
v -8 -88 0
v -8 -80 0
v 0 -80 0
v -8 -88 0
v -16 -88 0
v -16 -80 0
v -8 -80 0
v -16 -88 0
v -24 -88 0
v -24 -80 0
v -16 -80 0
v -24 -88 0
v -32 -88 0
v -32 -80 0
v -24 -80 0
v -32 -88 0
v -40 -88 0
v -40 -80 0
v -32 -80 0
v -40 -88 0
v -48 -88 0
v -48 -80 0
v -40 -80 0
v -48 -88 0
v -56 -88 0
v -56 -80 0
v -48 -80 0
v -56 -88 0
v -64 -88 0
v -64 -80 0
v -56 -80 0
v -64 -88 0
v -72 -88 0
v -72 -80 0
v -64 -80 0
v -72 -88 0
v -80 -88 0
v -80 -80 0
v -72 -80 0
v -80 -88 0
v -88 -88 0
v -88 -80 0
v -80 -80 0
v -88 -88 0
v -96 -88 0
v -96 -80 0
v -88 -80 0
v -96 -88 0
v -104 -88 0
v -104 -80 0
v -96 -80 0
v -104 -88 0
v -112 -88 0
v -112 -80 0
v -104 -80 0
v -112 -88 0
v -120 -88 0
v -120 -80 0
v -112 -80 0
v -120 -88 0
v -128 -88 0
v -128 -80 0
v -120 -80 0
v 0 -96 0
v -8 -96 0
v -8 -88 0
v 0 -88 0
v -8 -96 0
v -16 -96 0
v -16 -88 0
v -8 -88 0
v -16 -96 0
v -24 -96 0
v -24 -88 0
v -16 -88 0
v -24 -96 0
v -32 -96 0
v -32 -88 0
v -24 -88 0
v -32 -96 0
v -40 -96 0
v -40 -88 0
v -32 -88 0
v -40 -96 0
v -48 -96 0
v -48 -88 0
v -40 -88 0
v -48 -96 0
v -56 -96 0
v -56 -88 0
v -48 -88 0
v -56 -96 0
v -64 -96 0
v -64 -88 0
v -56 -88 0
v -64 -96 0
v -72 -96 0
v -72 -88 0
v -64 -88 0
v -72 -96 0
v -80 -96 0
v -80 -88 0
v -72 -88 0
v -80 -96 0
v -88 -96 0
v -88 -88 0
v -80 -88 0
v -88 -96 0
v -96 -96 0
v -96 -88 0
v -88 -88 0
v -96 -96 0
v -104 -96 0
v -104 -88 0
v -96 -88 0
v -104 -96 0
v -112 -96 0
v -112 -88 0
v -104 -88 0
v -112 -96 0
v -120 -96 0
v -120 -88 0
v -112 -88 0
v -120 -96 0
v -128 -96 0
v -128 -88 0
v -120 -88 0
v 0 -104 0
v -8 -104 0
v -8 -96 0
v 0 -96 0
v -8 -104 0
v -16 -104 0
v -16 -96 0
v -8 -96 0
v -16 -104 0
v -24 -104 0
v -24 -96 0
v -16 -96 0
v -24 -104 0
v -32 -104 0
v -32 -96 0
v -24 -96 0
v -32 -104 0
v -40 -104 0
v -40 -96 0
v -32 -96 0
v -40 -104 0
v -48 -104 0
v -48 -96 0
v -40 -96 0
v -48 -104 0
v -56 -104 0
v -56 -96 0
v -48 -96 0
v -56 -104 0
v -64 -104 0
v -64 -96 0
v -56 -96 0
v -64 -104 0
v -72 -104 0
v -72 -96 0
v -64 -96 0
v -72 -104 0
v -80 -104 0
v -80 -96 0
v -72 -96 0
v -80 -104 0
v -88 -104 0
v -88 -96 0
v -80 -96 0
v -88 -104 0
v -96 -104 0
v -96 -96 0
v -88 -96 0
v -96 -104 0
v -104 -104 0
v -104 -96 0
v -96 -96 0
v -104 -104 0
v -112 -104 0
v -112 -96 0
v -104 -96 0
v -112 -104 0
v -120 -104 0
v -120 -96 0
v -112 -96 0
v -120 -104 0
v -128 -104 0
v -128 -96 0
v -120 -96 0
v 0 -112 0
v -8 -112 0
v -8 -104 0
v 0 -104 0
v -8 -112 0
v -16 -112 0
v -16 -104 0
v -8 -104 0
v -16 -112 0
v -24 -112 0
v -24 -104 0
v -16 -104 0
v -24 -112 0
v -32 -112 0
v -32 -104 0
v -24 -104 0
v -32 -112 0
v -40 -112 0
v -40 -104 0
v -32 -104 0
v -40 -112 0
v -48 -112 0
v -48 -104 0
v -40 -104 0
v -48 -112 0
v -56 -112 0
v -56 -104 0
v -48 -104 0
v -56 -112 0
v -64 -112 0
v -64 -104 0
v -56 -104 0
v -64 -112 0
v -72 -112 0
v -72 -104 0
v -64 -104 0
v -72 -112 0
v -80 -112 0
v -80 -104 0
v -72 -104 0
v -80 -112 0
v -88 -112 0
v -88 -104 0
v -80 -104 0
v -88 -112 0
v -96 -112 0
v -96 -104 0
v -88 -104 0
v -96 -112 0
v -104 -112 0
v -104 -104 0
v -96 -104 0
v -104 -112 0
v -112 -112 0
v -112 -104 0
v -104 -104 0
v -112 -112 0
v -120 -112 0
v -120 -104 0
v -112 -104 0
v -120 -112 0
v -128 -112 0
v -128 -104 0
v -120 -104 0
v 0 -120 0
v -8 -120 0
v -8 -112 0
v 0 -112 0
v -8 -120 0
v -16 -120 0
v -16 -112 0
v -8 -112 0
v -16 -120 0
v -24 -120 0
v -24 -112 0
v -16 -112 0
v -24 -120 0
v -32 -120 0
v -32 -112 0
v -24 -112 0
v -32 -120 0
v -40 -120 0
v -40 -112 0
v -32 -112 0
v -40 -120 0
v -48 -120 0
v -48 -112 0
v -40 -112 0
v -48 -120 0
v -56 -120 0
v -56 -112 0
v -48 -112 0
v -56 -120 0
v -64 -120 0
v -64 -112 0
v -56 -112 0
v -64 -120 0
v -72 -120 0
v -72 -112 0
v -64 -112 0
v -72 -120 0
v -80 -120 0
v -80 -112 0
v -72 -112 0
v -80 -120 0
v -88 -120 0
v -88 -112 0
v -80 -112 0
v -88 -120 0
v -96 -120 0
v -96 -112 0
v -88 -112 0
v -96 -120 0
v -104 -120 0
v -104 -112 0
v -96 -112 0
v -104 -120 0
v -112 -120 0
v -112 -112 0
v -104 -112 0
v -112 -120 0
v -120 -120 0
v -120 -112 0
v -112 -112 0
v -120 -120 0
v -128 -120 0
v -128 -112 0
v -120 -112 0
v 0 -128 0
v -8 -128 0
v -8 -120 0
v 0 -120 0
v -8 -128 0
v -16 -128 0
v -16 -120 0
v -8 -120 0
v -16 -128 0
v -24 -128 0
v -24 -120 0
v -16 -120 0
v -24 -128 0
v -32 -128 0
v -32 -120 0
v -24 -120 0
v -32 -128 0
v -40 -128 0
v -40 -120 0
v -32 -120 0
v -40 -128 0
v -48 -128 0
v -48 -120 0
v -40 -120 0
v -48 -128 0
v -56 -128 0
v -56 -120 0
v -48 -120 0
v -56 -128 0
v -64 -128 0
v -64 -120 0
v -56 -120 0
v -64 -128 0
v -72 -128 0
v -72 -120 0
v -64 -120 0
v -72 -128 0
v -80 -128 0
v -80 -120 0
v -72 -120 0
v -80 -128 0
v -88 -128 0
v -88 -120 0
v -80 -120 0
v -88 -128 0
v -96 -128 0
v -96 -120 0
v -88 -120 0
v -96 -128 0
v -104 -128 0
v -104 -120 0
v -96 -120 0
v -104 -128 0
v -112 -128 0
v -112 -120 0
v -104 -120 0
v -112 -128 0
v -120 -128 0
v -120 -120 0
v -112 -120 0
v -120 -128 0
v -128 -128 0
v -128 -120 0
v -120 -120 0

# Texture cooridinates (Count = 115)
vt 0.4264706 0.8877551
vt 0.4411765 0.8877551
vt 0.4411765 0.8979592
vt 0.4264706 0.8979592
vt 0.2647059 0.877551
vt 0.2794118 0.877551
vt 0.2794118 0.8877551
vt 0.2647059 0.8877551
vt 0.2941177 0.877551
vt 0.2941177 0.8877551
vt 0.4705882 0.8979592
vt 0.4852941 0.8979592
vt 0.4852941 0.9081632
vt 0.4705882 0.9081632
vt 0.5 0.8979592
vt 0.5 0.9081632
vt 0.5147059 0.8979592
vt 0.5147059 0.9081632
vt 0.5294118 0.8979592
vt 0.5294118 0.9081632
vt 0.5441176 0.8979592
vt 0.5441176 0.9081632
vt 0.5147059 0.9183673
vt 0.5 0.9183673
vt 0.5294118 0.9183673
vt 0.5441176 0.9183673
vt 0.5588235 0.8979592
vt 0.5588235 0.9081632
vt 0.5588235 0.8877551
vt 0.5735294 0.8877551
vt 0.5735294 0.8979592
vt 0.5735294 0.9081632
vt 0.5882353 0.9081632
vt 0.5882353 0.9183673
vt 0.5735294 0.9183673
vt 0.4411765 0.9081632
vt 0.4264706 0.9081632
vt 0.2794118 0.8979592
vt 0.2647059 0.8979592
vt 0.2941177 0.8979592
vt 0.4705882 0.8877551
vt 0.4852941 0.8877551
vt 0.5 0.8877551
vt 0.5147059 0.8877551
vt 0.5294118 0.8877551
vt 0.5441176 0.8877551
vt 0.5882353 0.8979592
vt 0.4705882 0.877551
vt 0.4852941 0.877551
vt 0.5 0.877551
vt 0.5147059 0.877551
vt 0.5294118 0.877551
vt 0.5441176 0.877551
vt 0.5588235 0.877551
vt 0.5735294 0.877551
vt 0.5882353 0.8877551
vt 0.4705882 0.8673469
vt 0.4852941 0.8673469
vt 0.5 0.8673469
vt 0.5147059 0.8673469
vt 0.5294118 0.8673469
vt 0.5441176 0.8673469
vt 0.5588235 0.8673469
vt 0.5735294 0.8673469
vt 0.5882353 0.877551
vt 0.4705882 0.8571429
vt 0.4852941 0.8571429
vt 0.5 0.8571429
vt 0.5147059 0.8571429
vt 0.5294118 0.8571429
vt 0.5441176 0.8571429
vt 0.5588235 0.8571429
vt 0.5735294 0.8571429
vt 0.5882353 0.8673469
vt 0.4705882 0.8469388
vt 0.4852941 0.8469388
vt 0.5 0.8469388
vt 0.5147059 0.8469388
vt 0.5294118 0.8469388
vt 0.5441176 0.8469388
vt 0.5588235 0.8469388
vt 0.5735294 0.8469388
vt 0.5882353 0.8571429
vt 0.4705882 0.8367347
vt 0.4852941 0.8367347
vt 0.5 0.8367347
vt 0.5147059 0.8367347
vt 0.5294118 0.8367347
vt 0.5441176 0.8367347
vt 0.5588235 0.8367347
vt 0.5735294 0.8367347
vt 0.5882353 0.8367347
vt 0.5882353 0.8469388
vt 0.4558823 0.8979592
vt 0.4558823 0.9081632
vt 0.4558823 0.8877551
vt 0.3676471 0.755102
vt 0.3676471 0.744898
vt 0.3823529 0.744898
vt 0.3823529 0.755102
vt 0.3676471 0.7346939
vt 0.3823529 0.7346939
vt 0.4852941 0.8265306
vt 0.5 0.8265306
vt 0.3529412 0.744898
vt 0.3529412 0.7346939
vt 0.4852941 0.8163265
vt 0.5 0.8163265
vt 0.5147059 0.8163265
vt 0.5147059 0.8265306
vt 0.4852941 0.8061224
vt 0.5 0.8061224
vt 0.5 0.7959183
vt 0.5147059 0.7959183
vt 0.5147059 0.8061224

# Normal
vn 0 0 -1

# Mesh description
g RoomDR_mesh_0007

# Faces
f 1/1/1 2/2/1 3/3/1 4/4/1
f 5/1/1 6/2/1 7/3/1 8/4/1
f 9/5/1 10/6/1 11/7/1 12/8/1
f 13/6/1 14/9/1 15/10/1 16/7/1
f 17/11/1 18/12/1 19/13/1 20/14/1
f 21/12/1 22/15/1 23/16/1 24/13/1
f 25/15/1 26/17/1 27/18/1 28/16/1
f 29/17/1 30/19/1 31/20/1 32/18/1
f 33/19/1 34/21/1 35/22/1 36/20/1
f 37/19/1 38/21/1 39/22/1 40/20/1
f 41/16/1 42/18/1 43/23/1 44/24/1
f 45/18/1 46/20/1 47/25/1 48/23/1
f 49/20/1 50/22/1 51/26/1 52/25/1
f 53/21/1 54/27/1 55/28/1 56/22/1
f 57/29/1 58/30/1 59/31/1 60/27/1
f 61/32/1 62/33/1 63/34/1 64/35/1
f 65/4/1 66/3/1 67/36/1 68/37/1
f 69/1/1 70/2/1 71/3/1 72/4/1
f 73/8/1 74/7/1 75/38/1 76/39/1
f 77/7/1 78/10/1 79/40/1 80/38/1
f 81/41/1 82/42/1 83/12/1 84/11/1
f 85/42/1 86/43/1 87/15/1 88/12/1
f 89/43/1 90/44/1 91/17/1 92/15/1
f 93/44/1 94/45/1 95/19/1 96/17/1
f 97/45/1 98/46/1 99/21/1 100/19/1
f 101/45/1 102/46/1 103/21/1 104/19/1
f 105/15/1 106/17/1 107/18/1 108/16/1
f 109/17/1 110/19/1 111/20/1 112/18/1
f 113/19/1 114/21/1 115/22/1 116/20/1
f 117/46/1 118/29/1 119/27/1 120/21/1
f 121/29/1 122/30/1 123/31/1 124/27/1
f 125/31/1 126/47/1 127/33/1 128/32/1
f 129/4/1 130/3/1 131/36/1 132/37/1
f 133/1/1 134/2/1 135/3/1 136/4/1
f 137/5/1 138/6/1 139/7/1 140/8/1
f 141/6/1 142/9/1 143/10/1 144/7/1
f 145/48/1 146/49/1 147/42/1 148/41/1
f 149/49/1 150/50/1 151/43/1 152/42/1
f 153/50/1 154/51/1 155/44/1 156/43/1
f 157/51/1 158/52/1 159/45/1 160/44/1
f 161/52/1 162/53/1 163/46/1 164/45/1
f 165/50/1 166/51/1 167/44/1 168/43/1
f 169/50/1 170/51/1 171/44/1 172/43/1
f 173/50/1 174/51/1 175/44/1 176/43/1
f 177/50/1 178/51/1 179/44/1 180/43/1
f 181/53/1 182/54/1 183/29/1 184/46/1
f 185/54/1 186/55/1 187/30/1 188/29/1
f 189/30/1 190/56/1 191/47/1 192/31/1
f 193/4/1 194/3/1 195/36/1 196/37/1
f 197/1/1 198/2/1 199/3/1 200/4/1
f 201/8/1 202/7/1 203/38/1 204/39/1
f 205/7/1 206/10/1 207/40/1 208/38/1
f 209/57/1 210/58/1 211/49/1 212/48/1
f 213/58/1 214/59/1 215/50/1 216/49/1
f 217/59/1 218/60/1 219/51/1 220/50/1
f 221/60/1 222/61/1 223/52/1 224/51/1
f 225/61/1 226/62/1 227/53/1 228/52/1
f 229/62/1 230/63/1 231/54/1 232/53/1
f 233/61/1 234/62/1 235/53/1 236/52/1
f 237/62/1 238/63/1 239/54/1 240/53/1
f 241/61/1 242/62/1 243/53/1 244/52/1
f 245/62/1 246/63/1 247/54/1 248/53/1
f 249/63/1 250/64/1 251/55/1 252/54/1
f 253/55/1 254/65/1 255/56/1 256/30/1
f 257/4/1 258/3/1 259/36/1 260/37/1
f 261/1/1 262/2/1 263/3/1 264/4/1
f 265/5/1 266/6/1 267/7/1 268/8/1
f 269/6/1 270/9/1 271/10/1 272/7/1
f 273/66/1 274/67/1 275/58/1 276/57/1
f 277/67/1 278/68/1 279/59/1 280/58/1
f 281/68/1 282/69/1 283/60/1 284/59/1
f 285/69/1 286/70/1 287/61/1 288/60/1
f 289/70/1 290/71/1 291/62/1 292/61/1
f 293/71/1 294/72/1 295/63/1 296/62/1
f 297/70/1 298/71/1 299/62/1 300/61/1
f 301/71/1 302/72/1 303/63/1 304/62/1
f 305/70/1 306/71/1 307/62/1 308/61/1
f 309/71/1 310/72/1 311/63/1 312/62/1
f 313/72/1 314/73/1 315/64/1 316/63/1
f 317/64/1 318/74/1 319/65/1 320/55/1
f 321/4/1 322/3/1 323/36/1 324/37/1
f 325/1/1 326/2/1 327/3/1 328/4/1
f 329/8/1 330/7/1 331/38/1 332/39/1
f 333/7/1 334/10/1 335/40/1 336/38/1
f 337/75/1 338/76/1 339/67/1 340/66/1
f 341/76/1 342/77/1 343/68/1 344/67/1
f 345/77/1 346/78/1 347/69/1 348/68/1
f 349/78/1 350/79/1 351/70/1 352/69/1
f 353/79/1 354/80/1 355/71/1 356/70/1
f 357/80/1 358/81/1 359/72/1 360/71/1
f 361/79/1 362/80/1 363/71/1 364/70/1
f 365/80/1 366/81/1 367/72/1 368/71/1
f 369/80/1 370/81/1 371/72/1 372/71/1
f 373/79/1 374/80/1 375/71/1 376/70/1
f 377/81/1 378/82/1 379/73/1 380/72/1
f 381/73/1 382/83/1 383/74/1 384/64/1
f 385/1/1 386/2/1 387/3/1 388/4/1
f 389/1/1 390/2/1 391/3/1 392/4/1
f 393/5/1 394/6/1 395/7/1 396/8/1
f 397/6/1 398/9/1 399/10/1 400/7/1
f 401/84/1 402/85/1 403/76/1 404/75/1
f 405/85/1 406/86/1 407/77/1 408/76/1
f 409/86/1 410/87/1 411/78/1 412/77/1
f 413/87/1 414/88/1 415/79/1 416/78/1
f 417/88/1 418/89/1 419/80/1 420/79/1
f 421/89/1 422/90/1 423/81/1 424/80/1
f 425/90/1 426/91/1 427/82/1 428/81/1
f 429/91/1 430/92/1 431/93/1 432/82/1
f 433/89/1 434/90/1 435/81/1 436/80/1
f 437/90/1 438/91/1 439/82/1 440/81/1
f 441/91/1 442/92/1 443/93/1 444/82/1
f 445/82/1 446/93/1 447/83/1 448/73/1
f 449/1/1 450/2/1 451/3/1 452/4/1
f 453/4/1 454/3/1 455/36/1 456/37/1
f 457/8/1 458/7/1 459/38/1 460/39/1
f 461/7/1 462/10/1 463/40/1 464/38/1
f 465/8/1 466/7/1 467/38/1 468/39/1
f 469/7/1 470/10/1 471/40/1 472/38/1
f 473/8/1 474/7/1 475/38/1 476/39/1
f 477/7/1 478/10/1 479/40/1 480/38/1
f 481/8/1 482/7/1 483/38/1 484/39/1
f 485/7/1 486/10/1 487/40/1 488/38/1
f 489/8/1 490/7/1 491/38/1 492/39/1
f 493/7/1 494/10/1 495/40/1 496/38/1
f 497/8/1 498/7/1 499/38/1 500/39/1
f 501/7/1 502/10/1 503/40/1 504/38/1
f 505/8/1 506/7/1 507/38/1 508/39/1
f 509/7/1 510/10/1 511/40/1 512/38/1
f 513/4/1 514/3/1 515/36/1 516/37/1
f 517/3/1 518/94/1 519/95/1 520/36/1
f 521/5/1 522/6/1 523/7/1 524/8/1
f 525/6/1 526/9/1 527/10/1 528/7/1
f 529/5/1 530/6/1 531/7/1 532/8/1
f 533/6/1 534/9/1 535/10/1 536/7/1
f 537/5/1 538/6/1 539/7/1 540/8/1
f 541/6/1 542/9/1 543/10/1 544/7/1
f 545/5/1 546/6/1 547/7/1 548/8/1
f 549/6/1 550/9/1 551/10/1 552/7/1
f 553/5/1 554/6/1 555/7/1 556/8/1
f 557/6/1 558/9/1 559/10/1 560/7/1
f 561/5/1 562/6/1 563/7/1 564/8/1
f 565/6/1 566/9/1 567/10/1 568/7/1
f 569/5/1 570/6/1 571/7/1 572/8/1
f 573/6/1 574/9/1 575/10/1 576/7/1
f 577/4/1 578/3/1 579/36/1 580/37/1
f 581/3/1 582/94/1 583/95/1 584/36/1
f 585/3/1 586/94/1 587/95/1 588/36/1
f 589/1/1 590/2/1 591/3/1 592/4/1
f 593/4/1 594/3/1 595/36/1 596/37/1
f 597/3/1 598/94/1 599/95/1 600/36/1
f 601/4/1 602/3/1 603/36/1 604/37/1
f 605/3/1 606/94/1 607/95/1 608/36/1
f 609/3/1 610/94/1 611/95/1 612/36/1
f 613/3/1 614/94/1 615/95/1 616/36/1
f 617/3/1 618/94/1 619/95/1 620/36/1
f 621/3/1 622/94/1 623/95/1 624/36/1
f 625/2/1 626/96/1 627/94/1 628/3/1
f 629/2/1 630/96/1 631/94/1 632/3/1
f 633/3/1 634/94/1 635/95/1 636/36/1
f 637/4/1 638/3/1 639/36/1 640/37/1
f 641/4/1 642/3/1 643/36/1 644/37/1
f 645/3/1 646/94/1 647/95/1 648/36/1
f 649/3/1 650/94/1 651/95/1 652/36/1
f 653/1/1 654/2/1 655/3/1 656/4/1
f 657/4/1 658/3/1 659/36/1 660/37/1
f 661/3/1 662/94/1 663/95/1 664/36/1
f 665/4/1 666/3/1 667/36/1 668/37/1
f 669/4/1 670/3/1 671/36/1 672/37/1
f 673/4/1 674/3/1 675/36/1 676/37/1
f 677/4/1 678/3/1 679/36/1 680/37/1
f 681/4/1 682/3/1 683/36/1 684/37/1
f 685/4/1 686/3/1 687/36/1 688/37/1
f 689/3/1 690/94/1 691/95/1 692/36/1
f 693/3/1 694/94/1 695/95/1 696/36/1
f 697/4/1 698/3/1 699/36/1 700/37/1
f 701/1/1 702/2/1 703/3/1 704/4/1
f 705/4/1 706/3/1 707/36/1 708/37/1
f 709/3/1 710/94/1 711/95/1 712/36/1
f 713/3/1 714/94/1 715/95/1 716/36/1
f 717/4/1 718/3/1 719/36/1 720/37/1
f 721/3/1 722/94/1 723/95/1 724/36/1
f 725/4/1 726/3/1 727/36/1 728/37/1
f 729/3/1 730/94/1 731/95/1 732/36/1
f 733/1/1 734/2/1 735/3/1 736/4/1
f 737/1/1 738/2/1 739/3/1 740/4/1
f 741/4/1 742/3/1 743/36/1 744/37/1
f 745/4/1 746/3/1 747/36/1 748/37/1
f 749/4/1 750/3/1 751/36/1 752/37/1
f 753/4/1 754/3/1 755/36/1 756/37/1
f 757/4/1 758/3/1 759/36/1 760/37/1
f 761/4/1 762/3/1 763/36/1 764/37/1
f 765/4/1 766/3/1 767/36/1 768/37/1
f 769/97/1 770/98/1 771/99/1 772/100/1
f 773/98/1 774/101/1 775/102/1 776/99/1
f 777/2/1 778/96/1 779/94/1 780/3/1
f 781/4/1 782/3/1 783/36/1 784/37/1
f 785/4/1 786/3/1 787/36/1 788/37/1
f 789/4/1 790/3/1 791/36/1 792/37/1
f 793/3/1 794/94/1 795/95/1 796/36/1
f 797/4/1 798/3/1 799/36/1 800/37/1
f 801/4/1 802/3/1 803/36/1 804/37/1
f 805/4/1 806/3/1 807/36/1 808/37/1
f 809/1/1 810/2/1 811/3/1 812/4/1
f 813/1/1 814/2/1 815/3/1 816/4/1
f 817/4/1 818/3/1 819/36/1 820/37/1
f 821/3/1 822/94/1 823/95/1 824/36/1
f 825/3/1 826/94/1 827/95/1 828/36/1
f 829/3/1 830/94/1 831/95/1 832/36/1
f 833/103/1 834/104/1 835/86/1 836/85/1
f 837/105/1 838/106/1 839/101/1 840/98/1
f 841/2/1 842/96/1 843/94/1 844/3/1
f 845/4/1 846/3/1 847/36/1 848/37/1
f 849/1/1 850/2/1 851/3/1 852/4/1
f 853/4/1 854/3/1 855/36/1 856/37/1
f 857/3/1 858/94/1 859/95/1 860/36/1
f 861/1/1 862/2/1 863/3/1 864/4/1
f 865/1/1 866/2/1 867/3/1 868/4/1
f 869/4/1 870/3/1 871/36/1 872/37/1
f 873/3/1 874/94/1 875/95/1 876/36/1
f 877/3/1 878/94/1 879/95/1 880/36/1
f 881/3/1 882/94/1 883/95/1 884/36/1
f 885/2/1 886/96/1 887/94/1 888/3/1
f 889/2/1 890/96/1 891/94/1 892/3/1
f 893/2/1 894/96/1 895/94/1 896/3/1
f 897/107/1 898/108/1 899/104/1 900/103/1
f 901/108/1 902/109/1 903/110/1 904/104/1
f 905/4/1 906/3/1 907/36/1 908/37/1
f 909/4/1 910/3/1 911/36/1 912/37/1
f 913/4/1 914/3/1 915/36/1 916/37/1
f 917/3/1 918/94/1 919/95/1 920/36/1
f 921/2/1 922/96/1 923/94/1 924/3/1
f 925/4/1 926/3/1 927/36/1 928/37/1
f 929/3/1 930/94/1 931/95/1 932/36/1
f 933/3/1 934/94/1 935/95/1 936/36/1
f 937/3/1 938/94/1 939/95/1 940/36/1
f 941/2/1 942/96/1 943/94/1 944/3/1
f 945/2/1 946/96/1 947/94/1 948/3/1
f 949/2/1 950/96/1 951/94/1 952/3/1
f 953/3/1 954/94/1 955/95/1 956/36/1
f 957/3/1 958/94/1 959/95/1 960/36/1
f 961/111/1 962/112/1 963/108/1 964/107/1
f 965/113/1 966/114/1 967/115/1 968/112/1
f 969/4/1 970/3/1 971/36/1 972/37/1
f 973/1/1 974/2/1 975/3/1 976/4/1
f 977/4/1 978/3/1 979/36/1 980/37/1
f 981/3/1 982/94/1 983/95/1 984/36/1
f 985/4/1 986/3/1 987/36/1 988/37/1
f 989/4/1 990/3/1 991/36/1 992/37/1
f 993/4/1 994/3/1 995/36/1 996/37/1
f 997/4/1 998/3/1 999/36/1 1000/37/1
f 1001/4/1 1002/3/1 1003/36/1 1004/37/1
f 1005/4/1 1006/3/1 1007/36/1 1008/37/1
f 1009/4/1 1010/3/1 1011/36/1 1012/37/1
f 1013/4/1 1014/3/1 1015/36/1 1016/37/1
f 1017/4/1 1018/3/1 1019/36/1 1020/37/1
f 1021/4/1 1022/3/1 1023/36/1 1024/37/1

