# Tiled2Unity generated file. Do not modify by hand.
# Wavefront file for 'RoomDR_mesh_0020.obj'

# Vertices (Count = 64)
v 0 -8 0
v -8 -8 0
v -8 0 0
v 0 0 0
v 0 -16 0
v -8 -16 0
v -8 -8 0
v 0 -8 0
v 0 -24 0
v -8 -24 0
v -8 -16 0
v 0 -16 0
v 0 -32 0
v -8 -32 0
v -8 -24 0
v 0 -24 0
v 0 -40 0
v -8 -40 0
v -8 -32 0
v 0 -32 0
v 0 -48 0
v -8 -48 0
v -8 -40 0
v 0 -40 0
v 0 -56 0
v -8 -56 0
v -8 -48 0
v 0 -48 0
v 0 -64 0
v -8 -64 0
v -8 -56 0
v 0 -56 0
v 0 -72 0
v -8 -72 0
v -8 -64 0
v 0 -64 0
v 0 -80 0
v -8 -80 0
v -8 -72 0
v 0 -72 0
v 0 -88 0
v -8 -88 0
v -8 -80 0
v 0 -80 0
v 0 -96 0
v -8 -96 0
v -8 -88 0
v 0 -88 0
v 0 -104 0
v -8 -104 0
v -8 -96 0
v 0 -96 0
v 0 -112 0
v -8 -112 0
v -8 -104 0
v 0 -104 0
v 0 -120 0
v -8 -120 0
v -8 -112 0
v 0 -112 0
v 0 -128 0
v -8 -128 0
v -8 -120 0
v 0 -120 0

# Texture cooridinates (Count = 27)
vt 0.6323529 0.8163265
vt 0.6470588 0.8163265
vt 0.6470588 0.8265306
vt 0.6323529 0.8265306
vt 0.6323529 0.8061224
vt 0.6470588 0.8061224
vt 0.6323529 0.7959183
vt 0.6470588 0.7959183
vt 0.6323529 0.7857143
vt 0.6470588 0.7857143
vt 0.6323529 0.7755102
vt 0.6470588 0.7755102
vt 0.6323529 0.7653061
vt 0.6470588 0.7653061
vt 0.8970588 0.8673469
vt 0.9117647 0.8673469
vt 0.9117647 0.877551
vt 0.8970588 0.877551
vt 0.8970588 0.8571429
vt 0.9117647 0.8571429
vt 0.8823529 0.8469388
vt 0.8970588 0.8469388
vt 0.8823529 0.8571429
vt 0.5735294 0.6632653
vt 0.5882353 0.6632653
vt 0.5882353 0.6734694
vt 0.5735294 0.6734694

# Normal
vn 0 0 -1

# Mesh description
g RoomDR_mesh_0020

# Faces
f 1/1/1 2/2/1 3/3/1 4/4/1
f 5/5/1 6/6/1 7/2/1 8/1/1
f 9/7/1 10/8/1 11/6/1 12/5/1
f 13/9/1 14/10/1 15/8/1 16/7/1
f 17/11/1 18/12/1 19/10/1 20/9/1
f 21/13/1 22/14/1 23/12/1 24/11/1
f 25/1/1 26/2/1 27/3/1 28/4/1
f 29/5/1 30/6/1 31/2/1 32/1/1
f 33/7/1 34/8/1 35/6/1 36/5/1
f 37/9/1 38/10/1 39/8/1 40/7/1
f 41/11/1 42/12/1 43/10/1 44/9/1
f 45/13/1 46/14/1 47/12/1 48/11/1
f 49/15/1 50/16/1 51/17/1 52/18/1
f 53/19/1 54/20/1 55/16/1 56/15/1
f 57/21/1 58/22/1 59/19/1 60/23/1
f 61/24/1 62/25/1 63/26/1 64/27/1

