# Tiled2Unity generated file. Do not modify by hand.
# Wavefront file for 'RoomDR_mesh_0014.obj'

# Vertices (Count = 1024)
v 0 -8 0
v -8 -8 0
v -8 0 0
v 0 0 0
v -8 -8 0
v -16 -8 0
v -16 0 0
v -8 0 0
v -16 -8 0
v -24 -8 0
v -24 0 0
v -16 0 0
v -24 -8 0
v -32 -8 0
v -32 0 0
v -24 0 0
v -32 -8 0
v -40 -8 0
v -40 0 0
v -32 0 0
v -40 -8 0
v -48 -8 0
v -48 0 0
v -40 0 0
v -48 -8 0
v -56 -8 0
v -56 0 0
v -48 0 0
v -56 -8 0
v -64 -8 0
v -64 0 0
v -56 0 0
v -64 -8 0
v -72 -8 0
v -72 0 0
v -64 0 0
v -72 -8 0
v -80 -8 0
v -80 0 0
v -72 0 0
v -80 -8 0
v -88 -8 0
v -88 0 0
v -80 0 0
v -88 -8 0
v -96 -8 0
v -96 0 0
v -88 0 0
v -96 -8 0
v -104 -8 0
v -104 0 0
v -96 0 0
v -104 -8 0
v -112 -8 0
v -112 0 0
v -104 0 0
v -112 -8 0
v -120 -8 0
v -120 0 0
v -112 0 0
v -120 -8 0
v -128 -8 0
v -128 0 0
v -120 0 0
v 0 -16 0
v -8 -16 0
v -8 -8 0
v 0 -8 0
v -8 -16 0
v -16 -16 0
v -16 -8 0
v -8 -8 0
v -16 -16 0
v -24 -16 0
v -24 -8 0
v -16 -8 0
v -24 -16 0
v -32 -16 0
v -32 -8 0
v -24 -8 0
v -32 -16 0
v -40 -16 0
v -40 -8 0
v -32 -8 0
v -40 -16 0
v -48 -16 0
v -48 -8 0
v -40 -8 0
v -48 -16 0
v -56 -16 0
v -56 -8 0
v -48 -8 0
v -56 -16 0
v -64 -16 0
v -64 -8 0
v -56 -8 0
v -64 -16 0
v -72 -16 0
v -72 -8 0
v -64 -8 0
v -72 -16 0
v -80 -16 0
v -80 -8 0
v -72 -8 0
v -80 -16 0
v -88 -16 0
v -88 -8 0
v -80 -8 0
v -88 -16 0
v -96 -16 0
v -96 -8 0
v -88 -8 0
v -96 -16 0
v -104 -16 0
v -104 -8 0
v -96 -8 0
v -104 -16 0
v -112 -16 0
v -112 -8 0
v -104 -8 0
v -112 -16 0
v -120 -16 0
v -120 -8 0
v -112 -8 0
v -120 -16 0
v -128 -16 0
v -128 -8 0
v -120 -8 0
v 0 -24 0
v -8 -24 0
v -8 -16 0
v 0 -16 0
v -8 -24 0
v -16 -24 0
v -16 -16 0
v -8 -16 0
v -16 -24 0
v -24 -24 0
v -24 -16 0
v -16 -16 0
v -24 -24 0
v -32 -24 0
v -32 -16 0
v -24 -16 0
v -32 -24 0
v -40 -24 0
v -40 -16 0
v -32 -16 0
v -40 -24 0
v -48 -24 0
v -48 -16 0
v -40 -16 0
v -48 -24 0
v -56 -24 0
v -56 -16 0
v -48 -16 0
v -56 -24 0
v -64 -24 0
v -64 -16 0
v -56 -16 0
v -64 -24 0
v -72 -24 0
v -72 -16 0
v -64 -16 0
v -72 -24 0
v -80 -24 0
v -80 -16 0
v -72 -16 0
v -80 -24 0
v -88 -24 0
v -88 -16 0
v -80 -16 0
v -88 -24 0
v -96 -24 0
v -96 -16 0
v -88 -16 0
v -96 -24 0
v -104 -24 0
v -104 -16 0
v -96 -16 0
v -104 -24 0
v -112 -24 0
v -112 -16 0
v -104 -16 0
v -112 -24 0
v -120 -24 0
v -120 -16 0
v -112 -16 0
v -120 -24 0
v -128 -24 0
v -128 -16 0
v -120 -16 0
v 0 -32 0
v -8 -32 0
v -8 -24 0
v 0 -24 0
v -8 -32 0
v -16 -32 0
v -16 -24 0
v -8 -24 0
v -16 -32 0
v -24 -32 0
v -24 -24 0
v -16 -24 0
v -24 -32 0
v -32 -32 0
v -32 -24 0
v -24 -24 0
v -32 -32 0
v -40 -32 0
v -40 -24 0
v -32 -24 0
v -40 -32 0
v -48 -32 0
v -48 -24 0
v -40 -24 0
v -48 -32 0
v -56 -32 0
v -56 -24 0
v -48 -24 0
v -56 -32 0
v -64 -32 0
v -64 -24 0
v -56 -24 0
v -64 -32 0
v -72 -32 0
v -72 -24 0
v -64 -24 0
v -72 -32 0
v -80 -32 0
v -80 -24 0
v -72 -24 0
v -80 -32 0
v -88 -32 0
v -88 -24 0
v -80 -24 0
v -88 -32 0
v -96 -32 0
v -96 -24 0
v -88 -24 0
v -96 -32 0
v -104 -32 0
v -104 -24 0
v -96 -24 0
v -104 -32 0
v -112 -32 0
v -112 -24 0
v -104 -24 0
v -112 -32 0
v -120 -32 0
v -120 -24 0
v -112 -24 0
v -120 -32 0
v -128 -32 0
v -128 -24 0
v -120 -24 0
v 0 -40 0
v -8 -40 0
v -8 -32 0
v 0 -32 0
v -8 -40 0
v -16 -40 0
v -16 -32 0
v -8 -32 0
v -16 -40 0
v -24 -40 0
v -24 -32 0
v -16 -32 0
v -24 -40 0
v -32 -40 0
v -32 -32 0
v -24 -32 0
v -32 -40 0
v -40 -40 0
v -40 -32 0
v -32 -32 0
v -40 -40 0
v -48 -40 0
v -48 -32 0
v -40 -32 0
v -48 -40 0
v -56 -40 0
v -56 -32 0
v -48 -32 0
v -56 -40 0
v -64 -40 0
v -64 -32 0
v -56 -32 0
v -64 -40 0
v -72 -40 0
v -72 -32 0
v -64 -32 0
v -72 -40 0
v -80 -40 0
v -80 -32 0
v -72 -32 0
v -80 -40 0
v -88 -40 0
v -88 -32 0
v -80 -32 0
v -88 -40 0
v -96 -40 0
v -96 -32 0
v -88 -32 0
v -96 -40 0
v -104 -40 0
v -104 -32 0
v -96 -32 0
v -104 -40 0
v -112 -40 0
v -112 -32 0
v -104 -32 0
v -112 -40 0
v -120 -40 0
v -120 -32 0
v -112 -32 0
v -120 -40 0
v -128 -40 0
v -128 -32 0
v -120 -32 0
v 0 -48 0
v -8 -48 0
v -8 -40 0
v 0 -40 0
v -8 -48 0
v -16 -48 0
v -16 -40 0
v -8 -40 0
v -16 -48 0
v -24 -48 0
v -24 -40 0
v -16 -40 0
v -24 -48 0
v -32 -48 0
v -32 -40 0
v -24 -40 0
v -32 -48 0
v -40 -48 0
v -40 -40 0
v -32 -40 0
v -40 -48 0
v -48 -48 0
v -48 -40 0
v -40 -40 0
v -48 -48 0
v -56 -48 0
v -56 -40 0
v -48 -40 0
v -56 -48 0
v -64 -48 0
v -64 -40 0
v -56 -40 0
v -64 -48 0
v -72 -48 0
v -72 -40 0
v -64 -40 0
v -72 -48 0
v -80 -48 0
v -80 -40 0
v -72 -40 0
v -80 -48 0
v -88 -48 0
v -88 -40 0
v -80 -40 0
v -88 -48 0
v -96 -48 0
v -96 -40 0
v -88 -40 0
v -96 -48 0
v -104 -48 0
v -104 -40 0
v -96 -40 0
v -104 -48 0
v -112 -48 0
v -112 -40 0
v -104 -40 0
v -112 -48 0
v -120 -48 0
v -120 -40 0
v -112 -40 0
v -120 -48 0
v -128 -48 0
v -128 -40 0
v -120 -40 0
v 0 -56 0
v -8 -56 0
v -8 -48 0
v 0 -48 0
v -8 -56 0
v -16 -56 0
v -16 -48 0
v -8 -48 0
v -16 -56 0
v -24 -56 0
v -24 -48 0
v -16 -48 0
v -24 -56 0
v -32 -56 0
v -32 -48 0
v -24 -48 0
v -32 -56 0
v -40 -56 0
v -40 -48 0
v -32 -48 0
v -40 -56 0
v -48 -56 0
v -48 -48 0
v -40 -48 0
v -48 -56 0
v -56 -56 0
v -56 -48 0
v -48 -48 0
v -56 -56 0
v -64 -56 0
v -64 -48 0
v -56 -48 0
v -64 -56 0
v -72 -56 0
v -72 -48 0
v -64 -48 0
v -72 -56 0
v -80 -56 0
v -80 -48 0
v -72 -48 0
v -80 -56 0
v -88 -56 0
v -88 -48 0
v -80 -48 0
v -88 -56 0
v -96 -56 0
v -96 -48 0
v -88 -48 0
v -96 -56 0
v -104 -56 0
v -104 -48 0
v -96 -48 0
v -104 -56 0
v -112 -56 0
v -112 -48 0
v -104 -48 0
v -112 -56 0
v -120 -56 0
v -120 -48 0
v -112 -48 0
v -120 -56 0
v -128 -56 0
v -128 -48 0
v -120 -48 0
v 0 -64 0
v -8 -64 0
v -8 -56 0
v 0 -56 0
v -8 -64 0
v -16 -64 0
v -16 -56 0
v -8 -56 0
v -16 -64 0
v -24 -64 0
v -24 -56 0
v -16 -56 0
v -24 -64 0
v -32 -64 0
v -32 -56 0
v -24 -56 0
v -32 -64 0
v -40 -64 0
v -40 -56 0
v -32 -56 0
v -40 -64 0
v -48 -64 0
v -48 -56 0
v -40 -56 0
v -48 -64 0
v -56 -64 0
v -56 -56 0
v -48 -56 0
v -56 -64 0
v -64 -64 0
v -64 -56 0
v -56 -56 0
v -64 -64 0
v -72 -64 0
v -72 -56 0
v -64 -56 0
v -72 -64 0
v -80 -64 0
v -80 -56 0
v -72 -56 0
v -80 -64 0
v -88 -64 0
v -88 -56 0
v -80 -56 0
v -88 -64 0
v -96 -64 0
v -96 -56 0
v -88 -56 0
v -96 -64 0
v -104 -64 0
v -104 -56 0
v -96 -56 0
v -104 -64 0
v -112 -64 0
v -112 -56 0
v -104 -56 0
v -112 -64 0
v -120 -64 0
v -120 -56 0
v -112 -56 0
v -120 -64 0
v -128 -64 0
v -128 -56 0
v -120 -56 0
v 0 -72 0
v -8 -72 0
v -8 -64 0
v 0 -64 0
v -8 -72 0
v -16 -72 0
v -16 -64 0
v -8 -64 0
v -16 -72 0
v -24 -72 0
v -24 -64 0
v -16 -64 0
v -24 -72 0
v -32 -72 0
v -32 -64 0
v -24 -64 0
v -32 -72 0
v -40 -72 0
v -40 -64 0
v -32 -64 0
v -40 -72 0
v -48 -72 0
v -48 -64 0
v -40 -64 0
v -48 -72 0
v -56 -72 0
v -56 -64 0
v -48 -64 0
v -56 -72 0
v -64 -72 0
v -64 -64 0
v -56 -64 0
v -64 -72 0
v -72 -72 0
v -72 -64 0
v -64 -64 0
v -72 -72 0
v -80 -72 0
v -80 -64 0
v -72 -64 0
v -80 -72 0
v -88 -72 0
v -88 -64 0
v -80 -64 0
v -88 -72 0
v -96 -72 0
v -96 -64 0
v -88 -64 0
v -96 -72 0
v -104 -72 0
v -104 -64 0
v -96 -64 0
v -104 -72 0
v -112 -72 0
v -112 -64 0
v -104 -64 0
v -112 -72 0
v -120 -72 0
v -120 -64 0
v -112 -64 0
v -120 -72 0
v -128 -72 0
v -128 -64 0
v -120 -64 0
v 0 -80 0
v -8 -80 0
v -8 -72 0
v 0 -72 0
v -8 -80 0
v -16 -80 0
v -16 -72 0
v -8 -72 0
v -16 -80 0
v -24 -80 0
v -24 -72 0
v -16 -72 0
v -24 -80 0
v -32 -80 0
v -32 -72 0
v -24 -72 0
v -32 -80 0
v -40 -80 0
v -40 -72 0
v -32 -72 0
v -40 -80 0
v -48 -80 0
v -48 -72 0
v -40 -72 0
v -48 -80 0
v -56 -80 0
v -56 -72 0
v -48 -72 0
v -56 -80 0
v -64 -80 0
v -64 -72 0
v -56 -72 0
v -64 -80 0
v -72 -80 0
v -72 -72 0
v -64 -72 0
v -72 -80 0
v -80 -80 0
v -80 -72 0
v -72 -72 0
v -80 -80 0
v -88 -80 0
v -88 -72 0
v -80 -72 0
v -88 -80 0
v -96 -80 0
v -96 -72 0
v -88 -72 0
v -96 -80 0
v -104 -80 0
v -104 -72 0
v -96 -72 0
v -104 -80 0
v -112 -80 0
v -112 -72 0
v -104 -72 0
v -112 -80 0
v -120 -80 0
v -120 -72 0
v -112 -72 0
v -120 -80 0
v -128 -80 0
v -128 -72 0
v -120 -72 0
v 0 -88 0
v -8 -88 0
v -8 -80 0
v 0 -80 0
v -8 -88 0
v -16 -88 0
v -16 -80 0
v -8 -80 0
v -16 -88 0
v -24 -88 0
v -24 -80 0
v -16 -80 0
v -24 -88 0
v -32 -88 0
v -32 -80 0
v -24 -80 0
v -32 -88 0
v -40 -88 0
v -40 -80 0
v -32 -80 0
v -40 -88 0
v -48 -88 0
v -48 -80 0
v -40 -80 0
v -48 -88 0
v -56 -88 0
v -56 -80 0
v -48 -80 0
v -56 -88 0
v -64 -88 0
v -64 -80 0
v -56 -80 0
v -64 -88 0
v -72 -88 0
v -72 -80 0
v -64 -80 0
v -72 -88 0
v -80 -88 0
v -80 -80 0
v -72 -80 0
v -80 -88 0
v -88 -88 0
v -88 -80 0
v -80 -80 0
v -88 -88 0
v -96 -88 0
v -96 -80 0
v -88 -80 0
v -96 -88 0
v -104 -88 0
v -104 -80 0
v -96 -80 0
v -104 -88 0
v -112 -88 0
v -112 -80 0
v -104 -80 0
v -112 -88 0
v -120 -88 0
v -120 -80 0
v -112 -80 0
v -120 -88 0
v -128 -88 0
v -128 -80 0
v -120 -80 0
v 0 -96 0
v -8 -96 0
v -8 -88 0
v 0 -88 0
v -8 -96 0
v -16 -96 0
v -16 -88 0
v -8 -88 0
v -16 -96 0
v -24 -96 0
v -24 -88 0
v -16 -88 0
v -24 -96 0
v -32 -96 0
v -32 -88 0
v -24 -88 0
v -32 -96 0
v -40 -96 0
v -40 -88 0
v -32 -88 0
v -40 -96 0
v -48 -96 0
v -48 -88 0
v -40 -88 0
v -48 -96 0
v -56 -96 0
v -56 -88 0
v -48 -88 0
v -56 -96 0
v -64 -96 0
v -64 -88 0
v -56 -88 0
v -64 -96 0
v -72 -96 0
v -72 -88 0
v -64 -88 0
v -72 -96 0
v -80 -96 0
v -80 -88 0
v -72 -88 0
v -80 -96 0
v -88 -96 0
v -88 -88 0
v -80 -88 0
v -88 -96 0
v -96 -96 0
v -96 -88 0
v -88 -88 0
v -96 -96 0
v -104 -96 0
v -104 -88 0
v -96 -88 0
v -104 -96 0
v -112 -96 0
v -112 -88 0
v -104 -88 0
v -112 -96 0
v -120 -96 0
v -120 -88 0
v -112 -88 0
v -120 -96 0
v -128 -96 0
v -128 -88 0
v -120 -88 0
v 0 -104 0
v -8 -104 0
v -8 -96 0
v 0 -96 0
v -8 -104 0
v -16 -104 0
v -16 -96 0
v -8 -96 0
v -16 -104 0
v -24 -104 0
v -24 -96 0
v -16 -96 0
v -24 -104 0
v -32 -104 0
v -32 -96 0
v -24 -96 0
v -32 -104 0
v -40 -104 0
v -40 -96 0
v -32 -96 0
v -40 -104 0
v -48 -104 0
v -48 -96 0
v -40 -96 0
v -48 -104 0
v -56 -104 0
v -56 -96 0
v -48 -96 0
v -56 -104 0
v -64 -104 0
v -64 -96 0
v -56 -96 0
v -64 -104 0
v -72 -104 0
v -72 -96 0
v -64 -96 0
v -72 -104 0
v -80 -104 0
v -80 -96 0
v -72 -96 0
v -80 -104 0
v -88 -104 0
v -88 -96 0
v -80 -96 0
v -88 -104 0
v -96 -104 0
v -96 -96 0
v -88 -96 0
v -96 -104 0
v -104 -104 0
v -104 -96 0
v -96 -96 0
v -104 -104 0
v -112 -104 0
v -112 -96 0
v -104 -96 0
v -112 -104 0
v -120 -104 0
v -120 -96 0
v -112 -96 0
v -120 -104 0
v -128 -104 0
v -128 -96 0
v -120 -96 0
v 0 -112 0
v -8 -112 0
v -8 -104 0
v 0 -104 0
v -8 -112 0
v -16 -112 0
v -16 -104 0
v -8 -104 0
v -16 -112 0
v -24 -112 0
v -24 -104 0
v -16 -104 0
v -24 -112 0
v -32 -112 0
v -32 -104 0
v -24 -104 0
v -32 -112 0
v -40 -112 0
v -40 -104 0
v -32 -104 0
v -40 -112 0
v -48 -112 0
v -48 -104 0
v -40 -104 0
v -48 -112 0
v -56 -112 0
v -56 -104 0
v -48 -104 0
v -56 -112 0
v -64 -112 0
v -64 -104 0
v -56 -104 0
v -64 -112 0
v -72 -112 0
v -72 -104 0
v -64 -104 0
v -72 -112 0
v -80 -112 0
v -80 -104 0
v -72 -104 0
v -80 -112 0
v -88 -112 0
v -88 -104 0
v -80 -104 0
v -88 -112 0
v -96 -112 0
v -96 -104 0
v -88 -104 0
v -96 -112 0
v -104 -112 0
v -104 -104 0
v -96 -104 0
v -104 -112 0
v -112 -112 0
v -112 -104 0
v -104 -104 0
v -112 -112 0
v -120 -112 0
v -120 -104 0
v -112 -104 0
v -120 -112 0
v -128 -112 0
v -128 -104 0
v -120 -104 0
v 0 -120 0
v -8 -120 0
v -8 -112 0
v 0 -112 0
v -8 -120 0
v -16 -120 0
v -16 -112 0
v -8 -112 0
v -16 -120 0
v -24 -120 0
v -24 -112 0
v -16 -112 0
v -24 -120 0
v -32 -120 0
v -32 -112 0
v -24 -112 0
v -32 -120 0
v -40 -120 0
v -40 -112 0
v -32 -112 0
v -40 -120 0
v -48 -120 0
v -48 -112 0
v -40 -112 0
v -48 -120 0
v -56 -120 0
v -56 -112 0
v -48 -112 0
v -56 -120 0
v -64 -120 0
v -64 -112 0
v -56 -112 0
v -64 -120 0
v -72 -120 0
v -72 -112 0
v -64 -112 0
v -72 -120 0
v -80 -120 0
v -80 -112 0
v -72 -112 0
v -80 -120 0
v -88 -120 0
v -88 -112 0
v -80 -112 0
v -88 -120 0
v -96 -120 0
v -96 -112 0
v -88 -112 0
v -96 -120 0
v -104 -120 0
v -104 -112 0
v -96 -112 0
v -104 -120 0
v -112 -120 0
v -112 -112 0
v -104 -112 0
v -112 -120 0
v -120 -120 0
v -120 -112 0
v -112 -112 0
v -120 -120 0
v -128 -120 0
v -128 -112 0
v -120 -112 0
v 0 -128 0
v -8 -128 0
v -8 -120 0
v 0 -120 0
v -8 -128 0
v -16 -128 0
v -16 -120 0
v -8 -120 0
v -16 -128 0
v -24 -128 0
v -24 -120 0
v -16 -120 0
v -24 -128 0
v -32 -128 0
v -32 -120 0
v -24 -120 0
v -32 -128 0
v -40 -128 0
v -40 -120 0
v -32 -120 0
v -40 -128 0
v -48 -128 0
v -48 -120 0
v -40 -120 0
v -48 -128 0
v -56 -128 0
v -56 -120 0
v -48 -120 0
v -56 -128 0
v -64 -128 0
v -64 -120 0
v -56 -120 0
v -64 -128 0
v -72 -128 0
v -72 -120 0
v -64 -120 0
v -72 -128 0
v -80 -128 0
v -80 -120 0
v -72 -120 0
v -80 -128 0
v -88 -128 0
v -88 -120 0
v -80 -120 0
v -88 -128 0
v -96 -128 0
v -96 -120 0
v -88 -120 0
v -96 -128 0
v -104 -128 0
v -104 -120 0
v -96 -120 0
v -104 -128 0
v -112 -128 0
v -112 -120 0
v -104 -120 0
v -112 -128 0
v -120 -128 0
v -120 -120 0
v -112 -120 0
v -120 -128 0
v -128 -128 0
v -128 -120 0
v -120 -120 0

# Texture cooridinates (Count = 75)
vt 0.4117647 0.8469388
vt 0.4264706 0.8469388
vt 0.4264706 0.8571429
vt 0.4117647 0.8571429
vt 0.4264706 0.8673469
vt 0.4117647 0.8673469
vt 0.4411765 0.8571429
vt 0.4411765 0.8673469
vt 0.4411765 0.8469388
vt 0.5735294 0.8469388
vt 0.5882353 0.8469388
vt 0.5882353 0.8571429
vt 0.5735294 0.8571429
vt 0.5735294 0.8367347
vt 0.5882353 0.8367347
vt 0.5735294 0.8877551
vt 0.5882353 0.8877551
vt 0.5882353 0.8979592
vt 0.5735294 0.8979592
vt 0.5735294 0.877551
vt 0.5882353 0.877551
vt 0.4411765 0.8877551
vt 0.4558823 0.8877551
vt 0.4558823 0.8979592
vt 0.4411765 0.8979592
vt 0.4558823 0.9081632
vt 0.4411765 0.9081632
vt 0.4264706 0.8877551
vt 0.4264706 0.8979592
vt 0.3676471 0.755102
vt 0.3676471 0.744898
vt 0.3823529 0.744898
vt 0.3823529 0.755102
vt 0.3676471 0.7346939
vt 0.3823529 0.7346939
vt 0.5735294 0.8673469
vt 0.5882353 0.8673469
vt 0.3529412 0.755102
vt 0.3529412 0.744898
vt 0.3529412 0.7346939
vt 0.4264706 0.9081632
vt 0.6176471 0.8367347
vt 0.6323529 0.8367347
vt 0.6323529 0.8469388
vt 0.6176471 0.8469388
vt 0.6323529 0.8571429
vt 0.6176471 0.8571429
vt 0.2794118 0.8571429
vt 0.2941177 0.8571429
vt 0.2941177 0.8673469
vt 0.2794118 0.8673469
vt 0.8823529 0.8877551
vt 0.8970588 0.8877551
vt 0.8970588 0.8979592
vt 0.8823529 0.8979592
vt 0.8823529 0.877551
vt 0.8970588 0.877551
vt 0.8823529 0.9489796
vt 0.8970588 0.9489796
vt 0.8970588 0.9591837
vt 0.8823529 0.9591837
vt 0.8823529 0.9387755
vt 0.8970588 0.9387755
vt 0.8823529 0.9285714
vt 0.8970588 0.9285714
vt 0.6176471 0.9081632
vt 0.6323529 0.9081632
vt 0.6323529 0.9183673
vt 0.6176471 0.9183673
vt 0.6470588 0.9081632
vt 0.6470588 0.9183673
vt 0.6323529 0.8979592
vt 0.6176471 0.8979592
vt 0.8823529 0.8673469
vt 0.8970588 0.8673469

# Normal
vn 0 0 -1

# Mesh description
g RoomDR_mesh_0014

# Faces
f 1/1/1 2/2/1 3/3/1 4/4/1
f 5/4/1 6/3/1 7/5/1 8/6/1
f 9/1/1 10/2/1 11/3/1 12/4/1
f 13/4/1 14/3/1 15/5/1 16/6/1
f 17/3/1 18/7/1 19/8/1 20/5/1
f 21/3/1 22/7/1 23/8/1 24/5/1
f 25/2/1 26/9/1 27/7/1 28/3/1
f 29/1/1 30/2/1 31/3/1 32/4/1
f 33/1/1 34/2/1 35/3/1 36/4/1
f 37/10/1 38/11/1 39/12/1 40/13/1
f 41/10/1 42/11/1 43/12/1 44/13/1
f 45/10/1 46/11/1 47/12/1 48/13/1
f 49/10/1 50/11/1 51/12/1 52/13/1
f 53/14/1 54/15/1 55/11/1 56/10/1
f 57/14/1 58/15/1 59/11/1 60/10/1
f 61/14/1 62/15/1 63/11/1 64/10/1
f 65/2/1 66/9/1 67/7/1 68/3/1
f 69/4/1 70/3/1 71/5/1 72/6/1
f 73/1/1 74/2/1 75/3/1 76/4/1
f 77/4/1 78/3/1 79/5/1 80/6/1
f 81/4/1 82/3/1 83/5/1 84/6/1
f 85/4/1 86/3/1 87/5/1 88/6/1
f 89/4/1 90/3/1 91/5/1 92/6/1
f 93/4/1 94/3/1 95/5/1 96/6/1
f 97/4/1 98/3/1 99/5/1 100/6/1
f 101/4/1 102/3/1 103/5/1 104/6/1
f 105/10/1 106/11/1 107/12/1 108/13/1
f 109/10/1 110/11/1 111/12/1 112/13/1
f 113/10/1 114/11/1 115/12/1 116/13/1
f 117/16/1 118/17/1 119/18/1 120/19/1
f 121/16/1 122/17/1 123/18/1 124/19/1
f 125/16/1 126/17/1 127/18/1 128/19/1
f 129/2/1 130/9/1 131/7/1 132/3/1
f 133/1/1 134/2/1 135/3/1 136/4/1
f 137/1/1 138/2/1 139/3/1 140/4/1
f 141/1/1 142/2/1 143/3/1 144/4/1
f 145/1/1 146/2/1 147/3/1 148/4/1
f 149/1/1 150/2/1 151/3/1 152/4/1
f 153/1/1 154/2/1 155/3/1 156/4/1
f 157/1/1 158/2/1 159/3/1 160/4/1
f 161/1/1 162/2/1 163/3/1 164/4/1
f 165/1/1 166/2/1 167/3/1 168/4/1
f 169/10/1 170/11/1 171/12/1 172/13/1
f 173/10/1 174/11/1 175/12/1 176/13/1
f 177/10/1 178/11/1 179/12/1 180/13/1
f 181/10/1 182/11/1 183/12/1 184/13/1
f 185/20/1 186/21/1 187/17/1 188/16/1
f 189/20/1 190/21/1 191/17/1 192/16/1
f 193/22/1 194/23/1 195/24/1 196/25/1
f 197/22/1 198/23/1 199/24/1 200/25/1
f 201/25/1 202/24/1 203/26/1 204/27/1
f 205/28/1 206/22/1 207/25/1 208/29/1
f 209/28/1 210/22/1 211/25/1 212/29/1
f 213/30/1 214/31/1 215/32/1 216/33/1
f 217/31/1 218/34/1 219/35/1 220/32/1
f 221/25/1 222/24/1 223/26/1 224/27/1
f 225/25/1 226/24/1 227/26/1 228/27/1
f 229/28/1 230/22/1 231/25/1 232/29/1
f 233/10/1 234/11/1 235/12/1 236/13/1
f 237/10/1 238/11/1 239/12/1 240/13/1
f 241/10/1 242/11/1 243/12/1 244/13/1
f 245/36/1 246/37/1 247/21/1 248/20/1
f 249/36/1 250/37/1 251/21/1 252/20/1
f 253/36/1 254/37/1 255/21/1 256/20/1
f 257/22/1 258/23/1 259/24/1 260/25/1
f 261/22/1 262/23/1 263/24/1 264/25/1
f 265/22/1 266/23/1 267/24/1 268/25/1
f 269/28/1 270/22/1 271/25/1 272/29/1
f 273/28/1 274/22/1 275/25/1 276/29/1
f 277/38/1 278/39/1 279/31/1 280/30/1
f 281/39/1 282/40/1 283/34/1 284/31/1
f 285/25/1 286/24/1 287/26/1 288/27/1
f 289/22/1 290/23/1 291/24/1 292/25/1
f 293/28/1 294/22/1 295/25/1 296/29/1
f 297/29/1 298/25/1 299/27/1 300/41/1
f 301/10/1 302/11/1 303/12/1 304/13/1
f 305/10/1 306/11/1 307/12/1 308/13/1
f 309/13/1 310/12/1 311/37/1 312/36/1
f 313/13/1 314/12/1 315/37/1 316/36/1
f 317/13/1 318/12/1 319/37/1 320/36/1
f 321/28/1 322/22/1 323/25/1 324/29/1
f 325/22/1 326/23/1 327/24/1 328/25/1
f 329/29/1 330/25/1 331/27/1 332/41/1
f 333/28/1 334/22/1 335/25/1 336/29/1
f 337/28/1 338/22/1 339/25/1 340/29/1
f 341/22/1 342/23/1 343/24/1 344/25/1
f 345/29/1 346/25/1 347/27/1 348/41/1
f 349/29/1 350/25/1 351/27/1 352/41/1
f 353/25/1 354/24/1 355/26/1 356/27/1
f 357/28/1 358/22/1 359/25/1 360/29/1
f 361/29/1 362/25/1 363/27/1 364/41/1
f 365/10/1 366/11/1 367/12/1 368/13/1
f 369/10/1 370/11/1 371/12/1 372/13/1
f 373/10/1 374/11/1 375/12/1 376/13/1
f 377/10/1 378/11/1 379/12/1 380/13/1
f 381/10/1 382/11/1 383/12/1 384/13/1
f 385/28/1 386/22/1 387/25/1 388/29/1
f 389/22/1 390/23/1 391/24/1 392/25/1
f 393/28/1 394/22/1 395/25/1 396/29/1
f 397/28/1 398/22/1 399/25/1 400/29/1
f 401/28/1 402/22/1 403/25/1 404/29/1
f 405/22/1 406/23/1 407/24/1 408/25/1
f 409/29/1 410/25/1 411/27/1 412/41/1
f 413/25/1 414/24/1 415/26/1 416/27/1
f 417/25/1 418/24/1 419/26/1 420/27/1
f 421/28/1 422/22/1 423/25/1 424/29/1
f 425/29/1 426/25/1 427/27/1 428/41/1
f 429/10/1 430/11/1 431/12/1 432/13/1
f 433/10/1 434/11/1 435/12/1 436/13/1
f 437/14/1 438/15/1 439/11/1 440/10/1
f 441/14/1 442/15/1 443/11/1 444/10/1
f 445/14/1 446/15/1 447/11/1 448/10/1
f 449/22/1 450/23/1 451/24/1 452/25/1
f 453/22/1 454/23/1 455/24/1 456/25/1
f 457/28/1 458/22/1 459/25/1 460/29/1
f 461/22/1 462/23/1 463/24/1 464/25/1
f 465/28/1 466/22/1 467/25/1 468/29/1
f 469/22/1 470/23/1 471/24/1 472/25/1
f 473/29/1 474/25/1 475/27/1 476/41/1
f 477/25/1 478/24/1 479/26/1 480/27/1
f 481/22/1 482/23/1 483/24/1 484/25/1
f 485/28/1 486/22/1 487/25/1 488/29/1
f 489/29/1 490/25/1 491/27/1 492/41/1
f 493/28/1 494/22/1 495/25/1 496/29/1
f 497/22/1 498/23/1 499/24/1 500/25/1
f 501/10/1 502/11/1 503/12/1 504/13/1
f 505/10/1 506/11/1 507/12/1 508/13/1
f 509/42/1 510/43/1 511/44/1 512/45/1
f 513/22/1 514/23/1 515/24/1 516/25/1
f 517/25/1 518/24/1 519/26/1 520/27/1
f 521/25/1 522/24/1 523/26/1 524/27/1
f 525/22/1 526/23/1 527/24/1 528/25/1
f 529/28/1 530/22/1 531/25/1 532/29/1
f 533/22/1 534/23/1 535/24/1 536/25/1
f 537/25/1 538/24/1 539/26/1 540/27/1
f 541/25/1 542/24/1 543/26/1 544/27/1
f 545/22/1 546/23/1 547/24/1 548/25/1
f 549/28/1 550/22/1 551/25/1 552/29/1
f 553/29/1 554/25/1 555/27/1 556/41/1
f 557/28/1 558/22/1 559/25/1 560/29/1
f 561/22/1 562/23/1 563/24/1 564/25/1
f 565/25/1 566/24/1 567/26/1 568/27/1
f 569/22/1 570/23/1 571/24/1 572/25/1
f 573/45/1 574/44/1 575/46/1 576/47/1
f 577/25/1 578/24/1 579/26/1 580/27/1
f 581/25/1 582/24/1 583/26/1 584/27/1
f 585/22/1 586/23/1 587/24/1 588/25/1
f 589/22/1 590/23/1 591/24/1 592/25/1
f 593/48/1 594/49/1 595/50/1 596/51/1
f 597/22/1 598/23/1 599/24/1 600/25/1
f 601/25/1 602/24/1 603/26/1 604/27/1
f 605/22/1 606/23/1 607/24/1 608/25/1
f 609/22/1 610/23/1 611/24/1 612/25/1
f 613/28/1 614/22/1 615/25/1 616/29/1
f 617/29/1 618/25/1 619/27/1 620/41/1
f 621/28/1 622/22/1 623/25/1 624/29/1
f 625/22/1 626/23/1 627/24/1 628/25/1
f 629/25/1 630/24/1 631/26/1 632/27/1
f 633/22/1 634/23/1 635/24/1 636/25/1
f 637/42/1 638/43/1 639/44/1 640/45/1
f 641/22/1 642/23/1 643/24/1 644/25/1
f 645/22/1 646/23/1 647/24/1 648/25/1
f 649/22/1 650/23/1 651/24/1 652/25/1
f 653/22/1 654/23/1 655/24/1 656/25/1
f 657/22/1 658/23/1 659/24/1 660/25/1
f 661/25/1 662/24/1 663/26/1 664/27/1
f 665/22/1 666/23/1 667/24/1 668/25/1
f 669/28/1 670/22/1 671/25/1 672/29/1
f 673/22/1 674/23/1 675/24/1 676/25/1
f 677/28/1 678/22/1 679/25/1 680/29/1
f 681/29/1 682/25/1 683/27/1 684/41/1
f 685/28/1 686/22/1 687/25/1 688/29/1
f 689/22/1 690/23/1 691/24/1 692/25/1
f 693/25/1 694/24/1 695/26/1 696/27/1
f 697/22/1 698/23/1 699/24/1 700/25/1
f 701/52/1 702/53/1 703/54/1 704/55/1
f 705/22/1 706/23/1 707/24/1 708/25/1
f 709/25/1 710/24/1 711/26/1 712/27/1
f 713/22/1 714/23/1 715/24/1 716/25/1
f 717/22/1 718/23/1 719/24/1 720/25/1
f 721/22/1 722/23/1 723/24/1 724/25/1
f 725/22/1 726/23/1 727/24/1 728/25/1
f 729/22/1 730/23/1 731/24/1 732/25/1
f 733/28/1 734/22/1 735/25/1 736/29/1
f 737/22/1 738/23/1 739/24/1 740/25/1
f 741/28/1 742/22/1 743/25/1 744/29/1
f 745/29/1 746/25/1 747/27/1 748/41/1
f 749/28/1 750/22/1 751/25/1 752/29/1
f 753/22/1 754/23/1 755/24/1 756/25/1
f 757/25/1 758/24/1 759/26/1 760/27/1
f 761/22/1 762/23/1 763/24/1 764/25/1
f 765/56/1 766/57/1 767/53/1 768/52/1
f 769/22/1 770/23/1 771/24/1 772/25/1
f 773/22/1 774/23/1 775/24/1 776/25/1
f 777/25/1 778/24/1 779/26/1 780/27/1
f 781/25/1 782/24/1 783/26/1 784/27/1
f 785/28/1 786/22/1 787/25/1 788/29/1
f 789/29/1 790/25/1 791/27/1 792/41/1
f 793/29/1 794/25/1 795/27/1 796/41/1
f 797/29/1 798/25/1 799/27/1 800/41/1
f 801/29/1 802/25/1 803/27/1 804/41/1
f 805/29/1 806/25/1 807/27/1 808/41/1
f 809/29/1 810/25/1 811/27/1 812/41/1
f 813/25/1 814/24/1 815/26/1 816/27/1
f 817/22/1 818/23/1 819/24/1 820/25/1
f 821/22/1 822/23/1 823/24/1 824/25/1
f 825/30/1 826/31/1 827/32/1 828/33/1
f 829/58/1 830/59/1 831/60/1 832/61/1
f 833/28/1 834/22/1 835/25/1 836/29/1
f 837/22/1 838/23/1 839/24/1 840/25/1
f 841/22/1 842/23/1 843/24/1 844/25/1
f 845/22/1 846/23/1 847/24/1 848/25/1
f 849/25/1 850/24/1 851/26/1 852/27/1
f 853/25/1 854/24/1 855/26/1 856/27/1
f 857/29/1 858/25/1 859/27/1 860/41/1
f 861/25/1 862/24/1 863/26/1 864/27/1
f 865/25/1 866/24/1 867/26/1 868/27/1
f 869/25/1 870/24/1 871/26/1 872/27/1
f 873/25/1 874/24/1 875/26/1 876/27/1
f 877/25/1 878/24/1 879/26/1 880/27/1
f 881/25/1 882/24/1 883/26/1 884/27/1
f 885/25/1 886/24/1 887/26/1 888/27/1
f 889/38/1 890/39/1 891/31/1 892/30/1
f 893/62/1 894/63/1 895/59/1 896/58/1
f 897/22/1 898/23/1 899/24/1 900/25/1
f 901/22/1 902/23/1 903/24/1 904/25/1
f 905/28/1 906/22/1 907/25/1 908/29/1
f 909/28/1 910/22/1 911/25/1 912/29/1
f 913/22/1 914/23/1 915/24/1 916/25/1
f 917/29/1 918/25/1 919/27/1 920/41/1
f 921/29/1 922/25/1 923/27/1 924/41/1
f 925/25/1 926/24/1 927/26/1 928/27/1
f 929/29/1 930/25/1 931/27/1 932/41/1
f 933/25/1 934/24/1 935/26/1 936/27/1
f 937/29/1 938/25/1 939/27/1 940/41/1
f 941/29/1 942/25/1 943/27/1 944/41/1
f 945/25/1 946/24/1 947/26/1 948/27/1
f 949/22/1 950/23/1 951/24/1 952/25/1
f 953/22/1 954/23/1 955/24/1 956/25/1
f 957/64/1 958/65/1 959/63/1 960/62/1
f 961/22/1 962/23/1 963/24/1 964/25/1
f 965/22/1 966/23/1 967/24/1 968/25/1
f 969/29/1 970/25/1 971/27/1 972/41/1
f 973/29/1 974/25/1 975/27/1 976/41/1
f 977/25/1 978/24/1 979/26/1 980/27/1
f 981/66/1 982/67/1 983/68/1 984/69/1
f 985/67/1 986/70/1 987/71/1 988/68/1
f 989/72/1 990/67/1 991/66/1 992/73/1
f 993/67/1 994/68/1 995/69/1 996/66/1
f 997/25/1 998/24/1 999/26/1 1000/27/1
f 1001/25/1 1002/24/1 1003/26/1 1004/27/1
f 1005/28/1 1006/22/1 1007/25/1 1008/29/1
f 1009/29/1 1010/25/1 1011/27/1 1012/41/1
f 1013/29/1 1014/25/1 1015/27/1 1016/41/1
f 1017/29/1 1018/25/1 1019/27/1 1020/41/1
f 1021/74/1 1022/75/1 1023/57/1 1024/56/1

