# Tiled2Unity generated file. Do not modify by hand.
# Wavefront file for 'RoomDR_mesh_0010.obj'

# Vertices (Count = 64)
v 0 -8 0
v -8 -8 0
v -8 0 0
v 0 0 0
v 0 -16 0
v -8 -16 0
v -8 -8 0
v 0 -8 0
v 0 -24 0
v -8 -24 0
v -8 -16 0
v 0 -16 0
v 0 -32 0
v -8 -32 0
v -8 -24 0
v 0 -24 0
v 0 -40 0
v -8 -40 0
v -8 -32 0
v 0 -32 0
v 0 -48 0
v -8 -48 0
v -8 -40 0
v 0 -40 0
v 0 -56 0
v -8 -56 0
v -8 -48 0
v 0 -48 0
v 0 -64 0
v -8 -64 0
v -8 -56 0
v 0 -56 0
v 0 -72 0
v -8 -72 0
v -8 -64 0
v 0 -64 0
v 0 -80 0
v -8 -80 0
v -8 -72 0
v 0 -72 0
v 0 -88 0
v -8 -88 0
v -8 -80 0
v 0 -80 0
v 0 -96 0
v -8 -96 0
v -8 -88 0
v 0 -88 0
v 0 -104 0
v -8 -104 0
v -8 -96 0
v 0 -96 0
v 0 -112 0
v -8 -112 0
v -8 -104 0
v 0 -104 0
v 0 -120 0
v -8 -120 0
v -8 -112 0
v 0 -112 0
v 0 -128 0
v -8 -128 0
v -8 -120 0
v 0 -120 0

# Texture cooridinates (Count = 28)
vt 0.8970588 0.9183673
vt 0.9117647 0.9183673
vt 0.9117647 0.9285714
vt 0.8970588 0.9285714
vt 0.8970588 0.9081632
vt 0.9117647 0.9081632
vt 0.8970588 0.8979592
vt 0.9117647 0.8979592
vt 0.8970588 0.8877551
vt 0.9117647 0.8877551
vt 0.8970588 0.9489796
vt 0.9117647 0.9489796
vt 0.9117647 0.9591837
vt 0.8970588 0.9591837
vt 0.8970588 0.9387755
vt 0.9117647 0.9387755
vt 0.5735294 0.8877551
vt 0.5882353 0.8877551
vt 0.5882353 0.8979592
vt 0.5735294 0.8979592
vt 0.5735294 0.877551
vt 0.5882353 0.877551
vt 0.5735294 0.8673469
vt 0.5882353 0.8673469
vt 0.5735294 0.8571429
vt 0.5882353 0.8571429
vt 0.5735294 0.8469388
vt 0.5882353 0.8469388

# Normal
vn 0 0 -1

# Mesh description
g RoomDR_mesh_0010

# Faces
f 1/1/1 2/2/1 3/3/1 4/4/1
f 5/5/1 6/6/1 7/2/1 8/1/1
f 9/7/1 10/8/1 11/6/1 12/5/1
f 13/9/1 14/10/1 15/8/1 16/7/1
f 17/11/1 18/12/1 19/13/1 20/14/1
f 21/15/1 22/16/1 23/12/1 24/11/1
f 25/4/1 26/3/1 27/16/1 28/15/1
f 29/1/1 30/2/1 31/3/1 32/4/1
f 33/5/1 34/6/1 35/2/1 36/1/1
f 37/7/1 38/8/1 39/6/1 40/5/1
f 41/9/1 42/10/1 43/8/1 44/7/1
f 45/17/1 46/18/1 47/19/1 48/20/1
f 49/21/1 50/22/1 51/18/1 52/17/1
f 53/23/1 54/24/1 55/22/1 56/21/1
f 57/25/1 58/26/1 59/24/1 60/23/1
f 61/27/1 62/28/1 63/26/1 64/25/1

