# Tiled2Unity generated file. Do not modify by hand.
# Wavefront file for 'RoomDR_mesh_0008.obj'

# Vertices (Count = 1024)
v 0 -8 0
v -8 -8 0
v -8 0 0
v 0 0 0
v -8 -8 0
v -16 -8 0
v -16 0 0
v -8 0 0
v -16 -8 0
v -24 -8 0
v -24 0 0
v -16 0 0
v -24 -8 0
v -32 -8 0
v -32 0 0
v -24 0 0
v -32 -8 0
v -40 -8 0
v -40 0 0
v -32 0 0
v -40 -8 0
v -48 -8 0
v -48 0 0
v -40 0 0
v -48 -8 0
v -56 -8 0
v -56 0 0
v -48 0 0
v -56 -8 0
v -64 -8 0
v -64 0 0
v -56 0 0
v -64 -8 0
v -72 -8 0
v -72 0 0
v -64 0 0
v -72 -8 0
v -80 -8 0
v -80 0 0
v -72 0 0
v -80 -8 0
v -88 -8 0
v -88 0 0
v -80 0 0
v -88 -8 0
v -96 -8 0
v -96 0 0
v -88 0 0
v -96 -8 0
v -104 -8 0
v -104 0 0
v -96 0 0
v -104 -8 0
v -112 -8 0
v -112 0 0
v -104 0 0
v -112 -8 0
v -120 -8 0
v -120 0 0
v -112 0 0
v -120 -8 0
v -128 -8 0
v -128 0 0
v -120 0 0
v 0 -16 0
v -8 -16 0
v -8 -8 0
v 0 -8 0
v -8 -16 0
v -16 -16 0
v -16 -8 0
v -8 -8 0
v -16 -16 0
v -24 -16 0
v -24 -8 0
v -16 -8 0
v -24 -16 0
v -32 -16 0
v -32 -8 0
v -24 -8 0
v -32 -16 0
v -40 -16 0
v -40 -8 0
v -32 -8 0
v -40 -16 0
v -48 -16 0
v -48 -8 0
v -40 -8 0
v -48 -16 0
v -56 -16 0
v -56 -8 0
v -48 -8 0
v -56 -16 0
v -64 -16 0
v -64 -8 0
v -56 -8 0
v -64 -16 0
v -72 -16 0
v -72 -8 0
v -64 -8 0
v -72 -16 0
v -80 -16 0
v -80 -8 0
v -72 -8 0
v -80 -16 0
v -88 -16 0
v -88 -8 0
v -80 -8 0
v -88 -16 0
v -96 -16 0
v -96 -8 0
v -88 -8 0
v -96 -16 0
v -104 -16 0
v -104 -8 0
v -96 -8 0
v -104 -16 0
v -112 -16 0
v -112 -8 0
v -104 -8 0
v -112 -16 0
v -120 -16 0
v -120 -8 0
v -112 -8 0
v -120 -16 0
v -128 -16 0
v -128 -8 0
v -120 -8 0
v 0 -24 0
v -8 -24 0
v -8 -16 0
v 0 -16 0
v -8 -24 0
v -16 -24 0
v -16 -16 0
v -8 -16 0
v -16 -24 0
v -24 -24 0
v -24 -16 0
v -16 -16 0
v -24 -24 0
v -32 -24 0
v -32 -16 0
v -24 -16 0
v -32 -24 0
v -40 -24 0
v -40 -16 0
v -32 -16 0
v -40 -24 0
v -48 -24 0
v -48 -16 0
v -40 -16 0
v -48 -24 0
v -56 -24 0
v -56 -16 0
v -48 -16 0
v -56 -24 0
v -64 -24 0
v -64 -16 0
v -56 -16 0
v -64 -24 0
v -72 -24 0
v -72 -16 0
v -64 -16 0
v -72 -24 0
v -80 -24 0
v -80 -16 0
v -72 -16 0
v -80 -24 0
v -88 -24 0
v -88 -16 0
v -80 -16 0
v -88 -24 0
v -96 -24 0
v -96 -16 0
v -88 -16 0
v -96 -24 0
v -104 -24 0
v -104 -16 0
v -96 -16 0
v -104 -24 0
v -112 -24 0
v -112 -16 0
v -104 -16 0
v -112 -24 0
v -120 -24 0
v -120 -16 0
v -112 -16 0
v -120 -24 0
v -128 -24 0
v -128 -16 0
v -120 -16 0
v 0 -32 0
v -8 -32 0
v -8 -24 0
v 0 -24 0
v -8 -32 0
v -16 -32 0
v -16 -24 0
v -8 -24 0
v -16 -32 0
v -24 -32 0
v -24 -24 0
v -16 -24 0
v -24 -32 0
v -32 -32 0
v -32 -24 0
v -24 -24 0
v -32 -32 0
v -40 -32 0
v -40 -24 0
v -32 -24 0
v -40 -32 0
v -48 -32 0
v -48 -24 0
v -40 -24 0
v -48 -32 0
v -56 -32 0
v -56 -24 0
v -48 -24 0
v -56 -32 0
v -64 -32 0
v -64 -24 0
v -56 -24 0
v -64 -32 0
v -72 -32 0
v -72 -24 0
v -64 -24 0
v -72 -32 0
v -80 -32 0
v -80 -24 0
v -72 -24 0
v -80 -32 0
v -88 -32 0
v -88 -24 0
v -80 -24 0
v -88 -32 0
v -96 -32 0
v -96 -24 0
v -88 -24 0
v -96 -32 0
v -104 -32 0
v -104 -24 0
v -96 -24 0
v -104 -32 0
v -112 -32 0
v -112 -24 0
v -104 -24 0
v -112 -32 0
v -120 -32 0
v -120 -24 0
v -112 -24 0
v -120 -32 0
v -128 -32 0
v -128 -24 0
v -120 -24 0
v 0 -40 0
v -8 -40 0
v -8 -32 0
v 0 -32 0
v -8 -40 0
v -16 -40 0
v -16 -32 0
v -8 -32 0
v -16 -40 0
v -24 -40 0
v -24 -32 0
v -16 -32 0
v -24 -40 0
v -32 -40 0
v -32 -32 0
v -24 -32 0
v -32 -40 0
v -40 -40 0
v -40 -32 0
v -32 -32 0
v -40 -40 0
v -48 -40 0
v -48 -32 0
v -40 -32 0
v -48 -40 0
v -56 -40 0
v -56 -32 0
v -48 -32 0
v -56 -40 0
v -64 -40 0
v -64 -32 0
v -56 -32 0
v -64 -40 0
v -72 -40 0
v -72 -32 0
v -64 -32 0
v -72 -40 0
v -80 -40 0
v -80 -32 0
v -72 -32 0
v -80 -40 0
v -88 -40 0
v -88 -32 0
v -80 -32 0
v -88 -40 0
v -96 -40 0
v -96 -32 0
v -88 -32 0
v -96 -40 0
v -104 -40 0
v -104 -32 0
v -96 -32 0
v -104 -40 0
v -112 -40 0
v -112 -32 0
v -104 -32 0
v -112 -40 0
v -120 -40 0
v -120 -32 0
v -112 -32 0
v -120 -40 0
v -128 -40 0
v -128 -32 0
v -120 -32 0
v 0 -48 0
v -8 -48 0
v -8 -40 0
v 0 -40 0
v -8 -48 0
v -16 -48 0
v -16 -40 0
v -8 -40 0
v -16 -48 0
v -24 -48 0
v -24 -40 0
v -16 -40 0
v -24 -48 0
v -32 -48 0
v -32 -40 0
v -24 -40 0
v -32 -48 0
v -40 -48 0
v -40 -40 0
v -32 -40 0
v -40 -48 0
v -48 -48 0
v -48 -40 0
v -40 -40 0
v -48 -48 0
v -56 -48 0
v -56 -40 0
v -48 -40 0
v -56 -48 0
v -64 -48 0
v -64 -40 0
v -56 -40 0
v -64 -48 0
v -72 -48 0
v -72 -40 0
v -64 -40 0
v -72 -48 0
v -80 -48 0
v -80 -40 0
v -72 -40 0
v -80 -48 0
v -88 -48 0
v -88 -40 0
v -80 -40 0
v -88 -48 0
v -96 -48 0
v -96 -40 0
v -88 -40 0
v -96 -48 0
v -104 -48 0
v -104 -40 0
v -96 -40 0
v -104 -48 0
v -112 -48 0
v -112 -40 0
v -104 -40 0
v -112 -48 0
v -120 -48 0
v -120 -40 0
v -112 -40 0
v -120 -48 0
v -128 -48 0
v -128 -40 0
v -120 -40 0
v 0 -56 0
v -8 -56 0
v -8 -48 0
v 0 -48 0
v -8 -56 0
v -16 -56 0
v -16 -48 0
v -8 -48 0
v -16 -56 0
v -24 -56 0
v -24 -48 0
v -16 -48 0
v -24 -56 0
v -32 -56 0
v -32 -48 0
v -24 -48 0
v -32 -56 0
v -40 -56 0
v -40 -48 0
v -32 -48 0
v -40 -56 0
v -48 -56 0
v -48 -48 0
v -40 -48 0
v -48 -56 0
v -56 -56 0
v -56 -48 0
v -48 -48 0
v -56 -56 0
v -64 -56 0
v -64 -48 0
v -56 -48 0
v -64 -56 0
v -72 -56 0
v -72 -48 0
v -64 -48 0
v -72 -56 0
v -80 -56 0
v -80 -48 0
v -72 -48 0
v -80 -56 0
v -88 -56 0
v -88 -48 0
v -80 -48 0
v -88 -56 0
v -96 -56 0
v -96 -48 0
v -88 -48 0
v -96 -56 0
v -104 -56 0
v -104 -48 0
v -96 -48 0
v -104 -56 0
v -112 -56 0
v -112 -48 0
v -104 -48 0
v -112 -56 0
v -120 -56 0
v -120 -48 0
v -112 -48 0
v -120 -56 0
v -128 -56 0
v -128 -48 0
v -120 -48 0
v 0 -64 0
v -8 -64 0
v -8 -56 0
v 0 -56 0
v -8 -64 0
v -16 -64 0
v -16 -56 0
v -8 -56 0
v -16 -64 0
v -24 -64 0
v -24 -56 0
v -16 -56 0
v -24 -64 0
v -32 -64 0
v -32 -56 0
v -24 -56 0
v -32 -64 0
v -40 -64 0
v -40 -56 0
v -32 -56 0
v -40 -64 0
v -48 -64 0
v -48 -56 0
v -40 -56 0
v -48 -64 0
v -56 -64 0
v -56 -56 0
v -48 -56 0
v -56 -64 0
v -64 -64 0
v -64 -56 0
v -56 -56 0
v -64 -64 0
v -72 -64 0
v -72 -56 0
v -64 -56 0
v -72 -64 0
v -80 -64 0
v -80 -56 0
v -72 -56 0
v -80 -64 0
v -88 -64 0
v -88 -56 0
v -80 -56 0
v -88 -64 0
v -96 -64 0
v -96 -56 0
v -88 -56 0
v -96 -64 0
v -104 -64 0
v -104 -56 0
v -96 -56 0
v -104 -64 0
v -112 -64 0
v -112 -56 0
v -104 -56 0
v -112 -64 0
v -120 -64 0
v -120 -56 0
v -112 -56 0
v -120 -64 0
v -128 -64 0
v -128 -56 0
v -120 -56 0
v 0 -72 0
v -8 -72 0
v -8 -64 0
v 0 -64 0
v -8 -72 0
v -16 -72 0
v -16 -64 0
v -8 -64 0
v -16 -72 0
v -24 -72 0
v -24 -64 0
v -16 -64 0
v -24 -72 0
v -32 -72 0
v -32 -64 0
v -24 -64 0
v -32 -72 0
v -40 -72 0
v -40 -64 0
v -32 -64 0
v -40 -72 0
v -48 -72 0
v -48 -64 0
v -40 -64 0
v -48 -72 0
v -56 -72 0
v -56 -64 0
v -48 -64 0
v -56 -72 0
v -64 -72 0
v -64 -64 0
v -56 -64 0
v -64 -72 0
v -72 -72 0
v -72 -64 0
v -64 -64 0
v -72 -72 0
v -80 -72 0
v -80 -64 0
v -72 -64 0
v -80 -72 0
v -88 -72 0
v -88 -64 0
v -80 -64 0
v -88 -72 0
v -96 -72 0
v -96 -64 0
v -88 -64 0
v -96 -72 0
v -104 -72 0
v -104 -64 0
v -96 -64 0
v -104 -72 0
v -112 -72 0
v -112 -64 0
v -104 -64 0
v -112 -72 0
v -120 -72 0
v -120 -64 0
v -112 -64 0
v -120 -72 0
v -128 -72 0
v -128 -64 0
v -120 -64 0
v 0 -80 0
v -8 -80 0
v -8 -72 0
v 0 -72 0
v -8 -80 0
v -16 -80 0
v -16 -72 0
v -8 -72 0
v -16 -80 0
v -24 -80 0
v -24 -72 0
v -16 -72 0
v -24 -80 0
v -32 -80 0
v -32 -72 0
v -24 -72 0
v -32 -80 0
v -40 -80 0
v -40 -72 0
v -32 -72 0
v -40 -80 0
v -48 -80 0
v -48 -72 0
v -40 -72 0
v -48 -80 0
v -56 -80 0
v -56 -72 0
v -48 -72 0
v -56 -80 0
v -64 -80 0
v -64 -72 0
v -56 -72 0
v -64 -80 0
v -72 -80 0
v -72 -72 0
v -64 -72 0
v -72 -80 0
v -80 -80 0
v -80 -72 0
v -72 -72 0
v -80 -80 0
v -88 -80 0
v -88 -72 0
v -80 -72 0
v -88 -80 0
v -96 -80 0
v -96 -72 0
v -88 -72 0
v -96 -80 0
v -104 -80 0
v -104 -72 0
v -96 -72 0
v -104 -80 0
v -112 -80 0
v -112 -72 0
v -104 -72 0
v -112 -80 0
v -120 -80 0
v -120 -72 0
v -112 -72 0
v -120 -80 0
v -128 -80 0
v -128 -72 0
v -120 -72 0
v 0 -88 0
v -8 -88 0
v -8 -80 0
v 0 -80 0
v -8 -88 0
v -16 -88 0
v -16 -80 0
v -8 -80 0
v -16 -88 0
v -24 -88 0
v -24 -80 0
v -16 -80 0
v -24 -88 0
v -32 -88 0
v -32 -80 0
v -24 -80 0
v -32 -88 0
v -40 -88 0
v -40 -80 0
v -32 -80 0
v -40 -88 0
v -48 -88 0
v -48 -80 0
v -40 -80 0
v -48 -88 0
v -56 -88 0
v -56 -80 0
v -48 -80 0
v -56 -88 0
v -64 -88 0
v -64 -80 0
v -56 -80 0
v -64 -88 0
v -72 -88 0
v -72 -80 0
v -64 -80 0
v -72 -88 0
v -80 -88 0
v -80 -80 0
v -72 -80 0
v -80 -88 0
v -88 -88 0
v -88 -80 0
v -80 -80 0
v -88 -88 0
v -96 -88 0
v -96 -80 0
v -88 -80 0
v -96 -88 0
v -104 -88 0
v -104 -80 0
v -96 -80 0
v -104 -88 0
v -112 -88 0
v -112 -80 0
v -104 -80 0
v -112 -88 0
v -120 -88 0
v -120 -80 0
v -112 -80 0
v -120 -88 0
v -128 -88 0
v -128 -80 0
v -120 -80 0
v 0 -96 0
v -8 -96 0
v -8 -88 0
v 0 -88 0
v -8 -96 0
v -16 -96 0
v -16 -88 0
v -8 -88 0
v -16 -96 0
v -24 -96 0
v -24 -88 0
v -16 -88 0
v -24 -96 0
v -32 -96 0
v -32 -88 0
v -24 -88 0
v -32 -96 0
v -40 -96 0
v -40 -88 0
v -32 -88 0
v -40 -96 0
v -48 -96 0
v -48 -88 0
v -40 -88 0
v -48 -96 0
v -56 -96 0
v -56 -88 0
v -48 -88 0
v -56 -96 0
v -64 -96 0
v -64 -88 0
v -56 -88 0
v -64 -96 0
v -72 -96 0
v -72 -88 0
v -64 -88 0
v -72 -96 0
v -80 -96 0
v -80 -88 0
v -72 -88 0
v -80 -96 0
v -88 -96 0
v -88 -88 0
v -80 -88 0
v -88 -96 0
v -96 -96 0
v -96 -88 0
v -88 -88 0
v -96 -96 0
v -104 -96 0
v -104 -88 0
v -96 -88 0
v -104 -96 0
v -112 -96 0
v -112 -88 0
v -104 -88 0
v -112 -96 0
v -120 -96 0
v -120 -88 0
v -112 -88 0
v -120 -96 0
v -128 -96 0
v -128 -88 0
v -120 -88 0
v 0 -104 0
v -8 -104 0
v -8 -96 0
v 0 -96 0
v -8 -104 0
v -16 -104 0
v -16 -96 0
v -8 -96 0
v -16 -104 0
v -24 -104 0
v -24 -96 0
v -16 -96 0
v -24 -104 0
v -32 -104 0
v -32 -96 0
v -24 -96 0
v -32 -104 0
v -40 -104 0
v -40 -96 0
v -32 -96 0
v -40 -104 0
v -48 -104 0
v -48 -96 0
v -40 -96 0
v -48 -104 0
v -56 -104 0
v -56 -96 0
v -48 -96 0
v -56 -104 0
v -64 -104 0
v -64 -96 0
v -56 -96 0
v -64 -104 0
v -72 -104 0
v -72 -96 0
v -64 -96 0
v -72 -104 0
v -80 -104 0
v -80 -96 0
v -72 -96 0
v -80 -104 0
v -88 -104 0
v -88 -96 0
v -80 -96 0
v -88 -104 0
v -96 -104 0
v -96 -96 0
v -88 -96 0
v -96 -104 0
v -104 -104 0
v -104 -96 0
v -96 -96 0
v -104 -104 0
v -112 -104 0
v -112 -96 0
v -104 -96 0
v -112 -104 0
v -120 -104 0
v -120 -96 0
v -112 -96 0
v -120 -104 0
v -128 -104 0
v -128 -96 0
v -120 -96 0
v 0 -112 0
v -8 -112 0
v -8 -104 0
v 0 -104 0
v -8 -112 0
v -16 -112 0
v -16 -104 0
v -8 -104 0
v -16 -112 0
v -24 -112 0
v -24 -104 0
v -16 -104 0
v -24 -112 0
v -32 -112 0
v -32 -104 0
v -24 -104 0
v -32 -112 0
v -40 -112 0
v -40 -104 0
v -32 -104 0
v -40 -112 0
v -48 -112 0
v -48 -104 0
v -40 -104 0
v -48 -112 0
v -56 -112 0
v -56 -104 0
v -48 -104 0
v -56 -112 0
v -64 -112 0
v -64 -104 0
v -56 -104 0
v -64 -112 0
v -72 -112 0
v -72 -104 0
v -64 -104 0
v -72 -112 0
v -80 -112 0
v -80 -104 0
v -72 -104 0
v -80 -112 0
v -88 -112 0
v -88 -104 0
v -80 -104 0
v -88 -112 0
v -96 -112 0
v -96 -104 0
v -88 -104 0
v -96 -112 0
v -104 -112 0
v -104 -104 0
v -96 -104 0
v -104 -112 0
v -112 -112 0
v -112 -104 0
v -104 -104 0
v -112 -112 0
v -120 -112 0
v -120 -104 0
v -112 -104 0
v -120 -112 0
v -128 -112 0
v -128 -104 0
v -120 -104 0
v 0 -120 0
v -8 -120 0
v -8 -112 0
v 0 -112 0
v -8 -120 0
v -16 -120 0
v -16 -112 0
v -8 -112 0
v -16 -120 0
v -24 -120 0
v -24 -112 0
v -16 -112 0
v -24 -120 0
v -32 -120 0
v -32 -112 0
v -24 -112 0
v -32 -120 0
v -40 -120 0
v -40 -112 0
v -32 -112 0
v -40 -120 0
v -48 -120 0
v -48 -112 0
v -40 -112 0
v -48 -120 0
v -56 -120 0
v -56 -112 0
v -48 -112 0
v -56 -120 0
v -64 -120 0
v -64 -112 0
v -56 -112 0
v -64 -120 0
v -72 -120 0
v -72 -112 0
v -64 -112 0
v -72 -120 0
v -80 -120 0
v -80 -112 0
v -72 -112 0
v -80 -120 0
v -88 -120 0
v -88 -112 0
v -80 -112 0
v -88 -120 0
v -96 -120 0
v -96 -112 0
v -88 -112 0
v -96 -120 0
v -104 -120 0
v -104 -112 0
v -96 -112 0
v -104 -120 0
v -112 -120 0
v -112 -112 0
v -104 -112 0
v -112 -120 0
v -120 -120 0
v -120 -112 0
v -112 -112 0
v -120 -120 0
v -128 -120 0
v -128 -112 0
v -120 -112 0
v 0 -128 0
v -8 -128 0
v -8 -120 0
v 0 -120 0
v -8 -128 0
v -16 -128 0
v -16 -120 0
v -8 -120 0
v -16 -128 0
v -24 -128 0
v -24 -120 0
v -16 -120 0
v -24 -128 0
v -32 -128 0
v -32 -120 0
v -24 -120 0
v -32 -128 0
v -40 -128 0
v -40 -120 0
v -32 -120 0
v -40 -128 0
v -48 -128 0
v -48 -120 0
v -40 -120 0
v -48 -128 0
v -56 -128 0
v -56 -120 0
v -48 -120 0
v -56 -128 0
v -64 -128 0
v -64 -120 0
v -56 -120 0
v -64 -128 0
v -72 -128 0
v -72 -120 0
v -64 -120 0
v -72 -128 0
v -80 -128 0
v -80 -120 0
v -72 -120 0
v -80 -128 0
v -88 -128 0
v -88 -120 0
v -80 -120 0
v -88 -128 0
v -96 -128 0
v -96 -120 0
v -88 -120 0
v -96 -128 0
v -104 -128 0
v -104 -120 0
v -96 -120 0
v -104 -128 0
v -112 -128 0
v -112 -120 0
v -104 -120 0
v -112 -128 0
v -120 -128 0
v -120 -120 0
v -112 -120 0
v -120 -128 0
v -128 -128 0
v -128 -120 0
v -120 -120 0

# Texture cooridinates (Count = 56)
vt 0.3823529 0.877551
vt 0.3970588 0.877551
vt 0.3970588 0.8877551
vt 0.3823529 0.8877551
vt 0.4117647 0.877551
vt 0.4117647 0.8877551
vt 0.4264706 0.8979592
vt 0.4411765 0.8979592
vt 0.4411765 0.9081632
vt 0.4264706 0.9081632
vt 0.4117647 0.8673469
vt 0.4264706 0.8673469
vt 0.4264706 0.877551
vt 0.4264706 0.8877551
vt 0.4411765 0.877551
vt 0.4411765 0.8877551
vt 0.2647059 0.8877551
vt 0.2794118 0.8877551
vt 0.2794118 0.8979592
vt 0.2647059 0.8979592
vt 0.2941177 0.8877551
vt 0.2941177 0.8979592
vt 0.4411765 0.8673469
vt 0.2647059 0.877551
vt 0.2794118 0.877551
vt 0.2941177 0.877551
vt 0.4558823 0.8877551
vt 0.4558823 0.8979592
vt 0.4558823 0.9081632
vt 0.5588235 0.7857143
vt 0.5735294 0.7857143
vt 0.5735294 0.7959183
vt 0.5588235 0.7959183
vt 0.5588235 0.7755102
vt 0.5735294 0.7755102
vt 0.4411765 0.9489796
vt 0.4558823 0.9489796
vt 0.4558823 0.9591837
vt 0.4411765 0.9591837
vt 0.3676471 0.755102
vt 0.3676471 0.744898
vt 0.3823529 0.744898
vt 0.3823529 0.755102
vt 0.3676471 0.7346939
vt 0.3823529 0.7346939
vt 0.3529412 0.755102
vt 0.3529412 0.744898
vt 0.3529412 0.7346939
vt 0.4411765 0.9387755
vt 0.4558823 0.9387755
vt 0.3970588 0.744898
vt 0.4117647 0.744898
vt 0.4117647 0.755102
vt 0.3970588 0.755102
vt 0.4117647 0.8571429
vt 0.4264706 0.8571429

# Normal
vn 0 0 -1

# Mesh description
g RoomDR_mesh_0008

# Faces
f 1/1/1 2/2/1 3/3/1 4/4/1
f 5/2/1 6/5/1 7/6/1 8/3/1
f 9/7/1 10/8/1 11/9/1 12/10/1
f 13/7/1 14/8/1 15/9/1 16/10/1
f 17/11/1 18/12/1 19/13/1 20/5/1
f 21/11/1 22/12/1 23/13/1 24/5/1
f 25/5/1 26/13/1 27/14/1 28/6/1
f 29/13/1 30/15/1 31/16/1 32/14/1
f 33/5/1 34/13/1 35/14/1 36/6/1
f 37/11/1 38/12/1 39/13/1 40/5/1
f 41/11/1 42/12/1 43/13/1 44/5/1
f 45/5/1 46/13/1 47/14/1 48/6/1
f 49/11/1 50/12/1 51/13/1 52/5/1
f 53/5/1 54/13/1 55/14/1 56/6/1
f 57/5/1 58/13/1 59/14/1 60/6/1
f 61/5/1 62/13/1 63/14/1 64/6/1
f 65/17/1 66/18/1 67/19/1 68/20/1
f 69/18/1 70/21/1 71/22/1 72/19/1
f 73/14/1 74/16/1 75/8/1 76/7/1
f 77/14/1 78/16/1 79/8/1 80/7/1
f 81/11/1 82/12/1 83/13/1 84/5/1
f 85/12/1 86/23/1 87/15/1 88/13/1
f 89/5/1 90/13/1 91/14/1 92/6/1
f 93/5/1 94/13/1 95/14/1 96/6/1
f 97/5/1 98/13/1 99/14/1 100/6/1
f 101/11/1 102/12/1 103/13/1 104/5/1
f 105/11/1 106/12/1 107/13/1 108/5/1
f 109/5/1 110/13/1 111/14/1 112/6/1
f 113/11/1 114/12/1 115/13/1 116/5/1
f 117/5/1 118/13/1 119/14/1 120/6/1
f 121/5/1 122/13/1 123/14/1 124/6/1
f 125/5/1 126/13/1 127/14/1 128/6/1
f 129/24/1 130/25/1 131/18/1 132/17/1
f 133/25/1 134/26/1 135/21/1 136/18/1
f 137/14/1 138/16/1 139/8/1 140/7/1
f 141/16/1 142/27/1 143/28/1 144/8/1
f 145/11/1 146/12/1 147/13/1 148/5/1
f 149/12/1 150/23/1 151/15/1 152/13/1
f 153/5/1 154/13/1 155/14/1 156/6/1
f 157/5/1 158/13/1 159/14/1 160/6/1
f 161/5/1 162/13/1 163/14/1 164/6/1
f 165/11/1 166/12/1 167/13/1 168/5/1
f 169/11/1 170/12/1 171/13/1 172/5/1
f 173/5/1 174/13/1 175/14/1 176/6/1
f 177/11/1 178/12/1 179/13/1 180/5/1
f 181/5/1 182/13/1 183/14/1 184/6/1
f 185/11/1 186/12/1 187/13/1 188/5/1
f 189/5/1 190/13/1 191/14/1 192/6/1
f 193/17/1 194/18/1 195/19/1 196/20/1
f 197/18/1 198/21/1 199/22/1 200/19/1
f 201/8/1 202/28/1 203/29/1 204/9/1
f 205/16/1 206/27/1 207/28/1 208/8/1
f 209/11/1 210/12/1 211/13/1 212/5/1
f 213/12/1 214/23/1 215/15/1 216/13/1
f 217/5/1 218/13/1 219/14/1 220/6/1
f 221/5/1 222/13/1 223/14/1 224/6/1
f 225/5/1 226/13/1 227/14/1 228/6/1
f 229/11/1 230/12/1 231/13/1 232/5/1
f 233/11/1 234/12/1 235/13/1 236/5/1
f 237/5/1 238/13/1 239/14/1 240/6/1
f 241/11/1 242/12/1 243/13/1 244/5/1
f 245/5/1 246/13/1 247/14/1 248/6/1
f 249/11/1 250/12/1 251/13/1 252/5/1
f 253/5/1 254/13/1 255/14/1 256/6/1
f 257/24/1 258/25/1 259/18/1 260/17/1
f 261/25/1 262/26/1 263/21/1 264/18/1
f 265/16/1 266/27/1 267/28/1 268/8/1
f 269/7/1 270/8/1 271/9/1 272/10/1
f 273/11/1 274/12/1 275/13/1 276/5/1
f 277/12/1 278/23/1 279/15/1 280/13/1
f 281/5/1 282/13/1 283/14/1 284/6/1
f 285/11/1 286/12/1 287/13/1 288/5/1
f 289/5/1 290/13/1 291/14/1 292/6/1
f 293/11/1 294/12/1 295/13/1 296/5/1
f 297/11/1 298/12/1 299/13/1 300/5/1
f 301/11/1 302/12/1 303/13/1 304/5/1
f 305/12/1 306/23/1 307/15/1 308/13/1
f 309/5/1 310/13/1 311/14/1 312/6/1
f 313/11/1 314/12/1 315/13/1 316/5/1
f 317/11/1 318/12/1 319/13/1 320/5/1
f 321/17/1 322/18/1 323/19/1 324/20/1
f 325/18/1 326/21/1 327/22/1 328/19/1
f 329/14/1 330/16/1 331/8/1 332/7/1
f 333/7/1 334/8/1 335/9/1 336/10/1
f 337/11/1 338/12/1 339/13/1 340/5/1
f 341/12/1 342/23/1 343/15/1 344/13/1
f 345/11/1 346/12/1 347/13/1 348/5/1
f 349/11/1 350/12/1 351/13/1 352/5/1
f 353/11/1 354/12/1 355/13/1 356/5/1
f 357/11/1 358/12/1 359/13/1 360/5/1
f 361/11/1 362/12/1 363/13/1 364/5/1
f 365/11/1 366/12/1 367/13/1 368/5/1
f 369/12/1 370/23/1 371/15/1 372/13/1
f 373/11/1 374/12/1 375/13/1 376/5/1
f 377/11/1 378/12/1 379/13/1 380/5/1
f 381/30/1 382/31/1 383/32/1 384/33/1
f 385/24/1 386/25/1 387/18/1 388/17/1
f 389/25/1 390/26/1 391/21/1 392/18/1
f 393/7/1 394/8/1 395/9/1 396/10/1
f 397/14/1 398/16/1 399/8/1 400/7/1
f 401/11/1 402/12/1 403/13/1 404/5/1
f 405/12/1 406/23/1 407/15/1 408/13/1
f 409/12/1 410/23/1 411/15/1 412/13/1
f 413/12/1 414/23/1 415/15/1 416/13/1
f 417/11/1 418/12/1 419/13/1 420/5/1
f 421/12/1 422/23/1 423/15/1 424/13/1
f 425/11/1 426/12/1 427/13/1 428/5/1
f 429/12/1 430/23/1 431/15/1 432/13/1
f 433/13/1 434/15/1 435/16/1 436/14/1
f 437/11/1 438/12/1 439/13/1 440/5/1
f 441/12/1 442/23/1 443/15/1 444/13/1
f 445/34/1 446/35/1 447/31/1 448/30/1
f 449/17/1 450/18/1 451/19/1 452/20/1
f 453/18/1 454/21/1 455/22/1 456/19/1
f 457/7/1 458/8/1 459/9/1 460/10/1
f 461/14/1 462/16/1 463/8/1 464/7/1
f 465/11/1 466/12/1 467/13/1 468/5/1
f 469/11/1 470/12/1 471/13/1 472/5/1
f 473/11/1 474/12/1 475/13/1 476/5/1
f 477/11/1 478/12/1 479/13/1 480/5/1
f 481/11/1 482/12/1 483/13/1 484/5/1
f 485/12/1 486/23/1 487/15/1 488/13/1
f 489/11/1 490/12/1 491/13/1 492/5/1
f 493/12/1 494/23/1 495/15/1 496/13/1
f 497/12/1 498/23/1 499/15/1 500/13/1
f 501/11/1 502/12/1 503/13/1 504/5/1
f 505/12/1 506/23/1 507/15/1 508/13/1
f 509/36/1 510/37/1 511/38/1 512/39/1
f 513/24/1 514/25/1 515/18/1 516/17/1
f 517/25/1 518/26/1 519/21/1 520/18/1
f 521/14/1 522/16/1 523/8/1 524/7/1
f 525/16/1 526/27/1 527/28/1 528/8/1
f 529/7/1 530/8/1 531/9/1 532/10/1
f 533/14/1 534/16/1 535/8/1 536/7/1
f 537/40/1 538/41/1 539/42/1 540/43/1
f 541/41/1 542/44/1 543/45/1 544/42/1
f 545/7/1 546/8/1 547/9/1 548/10/1
f 549/8/1 550/28/1 551/29/1 552/9/1
f 553/16/1 554/27/1 555/28/1 556/8/1
f 557/8/1 558/28/1 559/29/1 560/9/1
f 561/8/1 562/28/1 563/29/1 564/9/1
f 565/8/1 566/28/1 567/29/1 568/9/1
f 569/7/1 570/8/1 571/9/1 572/10/1
f 573/36/1 574/37/1 575/38/1 576/39/1
f 577/14/1 578/16/1 579/8/1 580/7/1
f 581/14/1 582/16/1 583/8/1 584/7/1
f 585/16/1 586/27/1 587/28/1 588/8/1
f 589/16/1 590/27/1 591/28/1 592/8/1
f 593/14/1 594/16/1 595/8/1 596/7/1
f 597/14/1 598/16/1 599/8/1 600/7/1
f 601/46/1 602/47/1 603/41/1 604/40/1
f 605/47/1 606/48/1 607/44/1 608/41/1
f 609/8/1 610/28/1 611/29/1 612/9/1
f 613/16/1 614/27/1 615/28/1 616/8/1
f 617/16/1 618/27/1 619/28/1 620/8/1
f 621/16/1 622/27/1 623/28/1 624/8/1
f 625/16/1 626/27/1 627/28/1 628/8/1
f 629/16/1 630/27/1 631/28/1 632/8/1
f 633/8/1 634/28/1 635/29/1 636/9/1
f 637/49/1 638/50/1 639/37/1 640/36/1
f 641/7/1 642/8/1 643/9/1 644/10/1
f 645/7/1 646/8/1 647/9/1 648/10/1
f 649/7/1 650/8/1 651/9/1 652/10/1
f 653/8/1 654/28/1 655/29/1 656/9/1
f 657/8/1 658/28/1 659/29/1 660/9/1
f 661/16/1 662/27/1 663/28/1 664/8/1
f 665/16/1 666/27/1 667/28/1 668/8/1
f 669/7/1 670/8/1 671/9/1 672/10/1
f 673/8/1 674/28/1 675/29/1 676/9/1
f 677/16/1 678/27/1 679/28/1 680/8/1
f 681/8/1 682/28/1 683/29/1 684/9/1
f 685/8/1 686/28/1 687/29/1 688/9/1
f 689/16/1 690/27/1 691/28/1 692/8/1
f 693/16/1 694/27/1 695/28/1 696/8/1
f 697/8/1 698/28/1 699/29/1 700/9/1
f 701/51/1 702/52/1 703/53/1 704/54/1
f 705/8/1 706/28/1 707/29/1 708/9/1
f 709/8/1 710/28/1 711/29/1 712/9/1
f 713/8/1 714/28/1 715/29/1 716/9/1
f 717/8/1 718/28/1 719/29/1 720/9/1
f 721/16/1 722/27/1 723/28/1 724/8/1
f 725/8/1 726/28/1 727/29/1 728/9/1
f 729/16/1 730/27/1 731/28/1 732/8/1
f 733/8/1 734/28/1 735/29/1 736/9/1
f 737/16/1 738/27/1 739/28/1 740/8/1
f 741/16/1 742/27/1 743/28/1 744/8/1
f 745/8/1 746/28/1 747/29/1 748/9/1
f 749/16/1 750/27/1 751/28/1 752/8/1
f 753/16/1 754/27/1 755/28/1 756/8/1
f 757/8/1 758/28/1 759/29/1 760/9/1
f 761/16/1 762/27/1 763/28/1 764/8/1
f 765/16/1 766/27/1 767/28/1 768/8/1
f 769/8/1 770/28/1 771/29/1 772/9/1
f 773/16/1 774/27/1 775/28/1 776/8/1
f 777/16/1 778/27/1 779/28/1 780/8/1
f 781/16/1 782/27/1 783/28/1 784/8/1
f 785/16/1 786/27/1 787/28/1 788/8/1
f 789/16/1 790/27/1 791/28/1 792/8/1
f 793/16/1 794/27/1 795/28/1 796/8/1
f 797/8/1 798/28/1 799/29/1 800/9/1
f 801/16/1 802/27/1 803/28/1 804/8/1
f 805/8/1 806/28/1 807/29/1 808/9/1
f 809/16/1 810/27/1 811/28/1 812/8/1
f 813/16/1 814/27/1 815/28/1 816/8/1
f 817/16/1 818/27/1 819/28/1 820/8/1
f 821/8/1 822/28/1 823/29/1 824/9/1
f 825/14/1 826/16/1 827/8/1 828/7/1
f 829/16/1 830/27/1 831/28/1 832/8/1
f 833/16/1 834/27/1 835/28/1 836/8/1
f 837/14/1 838/16/1 839/8/1 840/7/1
f 841/14/1 842/16/1 843/8/1 844/7/1
f 845/16/1 846/27/1 847/28/1 848/8/1
f 849/8/1 850/28/1 851/29/1 852/9/1
f 853/16/1 854/27/1 855/28/1 856/8/1
f 857/8/1 858/28/1 859/29/1 860/9/1
f 861/16/1 862/27/1 863/28/1 864/8/1
f 865/16/1 866/27/1 867/28/1 868/8/1
f 869/16/1 870/27/1 871/28/1 872/8/1
f 873/16/1 874/27/1 875/28/1 876/8/1
f 877/14/1 878/16/1 879/8/1 880/7/1
f 881/16/1 882/27/1 883/28/1 884/8/1
f 885/16/1 886/27/1 887/28/1 888/8/1
f 889/16/1 890/27/1 891/28/1 892/8/1
f 893/55/1 894/56/1 895/12/1 896/11/1
f 897/8/1 898/28/1 899/29/1 900/9/1
f 901/8/1 902/28/1 903/29/1 904/9/1
f 905/8/1 906/28/1 907/29/1 908/9/1
f 909/8/1 910/28/1 911/29/1 912/9/1
f 913/8/1 914/28/1 915/29/1 916/9/1
f 917/8/1 918/28/1 919/29/1 920/9/1
f 921/8/1 922/28/1 923/29/1 924/9/1
f 925/14/1 926/16/1 927/8/1 928/7/1
f 929/16/1 930/27/1 931/28/1 932/8/1
f 933/8/1 934/28/1 935/29/1 936/9/1
f 937/14/1 938/16/1 939/8/1 940/7/1
f 941/16/1 942/27/1 943/28/1 944/8/1
f 945/16/1 946/27/1 947/28/1 948/8/1
f 949/14/1 950/16/1 951/8/1 952/7/1
f 953/16/1 954/27/1 955/28/1 956/8/1
f 957/55/1 958/56/1 959/12/1 960/11/1
f 961/7/1 962/8/1 963/9/1 964/10/1
f 965/8/1 966/28/1 967/29/1 968/9/1
f 969/8/1 970/28/1 971/29/1 972/9/1
f 973/16/1 974/27/1 975/28/1 976/8/1
f 977/16/1 978/27/1 979/28/1 980/8/1
f 981/16/1 982/27/1 983/28/1 984/8/1
f 985/16/1 986/27/1 987/28/1 988/8/1
f 989/16/1 990/27/1 991/28/1 992/8/1
f 993/8/1 994/28/1 995/29/1 996/9/1
f 997/16/1 998/27/1 999/28/1 1000/8/1
f 1001/14/1 1002/16/1 1003/8/1 1004/7/1
f 1005/16/1 1006/27/1 1007/28/1 1008/8/1
f 1009/14/1 1010/16/1 1011/8/1 1012/7/1
f 1013/16/1 1014/27/1 1015/28/1 1016/8/1
f 1017/7/1 1018/8/1 1019/9/1 1020/10/1
f 1021/55/1 1022/56/1 1023/12/1 1024/11/1

