# Tiled2Unity generated file. Do not modify by hand.
# Wavefront file for 'RoomDR_mesh_0001.obj'

# Vertices (Count = 900)
v -8 -16 0
v -16 -16 0
v -16 -8 0
v -8 -8 0
v -16 -16 0
v -24 -16 0
v -24 -8 0
v -16 -8 0
v -24 -16 0
v -32 -16 0
v -32 -8 0
v -24 -8 0
v -32 -16 0
v -40 -16 0
v -40 -8 0
v -32 -8 0
v -40 -16 0
v -48 -16 0
v -48 -8 0
v -40 -8 0
v -48 -16 0
v -56 -16 0
v -56 -8 0
v -48 -8 0
v -56 -16 0
v -64 -16 0
v -64 -8 0
v -56 -8 0
v -64 -16 0
v -72 -16 0
v -72 -8 0
v -64 -8 0
v -72 -16 0
v -80 -16 0
v -80 -8 0
v -72 -8 0
v -80 -16 0
v -88 -16 0
v -88 -8 0
v -80 -8 0
v -88 -16 0
v -96 -16 0
v -96 -8 0
v -88 -8 0
v -96 -16 0
v -104 -16 0
v -104 -8 0
v -96 -8 0
v -104 -16 0
v -112 -16 0
v -112 -8 0
v -104 -8 0
v -112 -16 0
v -120 -16 0
v -120 -8 0
v -112 -8 0
v -120 -16 0
v -128 -16 0
v -128 -8 0
v -120 -8 0
v -8 -24 0
v -16 -24 0
v -16 -16 0
v -8 -16 0
v -16 -24 0
v -24 -24 0
v -24 -16 0
v -16 -16 0
v -24 -24 0
v -32 -24 0
v -32 -16 0
v -24 -16 0
v -32 -24 0
v -40 -24 0
v -40 -16 0
v -32 -16 0
v -40 -24 0
v -48 -24 0
v -48 -16 0
v -40 -16 0
v -48 -24 0
v -56 -24 0
v -56 -16 0
v -48 -16 0
v -56 -24 0
v -64 -24 0
v -64 -16 0
v -56 -16 0
v -64 -24 0
v -72 -24 0
v -72 -16 0
v -64 -16 0
v -72 -24 0
v -80 -24 0
v -80 -16 0
v -72 -16 0
v -80 -24 0
v -88 -24 0
v -88 -16 0
v -80 -16 0
v -88 -24 0
v -96 -24 0
v -96 -16 0
v -88 -16 0
v -96 -24 0
v -104 -24 0
v -104 -16 0
v -96 -16 0
v -104 -24 0
v -112 -24 0
v -112 -16 0
v -104 -16 0
v -112 -24 0
v -120 -24 0
v -120 -16 0
v -112 -16 0
v -120 -24 0
v -128 -24 0
v -128 -16 0
v -120 -16 0
v -8 -32 0
v -16 -32 0
v -16 -24 0
v -8 -24 0
v -16 -32 0
v -24 -32 0
v -24 -24 0
v -16 -24 0
v -24 -32 0
v -32 -32 0
v -32 -24 0
v -24 -24 0
v -32 -32 0
v -40 -32 0
v -40 -24 0
v -32 -24 0
v -40 -32 0
v -48 -32 0
v -48 -24 0
v -40 -24 0
v -48 -32 0
v -56 -32 0
v -56 -24 0
v -48 -24 0
v -56 -32 0
v -64 -32 0
v -64 -24 0
v -56 -24 0
v -64 -32 0
v -72 -32 0
v -72 -24 0
v -64 -24 0
v -72 -32 0
v -80 -32 0
v -80 -24 0
v -72 -24 0
v -80 -32 0
v -88 -32 0
v -88 -24 0
v -80 -24 0
v -88 -32 0
v -96 -32 0
v -96 -24 0
v -88 -24 0
v -96 -32 0
v -104 -32 0
v -104 -24 0
v -96 -24 0
v -104 -32 0
v -112 -32 0
v -112 -24 0
v -104 -24 0
v -112 -32 0
v -120 -32 0
v -120 -24 0
v -112 -24 0
v -120 -32 0
v -128 -32 0
v -128 -24 0
v -120 -24 0
v -8 -40 0
v -16 -40 0
v -16 -32 0
v -8 -32 0
v -16 -40 0
v -24 -40 0
v -24 -32 0
v -16 -32 0
v -24 -40 0
v -32 -40 0
v -32 -32 0
v -24 -32 0
v -32 -40 0
v -40 -40 0
v -40 -32 0
v -32 -32 0
v -40 -40 0
v -48 -40 0
v -48 -32 0
v -40 -32 0
v -48 -40 0
v -56 -40 0
v -56 -32 0
v -48 -32 0
v -56 -40 0
v -64 -40 0
v -64 -32 0
v -56 -32 0
v -64 -40 0
v -72 -40 0
v -72 -32 0
v -64 -32 0
v -72 -40 0
v -80 -40 0
v -80 -32 0
v -72 -32 0
v -80 -40 0
v -88 -40 0
v -88 -32 0
v -80 -32 0
v -88 -40 0
v -96 -40 0
v -96 -32 0
v -88 -32 0
v -96 -40 0
v -104 -40 0
v -104 -32 0
v -96 -32 0
v -104 -40 0
v -112 -40 0
v -112 -32 0
v -104 -32 0
v -112 -40 0
v -120 -40 0
v -120 -32 0
v -112 -32 0
v -120 -40 0
v -128 -40 0
v -128 -32 0
v -120 -32 0
v -8 -48 0
v -16 -48 0
v -16 -40 0
v -8 -40 0
v -16 -48 0
v -24 -48 0
v -24 -40 0
v -16 -40 0
v -24 -48 0
v -32 -48 0
v -32 -40 0
v -24 -40 0
v -32 -48 0
v -40 -48 0
v -40 -40 0
v -32 -40 0
v -40 -48 0
v -48 -48 0
v -48 -40 0
v -40 -40 0
v -48 -48 0
v -56 -48 0
v -56 -40 0
v -48 -40 0
v -56 -48 0
v -64 -48 0
v -64 -40 0
v -56 -40 0
v -64 -48 0
v -72 -48 0
v -72 -40 0
v -64 -40 0
v -72 -48 0
v -80 -48 0
v -80 -40 0
v -72 -40 0
v -80 -48 0
v -88 -48 0
v -88 -40 0
v -80 -40 0
v -88 -48 0
v -96 -48 0
v -96 -40 0
v -88 -40 0
v -96 -48 0
v -104 -48 0
v -104 -40 0
v -96 -40 0
v -104 -48 0
v -112 -48 0
v -112 -40 0
v -104 -40 0
v -112 -48 0
v -120 -48 0
v -120 -40 0
v -112 -40 0
v -120 -48 0
v -128 -48 0
v -128 -40 0
v -120 -40 0
v -8 -56 0
v -16 -56 0
v -16 -48 0
v -8 -48 0
v -16 -56 0
v -24 -56 0
v -24 -48 0
v -16 -48 0
v -24 -56 0
v -32 -56 0
v -32 -48 0
v -24 -48 0
v -32 -56 0
v -40 -56 0
v -40 -48 0
v -32 -48 0
v -40 -56 0
v -48 -56 0
v -48 -48 0
v -40 -48 0
v -48 -56 0
v -56 -56 0
v -56 -48 0
v -48 -48 0
v -56 -56 0
v -64 -56 0
v -64 -48 0
v -56 -48 0
v -64 -56 0
v -72 -56 0
v -72 -48 0
v -64 -48 0
v -72 -56 0
v -80 -56 0
v -80 -48 0
v -72 -48 0
v -80 -56 0
v -88 -56 0
v -88 -48 0
v -80 -48 0
v -88 -56 0
v -96 -56 0
v -96 -48 0
v -88 -48 0
v -96 -56 0
v -104 -56 0
v -104 -48 0
v -96 -48 0
v -104 -56 0
v -112 -56 0
v -112 -48 0
v -104 -48 0
v -112 -56 0
v -120 -56 0
v -120 -48 0
v -112 -48 0
v -120 -56 0
v -128 -56 0
v -128 -48 0
v -120 -48 0
v -8 -64 0
v -16 -64 0
v -16 -56 0
v -8 -56 0
v -16 -64 0
v -24 -64 0
v -24 -56 0
v -16 -56 0
v -24 -64 0
v -32 -64 0
v -32 -56 0
v -24 -56 0
v -32 -64 0
v -40 -64 0
v -40 -56 0
v -32 -56 0
v -40 -64 0
v -48 -64 0
v -48 -56 0
v -40 -56 0
v -48 -64 0
v -56 -64 0
v -56 -56 0
v -48 -56 0
v -56 -64 0
v -64 -64 0
v -64 -56 0
v -56 -56 0
v -64 -64 0
v -72 -64 0
v -72 -56 0
v -64 -56 0
v -72 -64 0
v -80 -64 0
v -80 -56 0
v -72 -56 0
v -80 -64 0
v -88 -64 0
v -88 -56 0
v -80 -56 0
v -88 -64 0
v -96 -64 0
v -96 -56 0
v -88 -56 0
v -96 -64 0
v -104 -64 0
v -104 -56 0
v -96 -56 0
v -104 -64 0
v -112 -64 0
v -112 -56 0
v -104 -56 0
v -112 -64 0
v -120 -64 0
v -120 -56 0
v -112 -56 0
v -120 -64 0
v -128 -64 0
v -128 -56 0
v -120 -56 0
v -8 -72 0
v -16 -72 0
v -16 -64 0
v -8 -64 0
v -16 -72 0
v -24 -72 0
v -24 -64 0
v -16 -64 0
v -24 -72 0
v -32 -72 0
v -32 -64 0
v -24 -64 0
v -32 -72 0
v -40 -72 0
v -40 -64 0
v -32 -64 0
v -40 -72 0
v -48 -72 0
v -48 -64 0
v -40 -64 0
v -48 -72 0
v -56 -72 0
v -56 -64 0
v -48 -64 0
v -56 -72 0
v -64 -72 0
v -64 -64 0
v -56 -64 0
v -64 -72 0
v -72 -72 0
v -72 -64 0
v -64 -64 0
v -72 -72 0
v -80 -72 0
v -80 -64 0
v -72 -64 0
v -80 -72 0
v -88 -72 0
v -88 -64 0
v -80 -64 0
v -88 -72 0
v -96 -72 0
v -96 -64 0
v -88 -64 0
v -96 -72 0
v -104 -72 0
v -104 -64 0
v -96 -64 0
v -104 -72 0
v -112 -72 0
v -112 -64 0
v -104 -64 0
v -112 -72 0
v -120 -72 0
v -120 -64 0
v -112 -64 0
v -120 -72 0
v -128 -72 0
v -128 -64 0
v -120 -64 0
v -8 -80 0
v -16 -80 0
v -16 -72 0
v -8 -72 0
v -16 -80 0
v -24 -80 0
v -24 -72 0
v -16 -72 0
v -24 -80 0
v -32 -80 0
v -32 -72 0
v -24 -72 0
v -32 -80 0
v -40 -80 0
v -40 -72 0
v -32 -72 0
v -40 -80 0
v -48 -80 0
v -48 -72 0
v -40 -72 0
v -48 -80 0
v -56 -80 0
v -56 -72 0
v -48 -72 0
v -56 -80 0
v -64 -80 0
v -64 -72 0
v -56 -72 0
v -64 -80 0
v -72 -80 0
v -72 -72 0
v -64 -72 0
v -72 -80 0
v -80 -80 0
v -80 -72 0
v -72 -72 0
v -80 -80 0
v -88 -80 0
v -88 -72 0
v -80 -72 0
v -88 -80 0
v -96 -80 0
v -96 -72 0
v -88 -72 0
v -96 -80 0
v -104 -80 0
v -104 -72 0
v -96 -72 0
v -104 -80 0
v -112 -80 0
v -112 -72 0
v -104 -72 0
v -112 -80 0
v -120 -80 0
v -120 -72 0
v -112 -72 0
v -120 -80 0
v -128 -80 0
v -128 -72 0
v -120 -72 0
v -8 -88 0
v -16 -88 0
v -16 -80 0
v -8 -80 0
v -16 -88 0
v -24 -88 0
v -24 -80 0
v -16 -80 0
v -24 -88 0
v -32 -88 0
v -32 -80 0
v -24 -80 0
v -32 -88 0
v -40 -88 0
v -40 -80 0
v -32 -80 0
v -40 -88 0
v -48 -88 0
v -48 -80 0
v -40 -80 0
v -48 -88 0
v -56 -88 0
v -56 -80 0
v -48 -80 0
v -56 -88 0
v -64 -88 0
v -64 -80 0
v -56 -80 0
v -64 -88 0
v -72 -88 0
v -72 -80 0
v -64 -80 0
v -72 -88 0
v -80 -88 0
v -80 -80 0
v -72 -80 0
v -80 -88 0
v -88 -88 0
v -88 -80 0
v -80 -80 0
v -88 -88 0
v -96 -88 0
v -96 -80 0
v -88 -80 0
v -96 -88 0
v -104 -88 0
v -104 -80 0
v -96 -80 0
v -104 -88 0
v -112 -88 0
v -112 -80 0
v -104 -80 0
v -112 -88 0
v -120 -88 0
v -120 -80 0
v -112 -80 0
v -120 -88 0
v -128 -88 0
v -128 -80 0
v -120 -80 0
v -8 -96 0
v -16 -96 0
v -16 -88 0
v -8 -88 0
v -16 -96 0
v -24 -96 0
v -24 -88 0
v -16 -88 0
v -24 -96 0
v -32 -96 0
v -32 -88 0
v -24 -88 0
v -32 -96 0
v -40 -96 0
v -40 -88 0
v -32 -88 0
v -40 -96 0
v -48 -96 0
v -48 -88 0
v -40 -88 0
v -48 -96 0
v -56 -96 0
v -56 -88 0
v -48 -88 0
v -56 -96 0
v -64 -96 0
v -64 -88 0
v -56 -88 0
v -64 -96 0
v -72 -96 0
v -72 -88 0
v -64 -88 0
v -72 -96 0
v -80 -96 0
v -80 -88 0
v -72 -88 0
v -80 -96 0
v -88 -96 0
v -88 -88 0
v -80 -88 0
v -88 -96 0
v -96 -96 0
v -96 -88 0
v -88 -88 0
v -96 -96 0
v -104 -96 0
v -104 -88 0
v -96 -88 0
v -104 -96 0
v -112 -96 0
v -112 -88 0
v -104 -88 0
v -112 -96 0
v -120 -96 0
v -120 -88 0
v -112 -88 0
v -120 -96 0
v -128 -96 0
v -128 -88 0
v -120 -88 0
v -8 -104 0
v -16 -104 0
v -16 -96 0
v -8 -96 0
v -16 -104 0
v -24 -104 0
v -24 -96 0
v -16 -96 0
v -24 -104 0
v -32 -104 0
v -32 -96 0
v -24 -96 0
v -32 -104 0
v -40 -104 0
v -40 -96 0
v -32 -96 0
v -40 -104 0
v -48 -104 0
v -48 -96 0
v -40 -96 0
v -48 -104 0
v -56 -104 0
v -56 -96 0
v -48 -96 0
v -56 -104 0
v -64 -104 0
v -64 -96 0
v -56 -96 0
v -64 -104 0
v -72 -104 0
v -72 -96 0
v -64 -96 0
v -72 -104 0
v -80 -104 0
v -80 -96 0
v -72 -96 0
v -80 -104 0
v -88 -104 0
v -88 -96 0
v -80 -96 0
v -88 -104 0
v -96 -104 0
v -96 -96 0
v -88 -96 0
v -96 -104 0
v -104 -104 0
v -104 -96 0
v -96 -96 0
v -104 -104 0
v -112 -104 0
v -112 -96 0
v -104 -96 0
v -112 -104 0
v -120 -104 0
v -120 -96 0
v -112 -96 0
v -120 -104 0
v -128 -104 0
v -128 -96 0
v -120 -96 0
v -8 -112 0
v -16 -112 0
v -16 -104 0
v -8 -104 0
v -16 -112 0
v -24 -112 0
v -24 -104 0
v -16 -104 0
v -24 -112 0
v -32 -112 0
v -32 -104 0
v -24 -104 0
v -32 -112 0
v -40 -112 0
v -40 -104 0
v -32 -104 0
v -40 -112 0
v -48 -112 0
v -48 -104 0
v -40 -104 0
v -48 -112 0
v -56 -112 0
v -56 -104 0
v -48 -104 0
v -56 -112 0
v -64 -112 0
v -64 -104 0
v -56 -104 0
v -64 -112 0
v -72 -112 0
v -72 -104 0
v -64 -104 0
v -72 -112 0
v -80 -112 0
v -80 -104 0
v -72 -104 0
v -80 -112 0
v -88 -112 0
v -88 -104 0
v -80 -104 0
v -88 -112 0
v -96 -112 0
v -96 -104 0
v -88 -104 0
v -96 -112 0
v -104 -112 0
v -104 -104 0
v -96 -104 0
v -104 -112 0
v -112 -112 0
v -112 -104 0
v -104 -104 0
v -112 -112 0
v -120 -112 0
v -120 -104 0
v -112 -104 0
v -120 -112 0
v -128 -112 0
v -128 -104 0
v -120 -104 0
v -8 -120 0
v -16 -120 0
v -16 -112 0
v -8 -112 0
v -16 -120 0
v -24 -120 0
v -24 -112 0
v -16 -112 0
v -24 -120 0
v -32 -120 0
v -32 -112 0
v -24 -112 0
v -32 -120 0
v -40 -120 0
v -40 -112 0
v -32 -112 0
v -40 -120 0
v -48 -120 0
v -48 -112 0
v -40 -112 0
v -48 -120 0
v -56 -120 0
v -56 -112 0
v -48 -112 0
v -56 -120 0
v -64 -120 0
v -64 -112 0
v -56 -112 0
v -64 -120 0
v -72 -120 0
v -72 -112 0
v -64 -112 0
v -72 -120 0
v -80 -120 0
v -80 -112 0
v -72 -112 0
v -80 -120 0
v -88 -120 0
v -88 -112 0
v -80 -112 0
v -88 -120 0
v -96 -120 0
v -96 -112 0
v -88 -112 0
v -96 -120 0
v -104 -120 0
v -104 -112 0
v -96 -112 0
v -104 -120 0
v -112 -120 0
v -112 -112 0
v -104 -112 0
v -112 -120 0
v -120 -120 0
v -120 -112 0
v -112 -112 0
v -120 -120 0
v -128 -120 0
v -128 -112 0
v -120 -112 0
v -8 -128 0
v -16 -128 0
v -16 -120 0
v -8 -120 0
v -16 -128 0
v -24 -128 0
v -24 -120 0
v -16 -120 0
v -24 -128 0
v -32 -128 0
v -32 -120 0
v -24 -120 0
v -32 -128 0
v -40 -128 0
v -40 -120 0
v -32 -120 0
v -40 -128 0
v -48 -128 0
v -48 -120 0
v -40 -120 0
v -48 -128 0
v -56 -128 0
v -56 -120 0
v -48 -120 0
v -56 -128 0
v -64 -128 0
v -64 -120 0
v -56 -120 0
v -64 -128 0
v -72 -128 0
v -72 -120 0
v -64 -120 0
v -72 -128 0
v -80 -128 0
v -80 -120 0
v -72 -120 0
v -80 -128 0
v -88 -128 0
v -88 -120 0
v -80 -120 0
v -88 -128 0
v -96 -128 0
v -96 -120 0
v -88 -120 0
v -96 -128 0
v -104 -128 0
v -104 -120 0
v -96 -120 0
v -104 -128 0
v -112 -128 0
v -112 -120 0
v -104 -120 0
v -112 -128 0
v -120 -128 0
v -120 -120 0
v -112 -120 0
v -120 -128 0
v -128 -128 0
v -128 -120 0
v -120 -120 0

# Texture cooridinates (Count = 144)
vt 0.2058824 0.9693878
vt 0.2205882 0.9693878
vt 0.2205882 0.9795918
vt 0.2058824 0.9795918
vt 0.2352941 0.9693878
vt 0.2352941 0.9795918
vt 0.25 0.9693878
vt 0.25 0.9795918
vt 0.2647059 0.9693878
vt 0.2647059 0.9795918
vt 0.4117647 0.9693878
vt 0.4264706 0.9693878
vt 0.4264706 0.9795918
vt 0.4117647 0.9795918
vt 0.2794118 0.9693878
vt 0.2941177 0.9693878
vt 0.2941177 0.9795918
vt 0.2794118 0.9795918
vt 0.6176471 0.7857143
vt 0.6323529 0.7857143
vt 0.6323529 0.7959183
vt 0.6176471 0.7959183
vt 0.3235294 0.9693878
vt 0.3382353 0.9693878
vt 0.3382353 0.9795918
vt 0.3235294 0.9795918
vt 0.2058824 0.9591837
vt 0.2205882 0.9591837
vt 0.2352941 0.9591837
vt 0.25 0.9591837
vt 0.2647059 0.9591837
vt 0.4117647 0.9591837
vt 0.4264706 0.9591837
vt 0.2794118 0.9591837
vt 0.2941177 0.9591837
vt 0.3235294 0.9591837
vt 0.3382353 0.9591837
vt 0.2058824 0.9489796
vt 0.2205882 0.9489796
vt 0.2352941 0.9489796
vt 0.25 0.9489796
vt 0.75 0.9489796
vt 0.7647059 0.9489796
vt 0.7647059 0.9591837
vt 0.75 0.9591837
vt 0.4117647 0.9489796
vt 0.4264706 0.9489796
vt 0.4411765 0.9489796
vt 0.4411765 0.9591837
vt 0.3823529 0.9489796
vt 0.3970588 0.9489796
vt 0.3970588 0.9591837
vt 0.3823529 0.9591837
vt 0.2058824 0.9387755
vt 0.2205882 0.9387755
vt 0.2352941 0.9387755
vt 0.3676471 0.9489796
vt 0.3676471 0.9591837
vt 0.4117647 0.9387755
vt 0.4264706 0.9387755
vt 0.6617647 0.9489796
vt 0.6764706 0.9489796
vt 0.6764706 0.9591837
vt 0.6617647 0.9591837
vt 0.4411765 0.9387755
vt 0.3823529 0.9387755
vt 0.3970588 0.9387755
vt 0.2058824 0.9285714
vt 0.2205882 0.9285714
vt 0.2352941 0.9285714
vt 0.3529412 0.9489796
vt 0.3529412 0.9591837
vt 0.2058824 0.9183673
vt 0.2205882 0.9183673
vt 0.2352941 0.9183673
vt 0.25 0.9285714
vt 0.25 0.9387755
vt 0.2647059 0.9285714
vt 0.2647059 0.9387755
vt 0.6617647 0.9285714
vt 0.6764706 0.9285714
vt 0.6764706 0.9387755
vt 0.6617647 0.9387755
vt 0.2794118 0.9285714
vt 0.2941177 0.9285714
vt 0.2941177 0.9387755
vt 0.2794118 0.9387755
vt 0.3088235 0.9285714
vt 0.3088235 0.9387755
vt 0.3235294 0.9285714
vt 0.3235294 0.9387755
vt 0.3382353 0.9285714
vt 0.3382353 0.9387755
vt 0.3529412 0.9285714
vt 0.3529412 0.9387755
vt 0.3676471 0.9285714
vt 0.3676471 0.9387755
vt 0.3823529 0.9285714
vt 0.3970588 0.9285714
vt 0.4117647 0.9285714
vt 0.4264706 0.9285714
vt 0.2058824 0.9081632
vt 0.2205882 0.9081632
vt 0.2352941 0.9081632
vt 0.25 0.9081632
vt 0.25 0.9183673
vt 0.4411765 0.8979592
vt 0.4558823 0.8979592
vt 0.4558823 0.9081632
vt 0.4411765 0.9081632
vt 0.4264706 0.8979592
vt 0.4264706 0.9081632
vt 0.2058824 0.8979592
vt 0.2205882 0.8979592
vt 0.2352941 0.8979592
vt 0.25 0.8979592
vt 0.4411765 0.8877551
vt 0.4558823 0.8877551
vt 0.4264706 0.8877551
vt 0.2058824 0.8877551
vt 0.2205882 0.8877551
vt 0.2352941 0.8877551
vt 0.25 0.8877551
vt 0.2058824 0.755102
vt 0.2205882 0.755102
vt 0.2205882 0.7653061
vt 0.2058824 0.7653061
vt 0.2352941 0.755102
vt 0.2352941 0.7653061
vt 0.6176471 0.9081632
vt 0.6323529 0.9081632
vt 0.6323529 0.9183673
vt 0.6176471 0.9183673
vt 0.6470588 0.9081632
vt 0.6470588 0.9183673
vt 0.6323529 0.8979592
vt 0.6176471 0.8979592
vt 0.2058824 0.744898
vt 0.2205882 0.744898
vt 0.2352941 0.744898
vt 0.6470588 0.8979592
vt 0.2058824 0.7346939
vt 0.2205882 0.7346939
vt 0.2352941 0.7346939

# Normal
vn 0 0 -1

# Mesh description
g RoomDR_mesh_0001

# Faces
f 1/1/1 2/2/1 3/3/1 4/4/1
f 5/2/1 6/5/1 7/6/1 8/3/1
f 9/5/1 10/7/1 11/8/1 12/6/1
f 13/7/1 14/9/1 15/10/1 16/8/1
f 17/11/1 18/12/1 19/13/1 20/14/1
f 21/15/1 22/16/1 23/17/1 24/18/1
f 25/19/1 26/20/1 27/21/1 28/22/1
f 29/15/1 30/16/1 31/17/1 32/18/1
f 33/19/1 34/20/1 35/21/1 36/22/1
f 37/15/1 38/16/1 39/17/1 40/18/1
f 41/11/1 42/12/1 43/13/1 44/14/1
f 45/19/1 46/20/1 47/21/1 48/22/1
f 49/23/1 50/24/1 51/25/1 52/26/1
f 53/15/1 54/16/1 55/17/1 56/18/1
f 57/23/1 58/24/1 59/25/1 60/26/1
f 61/27/1 62/28/1 63/2/1 64/1/1
f 65/28/1 66/29/1 67/5/1 68/2/1
f 69/29/1 70/30/1 71/7/1 72/5/1
f 73/30/1 74/31/1 75/9/1 76/7/1
f 77/32/1 78/33/1 79/12/1 80/11/1
f 81/34/1 82/35/1 83/16/1 84/15/1
f 85/32/1 86/33/1 87/12/1 88/11/1
f 89/34/1 90/35/1 91/16/1 92/15/1
f 93/32/1 94/33/1 95/12/1 96/11/1
f 97/34/1 98/35/1 99/16/1 100/15/1
f 101/32/1 102/33/1 103/12/1 104/11/1
f 105/34/1 106/35/1 107/16/1 108/15/1
f 109/36/1 110/37/1 111/24/1 112/23/1
f 113/34/1 114/35/1 115/16/1 116/15/1
f 117/36/1 118/37/1 119/24/1 120/23/1
f 121/38/1 122/39/1 123/28/1 124/27/1
f 125/39/1 126/40/1 127/29/1 128/28/1
f 129/40/1 130/41/1 131/30/1 132/29/1
f 133/42/1 134/43/1 135/44/1 136/45/1
f 137/46/1 138/47/1 139/33/1 140/32/1
f 141/46/1 142/47/1 143/33/1 144/32/1
f 145/46/1 146/47/1 147/33/1 148/32/1
f 149/46/1 150/47/1 151/33/1 152/32/1
f 153/46/1 154/47/1 155/33/1 156/32/1
f 157/46/1 158/47/1 159/33/1 160/32/1
f 161/46/1 162/47/1 163/33/1 164/32/1
f 165/46/1 166/47/1 167/33/1 168/32/1
f 169/47/1 170/48/1 171/49/1 172/33/1
f 173/50/1 174/51/1 175/52/1 176/53/1
f 177/51/1 178/46/1 179/32/1 180/52/1
f 181/54/1 182/55/1 183/39/1 184/38/1
f 185/55/1 186/56/1 187/40/1 188/39/1
f 189/57/1 190/50/1 191/53/1 192/58/1
f 193/57/1 194/50/1 195/53/1 196/58/1
f 197/59/1 198/60/1 199/47/1 200/46/1
f 201/59/1 202/60/1 203/47/1 204/46/1
f 205/59/1 206/60/1 207/47/1 208/46/1
f 209/61/1 210/62/1 211/63/1 212/64/1
f 213/59/1 214/60/1 215/47/1 216/46/1
f 217/59/1 218/60/1 219/47/1 220/46/1
f 221/59/1 222/60/1 223/47/1 224/46/1
f 225/59/1 226/60/1 227/47/1 228/46/1
f 229/60/1 230/65/1 231/48/1 232/47/1
f 233/66/1 234/67/1 235/51/1 236/50/1
f 237/67/1 238/59/1 239/46/1 240/51/1
f 241/68/1 242/69/1 243/55/1 244/54/1
f 245/69/1 246/70/1 247/56/1 248/55/1
f 249/40/1 250/41/1 251/30/1 252/29/1
f 253/42/1 254/43/1 255/44/1 256/45/1
f 257/71/1 258/57/1 259/58/1 260/72/1
f 261/61/1 262/62/1 263/63/1 264/64/1
f 265/71/1 266/57/1 267/58/1 268/72/1
f 269/61/1 270/62/1 271/63/1 272/64/1
f 273/71/1 274/57/1 275/58/1 276/72/1
f 277/71/1 278/57/1 279/58/1 280/72/1
f 281/71/1 282/57/1 283/58/1 284/72/1
f 285/71/1 286/57/1 287/58/1 288/72/1
f 289/71/1 290/57/1 291/58/1 292/72/1
f 293/71/1 294/57/1 295/58/1 296/72/1
f 297/71/1 298/57/1 299/58/1 300/72/1
f 301/73/1 302/74/1 303/69/1 304/68/1
f 305/74/1 306/75/1 307/70/1 308/69/1
f 309/70/1 310/76/1 311/77/1 312/56/1
f 313/76/1 314/78/1 315/79/1 316/77/1
f 317/80/1 318/81/1 319/82/1 320/83/1
f 321/84/1 322/85/1 323/86/1 324/87/1
f 325/85/1 326/88/1 327/89/1 328/86/1
f 329/88/1 330/90/1 331/91/1 332/89/1
f 333/90/1 334/92/1 335/93/1 336/91/1
f 337/92/1 338/94/1 339/95/1 340/93/1
f 341/94/1 342/96/1 343/97/1 344/95/1
f 345/96/1 346/98/1 347/66/1 348/97/1
f 349/98/1 350/99/1 351/67/1 352/66/1
f 353/99/1 354/100/1 355/59/1 356/67/1
f 357/100/1 358/101/1 359/60/1 360/59/1
f 361/102/1 362/103/1 363/74/1 364/73/1
f 365/103/1 366/104/1 367/75/1 368/74/1
f 369/104/1 370/105/1 371/106/1 372/75/1
f 373/107/1 374/108/1 375/109/1 376/110/1
f 377/107/1 378/108/1 379/109/1 380/110/1
f 381/111/1 382/107/1 383/110/1 384/112/1
f 385/111/1 386/107/1 387/110/1 388/112/1
f 389/111/1 390/107/1 391/110/1 392/112/1
f 393/111/1 394/107/1 395/110/1 396/112/1
f 397/111/1 398/107/1 399/110/1 400/112/1
f 401/111/1 402/107/1 403/110/1 404/112/1
f 405/107/1 406/108/1 407/109/1 408/110/1
f 409/107/1 410/108/1 411/109/1 412/110/1
f 413/107/1 414/108/1 415/109/1 416/110/1
f 417/107/1 418/108/1 419/109/1 420/110/1
f 421/113/1 422/114/1 423/103/1 424/102/1
f 425/114/1 426/115/1 427/104/1 428/103/1
f 429/115/1 430/116/1 431/105/1 432/104/1
f 433/107/1 434/108/1 435/109/1 436/110/1
f 437/117/1 438/118/1 439/108/1 440/107/1
f 441/111/1 442/107/1 443/110/1 444/112/1
f 445/107/1 446/108/1 447/109/1 448/110/1
f 449/119/1 450/117/1 451/107/1 452/111/1
f 453/119/1 454/117/1 455/107/1 456/111/1
f 457/119/1 458/117/1 459/107/1 460/111/1
f 461/119/1 462/117/1 463/107/1 464/111/1
f 465/111/1 466/107/1 467/110/1 468/112/1
f 469/111/1 470/107/1 471/110/1 472/112/1
f 473/111/1 474/107/1 475/110/1 476/112/1
f 477/111/1 478/107/1 479/110/1 480/112/1
f 481/120/1 482/121/1 483/114/1 484/113/1
f 485/121/1 486/122/1 487/115/1 488/114/1
f 489/122/1 490/123/1 491/116/1 492/115/1
f 493/107/1 494/108/1 495/109/1 496/110/1
f 497/117/1 498/118/1 499/108/1 500/107/1
f 501/111/1 502/107/1 503/110/1 504/112/1
f 505/107/1 506/108/1 507/109/1 508/110/1
f 509/107/1 510/108/1 511/109/1 512/110/1
f 513/111/1 514/107/1 515/110/1 516/112/1
f 517/107/1 518/108/1 519/109/1 520/110/1
f 521/111/1 522/107/1 523/110/1 524/112/1
f 525/111/1 526/107/1 527/110/1 528/112/1
f 529/107/1 530/108/1 531/109/1 532/110/1
f 533/107/1 534/108/1 535/109/1 536/110/1
f 537/107/1 538/108/1 539/109/1 540/110/1
f 541/102/1 542/103/1 543/74/1 544/73/1
f 545/103/1 546/104/1 547/75/1 548/74/1
f 549/75/1 550/106/1 551/76/1 552/70/1
f 553/107/1 554/108/1 555/109/1 556/110/1
f 557/117/1 558/118/1 559/108/1 560/107/1
f 561/111/1 562/107/1 563/110/1 564/112/1
f 565/107/1 566/108/1 567/109/1 568/110/1
f 569/111/1 570/107/1 571/110/1 572/112/1
f 573/111/1 574/107/1 575/110/1 576/112/1
f 577/107/1 578/108/1 579/109/1 580/110/1
f 581/119/1 582/117/1 583/107/1 584/111/1
f 585/111/1 586/107/1 587/110/1 588/112/1
f 589/111/1 590/107/1 591/110/1 592/112/1
f 593/111/1 594/107/1 595/110/1 596/112/1
f 597/111/1 598/107/1 599/110/1 600/112/1
f 601/113/1 602/114/1 603/103/1 604/102/1
f 605/114/1 606/115/1 607/104/1 608/103/1
f 609/104/1 610/105/1 611/106/1 612/75/1
f 613/111/1 614/107/1 615/110/1 616/112/1
f 617/107/1 618/108/1 619/109/1 620/110/1
f 621/111/1 622/107/1 623/110/1 624/112/1
f 625/107/1 626/108/1 627/109/1 628/110/1
f 629/111/1 630/107/1 631/110/1 632/112/1
f 633/107/1 634/108/1 635/109/1 636/110/1
f 637/117/1 638/118/1 639/108/1 640/107/1
f 641/107/1 642/108/1 643/109/1 644/110/1
f 645/107/1 646/108/1 647/109/1 648/110/1
f 649/111/1 650/107/1 651/110/1 652/112/1
f 653/107/1 654/108/1 655/109/1 656/110/1
f 657/107/1 658/108/1 659/109/1 660/110/1
f 661/120/1 662/121/1 663/114/1 664/113/1
f 665/121/1 666/122/1 667/115/1 668/114/1
f 669/115/1 670/116/1 671/105/1 672/104/1
f 673/111/1 674/107/1 675/110/1 676/112/1
f 677/107/1 678/108/1 679/109/1 680/110/1
f 681/111/1 682/107/1 683/110/1 684/112/1
f 685/107/1 686/108/1 687/109/1 688/110/1
f 689/111/1 690/107/1 691/110/1 692/112/1
f 693/107/1 694/108/1 695/109/1 696/110/1
f 697/119/1 698/117/1 699/107/1 700/111/1
f 701/117/1 702/118/1 703/108/1 704/107/1
f 705/111/1 706/107/1 707/110/1 708/112/1
f 709/111/1 710/107/1 711/110/1 712/112/1
f 713/107/1 714/108/1 715/109/1 716/110/1
f 717/111/1 718/107/1 719/110/1 720/112/1
f 721/124/1 722/125/1 723/126/1 724/127/1
f 725/125/1 726/128/1 727/129/1 728/126/1
f 729/75/1 730/106/1 731/76/1 732/70/1
f 733/111/1 734/107/1 735/110/1 736/112/1
f 737/111/1 738/107/1 739/110/1 740/112/1
f 741/111/1 742/107/1 743/110/1 744/112/1
f 745/107/1 746/108/1 747/109/1 748/110/1
f 749/111/1 750/107/1 751/110/1 752/112/1
f 753/107/1 754/108/1 755/109/1 756/110/1
f 757/111/1 758/107/1 759/110/1 760/112/1
f 761/107/1 762/108/1 763/109/1 764/110/1
f 765/130/1 766/131/1 767/132/1 768/133/1
f 769/131/1 770/134/1 771/135/1 772/132/1
f 773/136/1 774/131/1 775/130/1 776/137/1
f 777/131/1 778/132/1 779/133/1 780/130/1
f 781/138/1 782/139/1 783/125/1 784/124/1
f 785/139/1 786/140/1 787/128/1 788/125/1
f 789/75/1 790/106/1 791/76/1 792/70/1
f 793/111/1 794/107/1 795/110/1 796/112/1
f 797/119/1 798/117/1 799/107/1 800/111/1
f 801/111/1 802/107/1 803/110/1 804/112/1
f 805/107/1 806/108/1 807/109/1 808/110/1
f 809/107/1 810/108/1 811/109/1 812/110/1
f 813/107/1 814/108/1 815/109/1 816/110/1
f 817/111/1 818/107/1 819/110/1 820/112/1
f 821/107/1 822/108/1 823/109/1 824/110/1
f 825/137/1 826/136/1 827/131/1 828/130/1
f 829/136/1 830/141/1 831/134/1 832/131/1
f 833/141/1 834/134/1 835/131/1 836/136/1
f 837/134/1 838/135/1 839/132/1 840/131/1
f 841/142/1 842/143/1 843/139/1 844/138/1
f 845/143/1 846/144/1 847/140/1 848/139/1
f 849/75/1 850/106/1 851/76/1 852/70/1
f 853/111/1 854/107/1 855/110/1 856/112/1
f 857/119/1 858/117/1 859/107/1 860/111/1
f 861/111/1 862/107/1 863/110/1 864/112/1
f 865/107/1 866/108/1 867/109/1 868/110/1
f 869/117/1 870/118/1 871/108/1 872/107/1
f 873/111/1 874/107/1 875/110/1 876/112/1
f 877/107/1 878/108/1 879/109/1 880/110/1
f 881/107/1 882/108/1 883/109/1 884/110/1
f 885/107/1 886/108/1 887/109/1 888/110/1
f 889/107/1 890/108/1 891/109/1 892/110/1
f 893/134/1 894/131/1 895/136/1 896/141/1
f 897/131/1 898/130/1 899/137/1 900/136/1

