# Tiled2Unity generated file. Do not modify by hand.
# Wavefront file for 'Rogue_mesh_0015.obj'

# Vertices (Count = 1024)
v 0 -8 0
v -8 -8 0
v -8 0 0
v 0 0 0
v -8 -8 0
v -16 -8 0
v -16 0 0
v -8 0 0
v -16 -8 0
v -24 -8 0
v -24 0 0
v -16 0 0
v -24 -8 0
v -32 -8 0
v -32 0 0
v -24 0 0
v -32 -8 0
v -40 -8 0
v -40 0 0
v -32 0 0
v -40 -8 0
v -48 -8 0
v -48 0 0
v -40 0 0
v -48 -8 0
v -56 -8 0
v -56 0 0
v -48 0 0
v -56 -8 0
v -64 -8 0
v -64 0 0
v -56 0 0
v -64 -8 0
v -72 -8 0
v -72 0 0
v -64 0 0
v -72 -8 0
v -80 -8 0
v -80 0 0
v -72 0 0
v -80 -8 0
v -88 -8 0
v -88 0 0
v -80 0 0
v -88 -8 0
v -96 -8 0
v -96 0 0
v -88 0 0
v -96 -8 0
v -104 -8 0
v -104 0 0
v -96 0 0
v -104 -8 0
v -112 -8 0
v -112 0 0
v -104 0 0
v -112 -8 0
v -120 -8 0
v -120 0 0
v -112 0 0
v -120 -8 0
v -128 -8 0
v -128 0 0
v -120 0 0
v 0 -16 0
v -8 -16 0
v -8 -8 0
v 0 -8 0
v -8 -16 0
v -16 -16 0
v -16 -8 0
v -8 -8 0
v -16 -16 0
v -24 -16 0
v -24 -8 0
v -16 -8 0
v -24 -16 0
v -32 -16 0
v -32 -8 0
v -24 -8 0
v -32 -16 0
v -40 -16 0
v -40 -8 0
v -32 -8 0
v -40 -16 0
v -48 -16 0
v -48 -8 0
v -40 -8 0
v -48 -16 0
v -56 -16 0
v -56 -8 0
v -48 -8 0
v -56 -16 0
v -64 -16 0
v -64 -8 0
v -56 -8 0
v -64 -16 0
v -72 -16 0
v -72 -8 0
v -64 -8 0
v -72 -16 0
v -80 -16 0
v -80 -8 0
v -72 -8 0
v -80 -16 0
v -88 -16 0
v -88 -8 0
v -80 -8 0
v -88 -16 0
v -96 -16 0
v -96 -8 0
v -88 -8 0
v -96 -16 0
v -104 -16 0
v -104 -8 0
v -96 -8 0
v -104 -16 0
v -112 -16 0
v -112 -8 0
v -104 -8 0
v -112 -16 0
v -120 -16 0
v -120 -8 0
v -112 -8 0
v -120 -16 0
v -128 -16 0
v -128 -8 0
v -120 -8 0
v 0 -24 0
v -8 -24 0
v -8 -16 0
v 0 -16 0
v -8 -24 0
v -16 -24 0
v -16 -16 0
v -8 -16 0
v -16 -24 0
v -24 -24 0
v -24 -16 0
v -16 -16 0
v -24 -24 0
v -32 -24 0
v -32 -16 0
v -24 -16 0
v -32 -24 0
v -40 -24 0
v -40 -16 0
v -32 -16 0
v -40 -24 0
v -48 -24 0
v -48 -16 0
v -40 -16 0
v -48 -24 0
v -56 -24 0
v -56 -16 0
v -48 -16 0
v -56 -24 0
v -64 -24 0
v -64 -16 0
v -56 -16 0
v -64 -24 0
v -72 -24 0
v -72 -16 0
v -64 -16 0
v -72 -24 0
v -80 -24 0
v -80 -16 0
v -72 -16 0
v -80 -24 0
v -88 -24 0
v -88 -16 0
v -80 -16 0
v -88 -24 0
v -96 -24 0
v -96 -16 0
v -88 -16 0
v -96 -24 0
v -104 -24 0
v -104 -16 0
v -96 -16 0
v -104 -24 0
v -112 -24 0
v -112 -16 0
v -104 -16 0
v -112 -24 0
v -120 -24 0
v -120 -16 0
v -112 -16 0
v -120 -24 0
v -128 -24 0
v -128 -16 0
v -120 -16 0
v 0 -32 0
v -8 -32 0
v -8 -24 0
v 0 -24 0
v -8 -32 0
v -16 -32 0
v -16 -24 0
v -8 -24 0
v -16 -32 0
v -24 -32 0
v -24 -24 0
v -16 -24 0
v -24 -32 0
v -32 -32 0
v -32 -24 0
v -24 -24 0
v -32 -32 0
v -40 -32 0
v -40 -24 0
v -32 -24 0
v -40 -32 0
v -48 -32 0
v -48 -24 0
v -40 -24 0
v -48 -32 0
v -56 -32 0
v -56 -24 0
v -48 -24 0
v -56 -32 0
v -64 -32 0
v -64 -24 0
v -56 -24 0
v -64 -32 0
v -72 -32 0
v -72 -24 0
v -64 -24 0
v -72 -32 0
v -80 -32 0
v -80 -24 0
v -72 -24 0
v -80 -32 0
v -88 -32 0
v -88 -24 0
v -80 -24 0
v -88 -32 0
v -96 -32 0
v -96 -24 0
v -88 -24 0
v -96 -32 0
v -104 -32 0
v -104 -24 0
v -96 -24 0
v -104 -32 0
v -112 -32 0
v -112 -24 0
v -104 -24 0
v -112 -32 0
v -120 -32 0
v -120 -24 0
v -112 -24 0
v -120 -32 0
v -128 -32 0
v -128 -24 0
v -120 -24 0
v 0 -40 0
v -8 -40 0
v -8 -32 0
v 0 -32 0
v -8 -40 0
v -16 -40 0
v -16 -32 0
v -8 -32 0
v -16 -40 0
v -24 -40 0
v -24 -32 0
v -16 -32 0
v -24 -40 0
v -32 -40 0
v -32 -32 0
v -24 -32 0
v -32 -40 0
v -40 -40 0
v -40 -32 0
v -32 -32 0
v -40 -40 0
v -48 -40 0
v -48 -32 0
v -40 -32 0
v -48 -40 0
v -56 -40 0
v -56 -32 0
v -48 -32 0
v -56 -40 0
v -64 -40 0
v -64 -32 0
v -56 -32 0
v -64 -40 0
v -72 -40 0
v -72 -32 0
v -64 -32 0
v -72 -40 0
v -80 -40 0
v -80 -32 0
v -72 -32 0
v -80 -40 0
v -88 -40 0
v -88 -32 0
v -80 -32 0
v -88 -40 0
v -96 -40 0
v -96 -32 0
v -88 -32 0
v -96 -40 0
v -104 -40 0
v -104 -32 0
v -96 -32 0
v -104 -40 0
v -112 -40 0
v -112 -32 0
v -104 -32 0
v -112 -40 0
v -120 -40 0
v -120 -32 0
v -112 -32 0
v -120 -40 0
v -128 -40 0
v -128 -32 0
v -120 -32 0
v 0 -48 0
v -8 -48 0
v -8 -40 0
v 0 -40 0
v -8 -48 0
v -16 -48 0
v -16 -40 0
v -8 -40 0
v -16 -48 0
v -24 -48 0
v -24 -40 0
v -16 -40 0
v -24 -48 0
v -32 -48 0
v -32 -40 0
v -24 -40 0
v -32 -48 0
v -40 -48 0
v -40 -40 0
v -32 -40 0
v -40 -48 0
v -48 -48 0
v -48 -40 0
v -40 -40 0
v -48 -48 0
v -56 -48 0
v -56 -40 0
v -48 -40 0
v -56 -48 0
v -64 -48 0
v -64 -40 0
v -56 -40 0
v -64 -48 0
v -72 -48 0
v -72 -40 0
v -64 -40 0
v -72 -48 0
v -80 -48 0
v -80 -40 0
v -72 -40 0
v -80 -48 0
v -88 -48 0
v -88 -40 0
v -80 -40 0
v -88 -48 0
v -96 -48 0
v -96 -40 0
v -88 -40 0
v -96 -48 0
v -104 -48 0
v -104 -40 0
v -96 -40 0
v -104 -48 0
v -112 -48 0
v -112 -40 0
v -104 -40 0
v -112 -48 0
v -120 -48 0
v -120 -40 0
v -112 -40 0
v -120 -48 0
v -128 -48 0
v -128 -40 0
v -120 -40 0
v 0 -56 0
v -8 -56 0
v -8 -48 0
v 0 -48 0
v -8 -56 0
v -16 -56 0
v -16 -48 0
v -8 -48 0
v -16 -56 0
v -24 -56 0
v -24 -48 0
v -16 -48 0
v -24 -56 0
v -32 -56 0
v -32 -48 0
v -24 -48 0
v -32 -56 0
v -40 -56 0
v -40 -48 0
v -32 -48 0
v -40 -56 0
v -48 -56 0
v -48 -48 0
v -40 -48 0
v -48 -56 0
v -56 -56 0
v -56 -48 0
v -48 -48 0
v -56 -56 0
v -64 -56 0
v -64 -48 0
v -56 -48 0
v -64 -56 0
v -72 -56 0
v -72 -48 0
v -64 -48 0
v -72 -56 0
v -80 -56 0
v -80 -48 0
v -72 -48 0
v -80 -56 0
v -88 -56 0
v -88 -48 0
v -80 -48 0
v -88 -56 0
v -96 -56 0
v -96 -48 0
v -88 -48 0
v -96 -56 0
v -104 -56 0
v -104 -48 0
v -96 -48 0
v -104 -56 0
v -112 -56 0
v -112 -48 0
v -104 -48 0
v -112 -56 0
v -120 -56 0
v -120 -48 0
v -112 -48 0
v -120 -56 0
v -128 -56 0
v -128 -48 0
v -120 -48 0
v 0 -64 0
v -8 -64 0
v -8 -56 0
v 0 -56 0
v -8 -64 0
v -16 -64 0
v -16 -56 0
v -8 -56 0
v -16 -64 0
v -24 -64 0
v -24 -56 0
v -16 -56 0
v -24 -64 0
v -32 -64 0
v -32 -56 0
v -24 -56 0
v -32 -64 0
v -40 -64 0
v -40 -56 0
v -32 -56 0
v -40 -64 0
v -48 -64 0
v -48 -56 0
v -40 -56 0
v -48 -64 0
v -56 -64 0
v -56 -56 0
v -48 -56 0
v -56 -64 0
v -64 -64 0
v -64 -56 0
v -56 -56 0
v -64 -64 0
v -72 -64 0
v -72 -56 0
v -64 -56 0
v -72 -64 0
v -80 -64 0
v -80 -56 0
v -72 -56 0
v -80 -64 0
v -88 -64 0
v -88 -56 0
v -80 -56 0
v -88 -64 0
v -96 -64 0
v -96 -56 0
v -88 -56 0
v -96 -64 0
v -104 -64 0
v -104 -56 0
v -96 -56 0
v -104 -64 0
v -112 -64 0
v -112 -56 0
v -104 -56 0
v -112 -64 0
v -120 -64 0
v -120 -56 0
v -112 -56 0
v -120 -64 0
v -128 -64 0
v -128 -56 0
v -120 -56 0
v 0 -72 0
v -8 -72 0
v -8 -64 0
v 0 -64 0
v -8 -72 0
v -16 -72 0
v -16 -64 0
v -8 -64 0
v -16 -72 0
v -24 -72 0
v -24 -64 0
v -16 -64 0
v -24 -72 0
v -32 -72 0
v -32 -64 0
v -24 -64 0
v -32 -72 0
v -40 -72 0
v -40 -64 0
v -32 -64 0
v -40 -72 0
v -48 -72 0
v -48 -64 0
v -40 -64 0
v -48 -72 0
v -56 -72 0
v -56 -64 0
v -48 -64 0
v -56 -72 0
v -64 -72 0
v -64 -64 0
v -56 -64 0
v -64 -72 0
v -72 -72 0
v -72 -64 0
v -64 -64 0
v -72 -72 0
v -80 -72 0
v -80 -64 0
v -72 -64 0
v -80 -72 0
v -88 -72 0
v -88 -64 0
v -80 -64 0
v -88 -72 0
v -96 -72 0
v -96 -64 0
v -88 -64 0
v -96 -72 0
v -104 -72 0
v -104 -64 0
v -96 -64 0
v -104 -72 0
v -112 -72 0
v -112 -64 0
v -104 -64 0
v -112 -72 0
v -120 -72 0
v -120 -64 0
v -112 -64 0
v -120 -72 0
v -128 -72 0
v -128 -64 0
v -120 -64 0
v 0 -80 0
v -8 -80 0
v -8 -72 0
v 0 -72 0
v -8 -80 0
v -16 -80 0
v -16 -72 0
v -8 -72 0
v -16 -80 0
v -24 -80 0
v -24 -72 0
v -16 -72 0
v -24 -80 0
v -32 -80 0
v -32 -72 0
v -24 -72 0
v -32 -80 0
v -40 -80 0
v -40 -72 0
v -32 -72 0
v -40 -80 0
v -48 -80 0
v -48 -72 0
v -40 -72 0
v -48 -80 0
v -56 -80 0
v -56 -72 0
v -48 -72 0
v -56 -80 0
v -64 -80 0
v -64 -72 0
v -56 -72 0
v -64 -80 0
v -72 -80 0
v -72 -72 0
v -64 -72 0
v -72 -80 0
v -80 -80 0
v -80 -72 0
v -72 -72 0
v -80 -80 0
v -88 -80 0
v -88 -72 0
v -80 -72 0
v -88 -80 0
v -96 -80 0
v -96 -72 0
v -88 -72 0
v -96 -80 0
v -104 -80 0
v -104 -72 0
v -96 -72 0
v -104 -80 0
v -112 -80 0
v -112 -72 0
v -104 -72 0
v -112 -80 0
v -120 -80 0
v -120 -72 0
v -112 -72 0
v -120 -80 0
v -128 -80 0
v -128 -72 0
v -120 -72 0
v 0 -88 0
v -8 -88 0
v -8 -80 0
v 0 -80 0
v -8 -88 0
v -16 -88 0
v -16 -80 0
v -8 -80 0
v -16 -88 0
v -24 -88 0
v -24 -80 0
v -16 -80 0
v -24 -88 0
v -32 -88 0
v -32 -80 0
v -24 -80 0
v -32 -88 0
v -40 -88 0
v -40 -80 0
v -32 -80 0
v -40 -88 0
v -48 -88 0
v -48 -80 0
v -40 -80 0
v -48 -88 0
v -56 -88 0
v -56 -80 0
v -48 -80 0
v -56 -88 0
v -64 -88 0
v -64 -80 0
v -56 -80 0
v -64 -88 0
v -72 -88 0
v -72 -80 0
v -64 -80 0
v -72 -88 0
v -80 -88 0
v -80 -80 0
v -72 -80 0
v -80 -88 0
v -88 -88 0
v -88 -80 0
v -80 -80 0
v -88 -88 0
v -96 -88 0
v -96 -80 0
v -88 -80 0
v -96 -88 0
v -104 -88 0
v -104 -80 0
v -96 -80 0
v -104 -88 0
v -112 -88 0
v -112 -80 0
v -104 -80 0
v -112 -88 0
v -120 -88 0
v -120 -80 0
v -112 -80 0
v -120 -88 0
v -128 -88 0
v -128 -80 0
v -120 -80 0
v 0 -96 0
v -8 -96 0
v -8 -88 0
v 0 -88 0
v -8 -96 0
v -16 -96 0
v -16 -88 0
v -8 -88 0
v -16 -96 0
v -24 -96 0
v -24 -88 0
v -16 -88 0
v -24 -96 0
v -32 -96 0
v -32 -88 0
v -24 -88 0
v -32 -96 0
v -40 -96 0
v -40 -88 0
v -32 -88 0
v -40 -96 0
v -48 -96 0
v -48 -88 0
v -40 -88 0
v -48 -96 0
v -56 -96 0
v -56 -88 0
v -48 -88 0
v -56 -96 0
v -64 -96 0
v -64 -88 0
v -56 -88 0
v -64 -96 0
v -72 -96 0
v -72 -88 0
v -64 -88 0
v -72 -96 0
v -80 -96 0
v -80 -88 0
v -72 -88 0
v -80 -96 0
v -88 -96 0
v -88 -88 0
v -80 -88 0
v -88 -96 0
v -96 -96 0
v -96 -88 0
v -88 -88 0
v -96 -96 0
v -104 -96 0
v -104 -88 0
v -96 -88 0
v -104 -96 0
v -112 -96 0
v -112 -88 0
v -104 -88 0
v -112 -96 0
v -120 -96 0
v -120 -88 0
v -112 -88 0
v -120 -96 0
v -128 -96 0
v -128 -88 0
v -120 -88 0
v 0 -104 0
v -8 -104 0
v -8 -96 0
v 0 -96 0
v -8 -104 0
v -16 -104 0
v -16 -96 0
v -8 -96 0
v -16 -104 0
v -24 -104 0
v -24 -96 0
v -16 -96 0
v -24 -104 0
v -32 -104 0
v -32 -96 0
v -24 -96 0
v -32 -104 0
v -40 -104 0
v -40 -96 0
v -32 -96 0
v -40 -104 0
v -48 -104 0
v -48 -96 0
v -40 -96 0
v -48 -104 0
v -56 -104 0
v -56 -96 0
v -48 -96 0
v -56 -104 0
v -64 -104 0
v -64 -96 0
v -56 -96 0
v -64 -104 0
v -72 -104 0
v -72 -96 0
v -64 -96 0
v -72 -104 0
v -80 -104 0
v -80 -96 0
v -72 -96 0
v -80 -104 0
v -88 -104 0
v -88 -96 0
v -80 -96 0
v -88 -104 0
v -96 -104 0
v -96 -96 0
v -88 -96 0
v -96 -104 0
v -104 -104 0
v -104 -96 0
v -96 -96 0
v -104 -104 0
v -112 -104 0
v -112 -96 0
v -104 -96 0
v -112 -104 0
v -120 -104 0
v -120 -96 0
v -112 -96 0
v -120 -104 0
v -128 -104 0
v -128 -96 0
v -120 -96 0
v 0 -112 0
v -8 -112 0
v -8 -104 0
v 0 -104 0
v -8 -112 0
v -16 -112 0
v -16 -104 0
v -8 -104 0
v -16 -112 0
v -24 -112 0
v -24 -104 0
v -16 -104 0
v -24 -112 0
v -32 -112 0
v -32 -104 0
v -24 -104 0
v -32 -112 0
v -40 -112 0
v -40 -104 0
v -32 -104 0
v -40 -112 0
v -48 -112 0
v -48 -104 0
v -40 -104 0
v -48 -112 0
v -56 -112 0
v -56 -104 0
v -48 -104 0
v -56 -112 0
v -64 -112 0
v -64 -104 0
v -56 -104 0
v -64 -112 0
v -72 -112 0
v -72 -104 0
v -64 -104 0
v -72 -112 0
v -80 -112 0
v -80 -104 0
v -72 -104 0
v -80 -112 0
v -88 -112 0
v -88 -104 0
v -80 -104 0
v -88 -112 0
v -96 -112 0
v -96 -104 0
v -88 -104 0
v -96 -112 0
v -104 -112 0
v -104 -104 0
v -96 -104 0
v -104 -112 0
v -112 -112 0
v -112 -104 0
v -104 -104 0
v -112 -112 0
v -120 -112 0
v -120 -104 0
v -112 -104 0
v -120 -112 0
v -128 -112 0
v -128 -104 0
v -120 -104 0
v 0 -120 0
v -8 -120 0
v -8 -112 0
v 0 -112 0
v -8 -120 0
v -16 -120 0
v -16 -112 0
v -8 -112 0
v -16 -120 0
v -24 -120 0
v -24 -112 0
v -16 -112 0
v -24 -120 0
v -32 -120 0
v -32 -112 0
v -24 -112 0
v -32 -120 0
v -40 -120 0
v -40 -112 0
v -32 -112 0
v -40 -120 0
v -48 -120 0
v -48 -112 0
v -40 -112 0
v -48 -120 0
v -56 -120 0
v -56 -112 0
v -48 -112 0
v -56 -120 0
v -64 -120 0
v -64 -112 0
v -56 -112 0
v -64 -120 0
v -72 -120 0
v -72 -112 0
v -64 -112 0
v -72 -120 0
v -80 -120 0
v -80 -112 0
v -72 -112 0
v -80 -120 0
v -88 -120 0
v -88 -112 0
v -80 -112 0
v -88 -120 0
v -96 -120 0
v -96 -112 0
v -88 -112 0
v -96 -120 0
v -104 -120 0
v -104 -112 0
v -96 -112 0
v -104 -120 0
v -112 -120 0
v -112 -112 0
v -104 -112 0
v -112 -120 0
v -120 -120 0
v -120 -112 0
v -112 -112 0
v -120 -120 0
v -128 -120 0
v -128 -112 0
v -120 -112 0
v 0 -128 0
v -8 -128 0
v -8 -120 0
v 0 -120 0
v -8 -128 0
v -16 -128 0
v -16 -120 0
v -8 -120 0
v -16 -128 0
v -24 -128 0
v -24 -120 0
v -16 -120 0
v -24 -128 0
v -32 -128 0
v -32 -120 0
v -24 -120 0
v -32 -128 0
v -40 -128 0
v -40 -120 0
v -32 -120 0
v -40 -128 0
v -48 -128 0
v -48 -120 0
v -40 -120 0
v -48 -128 0
v -56 -128 0
v -56 -120 0
v -48 -120 0
v -56 -128 0
v -64 -128 0
v -64 -120 0
v -56 -120 0
v -64 -128 0
v -72 -128 0
v -72 -120 0
v -64 -120 0
v -72 -128 0
v -80 -128 0
v -80 -120 0
v -72 -120 0
v -80 -128 0
v -88 -128 0
v -88 -120 0
v -80 -120 0
v -88 -128 0
v -96 -128 0
v -96 -120 0
v -88 -120 0
v -96 -128 0
v -104 -128 0
v -104 -120 0
v -96 -120 0
v -104 -128 0
v -112 -128 0
v -112 -120 0
v -104 -120 0
v -112 -128 0
v -120 -128 0
v -120 -120 0
v -112 -120 0
v -120 -128 0
v -128 -128 0
v -128 -120 0
v -120 -120 0

# Texture cooridinates (Count = 123)
vt 0.4411765 0.8979592
vt 0.4558823 0.8979592
vt 0.4558823 0.9081632
vt 0.4411765 0.9081632
vt 0.4411765 0.8877551
vt 0.4558823 0.8877551
vt 0.4264706 0.8877551
vt 0.4264706 0.8979592
vt 0.6176471 0.8979592
vt 0.6323529 0.8979592
vt 0.6323529 0.9081632
vt 0.6176471 0.9081632
vt 0.6470588 0.8979592
vt 0.6470588 0.9081632
vt 0.6323529 0.9183673
vt 0.6470588 0.9183673
vt 0.4264706 0.9081632
vt 0.6176471 0.9183673
vt 0.5588235 0.7244898
vt 0.5735294 0.7244898
vt 0.5735294 0.7346939
vt 0.5588235 0.7346939
vt 0.5882353 0.7244898
vt 0.5882353 0.7346939
vt 0.5588235 0.7142857
vt 0.5735294 0.7142857
vt 0.5882353 0.7142857
vt 0.4411765 0.9183673
vt 0.4264706 0.9183673
vt 0.4705882 0.7244898
vt 0.4852941 0.7244898
vt 0.4852941 0.7346939
vt 0.4705882 0.7346939
vt 0.5 0.7244898
vt 0.5 0.7346939
vt 0.4705882 0.7142857
vt 0.4852941 0.7142857
vt 0.5 0.7142857
vt 0.2941177 0.6836735
vt 0.3088235 0.6836735
vt 0.3088235 0.6938776
vt 0.2941177 0.6938776
vt 0.3235294 0.6836735
vt 0.3235294 0.6938776
vt 0.3382353 0.6836735
vt 0.3382353 0.6938776
vt 0.4411765 0.7857143
vt 0.4558823 0.7857143
vt 0.4558823 0.7959183
vt 0.4411765 0.7959183
vt 0.3529412 0.6836735
vt 0.3676471 0.6836735
vt 0.3676471 0.6938776
vt 0.3529412 0.6938776
vt 0.2352941 0.6836735
vt 0.25 0.6836735
vt 0.25 0.6938776
vt 0.2352941 0.6938776
vt 0.4852941 0.7857143
vt 0.5 0.7857143
vt 0.5 0.7959183
vt 0.4852941 0.7959183
vt 0.6176471 0.7857143
vt 0.6323529 0.7857143
vt 0.6323529 0.7959183
vt 0.6176471 0.7959183
vt 0.2647059 0.6836735
vt 0.2794118 0.6836735
vt 0.2794118 0.6938776
vt 0.2647059 0.6938776
vt 0.6029412 0.7244898
vt 0.6029412 0.7346939
vt 0.6176471 0.7244898
vt 0.6176471 0.7346939
vt 0.2941177 0.6734694
vt 0.3088235 0.6734694
vt 0.3235294 0.6734694
vt 0.3382353 0.6734694
vt 0.3529412 0.6734694
vt 0.3676471 0.6734694
vt 0.2352941 0.6734694
vt 0.25 0.6734694
vt 0.4852941 0.7755102
vt 0.5 0.7755102
vt 0.4705882 0.7755102
vt 0.4705882 0.7857143
vt 0.2647059 0.6734694
vt 0.2794118 0.6734694
vt 0.6029412 0.7142857
vt 0.6176471 0.7142857
vt 0.2941177 0.6632653
vt 0.3088235 0.6632653
vt 0.3235294 0.6632653
vt 0.3382353 0.6632653
vt 0.8529412 0.8469388
vt 0.8676471 0.8469388
vt 0.8676471 0.8571429
vt 0.8529412 0.8571429
vt 0.3529412 0.6632653
vt 0.3676471 0.6632653
vt 0.2352941 0.6632653
vt 0.25 0.6632653
vt 0.2647059 0.6632653
vt 0.2794118 0.6632653
vt 0.5882353 0.7040817
vt 0.6029412 0.7040817
vt 0.6176471 0.7040817
vt 0.5588235 0.7040817
vt 0.5735294 0.7040817
vt 0.2941177 0.6530612
vt 0.3088235 0.6530612
vt 0.3235294 0.6530612
vt 0.3382353 0.6530612
vt 0.3529412 0.6530612
vt 0.2352941 0.6530612
vt 0.25 0.6530612
vt 0.5294118 0.7653061
vt 0.5441176 0.7653061
vt 0.5441176 0.7755102
vt 0.5294118 0.7755102
vt 0.5588235 0.7653061
vt 0.5588235 0.7755102
vt 0.2794118 0.6530612

# Normal
vn 0 0 -1

# Mesh description
g Rogue_mesh_0015

# Faces
f 1/1/1 2/2/1 3/3/1 4/4/1
f 5/1/1 6/2/1 7/3/1 8/4/1
f 9/5/1 10/6/1 11/2/1 12/1/1
f 13/7/1 14/5/1 15/1/1 16/8/1
f 17/5/1 18/6/1 19/2/1 20/1/1
f 21/7/1 22/5/1 23/1/1 24/8/1
f 25/7/1 26/5/1 27/1/1 28/8/1
f 29/5/1 30/6/1 31/2/1 32/1/1
f 33/7/1 34/5/1 35/1/1 36/8/1
f 37/9/1 38/10/1 39/11/1 40/12/1
f 41/10/1 42/13/1 43/14/1 44/11/1
f 45/7/1 46/5/1 47/1/1 48/8/1
f 49/7/1 50/5/1 51/1/1 52/8/1
f 53/5/1 54/6/1 55/2/1 56/1/1
f 57/5/1 58/6/1 59/2/1 60/1/1
f 61/5/1 62/6/1 63/2/1 64/1/1
f 65/5/1 66/6/1 67/2/1 68/1/1
f 69/5/1 70/6/1 71/2/1 72/1/1
f 73/1/1 74/2/1 75/3/1 76/4/1
f 77/1/1 78/2/1 79/3/1 80/4/1
f 81/1/1 82/2/1 83/3/1 84/4/1
f 85/1/1 86/2/1 87/3/1 88/4/1
f 89/1/1 90/2/1 91/3/1 92/4/1
f 93/1/1 94/2/1 95/3/1 96/4/1
f 97/1/1 98/2/1 99/3/1 100/4/1
f 101/15/1 102/11/1 103/14/1 104/16/1
f 105/11/1 106/10/1 107/13/1 108/14/1
f 109/5/1 110/6/1 111/2/1 112/1/1
f 113/7/1 114/5/1 115/1/1 116/8/1
f 117/7/1 118/5/1 119/1/1 120/8/1
f 121/5/1 122/6/1 123/2/1 124/1/1
f 125/8/1 126/1/1 127/4/1 128/17/1
f 129/5/1 130/6/1 131/2/1 132/1/1
f 133/5/1 134/6/1 135/2/1 136/1/1
f 137/5/1 138/6/1 139/2/1 140/1/1
f 141/5/1 142/6/1 143/2/1 144/1/1
f 145/5/1 146/6/1 147/2/1 148/1/1
f 149/5/1 150/6/1 151/2/1 152/1/1
f 153/5/1 154/6/1 155/2/1 156/1/1
f 157/1/1 158/2/1 159/3/1 160/4/1
f 161/1/1 162/2/1 163/3/1 164/4/1
f 165/18/1 166/12/1 167/11/1 168/15/1
f 169/12/1 170/9/1 171/10/1 172/11/1
f 173/1/1 174/2/1 175/3/1 176/4/1
f 177/1/1 178/2/1 179/3/1 180/4/1
f 181/8/1 182/1/1 183/4/1 184/17/1
f 185/1/1 186/2/1 187/3/1 188/4/1
f 189/8/1 190/1/1 191/4/1 192/17/1
f 193/8/1 194/1/1 195/4/1 196/17/1
f 197/8/1 198/1/1 199/4/1 200/17/1
f 201/8/1 202/1/1 203/4/1 204/17/1
f 205/8/1 206/1/1 207/4/1 208/17/1
f 209/8/1 210/1/1 211/4/1 212/17/1
f 213/8/1 214/1/1 215/4/1 216/17/1
f 217/7/1 218/5/1 219/1/1 220/8/1
f 221/5/1 222/6/1 223/2/1 224/1/1
f 225/5/1 226/6/1 227/2/1 228/1/1
f 229/8/1 230/1/1 231/4/1 232/17/1
f 233/1/1 234/2/1 235/3/1 236/4/1
f 237/1/1 238/2/1 239/3/1 240/4/1
f 241/5/1 242/6/1 243/2/1 244/1/1
f 245/8/1 246/1/1 247/4/1 248/17/1
f 249/8/1 250/1/1 251/4/1 252/17/1
f 253/7/1 254/5/1 255/1/1 256/8/1
f 257/7/1 258/5/1 259/1/1 260/8/1
f 261/7/1 262/5/1 263/1/1 264/8/1
f 265/7/1 266/5/1 267/1/1 268/8/1
f 269/7/1 270/5/1 271/1/1 272/8/1
f 273/7/1 274/5/1 275/1/1 276/8/1
f 277/7/1 278/5/1 279/1/1 280/8/1
f 281/7/1 282/5/1 283/1/1 284/8/1
f 285/7/1 286/5/1 287/1/1 288/8/1
f 289/8/1 290/1/1 291/4/1 292/17/1
f 293/8/1 294/1/1 295/4/1 296/17/1
f 297/8/1 298/1/1 299/4/1 300/17/1
f 301/8/1 302/1/1 303/4/1 304/17/1
f 305/8/1 306/1/1 307/4/1 308/17/1
f 309/7/1 310/5/1 311/1/1 312/8/1
f 313/7/1 314/5/1 315/1/1 316/8/1
f 317/5/1 318/6/1 319/2/1 320/1/1
f 321/5/1 322/6/1 323/2/1 324/1/1
f 325/5/1 326/6/1 327/2/1 328/1/1
f 329/5/1 330/6/1 331/2/1 332/1/1
f 333/5/1 334/6/1 335/2/1 336/1/1
f 337/5/1 338/6/1 339/2/1 340/1/1
f 341/5/1 342/6/1 343/2/1 344/1/1
f 345/5/1 346/6/1 347/2/1 348/1/1
f 349/1/1 350/2/1 351/3/1 352/4/1
f 353/7/1 354/5/1 355/1/1 356/8/1
f 357/7/1 358/5/1 359/1/1 360/8/1
f 361/7/1 362/5/1 363/1/1 364/8/1
f 365/7/1 366/5/1 367/1/1 368/8/1
f 369/7/1 370/5/1 371/1/1 372/8/1
f 373/7/1 374/5/1 375/1/1 376/8/1
f 377/8/1 378/1/1 379/4/1 380/17/1
f 381/8/1 382/1/1 383/4/1 384/17/1
f 385/8/1 386/1/1 387/4/1 388/17/1
f 389/8/1 390/1/1 391/4/1 392/17/1
f 393/8/1 394/1/1 395/4/1 396/17/1
f 397/8/1 398/1/1 399/4/1 400/17/1
f 401/8/1 402/1/1 403/4/1 404/17/1
f 405/7/1 406/5/1 407/1/1 408/8/1
f 409/5/1 410/6/1 411/2/1 412/1/1
f 413/5/1 414/6/1 415/2/1 416/1/1
f 417/5/1 418/6/1 419/2/1 420/1/1
f 421/5/1 422/6/1 423/2/1 424/1/1
f 425/5/1 426/6/1 427/2/1 428/1/1
f 429/5/1 430/6/1 431/2/1 432/1/1
f 433/5/1 434/6/1 435/2/1 436/1/1
f 437/8/1 438/1/1 439/4/1 440/17/1
f 441/7/1 442/5/1 443/1/1 444/8/1
f 445/7/1 446/5/1 447/1/1 448/8/1
f 449/7/1 450/5/1 451/1/1 452/8/1
f 453/7/1 454/5/1 455/1/1 456/8/1
f 457/7/1 458/5/1 459/1/1 460/8/1
f 461/7/1 462/5/1 463/1/1 464/8/1
f 465/7/1 466/5/1 467/1/1 468/8/1
f 469/7/1 470/5/1 471/1/1 472/8/1
f 473/7/1 474/5/1 475/1/1 476/8/1
f 477/7/1 478/5/1 479/1/1 480/8/1
f 481/7/1 482/5/1 483/1/1 484/8/1
f 485/7/1 486/5/1 487/1/1 488/8/1
f 489/8/1 490/1/1 491/4/1 492/17/1
f 493/8/1 494/1/1 495/4/1 496/17/1
f 497/8/1 498/1/1 499/4/1 500/17/1
f 501/7/1 502/5/1 503/1/1 504/8/1
f 505/7/1 506/5/1 507/1/1 508/8/1
f 509/7/1 510/5/1 511/1/1 512/8/1
f 513/5/1 514/6/1 515/2/1 516/1/1
f 517/5/1 518/6/1 519/2/1 520/1/1
f 521/5/1 522/6/1 523/2/1 524/1/1
f 525/1/1 526/2/1 527/3/1 528/4/1
f 529/1/1 530/2/1 531/3/1 532/4/1
f 533/8/1 534/1/1 535/4/1 536/17/1
f 537/8/1 538/1/1 539/4/1 540/17/1
f 541/8/1 542/1/1 543/4/1 544/17/1
f 545/8/1 546/1/1 547/4/1 548/17/1
f 549/8/1 550/1/1 551/4/1 552/17/1
f 553/7/1 554/5/1 555/1/1 556/8/1
f 557/7/1 558/5/1 559/1/1 560/8/1
f 561/7/1 562/5/1 563/1/1 564/8/1
f 565/5/1 566/6/1 567/2/1 568/1/1
f 569/5/1 570/6/1 571/2/1 572/1/1
f 573/5/1 574/6/1 575/2/1 576/1/1
f 577/7/1 578/5/1 579/1/1 580/8/1
f 581/19/1 582/20/1 583/21/1 584/22/1
f 585/19/1 586/20/1 587/21/1 588/22/1
f 589/20/1 590/23/1 591/24/1 592/21/1
f 593/5/1 594/6/1 595/2/1 596/1/1
f 597/1/1 598/2/1 599/3/1 600/4/1
f 601/1/1 602/2/1 603/3/1 604/4/1
f 605/1/1 606/2/1 607/3/1 608/4/1
f 609/1/1 610/2/1 611/3/1 612/4/1
f 613/1/1 614/2/1 615/3/1 616/4/1
f 617/1/1 618/2/1 619/3/1 620/4/1
f 621/1/1 622/2/1 623/3/1 624/4/1
f 625/1/1 626/2/1 627/3/1 628/4/1
f 629/7/1 630/5/1 631/1/1 632/8/1
f 633/5/1 634/6/1 635/2/1 636/1/1
f 637/5/1 638/6/1 639/2/1 640/1/1
f 641/1/1 642/2/1 643/3/1 644/4/1
f 645/25/1 646/26/1 647/20/1 648/19/1
f 649/25/1 650/26/1 651/20/1 652/19/1
f 653/26/1 654/27/1 655/23/1 656/20/1
f 657/8/1 658/1/1 659/4/1 660/17/1
f 661/1/1 662/2/1 663/3/1 664/4/1
f 665/5/1 666/6/1 667/2/1 668/1/1
f 669/5/1 670/6/1 671/2/1 672/1/1
f 673/5/1 674/6/1 675/2/1 676/1/1
f 677/5/1 678/6/1 679/2/1 680/1/1
f 681/5/1 682/6/1 683/2/1 684/1/1
f 685/5/1 686/6/1 687/2/1 688/1/1
f 689/5/1 690/6/1 691/2/1 692/1/1
f 693/8/1 694/1/1 695/4/1 696/17/1
f 697/8/1 698/1/1 699/4/1 700/17/1
f 701/8/1 702/1/1 703/4/1 704/17/1
f 705/17/1 706/4/1 707/28/1 708/29/1
f 709/30/1 710/31/1 711/32/1 712/33/1
f 713/31/1 714/34/1 715/35/1 716/32/1
f 717/19/1 718/20/1 719/21/1 720/22/1
f 721/19/1 722/20/1 723/21/1 724/22/1
f 725/20/1 726/23/1 727/24/1 728/21/1
f 729/8/1 730/1/1 731/4/1 732/17/1
f 733/8/1 734/1/1 735/4/1 736/17/1
f 737/8/1 738/1/1 739/4/1 740/17/1
f 741/8/1 742/1/1 743/4/1 744/17/1
f 745/8/1 746/1/1 747/4/1 748/17/1
f 749/8/1 750/1/1 751/4/1 752/17/1
f 753/1/1 754/2/1 755/3/1 756/4/1
f 757/7/1 758/5/1 759/1/1 760/8/1
f 761/7/1 762/5/1 763/1/1 764/8/1
f 765/7/1 766/5/1 767/1/1 768/8/1
f 769/8/1 770/1/1 771/4/1 772/17/1
f 773/36/1 774/37/1 775/31/1 776/30/1
f 777/37/1 778/38/1 779/34/1 780/31/1
f 781/25/1 782/26/1 783/20/1 784/19/1
f 785/25/1 786/26/1 787/20/1 788/19/1
f 789/26/1 790/27/1 791/23/1 792/20/1
f 793/39/1 794/40/1 795/41/1 796/42/1
f 797/40/1 798/43/1 799/44/1 800/41/1
f 801/43/1 802/45/1 803/46/1 804/44/1
f 805/47/1 806/48/1 807/49/1 808/50/1
f 809/51/1 810/52/1 811/53/1 812/54/1
f 813/55/1 814/56/1 815/57/1 816/58/1
f 817/59/1 818/60/1 819/61/1 820/62/1
f 821/63/1 822/64/1 823/65/1 824/66/1
f 825/67/1 826/68/1 827/69/1 828/70/1
f 829/63/1 830/64/1 831/65/1 832/66/1
f 833/23/1 834/71/1 835/72/1 836/24/1
f 837/71/1 838/73/1 839/74/1 840/72/1
f 841/19/1 842/20/1 843/21/1 844/22/1
f 845/20/1 846/23/1 847/24/1 848/21/1
f 849/23/1 850/71/1 851/72/1 852/24/1
f 853/71/1 854/73/1 855/74/1 856/72/1
f 857/75/1 858/76/1 859/40/1 860/39/1
f 861/76/1 862/77/1 863/43/1 864/40/1
f 865/77/1 866/78/1 867/45/1 868/43/1
f 869/78/1 870/79/1 871/51/1 872/45/1
f 873/79/1 874/80/1 875/52/1 876/51/1
f 877/81/1 878/82/1 879/56/1 880/55/1
f 881/83/1 882/84/1 883/60/1 884/59/1
f 885/85/1 886/83/1 887/59/1 888/86/1
f 889/87/1 890/88/1 891/68/1 892/67/1
f 893/88/1 894/75/1 895/39/1 896/68/1
f 897/27/1 898/89/1 899/71/1 900/23/1
f 901/89/1 902/90/1 903/73/1 904/71/1
f 905/25/1 906/26/1 907/20/1 908/19/1
f 909/26/1 910/27/1 911/23/1 912/20/1
f 913/27/1 914/89/1 915/71/1 916/23/1
f 917/89/1 918/90/1 919/73/1 920/71/1
f 921/91/1 922/92/1 923/76/1 924/75/1
f 925/92/1 926/93/1 927/77/1 928/76/1
f 929/93/1 930/94/1 931/78/1 932/77/1
f 933/95/1 934/96/1 935/97/1 936/98/1
f 937/99/1 938/100/1 939/80/1 940/79/1
f 941/101/1 942/102/1 943/82/1 944/81/1
f 945/101/1 946/102/1 947/82/1 948/81/1
f 949/102/1 950/103/1 951/87/1 952/82/1
f 953/103/1 954/104/1 955/88/1 956/87/1
f 957/104/1 958/91/1 959/75/1 960/88/1
f 961/105/1 962/106/1 963/89/1 964/27/1
f 965/106/1 966/107/1 967/90/1 968/89/1
f 969/108/1 970/109/1 971/26/1 972/25/1
f 973/109/1 974/105/1 975/27/1 976/26/1
f 977/105/1 978/106/1 979/89/1 980/27/1
f 981/106/1 982/107/1 983/90/1 984/89/1
f 985/110/1 986/111/1 987/92/1 988/91/1
f 989/95/1 990/96/1 991/97/1 992/98/1
f 993/112/1 994/113/1 995/94/1 996/93/1
f 997/113/1 998/114/1 999/99/1 1000/94/1
f 1001/95/1 1002/96/1 1003/97/1 1004/98/1
f 1005/115/1 1006/116/1 1007/102/1 1008/101/1
f 1009/117/1 1010/118/1 1011/119/1 1012/120/1
f 1013/118/1 1014/121/1 1015/122/1 1016/119/1
f 1017/95/1 1018/96/1 1019/97/1 1020/98/1
f 1021/123/1 1022/110/1 1023/91/1 1024/104/1

