# Tiled2Unity generated file. Do not modify by hand.
# Wavefront file for 'Rogue_mesh_0020.obj'

# Vertices (Count = 12)
v 0 -8 0
v -8 -8 0
v -8 0 0
v 0 0 0
v -8 -8 0
v -16 -8 0
v -16 0 0
v -8 0 0
v -16 -8 0
v -24 -8 0
v -24 0 0
v -16 0 0

# Texture cooridinates (Count = 8)
vt 0.3529412 0.6530612
vt 0.3676471 0.6530612
vt 0.3676471 0.6632653
vt 0.3529412 0.6632653
vt 0.3823529 0.6530612
vt 0.3823529 0.6632653
vt 0.3970588 0.6530612
vt 0.3970588 0.6632653

# Normal
vn 0 0 -1

# Mesh description
g Rogue_mesh_0020

# Faces
f 1/1/1 2/2/1 3/3/1 4/4/1
f 5/2/1 6/5/1 7/6/1 8/3/1
f 9/5/1 10/7/1 11/8/1 12/6/1

