# Tiled2Unity generated file. Do not modify by hand.
# Wavefront file for 'Rogue_mesh_0006.obj'

# Vertices (Count = 1024)
v 0 -8 0
v -8 -8 0
v -8 0 0
v 0 0 0
v -8 -8 0
v -16 -8 0
v -16 0 0
v -8 0 0
v -16 -8 0
v -24 -8 0
v -24 0 0
v -16 0 0
v -24 -8 0
v -32 -8 0
v -32 0 0
v -24 0 0
v -32 -8 0
v -40 -8 0
v -40 0 0
v -32 0 0
v -40 -8 0
v -48 -8 0
v -48 0 0
v -40 0 0
v -48 -8 0
v -56 -8 0
v -56 0 0
v -48 0 0
v -56 -8 0
v -64 -8 0
v -64 0 0
v -56 0 0
v -64 -8 0
v -72 -8 0
v -72 0 0
v -64 0 0
v -72 -8 0
v -80 -8 0
v -80 0 0
v -72 0 0
v -80 -8 0
v -88 -8 0
v -88 0 0
v -80 0 0
v -88 -8 0
v -96 -8 0
v -96 0 0
v -88 0 0
v -96 -8 0
v -104 -8 0
v -104 0 0
v -96 0 0
v -104 -8 0
v -112 -8 0
v -112 0 0
v -104 0 0
v -112 -8 0
v -120 -8 0
v -120 0 0
v -112 0 0
v -120 -8 0
v -128 -8 0
v -128 0 0
v -120 0 0
v 0 -16 0
v -8 -16 0
v -8 -8 0
v 0 -8 0
v -8 -16 0
v -16 -16 0
v -16 -8 0
v -8 -8 0
v -16 -16 0
v -24 -16 0
v -24 -8 0
v -16 -8 0
v -24 -16 0
v -32 -16 0
v -32 -8 0
v -24 -8 0
v -32 -16 0
v -40 -16 0
v -40 -8 0
v -32 -8 0
v -40 -16 0
v -48 -16 0
v -48 -8 0
v -40 -8 0
v -48 -16 0
v -56 -16 0
v -56 -8 0
v -48 -8 0
v -56 -16 0
v -64 -16 0
v -64 -8 0
v -56 -8 0
v -64 -16 0
v -72 -16 0
v -72 -8 0
v -64 -8 0
v -72 -16 0
v -80 -16 0
v -80 -8 0
v -72 -8 0
v -80 -16 0
v -88 -16 0
v -88 -8 0
v -80 -8 0
v -88 -16 0
v -96 -16 0
v -96 -8 0
v -88 -8 0
v -96 -16 0
v -104 -16 0
v -104 -8 0
v -96 -8 0
v -104 -16 0
v -112 -16 0
v -112 -8 0
v -104 -8 0
v -112 -16 0
v -120 -16 0
v -120 -8 0
v -112 -8 0
v -120 -16 0
v -128 -16 0
v -128 -8 0
v -120 -8 0
v 0 -24 0
v -8 -24 0
v -8 -16 0
v 0 -16 0
v -8 -24 0
v -16 -24 0
v -16 -16 0
v -8 -16 0
v -16 -24 0
v -24 -24 0
v -24 -16 0
v -16 -16 0
v -24 -24 0
v -32 -24 0
v -32 -16 0
v -24 -16 0
v -32 -24 0
v -40 -24 0
v -40 -16 0
v -32 -16 0
v -40 -24 0
v -48 -24 0
v -48 -16 0
v -40 -16 0
v -48 -24 0
v -56 -24 0
v -56 -16 0
v -48 -16 0
v -56 -24 0
v -64 -24 0
v -64 -16 0
v -56 -16 0
v -64 -24 0
v -72 -24 0
v -72 -16 0
v -64 -16 0
v -72 -24 0
v -80 -24 0
v -80 -16 0
v -72 -16 0
v -80 -24 0
v -88 -24 0
v -88 -16 0
v -80 -16 0
v -88 -24 0
v -96 -24 0
v -96 -16 0
v -88 -16 0
v -96 -24 0
v -104 -24 0
v -104 -16 0
v -96 -16 0
v -104 -24 0
v -112 -24 0
v -112 -16 0
v -104 -16 0
v -112 -24 0
v -120 -24 0
v -120 -16 0
v -112 -16 0
v -120 -24 0
v -128 -24 0
v -128 -16 0
v -120 -16 0
v 0 -32 0
v -8 -32 0
v -8 -24 0
v 0 -24 0
v -8 -32 0
v -16 -32 0
v -16 -24 0
v -8 -24 0
v -16 -32 0
v -24 -32 0
v -24 -24 0
v -16 -24 0
v -24 -32 0
v -32 -32 0
v -32 -24 0
v -24 -24 0
v -32 -32 0
v -40 -32 0
v -40 -24 0
v -32 -24 0
v -40 -32 0
v -48 -32 0
v -48 -24 0
v -40 -24 0
v -48 -32 0
v -56 -32 0
v -56 -24 0
v -48 -24 0
v -56 -32 0
v -64 -32 0
v -64 -24 0
v -56 -24 0
v -64 -32 0
v -72 -32 0
v -72 -24 0
v -64 -24 0
v -72 -32 0
v -80 -32 0
v -80 -24 0
v -72 -24 0
v -80 -32 0
v -88 -32 0
v -88 -24 0
v -80 -24 0
v -88 -32 0
v -96 -32 0
v -96 -24 0
v -88 -24 0
v -96 -32 0
v -104 -32 0
v -104 -24 0
v -96 -24 0
v -104 -32 0
v -112 -32 0
v -112 -24 0
v -104 -24 0
v -112 -32 0
v -120 -32 0
v -120 -24 0
v -112 -24 0
v -120 -32 0
v -128 -32 0
v -128 -24 0
v -120 -24 0
v 0 -40 0
v -8 -40 0
v -8 -32 0
v 0 -32 0
v -8 -40 0
v -16 -40 0
v -16 -32 0
v -8 -32 0
v -16 -40 0
v -24 -40 0
v -24 -32 0
v -16 -32 0
v -24 -40 0
v -32 -40 0
v -32 -32 0
v -24 -32 0
v -32 -40 0
v -40 -40 0
v -40 -32 0
v -32 -32 0
v -40 -40 0
v -48 -40 0
v -48 -32 0
v -40 -32 0
v -48 -40 0
v -56 -40 0
v -56 -32 0
v -48 -32 0
v -56 -40 0
v -64 -40 0
v -64 -32 0
v -56 -32 0
v -64 -40 0
v -72 -40 0
v -72 -32 0
v -64 -32 0
v -72 -40 0
v -80 -40 0
v -80 -32 0
v -72 -32 0
v -80 -40 0
v -88 -40 0
v -88 -32 0
v -80 -32 0
v -88 -40 0
v -96 -40 0
v -96 -32 0
v -88 -32 0
v -96 -40 0
v -104 -40 0
v -104 -32 0
v -96 -32 0
v -104 -40 0
v -112 -40 0
v -112 -32 0
v -104 -32 0
v -112 -40 0
v -120 -40 0
v -120 -32 0
v -112 -32 0
v -120 -40 0
v -128 -40 0
v -128 -32 0
v -120 -32 0
v 0 -48 0
v -8 -48 0
v -8 -40 0
v 0 -40 0
v -8 -48 0
v -16 -48 0
v -16 -40 0
v -8 -40 0
v -16 -48 0
v -24 -48 0
v -24 -40 0
v -16 -40 0
v -24 -48 0
v -32 -48 0
v -32 -40 0
v -24 -40 0
v -32 -48 0
v -40 -48 0
v -40 -40 0
v -32 -40 0
v -40 -48 0
v -48 -48 0
v -48 -40 0
v -40 -40 0
v -48 -48 0
v -56 -48 0
v -56 -40 0
v -48 -40 0
v -56 -48 0
v -64 -48 0
v -64 -40 0
v -56 -40 0
v -64 -48 0
v -72 -48 0
v -72 -40 0
v -64 -40 0
v -72 -48 0
v -80 -48 0
v -80 -40 0
v -72 -40 0
v -80 -48 0
v -88 -48 0
v -88 -40 0
v -80 -40 0
v -88 -48 0
v -96 -48 0
v -96 -40 0
v -88 -40 0
v -96 -48 0
v -104 -48 0
v -104 -40 0
v -96 -40 0
v -104 -48 0
v -112 -48 0
v -112 -40 0
v -104 -40 0
v -112 -48 0
v -120 -48 0
v -120 -40 0
v -112 -40 0
v -120 -48 0
v -128 -48 0
v -128 -40 0
v -120 -40 0
v 0 -56 0
v -8 -56 0
v -8 -48 0
v 0 -48 0
v -8 -56 0
v -16 -56 0
v -16 -48 0
v -8 -48 0
v -16 -56 0
v -24 -56 0
v -24 -48 0
v -16 -48 0
v -24 -56 0
v -32 -56 0
v -32 -48 0
v -24 -48 0
v -32 -56 0
v -40 -56 0
v -40 -48 0
v -32 -48 0
v -40 -56 0
v -48 -56 0
v -48 -48 0
v -40 -48 0
v -48 -56 0
v -56 -56 0
v -56 -48 0
v -48 -48 0
v -56 -56 0
v -64 -56 0
v -64 -48 0
v -56 -48 0
v -64 -56 0
v -72 -56 0
v -72 -48 0
v -64 -48 0
v -72 -56 0
v -80 -56 0
v -80 -48 0
v -72 -48 0
v -80 -56 0
v -88 -56 0
v -88 -48 0
v -80 -48 0
v -88 -56 0
v -96 -56 0
v -96 -48 0
v -88 -48 0
v -96 -56 0
v -104 -56 0
v -104 -48 0
v -96 -48 0
v -104 -56 0
v -112 -56 0
v -112 -48 0
v -104 -48 0
v -112 -56 0
v -120 -56 0
v -120 -48 0
v -112 -48 0
v -120 -56 0
v -128 -56 0
v -128 -48 0
v -120 -48 0
v 0 -64 0
v -8 -64 0
v -8 -56 0
v 0 -56 0
v -8 -64 0
v -16 -64 0
v -16 -56 0
v -8 -56 0
v -16 -64 0
v -24 -64 0
v -24 -56 0
v -16 -56 0
v -24 -64 0
v -32 -64 0
v -32 -56 0
v -24 -56 0
v -32 -64 0
v -40 -64 0
v -40 -56 0
v -32 -56 0
v -40 -64 0
v -48 -64 0
v -48 -56 0
v -40 -56 0
v -48 -64 0
v -56 -64 0
v -56 -56 0
v -48 -56 0
v -56 -64 0
v -64 -64 0
v -64 -56 0
v -56 -56 0
v -64 -64 0
v -72 -64 0
v -72 -56 0
v -64 -56 0
v -72 -64 0
v -80 -64 0
v -80 -56 0
v -72 -56 0
v -80 -64 0
v -88 -64 0
v -88 -56 0
v -80 -56 0
v -88 -64 0
v -96 -64 0
v -96 -56 0
v -88 -56 0
v -96 -64 0
v -104 -64 0
v -104 -56 0
v -96 -56 0
v -104 -64 0
v -112 -64 0
v -112 -56 0
v -104 -56 0
v -112 -64 0
v -120 -64 0
v -120 -56 0
v -112 -56 0
v -120 -64 0
v -128 -64 0
v -128 -56 0
v -120 -56 0
v 0 -72 0
v -8 -72 0
v -8 -64 0
v 0 -64 0
v -8 -72 0
v -16 -72 0
v -16 -64 0
v -8 -64 0
v -16 -72 0
v -24 -72 0
v -24 -64 0
v -16 -64 0
v -24 -72 0
v -32 -72 0
v -32 -64 0
v -24 -64 0
v -32 -72 0
v -40 -72 0
v -40 -64 0
v -32 -64 0
v -40 -72 0
v -48 -72 0
v -48 -64 0
v -40 -64 0
v -48 -72 0
v -56 -72 0
v -56 -64 0
v -48 -64 0
v -56 -72 0
v -64 -72 0
v -64 -64 0
v -56 -64 0
v -64 -72 0
v -72 -72 0
v -72 -64 0
v -64 -64 0
v -72 -72 0
v -80 -72 0
v -80 -64 0
v -72 -64 0
v -80 -72 0
v -88 -72 0
v -88 -64 0
v -80 -64 0
v -88 -72 0
v -96 -72 0
v -96 -64 0
v -88 -64 0
v -96 -72 0
v -104 -72 0
v -104 -64 0
v -96 -64 0
v -104 -72 0
v -112 -72 0
v -112 -64 0
v -104 -64 0
v -112 -72 0
v -120 -72 0
v -120 -64 0
v -112 -64 0
v -120 -72 0
v -128 -72 0
v -128 -64 0
v -120 -64 0
v 0 -80 0
v -8 -80 0
v -8 -72 0
v 0 -72 0
v -8 -80 0
v -16 -80 0
v -16 -72 0
v -8 -72 0
v -16 -80 0
v -24 -80 0
v -24 -72 0
v -16 -72 0
v -24 -80 0
v -32 -80 0
v -32 -72 0
v -24 -72 0
v -32 -80 0
v -40 -80 0
v -40 -72 0
v -32 -72 0
v -40 -80 0
v -48 -80 0
v -48 -72 0
v -40 -72 0
v -48 -80 0
v -56 -80 0
v -56 -72 0
v -48 -72 0
v -56 -80 0
v -64 -80 0
v -64 -72 0
v -56 -72 0
v -64 -80 0
v -72 -80 0
v -72 -72 0
v -64 -72 0
v -72 -80 0
v -80 -80 0
v -80 -72 0
v -72 -72 0
v -80 -80 0
v -88 -80 0
v -88 -72 0
v -80 -72 0
v -88 -80 0
v -96 -80 0
v -96 -72 0
v -88 -72 0
v -96 -80 0
v -104 -80 0
v -104 -72 0
v -96 -72 0
v -104 -80 0
v -112 -80 0
v -112 -72 0
v -104 -72 0
v -112 -80 0
v -120 -80 0
v -120 -72 0
v -112 -72 0
v -120 -80 0
v -128 -80 0
v -128 -72 0
v -120 -72 0
v 0 -88 0
v -8 -88 0
v -8 -80 0
v 0 -80 0
v -8 -88 0
v -16 -88 0
v -16 -80 0
v -8 -80 0
v -16 -88 0
v -24 -88 0
v -24 -80 0
v -16 -80 0
v -24 -88 0
v -32 -88 0
v -32 -80 0
v -24 -80 0
v -32 -88 0
v -40 -88 0
v -40 -80 0
v -32 -80 0
v -40 -88 0
v -48 -88 0
v -48 -80 0
v -40 -80 0
v -48 -88 0
v -56 -88 0
v -56 -80 0
v -48 -80 0
v -56 -88 0
v -64 -88 0
v -64 -80 0
v -56 -80 0
v -64 -88 0
v -72 -88 0
v -72 -80 0
v -64 -80 0
v -72 -88 0
v -80 -88 0
v -80 -80 0
v -72 -80 0
v -80 -88 0
v -88 -88 0
v -88 -80 0
v -80 -80 0
v -88 -88 0
v -96 -88 0
v -96 -80 0
v -88 -80 0
v -96 -88 0
v -104 -88 0
v -104 -80 0
v -96 -80 0
v -104 -88 0
v -112 -88 0
v -112 -80 0
v -104 -80 0
v -112 -88 0
v -120 -88 0
v -120 -80 0
v -112 -80 0
v -120 -88 0
v -128 -88 0
v -128 -80 0
v -120 -80 0
v 0 -96 0
v -8 -96 0
v -8 -88 0
v 0 -88 0
v -8 -96 0
v -16 -96 0
v -16 -88 0
v -8 -88 0
v -16 -96 0
v -24 -96 0
v -24 -88 0
v -16 -88 0
v -24 -96 0
v -32 -96 0
v -32 -88 0
v -24 -88 0
v -32 -96 0
v -40 -96 0
v -40 -88 0
v -32 -88 0
v -40 -96 0
v -48 -96 0
v -48 -88 0
v -40 -88 0
v -48 -96 0
v -56 -96 0
v -56 -88 0
v -48 -88 0
v -56 -96 0
v -64 -96 0
v -64 -88 0
v -56 -88 0
v -64 -96 0
v -72 -96 0
v -72 -88 0
v -64 -88 0
v -72 -96 0
v -80 -96 0
v -80 -88 0
v -72 -88 0
v -80 -96 0
v -88 -96 0
v -88 -88 0
v -80 -88 0
v -88 -96 0
v -96 -96 0
v -96 -88 0
v -88 -88 0
v -96 -96 0
v -104 -96 0
v -104 -88 0
v -96 -88 0
v -104 -96 0
v -112 -96 0
v -112 -88 0
v -104 -88 0
v -112 -96 0
v -120 -96 0
v -120 -88 0
v -112 -88 0
v -120 -96 0
v -128 -96 0
v -128 -88 0
v -120 -88 0
v 0 -104 0
v -8 -104 0
v -8 -96 0
v 0 -96 0
v -8 -104 0
v -16 -104 0
v -16 -96 0
v -8 -96 0
v -16 -104 0
v -24 -104 0
v -24 -96 0
v -16 -96 0
v -24 -104 0
v -32 -104 0
v -32 -96 0
v -24 -96 0
v -32 -104 0
v -40 -104 0
v -40 -96 0
v -32 -96 0
v -40 -104 0
v -48 -104 0
v -48 -96 0
v -40 -96 0
v -48 -104 0
v -56 -104 0
v -56 -96 0
v -48 -96 0
v -56 -104 0
v -64 -104 0
v -64 -96 0
v -56 -96 0
v -64 -104 0
v -72 -104 0
v -72 -96 0
v -64 -96 0
v -72 -104 0
v -80 -104 0
v -80 -96 0
v -72 -96 0
v -80 -104 0
v -88 -104 0
v -88 -96 0
v -80 -96 0
v -88 -104 0
v -96 -104 0
v -96 -96 0
v -88 -96 0
v -96 -104 0
v -104 -104 0
v -104 -96 0
v -96 -96 0
v -104 -104 0
v -112 -104 0
v -112 -96 0
v -104 -96 0
v -112 -104 0
v -120 -104 0
v -120 -96 0
v -112 -96 0
v -120 -104 0
v -128 -104 0
v -128 -96 0
v -120 -96 0
v 0 -112 0
v -8 -112 0
v -8 -104 0
v 0 -104 0
v -8 -112 0
v -16 -112 0
v -16 -104 0
v -8 -104 0
v -16 -112 0
v -24 -112 0
v -24 -104 0
v -16 -104 0
v -24 -112 0
v -32 -112 0
v -32 -104 0
v -24 -104 0
v -32 -112 0
v -40 -112 0
v -40 -104 0
v -32 -104 0
v -40 -112 0
v -48 -112 0
v -48 -104 0
v -40 -104 0
v -48 -112 0
v -56 -112 0
v -56 -104 0
v -48 -104 0
v -56 -112 0
v -64 -112 0
v -64 -104 0
v -56 -104 0
v -64 -112 0
v -72 -112 0
v -72 -104 0
v -64 -104 0
v -72 -112 0
v -80 -112 0
v -80 -104 0
v -72 -104 0
v -80 -112 0
v -88 -112 0
v -88 -104 0
v -80 -104 0
v -88 -112 0
v -96 -112 0
v -96 -104 0
v -88 -104 0
v -96 -112 0
v -104 -112 0
v -104 -104 0
v -96 -104 0
v -104 -112 0
v -112 -112 0
v -112 -104 0
v -104 -104 0
v -112 -112 0
v -120 -112 0
v -120 -104 0
v -112 -104 0
v -120 -112 0
v -128 -112 0
v -128 -104 0
v -120 -104 0
v 0 -120 0
v -8 -120 0
v -8 -112 0
v 0 -112 0
v -8 -120 0
v -16 -120 0
v -16 -112 0
v -8 -112 0
v -16 -120 0
v -24 -120 0
v -24 -112 0
v -16 -112 0
v -24 -120 0
v -32 -120 0
v -32 -112 0
v -24 -112 0
v -32 -120 0
v -40 -120 0
v -40 -112 0
v -32 -112 0
v -40 -120 0
v -48 -120 0
v -48 -112 0
v -40 -112 0
v -48 -120 0
v -56 -120 0
v -56 -112 0
v -48 -112 0
v -56 -120 0
v -64 -120 0
v -64 -112 0
v -56 -112 0
v -64 -120 0
v -72 -120 0
v -72 -112 0
v -64 -112 0
v -72 -120 0
v -80 -120 0
v -80 -112 0
v -72 -112 0
v -80 -120 0
v -88 -120 0
v -88 -112 0
v -80 -112 0
v -88 -120 0
v -96 -120 0
v -96 -112 0
v -88 -112 0
v -96 -120 0
v -104 -120 0
v -104 -112 0
v -96 -112 0
v -104 -120 0
v -112 -120 0
v -112 -112 0
v -104 -112 0
v -112 -120 0
v -120 -120 0
v -120 -112 0
v -112 -112 0
v -120 -120 0
v -128 -120 0
v -128 -112 0
v -120 -112 0
v 0 -128 0
v -8 -128 0
v -8 -120 0
v 0 -120 0
v -8 -128 0
v -16 -128 0
v -16 -120 0
v -8 -120 0
v -16 -128 0
v -24 -128 0
v -24 -120 0
v -16 -120 0
v -24 -128 0
v -32 -128 0
v -32 -120 0
v -24 -120 0
v -32 -128 0
v -40 -128 0
v -40 -120 0
v -32 -120 0
v -40 -128 0
v -48 -128 0
v -48 -120 0
v -40 -120 0
v -48 -128 0
v -56 -128 0
v -56 -120 0
v -48 -120 0
v -56 -128 0
v -64 -128 0
v -64 -120 0
v -56 -120 0
v -64 -128 0
v -72 -128 0
v -72 -120 0
v -64 -120 0
v -72 -128 0
v -80 -128 0
v -80 -120 0
v -72 -120 0
v -80 -128 0
v -88 -128 0
v -88 -120 0
v -80 -120 0
v -88 -128 0
v -96 -128 0
v -96 -120 0
v -88 -120 0
v -96 -128 0
v -104 -128 0
v -104 -120 0
v -96 -120 0
v -104 -128 0
v -112 -128 0
v -112 -120 0
v -104 -120 0
v -112 -128 0
v -120 -128 0
v -120 -120 0
v -112 -120 0
v -120 -128 0
v -128 -128 0
v -128 -120 0
v -120 -120 0

# Texture cooridinates (Count = 9)
vt 0.4264706 0.8877551
vt 0.4411765 0.8877551
vt 0.4411765 0.8979592
vt 0.4264706 0.8979592
vt 0.4558823 0.8877551
vt 0.4558823 0.8979592
vt 0.4411765 0.9081632
vt 0.4264706 0.9081632
vt 0.4558823 0.9081632

# Normal
vn 0 0 -1

# Mesh description
g Rogue_mesh_0006

# Faces
f 1/1/1 2/2/1 3/3/1 4/4/1
f 5/2/1 6/5/1 7/6/1 8/3/1
f 9/1/1 10/2/1 11/3/1 12/4/1
f 13/1/1 14/2/1 15/3/1 16/4/1
f 17/2/1 18/5/1 19/6/1 20/3/1
f 21/2/1 22/5/1 23/6/1 24/3/1
f 25/4/1 26/3/1 27/7/1 28/8/1
f 29/3/1 30/6/1 31/9/1 32/7/1
f 33/3/1 34/6/1 35/9/1 36/7/1
f 37/3/1 38/6/1 39/9/1 40/7/1
f 41/2/1 42/5/1 43/6/1 44/3/1
f 45/2/1 46/5/1 47/6/1 48/3/1
f 49/2/1 50/5/1 51/6/1 52/3/1
f 53/1/1 54/2/1 55/3/1 56/4/1
f 57/2/1 58/5/1 59/6/1 60/3/1
f 61/2/1 62/5/1 63/6/1 64/3/1
f 65/1/1 66/2/1 67/3/1 68/4/1
f 69/2/1 70/5/1 71/6/1 72/3/1
f 73/4/1 74/3/1 75/7/1 76/8/1
f 77/3/1 78/6/1 79/9/1 80/7/1
f 81/3/1 82/6/1 83/9/1 84/7/1
f 85/3/1 86/6/1 87/9/1 88/7/1
f 89/3/1 90/6/1 91/9/1 92/7/1
f 93/2/1 94/5/1 95/6/1 96/3/1
f 97/2/1 98/5/1 99/6/1 100/3/1
f 101/2/1 102/5/1 103/6/1 104/3/1
f 105/3/1 106/6/1 107/9/1 108/7/1
f 109/4/1 110/3/1 111/7/1 112/8/1
f 113/4/1 114/3/1 115/7/1 116/8/1
f 117/4/1 118/3/1 119/7/1 120/8/1
f 121/4/1 122/3/1 123/7/1 124/8/1
f 125/4/1 126/3/1 127/7/1 128/8/1
f 129/1/1 130/2/1 131/3/1 132/4/1
f 133/2/1 134/5/1 135/6/1 136/3/1
f 137/3/1 138/6/1 139/9/1 140/7/1
f 141/4/1 142/3/1 143/7/1 144/8/1
f 145/3/1 146/6/1 147/9/1 148/7/1
f 149/3/1 150/6/1 151/9/1 152/7/1
f 153/3/1 154/6/1 155/9/1 156/7/1
f 157/3/1 158/6/1 159/9/1 160/7/1
f 161/3/1 162/6/1 163/9/1 164/7/1
f 165/3/1 166/6/1 167/9/1 168/7/1
f 169/3/1 170/6/1 171/9/1 172/7/1
f 173/3/1 174/6/1 175/9/1 176/7/1
f 177/3/1 178/6/1 179/9/1 180/7/1
f 181/3/1 182/6/1 183/9/1 184/7/1
f 185/1/1 186/2/1 187/3/1 188/4/1
f 189/1/1 190/2/1 191/3/1 192/4/1
f 193/1/1 194/2/1 195/3/1 196/4/1
f 197/2/1 198/5/1 199/6/1 200/3/1
f 201/4/1 202/3/1 203/7/1 204/8/1
f 205/4/1 206/3/1 207/7/1 208/8/1
f 209/4/1 210/3/1 211/7/1 212/8/1
f 213/3/1 214/6/1 215/9/1 216/7/1
f 217/4/1 218/3/1 219/7/1 220/8/1
f 221/3/1 222/6/1 223/9/1 224/7/1
f 225/3/1 226/6/1 227/9/1 228/7/1
f 229/3/1 230/6/1 231/9/1 232/7/1
f 233/3/1 234/6/1 235/9/1 236/7/1
f 237/3/1 238/6/1 239/9/1 240/7/1
f 241/3/1 242/6/1 243/9/1 244/7/1
f 245/3/1 246/6/1 247/9/1 248/7/1
f 249/3/1 250/6/1 251/9/1 252/7/1
f 253/3/1 254/6/1 255/9/1 256/7/1
f 257/1/1 258/2/1 259/3/1 260/4/1
f 261/2/1 262/5/1 263/6/1 264/3/1
f 265/3/1 266/6/1 267/9/1 268/7/1
f 269/4/1 270/3/1 271/7/1 272/8/1
f 273/4/1 274/3/1 275/7/1 276/8/1
f 277/3/1 278/6/1 279/9/1 280/7/1
f 281/3/1 282/6/1 283/9/1 284/7/1
f 285/3/1 286/6/1 287/9/1 288/7/1
f 289/2/1 290/5/1 291/6/1 292/3/1
f 293/2/1 294/5/1 295/6/1 296/3/1
f 297/2/1 298/5/1 299/6/1 300/3/1
f 301/2/1 302/5/1 303/6/1 304/3/1
f 305/2/1 306/5/1 307/6/1 308/3/1
f 309/2/1 310/5/1 311/6/1 312/3/1
f 313/2/1 314/5/1 315/6/1 316/3/1
f 317/2/1 318/5/1 319/6/1 320/3/1
f 321/1/1 322/2/1 323/3/1 324/4/1
f 325/2/1 326/5/1 327/6/1 328/3/1
f 329/4/1 330/3/1 331/7/1 332/8/1
f 333/1/1 334/2/1 335/3/1 336/4/1
f 337/4/1 338/3/1 339/7/1 340/8/1
f 341/3/1 342/6/1 343/9/1 344/7/1
f 345/4/1 346/3/1 347/7/1 348/8/1
f 349/4/1 350/3/1 351/7/1 352/8/1
f 353/4/1 354/3/1 355/7/1 356/8/1
f 357/4/1 358/3/1 359/7/1 360/8/1
f 361/4/1 362/3/1 363/7/1 364/8/1
f 365/4/1 366/3/1 367/7/1 368/8/1
f 369/4/1 370/3/1 371/7/1 372/8/1
f 373/3/1 374/6/1 375/9/1 376/7/1
f 377/3/1 378/6/1 379/9/1 380/7/1
f 381/1/1 382/2/1 383/3/1 384/4/1
f 385/1/1 386/2/1 387/3/1 388/4/1
f 389/2/1 390/5/1 391/6/1 392/3/1
f 393/1/1 394/2/1 395/3/1 396/4/1
f 397/1/1 398/2/1 399/3/1 400/4/1
f 401/4/1 402/3/1 403/7/1 404/8/1
f 405/3/1 406/6/1 407/9/1 408/7/1
f 409/1/1 410/2/1 411/3/1 412/4/1
f 413/4/1 414/3/1 415/7/1 416/8/1
f 417/3/1 418/6/1 419/9/1 420/7/1
f 421/3/1 422/6/1 423/9/1 424/7/1
f 425/3/1 426/6/1 427/9/1 428/7/1
f 429/3/1 430/6/1 431/9/1 432/7/1
f 433/3/1 434/6/1 435/9/1 436/7/1
f 437/3/1 438/6/1 439/9/1 440/7/1
f 441/2/1 442/5/1 443/6/1 444/3/1
f 445/1/1 446/2/1 447/3/1 448/4/1
f 449/4/1 450/3/1 451/7/1 452/8/1
f 453/3/1 454/6/1 455/9/1 456/7/1
f 457/4/1 458/3/1 459/7/1 460/8/1
f 461/4/1 462/3/1 463/7/1 464/8/1
f 465/4/1 466/3/1 467/7/1 468/8/1
f 469/3/1 470/6/1 471/9/1 472/7/1
f 473/3/1 474/6/1 475/9/1 476/7/1
f 477/3/1 478/6/1 479/9/1 480/7/1
f 481/2/1 482/5/1 483/6/1 484/3/1
f 485/2/1 486/5/1 487/6/1 488/3/1
f 489/2/1 490/5/1 491/6/1 492/3/1
f 493/2/1 494/5/1 495/6/1 496/3/1
f 497/2/1 498/5/1 499/6/1 500/3/1
f 501/2/1 502/5/1 503/6/1 504/3/1
f 505/2/1 506/5/1 507/6/1 508/3/1
f 509/1/1 510/2/1 511/3/1 512/4/1
f 513/3/1 514/6/1 515/9/1 516/7/1
f 517/3/1 518/6/1 519/9/1 520/7/1
f 521/1/1 522/2/1 523/3/1 524/4/1
f 525/4/1 526/3/1 527/7/1 528/8/1
f 529/3/1 530/6/1 531/9/1 532/7/1
f 533/2/1 534/5/1 535/6/1 536/3/1
f 537/4/1 538/3/1 539/7/1 540/8/1
f 541/4/1 542/3/1 543/7/1 544/8/1
f 545/4/1 546/3/1 547/7/1 548/8/1
f 549/4/1 550/3/1 551/7/1 552/8/1
f 553/3/1 554/6/1 555/9/1 556/7/1
f 557/3/1 558/6/1 559/9/1 560/7/1
f 561/3/1 562/6/1 563/9/1 564/7/1
f 565/3/1 566/6/1 567/9/1 568/7/1
f 569/3/1 570/6/1 571/9/1 572/7/1
f 573/4/1 574/3/1 575/7/1 576/8/1
f 577/3/1 578/6/1 579/9/1 580/7/1
f 581/3/1 582/6/1 583/9/1 584/7/1
f 585/1/1 586/2/1 587/3/1 588/4/1
f 589/4/1 590/3/1 591/7/1 592/8/1
f 593/3/1 594/6/1 595/9/1 596/7/1
f 597/4/1 598/3/1 599/7/1 600/8/1
f 601/3/1 602/6/1 603/9/1 604/7/1
f 605/3/1 606/6/1 607/9/1 608/7/1
f 609/3/1 610/6/1 611/9/1 612/7/1
f 613/3/1 614/6/1 615/9/1 616/7/1
f 617/3/1 618/6/1 619/9/1 620/7/1
f 621/2/1 622/5/1 623/6/1 624/3/1
f 625/2/1 626/5/1 627/6/1 628/3/1
f 629/3/1 630/6/1 631/9/1 632/7/1
f 633/4/1 634/3/1 635/7/1 636/8/1
f 637/1/1 638/2/1 639/3/1 640/4/1
f 641/3/1 642/6/1 643/9/1 644/7/1
f 645/3/1 646/6/1 647/9/1 648/7/1
f 649/1/1 650/2/1 651/3/1 652/4/1
f 653/4/1 654/3/1 655/7/1 656/8/1
f 657/3/1 658/6/1 659/9/1 660/7/1
f 661/4/1 662/3/1 663/7/1 664/8/1
f 665/4/1 666/3/1 667/7/1 668/8/1
f 669/4/1 670/3/1 671/7/1 672/8/1
f 673/4/1 674/3/1 675/7/1 676/8/1
f 677/4/1 678/3/1 679/7/1 680/8/1
f 681/4/1 682/3/1 683/7/1 684/8/1
f 685/3/1 686/6/1 687/9/1 688/7/1
f 689/3/1 690/6/1 691/9/1 692/7/1
f 693/4/1 694/3/1 695/7/1 696/8/1
f 697/1/1 698/2/1 699/3/1 700/4/1
f 701/4/1 702/3/1 703/7/1 704/8/1
f 705/3/1 706/6/1 707/9/1 708/7/1
f 709/3/1 710/6/1 711/9/1 712/7/1
f 713/4/1 714/3/1 715/7/1 716/8/1
f 717/3/1 718/6/1 719/9/1 720/7/1
f 721/4/1 722/3/1 723/7/1 724/8/1
f 725/3/1 726/6/1 727/9/1 728/7/1
f 729/1/1 730/2/1 731/3/1 732/4/1
f 733/1/1 734/2/1 735/3/1 736/4/1
f 737/4/1 738/3/1 739/7/1 740/8/1
f 741/4/1 742/3/1 743/7/1 744/8/1
f 745/4/1 746/3/1 747/7/1 748/8/1
f 749/4/1 750/3/1 751/7/1 752/8/1
f 753/4/1 754/3/1 755/7/1 756/8/1
f 757/4/1 758/3/1 759/7/1 760/8/1
f 761/4/1 762/3/1 763/7/1 764/8/1
f 765/3/1 766/6/1 767/9/1 768/7/1
f 769/3/1 770/6/1 771/9/1 772/7/1
f 773/2/1 774/5/1 775/6/1 776/3/1
f 777/4/1 778/3/1 779/7/1 780/8/1
f 781/4/1 782/3/1 783/7/1 784/8/1
f 785/4/1 786/3/1 787/7/1 788/8/1
f 789/3/1 790/6/1 791/9/1 792/7/1
f 793/4/1 794/3/1 795/7/1 796/8/1
f 797/4/1 798/3/1 799/7/1 800/8/1
f 801/4/1 802/3/1 803/7/1 804/8/1
f 805/1/1 806/2/1 807/3/1 808/4/1
f 809/1/1 810/2/1 811/3/1 812/4/1
f 813/4/1 814/3/1 815/7/1 816/8/1
f 817/3/1 818/6/1 819/9/1 820/7/1
f 821/3/1 822/6/1 823/9/1 824/7/1
f 825/3/1 826/6/1 827/9/1 828/7/1
f 829/3/1 830/6/1 831/9/1 832/7/1
f 833/2/1 834/5/1 835/6/1 836/3/1
f 837/2/1 838/5/1 839/6/1 840/3/1
f 841/4/1 842/3/1 843/7/1 844/8/1
f 845/1/1 846/2/1 847/3/1 848/4/1
f 849/4/1 850/3/1 851/7/1 852/8/1
f 853/3/1 854/6/1 855/9/1 856/7/1
f 857/1/1 858/2/1 859/3/1 860/4/1
f 861/1/1 862/2/1 863/3/1 864/4/1
f 865/4/1 866/3/1 867/7/1 868/8/1
f 869/3/1 870/6/1 871/9/1 872/7/1
f 873/3/1 874/6/1 875/9/1 876/7/1
f 877/3/1 878/6/1 879/9/1 880/7/1
f 881/2/1 882/5/1 883/6/1 884/3/1
f 885/2/1 886/5/1 887/6/1 888/3/1
f 889/2/1 890/5/1 891/6/1 892/3/1
f 893/2/1 894/5/1 895/6/1 896/3/1
f 897/3/1 898/6/1 899/9/1 900/7/1
f 901/4/1 902/3/1 903/7/1 904/8/1
f 905/4/1 906/3/1 907/7/1 908/8/1
f 909/4/1 910/3/1 911/7/1 912/8/1
f 913/3/1 914/6/1 915/9/1 916/7/1
f 917/2/1 918/5/1 919/6/1 920/3/1
f 921/4/1 922/3/1 923/7/1 924/8/1
f 925/3/1 926/6/1 927/9/1 928/7/1
f 929/3/1 930/6/1 931/9/1 932/7/1
f 933/3/1 934/6/1 935/9/1 936/7/1
f 937/2/1 938/5/1 939/6/1 940/3/1
f 941/2/1 942/5/1 943/6/1 944/3/1
f 945/2/1 946/5/1 947/6/1 948/3/1
f 949/3/1 950/6/1 951/9/1 952/7/1
f 953/3/1 954/6/1 955/9/1 956/7/1
f 957/3/1 958/6/1 959/9/1 960/7/1
f 961/3/1 962/6/1 963/9/1 964/7/1
f 965/4/1 966/3/1 967/7/1 968/8/1
f 969/1/1 970/2/1 971/3/1 972/4/1
f 973/4/1 974/3/1 975/7/1 976/8/1
f 977/3/1 978/6/1 979/9/1 980/7/1
f 981/4/1 982/3/1 983/7/1 984/8/1
f 985/4/1 986/3/1 987/7/1 988/8/1
f 989/4/1 990/3/1 991/7/1 992/8/1
f 993/4/1 994/3/1 995/7/1 996/8/1
f 997/4/1 998/3/1 999/7/1 1000/8/1
f 1001/4/1 1002/3/1 1003/7/1 1004/8/1
f 1005/4/1 1006/3/1 1007/7/1 1008/8/1
f 1009/4/1 1010/3/1 1011/7/1 1012/8/1
f 1013/4/1 1014/3/1 1015/7/1 1016/8/1
f 1017/4/1 1018/3/1 1019/7/1 1020/8/1
f 1021/4/1 1022/3/1 1023/7/1 1024/8/1

