# Tiled2Unity generated file. Do not modify by hand.
# Wavefront file for 'Rogue_mesh_0003.obj'

# Vertices (Count = 960)
v 0 -16 0
v -8 -16 0
v -8 -8 0
v 0 -8 0
v -8 -16 0
v -16 -16 0
v -16 -8 0
v -8 -8 0
v -16 -16 0
v -24 -16 0
v -24 -8 0
v -16 -8 0
v -24 -16 0
v -32 -16 0
v -32 -8 0
v -24 -8 0
v -32 -16 0
v -40 -16 0
v -40 -8 0
v -32 -8 0
v -40 -16 0
v -48 -16 0
v -48 -8 0
v -40 -8 0
v -48 -16 0
v -56 -16 0
v -56 -8 0
v -48 -8 0
v -56 -16 0
v -64 -16 0
v -64 -8 0
v -56 -8 0
v -64 -16 0
v -72 -16 0
v -72 -8 0
v -64 -8 0
v -72 -16 0
v -80 -16 0
v -80 -8 0
v -72 -8 0
v -80 -16 0
v -88 -16 0
v -88 -8 0
v -80 -8 0
v -88 -16 0
v -96 -16 0
v -96 -8 0
v -88 -8 0
v -96 -16 0
v -104 -16 0
v -104 -8 0
v -96 -8 0
v -104 -16 0
v -112 -16 0
v -112 -8 0
v -104 -8 0
v -112 -16 0
v -120 -16 0
v -120 -8 0
v -112 -8 0
v -120 -16 0
v -128 -16 0
v -128 -8 0
v -120 -8 0
v 0 -24 0
v -8 -24 0
v -8 -16 0
v 0 -16 0
v -8 -24 0
v -16 -24 0
v -16 -16 0
v -8 -16 0
v -16 -24 0
v -24 -24 0
v -24 -16 0
v -16 -16 0
v -24 -24 0
v -32 -24 0
v -32 -16 0
v -24 -16 0
v -32 -24 0
v -40 -24 0
v -40 -16 0
v -32 -16 0
v -40 -24 0
v -48 -24 0
v -48 -16 0
v -40 -16 0
v -48 -24 0
v -56 -24 0
v -56 -16 0
v -48 -16 0
v -56 -24 0
v -64 -24 0
v -64 -16 0
v -56 -16 0
v -64 -24 0
v -72 -24 0
v -72 -16 0
v -64 -16 0
v -72 -24 0
v -80 -24 0
v -80 -16 0
v -72 -16 0
v -80 -24 0
v -88 -24 0
v -88 -16 0
v -80 -16 0
v -88 -24 0
v -96 -24 0
v -96 -16 0
v -88 -16 0
v -96 -24 0
v -104 -24 0
v -104 -16 0
v -96 -16 0
v -104 -24 0
v -112 -24 0
v -112 -16 0
v -104 -16 0
v -112 -24 0
v -120 -24 0
v -120 -16 0
v -112 -16 0
v -120 -24 0
v -128 -24 0
v -128 -16 0
v -120 -16 0
v 0 -32 0
v -8 -32 0
v -8 -24 0
v 0 -24 0
v -8 -32 0
v -16 -32 0
v -16 -24 0
v -8 -24 0
v -16 -32 0
v -24 -32 0
v -24 -24 0
v -16 -24 0
v -24 -32 0
v -32 -32 0
v -32 -24 0
v -24 -24 0
v -32 -32 0
v -40 -32 0
v -40 -24 0
v -32 -24 0
v -40 -32 0
v -48 -32 0
v -48 -24 0
v -40 -24 0
v -48 -32 0
v -56 -32 0
v -56 -24 0
v -48 -24 0
v -56 -32 0
v -64 -32 0
v -64 -24 0
v -56 -24 0
v -64 -32 0
v -72 -32 0
v -72 -24 0
v -64 -24 0
v -72 -32 0
v -80 -32 0
v -80 -24 0
v -72 -24 0
v -80 -32 0
v -88 -32 0
v -88 -24 0
v -80 -24 0
v -88 -32 0
v -96 -32 0
v -96 -24 0
v -88 -24 0
v -96 -32 0
v -104 -32 0
v -104 -24 0
v -96 -24 0
v -104 -32 0
v -112 -32 0
v -112 -24 0
v -104 -24 0
v -112 -32 0
v -120 -32 0
v -120 -24 0
v -112 -24 0
v -120 -32 0
v -128 -32 0
v -128 -24 0
v -120 -24 0
v 0 -40 0
v -8 -40 0
v -8 -32 0
v 0 -32 0
v -8 -40 0
v -16 -40 0
v -16 -32 0
v -8 -32 0
v -16 -40 0
v -24 -40 0
v -24 -32 0
v -16 -32 0
v -24 -40 0
v -32 -40 0
v -32 -32 0
v -24 -32 0
v -32 -40 0
v -40 -40 0
v -40 -32 0
v -32 -32 0
v -40 -40 0
v -48 -40 0
v -48 -32 0
v -40 -32 0
v -48 -40 0
v -56 -40 0
v -56 -32 0
v -48 -32 0
v -56 -40 0
v -64 -40 0
v -64 -32 0
v -56 -32 0
v -64 -40 0
v -72 -40 0
v -72 -32 0
v -64 -32 0
v -72 -40 0
v -80 -40 0
v -80 -32 0
v -72 -32 0
v -80 -40 0
v -88 -40 0
v -88 -32 0
v -80 -32 0
v -88 -40 0
v -96 -40 0
v -96 -32 0
v -88 -32 0
v -96 -40 0
v -104 -40 0
v -104 -32 0
v -96 -32 0
v -104 -40 0
v -112 -40 0
v -112 -32 0
v -104 -32 0
v -112 -40 0
v -120 -40 0
v -120 -32 0
v -112 -32 0
v -120 -40 0
v -128 -40 0
v -128 -32 0
v -120 -32 0
v 0 -48 0
v -8 -48 0
v -8 -40 0
v 0 -40 0
v -8 -48 0
v -16 -48 0
v -16 -40 0
v -8 -40 0
v -16 -48 0
v -24 -48 0
v -24 -40 0
v -16 -40 0
v -24 -48 0
v -32 -48 0
v -32 -40 0
v -24 -40 0
v -32 -48 0
v -40 -48 0
v -40 -40 0
v -32 -40 0
v -40 -48 0
v -48 -48 0
v -48 -40 0
v -40 -40 0
v -48 -48 0
v -56 -48 0
v -56 -40 0
v -48 -40 0
v -56 -48 0
v -64 -48 0
v -64 -40 0
v -56 -40 0
v -64 -48 0
v -72 -48 0
v -72 -40 0
v -64 -40 0
v -72 -48 0
v -80 -48 0
v -80 -40 0
v -72 -40 0
v -80 -48 0
v -88 -48 0
v -88 -40 0
v -80 -40 0
v -88 -48 0
v -96 -48 0
v -96 -40 0
v -88 -40 0
v -96 -48 0
v -104 -48 0
v -104 -40 0
v -96 -40 0
v -104 -48 0
v -112 -48 0
v -112 -40 0
v -104 -40 0
v -112 -48 0
v -120 -48 0
v -120 -40 0
v -112 -40 0
v -120 -48 0
v -128 -48 0
v -128 -40 0
v -120 -40 0
v 0 -56 0
v -8 -56 0
v -8 -48 0
v 0 -48 0
v -8 -56 0
v -16 -56 0
v -16 -48 0
v -8 -48 0
v -16 -56 0
v -24 -56 0
v -24 -48 0
v -16 -48 0
v -24 -56 0
v -32 -56 0
v -32 -48 0
v -24 -48 0
v -32 -56 0
v -40 -56 0
v -40 -48 0
v -32 -48 0
v -40 -56 0
v -48 -56 0
v -48 -48 0
v -40 -48 0
v -48 -56 0
v -56 -56 0
v -56 -48 0
v -48 -48 0
v -56 -56 0
v -64 -56 0
v -64 -48 0
v -56 -48 0
v -64 -56 0
v -72 -56 0
v -72 -48 0
v -64 -48 0
v -72 -56 0
v -80 -56 0
v -80 -48 0
v -72 -48 0
v -80 -56 0
v -88 -56 0
v -88 -48 0
v -80 -48 0
v -88 -56 0
v -96 -56 0
v -96 -48 0
v -88 -48 0
v -96 -56 0
v -104 -56 0
v -104 -48 0
v -96 -48 0
v -104 -56 0
v -112 -56 0
v -112 -48 0
v -104 -48 0
v -112 -56 0
v -120 -56 0
v -120 -48 0
v -112 -48 0
v -120 -56 0
v -128 -56 0
v -128 -48 0
v -120 -48 0
v 0 -64 0
v -8 -64 0
v -8 -56 0
v 0 -56 0
v -8 -64 0
v -16 -64 0
v -16 -56 0
v -8 -56 0
v -16 -64 0
v -24 -64 0
v -24 -56 0
v -16 -56 0
v -24 -64 0
v -32 -64 0
v -32 -56 0
v -24 -56 0
v -32 -64 0
v -40 -64 0
v -40 -56 0
v -32 -56 0
v -40 -64 0
v -48 -64 0
v -48 -56 0
v -40 -56 0
v -48 -64 0
v -56 -64 0
v -56 -56 0
v -48 -56 0
v -56 -64 0
v -64 -64 0
v -64 -56 0
v -56 -56 0
v -64 -64 0
v -72 -64 0
v -72 -56 0
v -64 -56 0
v -72 -64 0
v -80 -64 0
v -80 -56 0
v -72 -56 0
v -80 -64 0
v -88 -64 0
v -88 -56 0
v -80 -56 0
v -88 -64 0
v -96 -64 0
v -96 -56 0
v -88 -56 0
v -96 -64 0
v -104 -64 0
v -104 -56 0
v -96 -56 0
v -104 -64 0
v -112 -64 0
v -112 -56 0
v -104 -56 0
v -112 -64 0
v -120 -64 0
v -120 -56 0
v -112 -56 0
v -120 -64 0
v -128 -64 0
v -128 -56 0
v -120 -56 0
v 0 -72 0
v -8 -72 0
v -8 -64 0
v 0 -64 0
v -8 -72 0
v -16 -72 0
v -16 -64 0
v -8 -64 0
v -16 -72 0
v -24 -72 0
v -24 -64 0
v -16 -64 0
v -24 -72 0
v -32 -72 0
v -32 -64 0
v -24 -64 0
v -32 -72 0
v -40 -72 0
v -40 -64 0
v -32 -64 0
v -40 -72 0
v -48 -72 0
v -48 -64 0
v -40 -64 0
v -48 -72 0
v -56 -72 0
v -56 -64 0
v -48 -64 0
v -56 -72 0
v -64 -72 0
v -64 -64 0
v -56 -64 0
v -64 -72 0
v -72 -72 0
v -72 -64 0
v -64 -64 0
v -72 -72 0
v -80 -72 0
v -80 -64 0
v -72 -64 0
v -80 -72 0
v -88 -72 0
v -88 -64 0
v -80 -64 0
v -88 -72 0
v -96 -72 0
v -96 -64 0
v -88 -64 0
v -96 -72 0
v -104 -72 0
v -104 -64 0
v -96 -64 0
v -104 -72 0
v -112 -72 0
v -112 -64 0
v -104 -64 0
v -112 -72 0
v -120 -72 0
v -120 -64 0
v -112 -64 0
v -120 -72 0
v -128 -72 0
v -128 -64 0
v -120 -64 0
v 0 -80 0
v -8 -80 0
v -8 -72 0
v 0 -72 0
v -8 -80 0
v -16 -80 0
v -16 -72 0
v -8 -72 0
v -16 -80 0
v -24 -80 0
v -24 -72 0
v -16 -72 0
v -24 -80 0
v -32 -80 0
v -32 -72 0
v -24 -72 0
v -32 -80 0
v -40 -80 0
v -40 -72 0
v -32 -72 0
v -40 -80 0
v -48 -80 0
v -48 -72 0
v -40 -72 0
v -48 -80 0
v -56 -80 0
v -56 -72 0
v -48 -72 0
v -56 -80 0
v -64 -80 0
v -64 -72 0
v -56 -72 0
v -64 -80 0
v -72 -80 0
v -72 -72 0
v -64 -72 0
v -72 -80 0
v -80 -80 0
v -80 -72 0
v -72 -72 0
v -80 -80 0
v -88 -80 0
v -88 -72 0
v -80 -72 0
v -88 -80 0
v -96 -80 0
v -96 -72 0
v -88 -72 0
v -96 -80 0
v -104 -80 0
v -104 -72 0
v -96 -72 0
v -104 -80 0
v -112 -80 0
v -112 -72 0
v -104 -72 0
v -112 -80 0
v -120 -80 0
v -120 -72 0
v -112 -72 0
v -120 -80 0
v -128 -80 0
v -128 -72 0
v -120 -72 0
v 0 -88 0
v -8 -88 0
v -8 -80 0
v 0 -80 0
v -8 -88 0
v -16 -88 0
v -16 -80 0
v -8 -80 0
v -16 -88 0
v -24 -88 0
v -24 -80 0
v -16 -80 0
v -24 -88 0
v -32 -88 0
v -32 -80 0
v -24 -80 0
v -32 -88 0
v -40 -88 0
v -40 -80 0
v -32 -80 0
v -40 -88 0
v -48 -88 0
v -48 -80 0
v -40 -80 0
v -48 -88 0
v -56 -88 0
v -56 -80 0
v -48 -80 0
v -56 -88 0
v -64 -88 0
v -64 -80 0
v -56 -80 0
v -64 -88 0
v -72 -88 0
v -72 -80 0
v -64 -80 0
v -72 -88 0
v -80 -88 0
v -80 -80 0
v -72 -80 0
v -80 -88 0
v -88 -88 0
v -88 -80 0
v -80 -80 0
v -88 -88 0
v -96 -88 0
v -96 -80 0
v -88 -80 0
v -96 -88 0
v -104 -88 0
v -104 -80 0
v -96 -80 0
v -104 -88 0
v -112 -88 0
v -112 -80 0
v -104 -80 0
v -112 -88 0
v -120 -88 0
v -120 -80 0
v -112 -80 0
v -120 -88 0
v -128 -88 0
v -128 -80 0
v -120 -80 0
v 0 -96 0
v -8 -96 0
v -8 -88 0
v 0 -88 0
v -8 -96 0
v -16 -96 0
v -16 -88 0
v -8 -88 0
v -16 -96 0
v -24 -96 0
v -24 -88 0
v -16 -88 0
v -24 -96 0
v -32 -96 0
v -32 -88 0
v -24 -88 0
v -32 -96 0
v -40 -96 0
v -40 -88 0
v -32 -88 0
v -40 -96 0
v -48 -96 0
v -48 -88 0
v -40 -88 0
v -48 -96 0
v -56 -96 0
v -56 -88 0
v -48 -88 0
v -56 -96 0
v -64 -96 0
v -64 -88 0
v -56 -88 0
v -64 -96 0
v -72 -96 0
v -72 -88 0
v -64 -88 0
v -72 -96 0
v -80 -96 0
v -80 -88 0
v -72 -88 0
v -80 -96 0
v -88 -96 0
v -88 -88 0
v -80 -88 0
v -88 -96 0
v -96 -96 0
v -96 -88 0
v -88 -88 0
v -96 -96 0
v -104 -96 0
v -104 -88 0
v -96 -88 0
v -104 -96 0
v -112 -96 0
v -112 -88 0
v -104 -88 0
v -112 -96 0
v -120 -96 0
v -120 -88 0
v -112 -88 0
v -120 -96 0
v -128 -96 0
v -128 -88 0
v -120 -88 0
v 0 -104 0
v -8 -104 0
v -8 -96 0
v 0 -96 0
v -8 -104 0
v -16 -104 0
v -16 -96 0
v -8 -96 0
v -16 -104 0
v -24 -104 0
v -24 -96 0
v -16 -96 0
v -24 -104 0
v -32 -104 0
v -32 -96 0
v -24 -96 0
v -32 -104 0
v -40 -104 0
v -40 -96 0
v -32 -96 0
v -40 -104 0
v -48 -104 0
v -48 -96 0
v -40 -96 0
v -48 -104 0
v -56 -104 0
v -56 -96 0
v -48 -96 0
v -56 -104 0
v -64 -104 0
v -64 -96 0
v -56 -96 0
v -64 -104 0
v -72 -104 0
v -72 -96 0
v -64 -96 0
v -72 -104 0
v -80 -104 0
v -80 -96 0
v -72 -96 0
v -80 -104 0
v -88 -104 0
v -88 -96 0
v -80 -96 0
v -88 -104 0
v -96 -104 0
v -96 -96 0
v -88 -96 0
v -96 -104 0
v -104 -104 0
v -104 -96 0
v -96 -96 0
v -104 -104 0
v -112 -104 0
v -112 -96 0
v -104 -96 0
v -112 -104 0
v -120 -104 0
v -120 -96 0
v -112 -96 0
v -120 -104 0
v -128 -104 0
v -128 -96 0
v -120 -96 0
v 0 -112 0
v -8 -112 0
v -8 -104 0
v 0 -104 0
v -8 -112 0
v -16 -112 0
v -16 -104 0
v -8 -104 0
v -16 -112 0
v -24 -112 0
v -24 -104 0
v -16 -104 0
v -24 -112 0
v -32 -112 0
v -32 -104 0
v -24 -104 0
v -32 -112 0
v -40 -112 0
v -40 -104 0
v -32 -104 0
v -40 -112 0
v -48 -112 0
v -48 -104 0
v -40 -104 0
v -48 -112 0
v -56 -112 0
v -56 -104 0
v -48 -104 0
v -56 -112 0
v -64 -112 0
v -64 -104 0
v -56 -104 0
v -64 -112 0
v -72 -112 0
v -72 -104 0
v -64 -104 0
v -72 -112 0
v -80 -112 0
v -80 -104 0
v -72 -104 0
v -80 -112 0
v -88 -112 0
v -88 -104 0
v -80 -104 0
v -88 -112 0
v -96 -112 0
v -96 -104 0
v -88 -104 0
v -96 -112 0
v -104 -112 0
v -104 -104 0
v -96 -104 0
v -104 -112 0
v -112 -112 0
v -112 -104 0
v -104 -104 0
v -112 -112 0
v -120 -112 0
v -120 -104 0
v -112 -104 0
v -120 -112 0
v -128 -112 0
v -128 -104 0
v -120 -104 0
v 0 -120 0
v -8 -120 0
v -8 -112 0
v 0 -112 0
v -8 -120 0
v -16 -120 0
v -16 -112 0
v -8 -112 0
v -16 -120 0
v -24 -120 0
v -24 -112 0
v -16 -112 0
v -24 -120 0
v -32 -120 0
v -32 -112 0
v -24 -112 0
v -32 -120 0
v -40 -120 0
v -40 -112 0
v -32 -112 0
v -40 -120 0
v -48 -120 0
v -48 -112 0
v -40 -112 0
v -48 -120 0
v -56 -120 0
v -56 -112 0
v -48 -112 0
v -56 -120 0
v -64 -120 0
v -64 -112 0
v -56 -112 0
v -64 -120 0
v -72 -120 0
v -72 -112 0
v -64 -112 0
v -72 -120 0
v -80 -120 0
v -80 -112 0
v -72 -112 0
v -80 -120 0
v -88 -120 0
v -88 -112 0
v -80 -112 0
v -88 -120 0
v -96 -120 0
v -96 -112 0
v -88 -112 0
v -96 -120 0
v -104 -120 0
v -104 -112 0
v -96 -112 0
v -104 -120 0
v -112 -120 0
v -112 -112 0
v -104 -112 0
v -112 -120 0
v -120 -120 0
v -120 -112 0
v -112 -112 0
v -120 -120 0
v -128 -120 0
v -128 -112 0
v -120 -112 0
v 0 -128 0
v -8 -128 0
v -8 -120 0
v 0 -120 0
v -8 -128 0
v -16 -128 0
v -16 -120 0
v -8 -120 0
v -16 -128 0
v -24 -128 0
v -24 -120 0
v -16 -120 0
v -24 -128 0
v -32 -128 0
v -32 -120 0
v -24 -120 0
v -32 -128 0
v -40 -128 0
v -40 -120 0
v -32 -120 0
v -40 -128 0
v -48 -128 0
v -48 -120 0
v -40 -120 0
v -48 -128 0
v -56 -128 0
v -56 -120 0
v -48 -120 0
v -56 -128 0
v -64 -128 0
v -64 -120 0
v -56 -120 0
v -64 -128 0
v -72 -128 0
v -72 -120 0
v -64 -120 0
v -72 -128 0
v -80 -128 0
v -80 -120 0
v -72 -120 0
v -80 -128 0
v -88 -128 0
v -88 -120 0
v -80 -120 0
v -88 -128 0
v -96 -128 0
v -96 -120 0
v -88 -120 0
v -96 -128 0
v -104 -128 0
v -104 -120 0
v -96 -120 0
v -104 -128 0
v -112 -128 0
v -112 -120 0
v -104 -120 0
v -112 -128 0
v -120 -128 0
v -120 -120 0
v -112 -120 0
v -120 -128 0
v -128 -128 0
v -128 -120 0
v -120 -120 0

# Texture cooridinates (Count = 136)
vt 0.4117647 0.9693878
vt 0.4264706 0.9693878
vt 0.4264706 0.9795918
vt 0.4117647 0.9795918
vt 0.6176471 0.7857143
vt 0.6323529 0.7857143
vt 0.6323529 0.7959183
vt 0.6176471 0.7959183
vt 0.3382353 0.9693878
vt 0.3529412 0.9693878
vt 0.3529412 0.9795918
vt 0.3382353 0.9795918
vt 0.3235294 0.9693878
vt 0.3235294 0.9795918
vt 0.4117647 0.9591837
vt 0.4264706 0.9591837
vt 0.3382353 0.9591837
vt 0.3529412 0.9591837
vt 0.3235294 0.9591837
vt 0.4117647 0.9489796
vt 0.4264706 0.9489796
vt 0.6617647 0.9489796
vt 0.6764706 0.9489796
vt 0.6764706 0.9591837
vt 0.6617647 0.9591837
vt 0.4411765 0.9489796
vt 0.4411765 0.9591837
vt 0.3823529 0.9489796
vt 0.3970588 0.9489796
vt 0.3970588 0.9591837
vt 0.3823529 0.9591837
vt 0.4117647 0.9387755
vt 0.4264706 0.9387755
vt 0.4411765 0.9387755
vt 0.3823529 0.9387755
vt 0.3970588 0.9387755
vt 0.3676471 0.9489796
vt 0.3676471 0.9591837
vt 0.3529412 0.9489796
vt 0.4558823 0.9285714
vt 0.4705882 0.9285714
vt 0.4705882 0.9387755
vt 0.4558823 0.9387755
vt 0.6617647 0.9285714
vt 0.6764706 0.9285714
vt 0.6764706 0.9387755
vt 0.6617647 0.9387755
vt 0.2794118 0.9285714
vt 0.2941177 0.9285714
vt 0.2941177 0.9387755
vt 0.2794118 0.9387755
vt 0.3088235 0.9285714
vt 0.3088235 0.9387755
vt 0.3235294 0.9285714
vt 0.3235294 0.9387755
vt 0.3382353 0.9285714
vt 0.3382353 0.9387755
vt 0.3529412 0.9285714
vt 0.3529412 0.9387755
vt 0.3676471 0.9285714
vt 0.3676471 0.9387755
vt 0.3823529 0.9285714
vt 0.3970588 0.9285714
vt 0.4117647 0.9285714
vt 0.4264706 0.9285714
vt 0.4411765 0.9285714
vt 0.4264706 0.8979592
vt 0.4411765 0.8979592
vt 0.4411765 0.9081632
vt 0.4264706 0.9081632
vt 0.4558823 0.8979592
vt 0.4558823 0.9081632
vt 0.4264706 0.8877551
vt 0.4411765 0.8877551
vt 0.4558823 0.8877551
vt 0.2647059 0.9081632
vt 0.2794118 0.9081632
vt 0.2794118 0.9183673
vt 0.2647059 0.9183673
vt 0.2941177 0.9081632
vt 0.2941177 0.9183673
vt 0.3088235 0.9081632
vt 0.3088235 0.9183673
vt 0.3235294 0.9081632
vt 0.3235294 0.9183673
vt 0.3382353 0.9081632
vt 0.3382353 0.9183673
vt 0.3529412 0.9081632
vt 0.3529412 0.9183673
vt 0.3676471 0.9081632
vt 0.3676471 0.9183673
vt 0.3823529 0.9081632
vt 0.3823529 0.9183673
vt 0.2647059 0.8979592
vt 0.2794118 0.8979592
vt 0.2941177 0.8979592
vt 0.3088235 0.8979592
vt 0.3235294 0.8979592
vt 0.3382353 0.8979592
vt 0.3529412 0.8979592
vt 0.3676471 0.8979592
vt 0.3823529 0.8979592
vt 0.2647059 0.8877551
vt 0.2794118 0.8877551
vt 0.2941177 0.8877551
vt 0.4705882 0.9081632
vt 0.4852941 0.9081632
vt 0.4852941 0.9183673
vt 0.4705882 0.9183673
vt 0.5 0.9081632
vt 0.5 0.9183673
vt 0.5147059 0.9081632
vt 0.5147059 0.9183673
vt 0.5294118 0.9081632
vt 0.5294118 0.9183673
vt 0.5441176 0.9081632
vt 0.5441176 0.9183673
vt 0.5588235 0.9081632
vt 0.5588235 0.9183673
vt 0.5735294 0.9081632
vt 0.5882353 0.9081632
vt 0.5882353 0.9183673
vt 0.5735294 0.9183673
vt 0.2647059 0.877551
vt 0.2794118 0.877551
vt 0.2941177 0.877551
vt 0.4705882 0.8979592
vt 0.4852941 0.8979592
vt 0.5 0.8979592
vt 0.5147059 0.8979592
vt 0.5294118 0.8979592
vt 0.5441176 0.8979592
vt 0.5588235 0.8979592
vt 0.5588235 0.8877551
vt 0.5735294 0.8877551
vt 0.5735294 0.8979592

# Normal
vn 0 0 -1

# Mesh description
g Rogue_mesh_0003

# Faces
f 1/1/1 2/2/1 3/3/1 4/4/1
f 5/5/1 6/6/1 7/7/1 8/8/1
f 9/5/1 10/6/1 11/7/1 12/8/1
f 13/9/1 14/10/1 15/11/1 16/12/1
f 17/1/1 18/2/1 19/3/1 20/4/1
f 21/9/1 22/10/1 23/11/1 24/12/1
f 25/1/1 26/2/1 27/3/1 28/4/1
f 29/9/1 30/10/1 31/11/1 32/12/1
f 33/13/1 34/9/1 35/12/1 36/14/1
f 37/9/1 38/10/1 39/11/1 40/12/1
f 41/13/1 42/9/1 43/12/1 44/14/1
f 45/5/1 46/6/1 47/7/1 48/8/1
f 49/5/1 50/6/1 51/7/1 52/8/1
f 53/9/1 54/10/1 55/11/1 56/12/1
f 57/1/1 58/2/1 59/3/1 60/4/1
f 61/9/1 62/10/1 63/11/1 64/12/1
f 65/15/1 66/16/1 67/2/1 68/1/1
f 69/17/1 70/18/1 71/10/1 72/9/1
f 73/15/1 74/16/1 75/2/1 76/1/1
f 77/17/1 78/18/1 79/10/1 80/9/1
f 81/15/1 82/16/1 83/2/1 84/1/1
f 85/17/1 86/18/1 87/10/1 88/9/1
f 89/15/1 90/16/1 91/2/1 92/1/1
f 93/17/1 94/18/1 95/10/1 96/9/1
f 97/19/1 98/17/1 99/9/1 100/13/1
f 101/17/1 102/18/1 103/10/1 104/9/1
f 105/19/1 106/17/1 107/9/1 108/13/1
f 109/17/1 110/18/1 111/10/1 112/9/1
f 113/19/1 114/17/1 115/9/1 116/13/1
f 117/17/1 118/18/1 119/10/1 120/9/1
f 121/15/1 122/16/1 123/2/1 124/1/1
f 125/17/1 126/18/1 127/10/1 128/9/1
f 129/20/1 130/21/1 131/16/1 132/15/1
f 133/22/1 134/23/1 135/24/1 136/25/1
f 137/20/1 138/21/1 139/16/1 140/15/1
f 141/20/1 142/21/1 143/16/1 144/15/1
f 145/20/1 146/21/1 147/16/1 148/15/1
f 149/20/1 150/21/1 151/16/1 152/15/1
f 153/20/1 154/21/1 155/16/1 156/15/1
f 157/20/1 158/21/1 159/16/1 160/15/1
f 161/21/1 162/26/1 163/27/1 164/16/1
f 165/28/1 166/29/1 167/30/1 168/31/1
f 169/29/1 170/20/1 171/15/1 172/30/1
f 173/20/1 174/21/1 175/16/1 176/15/1
f 177/20/1 178/21/1 179/16/1 180/15/1
f 181/20/1 182/21/1 183/16/1 184/15/1
f 185/20/1 186/21/1 187/16/1 188/15/1
f 189/20/1 190/21/1 191/16/1 192/15/1
f 193/32/1 194/33/1 195/21/1 196/20/1
f 197/22/1 198/23/1 199/24/1 200/25/1
f 201/32/1 202/33/1 203/21/1 204/20/1
f 205/22/1 206/23/1 207/24/1 208/25/1
f 209/32/1 210/33/1 211/21/1 212/20/1
f 213/32/1 214/33/1 215/21/1 216/20/1
f 217/32/1 218/33/1 219/21/1 220/20/1
f 221/32/1 222/33/1 223/21/1 224/20/1
f 225/33/1 226/34/1 227/26/1 228/21/1
f 229/35/1 230/36/1 231/29/1 232/28/1
f 233/36/1 234/32/1 235/20/1 236/29/1
f 237/32/1 238/33/1 239/21/1 240/20/1
f 241/32/1 242/33/1 243/21/1 244/20/1
f 245/22/1 246/23/1 247/24/1 248/25/1
f 249/32/1 250/33/1 251/21/1 252/20/1
f 253/32/1 254/33/1 255/21/1 256/20/1
f 257/37/1 258/28/1 259/31/1 260/38/1
f 261/22/1 262/23/1 263/24/1 264/25/1
f 265/39/1 266/37/1 267/38/1 268/18/1
f 269/22/1 270/23/1 271/24/1 272/25/1
f 273/39/1 274/37/1 275/38/1 276/18/1
f 277/39/1 278/37/1 279/38/1 280/18/1
f 281/39/1 282/37/1 283/38/1 284/18/1
f 285/39/1 286/37/1 287/38/1 288/18/1
f 289/39/1 290/37/1 291/38/1 292/18/1
f 293/39/1 294/37/1 295/38/1 296/18/1
f 297/39/1 298/37/1 299/38/1 300/18/1
f 301/39/1 302/37/1 303/38/1 304/18/1
f 305/37/1 306/28/1 307/31/1 308/38/1
f 309/22/1 310/23/1 311/24/1 312/25/1
f 313/39/1 314/37/1 315/38/1 316/18/1
f 317/39/1 318/37/1 319/38/1 320/18/1
f 321/40/1 322/41/1 323/42/1 324/43/1
f 325/44/1 326/45/1 327/46/1 328/47/1
f 329/48/1 330/49/1 331/50/1 332/51/1
f 333/49/1 334/52/1 335/53/1 336/50/1
f 337/52/1 338/54/1 339/55/1 340/53/1
f 341/54/1 342/56/1 343/57/1 344/55/1
f 345/56/1 346/58/1 347/59/1 348/57/1
f 349/58/1 350/60/1 351/61/1 352/59/1
f 353/60/1 354/62/1 355/35/1 356/61/1
f 357/62/1 358/63/1 359/36/1 360/35/1
f 361/63/1 362/64/1 363/32/1 364/36/1
f 365/64/1 366/65/1 367/33/1 368/32/1
f 369/65/1 370/66/1 371/34/1 372/33/1
f 373/66/1 374/40/1 375/43/1 376/34/1
f 377/40/1 378/41/1 379/42/1 380/43/1
f 381/44/1 382/45/1 383/46/1 384/47/1
f 385/67/1 386/68/1 387/69/1 388/70/1
f 389/67/1 390/68/1 391/69/1 392/70/1
f 393/67/1 394/68/1 395/69/1 396/70/1
f 397/67/1 398/68/1 399/69/1 400/70/1
f 401/67/1 402/68/1 403/69/1 404/70/1
f 405/67/1 406/68/1 407/69/1 408/70/1
f 409/67/1 410/68/1 411/69/1 412/70/1
f 413/67/1 414/68/1 415/69/1 416/70/1
f 417/67/1 418/68/1 419/69/1 420/70/1
f 421/68/1 422/71/1 423/72/1 424/69/1
f 425/67/1 426/68/1 427/69/1 428/70/1
f 429/67/1 430/68/1 431/69/1 432/70/1
f 433/68/1 434/71/1 435/72/1 436/69/1
f 437/68/1 438/71/1 439/72/1 440/69/1
f 441/68/1 442/71/1 443/72/1 444/69/1
f 445/68/1 446/71/1 447/72/1 448/69/1
f 449/73/1 450/74/1 451/68/1 452/67/1
f 453/73/1 454/74/1 455/68/1 456/67/1
f 457/73/1 458/74/1 459/68/1 460/67/1
f 461/73/1 462/74/1 463/68/1 464/67/1
f 465/73/1 466/74/1 467/68/1 468/67/1
f 469/73/1 470/74/1 471/68/1 472/67/1
f 473/73/1 474/74/1 475/68/1 476/67/1
f 477/67/1 478/68/1 479/69/1 480/70/1
f 481/68/1 482/71/1 483/72/1 484/69/1
f 485/68/1 486/71/1 487/72/1 488/69/1
f 489/67/1 490/68/1 491/69/1 492/70/1
f 493/67/1 494/68/1 495/69/1 496/70/1
f 497/67/1 498/68/1 499/69/1 500/70/1
f 501/67/1 502/68/1 503/69/1 504/70/1
f 505/67/1 506/68/1 507/69/1 508/70/1
f 509/67/1 510/68/1 511/69/1 512/70/1
f 513/67/1 514/68/1 515/69/1 516/70/1
f 517/73/1 518/74/1 519/68/1 520/67/1
f 521/73/1 522/74/1 523/68/1 524/67/1
f 525/73/1 526/74/1 527/68/1 528/67/1
f 529/74/1 530/75/1 531/71/1 532/68/1
f 533/67/1 534/68/1 535/69/1 536/70/1
f 537/68/1 538/71/1 539/72/1 540/69/1
f 541/68/1 542/71/1 543/72/1 544/69/1
f 545/74/1 546/75/1 547/71/1 548/68/1
f 549/74/1 550/75/1 551/71/1 552/68/1
f 553/73/1 554/74/1 555/68/1 556/67/1
f 557/73/1 558/74/1 559/68/1 560/67/1
f 561/73/1 562/74/1 563/68/1 564/67/1
f 565/73/1 566/74/1 567/68/1 568/67/1
f 569/73/1 570/74/1 571/68/1 572/67/1
f 573/73/1 574/74/1 575/68/1 576/67/1
f 577/73/1 578/74/1 579/68/1 580/67/1
f 581/73/1 582/74/1 583/68/1 584/67/1
f 585/67/1 586/68/1 587/69/1 588/70/1
f 589/68/1 590/71/1 591/72/1 592/69/1
f 593/67/1 594/68/1 595/69/1 596/70/1
f 597/68/1 598/71/1 599/72/1 600/69/1
f 601/68/1 602/71/1 603/72/1 604/69/1
f 605/67/1 606/68/1 607/69/1 608/70/1
f 609/67/1 610/68/1 611/69/1 612/70/1
f 613/68/1 614/71/1 615/72/1 616/69/1
f 617/68/1 618/71/1 619/72/1 620/69/1
f 621/68/1 622/71/1 623/72/1 624/69/1
f 625/74/1 626/75/1 627/71/1 628/68/1
f 629/68/1 630/71/1 631/72/1 632/69/1
f 633/67/1 634/68/1 635/69/1 636/70/1
f 637/68/1 638/71/1 639/72/1 640/69/1
f 641/67/1 642/68/1 643/69/1 644/70/1
f 645/67/1 646/68/1 647/69/1 648/70/1
f 649/67/1 650/68/1 651/69/1 652/70/1
f 653/67/1 654/68/1 655/69/1 656/70/1
f 657/67/1 658/68/1 659/69/1 660/70/1
f 661/67/1 662/68/1 663/69/1 664/70/1
f 665/68/1 666/71/1 667/72/1 668/69/1
f 669/68/1 670/71/1 671/72/1 672/69/1
f 673/68/1 674/71/1 675/72/1 676/69/1
f 677/74/1 678/75/1 679/71/1 680/68/1
f 681/74/1 682/75/1 683/71/1 684/68/1
f 685/74/1 686/75/1 687/71/1 688/68/1
f 689/74/1 690/75/1 691/71/1 692/68/1
f 693/74/1 694/75/1 695/71/1 696/68/1
f 697/67/1 698/68/1 699/69/1 700/70/1
f 701/67/1 702/68/1 703/69/1 704/70/1
f 705/67/1 706/68/1 707/69/1 708/70/1
f 709/73/1 710/74/1 711/68/1 712/67/1
f 713/67/1 714/68/1 715/69/1 716/70/1
f 717/76/1 718/77/1 719/78/1 720/79/1
f 721/77/1 722/80/1 723/81/1 724/78/1
f 725/80/1 726/82/1 727/83/1 728/81/1
f 729/82/1 730/84/1 731/85/1 732/83/1
f 733/84/1 734/86/1 735/87/1 736/85/1
f 737/86/1 738/88/1 739/89/1 740/87/1
f 741/88/1 742/90/1 743/91/1 744/89/1
f 745/90/1 746/92/1 747/93/1 748/91/1
f 749/80/1 750/82/1 751/83/1 752/81/1
f 753/82/1 754/84/1 755/85/1 756/83/1
f 757/84/1 758/86/1 759/87/1 760/85/1
f 761/86/1 762/88/1 763/89/1 764/87/1
f 765/88/1 766/90/1 767/91/1 768/89/1
f 769/68/1 770/71/1 771/72/1 772/69/1
f 773/68/1 774/71/1 775/72/1 776/69/1
f 777/68/1 778/71/1 779/72/1 780/69/1
f 781/94/1 782/95/1 783/77/1 784/76/1
f 785/95/1 786/96/1 787/80/1 788/77/1
f 789/96/1 790/97/1 791/82/1 792/80/1
f 793/97/1 794/98/1 795/84/1 796/82/1
f 797/98/1 798/99/1 799/86/1 800/84/1
f 801/99/1 802/100/1 803/88/1 804/86/1
f 805/100/1 806/101/1 807/90/1 808/88/1
f 809/101/1 810/102/1 811/92/1 812/90/1
f 813/96/1 814/97/1 815/82/1 816/80/1
f 817/97/1 818/98/1 819/84/1 820/82/1
f 821/98/1 822/99/1 823/86/1 824/84/1
f 825/99/1 826/100/1 827/88/1 828/86/1
f 829/100/1 830/101/1 831/90/1 832/88/1
f 833/74/1 834/75/1 835/71/1 836/68/1
f 837/74/1 838/75/1 839/71/1 840/68/1
f 841/74/1 842/75/1 843/71/1 844/68/1
f 845/103/1 846/104/1 847/95/1 848/94/1
f 849/104/1 850/105/1 851/96/1 852/95/1
f 853/106/1 854/107/1 855/108/1 856/109/1
f 857/107/1 858/110/1 859/111/1 860/108/1
f 861/110/1 862/112/1 863/113/1 864/111/1
f 865/112/1 866/114/1 867/115/1 868/113/1
f 869/114/1 870/116/1 871/117/1 872/115/1
f 873/114/1 874/116/1 875/117/1 876/115/1
f 877/110/1 878/112/1 879/113/1 880/111/1
f 881/112/1 882/114/1 883/115/1 884/113/1
f 885/114/1 886/116/1 887/117/1 888/115/1
f 889/116/1 890/118/1 891/119/1 892/117/1
f 893/120/1 894/121/1 895/122/1 896/123/1
f 897/74/1 898/75/1 899/71/1 900/68/1
f 901/74/1 902/75/1 903/71/1 904/68/1
f 905/74/1 906/75/1 907/71/1 908/68/1
f 909/124/1 910/125/1 911/104/1 912/103/1
f 913/125/1 914/126/1 915/105/1 916/104/1
f 917/127/1 918/128/1 919/107/1 920/106/1
f 921/128/1 922/129/1 923/110/1 924/107/1
f 925/129/1 926/130/1 927/112/1 928/110/1
f 929/130/1 930/131/1 931/114/1 932/112/1
f 933/131/1 934/132/1 935/116/1 936/114/1
f 937/131/1 938/132/1 939/116/1 940/114/1
f 941/110/1 942/112/1 943/113/1 944/111/1
f 945/112/1 946/114/1 947/115/1 948/113/1
f 949/114/1 950/116/1 951/117/1 952/115/1
f 953/132/1 954/133/1 955/118/1 956/116/1
f 957/134/1 958/135/1 959/136/1 960/133/1

