# Tiled2Unity generated file. Do not modify by hand.
# Wavefront file for 'Rogue_mesh_0009.obj'

# Vertices (Count = 1024)
v 0 -8 0
v -8 -8 0
v -8 0 0
v 0 0 0
v -8 -8 0
v -16 -8 0
v -16 0 0
v -8 0 0
v -16 -8 0
v -24 -8 0
v -24 0 0
v -16 0 0
v -24 -8 0
v -32 -8 0
v -32 0 0
v -24 0 0
v -32 -8 0
v -40 -8 0
v -40 0 0
v -32 0 0
v -40 -8 0
v -48 -8 0
v -48 0 0
v -40 0 0
v -48 -8 0
v -56 -8 0
v -56 0 0
v -48 0 0
v -56 -8 0
v -64 -8 0
v -64 0 0
v -56 0 0
v -64 -8 0
v -72 -8 0
v -72 0 0
v -64 0 0
v -72 -8 0
v -80 -8 0
v -80 0 0
v -72 0 0
v -80 -8 0
v -88 -8 0
v -88 0 0
v -80 0 0
v -88 -8 0
v -96 -8 0
v -96 0 0
v -88 0 0
v -96 -8 0
v -104 -8 0
v -104 0 0
v -96 0 0
v -104 -8 0
v -112 -8 0
v -112 0 0
v -104 0 0
v -112 -8 0
v -120 -8 0
v -120 0 0
v -112 0 0
v -120 -8 0
v -128 -8 0
v -128 0 0
v -120 0 0
v 0 -16 0
v -8 -16 0
v -8 -8 0
v 0 -8 0
v -8 -16 0
v -16 -16 0
v -16 -8 0
v -8 -8 0
v -16 -16 0
v -24 -16 0
v -24 -8 0
v -16 -8 0
v -24 -16 0
v -32 -16 0
v -32 -8 0
v -24 -8 0
v -32 -16 0
v -40 -16 0
v -40 -8 0
v -32 -8 0
v -40 -16 0
v -48 -16 0
v -48 -8 0
v -40 -8 0
v -48 -16 0
v -56 -16 0
v -56 -8 0
v -48 -8 0
v -56 -16 0
v -64 -16 0
v -64 -8 0
v -56 -8 0
v -64 -16 0
v -72 -16 0
v -72 -8 0
v -64 -8 0
v -72 -16 0
v -80 -16 0
v -80 -8 0
v -72 -8 0
v -80 -16 0
v -88 -16 0
v -88 -8 0
v -80 -8 0
v -88 -16 0
v -96 -16 0
v -96 -8 0
v -88 -8 0
v -96 -16 0
v -104 -16 0
v -104 -8 0
v -96 -8 0
v -104 -16 0
v -112 -16 0
v -112 -8 0
v -104 -8 0
v -112 -16 0
v -120 -16 0
v -120 -8 0
v -112 -8 0
v -120 -16 0
v -128 -16 0
v -128 -8 0
v -120 -8 0
v 0 -24 0
v -8 -24 0
v -8 -16 0
v 0 -16 0
v -8 -24 0
v -16 -24 0
v -16 -16 0
v -8 -16 0
v -16 -24 0
v -24 -24 0
v -24 -16 0
v -16 -16 0
v -24 -24 0
v -32 -24 0
v -32 -16 0
v -24 -16 0
v -32 -24 0
v -40 -24 0
v -40 -16 0
v -32 -16 0
v -40 -24 0
v -48 -24 0
v -48 -16 0
v -40 -16 0
v -48 -24 0
v -56 -24 0
v -56 -16 0
v -48 -16 0
v -56 -24 0
v -64 -24 0
v -64 -16 0
v -56 -16 0
v -64 -24 0
v -72 -24 0
v -72 -16 0
v -64 -16 0
v -72 -24 0
v -80 -24 0
v -80 -16 0
v -72 -16 0
v -80 -24 0
v -88 -24 0
v -88 -16 0
v -80 -16 0
v -88 -24 0
v -96 -24 0
v -96 -16 0
v -88 -16 0
v -96 -24 0
v -104 -24 0
v -104 -16 0
v -96 -16 0
v -104 -24 0
v -112 -24 0
v -112 -16 0
v -104 -16 0
v -112 -24 0
v -120 -24 0
v -120 -16 0
v -112 -16 0
v -120 -24 0
v -128 -24 0
v -128 -16 0
v -120 -16 0
v 0 -32 0
v -8 -32 0
v -8 -24 0
v 0 -24 0
v -8 -32 0
v -16 -32 0
v -16 -24 0
v -8 -24 0
v -16 -32 0
v -24 -32 0
v -24 -24 0
v -16 -24 0
v -24 -32 0
v -32 -32 0
v -32 -24 0
v -24 -24 0
v -32 -32 0
v -40 -32 0
v -40 -24 0
v -32 -24 0
v -40 -32 0
v -48 -32 0
v -48 -24 0
v -40 -24 0
v -48 -32 0
v -56 -32 0
v -56 -24 0
v -48 -24 0
v -56 -32 0
v -64 -32 0
v -64 -24 0
v -56 -24 0
v -64 -32 0
v -72 -32 0
v -72 -24 0
v -64 -24 0
v -72 -32 0
v -80 -32 0
v -80 -24 0
v -72 -24 0
v -80 -32 0
v -88 -32 0
v -88 -24 0
v -80 -24 0
v -88 -32 0
v -96 -32 0
v -96 -24 0
v -88 -24 0
v -96 -32 0
v -104 -32 0
v -104 -24 0
v -96 -24 0
v -104 -32 0
v -112 -32 0
v -112 -24 0
v -104 -24 0
v -112 -32 0
v -120 -32 0
v -120 -24 0
v -112 -24 0
v -120 -32 0
v -128 -32 0
v -128 -24 0
v -120 -24 0
v 0 -40 0
v -8 -40 0
v -8 -32 0
v 0 -32 0
v -8 -40 0
v -16 -40 0
v -16 -32 0
v -8 -32 0
v -16 -40 0
v -24 -40 0
v -24 -32 0
v -16 -32 0
v -24 -40 0
v -32 -40 0
v -32 -32 0
v -24 -32 0
v -32 -40 0
v -40 -40 0
v -40 -32 0
v -32 -32 0
v -40 -40 0
v -48 -40 0
v -48 -32 0
v -40 -32 0
v -48 -40 0
v -56 -40 0
v -56 -32 0
v -48 -32 0
v -56 -40 0
v -64 -40 0
v -64 -32 0
v -56 -32 0
v -64 -40 0
v -72 -40 0
v -72 -32 0
v -64 -32 0
v -72 -40 0
v -80 -40 0
v -80 -32 0
v -72 -32 0
v -80 -40 0
v -88 -40 0
v -88 -32 0
v -80 -32 0
v -88 -40 0
v -96 -40 0
v -96 -32 0
v -88 -32 0
v -96 -40 0
v -104 -40 0
v -104 -32 0
v -96 -32 0
v -104 -40 0
v -112 -40 0
v -112 -32 0
v -104 -32 0
v -112 -40 0
v -120 -40 0
v -120 -32 0
v -112 -32 0
v -120 -40 0
v -128 -40 0
v -128 -32 0
v -120 -32 0
v 0 -48 0
v -8 -48 0
v -8 -40 0
v 0 -40 0
v -8 -48 0
v -16 -48 0
v -16 -40 0
v -8 -40 0
v -16 -48 0
v -24 -48 0
v -24 -40 0
v -16 -40 0
v -24 -48 0
v -32 -48 0
v -32 -40 0
v -24 -40 0
v -32 -48 0
v -40 -48 0
v -40 -40 0
v -32 -40 0
v -40 -48 0
v -48 -48 0
v -48 -40 0
v -40 -40 0
v -48 -48 0
v -56 -48 0
v -56 -40 0
v -48 -40 0
v -56 -48 0
v -64 -48 0
v -64 -40 0
v -56 -40 0
v -64 -48 0
v -72 -48 0
v -72 -40 0
v -64 -40 0
v -72 -48 0
v -80 -48 0
v -80 -40 0
v -72 -40 0
v -80 -48 0
v -88 -48 0
v -88 -40 0
v -80 -40 0
v -88 -48 0
v -96 -48 0
v -96 -40 0
v -88 -40 0
v -96 -48 0
v -104 -48 0
v -104 -40 0
v -96 -40 0
v -104 -48 0
v -112 -48 0
v -112 -40 0
v -104 -40 0
v -112 -48 0
v -120 -48 0
v -120 -40 0
v -112 -40 0
v -120 -48 0
v -128 -48 0
v -128 -40 0
v -120 -40 0
v 0 -56 0
v -8 -56 0
v -8 -48 0
v 0 -48 0
v -8 -56 0
v -16 -56 0
v -16 -48 0
v -8 -48 0
v -16 -56 0
v -24 -56 0
v -24 -48 0
v -16 -48 0
v -24 -56 0
v -32 -56 0
v -32 -48 0
v -24 -48 0
v -32 -56 0
v -40 -56 0
v -40 -48 0
v -32 -48 0
v -40 -56 0
v -48 -56 0
v -48 -48 0
v -40 -48 0
v -48 -56 0
v -56 -56 0
v -56 -48 0
v -48 -48 0
v -56 -56 0
v -64 -56 0
v -64 -48 0
v -56 -48 0
v -64 -56 0
v -72 -56 0
v -72 -48 0
v -64 -48 0
v -72 -56 0
v -80 -56 0
v -80 -48 0
v -72 -48 0
v -80 -56 0
v -88 -56 0
v -88 -48 0
v -80 -48 0
v -88 -56 0
v -96 -56 0
v -96 -48 0
v -88 -48 0
v -96 -56 0
v -104 -56 0
v -104 -48 0
v -96 -48 0
v -104 -56 0
v -112 -56 0
v -112 -48 0
v -104 -48 0
v -112 -56 0
v -120 -56 0
v -120 -48 0
v -112 -48 0
v -120 -56 0
v -128 -56 0
v -128 -48 0
v -120 -48 0
v 0 -64 0
v -8 -64 0
v -8 -56 0
v 0 -56 0
v -8 -64 0
v -16 -64 0
v -16 -56 0
v -8 -56 0
v -16 -64 0
v -24 -64 0
v -24 -56 0
v -16 -56 0
v -24 -64 0
v -32 -64 0
v -32 -56 0
v -24 -56 0
v -32 -64 0
v -40 -64 0
v -40 -56 0
v -32 -56 0
v -40 -64 0
v -48 -64 0
v -48 -56 0
v -40 -56 0
v -48 -64 0
v -56 -64 0
v -56 -56 0
v -48 -56 0
v -56 -64 0
v -64 -64 0
v -64 -56 0
v -56 -56 0
v -64 -64 0
v -72 -64 0
v -72 -56 0
v -64 -56 0
v -72 -64 0
v -80 -64 0
v -80 -56 0
v -72 -56 0
v -80 -64 0
v -88 -64 0
v -88 -56 0
v -80 -56 0
v -88 -64 0
v -96 -64 0
v -96 -56 0
v -88 -56 0
v -96 -64 0
v -104 -64 0
v -104 -56 0
v -96 -56 0
v -104 -64 0
v -112 -64 0
v -112 -56 0
v -104 -56 0
v -112 -64 0
v -120 -64 0
v -120 -56 0
v -112 -56 0
v -120 -64 0
v -128 -64 0
v -128 -56 0
v -120 -56 0
v 0 -72 0
v -8 -72 0
v -8 -64 0
v 0 -64 0
v -8 -72 0
v -16 -72 0
v -16 -64 0
v -8 -64 0
v -16 -72 0
v -24 -72 0
v -24 -64 0
v -16 -64 0
v -24 -72 0
v -32 -72 0
v -32 -64 0
v -24 -64 0
v -32 -72 0
v -40 -72 0
v -40 -64 0
v -32 -64 0
v -40 -72 0
v -48 -72 0
v -48 -64 0
v -40 -64 0
v -48 -72 0
v -56 -72 0
v -56 -64 0
v -48 -64 0
v -56 -72 0
v -64 -72 0
v -64 -64 0
v -56 -64 0
v -64 -72 0
v -72 -72 0
v -72 -64 0
v -64 -64 0
v -72 -72 0
v -80 -72 0
v -80 -64 0
v -72 -64 0
v -80 -72 0
v -88 -72 0
v -88 -64 0
v -80 -64 0
v -88 -72 0
v -96 -72 0
v -96 -64 0
v -88 -64 0
v -96 -72 0
v -104 -72 0
v -104 -64 0
v -96 -64 0
v -104 -72 0
v -112 -72 0
v -112 -64 0
v -104 -64 0
v -112 -72 0
v -120 -72 0
v -120 -64 0
v -112 -64 0
v -120 -72 0
v -128 -72 0
v -128 -64 0
v -120 -64 0
v 0 -80 0
v -8 -80 0
v -8 -72 0
v 0 -72 0
v -8 -80 0
v -16 -80 0
v -16 -72 0
v -8 -72 0
v -16 -80 0
v -24 -80 0
v -24 -72 0
v -16 -72 0
v -24 -80 0
v -32 -80 0
v -32 -72 0
v -24 -72 0
v -32 -80 0
v -40 -80 0
v -40 -72 0
v -32 -72 0
v -40 -80 0
v -48 -80 0
v -48 -72 0
v -40 -72 0
v -48 -80 0
v -56 -80 0
v -56 -72 0
v -48 -72 0
v -56 -80 0
v -64 -80 0
v -64 -72 0
v -56 -72 0
v -64 -80 0
v -72 -80 0
v -72 -72 0
v -64 -72 0
v -72 -80 0
v -80 -80 0
v -80 -72 0
v -72 -72 0
v -80 -80 0
v -88 -80 0
v -88 -72 0
v -80 -72 0
v -88 -80 0
v -96 -80 0
v -96 -72 0
v -88 -72 0
v -96 -80 0
v -104 -80 0
v -104 -72 0
v -96 -72 0
v -104 -80 0
v -112 -80 0
v -112 -72 0
v -104 -72 0
v -112 -80 0
v -120 -80 0
v -120 -72 0
v -112 -72 0
v -120 -80 0
v -128 -80 0
v -128 -72 0
v -120 -72 0
v 0 -88 0
v -8 -88 0
v -8 -80 0
v 0 -80 0
v -8 -88 0
v -16 -88 0
v -16 -80 0
v -8 -80 0
v -16 -88 0
v -24 -88 0
v -24 -80 0
v -16 -80 0
v -24 -88 0
v -32 -88 0
v -32 -80 0
v -24 -80 0
v -32 -88 0
v -40 -88 0
v -40 -80 0
v -32 -80 0
v -40 -88 0
v -48 -88 0
v -48 -80 0
v -40 -80 0
v -48 -88 0
v -56 -88 0
v -56 -80 0
v -48 -80 0
v -56 -88 0
v -64 -88 0
v -64 -80 0
v -56 -80 0
v -64 -88 0
v -72 -88 0
v -72 -80 0
v -64 -80 0
v -72 -88 0
v -80 -88 0
v -80 -80 0
v -72 -80 0
v -80 -88 0
v -88 -88 0
v -88 -80 0
v -80 -80 0
v -88 -88 0
v -96 -88 0
v -96 -80 0
v -88 -80 0
v -96 -88 0
v -104 -88 0
v -104 -80 0
v -96 -80 0
v -104 -88 0
v -112 -88 0
v -112 -80 0
v -104 -80 0
v -112 -88 0
v -120 -88 0
v -120 -80 0
v -112 -80 0
v -120 -88 0
v -128 -88 0
v -128 -80 0
v -120 -80 0
v 0 -96 0
v -8 -96 0
v -8 -88 0
v 0 -88 0
v -8 -96 0
v -16 -96 0
v -16 -88 0
v -8 -88 0
v -16 -96 0
v -24 -96 0
v -24 -88 0
v -16 -88 0
v -24 -96 0
v -32 -96 0
v -32 -88 0
v -24 -88 0
v -32 -96 0
v -40 -96 0
v -40 -88 0
v -32 -88 0
v -40 -96 0
v -48 -96 0
v -48 -88 0
v -40 -88 0
v -48 -96 0
v -56 -96 0
v -56 -88 0
v -48 -88 0
v -56 -96 0
v -64 -96 0
v -64 -88 0
v -56 -88 0
v -64 -96 0
v -72 -96 0
v -72 -88 0
v -64 -88 0
v -72 -96 0
v -80 -96 0
v -80 -88 0
v -72 -88 0
v -80 -96 0
v -88 -96 0
v -88 -88 0
v -80 -88 0
v -88 -96 0
v -96 -96 0
v -96 -88 0
v -88 -88 0
v -96 -96 0
v -104 -96 0
v -104 -88 0
v -96 -88 0
v -104 -96 0
v -112 -96 0
v -112 -88 0
v -104 -88 0
v -112 -96 0
v -120 -96 0
v -120 -88 0
v -112 -88 0
v -120 -96 0
v -128 -96 0
v -128 -88 0
v -120 -88 0
v 0 -104 0
v -8 -104 0
v -8 -96 0
v 0 -96 0
v -8 -104 0
v -16 -104 0
v -16 -96 0
v -8 -96 0
v -16 -104 0
v -24 -104 0
v -24 -96 0
v -16 -96 0
v -24 -104 0
v -32 -104 0
v -32 -96 0
v -24 -96 0
v -32 -104 0
v -40 -104 0
v -40 -96 0
v -32 -96 0
v -40 -104 0
v -48 -104 0
v -48 -96 0
v -40 -96 0
v -48 -104 0
v -56 -104 0
v -56 -96 0
v -48 -96 0
v -56 -104 0
v -64 -104 0
v -64 -96 0
v -56 -96 0
v -64 -104 0
v -72 -104 0
v -72 -96 0
v -64 -96 0
v -72 -104 0
v -80 -104 0
v -80 -96 0
v -72 -96 0
v -80 -104 0
v -88 -104 0
v -88 -96 0
v -80 -96 0
v -88 -104 0
v -96 -104 0
v -96 -96 0
v -88 -96 0
v -96 -104 0
v -104 -104 0
v -104 -96 0
v -96 -96 0
v -104 -104 0
v -112 -104 0
v -112 -96 0
v -104 -96 0
v -112 -104 0
v -120 -104 0
v -120 -96 0
v -112 -96 0
v -120 -104 0
v -128 -104 0
v -128 -96 0
v -120 -96 0
v 0 -112 0
v -8 -112 0
v -8 -104 0
v 0 -104 0
v -8 -112 0
v -16 -112 0
v -16 -104 0
v -8 -104 0
v -16 -112 0
v -24 -112 0
v -24 -104 0
v -16 -104 0
v -24 -112 0
v -32 -112 0
v -32 -104 0
v -24 -104 0
v -32 -112 0
v -40 -112 0
v -40 -104 0
v -32 -104 0
v -40 -112 0
v -48 -112 0
v -48 -104 0
v -40 -104 0
v -48 -112 0
v -56 -112 0
v -56 -104 0
v -48 -104 0
v -56 -112 0
v -64 -112 0
v -64 -104 0
v -56 -104 0
v -64 -112 0
v -72 -112 0
v -72 -104 0
v -64 -104 0
v -72 -112 0
v -80 -112 0
v -80 -104 0
v -72 -104 0
v -80 -112 0
v -88 -112 0
v -88 -104 0
v -80 -104 0
v -88 -112 0
v -96 -112 0
v -96 -104 0
v -88 -104 0
v -96 -112 0
v -104 -112 0
v -104 -104 0
v -96 -104 0
v -104 -112 0
v -112 -112 0
v -112 -104 0
v -104 -104 0
v -112 -112 0
v -120 -112 0
v -120 -104 0
v -112 -104 0
v -120 -112 0
v -128 -112 0
v -128 -104 0
v -120 -104 0
v 0 -120 0
v -8 -120 0
v -8 -112 0
v 0 -112 0
v -8 -120 0
v -16 -120 0
v -16 -112 0
v -8 -112 0
v -16 -120 0
v -24 -120 0
v -24 -112 0
v -16 -112 0
v -24 -120 0
v -32 -120 0
v -32 -112 0
v -24 -112 0
v -32 -120 0
v -40 -120 0
v -40 -112 0
v -32 -112 0
v -40 -120 0
v -48 -120 0
v -48 -112 0
v -40 -112 0
v -48 -120 0
v -56 -120 0
v -56 -112 0
v -48 -112 0
v -56 -120 0
v -64 -120 0
v -64 -112 0
v -56 -112 0
v -64 -120 0
v -72 -120 0
v -72 -112 0
v -64 -112 0
v -72 -120 0
v -80 -120 0
v -80 -112 0
v -72 -112 0
v -80 -120 0
v -88 -120 0
v -88 -112 0
v -80 -112 0
v -88 -120 0
v -96 -120 0
v -96 -112 0
v -88 -112 0
v -96 -120 0
v -104 -120 0
v -104 -112 0
v -96 -112 0
v -104 -120 0
v -112 -120 0
v -112 -112 0
v -104 -112 0
v -112 -120 0
v -120 -120 0
v -120 -112 0
v -112 -112 0
v -120 -120 0
v -128 -120 0
v -128 -112 0
v -120 -112 0
v 0 -128 0
v -8 -128 0
v -8 -120 0
v 0 -120 0
v -8 -128 0
v -16 -128 0
v -16 -120 0
v -8 -120 0
v -16 -128 0
v -24 -128 0
v -24 -120 0
v -16 -120 0
v -24 -128 0
v -32 -128 0
v -32 -120 0
v -24 -120 0
v -32 -128 0
v -40 -128 0
v -40 -120 0
v -32 -120 0
v -40 -128 0
v -48 -128 0
v -48 -120 0
v -40 -120 0
v -48 -128 0
v -56 -128 0
v -56 -120 0
v -48 -120 0
v -56 -128 0
v -64 -128 0
v -64 -120 0
v -56 -120 0
v -64 -128 0
v -72 -128 0
v -72 -120 0
v -64 -120 0
v -72 -128 0
v -80 -128 0
v -80 -120 0
v -72 -120 0
v -80 -128 0
v -88 -128 0
v -88 -120 0
v -80 -120 0
v -88 -128 0
v -96 -128 0
v -96 -120 0
v -88 -120 0
v -96 -128 0
v -104 -128 0
v -104 -120 0
v -96 -120 0
v -104 -128 0
v -112 -128 0
v -112 -120 0
v -104 -120 0
v -112 -128 0
v -120 -128 0
v -120 -120 0
v -112 -120 0
v -120 -128 0
v -128 -128 0
v -128 -120 0
v -120 -120 0

# Texture cooridinates (Count = 108)
vt 0.2058824 0.7244898
vt 0.2205882 0.7244898
vt 0.2205882 0.7346939
vt 0.2058824 0.7346939
vt 0.2352941 0.7244898
vt 0.2352941 0.7346939
vt 0.2352941 0.9081632
vt 0.25 0.9081632
vt 0.25 0.9183673
vt 0.2352941 0.9183673
vt 0.4411765 0.8979592
vt 0.4558823 0.8979592
vt 0.4558823 0.9081632
vt 0.4411765 0.9081632
vt 0.4264706 0.8877551
vt 0.4411765 0.8877551
vt 0.4264706 0.8979592
vt 0.4558823 0.8877551
vt 0.4264706 0.9081632
vt 0.4705882 0.7959183
vt 0.4852941 0.7959183
vt 0.4852941 0.8061224
vt 0.4705882 0.8061224
vt 0.5 0.7959183
vt 0.5 0.8061224
vt 0.2058824 0.7142857
vt 0.2205882 0.7142857
vt 0.2352941 0.7142857
vt 0.2352941 0.8979592
vt 0.25 0.8979592
vt 0.4705882 0.7857143
vt 0.4852941 0.7857143
vt 0.5 0.7857143
vt 0.2058824 0.7040817
vt 0.2205882 0.7040817
vt 0.2352941 0.7040817
vt 0.25 0.9285714
vt 0.2352941 0.9285714
vt 0.4852941 0.8163265
vt 0.4705882 0.8163265
vt 0.5 0.8163265
vt 0.2058824 0.6938776
vt 0.2205882 0.6938776
vt 0.2352941 0.6938776
vt 0.2058824 0.7653061
vt 0.2205882 0.7653061
vt 0.2205882 0.7755102
vt 0.2058824 0.7755102
vt 0.2352941 0.7653061
vt 0.2352941 0.7755102
vt 0.3823529 0.7857143
vt 0.3970588 0.7857143
vt 0.3970588 0.7959183
vt 0.3823529 0.7959183
vt 0.4117647 0.7857143
vt 0.4117647 0.7959183
vt 0.6176471 0.7857143
vt 0.6323529 0.7857143
vt 0.6323529 0.7959183
vt 0.6176471 0.7959183
vt 0.2058824 0.755102
vt 0.2205882 0.755102
vt 0.2352941 0.755102
vt 0.3823529 0.7755102
vt 0.3970588 0.7755102
vt 0.4117647 0.7755102
vt 0.2058824 0.744898
vt 0.2205882 0.744898
vt 0.2352941 0.744898
vt 0.2352941 0.9489796
vt 0.25 0.9489796
vt 0.25 0.9591837
vt 0.2352941 0.9591837
vt 0.2647059 0.9489796
vt 0.2647059 0.9591837
vt 0.3823529 0.755102
vt 0.3970588 0.755102
vt 0.3970588 0.7653061
vt 0.3823529 0.7653061
vt 0.5882353 0.7653061
vt 0.6029412 0.7653061
vt 0.6029412 0.7755102
vt 0.5882353 0.7755102
vt 0.4117647 0.755102
vt 0.4117647 0.7653061
vt 0.4705882 0.7653061
vt 0.4852941 0.7653061
vt 0.4852941 0.7755102
vt 0.4705882 0.7755102
vt 0.5 0.7653061
vt 0.5 0.7755102
vt 0.5882353 0.755102
vt 0.6029412 0.755102
vt 0.2352941 0.9387755
vt 0.25 0.9387755
vt 0.2647059 0.9387755
vt 0.4705882 0.755102
vt 0.4852941 0.755102
vt 0.5 0.755102
vt 0.25 0.744898
vt 0.25 0.755102
vt 0.2647059 0.744898
vt 0.2647059 0.755102
vt 0.3676471 0.755102
vt 0.3676471 0.744898
vt 0.3823529 0.744898
vt 0.3676471 0.7346939
vt 0.3823529 0.7346939

# Normal
vn 0 0 -1

# Mesh description
g Rogue_mesh_0009

# Faces
f 1/1/1 2/2/1 3/3/1 4/4/1
f 5/2/1 6/5/1 7/6/1 8/3/1
f 9/7/1 10/8/1 11/9/1 12/10/1
f 13/11/1 14/12/1 15/13/1 16/14/1
f 17/15/1 18/16/1 19/11/1 20/17/1
f 21/16/1 22/18/1 23/12/1 24/11/1
f 25/15/1 26/16/1 27/11/1 28/17/1
f 29/15/1 30/16/1 31/11/1 32/17/1
f 33/16/1 34/18/1 35/12/1 36/11/1
f 37/11/1 38/12/1 39/13/1 40/14/1
f 41/15/1 42/16/1 43/11/1 44/17/1
f 45/15/1 46/16/1 47/11/1 48/17/1
f 49/17/1 50/11/1 51/14/1 52/19/1
f 53/17/1 54/11/1 55/14/1 56/19/1
f 57/20/1 58/21/1 59/22/1 60/23/1
f 61/21/1 62/24/1 63/25/1 64/22/1
f 65/26/1 66/27/1 67/2/1 68/1/1
f 69/27/1 70/28/1 71/5/1 72/2/1
f 73/29/1 74/30/1 75/8/1 76/7/1
f 77/11/1 78/12/1 79/13/1 80/14/1
f 81/15/1 82/16/1 83/11/1 84/17/1
f 85/15/1 86/16/1 87/11/1 88/17/1
f 89/16/1 90/18/1 91/12/1 92/11/1
f 93/15/1 94/16/1 95/11/1 96/17/1
f 97/16/1 98/18/1 99/12/1 100/11/1
f 101/11/1 102/12/1 103/13/1 104/14/1
f 105/17/1 106/11/1 107/14/1 108/19/1
f 109/17/1 110/11/1 111/14/1 112/19/1
f 113/11/1 114/12/1 115/13/1 116/14/1
f 117/15/1 118/16/1 119/11/1 120/17/1
f 121/31/1 122/32/1 123/21/1 124/20/1
f 125/32/1 126/33/1 127/24/1 128/21/1
f 129/34/1 130/35/1 131/27/1 132/26/1
f 133/35/1 134/36/1 135/28/1 136/27/1
f 137/10/1 138/9/1 139/37/1 140/38/1
f 141/17/1 142/11/1 143/14/1 144/19/1
f 145/17/1 146/11/1 147/14/1 148/19/1
f 149/15/1 150/16/1 151/11/1 152/17/1
f 153/16/1 154/18/1 155/12/1 156/11/1
f 157/15/1 158/16/1 159/11/1 160/17/1
f 161/16/1 162/18/1 163/12/1 164/11/1
f 165/17/1 166/11/1 167/14/1 168/19/1
f 169/15/1 170/16/1 171/11/1 172/17/1
f 173/17/1 174/11/1 175/14/1 176/19/1
f 177/11/1 178/12/1 179/13/1 180/14/1
f 181/15/1 182/16/1 183/11/1 184/17/1
f 185/23/1 186/22/1 187/39/1 188/40/1
f 189/22/1 190/25/1 191/41/1 192/39/1
f 193/42/1 194/43/1 195/35/1 196/34/1
f 197/43/1 198/44/1 199/36/1 200/35/1
f 201/10/1 202/9/1 203/37/1 204/38/1
f 205/15/1 206/16/1 207/11/1 208/17/1
f 209/17/1 210/11/1 211/14/1 212/19/1
f 213/15/1 214/16/1 215/11/1 216/17/1
f 217/16/1 218/18/1 219/12/1 220/11/1
f 221/17/1 222/11/1 223/14/1 224/19/1
f 225/11/1 226/12/1 227/13/1 228/14/1
f 229/15/1 230/16/1 231/11/1 232/17/1
f 233/15/1 234/16/1 235/11/1 236/17/1
f 237/17/1 238/11/1 239/14/1 240/19/1
f 241/11/1 242/12/1 243/13/1 244/14/1
f 245/15/1 246/16/1 247/11/1 248/17/1
f 249/20/1 250/21/1 251/22/1 252/23/1
f 253/21/1 254/24/1 255/25/1 256/22/1
f 257/45/1 258/46/1 259/47/1 260/48/1
f 261/46/1 262/49/1 263/50/1 264/47/1
f 265/51/1 266/52/1 267/53/1 268/54/1
f 269/52/1 270/55/1 271/56/1 272/53/1
f 273/51/1 274/52/1 275/53/1 276/54/1
f 277/52/1 278/55/1 279/56/1 280/53/1
f 281/51/1 282/52/1 283/53/1 284/54/1
f 285/57/1 286/58/1 287/59/1 288/60/1
f 289/51/1 290/52/1 291/53/1 292/54/1
f 293/57/1 294/58/1 295/59/1 296/60/1
f 297/51/1 298/52/1 299/53/1 300/54/1
f 301/52/1 302/55/1 303/56/1 304/53/1
f 305/51/1 306/52/1 307/53/1 308/54/1
f 309/52/1 310/55/1 311/56/1 312/53/1
f 313/31/1 314/32/1 315/21/1 316/20/1
f 317/32/1 318/33/1 319/24/1 320/21/1
f 321/61/1 322/62/1 323/46/1 324/45/1
f 325/62/1 326/63/1 327/49/1 328/46/1
f 329/64/1 330/65/1 331/52/1 332/51/1
f 333/65/1 334/66/1 335/55/1 336/52/1
f 337/64/1 338/65/1 339/52/1 340/51/1
f 341/65/1 342/66/1 343/55/1 344/52/1
f 345/64/1 346/65/1 347/52/1 348/51/1
f 349/65/1 350/66/1 351/55/1 352/52/1
f 353/64/1 354/65/1 355/52/1 356/51/1
f 357/65/1 358/66/1 359/55/1 360/52/1
f 361/64/1 362/65/1 363/52/1 364/51/1
f 365/65/1 366/66/1 367/55/1 368/52/1
f 369/64/1 370/65/1 371/52/1 372/51/1
f 373/65/1 374/66/1 375/55/1 376/52/1
f 377/64/1 378/65/1 379/52/1 380/51/1
f 381/65/1 382/66/1 383/55/1 384/52/1
f 385/67/1 386/68/1 387/62/1 388/61/1
f 389/68/1 390/69/1 391/63/1 392/62/1
f 393/70/1 394/71/1 395/72/1 396/73/1
f 397/71/1 398/74/1 399/75/1 400/72/1
f 401/76/1 402/77/1 403/78/1 404/79/1
f 405/80/1 406/81/1 407/82/1 408/83/1
f 409/76/1 410/77/1 411/78/1 412/79/1
f 413/77/1 414/84/1 415/85/1 416/78/1
f 417/76/1 418/77/1 419/78/1 420/79/1
f 421/77/1 422/84/1 423/85/1 424/78/1
f 425/76/1 426/77/1 427/78/1 428/79/1
f 429/77/1 430/84/1 431/85/1 432/78/1
f 433/76/1 434/77/1 435/78/1 436/79/1
f 437/80/1 438/81/1 439/82/1 440/83/1
f 441/76/1 442/77/1 443/78/1 444/79/1
f 445/80/1 446/81/1 447/82/1 448/83/1
f 449/4/1 450/3/1 451/68/1 452/67/1
f 453/3/1 454/6/1 455/69/1 456/68/1
f 457/70/1 458/71/1 459/72/1 460/73/1
f 461/71/1 462/74/1 463/75/1 464/72/1
f 465/76/1 466/77/1 467/78/1 468/79/1
f 469/80/1 470/81/1 471/82/1 472/83/1
f 473/76/1 474/77/1 475/78/1 476/79/1
f 477/77/1 478/84/1 479/85/1 480/78/1
f 481/86/1 482/87/1 483/88/1 484/89/1
f 485/87/1 486/90/1 487/91/1 488/88/1
f 489/76/1 490/77/1 491/78/1 492/79/1
f 493/77/1 494/84/1 495/85/1 496/78/1
f 497/76/1 498/77/1 499/78/1 500/79/1
f 501/80/1 502/81/1 503/82/1 504/83/1
f 505/76/1 506/77/1 507/78/1 508/79/1
f 509/92/1 510/93/1 511/81/1 512/80/1
f 513/1/1 514/2/1 515/3/1 516/4/1
f 517/2/1 518/5/1 519/6/1 520/3/1
f 521/94/1 522/95/1 523/71/1 524/70/1
f 525/95/1 526/96/1 527/74/1 528/71/1
f 529/76/1 530/77/1 531/78/1 532/79/1
f 533/92/1 534/93/1 535/81/1 536/80/1
f 537/76/1 538/77/1 539/78/1 540/79/1
f 541/77/1 542/84/1 543/85/1 544/78/1
f 545/97/1 546/98/1 547/87/1 548/86/1
f 549/98/1 550/99/1 551/90/1 552/87/1
f 553/76/1 554/77/1 555/78/1 556/79/1
f 557/77/1 558/84/1 559/85/1 560/78/1
f 561/76/1 562/77/1 563/78/1 564/79/1
f 565/92/1 566/93/1 567/81/1 568/80/1
f 569/76/1 570/77/1 571/78/1 572/79/1
f 573/77/1 574/84/1 575/85/1 576/78/1
f 577/26/1 578/27/1 579/2/1 580/1/1
f 581/27/1 582/28/1 583/5/1 584/2/1
f 585/69/1 586/100/1 587/101/1 588/63/1
f 589/100/1 590/102/1 591/103/1 592/101/1
f 593/100/1 594/102/1 595/103/1 596/101/1
f 597/100/1 598/102/1 599/103/1 600/101/1
f 601/100/1 602/102/1 603/103/1 604/101/1
f 605/100/1 606/102/1 607/103/1 608/101/1
f 609/100/1 610/102/1 611/103/1 612/101/1
f 613/100/1 614/102/1 615/103/1 616/101/1
f 617/100/1 618/102/1 619/103/1 620/101/1
f 621/100/1 622/102/1 623/103/1 624/101/1
f 625/100/1 626/102/1 627/103/1 628/101/1
f 629/100/1 630/102/1 631/103/1 632/101/1
f 633/100/1 634/102/1 635/103/1 636/101/1
f 637/100/1 638/102/1 639/103/1 640/101/1
f 641/34/1 642/35/1 643/27/1 644/26/1
f 645/35/1 646/36/1 647/28/1 648/27/1
f 649/7/1 650/8/1 651/9/1 652/10/1
f 653/17/1 654/11/1 655/14/1 656/19/1
f 657/11/1 658/12/1 659/13/1 660/14/1
f 661/15/1 662/16/1 663/11/1 664/17/1
f 665/15/1 666/16/1 667/11/1 668/17/1
f 669/17/1 670/11/1 671/14/1 672/19/1
f 673/15/1 674/16/1 675/11/1 676/17/1
f 677/15/1 678/16/1 679/11/1 680/17/1
f 681/17/1 682/11/1 683/14/1 684/19/1
f 685/15/1 686/16/1 687/11/1 688/17/1
f 689/16/1 690/18/1 691/12/1 692/11/1
f 693/16/1 694/18/1 695/12/1 696/11/1
f 697/15/1 698/16/1 699/11/1 700/17/1
f 701/16/1 702/18/1 703/12/1 704/11/1
f 705/42/1 706/43/1 707/35/1 708/34/1
f 709/43/1 710/44/1 711/36/1 712/35/1
f 713/29/1 714/30/1 715/8/1 716/7/1
f 717/17/1 718/11/1 719/14/1 720/19/1
f 721/11/1 722/12/1 723/13/1 724/14/1
f 725/15/1 726/16/1 727/11/1 728/17/1
f 729/15/1 730/16/1 731/11/1 732/17/1
f 733/15/1 734/16/1 735/11/1 736/17/1
f 737/16/1 738/18/1 739/12/1 740/11/1
f 741/15/1 742/16/1 743/11/1 744/17/1
f 745/15/1 746/16/1 747/11/1 748/17/1
f 749/15/1 750/16/1 751/11/1 752/17/1
f 753/16/1 754/18/1 755/12/1 756/11/1
f 757/17/1 758/11/1 759/14/1 760/19/1
f 761/17/1 762/11/1 763/14/1 764/19/1
f 765/15/1 766/16/1 767/11/1 768/17/1
f 769/45/1 770/46/1 771/47/1 772/48/1
f 773/46/1 774/49/1 775/50/1 776/47/1
f 777/10/1 778/9/1 779/37/1 780/38/1
f 781/17/1 782/11/1 783/14/1 784/19/1
f 785/11/1 786/12/1 787/13/1 788/14/1
f 789/15/1 790/16/1 791/11/1 792/17/1
f 793/15/1 794/16/1 795/11/1 796/17/1
f 797/15/1 798/16/1 799/11/1 800/17/1
f 801/16/1 802/18/1 803/12/1 804/11/1
f 805/15/1 806/16/1 807/11/1 808/17/1
f 809/15/1 810/16/1 811/11/1 812/17/1
f 813/16/1 814/18/1 815/12/1 816/11/1
f 817/15/1 818/16/1 819/11/1 820/17/1
f 821/15/1 822/16/1 823/11/1 824/17/1
f 825/15/1 826/16/1 827/11/1 828/17/1
f 829/16/1 830/18/1 831/12/1 832/11/1
f 833/61/1 834/62/1 835/46/1 836/45/1
f 837/62/1 838/63/1 839/49/1 840/46/1
f 841/10/1 842/9/1 843/37/1 844/38/1
f 845/17/1 846/11/1 847/14/1 848/19/1
f 849/17/1 850/11/1 851/14/1 852/19/1
f 853/15/1 854/16/1 855/11/1 856/17/1
f 857/15/1 858/16/1 859/11/1 860/17/1
f 861/15/1 862/16/1 863/11/1 864/17/1
f 865/16/1 866/18/1 867/12/1 868/11/1
f 869/11/1 870/12/1 871/13/1 872/14/1
f 873/15/1 874/16/1 875/11/1 876/17/1
f 877/16/1 878/18/1 879/12/1 880/11/1
f 881/15/1 882/16/1 883/11/1 884/17/1
f 885/16/1 886/18/1 887/12/1 888/11/1
f 889/15/1 890/16/1 891/11/1 892/17/1
f 893/16/1 894/18/1 895/12/1 896/11/1
f 897/67/1 898/68/1 899/62/1 900/61/1
f 901/68/1 902/69/1 903/63/1 904/62/1
f 905/10/1 906/9/1 907/37/1 908/38/1
f 909/17/1 910/11/1 911/14/1 912/19/1
f 913/15/1 914/16/1 915/11/1 916/17/1
f 917/16/1 918/18/1 919/12/1 920/11/1
f 921/15/1 922/16/1 923/11/1 924/17/1
f 925/15/1 926/16/1 927/11/1 928/17/1
f 929/16/1 930/18/1 931/12/1 932/11/1
f 933/17/1 934/11/1 935/14/1 936/19/1
f 937/15/1 938/16/1 939/11/1 940/17/1
f 941/16/1 942/18/1 943/12/1 944/11/1
f 945/17/1 946/11/1 947/14/1 948/19/1
f 949/17/1 950/11/1 951/14/1 952/19/1
f 953/15/1 954/16/1 955/11/1 956/17/1
f 957/16/1 958/18/1 959/12/1 960/11/1
f 961/4/1 962/3/1 963/68/1 964/67/1
f 965/3/1 966/6/1 967/69/1 968/68/1
f 969/10/1 970/9/1 971/37/1 972/38/1
f 973/17/1 974/11/1 975/14/1 976/19/1
f 977/15/1 978/16/1 979/11/1 980/17/1
f 981/16/1 982/18/1 983/12/1 984/11/1
f 985/15/1 986/16/1 987/11/1 988/17/1
f 989/16/1 990/18/1 991/12/1 992/11/1
f 993/15/1 994/16/1 995/11/1 996/17/1
f 997/15/1 998/16/1 999/11/1 1000/17/1
f 1001/17/1 1002/11/1 1003/14/1 1004/19/1
f 1005/17/1 1006/11/1 1007/14/1 1008/19/1
f 1009/17/1 1010/11/1 1011/14/1 1012/19/1
f 1013/15/1 1014/16/1 1015/11/1 1016/17/1
f 1017/104/1 1018/105/1 1019/106/1 1020/76/1
f 1021/105/1 1022/107/1 1023/108/1 1024/106/1

