# Tiled2Unity generated file. Do not modify by hand.
# Wavefront file for 'Rogue_mesh_0012.obj'

# Vertices (Count = 1024)
v 0 -8 0
v -8 -8 0
v -8 0 0
v 0 0 0
v -8 -8 0
v -16 -8 0
v -16 0 0
v -8 0 0
v -16 -8 0
v -24 -8 0
v -24 0 0
v -16 0 0
v -24 -8 0
v -32 -8 0
v -32 0 0
v -24 0 0
v -32 -8 0
v -40 -8 0
v -40 0 0
v -32 0 0
v -40 -8 0
v -48 -8 0
v -48 0 0
v -40 0 0
v -48 -8 0
v -56 -8 0
v -56 0 0
v -48 0 0
v -56 -8 0
v -64 -8 0
v -64 0 0
v -56 0 0
v -64 -8 0
v -72 -8 0
v -72 0 0
v -64 0 0
v -72 -8 0
v -80 -8 0
v -80 0 0
v -72 0 0
v -80 -8 0
v -88 -8 0
v -88 0 0
v -80 0 0
v -88 -8 0
v -96 -8 0
v -96 0 0
v -88 0 0
v -96 -8 0
v -104 -8 0
v -104 0 0
v -96 0 0
v -104 -8 0
v -112 -8 0
v -112 0 0
v -104 0 0
v -112 -8 0
v -120 -8 0
v -120 0 0
v -112 0 0
v -120 -8 0
v -128 -8 0
v -128 0 0
v -120 0 0
v 0 -16 0
v -8 -16 0
v -8 -8 0
v 0 -8 0
v -8 -16 0
v -16 -16 0
v -16 -8 0
v -8 -8 0
v -16 -16 0
v -24 -16 0
v -24 -8 0
v -16 -8 0
v -24 -16 0
v -32 -16 0
v -32 -8 0
v -24 -8 0
v -32 -16 0
v -40 -16 0
v -40 -8 0
v -32 -8 0
v -40 -16 0
v -48 -16 0
v -48 -8 0
v -40 -8 0
v -48 -16 0
v -56 -16 0
v -56 -8 0
v -48 -8 0
v -56 -16 0
v -64 -16 0
v -64 -8 0
v -56 -8 0
v -64 -16 0
v -72 -16 0
v -72 -8 0
v -64 -8 0
v -72 -16 0
v -80 -16 0
v -80 -8 0
v -72 -8 0
v -80 -16 0
v -88 -16 0
v -88 -8 0
v -80 -8 0
v -88 -16 0
v -96 -16 0
v -96 -8 0
v -88 -8 0
v -96 -16 0
v -104 -16 0
v -104 -8 0
v -96 -8 0
v -104 -16 0
v -112 -16 0
v -112 -8 0
v -104 -8 0
v -112 -16 0
v -120 -16 0
v -120 -8 0
v -112 -8 0
v -120 -16 0
v -128 -16 0
v -128 -8 0
v -120 -8 0
v 0 -24 0
v -8 -24 0
v -8 -16 0
v 0 -16 0
v -8 -24 0
v -16 -24 0
v -16 -16 0
v -8 -16 0
v -16 -24 0
v -24 -24 0
v -24 -16 0
v -16 -16 0
v -24 -24 0
v -32 -24 0
v -32 -16 0
v -24 -16 0
v -32 -24 0
v -40 -24 0
v -40 -16 0
v -32 -16 0
v -40 -24 0
v -48 -24 0
v -48 -16 0
v -40 -16 0
v -48 -24 0
v -56 -24 0
v -56 -16 0
v -48 -16 0
v -56 -24 0
v -64 -24 0
v -64 -16 0
v -56 -16 0
v -64 -24 0
v -72 -24 0
v -72 -16 0
v -64 -16 0
v -72 -24 0
v -80 -24 0
v -80 -16 0
v -72 -16 0
v -80 -24 0
v -88 -24 0
v -88 -16 0
v -80 -16 0
v -88 -24 0
v -96 -24 0
v -96 -16 0
v -88 -16 0
v -96 -24 0
v -104 -24 0
v -104 -16 0
v -96 -16 0
v -104 -24 0
v -112 -24 0
v -112 -16 0
v -104 -16 0
v -112 -24 0
v -120 -24 0
v -120 -16 0
v -112 -16 0
v -120 -24 0
v -128 -24 0
v -128 -16 0
v -120 -16 0
v 0 -32 0
v -8 -32 0
v -8 -24 0
v 0 -24 0
v -8 -32 0
v -16 -32 0
v -16 -24 0
v -8 -24 0
v -16 -32 0
v -24 -32 0
v -24 -24 0
v -16 -24 0
v -24 -32 0
v -32 -32 0
v -32 -24 0
v -24 -24 0
v -32 -32 0
v -40 -32 0
v -40 -24 0
v -32 -24 0
v -40 -32 0
v -48 -32 0
v -48 -24 0
v -40 -24 0
v -48 -32 0
v -56 -32 0
v -56 -24 0
v -48 -24 0
v -56 -32 0
v -64 -32 0
v -64 -24 0
v -56 -24 0
v -64 -32 0
v -72 -32 0
v -72 -24 0
v -64 -24 0
v -72 -32 0
v -80 -32 0
v -80 -24 0
v -72 -24 0
v -80 -32 0
v -88 -32 0
v -88 -24 0
v -80 -24 0
v -88 -32 0
v -96 -32 0
v -96 -24 0
v -88 -24 0
v -96 -32 0
v -104 -32 0
v -104 -24 0
v -96 -24 0
v -104 -32 0
v -112 -32 0
v -112 -24 0
v -104 -24 0
v -112 -32 0
v -120 -32 0
v -120 -24 0
v -112 -24 0
v -120 -32 0
v -128 -32 0
v -128 -24 0
v -120 -24 0
v 0 -40 0
v -8 -40 0
v -8 -32 0
v 0 -32 0
v -8 -40 0
v -16 -40 0
v -16 -32 0
v -8 -32 0
v -16 -40 0
v -24 -40 0
v -24 -32 0
v -16 -32 0
v -24 -40 0
v -32 -40 0
v -32 -32 0
v -24 -32 0
v -32 -40 0
v -40 -40 0
v -40 -32 0
v -32 -32 0
v -40 -40 0
v -48 -40 0
v -48 -32 0
v -40 -32 0
v -48 -40 0
v -56 -40 0
v -56 -32 0
v -48 -32 0
v -56 -40 0
v -64 -40 0
v -64 -32 0
v -56 -32 0
v -64 -40 0
v -72 -40 0
v -72 -32 0
v -64 -32 0
v -72 -40 0
v -80 -40 0
v -80 -32 0
v -72 -32 0
v -80 -40 0
v -88 -40 0
v -88 -32 0
v -80 -32 0
v -88 -40 0
v -96 -40 0
v -96 -32 0
v -88 -32 0
v -96 -40 0
v -104 -40 0
v -104 -32 0
v -96 -32 0
v -104 -40 0
v -112 -40 0
v -112 -32 0
v -104 -32 0
v -112 -40 0
v -120 -40 0
v -120 -32 0
v -112 -32 0
v -120 -40 0
v -128 -40 0
v -128 -32 0
v -120 -32 0
v 0 -48 0
v -8 -48 0
v -8 -40 0
v 0 -40 0
v -8 -48 0
v -16 -48 0
v -16 -40 0
v -8 -40 0
v -16 -48 0
v -24 -48 0
v -24 -40 0
v -16 -40 0
v -24 -48 0
v -32 -48 0
v -32 -40 0
v -24 -40 0
v -32 -48 0
v -40 -48 0
v -40 -40 0
v -32 -40 0
v -40 -48 0
v -48 -48 0
v -48 -40 0
v -40 -40 0
v -48 -48 0
v -56 -48 0
v -56 -40 0
v -48 -40 0
v -56 -48 0
v -64 -48 0
v -64 -40 0
v -56 -40 0
v -64 -48 0
v -72 -48 0
v -72 -40 0
v -64 -40 0
v -72 -48 0
v -80 -48 0
v -80 -40 0
v -72 -40 0
v -80 -48 0
v -88 -48 0
v -88 -40 0
v -80 -40 0
v -88 -48 0
v -96 -48 0
v -96 -40 0
v -88 -40 0
v -96 -48 0
v -104 -48 0
v -104 -40 0
v -96 -40 0
v -104 -48 0
v -112 -48 0
v -112 -40 0
v -104 -40 0
v -112 -48 0
v -120 -48 0
v -120 -40 0
v -112 -40 0
v -120 -48 0
v -128 -48 0
v -128 -40 0
v -120 -40 0
v 0 -56 0
v -8 -56 0
v -8 -48 0
v 0 -48 0
v -8 -56 0
v -16 -56 0
v -16 -48 0
v -8 -48 0
v -16 -56 0
v -24 -56 0
v -24 -48 0
v -16 -48 0
v -24 -56 0
v -32 -56 0
v -32 -48 0
v -24 -48 0
v -32 -56 0
v -40 -56 0
v -40 -48 0
v -32 -48 0
v -40 -56 0
v -48 -56 0
v -48 -48 0
v -40 -48 0
v -48 -56 0
v -56 -56 0
v -56 -48 0
v -48 -48 0
v -56 -56 0
v -64 -56 0
v -64 -48 0
v -56 -48 0
v -64 -56 0
v -72 -56 0
v -72 -48 0
v -64 -48 0
v -72 -56 0
v -80 -56 0
v -80 -48 0
v -72 -48 0
v -80 -56 0
v -88 -56 0
v -88 -48 0
v -80 -48 0
v -88 -56 0
v -96 -56 0
v -96 -48 0
v -88 -48 0
v -96 -56 0
v -104 -56 0
v -104 -48 0
v -96 -48 0
v -104 -56 0
v -112 -56 0
v -112 -48 0
v -104 -48 0
v -112 -56 0
v -120 -56 0
v -120 -48 0
v -112 -48 0
v -120 -56 0
v -128 -56 0
v -128 -48 0
v -120 -48 0
v 0 -64 0
v -8 -64 0
v -8 -56 0
v 0 -56 0
v -8 -64 0
v -16 -64 0
v -16 -56 0
v -8 -56 0
v -16 -64 0
v -24 -64 0
v -24 -56 0
v -16 -56 0
v -24 -64 0
v -32 -64 0
v -32 -56 0
v -24 -56 0
v -32 -64 0
v -40 -64 0
v -40 -56 0
v -32 -56 0
v -40 -64 0
v -48 -64 0
v -48 -56 0
v -40 -56 0
v -48 -64 0
v -56 -64 0
v -56 -56 0
v -48 -56 0
v -56 -64 0
v -64 -64 0
v -64 -56 0
v -56 -56 0
v -64 -64 0
v -72 -64 0
v -72 -56 0
v -64 -56 0
v -72 -64 0
v -80 -64 0
v -80 -56 0
v -72 -56 0
v -80 -64 0
v -88 -64 0
v -88 -56 0
v -80 -56 0
v -88 -64 0
v -96 -64 0
v -96 -56 0
v -88 -56 0
v -96 -64 0
v -104 -64 0
v -104 -56 0
v -96 -56 0
v -104 -64 0
v -112 -64 0
v -112 -56 0
v -104 -56 0
v -112 -64 0
v -120 -64 0
v -120 -56 0
v -112 -56 0
v -120 -64 0
v -128 -64 0
v -128 -56 0
v -120 -56 0
v 0 -72 0
v -8 -72 0
v -8 -64 0
v 0 -64 0
v -8 -72 0
v -16 -72 0
v -16 -64 0
v -8 -64 0
v -16 -72 0
v -24 -72 0
v -24 -64 0
v -16 -64 0
v -24 -72 0
v -32 -72 0
v -32 -64 0
v -24 -64 0
v -32 -72 0
v -40 -72 0
v -40 -64 0
v -32 -64 0
v -40 -72 0
v -48 -72 0
v -48 -64 0
v -40 -64 0
v -48 -72 0
v -56 -72 0
v -56 -64 0
v -48 -64 0
v -56 -72 0
v -64 -72 0
v -64 -64 0
v -56 -64 0
v -64 -72 0
v -72 -72 0
v -72 -64 0
v -64 -64 0
v -72 -72 0
v -80 -72 0
v -80 -64 0
v -72 -64 0
v -80 -72 0
v -88 -72 0
v -88 -64 0
v -80 -64 0
v -88 -72 0
v -96 -72 0
v -96 -64 0
v -88 -64 0
v -96 -72 0
v -104 -72 0
v -104 -64 0
v -96 -64 0
v -104 -72 0
v -112 -72 0
v -112 -64 0
v -104 -64 0
v -112 -72 0
v -120 -72 0
v -120 -64 0
v -112 -64 0
v -120 -72 0
v -128 -72 0
v -128 -64 0
v -120 -64 0
v 0 -80 0
v -8 -80 0
v -8 -72 0
v 0 -72 0
v -8 -80 0
v -16 -80 0
v -16 -72 0
v -8 -72 0
v -16 -80 0
v -24 -80 0
v -24 -72 0
v -16 -72 0
v -24 -80 0
v -32 -80 0
v -32 -72 0
v -24 -72 0
v -32 -80 0
v -40 -80 0
v -40 -72 0
v -32 -72 0
v -40 -80 0
v -48 -80 0
v -48 -72 0
v -40 -72 0
v -48 -80 0
v -56 -80 0
v -56 -72 0
v -48 -72 0
v -56 -80 0
v -64 -80 0
v -64 -72 0
v -56 -72 0
v -64 -80 0
v -72 -80 0
v -72 -72 0
v -64 -72 0
v -72 -80 0
v -80 -80 0
v -80 -72 0
v -72 -72 0
v -80 -80 0
v -88 -80 0
v -88 -72 0
v -80 -72 0
v -88 -80 0
v -96 -80 0
v -96 -72 0
v -88 -72 0
v -96 -80 0
v -104 -80 0
v -104 -72 0
v -96 -72 0
v -104 -80 0
v -112 -80 0
v -112 -72 0
v -104 -72 0
v -112 -80 0
v -120 -80 0
v -120 -72 0
v -112 -72 0
v -120 -80 0
v -128 -80 0
v -128 -72 0
v -120 -72 0
v 0 -88 0
v -8 -88 0
v -8 -80 0
v 0 -80 0
v -8 -88 0
v -16 -88 0
v -16 -80 0
v -8 -80 0
v -16 -88 0
v -24 -88 0
v -24 -80 0
v -16 -80 0
v -24 -88 0
v -32 -88 0
v -32 -80 0
v -24 -80 0
v -32 -88 0
v -40 -88 0
v -40 -80 0
v -32 -80 0
v -40 -88 0
v -48 -88 0
v -48 -80 0
v -40 -80 0
v -48 -88 0
v -56 -88 0
v -56 -80 0
v -48 -80 0
v -56 -88 0
v -64 -88 0
v -64 -80 0
v -56 -80 0
v -64 -88 0
v -72 -88 0
v -72 -80 0
v -64 -80 0
v -72 -88 0
v -80 -88 0
v -80 -80 0
v -72 -80 0
v -80 -88 0
v -88 -88 0
v -88 -80 0
v -80 -80 0
v -88 -88 0
v -96 -88 0
v -96 -80 0
v -88 -80 0
v -96 -88 0
v -104 -88 0
v -104 -80 0
v -96 -80 0
v -104 -88 0
v -112 -88 0
v -112 -80 0
v -104 -80 0
v -112 -88 0
v -120 -88 0
v -120 -80 0
v -112 -80 0
v -120 -88 0
v -128 -88 0
v -128 -80 0
v -120 -80 0
v 0 -96 0
v -8 -96 0
v -8 -88 0
v 0 -88 0
v -8 -96 0
v -16 -96 0
v -16 -88 0
v -8 -88 0
v -16 -96 0
v -24 -96 0
v -24 -88 0
v -16 -88 0
v -24 -96 0
v -32 -96 0
v -32 -88 0
v -24 -88 0
v -32 -96 0
v -40 -96 0
v -40 -88 0
v -32 -88 0
v -40 -96 0
v -48 -96 0
v -48 -88 0
v -40 -88 0
v -48 -96 0
v -56 -96 0
v -56 -88 0
v -48 -88 0
v -56 -96 0
v -64 -96 0
v -64 -88 0
v -56 -88 0
v -64 -96 0
v -72 -96 0
v -72 -88 0
v -64 -88 0
v -72 -96 0
v -80 -96 0
v -80 -88 0
v -72 -88 0
v -80 -96 0
v -88 -96 0
v -88 -88 0
v -80 -88 0
v -88 -96 0
v -96 -96 0
v -96 -88 0
v -88 -88 0
v -96 -96 0
v -104 -96 0
v -104 -88 0
v -96 -88 0
v -104 -96 0
v -112 -96 0
v -112 -88 0
v -104 -88 0
v -112 -96 0
v -120 -96 0
v -120 -88 0
v -112 -88 0
v -120 -96 0
v -128 -96 0
v -128 -88 0
v -120 -88 0
v 0 -104 0
v -8 -104 0
v -8 -96 0
v 0 -96 0
v -8 -104 0
v -16 -104 0
v -16 -96 0
v -8 -96 0
v -16 -104 0
v -24 -104 0
v -24 -96 0
v -16 -96 0
v -24 -104 0
v -32 -104 0
v -32 -96 0
v -24 -96 0
v -32 -104 0
v -40 -104 0
v -40 -96 0
v -32 -96 0
v -40 -104 0
v -48 -104 0
v -48 -96 0
v -40 -96 0
v -48 -104 0
v -56 -104 0
v -56 -96 0
v -48 -96 0
v -56 -104 0
v -64 -104 0
v -64 -96 0
v -56 -96 0
v -64 -104 0
v -72 -104 0
v -72 -96 0
v -64 -96 0
v -72 -104 0
v -80 -104 0
v -80 -96 0
v -72 -96 0
v -80 -104 0
v -88 -104 0
v -88 -96 0
v -80 -96 0
v -88 -104 0
v -96 -104 0
v -96 -96 0
v -88 -96 0
v -96 -104 0
v -104 -104 0
v -104 -96 0
v -96 -96 0
v -104 -104 0
v -112 -104 0
v -112 -96 0
v -104 -96 0
v -112 -104 0
v -120 -104 0
v -120 -96 0
v -112 -96 0
v -120 -104 0
v -128 -104 0
v -128 -96 0
v -120 -96 0
v 0 -112 0
v -8 -112 0
v -8 -104 0
v 0 -104 0
v -8 -112 0
v -16 -112 0
v -16 -104 0
v -8 -104 0
v -16 -112 0
v -24 -112 0
v -24 -104 0
v -16 -104 0
v -24 -112 0
v -32 -112 0
v -32 -104 0
v -24 -104 0
v -32 -112 0
v -40 -112 0
v -40 -104 0
v -32 -104 0
v -40 -112 0
v -48 -112 0
v -48 -104 0
v -40 -104 0
v -48 -112 0
v -56 -112 0
v -56 -104 0
v -48 -104 0
v -56 -112 0
v -64 -112 0
v -64 -104 0
v -56 -104 0
v -64 -112 0
v -72 -112 0
v -72 -104 0
v -64 -104 0
v -72 -112 0
v -80 -112 0
v -80 -104 0
v -72 -104 0
v -80 -112 0
v -88 -112 0
v -88 -104 0
v -80 -104 0
v -88 -112 0
v -96 -112 0
v -96 -104 0
v -88 -104 0
v -96 -112 0
v -104 -112 0
v -104 -104 0
v -96 -104 0
v -104 -112 0
v -112 -112 0
v -112 -104 0
v -104 -104 0
v -112 -112 0
v -120 -112 0
v -120 -104 0
v -112 -104 0
v -120 -112 0
v -128 -112 0
v -128 -104 0
v -120 -104 0
v 0 -120 0
v -8 -120 0
v -8 -112 0
v 0 -112 0
v -8 -120 0
v -16 -120 0
v -16 -112 0
v -8 -112 0
v -16 -120 0
v -24 -120 0
v -24 -112 0
v -16 -112 0
v -24 -120 0
v -32 -120 0
v -32 -112 0
v -24 -112 0
v -32 -120 0
v -40 -120 0
v -40 -112 0
v -32 -112 0
v -40 -120 0
v -48 -120 0
v -48 -112 0
v -40 -112 0
v -48 -120 0
v -56 -120 0
v -56 -112 0
v -48 -112 0
v -56 -120 0
v -64 -120 0
v -64 -112 0
v -56 -112 0
v -64 -120 0
v -72 -120 0
v -72 -112 0
v -64 -112 0
v -72 -120 0
v -80 -120 0
v -80 -112 0
v -72 -112 0
v -80 -120 0
v -88 -120 0
v -88 -112 0
v -80 -112 0
v -88 -120 0
v -96 -120 0
v -96 -112 0
v -88 -112 0
v -96 -120 0
v -104 -120 0
v -104 -112 0
v -96 -112 0
v -104 -120 0
v -112 -120 0
v -112 -112 0
v -104 -112 0
v -112 -120 0
v -120 -120 0
v -120 -112 0
v -112 -112 0
v -120 -120 0
v -128 -120 0
v -128 -112 0
v -120 -112 0
v 0 -128 0
v -8 -128 0
v -8 -120 0
v 0 -120 0
v -8 -128 0
v -16 -128 0
v -16 -120 0
v -8 -120 0
v -16 -128 0
v -24 -128 0
v -24 -120 0
v -16 -120 0
v -24 -128 0
v -32 -128 0
v -32 -120 0
v -24 -120 0
v -32 -128 0
v -40 -128 0
v -40 -120 0
v -32 -120 0
v -40 -128 0
v -48 -128 0
v -48 -120 0
v -40 -120 0
v -48 -128 0
v -56 -128 0
v -56 -120 0
v -48 -120 0
v -56 -128 0
v -64 -128 0
v -64 -120 0
v -56 -120 0
v -64 -128 0
v -72 -128 0
v -72 -120 0
v -64 -120 0
v -72 -128 0
v -80 -128 0
v -80 -120 0
v -72 -120 0
v -80 -128 0
v -88 -128 0
v -88 -120 0
v -80 -120 0
v -88 -128 0
v -96 -128 0
v -96 -120 0
v -88 -120 0
v -96 -128 0
v -104 -128 0
v -104 -120 0
v -96 -120 0
v -104 -128 0
v -112 -128 0
v -112 -120 0
v -104 -120 0
v -112 -128 0
v -120 -128 0
v -120 -120 0
v -112 -120 0
v -120 -128 0
v -128 -128 0
v -128 -120 0
v -120 -120 0

# Texture cooridinates (Count = 100)
vt 0.4705882 0.7653061
vt 0.4852941 0.7653061
vt 0.4852941 0.7755102
vt 0.4705882 0.7755102
vt 0.5 0.7653061
vt 0.5 0.7755102
vt 0.4264706 0.9387755
vt 0.4411765 0.9387755
vt 0.4411765 0.9489796
vt 0.4264706 0.9489796
vt 0.4558823 0.9489796
vt 0.4558823 0.9591837
vt 0.4411765 0.9591837
vt 0.4705882 0.9489796
vt 0.4705882 0.9591837
vt 0.4264706 0.9591837
vt 0.5588235 0.7653061
vt 0.5735294 0.7653061
vt 0.5735294 0.7755102
vt 0.5588235 0.7755102
vt 0.5882353 0.7653061
vt 0.5882353 0.7755102
vt 0.8823529 0.9081632
vt 0.8970588 0.9081632
vt 0.8970588 0.9183673
vt 0.8823529 0.9183673
vt 0.9117647 0.9081632
vt 0.9117647 0.9183673
vt 0.4705882 0.755102
vt 0.4852941 0.755102
vt 0.5 0.755102
vt 0.4558823 0.9387755
vt 0.4705882 0.9387755
vt 0.5588235 0.755102
vt 0.5735294 0.755102
vt 0.5882353 0.755102
vt 0.8823529 0.8979592
vt 0.8970588 0.8979592
vt 0.9117647 0.8979592
vt 0.3970588 0.744898
vt 0.4117647 0.744898
vt 0.4117647 0.755102
vt 0.3970588 0.755102
vt 0.8823529 0.8877551
vt 0.8970588 0.8877551
vt 0.9117647 0.8877551
vt 0.4411765 0.8877551
vt 0.4558823 0.8877551
vt 0.4558823 0.8979592
vt 0.4411765 0.8979592
vt 0.4558823 0.9081632
vt 0.4411765 0.9081632
vt 0.4264706 0.8877551
vt 0.4264706 0.8979592
vt 0.3676471 0.755102
vt 0.3676471 0.744898
vt 0.3823529 0.744898
vt 0.3823529 0.755102
vt 0.3676471 0.7346939
vt 0.3823529 0.7346939
vt 0.4264706 0.9081632
vt 0.8823529 0.877551
vt 0.8970588 0.877551
vt 0.9117647 0.877551
vt 0.3529412 0.755102
vt 0.3529412 0.744898
vt 0.3529412 0.7346939
vt 0.8823529 0.9489796
vt 0.8970588 0.9489796
vt 0.8970588 0.9591837
vt 0.8823529 0.9591837
vt 0.9117647 0.9489796
vt 0.9117647 0.9591837
vt 0.8823529 0.9387755
vt 0.8970588 0.9387755
vt 0.9117647 0.9387755
vt 0.8823529 0.9285714
vt 0.8970588 0.9285714
vt 0.9117647 0.9285714
vt 0.2794118 0.8571429
vt 0.2941177 0.8571429
vt 0.2941177 0.8673469
vt 0.2794118 0.8673469
vt 0.6176471 0.8673469
vt 0.6323529 0.8673469
vt 0.6323529 0.877551
vt 0.6176471 0.877551
vt 0.6470588 0.8673469
vt 0.6470588 0.877551
vt 0.6617647 0.8673469
vt 0.6617647 0.877551
vt 0.5882353 0.7857143
vt 0.6029412 0.7857143
vt 0.6029412 0.7959183
vt 0.5882353 0.7959183
vt 0.6176471 0.7857143
vt 0.6176471 0.7959183
vt 0.8823529 0.8673469
vt 0.8970588 0.8673469
vt 0.9117647 0.8673469

# Normal
vn 0 0 -1

# Mesh description
g Rogue_mesh_0012

# Faces
f 1/1/1 2/2/1 3/3/1 4/4/1
f 5/2/1 6/5/1 7/6/1 8/3/1
f 9/7/1 10/8/1 11/9/1 12/10/1
f 13/9/1 14/11/1 15/12/1 16/13/1
f 17/11/1 18/14/1 19/15/1 20/12/1
f 21/10/1 22/9/1 23/13/1 24/16/1
f 25/10/1 26/9/1 27/13/1 28/16/1
f 29/11/1 30/14/1 31/15/1 32/12/1
f 33/11/1 34/14/1 35/15/1 36/12/1
f 37/11/1 38/14/1 39/15/1 40/12/1
f 41/17/1 42/18/1 43/19/1 44/20/1
f 45/18/1 46/21/1 47/22/1 48/19/1
f 49/11/1 50/14/1 51/15/1 52/12/1
f 53/11/1 54/14/1 55/15/1 56/12/1
f 57/23/1 58/24/1 59/25/1 60/26/1
f 61/24/1 62/27/1 63/28/1 64/25/1
f 65/29/1 66/30/1 67/2/1 68/1/1
f 69/30/1 70/31/1 71/5/1 72/2/1
f 73/7/1 74/8/1 75/9/1 76/10/1
f 77/8/1 78/32/1 79/11/1 80/9/1
f 81/32/1 82/33/1 83/14/1 84/11/1
f 85/8/1 86/32/1 87/11/1 88/9/1
f 89/10/1 90/9/1 91/13/1 92/16/1
f 93/32/1 94/33/1 95/14/1 96/11/1
f 97/10/1 98/9/1 99/13/1 100/16/1
f 101/32/1 102/33/1 103/14/1 104/11/1
f 105/34/1 106/35/1 107/18/1 108/17/1
f 109/35/1 110/36/1 111/21/1 112/18/1
f 113/32/1 114/33/1 115/14/1 116/11/1
f 117/32/1 118/33/1 119/14/1 120/11/1
f 121/37/1 122/38/1 123/24/1 124/23/1
f 125/38/1 126/39/1 127/27/1 128/24/1
f 129/40/1 130/41/1 131/42/1 132/43/1
f 133/40/1 134/41/1 135/42/1 136/43/1
f 137/40/1 138/41/1 139/42/1 140/43/1
f 141/40/1 142/41/1 143/42/1 144/43/1
f 145/40/1 146/41/1 147/42/1 148/43/1
f 149/40/1 150/41/1 151/42/1 152/43/1
f 153/40/1 154/41/1 155/42/1 156/43/1
f 157/40/1 158/41/1 159/42/1 160/43/1
f 161/40/1 162/41/1 163/42/1 164/43/1
f 165/40/1 166/41/1 167/42/1 168/43/1
f 169/40/1 170/41/1 171/42/1 172/43/1
f 173/40/1 174/41/1 175/42/1 176/43/1
f 177/40/1 178/41/1 179/42/1 180/43/1
f 181/40/1 182/41/1 183/42/1 184/43/1
f 185/44/1 186/45/1 187/38/1 188/37/1
f 189/45/1 190/46/1 191/39/1 192/38/1
f 193/47/1 194/48/1 195/49/1 196/50/1
f 197/50/1 198/49/1 199/51/1 200/52/1
f 201/53/1 202/47/1 203/50/1 204/54/1
f 205/53/1 206/47/1 207/50/1 208/54/1
f 209/55/1 210/56/1 211/57/1 212/58/1
f 213/56/1 214/59/1 215/60/1 216/57/1
f 217/50/1 218/49/1 219/51/1 220/52/1
f 221/50/1 222/49/1 223/51/1 224/52/1
f 225/53/1 226/47/1 227/50/1 228/54/1
f 229/54/1 230/50/1 231/52/1 232/61/1
f 233/53/1 234/47/1 235/50/1 236/54/1
f 237/47/1 238/48/1 239/49/1 240/50/1
f 241/50/1 242/49/1 243/51/1 244/52/1
f 245/47/1 246/48/1 247/49/1 248/50/1
f 249/62/1 250/63/1 251/45/1 252/44/1
f 253/63/1 254/64/1 255/46/1 256/45/1
f 257/47/1 258/48/1 259/49/1 260/50/1
f 261/47/1 262/48/1 263/49/1 264/50/1
f 265/53/1 266/47/1 267/50/1 268/54/1
f 269/53/1 270/47/1 271/50/1 272/54/1
f 273/65/1 274/66/1 275/56/1 276/55/1
f 277/66/1 278/67/1 279/59/1 280/56/1
f 281/50/1 282/49/1 283/51/1 284/52/1
f 285/47/1 286/48/1 287/49/1 288/50/1
f 289/53/1 290/47/1 291/50/1 292/54/1
f 293/54/1 294/50/1 295/52/1 296/61/1
f 297/53/1 298/47/1 299/50/1 300/54/1
f 301/47/1 302/48/1 303/49/1 304/50/1
f 305/50/1 306/49/1 307/51/1 308/52/1
f 309/47/1 310/48/1 311/49/1 312/50/1
f 313/68/1 314/69/1 315/70/1 316/71/1
f 317/69/1 318/72/1 319/73/1 320/70/1
f 321/47/1 322/48/1 323/49/1 324/50/1
f 325/54/1 326/50/1 327/52/1 328/61/1
f 329/53/1 330/47/1 331/50/1 332/54/1
f 333/53/1 334/47/1 335/50/1 336/54/1
f 337/47/1 338/48/1 339/49/1 340/50/1
f 341/54/1 342/50/1 343/52/1 344/61/1
f 345/54/1 346/50/1 347/52/1 348/61/1
f 349/50/1 350/49/1 351/51/1 352/52/1
f 353/53/1 354/47/1 355/50/1 356/54/1
f 357/54/1 358/50/1 359/52/1 360/61/1
f 361/53/1 362/47/1 363/50/1 364/54/1
f 365/47/1 366/48/1 367/49/1 368/50/1
f 369/50/1 370/49/1 371/51/1 372/52/1
f 373/50/1 374/49/1 375/51/1 376/52/1
f 377/74/1 378/75/1 379/69/1 380/68/1
f 381/75/1 382/76/1 383/72/1 384/69/1
f 385/47/1 386/48/1 387/49/1 388/50/1
f 389/53/1 390/47/1 391/50/1 392/54/1
f 393/53/1 394/47/1 395/50/1 396/54/1
f 397/53/1 398/47/1 399/50/1 400/54/1
f 401/47/1 402/48/1 403/49/1 404/50/1
f 405/54/1 406/50/1 407/52/1 408/61/1
f 409/50/1 410/49/1 411/51/1 412/52/1
f 413/50/1 414/49/1 415/51/1 416/52/1
f 417/53/1 418/47/1 419/50/1 420/54/1
f 421/54/1 422/50/1 423/52/1 424/61/1
f 425/53/1 426/47/1 427/50/1 428/54/1
f 429/47/1 430/48/1 431/49/1 432/50/1
f 433/50/1 434/49/1 435/51/1 436/52/1
f 437/47/1 438/48/1 439/49/1 440/50/1
f 441/77/1 442/78/1 443/75/1 444/74/1
f 445/78/1 446/79/1 447/76/1 448/75/1
f 449/47/1 450/48/1 451/49/1 452/50/1
f 453/53/1 454/47/1 455/50/1 456/54/1
f 457/47/1 458/48/1 459/49/1 460/50/1
f 461/53/1 462/47/1 463/50/1 464/54/1
f 465/47/1 466/48/1 467/49/1 468/50/1
f 469/54/1 470/50/1 471/52/1 472/61/1
f 473/50/1 474/49/1 475/51/1 476/52/1
f 477/47/1 478/48/1 479/49/1 480/50/1
f 481/53/1 482/47/1 483/50/1 484/54/1
f 485/54/1 486/50/1 487/52/1 488/61/1
f 489/53/1 490/47/1 491/50/1 492/54/1
f 493/47/1 494/48/1 495/49/1 496/50/1
f 497/50/1 498/49/1 499/51/1 500/52/1
f 501/47/1 502/48/1 503/49/1 504/50/1
f 505/26/1 506/25/1 507/78/1 508/77/1
f 509/25/1 510/28/1 511/79/1 512/78/1
f 513/50/1 514/49/1 515/51/1 516/52/1
f 517/50/1 518/49/1 519/51/1 520/52/1
f 521/47/1 522/48/1 523/49/1 524/50/1
f 525/53/1 526/47/1 527/50/1 528/54/1
f 529/47/1 530/48/1 531/49/1 532/50/1
f 533/50/1 534/49/1 535/51/1 536/52/1
f 537/50/1 538/49/1 539/51/1 540/52/1
f 541/47/1 542/48/1 543/49/1 544/50/1
f 545/53/1 546/47/1 547/50/1 548/54/1
f 549/54/1 550/50/1 551/52/1 552/61/1
f 553/53/1 554/47/1 555/50/1 556/54/1
f 557/47/1 558/48/1 559/49/1 560/50/1
f 561/50/1 562/49/1 563/51/1 564/52/1
f 565/47/1 566/48/1 567/49/1 568/50/1
f 569/23/1 570/24/1 571/25/1 572/26/1
f 573/24/1 574/27/1 575/28/1 576/25/1
f 577/50/1 578/49/1 579/51/1 580/52/1
f 581/47/1 582/48/1 583/49/1 584/50/1
f 585/47/1 586/48/1 587/49/1 588/50/1
f 589/80/1 590/81/1 591/82/1 592/83/1
f 593/47/1 594/48/1 595/49/1 596/50/1
f 597/50/1 598/49/1 599/51/1 600/52/1
f 601/47/1 602/48/1 603/49/1 604/50/1
f 605/47/1 606/48/1 607/49/1 608/50/1
f 609/53/1 610/47/1 611/50/1 612/54/1
f 613/54/1 614/50/1 615/52/1 616/61/1
f 617/53/1 618/47/1 619/50/1 620/54/1
f 621/47/1 622/48/1 623/49/1 624/50/1
f 625/50/1 626/49/1 627/51/1 628/52/1
f 629/47/1 630/48/1 631/49/1 632/50/1
f 633/37/1 634/38/1 635/24/1 636/23/1
f 637/38/1 638/39/1 639/27/1 640/24/1
f 641/47/1 642/48/1 643/49/1 644/50/1
f 645/47/1 646/48/1 647/49/1 648/50/1
f 649/47/1 650/48/1 651/49/1 652/50/1
f 653/47/1 654/48/1 655/49/1 656/50/1
f 657/50/1 658/49/1 659/51/1 660/52/1
f 661/47/1 662/48/1 663/49/1 664/50/1
f 665/53/1 666/47/1 667/50/1 668/54/1
f 669/47/1 670/48/1 671/49/1 672/50/1
f 673/53/1 674/47/1 675/50/1 676/54/1
f 677/54/1 678/50/1 679/52/1 680/61/1
f 681/53/1 682/47/1 683/50/1 684/54/1
f 685/47/1 686/48/1 687/49/1 688/50/1
f 689/50/1 690/49/1 691/51/1 692/52/1
f 693/47/1 694/48/1 695/49/1 696/50/1
f 697/44/1 698/45/1 699/38/1 700/37/1
f 701/45/1 702/46/1 703/39/1 704/38/1
f 705/50/1 706/49/1 707/51/1 708/52/1
f 709/47/1 710/48/1 711/49/1 712/50/1
f 713/47/1 714/48/1 715/49/1 716/50/1
f 717/47/1 718/48/1 719/49/1 720/50/1
f 721/47/1 722/48/1 723/49/1 724/50/1
f 725/47/1 726/48/1 727/49/1 728/50/1
f 729/53/1 730/47/1 731/50/1 732/54/1
f 733/47/1 734/48/1 735/49/1 736/50/1
f 737/53/1 738/47/1 739/50/1 740/54/1
f 741/54/1 742/50/1 743/52/1 744/61/1
f 745/53/1 746/47/1 747/50/1 748/54/1
f 749/47/1 750/48/1 751/49/1 752/50/1
f 753/50/1 754/49/1 755/51/1 756/52/1
f 757/47/1 758/48/1 759/49/1 760/50/1
f 761/62/1 762/63/1 763/45/1 764/44/1
f 765/63/1 766/64/1 767/46/1 768/45/1
f 769/47/1 770/48/1 771/49/1 772/50/1
f 773/47/1 774/48/1 775/49/1 776/50/1
f 777/47/1 778/48/1 779/49/1 780/50/1
f 781/47/1 782/48/1 783/49/1 784/50/1
f 785/47/1 786/48/1 787/49/1 788/50/1
f 789/47/1 790/48/1 791/49/1 792/50/1
f 793/53/1 794/47/1 795/50/1 796/54/1
f 797/54/1 798/50/1 799/52/1 800/61/1
f 801/53/1 802/47/1 803/50/1 804/54/1
f 805/54/1 806/50/1 807/52/1 808/61/1
f 809/53/1 810/47/1 811/50/1 812/54/1
f 813/47/1 814/48/1 815/49/1 816/50/1
f 817/50/1 818/49/1 819/51/1 820/52/1
f 821/47/1 822/48/1 823/49/1 824/50/1
f 825/68/1 826/69/1 827/70/1 828/71/1
f 829/69/1 830/72/1 831/73/1 832/70/1
f 833/47/1 834/48/1 835/49/1 836/50/1
f 837/47/1 838/48/1 839/49/1 840/50/1
f 841/47/1 842/48/1 843/49/1 844/50/1
f 845/53/1 846/47/1 847/50/1 848/54/1
f 849/53/1 850/47/1 851/50/1 852/54/1
f 853/47/1 854/48/1 855/49/1 856/50/1
f 857/50/1 858/49/1 859/51/1 860/52/1
f 861/54/1 862/50/1 863/52/1 864/61/1
f 865/53/1 866/47/1 867/50/1 868/54/1
f 869/54/1 870/50/1 871/52/1 872/61/1
f 873/53/1 874/47/1 875/50/1 876/54/1
f 877/47/1 878/48/1 879/49/1 880/50/1
f 881/50/1 882/49/1 883/51/1 884/52/1
f 885/47/1 886/48/1 887/49/1 888/50/1
f 889/74/1 890/75/1 891/69/1 892/68/1
f 893/75/1 894/76/1 895/72/1 896/69/1
f 897/47/1 898/48/1 899/49/1 900/50/1
f 901/47/1 902/48/1 903/49/1 904/50/1
f 905/53/1 906/47/1 907/50/1 908/54/1
f 909/47/1 910/48/1 911/49/1 912/50/1
f 913/53/1 914/47/1 915/50/1 916/54/1
f 917/47/1 918/48/1 919/49/1 920/50/1
f 921/47/1 922/48/1 923/49/1 924/50/1
f 925/53/1 926/47/1 927/50/1 928/54/1
f 929/47/1 930/48/1 931/49/1 932/50/1
f 933/53/1 934/47/1 935/50/1 936/54/1
f 937/53/1 938/47/1 939/50/1 940/54/1
f 941/47/1 942/48/1 943/49/1 944/50/1
f 945/50/1 946/49/1 947/51/1 948/52/1
f 949/50/1 950/49/1 951/51/1 952/52/1
f 953/77/1 954/78/1 955/75/1 956/74/1
f 957/78/1 958/79/1 959/76/1 960/75/1
f 961/47/1 962/48/1 963/49/1 964/50/1
f 965/84/1 966/85/1 967/86/1 968/87/1
f 969/85/1 970/88/1 971/89/1 972/86/1
f 973/88/1 974/90/1 975/91/1 976/89/1
f 977/88/1 978/90/1 979/91/1 980/89/1
f 981/88/1 982/90/1 983/91/1 984/89/1
f 985/92/1 986/93/1 987/94/1 988/95/1
f 989/93/1 990/96/1 991/97/1 992/94/1
f 993/92/1 994/93/1 995/94/1 996/95/1
f 997/88/1 998/90/1 999/91/1 1000/89/1
f 1001/92/1 1002/93/1 1003/94/1 1004/95/1
f 1005/93/1 1006/96/1 1007/97/1 1008/94/1
f 1009/92/1 1010/93/1 1011/94/1 1012/95/1
f 1013/93/1 1014/96/1 1015/97/1 1016/94/1
f 1017/98/1 1018/99/1 1019/63/1 1020/62/1
f 1021/99/1 1022/100/1 1023/64/1 1024/63/1

