# Tiled2Unity generated file. Do not modify by hand.
# Wavefront file for 'Rogue_mesh_0013.obj'

# Vertices (Count = 1024)
v 0 -8 0
v -8 -8 0
v -8 0 0
v 0 0 0
v -8 -8 0
v -16 -8 0
v -16 0 0
v -8 0 0
v -16 -8 0
v -24 -8 0
v -24 0 0
v -16 0 0
v -24 -8 0
v -32 -8 0
v -32 0 0
v -24 0 0
v -32 -8 0
v -40 -8 0
v -40 0 0
v -32 0 0
v -40 -8 0
v -48 -8 0
v -48 0 0
v -40 0 0
v -48 -8 0
v -56 -8 0
v -56 0 0
v -48 0 0
v -56 -8 0
v -64 -8 0
v -64 0 0
v -56 0 0
v -64 -8 0
v -72 -8 0
v -72 0 0
v -64 0 0
v -72 -8 0
v -80 -8 0
v -80 0 0
v -72 0 0
v -80 -8 0
v -88 -8 0
v -88 0 0
v -80 0 0
v -88 -8 0
v -96 -8 0
v -96 0 0
v -88 0 0
v -96 -8 0
v -104 -8 0
v -104 0 0
v -96 0 0
v -104 -8 0
v -112 -8 0
v -112 0 0
v -104 0 0
v -112 -8 0
v -120 -8 0
v -120 0 0
v -112 0 0
v -120 -8 0
v -128 -8 0
v -128 0 0
v -120 0 0
v 0 -16 0
v -8 -16 0
v -8 -8 0
v 0 -8 0
v -8 -16 0
v -16 -16 0
v -16 -8 0
v -8 -8 0
v -16 -16 0
v -24 -16 0
v -24 -8 0
v -16 -8 0
v -24 -16 0
v -32 -16 0
v -32 -8 0
v -24 -8 0
v -32 -16 0
v -40 -16 0
v -40 -8 0
v -32 -8 0
v -40 -16 0
v -48 -16 0
v -48 -8 0
v -40 -8 0
v -48 -16 0
v -56 -16 0
v -56 -8 0
v -48 -8 0
v -56 -16 0
v -64 -16 0
v -64 -8 0
v -56 -8 0
v -64 -16 0
v -72 -16 0
v -72 -8 0
v -64 -8 0
v -72 -16 0
v -80 -16 0
v -80 -8 0
v -72 -8 0
v -80 -16 0
v -88 -16 0
v -88 -8 0
v -80 -8 0
v -88 -16 0
v -96 -16 0
v -96 -8 0
v -88 -8 0
v -96 -16 0
v -104 -16 0
v -104 -8 0
v -96 -8 0
v -104 -16 0
v -112 -16 0
v -112 -8 0
v -104 -8 0
v -112 -16 0
v -120 -16 0
v -120 -8 0
v -112 -8 0
v -120 -16 0
v -128 -16 0
v -128 -8 0
v -120 -8 0
v 0 -24 0
v -8 -24 0
v -8 -16 0
v 0 -16 0
v -8 -24 0
v -16 -24 0
v -16 -16 0
v -8 -16 0
v -16 -24 0
v -24 -24 0
v -24 -16 0
v -16 -16 0
v -24 -24 0
v -32 -24 0
v -32 -16 0
v -24 -16 0
v -32 -24 0
v -40 -24 0
v -40 -16 0
v -32 -16 0
v -40 -24 0
v -48 -24 0
v -48 -16 0
v -40 -16 0
v -48 -24 0
v -56 -24 0
v -56 -16 0
v -48 -16 0
v -56 -24 0
v -64 -24 0
v -64 -16 0
v -56 -16 0
v -64 -24 0
v -72 -24 0
v -72 -16 0
v -64 -16 0
v -72 -24 0
v -80 -24 0
v -80 -16 0
v -72 -16 0
v -80 -24 0
v -88 -24 0
v -88 -16 0
v -80 -16 0
v -88 -24 0
v -96 -24 0
v -96 -16 0
v -88 -16 0
v -96 -24 0
v -104 -24 0
v -104 -16 0
v -96 -16 0
v -104 -24 0
v -112 -24 0
v -112 -16 0
v -104 -16 0
v -112 -24 0
v -120 -24 0
v -120 -16 0
v -112 -16 0
v -120 -24 0
v -128 -24 0
v -128 -16 0
v -120 -16 0
v 0 -32 0
v -8 -32 0
v -8 -24 0
v 0 -24 0
v -8 -32 0
v -16 -32 0
v -16 -24 0
v -8 -24 0
v -16 -32 0
v -24 -32 0
v -24 -24 0
v -16 -24 0
v -24 -32 0
v -32 -32 0
v -32 -24 0
v -24 -24 0
v -32 -32 0
v -40 -32 0
v -40 -24 0
v -32 -24 0
v -40 -32 0
v -48 -32 0
v -48 -24 0
v -40 -24 0
v -48 -32 0
v -56 -32 0
v -56 -24 0
v -48 -24 0
v -56 -32 0
v -64 -32 0
v -64 -24 0
v -56 -24 0
v -64 -32 0
v -72 -32 0
v -72 -24 0
v -64 -24 0
v -72 -32 0
v -80 -32 0
v -80 -24 0
v -72 -24 0
v -80 -32 0
v -88 -32 0
v -88 -24 0
v -80 -24 0
v -88 -32 0
v -96 -32 0
v -96 -24 0
v -88 -24 0
v -96 -32 0
v -104 -32 0
v -104 -24 0
v -96 -24 0
v -104 -32 0
v -112 -32 0
v -112 -24 0
v -104 -24 0
v -112 -32 0
v -120 -32 0
v -120 -24 0
v -112 -24 0
v -120 -32 0
v -128 -32 0
v -128 -24 0
v -120 -24 0
v 0 -40 0
v -8 -40 0
v -8 -32 0
v 0 -32 0
v -8 -40 0
v -16 -40 0
v -16 -32 0
v -8 -32 0
v -16 -40 0
v -24 -40 0
v -24 -32 0
v -16 -32 0
v -24 -40 0
v -32 -40 0
v -32 -32 0
v -24 -32 0
v -32 -40 0
v -40 -40 0
v -40 -32 0
v -32 -32 0
v -40 -40 0
v -48 -40 0
v -48 -32 0
v -40 -32 0
v -48 -40 0
v -56 -40 0
v -56 -32 0
v -48 -32 0
v -56 -40 0
v -64 -40 0
v -64 -32 0
v -56 -32 0
v -64 -40 0
v -72 -40 0
v -72 -32 0
v -64 -32 0
v -72 -40 0
v -80 -40 0
v -80 -32 0
v -72 -32 0
v -80 -40 0
v -88 -40 0
v -88 -32 0
v -80 -32 0
v -88 -40 0
v -96 -40 0
v -96 -32 0
v -88 -32 0
v -96 -40 0
v -104 -40 0
v -104 -32 0
v -96 -32 0
v -104 -40 0
v -112 -40 0
v -112 -32 0
v -104 -32 0
v -112 -40 0
v -120 -40 0
v -120 -32 0
v -112 -32 0
v -120 -40 0
v -128 -40 0
v -128 -32 0
v -120 -32 0
v 0 -48 0
v -8 -48 0
v -8 -40 0
v 0 -40 0
v -8 -48 0
v -16 -48 0
v -16 -40 0
v -8 -40 0
v -16 -48 0
v -24 -48 0
v -24 -40 0
v -16 -40 0
v -24 -48 0
v -32 -48 0
v -32 -40 0
v -24 -40 0
v -32 -48 0
v -40 -48 0
v -40 -40 0
v -32 -40 0
v -40 -48 0
v -48 -48 0
v -48 -40 0
v -40 -40 0
v -48 -48 0
v -56 -48 0
v -56 -40 0
v -48 -40 0
v -56 -48 0
v -64 -48 0
v -64 -40 0
v -56 -40 0
v -64 -48 0
v -72 -48 0
v -72 -40 0
v -64 -40 0
v -72 -48 0
v -80 -48 0
v -80 -40 0
v -72 -40 0
v -80 -48 0
v -88 -48 0
v -88 -40 0
v -80 -40 0
v -88 -48 0
v -96 -48 0
v -96 -40 0
v -88 -40 0
v -96 -48 0
v -104 -48 0
v -104 -40 0
v -96 -40 0
v -104 -48 0
v -112 -48 0
v -112 -40 0
v -104 -40 0
v -112 -48 0
v -120 -48 0
v -120 -40 0
v -112 -40 0
v -120 -48 0
v -128 -48 0
v -128 -40 0
v -120 -40 0
v 0 -56 0
v -8 -56 0
v -8 -48 0
v 0 -48 0
v -8 -56 0
v -16 -56 0
v -16 -48 0
v -8 -48 0
v -16 -56 0
v -24 -56 0
v -24 -48 0
v -16 -48 0
v -24 -56 0
v -32 -56 0
v -32 -48 0
v -24 -48 0
v -32 -56 0
v -40 -56 0
v -40 -48 0
v -32 -48 0
v -40 -56 0
v -48 -56 0
v -48 -48 0
v -40 -48 0
v -48 -56 0
v -56 -56 0
v -56 -48 0
v -48 -48 0
v -56 -56 0
v -64 -56 0
v -64 -48 0
v -56 -48 0
v -64 -56 0
v -72 -56 0
v -72 -48 0
v -64 -48 0
v -72 -56 0
v -80 -56 0
v -80 -48 0
v -72 -48 0
v -80 -56 0
v -88 -56 0
v -88 -48 0
v -80 -48 0
v -88 -56 0
v -96 -56 0
v -96 -48 0
v -88 -48 0
v -96 -56 0
v -104 -56 0
v -104 -48 0
v -96 -48 0
v -104 -56 0
v -112 -56 0
v -112 -48 0
v -104 -48 0
v -112 -56 0
v -120 -56 0
v -120 -48 0
v -112 -48 0
v -120 -56 0
v -128 -56 0
v -128 -48 0
v -120 -48 0
v 0 -64 0
v -8 -64 0
v -8 -56 0
v 0 -56 0
v -8 -64 0
v -16 -64 0
v -16 -56 0
v -8 -56 0
v -16 -64 0
v -24 -64 0
v -24 -56 0
v -16 -56 0
v -24 -64 0
v -32 -64 0
v -32 -56 0
v -24 -56 0
v -32 -64 0
v -40 -64 0
v -40 -56 0
v -32 -56 0
v -40 -64 0
v -48 -64 0
v -48 -56 0
v -40 -56 0
v -48 -64 0
v -56 -64 0
v -56 -56 0
v -48 -56 0
v -56 -64 0
v -64 -64 0
v -64 -56 0
v -56 -56 0
v -64 -64 0
v -72 -64 0
v -72 -56 0
v -64 -56 0
v -72 -64 0
v -80 -64 0
v -80 -56 0
v -72 -56 0
v -80 -64 0
v -88 -64 0
v -88 -56 0
v -80 -56 0
v -88 -64 0
v -96 -64 0
v -96 -56 0
v -88 -56 0
v -96 -64 0
v -104 -64 0
v -104 -56 0
v -96 -56 0
v -104 -64 0
v -112 -64 0
v -112 -56 0
v -104 -56 0
v -112 -64 0
v -120 -64 0
v -120 -56 0
v -112 -56 0
v -120 -64 0
v -128 -64 0
v -128 -56 0
v -120 -56 0
v 0 -72 0
v -8 -72 0
v -8 -64 0
v 0 -64 0
v -8 -72 0
v -16 -72 0
v -16 -64 0
v -8 -64 0
v -16 -72 0
v -24 -72 0
v -24 -64 0
v -16 -64 0
v -24 -72 0
v -32 -72 0
v -32 -64 0
v -24 -64 0
v -32 -72 0
v -40 -72 0
v -40 -64 0
v -32 -64 0
v -40 -72 0
v -48 -72 0
v -48 -64 0
v -40 -64 0
v -48 -72 0
v -56 -72 0
v -56 -64 0
v -48 -64 0
v -56 -72 0
v -64 -72 0
v -64 -64 0
v -56 -64 0
v -64 -72 0
v -72 -72 0
v -72 -64 0
v -64 -64 0
v -72 -72 0
v -80 -72 0
v -80 -64 0
v -72 -64 0
v -80 -72 0
v -88 -72 0
v -88 -64 0
v -80 -64 0
v -88 -72 0
v -96 -72 0
v -96 -64 0
v -88 -64 0
v -96 -72 0
v -104 -72 0
v -104 -64 0
v -96 -64 0
v -104 -72 0
v -112 -72 0
v -112 -64 0
v -104 -64 0
v -112 -72 0
v -120 -72 0
v -120 -64 0
v -112 -64 0
v -120 -72 0
v -128 -72 0
v -128 -64 0
v -120 -64 0
v 0 -80 0
v -8 -80 0
v -8 -72 0
v 0 -72 0
v -8 -80 0
v -16 -80 0
v -16 -72 0
v -8 -72 0
v -16 -80 0
v -24 -80 0
v -24 -72 0
v -16 -72 0
v -24 -80 0
v -32 -80 0
v -32 -72 0
v -24 -72 0
v -32 -80 0
v -40 -80 0
v -40 -72 0
v -32 -72 0
v -40 -80 0
v -48 -80 0
v -48 -72 0
v -40 -72 0
v -48 -80 0
v -56 -80 0
v -56 -72 0
v -48 -72 0
v -56 -80 0
v -64 -80 0
v -64 -72 0
v -56 -72 0
v -64 -80 0
v -72 -80 0
v -72 -72 0
v -64 -72 0
v -72 -80 0
v -80 -80 0
v -80 -72 0
v -72 -72 0
v -80 -80 0
v -88 -80 0
v -88 -72 0
v -80 -72 0
v -88 -80 0
v -96 -80 0
v -96 -72 0
v -88 -72 0
v -96 -80 0
v -104 -80 0
v -104 -72 0
v -96 -72 0
v -104 -80 0
v -112 -80 0
v -112 -72 0
v -104 -72 0
v -112 -80 0
v -120 -80 0
v -120 -72 0
v -112 -72 0
v -120 -80 0
v -128 -80 0
v -128 -72 0
v -120 -72 0
v 0 -88 0
v -8 -88 0
v -8 -80 0
v 0 -80 0
v -8 -88 0
v -16 -88 0
v -16 -80 0
v -8 -80 0
v -16 -88 0
v -24 -88 0
v -24 -80 0
v -16 -80 0
v -24 -88 0
v -32 -88 0
v -32 -80 0
v -24 -80 0
v -32 -88 0
v -40 -88 0
v -40 -80 0
v -32 -80 0
v -40 -88 0
v -48 -88 0
v -48 -80 0
v -40 -80 0
v -48 -88 0
v -56 -88 0
v -56 -80 0
v -48 -80 0
v -56 -88 0
v -64 -88 0
v -64 -80 0
v -56 -80 0
v -64 -88 0
v -72 -88 0
v -72 -80 0
v -64 -80 0
v -72 -88 0
v -80 -88 0
v -80 -80 0
v -72 -80 0
v -80 -88 0
v -88 -88 0
v -88 -80 0
v -80 -80 0
v -88 -88 0
v -96 -88 0
v -96 -80 0
v -88 -80 0
v -96 -88 0
v -104 -88 0
v -104 -80 0
v -96 -80 0
v -104 -88 0
v -112 -88 0
v -112 -80 0
v -104 -80 0
v -112 -88 0
v -120 -88 0
v -120 -80 0
v -112 -80 0
v -120 -88 0
v -128 -88 0
v -128 -80 0
v -120 -80 0
v 0 -96 0
v -8 -96 0
v -8 -88 0
v 0 -88 0
v -8 -96 0
v -16 -96 0
v -16 -88 0
v -8 -88 0
v -16 -96 0
v -24 -96 0
v -24 -88 0
v -16 -88 0
v -24 -96 0
v -32 -96 0
v -32 -88 0
v -24 -88 0
v -32 -96 0
v -40 -96 0
v -40 -88 0
v -32 -88 0
v -40 -96 0
v -48 -96 0
v -48 -88 0
v -40 -88 0
v -48 -96 0
v -56 -96 0
v -56 -88 0
v -48 -88 0
v -56 -96 0
v -64 -96 0
v -64 -88 0
v -56 -88 0
v -64 -96 0
v -72 -96 0
v -72 -88 0
v -64 -88 0
v -72 -96 0
v -80 -96 0
v -80 -88 0
v -72 -88 0
v -80 -96 0
v -88 -96 0
v -88 -88 0
v -80 -88 0
v -88 -96 0
v -96 -96 0
v -96 -88 0
v -88 -88 0
v -96 -96 0
v -104 -96 0
v -104 -88 0
v -96 -88 0
v -104 -96 0
v -112 -96 0
v -112 -88 0
v -104 -88 0
v -112 -96 0
v -120 -96 0
v -120 -88 0
v -112 -88 0
v -120 -96 0
v -128 -96 0
v -128 -88 0
v -120 -88 0
v 0 -104 0
v -8 -104 0
v -8 -96 0
v 0 -96 0
v -8 -104 0
v -16 -104 0
v -16 -96 0
v -8 -96 0
v -16 -104 0
v -24 -104 0
v -24 -96 0
v -16 -96 0
v -24 -104 0
v -32 -104 0
v -32 -96 0
v -24 -96 0
v -32 -104 0
v -40 -104 0
v -40 -96 0
v -32 -96 0
v -40 -104 0
v -48 -104 0
v -48 -96 0
v -40 -96 0
v -48 -104 0
v -56 -104 0
v -56 -96 0
v -48 -96 0
v -56 -104 0
v -64 -104 0
v -64 -96 0
v -56 -96 0
v -64 -104 0
v -72 -104 0
v -72 -96 0
v -64 -96 0
v -72 -104 0
v -80 -104 0
v -80 -96 0
v -72 -96 0
v -80 -104 0
v -88 -104 0
v -88 -96 0
v -80 -96 0
v -88 -104 0
v -96 -104 0
v -96 -96 0
v -88 -96 0
v -96 -104 0
v -104 -104 0
v -104 -96 0
v -96 -96 0
v -104 -104 0
v -112 -104 0
v -112 -96 0
v -104 -96 0
v -112 -104 0
v -120 -104 0
v -120 -96 0
v -112 -96 0
v -120 -104 0
v -128 -104 0
v -128 -96 0
v -120 -96 0
v 0 -112 0
v -8 -112 0
v -8 -104 0
v 0 -104 0
v -8 -112 0
v -16 -112 0
v -16 -104 0
v -8 -104 0
v -16 -112 0
v -24 -112 0
v -24 -104 0
v -16 -104 0
v -24 -112 0
v -32 -112 0
v -32 -104 0
v -24 -104 0
v -32 -112 0
v -40 -112 0
v -40 -104 0
v -32 -104 0
v -40 -112 0
v -48 -112 0
v -48 -104 0
v -40 -104 0
v -48 -112 0
v -56 -112 0
v -56 -104 0
v -48 -104 0
v -56 -112 0
v -64 -112 0
v -64 -104 0
v -56 -104 0
v -64 -112 0
v -72 -112 0
v -72 -104 0
v -64 -104 0
v -72 -112 0
v -80 -112 0
v -80 -104 0
v -72 -104 0
v -80 -112 0
v -88 -112 0
v -88 -104 0
v -80 -104 0
v -88 -112 0
v -96 -112 0
v -96 -104 0
v -88 -104 0
v -96 -112 0
v -104 -112 0
v -104 -104 0
v -96 -104 0
v -104 -112 0
v -112 -112 0
v -112 -104 0
v -104 -104 0
v -112 -112 0
v -120 -112 0
v -120 -104 0
v -112 -104 0
v -120 -112 0
v -128 -112 0
v -128 -104 0
v -120 -104 0
v 0 -120 0
v -8 -120 0
v -8 -112 0
v 0 -112 0
v -8 -120 0
v -16 -120 0
v -16 -112 0
v -8 -112 0
v -16 -120 0
v -24 -120 0
v -24 -112 0
v -16 -112 0
v -24 -120 0
v -32 -120 0
v -32 -112 0
v -24 -112 0
v -32 -120 0
v -40 -120 0
v -40 -112 0
v -32 -112 0
v -40 -120 0
v -48 -120 0
v -48 -112 0
v -40 -112 0
v -48 -120 0
v -56 -120 0
v -56 -112 0
v -48 -112 0
v -56 -120 0
v -64 -120 0
v -64 -112 0
v -56 -112 0
v -64 -120 0
v -72 -120 0
v -72 -112 0
v -64 -112 0
v -72 -120 0
v -80 -120 0
v -80 -112 0
v -72 -112 0
v -80 -120 0
v -88 -120 0
v -88 -112 0
v -80 -112 0
v -88 -120 0
v -96 -120 0
v -96 -112 0
v -88 -112 0
v -96 -120 0
v -104 -120 0
v -104 -112 0
v -96 -112 0
v -104 -120 0
v -112 -120 0
v -112 -112 0
v -104 -112 0
v -112 -120 0
v -120 -120 0
v -120 -112 0
v -112 -112 0
v -120 -120 0
v -128 -120 0
v -128 -112 0
v -120 -112 0
v 0 -128 0
v -8 -128 0
v -8 -120 0
v 0 -120 0
v -8 -128 0
v -16 -128 0
v -16 -120 0
v -8 -120 0
v -16 -128 0
v -24 -128 0
v -24 -120 0
v -16 -120 0
v -24 -128 0
v -32 -128 0
v -32 -120 0
v -24 -120 0
v -32 -128 0
v -40 -128 0
v -40 -120 0
v -32 -120 0
v -40 -128 0
v -48 -128 0
v -48 -120 0
v -40 -120 0
v -48 -128 0
v -56 -128 0
v -56 -120 0
v -48 -120 0
v -56 -128 0
v -64 -128 0
v -64 -120 0
v -56 -120 0
v -64 -128 0
v -72 -128 0
v -72 -120 0
v -64 -120 0
v -72 -128 0
v -80 -128 0
v -80 -120 0
v -72 -120 0
v -80 -128 0
v -88 -128 0
v -88 -120 0
v -80 -120 0
v -88 -128 0
v -96 -128 0
v -96 -120 0
v -88 -120 0
v -96 -128 0
v -104 -128 0
v -104 -120 0
v -96 -120 0
v -104 -128 0
v -112 -128 0
v -112 -120 0
v -104 -120 0
v -112 -128 0
v -120 -128 0
v -120 -120 0
v -112 -120 0
v -120 -128 0
v -128 -128 0
v -128 -120 0
v -120 -120 0

# Texture cooridinates (Count = 101)
vt 0.2058824 0.7244898
vt 0.2205882 0.7244898
vt 0.2205882 0.7346939
vt 0.2058824 0.7346939
vt 0.2352941 0.7244898
vt 0.2352941 0.7346939
vt 0.2352941 0.9183673
vt 0.25 0.9183673
vt 0.25 0.9285714
vt 0.2352941 0.9285714
vt 0.4264706 0.8979592
vt 0.4411765 0.8979592
vt 0.4411765 0.9081632
vt 0.4264706 0.9081632
vt 0.4264706 0.8877551
vt 0.4411765 0.8877551
vt 0.4558823 0.8877551
vt 0.4558823 0.8979592
vt 0.4558823 0.9081632
vt 0.2058824 0.7142857
vt 0.2205882 0.7142857
vt 0.2352941 0.7142857
vt 0.2058824 0.7040817
vt 0.2205882 0.7040817
vt 0.2352941 0.7040817
vt 0.2058824 0.6938776
vt 0.2205882 0.6938776
vt 0.2352941 0.6938776
vt 0.2352941 0.9081632
vt 0.25 0.9081632
vt 0.2058824 0.7653061
vt 0.2205882 0.7653061
vt 0.2205882 0.7755102
vt 0.2058824 0.7755102
vt 0.2352941 0.7653061
vt 0.2352941 0.7755102
vt 0.2352941 0.8979592
vt 0.25 0.8979592
vt 0.2058824 0.755102
vt 0.2205882 0.755102
vt 0.2352941 0.755102
vt 0.2058824 0.744898
vt 0.2205882 0.744898
vt 0.2352941 0.744898
vt 0.2058824 0.6836735
vt 0.2205882 0.6836735
vt 0.2352941 0.6836735
vt 0.25 0.6836735
vt 0.25 0.6938776
vt 0.2647059 0.6836735
vt 0.2647059 0.6938776
vt 0.2794118 0.6836735
vt 0.2794118 0.6938776
vt 0.2941177 0.6836735
vt 0.2941177 0.6938776
vt 0.3088235 0.6836735
vt 0.3088235 0.6938776
vt 0.3235294 0.6836735
vt 0.3235294 0.6938776
vt 0.3382353 0.6836735
vt 0.3382353 0.6938776
vt 0.3529412 0.6836735
vt 0.3529412 0.6938776
vt 0.3676471 0.6836735
vt 0.3676471 0.6938776
vt 0.2058824 0.6734694
vt 0.2205882 0.6734694
vt 0.2352941 0.6734694
vt 0.25 0.6734694
vt 0.2647059 0.6734694
vt 0.2794118 0.6734694
vt 0.2941177 0.6734694
vt 0.3088235 0.6734694
vt 0.3235294 0.6734694
vt 0.3382353 0.6734694
vt 0.3529412 0.6734694
vt 0.3676471 0.6734694
vt 0.2058824 0.6632653
vt 0.2205882 0.6632653
vt 0.2352941 0.6632653
vt 0.25 0.6632653
vt 0.2647059 0.6632653
vt 0.2794118 0.6632653
vt 0.2941177 0.6632653
vt 0.3088235 0.6632653
vt 0.3235294 0.6632653
vt 0.3382353 0.6632653
vt 0.3529412 0.6632653
vt 0.3676471 0.6632653
vt 0.2058824 0.6530612
vt 0.2205882 0.6530612
vt 0.2352941 0.6530612
vt 0.25 0.6530612
vt 0.2647059 0.6530612
vt 0.2794118 0.6530612
vt 0.2941177 0.6530612
vt 0.3088235 0.6530612
vt 0.3235294 0.6530612
vt 0.3382353 0.6530612
vt 0.3529412 0.6530612
vt 0.3676471 0.6530612

# Normal
vn 0 0 -1

# Mesh description
g Rogue_mesh_0013

# Faces
f 1/1/1 2/2/1 3/3/1 4/4/1
f 5/2/1 6/5/1 7/6/1 8/3/1
f 9/7/1 10/8/1 11/9/1 12/10/1
f 13/11/1 14/12/1 15/13/1 16/14/1
f 17/15/1 18/16/1 19/12/1 20/11/1
f 21/16/1 22/17/1 23/18/1 24/12/1
f 25/15/1 26/16/1 27/12/1 28/11/1
f 29/16/1 30/17/1 31/18/1 32/12/1
f 33/15/1 34/16/1 35/12/1 36/11/1
f 37/11/1 38/12/1 39/13/1 40/14/1
f 41/11/1 42/12/1 43/13/1 44/14/1
f 45/11/1 46/12/1 47/13/1 48/14/1
f 49/15/1 50/16/1 51/12/1 52/11/1
f 53/15/1 54/16/1 55/12/1 56/11/1
f 57/16/1 58/17/1 59/18/1 60/12/1
f 61/12/1 62/18/1 63/19/1 64/13/1
f 65/20/1 66/21/1 67/2/1 68/1/1
f 69/21/1 70/22/1 71/5/1 72/2/1
f 73/7/1 74/8/1 75/9/1 76/10/1
f 77/15/1 78/16/1 79/12/1 80/11/1
f 81/15/1 82/16/1 83/12/1 84/11/1
f 85/16/1 86/17/1 87/18/1 88/12/1
f 89/15/1 90/16/1 91/12/1 92/11/1
f 93/16/1 94/17/1 95/18/1 96/12/1
f 97/11/1 98/12/1 99/13/1 100/14/1
f 101/11/1 102/12/1 103/13/1 104/14/1
f 105/15/1 106/16/1 107/12/1 108/11/1
f 109/15/1 110/16/1 111/12/1 112/11/1
f 113/15/1 114/16/1 115/12/1 116/11/1
f 117/16/1 118/17/1 119/18/1 120/12/1
f 121/12/1 122/18/1 123/19/1 124/13/1
f 125/16/1 126/17/1 127/18/1 128/12/1
f 129/23/1 130/24/1 131/21/1 132/20/1
f 133/24/1 134/25/1 135/22/1 136/21/1
f 137/7/1 138/8/1 139/9/1 140/10/1
f 141/11/1 142/12/1 143/13/1 144/14/1
f 145/15/1 146/16/1 147/12/1 148/11/1
f 149/15/1 150/16/1 151/12/1 152/11/1
f 153/15/1 154/16/1 155/12/1 156/11/1
f 157/16/1 158/17/1 159/18/1 160/12/1
f 161/15/1 162/16/1 163/12/1 164/11/1
f 165/15/1 166/16/1 167/12/1 168/11/1
f 169/15/1 170/16/1 171/12/1 172/11/1
f 173/16/1 174/17/1 175/18/1 176/12/1
f 177/12/1 178/18/1 179/19/1 180/13/1
f 181/11/1 182/12/1 183/13/1 184/14/1
f 185/11/1 186/12/1 187/13/1 188/14/1
f 189/11/1 190/12/1 191/13/1 192/14/1
f 193/26/1 194/27/1 195/24/1 196/23/1
f 197/27/1 198/28/1 199/25/1 200/24/1
f 201/29/1 202/30/1 203/8/1 204/7/1
f 205/15/1 206/16/1 207/12/1 208/11/1
f 209/15/1 210/16/1 211/12/1 212/11/1
f 213/16/1 214/17/1 215/18/1 216/12/1
f 217/15/1 218/16/1 219/12/1 220/11/1
f 221/16/1 222/17/1 223/18/1 224/12/1
f 225/11/1 226/12/1 227/13/1 228/14/1
f 229/11/1 230/12/1 231/13/1 232/14/1
f 233/11/1 234/12/1 235/13/1 236/14/1
f 237/11/1 238/12/1 239/13/1 240/14/1
f 241/11/1 242/12/1 243/13/1 244/14/1
f 245/15/1 246/16/1 247/12/1 248/11/1
f 249/11/1 250/12/1 251/13/1 252/14/1
f 253/12/1 254/18/1 255/19/1 256/13/1
f 257/31/1 258/32/1 259/33/1 260/34/1
f 261/32/1 262/35/1 263/36/1 264/33/1
f 265/37/1 266/38/1 267/30/1 268/29/1
f 269/15/1 270/16/1 271/12/1 272/11/1
f 273/16/1 274/17/1 275/18/1 276/12/1
f 277/16/1 278/17/1 279/18/1 280/12/1
f 281/15/1 282/16/1 283/12/1 284/11/1
f 285/16/1 286/17/1 287/18/1 288/12/1
f 289/11/1 290/12/1 291/13/1 292/14/1
f 293/11/1 294/12/1 295/13/1 296/14/1
f 297/15/1 298/16/1 299/12/1 300/11/1
f 301/15/1 302/16/1 303/12/1 304/11/1
f 305/11/1 306/12/1 307/13/1 308/14/1
f 309/12/1 310/18/1 311/19/1 312/13/1
f 313/12/1 314/18/1 315/19/1 316/13/1
f 317/12/1 318/18/1 319/19/1 320/13/1
f 321/39/1 322/40/1 323/32/1 324/31/1
f 325/40/1 326/41/1 327/35/1 328/32/1
f 329/7/1 330/8/1 331/9/1 332/10/1
f 333/16/1 334/17/1 335/18/1 336/12/1
f 337/15/1 338/16/1 339/12/1 340/11/1
f 341/15/1 342/16/1 343/12/1 344/11/1
f 345/16/1 346/17/1 347/18/1 348/12/1
f 349/16/1 350/17/1 351/18/1 352/12/1
f 353/12/1 354/18/1 355/19/1 356/13/1
f 357/12/1 358/18/1 359/19/1 360/13/1
f 361/11/1 362/12/1 363/13/1 364/14/1
f 365/12/1 366/18/1 367/19/1 368/13/1
f 369/12/1 370/18/1 371/19/1 372/13/1
f 373/16/1 374/17/1 375/18/1 376/12/1
f 377/11/1 378/12/1 379/13/1 380/14/1
f 381/12/1 382/18/1 383/19/1 384/13/1
f 385/42/1 386/43/1 387/40/1 388/39/1
f 389/43/1 390/44/1 391/41/1 392/40/1
f 393/7/1 394/8/1 395/9/1 396/10/1
f 397/11/1 398/12/1 399/13/1 400/14/1
f 401/15/1 402/16/1 403/12/1 404/11/1
f 405/16/1 406/17/1 407/18/1 408/12/1
f 409/16/1 410/17/1 411/18/1 412/12/1
f 413/16/1 414/17/1 415/18/1 416/12/1
f 417/16/1 418/17/1 419/18/1 420/12/1
f 421/16/1 422/17/1 423/18/1 424/12/1
f 425/12/1 426/18/1 427/19/1 428/13/1
f 429/12/1 430/18/1 431/19/1 432/13/1
f 433/12/1 434/18/1 435/19/1 436/13/1
f 437/12/1 438/18/1 439/19/1 440/13/1
f 441/12/1 442/18/1 443/19/1 444/13/1
f 445/16/1 446/17/1 447/18/1 448/12/1
f 449/4/1 450/3/1 451/43/1 452/42/1
f 453/3/1 454/6/1 455/44/1 456/43/1
f 457/7/1 458/8/1 459/9/1 460/10/1
f 461/12/1 462/18/1 463/19/1 464/13/1
f 465/11/1 466/12/1 467/13/1 468/14/1
f 469/15/1 470/16/1 471/12/1 472/11/1
f 473/16/1 474/17/1 475/18/1 476/12/1
f 477/16/1 478/17/1 479/18/1 480/12/1
f 481/15/1 482/16/1 483/12/1 484/11/1
f 485/16/1 486/17/1 487/18/1 488/12/1
f 489/16/1 490/17/1 491/18/1 492/12/1
f 493/16/1 494/17/1 495/18/1 496/12/1
f 497/16/1 498/17/1 499/18/1 500/12/1
f 501/16/1 502/17/1 503/18/1 504/12/1
f 505/16/1 506/17/1 507/18/1 508/12/1
f 509/12/1 510/18/1 511/19/1 512/13/1
f 513/1/1 514/2/1 515/3/1 516/4/1
f 517/2/1 518/5/1 519/6/1 520/3/1
f 521/7/1 522/8/1 523/9/1 524/10/1
f 525/11/1 526/12/1 527/13/1 528/14/1
f 529/15/1 530/16/1 531/12/1 532/11/1
f 533/15/1 534/16/1 535/12/1 536/11/1
f 537/16/1 538/17/1 539/18/1 540/12/1
f 541/15/1 542/16/1 543/12/1 544/11/1
f 545/15/1 546/16/1 547/12/1 548/11/1
f 549/15/1 550/16/1 551/12/1 552/11/1
f 553/16/1 554/17/1 555/18/1 556/12/1
f 557/12/1 558/18/1 559/19/1 560/13/1
f 561/16/1 562/17/1 563/18/1 564/12/1
f 565/16/1 566/17/1 567/18/1 568/12/1
f 569/16/1 570/17/1 571/18/1 572/12/1
f 573/16/1 574/17/1 575/18/1 576/12/1
f 577/20/1 578/21/1 579/2/1 580/1/1
f 581/21/1 582/22/1 583/5/1 584/2/1
f 585/7/1 586/8/1 587/9/1 588/10/1
f 589/15/1 590/16/1 591/12/1 592/11/1
f 593/15/1 594/16/1 595/12/1 596/11/1
f 597/16/1 598/17/1 599/18/1 600/12/1
f 601/16/1 602/17/1 603/18/1 604/12/1
f 605/12/1 606/18/1 607/19/1 608/13/1
f 609/12/1 610/18/1 611/19/1 612/13/1
f 613/16/1 614/17/1 615/18/1 616/12/1
f 617/16/1 618/17/1 619/18/1 620/12/1
f 621/16/1 622/17/1 623/18/1 624/12/1
f 625/15/1 626/16/1 627/12/1 628/11/1
f 629/11/1 630/12/1 631/13/1 632/14/1
f 633/11/1 634/12/1 635/13/1 636/14/1
f 637/11/1 638/12/1 639/13/1 640/14/1
f 641/23/1 642/24/1 643/21/1 644/20/1
f 645/24/1 646/25/1 647/22/1 648/21/1
f 649/29/1 650/30/1 651/8/1 652/7/1
f 653/11/1 654/12/1 655/13/1 656/14/1
f 657/11/1 658/12/1 659/13/1 660/14/1
f 661/15/1 662/16/1 663/12/1 664/11/1
f 665/16/1 666/17/1 667/18/1 668/12/1
f 669/11/1 670/12/1 671/13/1 672/14/1
f 673/11/1 674/12/1 675/13/1 676/14/1
f 677/11/1 678/12/1 679/13/1 680/14/1
f 681/11/1 682/12/1 683/13/1 684/14/1
f 685/11/1 686/12/1 687/13/1 688/14/1
f 689/11/1 690/12/1 691/13/1 692/14/1
f 693/15/1 694/16/1 695/12/1 696/11/1
f 697/15/1 698/16/1 699/12/1 700/11/1
f 701/15/1 702/16/1 703/12/1 704/11/1
f 705/26/1 706/27/1 707/24/1 708/23/1
f 709/27/1 710/28/1 711/25/1 712/24/1
f 713/37/1 714/38/1 715/30/1 716/29/1
f 717/15/1 718/16/1 719/12/1 720/11/1
f 721/15/1 722/16/1 723/12/1 724/11/1
f 725/15/1 726/16/1 727/12/1 728/11/1
f 729/16/1 730/17/1 731/18/1 732/12/1
f 733/15/1 734/16/1 735/12/1 736/11/1
f 737/15/1 738/16/1 739/12/1 740/11/1
f 741/15/1 742/16/1 743/12/1 744/11/1
f 745/15/1 746/16/1 747/12/1 748/11/1
f 749/15/1 750/16/1 751/12/1 752/11/1
f 753/15/1 754/16/1 755/12/1 756/11/1
f 757/15/1 758/16/1 759/12/1 760/11/1
f 761/16/1 762/17/1 763/18/1 764/12/1
f 765/15/1 766/16/1 767/12/1 768/11/1
f 769/45/1 770/46/1 771/27/1 772/26/1
f 773/46/1 774/47/1 775/28/1 776/27/1
f 777/47/1 778/48/1 779/49/1 780/28/1
f 781/48/1 782/50/1 783/51/1 784/49/1
f 785/50/1 786/52/1 787/53/1 788/51/1
f 789/52/1 790/54/1 791/55/1 792/53/1
f 793/54/1 794/56/1 795/57/1 796/55/1
f 797/47/1 798/48/1 799/49/1 800/28/1
f 801/48/1 802/50/1 803/51/1 804/49/1
f 805/50/1 806/52/1 807/53/1 808/51/1
f 809/52/1 810/54/1 811/55/1 812/53/1
f 813/54/1 814/56/1 815/57/1 816/55/1
f 817/56/1 818/58/1 819/59/1 820/57/1
f 821/58/1 822/60/1 823/61/1 824/59/1
f 825/60/1 826/62/1 827/63/1 828/61/1
f 829/62/1 830/64/1 831/65/1 832/63/1
f 833/66/1 834/67/1 835/46/1 836/45/1
f 837/67/1 838/68/1 839/47/1 840/46/1
f 841/68/1 842/69/1 843/48/1 844/47/1
f 845/69/1 846/70/1 847/50/1 848/48/1
f 849/70/1 850/71/1 851/52/1 852/50/1
f 853/71/1 854/72/1 855/54/1 856/52/1
f 857/72/1 858/73/1 859/56/1 860/54/1
f 861/68/1 862/69/1 863/48/1 864/47/1
f 865/69/1 866/70/1 867/50/1 868/48/1
f 869/70/1 870/71/1 871/52/1 872/50/1
f 873/71/1 874/72/1 875/54/1 876/52/1
f 877/72/1 878/73/1 879/56/1 880/54/1
f 881/73/1 882/74/1 883/58/1 884/56/1
f 885/74/1 886/75/1 887/60/1 888/58/1
f 889/75/1 890/76/1 891/62/1 892/60/1
f 893/76/1 894/77/1 895/64/1 896/62/1
f 897/78/1 898/79/1 899/67/1 900/66/1
f 901/79/1 902/80/1 903/68/1 904/67/1
f 905/80/1 906/81/1 907/69/1 908/68/1
f 909/81/1 910/82/1 911/70/1 912/69/1
f 913/82/1 914/83/1 915/71/1 916/70/1
f 917/83/1 918/84/1 919/72/1 920/71/1
f 921/84/1 922/85/1 923/73/1 924/72/1
f 925/80/1 926/81/1 927/69/1 928/68/1
f 929/81/1 930/82/1 931/70/1 932/69/1
f 933/82/1 934/83/1 935/71/1 936/70/1
f 937/83/1 938/84/1 939/72/1 940/71/1
f 941/84/1 942/85/1 943/73/1 944/72/1
f 945/85/1 946/86/1 947/74/1 948/73/1
f 949/86/1 950/87/1 951/75/1 952/74/1
f 953/87/1 954/88/1 955/76/1 956/75/1
f 957/88/1 958/89/1 959/77/1 960/76/1
f 961/90/1 962/91/1 963/79/1 964/78/1
f 965/91/1 966/92/1 967/80/1 968/79/1
f 969/92/1 970/93/1 971/81/1 972/80/1
f 973/93/1 974/94/1 975/82/1 976/81/1
f 977/94/1 978/95/1 979/83/1 980/82/1
f 981/95/1 982/96/1 983/84/1 984/83/1
f 985/96/1 986/97/1 987/85/1 988/84/1
f 989/92/1 990/93/1 991/81/1 992/80/1
f 993/93/1 994/94/1 995/82/1 996/81/1
f 997/94/1 998/95/1 999/83/1 1000/82/1
f 1001/95/1 1002/96/1 1003/84/1 1004/83/1
f 1005/96/1 1006/97/1 1007/85/1 1008/84/1
f 1009/97/1 1010/98/1 1011/86/1 1012/85/1
f 1013/98/1 1014/99/1 1015/87/1 1016/86/1
f 1017/99/1 1018/100/1 1019/88/1 1020/87/1
f 1021/100/1 1022/101/1 1023/89/1 1024/88/1

