# Tiled2Unity generated file. Do not modify by hand.
# Wavefront file for 'Rogue_mesh_0010.obj'

# Vertices (Count = 1024)
v 0 -8 0
v -8 -8 0
v -8 0 0
v 0 0 0
v -8 -8 0
v -16 -8 0
v -16 0 0
v -8 0 0
v -16 -8 0
v -24 -8 0
v -24 0 0
v -16 0 0
v -24 -8 0
v -32 -8 0
v -32 0 0
v -24 0 0
v -32 -8 0
v -40 -8 0
v -40 0 0
v -32 0 0
v -40 -8 0
v -48 -8 0
v -48 0 0
v -40 0 0
v -48 -8 0
v -56 -8 0
v -56 0 0
v -48 0 0
v -56 -8 0
v -64 -8 0
v -64 0 0
v -56 0 0
v -64 -8 0
v -72 -8 0
v -72 0 0
v -64 0 0
v -72 -8 0
v -80 -8 0
v -80 0 0
v -72 0 0
v -80 -8 0
v -88 -8 0
v -88 0 0
v -80 0 0
v -88 -8 0
v -96 -8 0
v -96 0 0
v -88 0 0
v -96 -8 0
v -104 -8 0
v -104 0 0
v -96 0 0
v -104 -8 0
v -112 -8 0
v -112 0 0
v -104 0 0
v -112 -8 0
v -120 -8 0
v -120 0 0
v -112 0 0
v -120 -8 0
v -128 -8 0
v -128 0 0
v -120 0 0
v 0 -16 0
v -8 -16 0
v -8 -8 0
v 0 -8 0
v -8 -16 0
v -16 -16 0
v -16 -8 0
v -8 -8 0
v -16 -16 0
v -24 -16 0
v -24 -8 0
v -16 -8 0
v -24 -16 0
v -32 -16 0
v -32 -8 0
v -24 -8 0
v -32 -16 0
v -40 -16 0
v -40 -8 0
v -32 -8 0
v -40 -16 0
v -48 -16 0
v -48 -8 0
v -40 -8 0
v -48 -16 0
v -56 -16 0
v -56 -8 0
v -48 -8 0
v -56 -16 0
v -64 -16 0
v -64 -8 0
v -56 -8 0
v -64 -16 0
v -72 -16 0
v -72 -8 0
v -64 -8 0
v -72 -16 0
v -80 -16 0
v -80 -8 0
v -72 -8 0
v -80 -16 0
v -88 -16 0
v -88 -8 0
v -80 -8 0
v -88 -16 0
v -96 -16 0
v -96 -8 0
v -88 -8 0
v -96 -16 0
v -104 -16 0
v -104 -8 0
v -96 -8 0
v -104 -16 0
v -112 -16 0
v -112 -8 0
v -104 -8 0
v -112 -16 0
v -120 -16 0
v -120 -8 0
v -112 -8 0
v -120 -16 0
v -128 -16 0
v -128 -8 0
v -120 -8 0
v 0 -24 0
v -8 -24 0
v -8 -16 0
v 0 -16 0
v -8 -24 0
v -16 -24 0
v -16 -16 0
v -8 -16 0
v -16 -24 0
v -24 -24 0
v -24 -16 0
v -16 -16 0
v -24 -24 0
v -32 -24 0
v -32 -16 0
v -24 -16 0
v -32 -24 0
v -40 -24 0
v -40 -16 0
v -32 -16 0
v -40 -24 0
v -48 -24 0
v -48 -16 0
v -40 -16 0
v -48 -24 0
v -56 -24 0
v -56 -16 0
v -48 -16 0
v -56 -24 0
v -64 -24 0
v -64 -16 0
v -56 -16 0
v -64 -24 0
v -72 -24 0
v -72 -16 0
v -64 -16 0
v -72 -24 0
v -80 -24 0
v -80 -16 0
v -72 -16 0
v -80 -24 0
v -88 -24 0
v -88 -16 0
v -80 -16 0
v -88 -24 0
v -96 -24 0
v -96 -16 0
v -88 -16 0
v -96 -24 0
v -104 -24 0
v -104 -16 0
v -96 -16 0
v -104 -24 0
v -112 -24 0
v -112 -16 0
v -104 -16 0
v -112 -24 0
v -120 -24 0
v -120 -16 0
v -112 -16 0
v -120 -24 0
v -128 -24 0
v -128 -16 0
v -120 -16 0
v 0 -32 0
v -8 -32 0
v -8 -24 0
v 0 -24 0
v -8 -32 0
v -16 -32 0
v -16 -24 0
v -8 -24 0
v -16 -32 0
v -24 -32 0
v -24 -24 0
v -16 -24 0
v -24 -32 0
v -32 -32 0
v -32 -24 0
v -24 -24 0
v -32 -32 0
v -40 -32 0
v -40 -24 0
v -32 -24 0
v -40 -32 0
v -48 -32 0
v -48 -24 0
v -40 -24 0
v -48 -32 0
v -56 -32 0
v -56 -24 0
v -48 -24 0
v -56 -32 0
v -64 -32 0
v -64 -24 0
v -56 -24 0
v -64 -32 0
v -72 -32 0
v -72 -24 0
v -64 -24 0
v -72 -32 0
v -80 -32 0
v -80 -24 0
v -72 -24 0
v -80 -32 0
v -88 -32 0
v -88 -24 0
v -80 -24 0
v -88 -32 0
v -96 -32 0
v -96 -24 0
v -88 -24 0
v -96 -32 0
v -104 -32 0
v -104 -24 0
v -96 -24 0
v -104 -32 0
v -112 -32 0
v -112 -24 0
v -104 -24 0
v -112 -32 0
v -120 -32 0
v -120 -24 0
v -112 -24 0
v -120 -32 0
v -128 -32 0
v -128 -24 0
v -120 -24 0
v 0 -40 0
v -8 -40 0
v -8 -32 0
v 0 -32 0
v -8 -40 0
v -16 -40 0
v -16 -32 0
v -8 -32 0
v -16 -40 0
v -24 -40 0
v -24 -32 0
v -16 -32 0
v -24 -40 0
v -32 -40 0
v -32 -32 0
v -24 -32 0
v -32 -40 0
v -40 -40 0
v -40 -32 0
v -32 -32 0
v -40 -40 0
v -48 -40 0
v -48 -32 0
v -40 -32 0
v -48 -40 0
v -56 -40 0
v -56 -32 0
v -48 -32 0
v -56 -40 0
v -64 -40 0
v -64 -32 0
v -56 -32 0
v -64 -40 0
v -72 -40 0
v -72 -32 0
v -64 -32 0
v -72 -40 0
v -80 -40 0
v -80 -32 0
v -72 -32 0
v -80 -40 0
v -88 -40 0
v -88 -32 0
v -80 -32 0
v -88 -40 0
v -96 -40 0
v -96 -32 0
v -88 -32 0
v -96 -40 0
v -104 -40 0
v -104 -32 0
v -96 -32 0
v -104 -40 0
v -112 -40 0
v -112 -32 0
v -104 -32 0
v -112 -40 0
v -120 -40 0
v -120 -32 0
v -112 -32 0
v -120 -40 0
v -128 -40 0
v -128 -32 0
v -120 -32 0
v 0 -48 0
v -8 -48 0
v -8 -40 0
v 0 -40 0
v -8 -48 0
v -16 -48 0
v -16 -40 0
v -8 -40 0
v -16 -48 0
v -24 -48 0
v -24 -40 0
v -16 -40 0
v -24 -48 0
v -32 -48 0
v -32 -40 0
v -24 -40 0
v -32 -48 0
v -40 -48 0
v -40 -40 0
v -32 -40 0
v -40 -48 0
v -48 -48 0
v -48 -40 0
v -40 -40 0
v -48 -48 0
v -56 -48 0
v -56 -40 0
v -48 -40 0
v -56 -48 0
v -64 -48 0
v -64 -40 0
v -56 -40 0
v -64 -48 0
v -72 -48 0
v -72 -40 0
v -64 -40 0
v -72 -48 0
v -80 -48 0
v -80 -40 0
v -72 -40 0
v -80 -48 0
v -88 -48 0
v -88 -40 0
v -80 -40 0
v -88 -48 0
v -96 -48 0
v -96 -40 0
v -88 -40 0
v -96 -48 0
v -104 -48 0
v -104 -40 0
v -96 -40 0
v -104 -48 0
v -112 -48 0
v -112 -40 0
v -104 -40 0
v -112 -48 0
v -120 -48 0
v -120 -40 0
v -112 -40 0
v -120 -48 0
v -128 -48 0
v -128 -40 0
v -120 -40 0
v 0 -56 0
v -8 -56 0
v -8 -48 0
v 0 -48 0
v -8 -56 0
v -16 -56 0
v -16 -48 0
v -8 -48 0
v -16 -56 0
v -24 -56 0
v -24 -48 0
v -16 -48 0
v -24 -56 0
v -32 -56 0
v -32 -48 0
v -24 -48 0
v -32 -56 0
v -40 -56 0
v -40 -48 0
v -32 -48 0
v -40 -56 0
v -48 -56 0
v -48 -48 0
v -40 -48 0
v -48 -56 0
v -56 -56 0
v -56 -48 0
v -48 -48 0
v -56 -56 0
v -64 -56 0
v -64 -48 0
v -56 -48 0
v -64 -56 0
v -72 -56 0
v -72 -48 0
v -64 -48 0
v -72 -56 0
v -80 -56 0
v -80 -48 0
v -72 -48 0
v -80 -56 0
v -88 -56 0
v -88 -48 0
v -80 -48 0
v -88 -56 0
v -96 -56 0
v -96 -48 0
v -88 -48 0
v -96 -56 0
v -104 -56 0
v -104 -48 0
v -96 -48 0
v -104 -56 0
v -112 -56 0
v -112 -48 0
v -104 -48 0
v -112 -56 0
v -120 -56 0
v -120 -48 0
v -112 -48 0
v -120 -56 0
v -128 -56 0
v -128 -48 0
v -120 -48 0
v 0 -64 0
v -8 -64 0
v -8 -56 0
v 0 -56 0
v -8 -64 0
v -16 -64 0
v -16 -56 0
v -8 -56 0
v -16 -64 0
v -24 -64 0
v -24 -56 0
v -16 -56 0
v -24 -64 0
v -32 -64 0
v -32 -56 0
v -24 -56 0
v -32 -64 0
v -40 -64 0
v -40 -56 0
v -32 -56 0
v -40 -64 0
v -48 -64 0
v -48 -56 0
v -40 -56 0
v -48 -64 0
v -56 -64 0
v -56 -56 0
v -48 -56 0
v -56 -64 0
v -64 -64 0
v -64 -56 0
v -56 -56 0
v -64 -64 0
v -72 -64 0
v -72 -56 0
v -64 -56 0
v -72 -64 0
v -80 -64 0
v -80 -56 0
v -72 -56 0
v -80 -64 0
v -88 -64 0
v -88 -56 0
v -80 -56 0
v -88 -64 0
v -96 -64 0
v -96 -56 0
v -88 -56 0
v -96 -64 0
v -104 -64 0
v -104 -56 0
v -96 -56 0
v -104 -64 0
v -112 -64 0
v -112 -56 0
v -104 -56 0
v -112 -64 0
v -120 -64 0
v -120 -56 0
v -112 -56 0
v -120 -64 0
v -128 -64 0
v -128 -56 0
v -120 -56 0
v 0 -72 0
v -8 -72 0
v -8 -64 0
v 0 -64 0
v -8 -72 0
v -16 -72 0
v -16 -64 0
v -8 -64 0
v -16 -72 0
v -24 -72 0
v -24 -64 0
v -16 -64 0
v -24 -72 0
v -32 -72 0
v -32 -64 0
v -24 -64 0
v -32 -72 0
v -40 -72 0
v -40 -64 0
v -32 -64 0
v -40 -72 0
v -48 -72 0
v -48 -64 0
v -40 -64 0
v -48 -72 0
v -56 -72 0
v -56 -64 0
v -48 -64 0
v -56 -72 0
v -64 -72 0
v -64 -64 0
v -56 -64 0
v -64 -72 0
v -72 -72 0
v -72 -64 0
v -64 -64 0
v -72 -72 0
v -80 -72 0
v -80 -64 0
v -72 -64 0
v -80 -72 0
v -88 -72 0
v -88 -64 0
v -80 -64 0
v -88 -72 0
v -96 -72 0
v -96 -64 0
v -88 -64 0
v -96 -72 0
v -104 -72 0
v -104 -64 0
v -96 -64 0
v -104 -72 0
v -112 -72 0
v -112 -64 0
v -104 -64 0
v -112 -72 0
v -120 -72 0
v -120 -64 0
v -112 -64 0
v -120 -72 0
v -128 -72 0
v -128 -64 0
v -120 -64 0
v 0 -80 0
v -8 -80 0
v -8 -72 0
v 0 -72 0
v -8 -80 0
v -16 -80 0
v -16 -72 0
v -8 -72 0
v -16 -80 0
v -24 -80 0
v -24 -72 0
v -16 -72 0
v -24 -80 0
v -32 -80 0
v -32 -72 0
v -24 -72 0
v -32 -80 0
v -40 -80 0
v -40 -72 0
v -32 -72 0
v -40 -80 0
v -48 -80 0
v -48 -72 0
v -40 -72 0
v -48 -80 0
v -56 -80 0
v -56 -72 0
v -48 -72 0
v -56 -80 0
v -64 -80 0
v -64 -72 0
v -56 -72 0
v -64 -80 0
v -72 -80 0
v -72 -72 0
v -64 -72 0
v -72 -80 0
v -80 -80 0
v -80 -72 0
v -72 -72 0
v -80 -80 0
v -88 -80 0
v -88 -72 0
v -80 -72 0
v -88 -80 0
v -96 -80 0
v -96 -72 0
v -88 -72 0
v -96 -80 0
v -104 -80 0
v -104 -72 0
v -96 -72 0
v -104 -80 0
v -112 -80 0
v -112 -72 0
v -104 -72 0
v -112 -80 0
v -120 -80 0
v -120 -72 0
v -112 -72 0
v -120 -80 0
v -128 -80 0
v -128 -72 0
v -120 -72 0
v 0 -88 0
v -8 -88 0
v -8 -80 0
v 0 -80 0
v -8 -88 0
v -16 -88 0
v -16 -80 0
v -8 -80 0
v -16 -88 0
v -24 -88 0
v -24 -80 0
v -16 -80 0
v -24 -88 0
v -32 -88 0
v -32 -80 0
v -24 -80 0
v -32 -88 0
v -40 -88 0
v -40 -80 0
v -32 -80 0
v -40 -88 0
v -48 -88 0
v -48 -80 0
v -40 -80 0
v -48 -88 0
v -56 -88 0
v -56 -80 0
v -48 -80 0
v -56 -88 0
v -64 -88 0
v -64 -80 0
v -56 -80 0
v -64 -88 0
v -72 -88 0
v -72 -80 0
v -64 -80 0
v -72 -88 0
v -80 -88 0
v -80 -80 0
v -72 -80 0
v -80 -88 0
v -88 -88 0
v -88 -80 0
v -80 -80 0
v -88 -88 0
v -96 -88 0
v -96 -80 0
v -88 -80 0
v -96 -88 0
v -104 -88 0
v -104 -80 0
v -96 -80 0
v -104 -88 0
v -112 -88 0
v -112 -80 0
v -104 -80 0
v -112 -88 0
v -120 -88 0
v -120 -80 0
v -112 -80 0
v -120 -88 0
v -128 -88 0
v -128 -80 0
v -120 -80 0
v 0 -96 0
v -8 -96 0
v -8 -88 0
v 0 -88 0
v -8 -96 0
v -16 -96 0
v -16 -88 0
v -8 -88 0
v -16 -96 0
v -24 -96 0
v -24 -88 0
v -16 -88 0
v -24 -96 0
v -32 -96 0
v -32 -88 0
v -24 -88 0
v -32 -96 0
v -40 -96 0
v -40 -88 0
v -32 -88 0
v -40 -96 0
v -48 -96 0
v -48 -88 0
v -40 -88 0
v -48 -96 0
v -56 -96 0
v -56 -88 0
v -48 -88 0
v -56 -96 0
v -64 -96 0
v -64 -88 0
v -56 -88 0
v -64 -96 0
v -72 -96 0
v -72 -88 0
v -64 -88 0
v -72 -96 0
v -80 -96 0
v -80 -88 0
v -72 -88 0
v -80 -96 0
v -88 -96 0
v -88 -88 0
v -80 -88 0
v -88 -96 0
v -96 -96 0
v -96 -88 0
v -88 -88 0
v -96 -96 0
v -104 -96 0
v -104 -88 0
v -96 -88 0
v -104 -96 0
v -112 -96 0
v -112 -88 0
v -104 -88 0
v -112 -96 0
v -120 -96 0
v -120 -88 0
v -112 -88 0
v -120 -96 0
v -128 -96 0
v -128 -88 0
v -120 -88 0
v 0 -104 0
v -8 -104 0
v -8 -96 0
v 0 -96 0
v -8 -104 0
v -16 -104 0
v -16 -96 0
v -8 -96 0
v -16 -104 0
v -24 -104 0
v -24 -96 0
v -16 -96 0
v -24 -104 0
v -32 -104 0
v -32 -96 0
v -24 -96 0
v -32 -104 0
v -40 -104 0
v -40 -96 0
v -32 -96 0
v -40 -104 0
v -48 -104 0
v -48 -96 0
v -40 -96 0
v -48 -104 0
v -56 -104 0
v -56 -96 0
v -48 -96 0
v -56 -104 0
v -64 -104 0
v -64 -96 0
v -56 -96 0
v -64 -104 0
v -72 -104 0
v -72 -96 0
v -64 -96 0
v -72 -104 0
v -80 -104 0
v -80 -96 0
v -72 -96 0
v -80 -104 0
v -88 -104 0
v -88 -96 0
v -80 -96 0
v -88 -104 0
v -96 -104 0
v -96 -96 0
v -88 -96 0
v -96 -104 0
v -104 -104 0
v -104 -96 0
v -96 -96 0
v -104 -104 0
v -112 -104 0
v -112 -96 0
v -104 -96 0
v -112 -104 0
v -120 -104 0
v -120 -96 0
v -112 -96 0
v -120 -104 0
v -128 -104 0
v -128 -96 0
v -120 -96 0
v 0 -112 0
v -8 -112 0
v -8 -104 0
v 0 -104 0
v -8 -112 0
v -16 -112 0
v -16 -104 0
v -8 -104 0
v -16 -112 0
v -24 -112 0
v -24 -104 0
v -16 -104 0
v -24 -112 0
v -32 -112 0
v -32 -104 0
v -24 -104 0
v -32 -112 0
v -40 -112 0
v -40 -104 0
v -32 -104 0
v -40 -112 0
v -48 -112 0
v -48 -104 0
v -40 -104 0
v -48 -112 0
v -56 -112 0
v -56 -104 0
v -48 -104 0
v -56 -112 0
v -64 -112 0
v -64 -104 0
v -56 -104 0
v -64 -112 0
v -72 -112 0
v -72 -104 0
v -64 -104 0
v -72 -112 0
v -80 -112 0
v -80 -104 0
v -72 -104 0
v -80 -112 0
v -88 -112 0
v -88 -104 0
v -80 -104 0
v -88 -112 0
v -96 -112 0
v -96 -104 0
v -88 -104 0
v -96 -112 0
v -104 -112 0
v -104 -104 0
v -96 -104 0
v -104 -112 0
v -112 -112 0
v -112 -104 0
v -104 -104 0
v -112 -112 0
v -120 -112 0
v -120 -104 0
v -112 -104 0
v -120 -112 0
v -128 -112 0
v -128 -104 0
v -120 -104 0
v 0 -120 0
v -8 -120 0
v -8 -112 0
v 0 -112 0
v -8 -120 0
v -16 -120 0
v -16 -112 0
v -8 -112 0
v -16 -120 0
v -24 -120 0
v -24 -112 0
v -16 -112 0
v -24 -120 0
v -32 -120 0
v -32 -112 0
v -24 -112 0
v -32 -120 0
v -40 -120 0
v -40 -112 0
v -32 -112 0
v -40 -120 0
v -48 -120 0
v -48 -112 0
v -40 -112 0
v -48 -120 0
v -56 -120 0
v -56 -112 0
v -48 -112 0
v -56 -120 0
v -64 -120 0
v -64 -112 0
v -56 -112 0
v -64 -120 0
v -72 -120 0
v -72 -112 0
v -64 -112 0
v -72 -120 0
v -80 -120 0
v -80 -112 0
v -72 -112 0
v -80 -120 0
v -88 -120 0
v -88 -112 0
v -80 -112 0
v -88 -120 0
v -96 -120 0
v -96 -112 0
v -88 -112 0
v -96 -120 0
v -104 -120 0
v -104 -112 0
v -96 -112 0
v -104 -120 0
v -112 -120 0
v -112 -112 0
v -104 -112 0
v -112 -120 0
v -120 -120 0
v -120 -112 0
v -112 -112 0
v -120 -120 0
v -128 -120 0
v -128 -112 0
v -120 -112 0
v 0 -128 0
v -8 -128 0
v -8 -120 0
v 0 -120 0
v -8 -128 0
v -16 -128 0
v -16 -120 0
v -8 -120 0
v -16 -128 0
v -24 -128 0
v -24 -120 0
v -16 -120 0
v -24 -128 0
v -32 -128 0
v -32 -120 0
v -24 -120 0
v -32 -128 0
v -40 -128 0
v -40 -120 0
v -32 -120 0
v -40 -128 0
v -48 -128 0
v -48 -120 0
v -40 -120 0
v -48 -128 0
v -56 -128 0
v -56 -120 0
v -48 -120 0
v -56 -128 0
v -64 -128 0
v -64 -120 0
v -56 -120 0
v -64 -128 0
v -72 -128 0
v -72 -120 0
v -64 -120 0
v -72 -128 0
v -80 -128 0
v -80 -120 0
v -72 -120 0
v -80 -128 0
v -88 -128 0
v -88 -120 0
v -80 -120 0
v -88 -128 0
v -96 -128 0
v -96 -120 0
v -88 -120 0
v -96 -128 0
v -104 -128 0
v -104 -120 0
v -96 -120 0
v -104 -128 0
v -112 -128 0
v -112 -120 0
v -104 -120 0
v -112 -128 0
v -120 -128 0
v -120 -120 0
v -112 -120 0
v -120 -128 0
v -128 -128 0
v -128 -120 0
v -120 -120 0

# Texture cooridinates (Count = 9)
vt 0.4411765 0.8877551
vt 0.4558823 0.8877551
vt 0.4558823 0.8979592
vt 0.4411765 0.8979592
vt 0.4264706 0.8979592
vt 0.4411765 0.9081632
vt 0.4264706 0.9081632
vt 0.4264706 0.8877551
vt 0.4558823 0.9081632

# Normal
vn 0 0 -1

# Mesh description
g Rogue_mesh_0010

# Faces
f 1/1/1 2/2/1 3/3/1 4/4/1
f 5/5/1 6/4/1 7/6/1 8/7/1
f 9/8/1 10/1/1 11/4/1 12/5/1
f 13/5/1 14/4/1 15/6/1 16/7/1
f 17/4/1 18/3/1 19/9/1 20/6/1
f 21/5/1 22/4/1 23/6/1 24/7/1
f 25/4/1 26/3/1 27/9/1 28/6/1
f 29/8/1 30/1/1 31/4/1 32/5/1
f 33/8/1 34/1/1 35/4/1 36/5/1
f 37/8/1 38/1/1 39/4/1 40/5/1
f 41/8/1 42/1/1 43/4/1 44/5/1
f 45/5/1 46/4/1 47/6/1 48/7/1
f 49/4/1 50/3/1 51/9/1 52/6/1
f 53/4/1 54/3/1 55/9/1 56/6/1
f 57/5/1 58/4/1 59/6/1 60/7/1
f 61/4/1 62/3/1 63/9/1 64/6/1
f 65/1/1 66/2/1 67/3/1 68/4/1
f 69/8/1 70/1/1 71/4/1 72/5/1
f 73/8/1 74/1/1 75/4/1 76/5/1
f 77/5/1 78/4/1 79/6/1 80/7/1
f 81/4/1 82/3/1 83/9/1 84/6/1
f 85/4/1 86/3/1 87/9/1 88/6/1
f 89/4/1 90/3/1 91/9/1 92/6/1
f 93/4/1 94/3/1 95/9/1 96/6/1
f 97/4/1 98/3/1 99/9/1 100/6/1
f 101/4/1 102/3/1 103/9/1 104/6/1
f 105/4/1 106/3/1 107/9/1 108/6/1
f 109/4/1 110/3/1 111/9/1 112/6/1
f 113/4/1 114/3/1 115/9/1 116/6/1
f 117/4/1 118/3/1 119/9/1 120/6/1
f 121/4/1 122/3/1 123/9/1 124/6/1
f 125/1/1 126/2/1 127/3/1 128/4/1
f 129/1/1 130/2/1 131/3/1 132/4/1
f 133/8/1 134/1/1 135/4/1 136/5/1
f 137/5/1 138/4/1 139/6/1 140/7/1
f 141/4/1 142/3/1 143/9/1 144/6/1
f 145/4/1 146/3/1 147/9/1 148/6/1
f 149/1/1 150/2/1 151/3/1 152/4/1
f 153/1/1 154/2/1 155/3/1 156/4/1
f 157/5/1 158/4/1 159/6/1 160/7/1
f 161/5/1 162/4/1 163/6/1 164/7/1
f 165/5/1 166/4/1 167/6/1 168/7/1
f 169/5/1 170/4/1 171/6/1 172/7/1
f 173/5/1 174/4/1 175/6/1 176/7/1
f 177/5/1 178/4/1 179/6/1 180/7/1
f 181/5/1 182/4/1 183/6/1 184/7/1
f 185/5/1 186/4/1 187/6/1 188/7/1
f 189/5/1 190/4/1 191/6/1 192/7/1
f 193/1/1 194/2/1 195/3/1 196/4/1
f 197/5/1 198/4/1 199/6/1 200/7/1
f 201/4/1 202/3/1 203/9/1 204/6/1
f 205/4/1 206/3/1 207/9/1 208/6/1
f 209/1/1 210/2/1 211/3/1 212/4/1
f 213/8/1 214/1/1 215/4/1 216/5/1
f 217/1/1 218/2/1 219/3/1 220/4/1
f 221/8/1 222/1/1 223/4/1 224/5/1
f 225/8/1 226/1/1 227/4/1 228/5/1
f 229/8/1 230/1/1 231/4/1 232/5/1
f 233/8/1 234/1/1 235/4/1 236/5/1
f 237/8/1 238/1/1 239/4/1 240/5/1
f 241/8/1 242/1/1 243/4/1 244/5/1
f 245/8/1 246/1/1 247/4/1 248/5/1
f 249/8/1 250/1/1 251/4/1 252/5/1
f 253/8/1 254/1/1 255/4/1 256/5/1
f 257/5/1 258/4/1 259/6/1 260/7/1
f 261/4/1 262/3/1 263/9/1 264/6/1
f 265/4/1 266/3/1 267/9/1 268/6/1
f 269/1/1 270/2/1 271/3/1 272/4/1
f 273/8/1 274/1/1 275/4/1 276/5/1
f 277/1/1 278/2/1 279/3/1 280/4/1
f 281/8/1 282/1/1 283/4/1 284/5/1
f 285/8/1 286/1/1 287/4/1 288/5/1
f 289/8/1 290/1/1 291/4/1 292/5/1
f 293/8/1 294/1/1 295/4/1 296/5/1
f 297/8/1 298/1/1 299/4/1 300/5/1
f 301/8/1 302/1/1 303/4/1 304/5/1
f 305/5/1 306/4/1 307/6/1 308/7/1
f 309/4/1 310/3/1 311/9/1 312/6/1
f 313/4/1 314/3/1 315/9/1 316/6/1
f 317/4/1 318/3/1 319/9/1 320/6/1
f 321/4/1 322/3/1 323/9/1 324/6/1
f 325/4/1 326/3/1 327/9/1 328/6/1
f 329/1/1 330/2/1 331/3/1 332/4/1
f 333/5/1 334/4/1 335/6/1 336/7/1
f 337/8/1 338/1/1 339/4/1 340/5/1
f 341/1/1 342/2/1 343/3/1 344/4/1
f 345/5/1 346/4/1 347/6/1 348/7/1
f 349/5/1 350/4/1 351/6/1 352/7/1
f 353/4/1 354/3/1 355/9/1 356/6/1
f 357/5/1 358/4/1 359/6/1 360/7/1
f 361/5/1 362/4/1 363/6/1 364/7/1
f 365/5/1 366/4/1 367/6/1 368/7/1
f 369/5/1 370/4/1 371/6/1 372/7/1
f 373/5/1 374/4/1 375/6/1 376/7/1
f 377/5/1 378/4/1 379/6/1 380/7/1
f 381/4/1 382/3/1 383/9/1 384/6/1
f 385/4/1 386/3/1 387/9/1 388/6/1
f 389/1/1 390/2/1 391/3/1 392/4/1
f 393/8/1 394/1/1 395/4/1 396/5/1
f 397/5/1 398/4/1 399/6/1 400/7/1
f 401/8/1 402/1/1 403/4/1 404/5/1
f 405/1/1 406/2/1 407/3/1 408/4/1
f 409/4/1 410/3/1 411/9/1 412/6/1
f 413/4/1 414/3/1 415/9/1 416/6/1
f 417/1/1 418/2/1 419/3/1 420/4/1
f 421/4/1 422/3/1 423/9/1 424/6/1
f 425/4/1 426/3/1 427/9/1 428/6/1
f 429/4/1 430/3/1 431/9/1 432/6/1
f 433/4/1 434/3/1 435/9/1 436/6/1
f 437/4/1 438/3/1 439/9/1 440/6/1
f 441/4/1 442/3/1 443/9/1 444/6/1
f 445/4/1 446/3/1 447/9/1 448/6/1
f 449/1/1 450/2/1 451/3/1 452/4/1
f 453/5/1 454/4/1 455/6/1 456/7/1
f 457/5/1 458/4/1 459/6/1 460/7/1
f 461/8/1 462/1/1 463/4/1 464/5/1
f 465/1/1 466/2/1 467/3/1 468/4/1
f 469/4/1 470/3/1 471/9/1 472/6/1
f 473/4/1 474/3/1 475/9/1 476/6/1
f 477/1/1 478/2/1 479/3/1 480/4/1
f 481/5/1 482/4/1 483/6/1 484/7/1
f 485/5/1 486/4/1 487/6/1 488/7/1
f 489/5/1 490/4/1 491/6/1 492/7/1
f 493/5/1 494/4/1 495/6/1 496/7/1
f 497/5/1 498/4/1 499/6/1 500/7/1
f 501/5/1 502/4/1 503/6/1 504/7/1
f 505/5/1 506/4/1 507/6/1 508/7/1
f 509/5/1 510/4/1 511/6/1 512/7/1
f 513/1/1 514/2/1 515/3/1 516/4/1
f 517/8/1 518/1/1 519/4/1 520/5/1
f 521/5/1 522/4/1 523/6/1 524/7/1
f 525/8/1 526/1/1 527/4/1 528/5/1
f 529/1/1 530/2/1 531/3/1 532/4/1
f 533/5/1 534/4/1 535/6/1 536/7/1
f 537/4/1 538/3/1 539/9/1 540/6/1
f 541/4/1 542/3/1 543/9/1 544/6/1
f 545/8/1 546/1/1 547/4/1 548/5/1
f 549/8/1 550/1/1 551/4/1 552/5/1
f 553/8/1 554/1/1 555/4/1 556/5/1
f 557/8/1 558/1/1 559/4/1 560/5/1
f 561/8/1 562/1/1 563/4/1 564/5/1
f 565/8/1 566/1/1 567/4/1 568/5/1
f 569/8/1 570/1/1 571/4/1 572/5/1
f 573/8/1 574/1/1 575/4/1 576/5/1
f 577/1/1 578/2/1 579/3/1 580/4/1
f 581/5/1 582/4/1 583/6/1 584/7/1
f 585/8/1 586/1/1 587/4/1 588/5/1
f 589/8/1 590/1/1 591/4/1 592/5/1
f 593/1/1 594/2/1 595/3/1 596/4/1
f 597/4/1 598/3/1 599/9/1 600/6/1
f 601/5/1 602/4/1 603/6/1 604/7/1
f 605/4/1 606/3/1 607/9/1 608/6/1
f 609/8/1 610/1/1 611/4/1 612/5/1
f 613/8/1 614/1/1 615/4/1 616/5/1
f 617/8/1 618/1/1 619/4/1 620/5/1
f 621/5/1 622/4/1 623/6/1 624/7/1
f 625/4/1 626/3/1 627/9/1 628/6/1
f 629/4/1 630/3/1 631/9/1 632/6/1
f 633/8/1 634/1/1 635/4/1 636/5/1
f 637/5/1 638/4/1 639/6/1 640/7/1
f 641/1/1 642/2/1 643/3/1 644/4/1
f 645/5/1 646/4/1 647/6/1 648/7/1
f 649/8/1 650/1/1 651/4/1 652/5/1
f 653/1/1 654/2/1 655/3/1 656/4/1
f 657/5/1 658/4/1 659/6/1 660/7/1
f 661/5/1 662/4/1 663/6/1 664/7/1
f 665/4/1 666/3/1 667/9/1 668/6/1
f 669/4/1 670/3/1 671/9/1 672/6/1
f 673/8/1 674/1/1 675/4/1 676/5/1
f 677/5/1 678/4/1 679/6/1 680/7/1
f 681/4/1 682/3/1 683/9/1 684/6/1
f 685/4/1 686/3/1 687/9/1 688/6/1
f 689/4/1 690/3/1 691/9/1 692/6/1
f 693/1/1 694/2/1 695/3/1 696/4/1
f 697/1/1 698/2/1 699/3/1 700/4/1
f 701/8/1 702/1/1 703/4/1 704/5/1
f 705/5/1 706/4/1 707/6/1 708/7/1
f 709/8/1 710/1/1 711/4/1 712/5/1
f 713/8/1 714/1/1 715/4/1 716/5/1
f 717/1/1 718/2/1 719/3/1 720/4/1
f 721/5/1 722/4/1 723/6/1 724/7/1
f 725/4/1 726/3/1 727/9/1 728/6/1
f 729/4/1 730/3/1 731/9/1 732/6/1
f 733/1/1 734/2/1 735/3/1 736/4/1
f 737/5/1 738/4/1 739/6/1 740/7/1
f 741/4/1 742/3/1 743/9/1 744/6/1
f 745/4/1 746/3/1 747/9/1 748/6/1
f 749/1/1 750/2/1 751/3/1 752/4/1
f 753/1/1 754/2/1 755/3/1 756/4/1
f 757/5/1 758/4/1 759/6/1 760/7/1
f 761/5/1 762/4/1 763/6/1 764/7/1
f 765/5/1 766/4/1 767/6/1 768/7/1
f 769/5/1 770/4/1 771/6/1 772/7/1
f 773/8/1 774/1/1 775/4/1 776/5/1
f 777/1/1 778/2/1 779/3/1 780/4/1
f 781/5/1 782/4/1 783/6/1 784/7/1
f 785/5/1 786/4/1 787/6/1 788/7/1
f 789/4/1 790/3/1 791/9/1 792/6/1
f 793/1/1 794/2/1 795/3/1 796/4/1
f 797/4/1 798/3/1 799/9/1 800/6/1
f 801/4/1 802/3/1 803/9/1 804/6/1
f 805/1/1 806/2/1 807/3/1 808/4/1
f 809/1/1 810/2/1 811/3/1 812/4/1
f 813/1/1 814/2/1 815/3/1 816/4/1
f 817/5/1 818/4/1 819/6/1 820/7/1
f 821/4/1 822/3/1 823/9/1 824/6/1
f 825/4/1 826/3/1 827/9/1 828/6/1
f 829/4/1 830/3/1 831/9/1 832/6/1
f 833/8/1 834/1/1 835/4/1 836/5/1
f 837/8/1 838/1/1 839/4/1 840/5/1
f 841/1/1 842/2/1 843/3/1 844/4/1
f 845/8/1 846/1/1 847/4/1 848/5/1
f 849/5/1 850/4/1 851/6/1 852/7/1
f 853/4/1 854/3/1 855/9/1 856/6/1
f 857/4/1 858/3/1 859/9/1 860/6/1
f 861/4/1 862/3/1 863/9/1 864/6/1
f 865/1/1 866/2/1 867/3/1 868/4/1
f 869/8/1 870/1/1 871/4/1 872/5/1
f 873/1/1 874/2/1 875/3/1 876/4/1
f 877/4/1 878/3/1 879/9/1 880/6/1
f 881/4/1 882/3/1 883/9/1 884/6/1
f 885/4/1 886/3/1 887/9/1 888/6/1
f 889/1/1 890/2/1 891/3/1 892/4/1
f 893/1/1 894/2/1 895/3/1 896/4/1
f 897/8/1 898/1/1 899/4/1 900/5/1
f 901/5/1 902/4/1 903/6/1 904/7/1
f 905/8/1 906/1/1 907/4/1 908/5/1
f 909/8/1 910/1/1 911/4/1 912/5/1
f 913/8/1 914/1/1 915/4/1 916/5/1
f 917/1/1 918/2/1 919/3/1 920/4/1
f 921/1/1 922/2/1 923/3/1 924/4/1
f 925/1/1 926/2/1 927/3/1 928/4/1
f 929/1/1 930/2/1 931/3/1 932/4/1
f 933/4/1 934/3/1 935/9/1 936/6/1
f 937/4/1 938/3/1 939/9/1 940/6/1
f 941/1/1 942/2/1 943/3/1 944/4/1
f 945/1/1 946/2/1 947/3/1 948/4/1
f 949/1/1 950/2/1 951/3/1 952/4/1
f 953/5/1 954/4/1 955/6/1 956/7/1
f 957/5/1 958/4/1 959/6/1 960/7/1
f 961/5/1 962/4/1 963/6/1 964/7/1
f 965/8/1 966/1/1 967/4/1 968/5/1
f 969/8/1 970/1/1 971/4/1 972/5/1
f 973/1/1 974/2/1 975/3/1 976/4/1
f 977/1/1 978/2/1 979/3/1 980/4/1
f 981/1/1 982/2/1 983/3/1 984/4/1
f 985/8/1 986/1/1 987/4/1 988/5/1
f 989/1/1 990/2/1 991/3/1 992/4/1
f 993/4/1 994/3/1 995/9/1 996/6/1
f 997/4/1 998/3/1 999/9/1 1000/6/1
f 1001/1/1 1002/2/1 1003/3/1 1004/4/1
f 1005/4/1 1006/3/1 1007/9/1 1008/6/1
f 1009/5/1 1010/4/1 1011/6/1 1012/7/1
f 1013/5/1 1014/4/1 1015/6/1 1016/7/1
f 1017/8/1 1018/1/1 1019/4/1 1020/5/1
f 1021/8/1 1022/1/1 1023/4/1 1024/5/1

