# Tiled2Unity generated file. Do not modify by hand.
# Wavefront file for 'Rogue_mesh_0020.obj'

# Vertices (Count = 64)
v 0 -8 0
v -8 -8 0
v -8 0 0
v 0 0 0
v -8 -8 0
v -16 -8 0
v -16 0 0
v -8 0 0
v -16 -8 0
v -24 -8 0
v -24 0 0
v -16 0 0
v -24 -8 0
v -32 -8 0
v -32 0 0
v -24 0 0
v -32 -8 0
v -40 -8 0
v -40 0 0
v -32 0 0
v -40 -8 0
v -48 -8 0
v -48 0 0
v -40 0 0
v -48 -8 0
v -56 -8 0
v -56 0 0
v -48 0 0
v -56 -8 0
v -64 -8 0
v -64 0 0
v -56 0 0
v -64 -8 0
v -72 -8 0
v -72 0 0
v -64 0 0
v -72 -8 0
v -80 -8 0
v -80 0 0
v -72 0 0
v -80 -8 0
v -88 -8 0
v -88 0 0
v -80 0 0
v -88 -8 0
v -96 -8 0
v -96 0 0
v -88 0 0
v -96 -8 0
v -104 -8 0
v -104 0 0
v -96 0 0
v -104 -8 0
v -112 -8 0
v -112 0 0
v -104 0 0
v -112 -8 0
v -120 -8 0
v -120 0 0
v -112 0 0
v -120 -8 0
v -128 -8 0
v -128 0 0
v -120 0 0

# Texture cooridinates (Count = 26)
vt 0.2941177 0.6428571
vt 0.3088235 0.6428571
vt 0.3088235 0.6530612
vt 0.2941177 0.6530612
vt 0.3235294 0.6428571
vt 0.3235294 0.6530612
vt 0.3382353 0.6428571
vt 0.3382353 0.6530612
vt 0.3529412 0.6428571
vt 0.3529412 0.6530612
vt 0.3676471 0.6428571
vt 0.3676471 0.6530612
vt 0.2352941 0.6428571
vt 0.25 0.6428571
vt 0.25 0.6530612
vt 0.2352941 0.6530612
vt 0.2647059 0.6428571
vt 0.2647059 0.6530612
vt 0.2794118 0.6428571
vt 0.2794118 0.6530612
vt 0.8823529 0.8265306
vt 0.8970588 0.8265306
vt 0.8970588 0.8367347
vt 0.8823529 0.8367347
vt 0.9117647 0.8265306
vt 0.9117647 0.8367347

# Normal
vn 0 0 -1

# Mesh description
g Rogue_mesh_0020

# Faces
f 1/1/1 2/2/1 3/3/1 4/4/1
f 5/2/1 6/5/1 7/6/1 8/3/1
f 9/5/1 10/7/1 11/8/1 12/6/1
f 13/7/1 14/9/1 15/10/1 16/8/1
f 17/9/1 18/11/1 19/12/1 20/10/1
f 21/13/1 22/14/1 23/15/1 24/16/1
f 25/14/1 26/17/1 27/18/1 28/15/1
f 29/17/1 30/19/1 31/20/1 32/18/1
f 33/19/1 34/1/1 35/4/1 36/20/1
f 37/1/1 38/2/1 39/3/1 40/4/1
f 41/2/1 42/5/1 43/6/1 44/3/1
f 45/5/1 46/7/1 47/8/1 48/6/1
f 49/7/1 50/9/1 51/10/1 52/8/1
f 53/9/1 54/11/1 55/12/1 56/10/1
f 57/21/1 58/22/1 59/23/1 60/24/1
f 61/22/1 62/25/1 63/26/1 64/23/1

