# Tiled2Unity generated file. Do not modify by hand.
# Wavefront file for 'Rogue_mesh_0019.obj'

# Vertices (Count = 64)
v 0 -8 0
v -8 -8 0
v -8 0 0
v 0 0 0
v -8 -8 0
v -16 -8 0
v -16 0 0
v -8 0 0
v -16 -8 0
v -24 -8 0
v -24 0 0
v -16 0 0
v -24 -8 0
v -32 -8 0
v -32 0 0
v -24 0 0
v -32 -8 0
v -40 -8 0
v -40 0 0
v -32 0 0
v -40 -8 0
v -48 -8 0
v -48 0 0
v -40 0 0
v -48 -8 0
v -56 -8 0
v -56 0 0
v -48 0 0
v -56 -8 0
v -64 -8 0
v -64 0 0
v -56 0 0
v -64 -8 0
v -72 -8 0
v -72 0 0
v -64 0 0
v -72 -8 0
v -80 -8 0
v -80 0 0
v -72 0 0
v -80 -8 0
v -88 -8 0
v -88 0 0
v -80 0 0
v -88 -8 0
v -96 -8 0
v -96 0 0
v -88 0 0
v -96 -8 0
v -104 -8 0
v -104 0 0
v -96 0 0
v -104 -8 0
v -112 -8 0
v -112 0 0
v -104 0 0
v -112 -8 0
v -120 -8 0
v -120 0 0
v -112 0 0
v -120 -8 0
v -128 -8 0
v -128 0 0
v -120 0 0

# Texture cooridinates (Count = 24)
vt 0.4411765 0.8979592
vt 0.4558823 0.8979592
vt 0.4558823 0.9081632
vt 0.4411765 0.9081632
vt 0.2941177 0.6428571
vt 0.3088235 0.6428571
vt 0.3088235 0.6530612
vt 0.2941177 0.6530612
vt 0.3235294 0.6428571
vt 0.3235294 0.6530612
vt 0.3382353 0.6428571
vt 0.3382353 0.6530612
vt 0.3529412 0.6428571
vt 0.3529412 0.6530612
vt 0.3676471 0.6428571
vt 0.3676471 0.6530612
vt 0.2352941 0.6428571
vt 0.25 0.6428571
vt 0.25 0.6530612
vt 0.2352941 0.6530612
vt 0.2647059 0.6428571
vt 0.2647059 0.6530612
vt 0.2794118 0.6428571
vt 0.2794118 0.6530612

# Normal
vn 0 0 -1

# Mesh description
g Rogue_mesh_0019

# Faces
f 1/1/1 2/2/1 3/3/1 4/4/1
f 5/1/1 6/2/1 7/3/1 8/4/1
f 9/1/1 10/2/1 11/3/1 12/4/1
f 13/1/1 14/2/1 15/3/1 16/4/1
f 17/1/1 18/2/1 19/3/1 20/4/1
f 21/1/1 22/2/1 23/3/1 24/4/1
f 25/5/1 26/6/1 27/7/1 28/8/1
f 29/6/1 30/9/1 31/10/1 32/7/1
f 33/9/1 34/11/1 35/12/1 36/10/1
f 37/11/1 38/13/1 39/14/1 40/12/1
f 41/13/1 42/15/1 43/16/1 44/14/1
f 45/17/1 46/18/1 47/19/1 48/20/1
f 49/17/1 50/18/1 51/19/1 52/20/1
f 53/18/1 54/21/1 55/22/1 56/19/1
f 57/21/1 58/23/1 59/24/1 60/22/1
f 61/23/1 62/5/1 63/8/1 64/24/1

