# Tiled2Unity generated file. Do not modify by hand.
# Wavefront file for 'Rogue_mesh_0005.obj'

# Vertices (Count = 1024)
v 0 -8 0
v -8 -8 0
v -8 0 0
v 0 0 0
v -8 -8 0
v -16 -8 0
v -16 0 0
v -8 0 0
v -16 -8 0
v -24 -8 0
v -24 0 0
v -16 0 0
v -24 -8 0
v -32 -8 0
v -32 0 0
v -24 0 0
v -32 -8 0
v -40 -8 0
v -40 0 0
v -32 0 0
v -40 -8 0
v -48 -8 0
v -48 0 0
v -40 0 0
v -48 -8 0
v -56 -8 0
v -56 0 0
v -48 0 0
v -56 -8 0
v -64 -8 0
v -64 0 0
v -56 0 0
v -64 -8 0
v -72 -8 0
v -72 0 0
v -64 0 0
v -72 -8 0
v -80 -8 0
v -80 0 0
v -72 0 0
v -80 -8 0
v -88 -8 0
v -88 0 0
v -80 0 0
v -88 -8 0
v -96 -8 0
v -96 0 0
v -88 0 0
v -96 -8 0
v -104 -8 0
v -104 0 0
v -96 0 0
v -104 -8 0
v -112 -8 0
v -112 0 0
v -104 0 0
v -112 -8 0
v -120 -8 0
v -120 0 0
v -112 0 0
v -120 -8 0
v -128 -8 0
v -128 0 0
v -120 0 0
v 0 -16 0
v -8 -16 0
v -8 -8 0
v 0 -8 0
v -8 -16 0
v -16 -16 0
v -16 -8 0
v -8 -8 0
v -16 -16 0
v -24 -16 0
v -24 -8 0
v -16 -8 0
v -24 -16 0
v -32 -16 0
v -32 -8 0
v -24 -8 0
v -32 -16 0
v -40 -16 0
v -40 -8 0
v -32 -8 0
v -40 -16 0
v -48 -16 0
v -48 -8 0
v -40 -8 0
v -48 -16 0
v -56 -16 0
v -56 -8 0
v -48 -8 0
v -56 -16 0
v -64 -16 0
v -64 -8 0
v -56 -8 0
v -64 -16 0
v -72 -16 0
v -72 -8 0
v -64 -8 0
v -72 -16 0
v -80 -16 0
v -80 -8 0
v -72 -8 0
v -80 -16 0
v -88 -16 0
v -88 -8 0
v -80 -8 0
v -88 -16 0
v -96 -16 0
v -96 -8 0
v -88 -8 0
v -96 -16 0
v -104 -16 0
v -104 -8 0
v -96 -8 0
v -104 -16 0
v -112 -16 0
v -112 -8 0
v -104 -8 0
v -112 -16 0
v -120 -16 0
v -120 -8 0
v -112 -8 0
v -120 -16 0
v -128 -16 0
v -128 -8 0
v -120 -8 0
v 0 -24 0
v -8 -24 0
v -8 -16 0
v 0 -16 0
v -8 -24 0
v -16 -24 0
v -16 -16 0
v -8 -16 0
v -16 -24 0
v -24 -24 0
v -24 -16 0
v -16 -16 0
v -24 -24 0
v -32 -24 0
v -32 -16 0
v -24 -16 0
v -32 -24 0
v -40 -24 0
v -40 -16 0
v -32 -16 0
v -40 -24 0
v -48 -24 0
v -48 -16 0
v -40 -16 0
v -48 -24 0
v -56 -24 0
v -56 -16 0
v -48 -16 0
v -56 -24 0
v -64 -24 0
v -64 -16 0
v -56 -16 0
v -64 -24 0
v -72 -24 0
v -72 -16 0
v -64 -16 0
v -72 -24 0
v -80 -24 0
v -80 -16 0
v -72 -16 0
v -80 -24 0
v -88 -24 0
v -88 -16 0
v -80 -16 0
v -88 -24 0
v -96 -24 0
v -96 -16 0
v -88 -16 0
v -96 -24 0
v -104 -24 0
v -104 -16 0
v -96 -16 0
v -104 -24 0
v -112 -24 0
v -112 -16 0
v -104 -16 0
v -112 -24 0
v -120 -24 0
v -120 -16 0
v -112 -16 0
v -120 -24 0
v -128 -24 0
v -128 -16 0
v -120 -16 0
v 0 -32 0
v -8 -32 0
v -8 -24 0
v 0 -24 0
v -8 -32 0
v -16 -32 0
v -16 -24 0
v -8 -24 0
v -16 -32 0
v -24 -32 0
v -24 -24 0
v -16 -24 0
v -24 -32 0
v -32 -32 0
v -32 -24 0
v -24 -24 0
v -32 -32 0
v -40 -32 0
v -40 -24 0
v -32 -24 0
v -40 -32 0
v -48 -32 0
v -48 -24 0
v -40 -24 0
v -48 -32 0
v -56 -32 0
v -56 -24 0
v -48 -24 0
v -56 -32 0
v -64 -32 0
v -64 -24 0
v -56 -24 0
v -64 -32 0
v -72 -32 0
v -72 -24 0
v -64 -24 0
v -72 -32 0
v -80 -32 0
v -80 -24 0
v -72 -24 0
v -80 -32 0
v -88 -32 0
v -88 -24 0
v -80 -24 0
v -88 -32 0
v -96 -32 0
v -96 -24 0
v -88 -24 0
v -96 -32 0
v -104 -32 0
v -104 -24 0
v -96 -24 0
v -104 -32 0
v -112 -32 0
v -112 -24 0
v -104 -24 0
v -112 -32 0
v -120 -32 0
v -120 -24 0
v -112 -24 0
v -120 -32 0
v -128 -32 0
v -128 -24 0
v -120 -24 0
v 0 -40 0
v -8 -40 0
v -8 -32 0
v 0 -32 0
v -8 -40 0
v -16 -40 0
v -16 -32 0
v -8 -32 0
v -16 -40 0
v -24 -40 0
v -24 -32 0
v -16 -32 0
v -24 -40 0
v -32 -40 0
v -32 -32 0
v -24 -32 0
v -32 -40 0
v -40 -40 0
v -40 -32 0
v -32 -32 0
v -40 -40 0
v -48 -40 0
v -48 -32 0
v -40 -32 0
v -48 -40 0
v -56 -40 0
v -56 -32 0
v -48 -32 0
v -56 -40 0
v -64 -40 0
v -64 -32 0
v -56 -32 0
v -64 -40 0
v -72 -40 0
v -72 -32 0
v -64 -32 0
v -72 -40 0
v -80 -40 0
v -80 -32 0
v -72 -32 0
v -80 -40 0
v -88 -40 0
v -88 -32 0
v -80 -32 0
v -88 -40 0
v -96 -40 0
v -96 -32 0
v -88 -32 0
v -96 -40 0
v -104 -40 0
v -104 -32 0
v -96 -32 0
v -104 -40 0
v -112 -40 0
v -112 -32 0
v -104 -32 0
v -112 -40 0
v -120 -40 0
v -120 -32 0
v -112 -32 0
v -120 -40 0
v -128 -40 0
v -128 -32 0
v -120 -32 0
v 0 -48 0
v -8 -48 0
v -8 -40 0
v 0 -40 0
v -8 -48 0
v -16 -48 0
v -16 -40 0
v -8 -40 0
v -16 -48 0
v -24 -48 0
v -24 -40 0
v -16 -40 0
v -24 -48 0
v -32 -48 0
v -32 -40 0
v -24 -40 0
v -32 -48 0
v -40 -48 0
v -40 -40 0
v -32 -40 0
v -40 -48 0
v -48 -48 0
v -48 -40 0
v -40 -40 0
v -48 -48 0
v -56 -48 0
v -56 -40 0
v -48 -40 0
v -56 -48 0
v -64 -48 0
v -64 -40 0
v -56 -40 0
v -64 -48 0
v -72 -48 0
v -72 -40 0
v -64 -40 0
v -72 -48 0
v -80 -48 0
v -80 -40 0
v -72 -40 0
v -80 -48 0
v -88 -48 0
v -88 -40 0
v -80 -40 0
v -88 -48 0
v -96 -48 0
v -96 -40 0
v -88 -40 0
v -96 -48 0
v -104 -48 0
v -104 -40 0
v -96 -40 0
v -104 -48 0
v -112 -48 0
v -112 -40 0
v -104 -40 0
v -112 -48 0
v -120 -48 0
v -120 -40 0
v -112 -40 0
v -120 -48 0
v -128 -48 0
v -128 -40 0
v -120 -40 0
v 0 -56 0
v -8 -56 0
v -8 -48 0
v 0 -48 0
v -8 -56 0
v -16 -56 0
v -16 -48 0
v -8 -48 0
v -16 -56 0
v -24 -56 0
v -24 -48 0
v -16 -48 0
v -24 -56 0
v -32 -56 0
v -32 -48 0
v -24 -48 0
v -32 -56 0
v -40 -56 0
v -40 -48 0
v -32 -48 0
v -40 -56 0
v -48 -56 0
v -48 -48 0
v -40 -48 0
v -48 -56 0
v -56 -56 0
v -56 -48 0
v -48 -48 0
v -56 -56 0
v -64 -56 0
v -64 -48 0
v -56 -48 0
v -64 -56 0
v -72 -56 0
v -72 -48 0
v -64 -48 0
v -72 -56 0
v -80 -56 0
v -80 -48 0
v -72 -48 0
v -80 -56 0
v -88 -56 0
v -88 -48 0
v -80 -48 0
v -88 -56 0
v -96 -56 0
v -96 -48 0
v -88 -48 0
v -96 -56 0
v -104 -56 0
v -104 -48 0
v -96 -48 0
v -104 -56 0
v -112 -56 0
v -112 -48 0
v -104 -48 0
v -112 -56 0
v -120 -56 0
v -120 -48 0
v -112 -48 0
v -120 -56 0
v -128 -56 0
v -128 -48 0
v -120 -48 0
v 0 -64 0
v -8 -64 0
v -8 -56 0
v 0 -56 0
v -8 -64 0
v -16 -64 0
v -16 -56 0
v -8 -56 0
v -16 -64 0
v -24 -64 0
v -24 -56 0
v -16 -56 0
v -24 -64 0
v -32 -64 0
v -32 -56 0
v -24 -56 0
v -32 -64 0
v -40 -64 0
v -40 -56 0
v -32 -56 0
v -40 -64 0
v -48 -64 0
v -48 -56 0
v -40 -56 0
v -48 -64 0
v -56 -64 0
v -56 -56 0
v -48 -56 0
v -56 -64 0
v -64 -64 0
v -64 -56 0
v -56 -56 0
v -64 -64 0
v -72 -64 0
v -72 -56 0
v -64 -56 0
v -72 -64 0
v -80 -64 0
v -80 -56 0
v -72 -56 0
v -80 -64 0
v -88 -64 0
v -88 -56 0
v -80 -56 0
v -88 -64 0
v -96 -64 0
v -96 -56 0
v -88 -56 0
v -96 -64 0
v -104 -64 0
v -104 -56 0
v -96 -56 0
v -104 -64 0
v -112 -64 0
v -112 -56 0
v -104 -56 0
v -112 -64 0
v -120 -64 0
v -120 -56 0
v -112 -56 0
v -120 -64 0
v -128 -64 0
v -128 -56 0
v -120 -56 0
v 0 -72 0
v -8 -72 0
v -8 -64 0
v 0 -64 0
v -8 -72 0
v -16 -72 0
v -16 -64 0
v -8 -64 0
v -16 -72 0
v -24 -72 0
v -24 -64 0
v -16 -64 0
v -24 -72 0
v -32 -72 0
v -32 -64 0
v -24 -64 0
v -32 -72 0
v -40 -72 0
v -40 -64 0
v -32 -64 0
v -40 -72 0
v -48 -72 0
v -48 -64 0
v -40 -64 0
v -48 -72 0
v -56 -72 0
v -56 -64 0
v -48 -64 0
v -56 -72 0
v -64 -72 0
v -64 -64 0
v -56 -64 0
v -64 -72 0
v -72 -72 0
v -72 -64 0
v -64 -64 0
v -72 -72 0
v -80 -72 0
v -80 -64 0
v -72 -64 0
v -80 -72 0
v -88 -72 0
v -88 -64 0
v -80 -64 0
v -88 -72 0
v -96 -72 0
v -96 -64 0
v -88 -64 0
v -96 -72 0
v -104 -72 0
v -104 -64 0
v -96 -64 0
v -104 -72 0
v -112 -72 0
v -112 -64 0
v -104 -64 0
v -112 -72 0
v -120 -72 0
v -120 -64 0
v -112 -64 0
v -120 -72 0
v -128 -72 0
v -128 -64 0
v -120 -64 0
v 0 -80 0
v -8 -80 0
v -8 -72 0
v 0 -72 0
v -8 -80 0
v -16 -80 0
v -16 -72 0
v -8 -72 0
v -16 -80 0
v -24 -80 0
v -24 -72 0
v -16 -72 0
v -24 -80 0
v -32 -80 0
v -32 -72 0
v -24 -72 0
v -32 -80 0
v -40 -80 0
v -40 -72 0
v -32 -72 0
v -40 -80 0
v -48 -80 0
v -48 -72 0
v -40 -72 0
v -48 -80 0
v -56 -80 0
v -56 -72 0
v -48 -72 0
v -56 -80 0
v -64 -80 0
v -64 -72 0
v -56 -72 0
v -64 -80 0
v -72 -80 0
v -72 -72 0
v -64 -72 0
v -72 -80 0
v -80 -80 0
v -80 -72 0
v -72 -72 0
v -80 -80 0
v -88 -80 0
v -88 -72 0
v -80 -72 0
v -88 -80 0
v -96 -80 0
v -96 -72 0
v -88 -72 0
v -96 -80 0
v -104 -80 0
v -104 -72 0
v -96 -72 0
v -104 -80 0
v -112 -80 0
v -112 -72 0
v -104 -72 0
v -112 -80 0
v -120 -80 0
v -120 -72 0
v -112 -72 0
v -120 -80 0
v -128 -80 0
v -128 -72 0
v -120 -72 0
v 0 -88 0
v -8 -88 0
v -8 -80 0
v 0 -80 0
v -8 -88 0
v -16 -88 0
v -16 -80 0
v -8 -80 0
v -16 -88 0
v -24 -88 0
v -24 -80 0
v -16 -80 0
v -24 -88 0
v -32 -88 0
v -32 -80 0
v -24 -80 0
v -32 -88 0
v -40 -88 0
v -40 -80 0
v -32 -80 0
v -40 -88 0
v -48 -88 0
v -48 -80 0
v -40 -80 0
v -48 -88 0
v -56 -88 0
v -56 -80 0
v -48 -80 0
v -56 -88 0
v -64 -88 0
v -64 -80 0
v -56 -80 0
v -64 -88 0
v -72 -88 0
v -72 -80 0
v -64 -80 0
v -72 -88 0
v -80 -88 0
v -80 -80 0
v -72 -80 0
v -80 -88 0
v -88 -88 0
v -88 -80 0
v -80 -80 0
v -88 -88 0
v -96 -88 0
v -96 -80 0
v -88 -80 0
v -96 -88 0
v -104 -88 0
v -104 -80 0
v -96 -80 0
v -104 -88 0
v -112 -88 0
v -112 -80 0
v -104 -80 0
v -112 -88 0
v -120 -88 0
v -120 -80 0
v -112 -80 0
v -120 -88 0
v -128 -88 0
v -128 -80 0
v -120 -80 0
v 0 -96 0
v -8 -96 0
v -8 -88 0
v 0 -88 0
v -8 -96 0
v -16 -96 0
v -16 -88 0
v -8 -88 0
v -16 -96 0
v -24 -96 0
v -24 -88 0
v -16 -88 0
v -24 -96 0
v -32 -96 0
v -32 -88 0
v -24 -88 0
v -32 -96 0
v -40 -96 0
v -40 -88 0
v -32 -88 0
v -40 -96 0
v -48 -96 0
v -48 -88 0
v -40 -88 0
v -48 -96 0
v -56 -96 0
v -56 -88 0
v -48 -88 0
v -56 -96 0
v -64 -96 0
v -64 -88 0
v -56 -88 0
v -64 -96 0
v -72 -96 0
v -72 -88 0
v -64 -88 0
v -72 -96 0
v -80 -96 0
v -80 -88 0
v -72 -88 0
v -80 -96 0
v -88 -96 0
v -88 -88 0
v -80 -88 0
v -88 -96 0
v -96 -96 0
v -96 -88 0
v -88 -88 0
v -96 -96 0
v -104 -96 0
v -104 -88 0
v -96 -88 0
v -104 -96 0
v -112 -96 0
v -112 -88 0
v -104 -88 0
v -112 -96 0
v -120 -96 0
v -120 -88 0
v -112 -88 0
v -120 -96 0
v -128 -96 0
v -128 -88 0
v -120 -88 0
v 0 -104 0
v -8 -104 0
v -8 -96 0
v 0 -96 0
v -8 -104 0
v -16 -104 0
v -16 -96 0
v -8 -96 0
v -16 -104 0
v -24 -104 0
v -24 -96 0
v -16 -96 0
v -24 -104 0
v -32 -104 0
v -32 -96 0
v -24 -96 0
v -32 -104 0
v -40 -104 0
v -40 -96 0
v -32 -96 0
v -40 -104 0
v -48 -104 0
v -48 -96 0
v -40 -96 0
v -48 -104 0
v -56 -104 0
v -56 -96 0
v -48 -96 0
v -56 -104 0
v -64 -104 0
v -64 -96 0
v -56 -96 0
v -64 -104 0
v -72 -104 0
v -72 -96 0
v -64 -96 0
v -72 -104 0
v -80 -104 0
v -80 -96 0
v -72 -96 0
v -80 -104 0
v -88 -104 0
v -88 -96 0
v -80 -96 0
v -88 -104 0
v -96 -104 0
v -96 -96 0
v -88 -96 0
v -96 -104 0
v -104 -104 0
v -104 -96 0
v -96 -96 0
v -104 -104 0
v -112 -104 0
v -112 -96 0
v -104 -96 0
v -112 -104 0
v -120 -104 0
v -120 -96 0
v -112 -96 0
v -120 -104 0
v -128 -104 0
v -128 -96 0
v -120 -96 0
v 0 -112 0
v -8 -112 0
v -8 -104 0
v 0 -104 0
v -8 -112 0
v -16 -112 0
v -16 -104 0
v -8 -104 0
v -16 -112 0
v -24 -112 0
v -24 -104 0
v -16 -104 0
v -24 -112 0
v -32 -112 0
v -32 -104 0
v -24 -104 0
v -32 -112 0
v -40 -112 0
v -40 -104 0
v -32 -104 0
v -40 -112 0
v -48 -112 0
v -48 -104 0
v -40 -104 0
v -48 -112 0
v -56 -112 0
v -56 -104 0
v -48 -104 0
v -56 -112 0
v -64 -112 0
v -64 -104 0
v -56 -104 0
v -64 -112 0
v -72 -112 0
v -72 -104 0
v -64 -104 0
v -72 -112 0
v -80 -112 0
v -80 -104 0
v -72 -104 0
v -80 -112 0
v -88 -112 0
v -88 -104 0
v -80 -104 0
v -88 -112 0
v -96 -112 0
v -96 -104 0
v -88 -104 0
v -96 -112 0
v -104 -112 0
v -104 -104 0
v -96 -104 0
v -104 -112 0
v -112 -112 0
v -112 -104 0
v -104 -104 0
v -112 -112 0
v -120 -112 0
v -120 -104 0
v -112 -104 0
v -120 -112 0
v -128 -112 0
v -128 -104 0
v -120 -104 0
v 0 -120 0
v -8 -120 0
v -8 -112 0
v 0 -112 0
v -8 -120 0
v -16 -120 0
v -16 -112 0
v -8 -112 0
v -16 -120 0
v -24 -120 0
v -24 -112 0
v -16 -112 0
v -24 -120 0
v -32 -120 0
v -32 -112 0
v -24 -112 0
v -32 -120 0
v -40 -120 0
v -40 -112 0
v -32 -112 0
v -40 -120 0
v -48 -120 0
v -48 -112 0
v -40 -112 0
v -48 -120 0
v -56 -120 0
v -56 -112 0
v -48 -112 0
v -56 -120 0
v -64 -120 0
v -64 -112 0
v -56 -112 0
v -64 -120 0
v -72 -120 0
v -72 -112 0
v -64 -112 0
v -72 -120 0
v -80 -120 0
v -80 -112 0
v -72 -112 0
v -80 -120 0
v -88 -120 0
v -88 -112 0
v -80 -112 0
v -88 -120 0
v -96 -120 0
v -96 -112 0
v -88 -112 0
v -96 -120 0
v -104 -120 0
v -104 -112 0
v -96 -112 0
v -104 -120 0
v -112 -120 0
v -112 -112 0
v -104 -112 0
v -112 -120 0
v -120 -120 0
v -120 -112 0
v -112 -112 0
v -120 -120 0
v -128 -120 0
v -128 -112 0
v -120 -112 0
v 0 -128 0
v -8 -128 0
v -8 -120 0
v 0 -120 0
v -8 -128 0
v -16 -128 0
v -16 -120 0
v -8 -120 0
v -16 -128 0
v -24 -128 0
v -24 -120 0
v -16 -120 0
v -24 -128 0
v -32 -128 0
v -32 -120 0
v -24 -120 0
v -32 -128 0
v -40 -128 0
v -40 -120 0
v -32 -120 0
v -40 -128 0
v -48 -128 0
v -48 -120 0
v -40 -120 0
v -48 -128 0
v -56 -128 0
v -56 -120 0
v -48 -120 0
v -56 -128 0
v -64 -128 0
v -64 -120 0
v -56 -120 0
v -64 -128 0
v -72 -128 0
v -72 -120 0
v -64 -120 0
v -72 -128 0
v -80 -128 0
v -80 -120 0
v -72 -120 0
v -80 -128 0
v -88 -128 0
v -88 -120 0
v -80 -120 0
v -88 -128 0
v -96 -128 0
v -96 -120 0
v -88 -120 0
v -96 -128 0
v -104 -128 0
v -104 -120 0
v -96 -120 0
v -104 -128 0
v -112 -128 0
v -112 -120 0
v -104 -120 0
v -112 -128 0
v -120 -128 0
v -120 -120 0
v -112 -120 0
v -120 -128 0
v -128 -128 0
v -128 -120 0
v -120 -120 0

# Texture cooridinates (Count = 70)
vt 0.2058824 0.7244898
vt 0.2205882 0.7244898
vt 0.2205882 0.7346939
vt 0.2058824 0.7346939
vt 0.2352941 0.7244898
vt 0.2352941 0.7346939
vt 0.2352941 0.9183673
vt 0.25 0.9183673
vt 0.25 0.9285714
vt 0.2352941 0.9285714
vt 0.4264706 0.8979592
vt 0.4411765 0.8979592
vt 0.4411765 0.9081632
vt 0.4264706 0.9081632
vt 0.4264706 0.8877551
vt 0.4411765 0.8877551
vt 0.4558823 0.8979592
vt 0.4558823 0.9081632
vt 0.4558823 0.8877551
vt 0.6470588 0.9183673
vt 0.6323529 0.9183673
vt 0.6323529 0.9081632
vt 0.6470588 0.9081632
vt 0.6176471 0.9183673
vt 0.6176471 0.9081632
vt 0.2058824 0.7142857
vt 0.2205882 0.7142857
vt 0.2352941 0.7142857
vt 0.2058824 0.7040817
vt 0.2205882 0.7040817
vt 0.2352941 0.7040817
vt 0.2058824 0.6938776
vt 0.2205882 0.6938776
vt 0.2352941 0.6938776
vt 0.2794118 0.8673469
vt 0.2794118 0.8571429
vt 0.2941177 0.8571429
vt 0.2941177 0.8673469
vt 0.2058824 0.7653061
vt 0.2205882 0.7653061
vt 0.2205882 0.7755102
vt 0.2058824 0.7755102
vt 0.2352941 0.7653061
vt 0.2352941 0.7755102
vt 0.2058824 0.755102
vt 0.2205882 0.755102
vt 0.2352941 0.755102
vt 0.2058824 0.744898
vt 0.2205882 0.744898
vt 0.2352941 0.744898
vt 0.2352941 0.9081632
vt 0.25 0.9081632
vt 0.2352941 0.8979592
vt 0.25 0.8979592
vt 0.3676471 0.755102
vt 0.3676471 0.744898
vt 0.3823529 0.744898
vt 0.3823529 0.755102
vt 0.4705882 0.8265306
vt 0.4852941 0.8265306
vt 0.4852941 0.8367347
vt 0.4705882 0.8367347
vt 0.5 0.8265306
vt 0.5 0.8367347
vt 0.4705882 0.8163265
vt 0.4852941 0.8163265
vt 0.5 0.8163265
vt 0.4705882 0.8061224
vt 0.4852941 0.8061224
vt 0.5 0.8061224

# Normal
vn 0 0 -1

# Mesh description
g Rogue_mesh_0005

# Faces
f 1/1/1 2/2/1 3/3/1 4/4/1
f 5/2/1 6/5/1 7/6/1 8/3/1
f 9/7/1 10/8/1 11/9/1 12/10/1
f 13/11/1 14/12/1 15/13/1 16/14/1
f 17/15/1 18/16/1 19/12/1 20/11/1
f 21/11/1 22/12/1 23/13/1 24/14/1
f 25/12/1 26/17/1 27/18/1 28/13/1
f 29/16/1 30/19/1 31/17/1 32/12/1
f 33/11/1 34/12/1 35/13/1 36/14/1
f 37/11/1 38/12/1 39/13/1 40/14/1
f 41/12/1 42/17/1 43/18/1 44/13/1
f 45/12/1 46/17/1 47/18/1 48/13/1
f 49/16/1 50/19/1 51/17/1 52/12/1
f 53/20/1 54/21/1 55/22/1 56/23/1
f 57/21/1 58/24/1 59/25/1 60/22/1
f 61/15/1 62/16/1 63/12/1 64/11/1
f 65/26/1 66/27/1 67/2/1 68/1/1
f 69/27/1 70/28/1 71/5/1 72/2/1
f 73/7/1 74/8/1 75/9/1 76/10/1
f 77/15/1 78/16/1 79/12/1 80/11/1
f 81/15/1 82/16/1 83/12/1 84/11/1
f 85/11/1 86/12/1 87/13/1 88/14/1
f 89/11/1 90/12/1 91/13/1 92/14/1
f 93/12/1 94/17/1 95/18/1 96/13/1
f 97/12/1 98/17/1 99/18/1 100/13/1
f 101/12/1 102/17/1 103/18/1 104/13/1
f 105/12/1 106/17/1 107/18/1 108/13/1
f 109/16/1 110/19/1 111/17/1 112/12/1
f 113/15/1 114/16/1 115/12/1 116/11/1
f 117/16/1 118/19/1 119/17/1 120/12/1
f 121/12/1 122/17/1 123/18/1 124/13/1
f 125/11/1 126/12/1 127/13/1 128/14/1
f 129/29/1 130/30/1 131/27/1 132/26/1
f 133/30/1 134/31/1 135/28/1 136/27/1
f 137/7/1 138/8/1 139/9/1 140/10/1
f 141/12/1 142/17/1 143/18/1 144/13/1
f 145/15/1 146/16/1 147/12/1 148/11/1
f 149/11/1 150/12/1 151/13/1 152/14/1
f 153/15/1 154/16/1 155/12/1 156/11/1
f 157/16/1 158/19/1 159/17/1 160/12/1
f 161/16/1 162/19/1 163/17/1 164/12/1
f 165/16/1 166/19/1 167/17/1 168/12/1
f 169/16/1 170/19/1 171/17/1 172/12/1
f 173/12/1 174/17/1 175/18/1 176/13/1
f 177/15/1 178/16/1 179/12/1 180/11/1
f 181/16/1 182/19/1 183/17/1 184/12/1
f 185/11/1 186/12/1 187/13/1 188/14/1
f 189/11/1 190/12/1 191/13/1 192/14/1
f 193/32/1 194/33/1 195/30/1 196/29/1
f 197/33/1 198/34/1 199/31/1 200/30/1
f 201/7/1 202/8/1 203/9/1 204/10/1
f 205/12/1 206/17/1 207/18/1 208/13/1
f 209/15/1 210/16/1 211/12/1 212/11/1
f 213/11/1 214/12/1 215/13/1 216/14/1
f 217/12/1 218/17/1 219/18/1 220/13/1
f 221/11/1 222/12/1 223/13/1 224/14/1
f 225/11/1 226/12/1 227/13/1 228/14/1
f 229/15/1 230/16/1 231/12/1 232/11/1
f 233/16/1 234/19/1 235/17/1 236/12/1
f 237/16/1 238/19/1 239/17/1 240/12/1
f 241/15/1 242/16/1 243/12/1 244/11/1
f 245/35/1 246/36/1 247/37/1 248/38/1
f 249/15/1 250/16/1 251/12/1 252/11/1
f 253/11/1 254/12/1 255/13/1 256/14/1
f 257/39/1 258/40/1 259/41/1 260/42/1
f 261/40/1 262/43/1 263/44/1 264/41/1
f 265/7/1 266/8/1 267/9/1 268/10/1
f 269/12/1 270/17/1 271/18/1 272/13/1
f 273/15/1 274/16/1 275/12/1 276/11/1
f 277/11/1 278/12/1 279/13/1 280/14/1
f 281/12/1 282/17/1 283/18/1 284/13/1
f 285/11/1 286/12/1 287/13/1 288/14/1
f 289/11/1 290/12/1 291/13/1 292/14/1
f 293/15/1 294/16/1 295/12/1 296/11/1
f 297/15/1 298/16/1 299/12/1 300/11/1
f 301/16/1 302/19/1 303/17/1 304/12/1
f 305/15/1 306/16/1 307/12/1 308/11/1
f 309/11/1 310/12/1 311/13/1 312/14/1
f 313/15/1 314/16/1 315/12/1 316/11/1
f 317/11/1 318/12/1 319/13/1 320/14/1
f 321/45/1 322/46/1 323/40/1 324/39/1
f 325/46/1 326/47/1 327/43/1 328/40/1
f 329/7/1 330/8/1 331/9/1 332/10/1
f 333/12/1 334/17/1 335/18/1 336/13/1
f 337/15/1 338/16/1 339/12/1 340/11/1
f 341/11/1 342/12/1 343/13/1 344/14/1
f 345/12/1 346/17/1 347/18/1 348/13/1
f 349/15/1 350/16/1 351/12/1 352/11/1
f 353/15/1 354/16/1 355/12/1 356/11/1
f 357/15/1 358/16/1 359/12/1 360/11/1
f 361/15/1 362/16/1 363/12/1 364/11/1
f 365/16/1 366/19/1 367/17/1 368/12/1
f 369/15/1 370/16/1 371/12/1 372/11/1
f 373/11/1 374/12/1 375/13/1 376/14/1
f 377/15/1 378/16/1 379/12/1 380/11/1
f 381/11/1 382/12/1 383/13/1 384/14/1
f 385/48/1 386/49/1 387/46/1 388/45/1
f 389/49/1 390/50/1 391/47/1 392/46/1
f 393/51/1 394/52/1 395/8/1 396/7/1
f 397/12/1 398/17/1 399/18/1 400/13/1
f 401/15/1 402/16/1 403/12/1 404/11/1
f 405/11/1 406/12/1 407/13/1 408/14/1
f 409/12/1 410/17/1 411/18/1 412/13/1
f 413/15/1 414/16/1 415/12/1 416/11/1
f 417/15/1 418/16/1 419/12/1 420/11/1
f 421/16/1 422/19/1 423/17/1 424/12/1
f 425/15/1 426/16/1 427/12/1 428/11/1
f 429/16/1 430/19/1 431/17/1 432/12/1
f 433/16/1 434/19/1 435/17/1 436/12/1
f 437/15/1 438/16/1 439/12/1 440/11/1
f 441/16/1 442/19/1 443/17/1 444/12/1
f 445/15/1 446/16/1 447/12/1 448/11/1
f 449/4/1 450/3/1 451/49/1 452/48/1
f 453/3/1 454/6/1 455/50/1 456/49/1
f 457/53/1 458/54/1 459/52/1 460/51/1
f 461/12/1 462/17/1 463/18/1 464/13/1
f 465/15/1 466/16/1 467/12/1 468/11/1
f 469/11/1 470/12/1 471/13/1 472/14/1
f 473/11/1 474/12/1 475/13/1 476/14/1
f 477/15/1 478/16/1 479/12/1 480/11/1
f 481/15/1 482/16/1 483/12/1 484/11/1
f 485/16/1 486/19/1 487/17/1 488/12/1
f 489/11/1 490/12/1 491/13/1 492/14/1
f 493/15/1 494/16/1 495/12/1 496/11/1
f 497/16/1 498/19/1 499/17/1 500/12/1
f 501/15/1 502/16/1 503/12/1 504/11/1
f 505/16/1 506/19/1 507/17/1 508/12/1
f 509/15/1 510/16/1 511/12/1 512/11/1
f 513/1/1 514/2/1 515/3/1 516/4/1
f 517/2/1 518/5/1 519/6/1 520/3/1
f 521/7/1 522/8/1 523/9/1 524/10/1
f 525/12/1 526/17/1 527/18/1 528/13/1
f 529/15/1 530/16/1 531/12/1 532/11/1
f 533/11/1 534/12/1 535/13/1 536/14/1
f 537/15/1 538/16/1 539/12/1 540/11/1
f 541/15/1 542/16/1 543/12/1 544/11/1
f 545/16/1 546/19/1 547/17/1 548/12/1
f 549/12/1 550/17/1 551/18/1 552/13/1
f 553/15/1 554/16/1 555/12/1 556/11/1
f 557/15/1 558/16/1 559/12/1 560/11/1
f 561/11/1 562/12/1 563/13/1 564/14/1
f 565/15/1 566/16/1 567/12/1 568/11/1
f 569/16/1 570/19/1 571/17/1 572/12/1
f 573/11/1 574/12/1 575/13/1 576/14/1
f 577/26/1 578/27/1 579/2/1 580/1/1
f 581/27/1 582/28/1 583/5/1 584/2/1
f 585/7/1 586/8/1 587/9/1 588/10/1
f 589/11/1 590/12/1 591/13/1 592/14/1
f 593/15/1 594/16/1 595/12/1 596/11/1
f 597/11/1 598/12/1 599/13/1 600/14/1
f 601/15/1 602/16/1 603/12/1 604/11/1
f 605/15/1 606/16/1 607/12/1 608/11/1
f 609/16/1 610/19/1 611/17/1 612/12/1
f 613/16/1 614/19/1 615/17/1 616/12/1
f 617/15/1 618/16/1 619/12/1 620/11/1
f 621/16/1 622/19/1 623/17/1 624/12/1
f 625/15/1 626/16/1 627/12/1 628/11/1
f 629/15/1 630/16/1 631/12/1 632/11/1
f 633/16/1 634/19/1 635/17/1 636/12/1
f 637/11/1 638/12/1 639/13/1 640/14/1
f 641/29/1 642/30/1 643/27/1 644/26/1
f 645/30/1 646/31/1 647/28/1 648/27/1
f 649/7/1 650/8/1 651/9/1 652/10/1
f 653/15/1 654/16/1 655/12/1 656/11/1
f 657/11/1 658/12/1 659/13/1 660/14/1
f 661/11/1 662/12/1 663/13/1 664/14/1
f 665/15/1 666/16/1 667/12/1 668/11/1
f 669/15/1 670/16/1 671/12/1 672/11/1
f 673/16/1 674/19/1 675/17/1 676/12/1
f 677/11/1 678/12/1 679/13/1 680/14/1
f 681/15/1 682/16/1 683/12/1 684/11/1
f 685/16/1 686/19/1 687/17/1 688/12/1
f 689/15/1 690/16/1 691/12/1 692/11/1
f 693/16/1 694/19/1 695/17/1 696/12/1
f 697/15/1 698/16/1 699/12/1 700/11/1
f 701/11/1 702/12/1 703/13/1 704/14/1
f 705/32/1 706/33/1 707/30/1 708/29/1
f 709/33/1 710/34/1 711/31/1 712/30/1
f 713/7/1 714/8/1 715/9/1 716/10/1
f 717/15/1 718/16/1 719/12/1 720/11/1
f 721/11/1 722/12/1 723/13/1 724/14/1
f 725/15/1 726/16/1 727/12/1 728/11/1
f 729/15/1 730/16/1 731/12/1 732/11/1
f 733/15/1 734/16/1 735/12/1 736/11/1
f 737/16/1 738/19/1 739/17/1 740/12/1
f 741/15/1 742/16/1 743/12/1 744/11/1
f 745/16/1 746/19/1 747/17/1 748/12/1
f 749/11/1 750/12/1 751/13/1 752/14/1
f 753/15/1 754/16/1 755/12/1 756/11/1
f 757/16/1 758/19/1 759/17/1 760/12/1
f 761/15/1 762/16/1 763/12/1 764/11/1
f 765/11/1 766/12/1 767/13/1 768/14/1
f 769/39/1 770/40/1 771/41/1 772/42/1
f 773/40/1 774/43/1 775/44/1 776/41/1
f 777/7/1 778/8/1 779/9/1 780/10/1
f 781/15/1 782/16/1 783/12/1 784/11/1
f 785/11/1 786/12/1 787/13/1 788/14/1
f 789/15/1 790/16/1 791/12/1 792/11/1
f 793/16/1 794/19/1 795/17/1 796/12/1
f 797/15/1 798/16/1 799/12/1 800/11/1
f 801/16/1 802/19/1 803/17/1 804/12/1
f 805/15/1 806/16/1 807/12/1 808/11/1
f 809/16/1 810/19/1 811/17/1 812/12/1
f 813/11/1 814/12/1 815/13/1 816/14/1
f 817/15/1 818/16/1 819/12/1 820/11/1
f 821/16/1 822/19/1 823/17/1 824/12/1
f 825/15/1 826/16/1 827/12/1 828/11/1
f 829/55/1 830/56/1 831/57/1 832/58/1
f 833/45/1 834/46/1 835/40/1 836/39/1
f 837/46/1 838/47/1 839/43/1 840/40/1
f 841/7/1 842/8/1 843/9/1 844/10/1
f 845/15/1 846/16/1 847/12/1 848/11/1
f 849/11/1 850/12/1 851/13/1 852/14/1
f 853/15/1 854/16/1 855/12/1 856/11/1
f 857/16/1 858/19/1 859/17/1 860/12/1
f 861/11/1 862/12/1 863/13/1 864/14/1
f 865/11/1 866/12/1 867/13/1 868/14/1
f 869/15/1 870/16/1 871/12/1 872/11/1
f 873/16/1 874/19/1 875/17/1 876/12/1
f 877/15/1 878/16/1 879/12/1 880/11/1
f 881/15/1 882/16/1 883/12/1 884/11/1
f 885/16/1 886/19/1 887/17/1 888/12/1
f 889/59/1 890/60/1 891/61/1 892/62/1
f 893/60/1 894/63/1 895/64/1 896/61/1
f 897/48/1 898/49/1 899/46/1 900/45/1
f 901/49/1 902/50/1 903/47/1 904/46/1
f 905/7/1 906/8/1 907/9/1 908/10/1
f 909/12/1 910/17/1 911/18/1 912/13/1
f 913/11/1 914/12/1 915/13/1 916/14/1
f 917/15/1 918/16/1 919/12/1 920/11/1
f 921/16/1 922/19/1 923/17/1 924/12/1
f 925/11/1 926/12/1 927/13/1 928/14/1
f 929/15/1 930/16/1 931/12/1 932/11/1
f 933/16/1 934/19/1 935/17/1 936/12/1
f 937/15/1 938/16/1 939/12/1 940/11/1
f 941/15/1 942/16/1 943/12/1 944/11/1
f 945/16/1 946/19/1 947/17/1 948/12/1
f 949/12/1 950/17/1 951/18/1 952/13/1
f 953/65/1 954/66/1 955/60/1 956/59/1
f 957/66/1 958/67/1 959/63/1 960/60/1
f 961/4/1 962/3/1 963/49/1 964/48/1
f 965/3/1 966/6/1 967/50/1 968/49/1
f 969/7/1 970/8/1 971/9/1 972/10/1
f 973/12/1 974/17/1 975/18/1 976/13/1
f 977/15/1 978/16/1 979/12/1 980/11/1
f 981/16/1 982/19/1 983/17/1 984/12/1
f 985/15/1 986/16/1 987/12/1 988/11/1
f 989/11/1 990/12/1 991/13/1 992/14/1
f 993/15/1 994/16/1 995/12/1 996/11/1
f 997/16/1 998/19/1 999/17/1 1000/12/1
f 1001/15/1 1002/16/1 1003/12/1 1004/11/1
f 1005/15/1 1006/16/1 1007/12/1 1008/11/1
f 1009/11/1 1010/12/1 1011/13/1 1012/14/1
f 1013/11/1 1014/12/1 1015/13/1 1016/14/1
f 1017/68/1 1018/69/1 1019/66/1 1020/65/1
f 1021/69/1 1022/70/1 1023/67/1 1024/66/1

