# Tiled2Unity generated file. Do not modify by hand.
# Wavefront file for 'Rogue_mesh_0001.obj'

# Vertices (Count = 960)
v 0 -16 0
v -8 -16 0
v -8 -8 0
v 0 -8 0
v -8 -16 0
v -16 -16 0
v -16 -8 0
v -8 -8 0
v -16 -16 0
v -24 -16 0
v -24 -8 0
v -16 -8 0
v -24 -16 0
v -32 -16 0
v -32 -8 0
v -24 -8 0
v -32 -16 0
v -40 -16 0
v -40 -8 0
v -32 -8 0
v -40 -16 0
v -48 -16 0
v -48 -8 0
v -40 -8 0
v -48 -16 0
v -56 -16 0
v -56 -8 0
v -48 -8 0
v -56 -16 0
v -64 -16 0
v -64 -8 0
v -56 -8 0
v -64 -16 0
v -72 -16 0
v -72 -8 0
v -64 -8 0
v -72 -16 0
v -80 -16 0
v -80 -8 0
v -72 -8 0
v -80 -16 0
v -88 -16 0
v -88 -8 0
v -80 -8 0
v -88 -16 0
v -96 -16 0
v -96 -8 0
v -88 -8 0
v -96 -16 0
v -104 -16 0
v -104 -8 0
v -96 -8 0
v -104 -16 0
v -112 -16 0
v -112 -8 0
v -104 -8 0
v -112 -16 0
v -120 -16 0
v -120 -8 0
v -112 -8 0
v -120 -16 0
v -128 -16 0
v -128 -8 0
v -120 -8 0
v 0 -24 0
v -8 -24 0
v -8 -16 0
v 0 -16 0
v -8 -24 0
v -16 -24 0
v -16 -16 0
v -8 -16 0
v -16 -24 0
v -24 -24 0
v -24 -16 0
v -16 -16 0
v -24 -24 0
v -32 -24 0
v -32 -16 0
v -24 -16 0
v -32 -24 0
v -40 -24 0
v -40 -16 0
v -32 -16 0
v -40 -24 0
v -48 -24 0
v -48 -16 0
v -40 -16 0
v -48 -24 0
v -56 -24 0
v -56 -16 0
v -48 -16 0
v -56 -24 0
v -64 -24 0
v -64 -16 0
v -56 -16 0
v -64 -24 0
v -72 -24 0
v -72 -16 0
v -64 -16 0
v -72 -24 0
v -80 -24 0
v -80 -16 0
v -72 -16 0
v -80 -24 0
v -88 -24 0
v -88 -16 0
v -80 -16 0
v -88 -24 0
v -96 -24 0
v -96 -16 0
v -88 -16 0
v -96 -24 0
v -104 -24 0
v -104 -16 0
v -96 -16 0
v -104 -24 0
v -112 -24 0
v -112 -16 0
v -104 -16 0
v -112 -24 0
v -120 -24 0
v -120 -16 0
v -112 -16 0
v -120 -24 0
v -128 -24 0
v -128 -16 0
v -120 -16 0
v 0 -32 0
v -8 -32 0
v -8 -24 0
v 0 -24 0
v -8 -32 0
v -16 -32 0
v -16 -24 0
v -8 -24 0
v -16 -32 0
v -24 -32 0
v -24 -24 0
v -16 -24 0
v -24 -32 0
v -32 -32 0
v -32 -24 0
v -24 -24 0
v -32 -32 0
v -40 -32 0
v -40 -24 0
v -32 -24 0
v -40 -32 0
v -48 -32 0
v -48 -24 0
v -40 -24 0
v -48 -32 0
v -56 -32 0
v -56 -24 0
v -48 -24 0
v -56 -32 0
v -64 -32 0
v -64 -24 0
v -56 -24 0
v -64 -32 0
v -72 -32 0
v -72 -24 0
v -64 -24 0
v -72 -32 0
v -80 -32 0
v -80 -24 0
v -72 -24 0
v -80 -32 0
v -88 -32 0
v -88 -24 0
v -80 -24 0
v -88 -32 0
v -96 -32 0
v -96 -24 0
v -88 -24 0
v -96 -32 0
v -104 -32 0
v -104 -24 0
v -96 -24 0
v -104 -32 0
v -112 -32 0
v -112 -24 0
v -104 -24 0
v -112 -32 0
v -120 -32 0
v -120 -24 0
v -112 -24 0
v -120 -32 0
v -128 -32 0
v -128 -24 0
v -120 -24 0
v 0 -40 0
v -8 -40 0
v -8 -32 0
v 0 -32 0
v -8 -40 0
v -16 -40 0
v -16 -32 0
v -8 -32 0
v -16 -40 0
v -24 -40 0
v -24 -32 0
v -16 -32 0
v -24 -40 0
v -32 -40 0
v -32 -32 0
v -24 -32 0
v -32 -40 0
v -40 -40 0
v -40 -32 0
v -32 -32 0
v -40 -40 0
v -48 -40 0
v -48 -32 0
v -40 -32 0
v -48 -40 0
v -56 -40 0
v -56 -32 0
v -48 -32 0
v -56 -40 0
v -64 -40 0
v -64 -32 0
v -56 -32 0
v -64 -40 0
v -72 -40 0
v -72 -32 0
v -64 -32 0
v -72 -40 0
v -80 -40 0
v -80 -32 0
v -72 -32 0
v -80 -40 0
v -88 -40 0
v -88 -32 0
v -80 -32 0
v -88 -40 0
v -96 -40 0
v -96 -32 0
v -88 -32 0
v -96 -40 0
v -104 -40 0
v -104 -32 0
v -96 -32 0
v -104 -40 0
v -112 -40 0
v -112 -32 0
v -104 -32 0
v -112 -40 0
v -120 -40 0
v -120 -32 0
v -112 -32 0
v -120 -40 0
v -128 -40 0
v -128 -32 0
v -120 -32 0
v 0 -48 0
v -8 -48 0
v -8 -40 0
v 0 -40 0
v -8 -48 0
v -16 -48 0
v -16 -40 0
v -8 -40 0
v -16 -48 0
v -24 -48 0
v -24 -40 0
v -16 -40 0
v -24 -48 0
v -32 -48 0
v -32 -40 0
v -24 -40 0
v -32 -48 0
v -40 -48 0
v -40 -40 0
v -32 -40 0
v -40 -48 0
v -48 -48 0
v -48 -40 0
v -40 -40 0
v -48 -48 0
v -56 -48 0
v -56 -40 0
v -48 -40 0
v -56 -48 0
v -64 -48 0
v -64 -40 0
v -56 -40 0
v -64 -48 0
v -72 -48 0
v -72 -40 0
v -64 -40 0
v -72 -48 0
v -80 -48 0
v -80 -40 0
v -72 -40 0
v -80 -48 0
v -88 -48 0
v -88 -40 0
v -80 -40 0
v -88 -48 0
v -96 -48 0
v -96 -40 0
v -88 -40 0
v -96 -48 0
v -104 -48 0
v -104 -40 0
v -96 -40 0
v -104 -48 0
v -112 -48 0
v -112 -40 0
v -104 -40 0
v -112 -48 0
v -120 -48 0
v -120 -40 0
v -112 -40 0
v -120 -48 0
v -128 -48 0
v -128 -40 0
v -120 -40 0
v 0 -56 0
v -8 -56 0
v -8 -48 0
v 0 -48 0
v -8 -56 0
v -16 -56 0
v -16 -48 0
v -8 -48 0
v -16 -56 0
v -24 -56 0
v -24 -48 0
v -16 -48 0
v -24 -56 0
v -32 -56 0
v -32 -48 0
v -24 -48 0
v -32 -56 0
v -40 -56 0
v -40 -48 0
v -32 -48 0
v -40 -56 0
v -48 -56 0
v -48 -48 0
v -40 -48 0
v -48 -56 0
v -56 -56 0
v -56 -48 0
v -48 -48 0
v -56 -56 0
v -64 -56 0
v -64 -48 0
v -56 -48 0
v -64 -56 0
v -72 -56 0
v -72 -48 0
v -64 -48 0
v -72 -56 0
v -80 -56 0
v -80 -48 0
v -72 -48 0
v -80 -56 0
v -88 -56 0
v -88 -48 0
v -80 -48 0
v -88 -56 0
v -96 -56 0
v -96 -48 0
v -88 -48 0
v -96 -56 0
v -104 -56 0
v -104 -48 0
v -96 -48 0
v -104 -56 0
v -112 -56 0
v -112 -48 0
v -104 -48 0
v -112 -56 0
v -120 -56 0
v -120 -48 0
v -112 -48 0
v -120 -56 0
v -128 -56 0
v -128 -48 0
v -120 -48 0
v 0 -64 0
v -8 -64 0
v -8 -56 0
v 0 -56 0
v -8 -64 0
v -16 -64 0
v -16 -56 0
v -8 -56 0
v -16 -64 0
v -24 -64 0
v -24 -56 0
v -16 -56 0
v -24 -64 0
v -32 -64 0
v -32 -56 0
v -24 -56 0
v -32 -64 0
v -40 -64 0
v -40 -56 0
v -32 -56 0
v -40 -64 0
v -48 -64 0
v -48 -56 0
v -40 -56 0
v -48 -64 0
v -56 -64 0
v -56 -56 0
v -48 -56 0
v -56 -64 0
v -64 -64 0
v -64 -56 0
v -56 -56 0
v -64 -64 0
v -72 -64 0
v -72 -56 0
v -64 -56 0
v -72 -64 0
v -80 -64 0
v -80 -56 0
v -72 -56 0
v -80 -64 0
v -88 -64 0
v -88 -56 0
v -80 -56 0
v -88 -64 0
v -96 -64 0
v -96 -56 0
v -88 -56 0
v -96 -64 0
v -104 -64 0
v -104 -56 0
v -96 -56 0
v -104 -64 0
v -112 -64 0
v -112 -56 0
v -104 -56 0
v -112 -64 0
v -120 -64 0
v -120 -56 0
v -112 -56 0
v -120 -64 0
v -128 -64 0
v -128 -56 0
v -120 -56 0
v 0 -72 0
v -8 -72 0
v -8 -64 0
v 0 -64 0
v -8 -72 0
v -16 -72 0
v -16 -64 0
v -8 -64 0
v -16 -72 0
v -24 -72 0
v -24 -64 0
v -16 -64 0
v -24 -72 0
v -32 -72 0
v -32 -64 0
v -24 -64 0
v -32 -72 0
v -40 -72 0
v -40 -64 0
v -32 -64 0
v -40 -72 0
v -48 -72 0
v -48 -64 0
v -40 -64 0
v -48 -72 0
v -56 -72 0
v -56 -64 0
v -48 -64 0
v -56 -72 0
v -64 -72 0
v -64 -64 0
v -56 -64 0
v -64 -72 0
v -72 -72 0
v -72 -64 0
v -64 -64 0
v -72 -72 0
v -80 -72 0
v -80 -64 0
v -72 -64 0
v -80 -72 0
v -88 -72 0
v -88 -64 0
v -80 -64 0
v -88 -72 0
v -96 -72 0
v -96 -64 0
v -88 -64 0
v -96 -72 0
v -104 -72 0
v -104 -64 0
v -96 -64 0
v -104 -72 0
v -112 -72 0
v -112 -64 0
v -104 -64 0
v -112 -72 0
v -120 -72 0
v -120 -64 0
v -112 -64 0
v -120 -72 0
v -128 -72 0
v -128 -64 0
v -120 -64 0
v 0 -80 0
v -8 -80 0
v -8 -72 0
v 0 -72 0
v -8 -80 0
v -16 -80 0
v -16 -72 0
v -8 -72 0
v -16 -80 0
v -24 -80 0
v -24 -72 0
v -16 -72 0
v -24 -80 0
v -32 -80 0
v -32 -72 0
v -24 -72 0
v -32 -80 0
v -40 -80 0
v -40 -72 0
v -32 -72 0
v -40 -80 0
v -48 -80 0
v -48 -72 0
v -40 -72 0
v -48 -80 0
v -56 -80 0
v -56 -72 0
v -48 -72 0
v -56 -80 0
v -64 -80 0
v -64 -72 0
v -56 -72 0
v -64 -80 0
v -72 -80 0
v -72 -72 0
v -64 -72 0
v -72 -80 0
v -80 -80 0
v -80 -72 0
v -72 -72 0
v -80 -80 0
v -88 -80 0
v -88 -72 0
v -80 -72 0
v -88 -80 0
v -96 -80 0
v -96 -72 0
v -88 -72 0
v -96 -80 0
v -104 -80 0
v -104 -72 0
v -96 -72 0
v -104 -80 0
v -112 -80 0
v -112 -72 0
v -104 -72 0
v -112 -80 0
v -120 -80 0
v -120 -72 0
v -112 -72 0
v -120 -80 0
v -128 -80 0
v -128 -72 0
v -120 -72 0
v 0 -88 0
v -8 -88 0
v -8 -80 0
v 0 -80 0
v -8 -88 0
v -16 -88 0
v -16 -80 0
v -8 -80 0
v -16 -88 0
v -24 -88 0
v -24 -80 0
v -16 -80 0
v -24 -88 0
v -32 -88 0
v -32 -80 0
v -24 -80 0
v -32 -88 0
v -40 -88 0
v -40 -80 0
v -32 -80 0
v -40 -88 0
v -48 -88 0
v -48 -80 0
v -40 -80 0
v -48 -88 0
v -56 -88 0
v -56 -80 0
v -48 -80 0
v -56 -88 0
v -64 -88 0
v -64 -80 0
v -56 -80 0
v -64 -88 0
v -72 -88 0
v -72 -80 0
v -64 -80 0
v -72 -88 0
v -80 -88 0
v -80 -80 0
v -72 -80 0
v -80 -88 0
v -88 -88 0
v -88 -80 0
v -80 -80 0
v -88 -88 0
v -96 -88 0
v -96 -80 0
v -88 -80 0
v -96 -88 0
v -104 -88 0
v -104 -80 0
v -96 -80 0
v -104 -88 0
v -112 -88 0
v -112 -80 0
v -104 -80 0
v -112 -88 0
v -120 -88 0
v -120 -80 0
v -112 -80 0
v -120 -88 0
v -128 -88 0
v -128 -80 0
v -120 -80 0
v 0 -96 0
v -8 -96 0
v -8 -88 0
v 0 -88 0
v -8 -96 0
v -16 -96 0
v -16 -88 0
v -8 -88 0
v -16 -96 0
v -24 -96 0
v -24 -88 0
v -16 -88 0
v -24 -96 0
v -32 -96 0
v -32 -88 0
v -24 -88 0
v -32 -96 0
v -40 -96 0
v -40 -88 0
v -32 -88 0
v -40 -96 0
v -48 -96 0
v -48 -88 0
v -40 -88 0
v -48 -96 0
v -56 -96 0
v -56 -88 0
v -48 -88 0
v -56 -96 0
v -64 -96 0
v -64 -88 0
v -56 -88 0
v -64 -96 0
v -72 -96 0
v -72 -88 0
v -64 -88 0
v -72 -96 0
v -80 -96 0
v -80 -88 0
v -72 -88 0
v -80 -96 0
v -88 -96 0
v -88 -88 0
v -80 -88 0
v -88 -96 0
v -96 -96 0
v -96 -88 0
v -88 -88 0
v -96 -96 0
v -104 -96 0
v -104 -88 0
v -96 -88 0
v -104 -96 0
v -112 -96 0
v -112 -88 0
v -104 -88 0
v -112 -96 0
v -120 -96 0
v -120 -88 0
v -112 -88 0
v -120 -96 0
v -128 -96 0
v -128 -88 0
v -120 -88 0
v 0 -104 0
v -8 -104 0
v -8 -96 0
v 0 -96 0
v -8 -104 0
v -16 -104 0
v -16 -96 0
v -8 -96 0
v -16 -104 0
v -24 -104 0
v -24 -96 0
v -16 -96 0
v -24 -104 0
v -32 -104 0
v -32 -96 0
v -24 -96 0
v -32 -104 0
v -40 -104 0
v -40 -96 0
v -32 -96 0
v -40 -104 0
v -48 -104 0
v -48 -96 0
v -40 -96 0
v -48 -104 0
v -56 -104 0
v -56 -96 0
v -48 -96 0
v -56 -104 0
v -64 -104 0
v -64 -96 0
v -56 -96 0
v -64 -104 0
v -72 -104 0
v -72 -96 0
v -64 -96 0
v -72 -104 0
v -80 -104 0
v -80 -96 0
v -72 -96 0
v -80 -104 0
v -88 -104 0
v -88 -96 0
v -80 -96 0
v -88 -104 0
v -96 -104 0
v -96 -96 0
v -88 -96 0
v -96 -104 0
v -104 -104 0
v -104 -96 0
v -96 -96 0
v -104 -104 0
v -112 -104 0
v -112 -96 0
v -104 -96 0
v -112 -104 0
v -120 -104 0
v -120 -96 0
v -112 -96 0
v -120 -104 0
v -128 -104 0
v -128 -96 0
v -120 -96 0
v 0 -112 0
v -8 -112 0
v -8 -104 0
v 0 -104 0
v -8 -112 0
v -16 -112 0
v -16 -104 0
v -8 -104 0
v -16 -112 0
v -24 -112 0
v -24 -104 0
v -16 -104 0
v -24 -112 0
v -32 -112 0
v -32 -104 0
v -24 -104 0
v -32 -112 0
v -40 -112 0
v -40 -104 0
v -32 -104 0
v -40 -112 0
v -48 -112 0
v -48 -104 0
v -40 -104 0
v -48 -112 0
v -56 -112 0
v -56 -104 0
v -48 -104 0
v -56 -112 0
v -64 -112 0
v -64 -104 0
v -56 -104 0
v -64 -112 0
v -72 -112 0
v -72 -104 0
v -64 -104 0
v -72 -112 0
v -80 -112 0
v -80 -104 0
v -72 -104 0
v -80 -112 0
v -88 -112 0
v -88 -104 0
v -80 -104 0
v -88 -112 0
v -96 -112 0
v -96 -104 0
v -88 -104 0
v -96 -112 0
v -104 -112 0
v -104 -104 0
v -96 -104 0
v -104 -112 0
v -112 -112 0
v -112 -104 0
v -104 -104 0
v -112 -112 0
v -120 -112 0
v -120 -104 0
v -112 -104 0
v -120 -112 0
v -128 -112 0
v -128 -104 0
v -120 -104 0
v 0 -120 0
v -8 -120 0
v -8 -112 0
v 0 -112 0
v -8 -120 0
v -16 -120 0
v -16 -112 0
v -8 -112 0
v -16 -120 0
v -24 -120 0
v -24 -112 0
v -16 -112 0
v -24 -120 0
v -32 -120 0
v -32 -112 0
v -24 -112 0
v -32 -120 0
v -40 -120 0
v -40 -112 0
v -32 -112 0
v -40 -120 0
v -48 -120 0
v -48 -112 0
v -40 -112 0
v -48 -120 0
v -56 -120 0
v -56 -112 0
v -48 -112 0
v -56 -120 0
v -64 -120 0
v -64 -112 0
v -56 -112 0
v -64 -120 0
v -72 -120 0
v -72 -112 0
v -64 -112 0
v -72 -120 0
v -80 -120 0
v -80 -112 0
v -72 -112 0
v -80 -120 0
v -88 -120 0
v -88 -112 0
v -80 -112 0
v -88 -120 0
v -96 -120 0
v -96 -112 0
v -88 -112 0
v -96 -120 0
v -104 -120 0
v -104 -112 0
v -96 -112 0
v -104 -120 0
v -112 -120 0
v -112 -112 0
v -104 -112 0
v -112 -120 0
v -120 -120 0
v -120 -112 0
v -112 -112 0
v -120 -120 0
v -128 -120 0
v -128 -112 0
v -120 -112 0
v 0 -128 0
v -8 -128 0
v -8 -120 0
v 0 -120 0
v -8 -128 0
v -16 -128 0
v -16 -120 0
v -8 -120 0
v -16 -128 0
v -24 -128 0
v -24 -120 0
v -16 -120 0
v -24 -128 0
v -32 -128 0
v -32 -120 0
v -24 -120 0
v -32 -128 0
v -40 -128 0
v -40 -120 0
v -32 -120 0
v -40 -128 0
v -48 -128 0
v -48 -120 0
v -40 -120 0
v -48 -128 0
v -56 -128 0
v -56 -120 0
v -48 -120 0
v -56 -128 0
v -64 -128 0
v -64 -120 0
v -56 -120 0
v -64 -128 0
v -72 -128 0
v -72 -120 0
v -64 -120 0
v -72 -128 0
v -80 -128 0
v -80 -120 0
v -72 -120 0
v -80 -128 0
v -88 -128 0
v -88 -120 0
v -80 -120 0
v -88 -128 0
v -96 -128 0
v -96 -120 0
v -88 -120 0
v -96 -128 0
v -104 -128 0
v -104 -120 0
v -96 -120 0
v -104 -128 0
v -112 -128 0
v -112 -120 0
v -104 -120 0
v -112 -128 0
v -120 -128 0
v -120 -120 0
v -112 -120 0
v -120 -128 0
v -128 -128 0
v -128 -120 0
v -120 -120 0

# Texture cooridinates (Count = 147)
vt 0.2058824 0.9693878
vt 0.2205882 0.9693878
vt 0.2205882 0.9795918
vt 0.2058824 0.9795918
vt 0.2352941 0.9693878
vt 0.2352941 0.9795918
vt 0.25 0.9693878
vt 0.25 0.9795918
vt 0.2647059 0.9693878
vt 0.2647059 0.9795918
vt 0.4117647 0.9693878
vt 0.4264706 0.9693878
vt 0.4264706 0.9795918
vt 0.4117647 0.9795918
vt 0.2794118 0.9693878
vt 0.2941177 0.9693878
vt 0.2941177 0.9795918
vt 0.2794118 0.9795918
vt 0.6176471 0.7857143
vt 0.6323529 0.7857143
vt 0.6323529 0.7959183
vt 0.6176471 0.7959183
vt 0.3235294 0.9693878
vt 0.3382353 0.9693878
vt 0.3382353 0.9795918
vt 0.3235294 0.9795918
vt 0.3529412 0.9693878
vt 0.3529412 0.9795918
vt 0.2058824 0.9591837
vt 0.2205882 0.9591837
vt 0.2352941 0.9591837
vt 0.25 0.9591837
vt 0.2647059 0.9591837
vt 0.4117647 0.9591837
vt 0.4264706 0.9591837
vt 0.2794118 0.9591837
vt 0.2941177 0.9591837
vt 0.3235294 0.9591837
vt 0.3382353 0.9591837
vt 0.3529412 0.9591837
vt 0.2058824 0.9489796
vt 0.2205882 0.9489796
vt 0.2352941 0.9489796
vt 0.25 0.9489796
vt 0.75 0.9489796
vt 0.7647059 0.9489796
vt 0.7647059 0.9591837
vt 0.75 0.9591837
vt 0.4117647 0.9489796
vt 0.4264706 0.9489796
vt 0.4411765 0.9489796
vt 0.4411765 0.9591837
vt 0.3823529 0.9489796
vt 0.3970588 0.9489796
vt 0.3970588 0.9591837
vt 0.3823529 0.9591837
vt 0.2058824 0.9387755
vt 0.2205882 0.9387755
vt 0.2352941 0.9387755
vt 0.3676471 0.9489796
vt 0.3676471 0.9591837
vt 0.4117647 0.9387755
vt 0.4264706 0.9387755
vt 0.6617647 0.9489796
vt 0.6764706 0.9489796
vt 0.6764706 0.9591837
vt 0.6617647 0.9591837
vt 0.4411765 0.9387755
vt 0.3823529 0.9387755
vt 0.3970588 0.9387755
vt 0.2058824 0.9285714
vt 0.2205882 0.9285714
vt 0.2352941 0.9285714
vt 0.3529412 0.9489796
vt 0.2058824 0.9183673
vt 0.2205882 0.9183673
vt 0.2352941 0.9183673
vt 0.25 0.9285714
vt 0.25 0.9387755
vt 0.2647059 0.9285714
vt 0.2647059 0.9387755
vt 0.6617647 0.9285714
vt 0.6764706 0.9285714
vt 0.6764706 0.9387755
vt 0.6617647 0.9387755
vt 0.2794118 0.9285714
vt 0.2941177 0.9285714
vt 0.2941177 0.9387755
vt 0.2794118 0.9387755
vt 0.3088235 0.9285714
vt 0.3088235 0.9387755
vt 0.3235294 0.9285714
vt 0.3235294 0.9387755
vt 0.3382353 0.9285714
vt 0.3382353 0.9387755
vt 0.3529412 0.9285714
vt 0.3529412 0.9387755
vt 0.3676471 0.9285714
vt 0.3676471 0.9387755
vt 0.3823529 0.9285714
vt 0.3970588 0.9285714
vt 0.4117647 0.9285714
vt 0.4264706 0.9285714
vt 0.4411765 0.9285714
vt 0.2058824 0.9081632
vt 0.2205882 0.9081632
vt 0.2352941 0.9081632
vt 0.25 0.9081632
vt 0.25 0.9183673
vt 0.4411765 0.8979592
vt 0.4558823 0.8979592
vt 0.4558823 0.9081632
vt 0.4411765 0.9081632
vt 0.4264706 0.8979592
vt 0.4264706 0.9081632
vt 0.2058824 0.8979592
vt 0.2205882 0.8979592
vt 0.2352941 0.8979592
vt 0.25 0.8979592
vt 0.4411765 0.8877551
vt 0.4558823 0.8877551
vt 0.4264706 0.8877551
vt 0.2058824 0.8877551
vt 0.2205882 0.8877551
vt 0.2352941 0.8877551
vt 0.25 0.8877551
vt 0.2058824 0.755102
vt 0.2205882 0.755102
vt 0.2205882 0.7653061
vt 0.2058824 0.7653061
vt 0.2352941 0.755102
vt 0.2352941 0.7653061
vt 0.6176471 0.9081632
vt 0.6323529 0.9081632
vt 0.6323529 0.9183673
vt 0.6176471 0.9183673
vt 0.6470588 0.9081632
vt 0.6470588 0.9183673
vt 0.6323529 0.8979592
vt 0.6176471 0.8979592
vt 0.2058824 0.744898
vt 0.2205882 0.744898
vt 0.2352941 0.744898
vt 0.6470588 0.8979592
vt 0.2058824 0.7346939
vt 0.2205882 0.7346939
vt 0.2352941 0.7346939

# Normal
vn 0 0 -1

# Mesh description
g Rogue_mesh_0001

# Faces
f 1/1/1 2/2/1 3/3/1 4/4/1
f 5/2/1 6/5/1 7/6/1 8/3/1
f 9/5/1 10/7/1 11/8/1 12/6/1
f 13/7/1 14/9/1 15/10/1 16/8/1
f 17/11/1 18/12/1 19/13/1 20/14/1
f 21/15/1 22/16/1 23/17/1 24/18/1
f 25/19/1 26/20/1 27/21/1 28/22/1
f 29/15/1 30/16/1 31/17/1 32/18/1
f 33/19/1 34/20/1 35/21/1 36/22/1
f 37/15/1 38/16/1 39/17/1 40/18/1
f 41/11/1 42/12/1 43/13/1 44/14/1
f 45/19/1 46/20/1 47/21/1 48/22/1
f 49/23/1 50/24/1 51/25/1 52/26/1
f 53/15/1 54/16/1 55/17/1 56/18/1
f 57/23/1 58/24/1 59/25/1 60/26/1
f 61/24/1 62/27/1 63/28/1 64/25/1
f 65/29/1 66/30/1 67/2/1 68/1/1
f 69/30/1 70/31/1 71/5/1 72/2/1
f 73/31/1 74/32/1 75/7/1 76/5/1
f 77/32/1 78/33/1 79/9/1 80/7/1
f 81/34/1 82/35/1 83/12/1 84/11/1
f 85/36/1 86/37/1 87/16/1 88/15/1
f 89/34/1 90/35/1 91/12/1 92/11/1
f 93/36/1 94/37/1 95/16/1 96/15/1
f 97/34/1 98/35/1 99/12/1 100/11/1
f 101/36/1 102/37/1 103/16/1 104/15/1
f 105/34/1 106/35/1 107/12/1 108/11/1
f 109/36/1 110/37/1 111/16/1 112/15/1
f 113/38/1 114/39/1 115/24/1 116/23/1
f 117/36/1 118/37/1 119/16/1 120/15/1
f 121/38/1 122/39/1 123/24/1 124/23/1
f 125/39/1 126/40/1 127/27/1 128/24/1
f 129/41/1 130/42/1 131/30/1 132/29/1
f 133/42/1 134/43/1 135/31/1 136/30/1
f 137/43/1 138/44/1 139/32/1 140/31/1
f 141/45/1 142/46/1 143/47/1 144/48/1
f 145/49/1 146/50/1 147/35/1 148/34/1
f 149/49/1 150/50/1 151/35/1 152/34/1
f 153/49/1 154/50/1 155/35/1 156/34/1
f 157/49/1 158/50/1 159/35/1 160/34/1
f 161/49/1 162/50/1 163/35/1 164/34/1
f 165/49/1 166/50/1 167/35/1 168/34/1
f 169/49/1 170/50/1 171/35/1 172/34/1
f 173/49/1 174/50/1 175/35/1 176/34/1
f 177/50/1 178/51/1 179/52/1 180/35/1
f 181/53/1 182/54/1 183/55/1 184/56/1
f 185/54/1 186/49/1 187/34/1 188/55/1
f 189/49/1 190/50/1 191/35/1 192/34/1
f 193/57/1 194/58/1 195/42/1 196/41/1
f 197/58/1 198/59/1 199/43/1 200/42/1
f 201/60/1 202/53/1 203/56/1 204/61/1
f 205/60/1 206/53/1 207/56/1 208/61/1
f 209/62/1 210/63/1 211/50/1 212/49/1
f 213/62/1 214/63/1 215/50/1 216/49/1
f 217/62/1 218/63/1 219/50/1 220/49/1
f 221/64/1 222/65/1 223/66/1 224/67/1
f 225/62/1 226/63/1 227/50/1 228/49/1
f 229/62/1 230/63/1 231/50/1 232/49/1
f 233/62/1 234/63/1 235/50/1 236/49/1
f 237/62/1 238/63/1 239/50/1 240/49/1
f 241/63/1 242/68/1 243/51/1 244/50/1
f 245/69/1 246/70/1 247/54/1 248/53/1
f 249/70/1 250/62/1 251/49/1 252/54/1
f 253/62/1 254/63/1 255/50/1 256/49/1
f 257/71/1 258/72/1 259/58/1 260/57/1
f 261/72/1 262/73/1 263/59/1 264/58/1
f 265/43/1 266/44/1 267/32/1 268/31/1
f 269/45/1 270/46/1 271/47/1 272/48/1
f 273/74/1 274/60/1 275/61/1 276/40/1
f 277/64/1 278/65/1 279/66/1 280/67/1
f 281/74/1 282/60/1 283/61/1 284/40/1
f 285/64/1 286/65/1 287/66/1 288/67/1
f 289/74/1 290/60/1 291/61/1 292/40/1
f 293/74/1 294/60/1 295/61/1 296/40/1
f 297/74/1 298/60/1 299/61/1 300/40/1
f 301/74/1 302/60/1 303/61/1 304/40/1
f 305/74/1 306/60/1 307/61/1 308/40/1
f 309/74/1 310/60/1 311/61/1 312/40/1
f 313/74/1 314/60/1 315/61/1 316/40/1
f 317/74/1 318/60/1 319/61/1 320/40/1
f 321/75/1 322/76/1 323/72/1 324/71/1
f 325/76/1 326/77/1 327/73/1 328/72/1
f 329/73/1 330/78/1 331/79/1 332/59/1
f 333/78/1 334/80/1 335/81/1 336/79/1
f 337/82/1 338/83/1 339/84/1 340/85/1
f 341/86/1 342/87/1 343/88/1 344/89/1
f 345/87/1 346/90/1 347/91/1 348/88/1
f 349/90/1 350/92/1 351/93/1 352/91/1
f 353/92/1 354/94/1 355/95/1 356/93/1
f 357/94/1 358/96/1 359/97/1 360/95/1
f 361/96/1 362/98/1 363/99/1 364/97/1
f 365/98/1 366/100/1 367/69/1 368/99/1
f 369/100/1 370/101/1 371/70/1 372/69/1
f 373/101/1 374/102/1 375/62/1 376/70/1
f 377/102/1 378/103/1 379/63/1 380/62/1
f 381/103/1 382/104/1 383/68/1 384/63/1
f 385/105/1 386/106/1 387/76/1 388/75/1
f 389/106/1 390/107/1 391/77/1 392/76/1
f 393/107/1 394/108/1 395/109/1 396/77/1
f 397/110/1 398/111/1 399/112/1 400/113/1
f 401/110/1 402/111/1 403/112/1 404/113/1
f 405/114/1 406/110/1 407/113/1 408/115/1
f 409/114/1 410/110/1 411/113/1 412/115/1
f 413/114/1 414/110/1 415/113/1 416/115/1
f 417/114/1 418/110/1 419/113/1 420/115/1
f 421/114/1 422/110/1 423/113/1 424/115/1
f 425/114/1 426/110/1 427/113/1 428/115/1
f 429/110/1 430/111/1 431/112/1 432/113/1
f 433/110/1 434/111/1 435/112/1 436/113/1
f 437/110/1 438/111/1 439/112/1 440/113/1
f 441/110/1 442/111/1 443/112/1 444/113/1
f 445/110/1 446/111/1 447/112/1 448/113/1
f 449/116/1 450/117/1 451/106/1 452/105/1
f 453/117/1 454/118/1 455/107/1 456/106/1
f 457/118/1 458/119/1 459/108/1 460/107/1
f 461/110/1 462/111/1 463/112/1 464/113/1
f 465/120/1 466/121/1 467/111/1 468/110/1
f 469/114/1 470/110/1 471/113/1 472/115/1
f 473/110/1 474/111/1 475/112/1 476/113/1
f 477/122/1 478/120/1 479/110/1 480/114/1
f 481/122/1 482/120/1 483/110/1 484/114/1
f 485/122/1 486/120/1 487/110/1 488/114/1
f 489/122/1 490/120/1 491/110/1 492/114/1
f 493/114/1 494/110/1 495/113/1 496/115/1
f 497/114/1 498/110/1 499/113/1 500/115/1
f 501/114/1 502/110/1 503/113/1 504/115/1
f 505/114/1 506/110/1 507/113/1 508/115/1
f 509/114/1 510/110/1 511/113/1 512/115/1
f 513/123/1 514/124/1 515/117/1 516/116/1
f 517/124/1 518/125/1 519/118/1 520/117/1
f 521/125/1 522/126/1 523/119/1 524/118/1
f 525/110/1 526/111/1 527/112/1 528/113/1
f 529/120/1 530/121/1 531/111/1 532/110/1
f 533/114/1 534/110/1 535/113/1 536/115/1
f 537/110/1 538/111/1 539/112/1 540/113/1
f 541/110/1 542/111/1 543/112/1 544/113/1
f 545/114/1 546/110/1 547/113/1 548/115/1
f 549/110/1 550/111/1 551/112/1 552/113/1
f 553/114/1 554/110/1 555/113/1 556/115/1
f 557/114/1 558/110/1 559/113/1 560/115/1
f 561/110/1 562/111/1 563/112/1 564/113/1
f 565/110/1 566/111/1 567/112/1 568/113/1
f 569/110/1 570/111/1 571/112/1 572/113/1
f 573/110/1 574/111/1 575/112/1 576/113/1
f 577/105/1 578/106/1 579/76/1 580/75/1
f 581/106/1 582/107/1 583/77/1 584/76/1
f 585/77/1 586/109/1 587/78/1 588/73/1
f 589/110/1 590/111/1 591/112/1 592/113/1
f 593/120/1 594/121/1 595/111/1 596/110/1
f 597/114/1 598/110/1 599/113/1 600/115/1
f 601/110/1 602/111/1 603/112/1 604/113/1
f 605/114/1 606/110/1 607/113/1 608/115/1
f 609/114/1 610/110/1 611/113/1 612/115/1
f 613/110/1 614/111/1 615/112/1 616/113/1
f 617/122/1 618/120/1 619/110/1 620/114/1
f 621/114/1 622/110/1 623/113/1 624/115/1
f 625/114/1 626/110/1 627/113/1 628/115/1
f 629/114/1 630/110/1 631/113/1 632/115/1
f 633/114/1 634/110/1 635/113/1 636/115/1
f 637/114/1 638/110/1 639/113/1 640/115/1
f 641/116/1 642/117/1 643/106/1 644/105/1
f 645/117/1 646/118/1 647/107/1 648/106/1
f 649/107/1 650/108/1 651/109/1 652/77/1
f 653/114/1 654/110/1 655/113/1 656/115/1
f 657/110/1 658/111/1 659/112/1 660/113/1
f 661/114/1 662/110/1 663/113/1 664/115/1
f 665/110/1 666/111/1 667/112/1 668/113/1
f 669/114/1 670/110/1 671/113/1 672/115/1
f 673/110/1 674/111/1 675/112/1 676/113/1
f 677/120/1 678/121/1 679/111/1 680/110/1
f 681/110/1 682/111/1 683/112/1 684/113/1
f 685/110/1 686/111/1 687/112/1 688/113/1
f 689/114/1 690/110/1 691/113/1 692/115/1
f 693/110/1 694/111/1 695/112/1 696/113/1
f 697/110/1 698/111/1 699/112/1 700/113/1
f 701/110/1 702/111/1 703/112/1 704/113/1
f 705/123/1 706/124/1 707/117/1 708/116/1
f 709/124/1 710/125/1 711/118/1 712/117/1
f 713/118/1 714/119/1 715/108/1 716/107/1
f 717/114/1 718/110/1 719/113/1 720/115/1
f 721/110/1 722/111/1 723/112/1 724/113/1
f 725/114/1 726/110/1 727/113/1 728/115/1
f 729/110/1 730/111/1 731/112/1 732/113/1
f 733/114/1 734/110/1 735/113/1 736/115/1
f 737/110/1 738/111/1 739/112/1 740/113/1
f 741/122/1 742/120/1 743/110/1 744/114/1
f 745/120/1 746/121/1 747/111/1 748/110/1
f 749/114/1 750/110/1 751/113/1 752/115/1
f 753/114/1 754/110/1 755/113/1 756/115/1
f 757/110/1 758/111/1 759/112/1 760/113/1
f 761/114/1 762/110/1 763/113/1 764/115/1
f 765/110/1 766/111/1 767/112/1 768/113/1
f 769/127/1 770/128/1 771/129/1 772/130/1
f 773/128/1 774/131/1 775/132/1 776/129/1
f 777/77/1 778/109/1 779/78/1 780/73/1
f 781/114/1 782/110/1 783/113/1 784/115/1
f 785/114/1 786/110/1 787/113/1 788/115/1
f 789/114/1 790/110/1 791/113/1 792/115/1
f 793/110/1 794/111/1 795/112/1 796/113/1
f 797/114/1 798/110/1 799/113/1 800/115/1
f 801/110/1 802/111/1 803/112/1 804/113/1
f 805/114/1 806/110/1 807/113/1 808/115/1
f 809/110/1 810/111/1 811/112/1 812/113/1
f 813/133/1 814/134/1 815/135/1 816/136/1
f 817/134/1 818/137/1 819/138/1 820/135/1
f 821/139/1 822/134/1 823/133/1 824/140/1
f 825/134/1 826/135/1 827/136/1 828/133/1
f 829/110/1 830/111/1 831/112/1 832/113/1
f 833/141/1 834/142/1 835/128/1 836/127/1
f 837/142/1 838/143/1 839/131/1 840/128/1
f 841/77/1 842/109/1 843/78/1 844/73/1
f 845/114/1 846/110/1 847/113/1 848/115/1
f 849/122/1 850/120/1 851/110/1 852/114/1
f 853/114/1 854/110/1 855/113/1 856/115/1
f 857/110/1 858/111/1 859/112/1 860/113/1
f 861/110/1 862/111/1 863/112/1 864/113/1
f 865/110/1 866/111/1 867/112/1 868/113/1
f 869/114/1 870/110/1 871/113/1 872/115/1
f 873/110/1 874/111/1 875/112/1 876/113/1
f 877/140/1 878/139/1 879/134/1 880/133/1
f 881/139/1 882/144/1 883/137/1 884/134/1
f 885/144/1 886/137/1 887/134/1 888/139/1
f 889/137/1 890/138/1 891/135/1 892/134/1
f 893/120/1 894/121/1 895/111/1 896/110/1
f 897/145/1 898/146/1 899/142/1 900/141/1
f 901/146/1 902/147/1 903/143/1 904/142/1
f 905/77/1 906/109/1 907/78/1 908/73/1
f 909/114/1 910/110/1 911/113/1 912/115/1
f 913/122/1 914/120/1 915/110/1 916/114/1
f 917/114/1 918/110/1 919/113/1 920/115/1
f 921/110/1 922/111/1 923/112/1 924/113/1
f 925/120/1 926/121/1 927/111/1 928/110/1
f 929/114/1 930/110/1 931/113/1 932/115/1
f 933/110/1 934/111/1 935/112/1 936/113/1
f 937/110/1 938/111/1 939/112/1 940/113/1
f 941/110/1 942/111/1 943/112/1 944/113/1
f 945/110/1 946/111/1 947/112/1 948/113/1
f 949/137/1 950/134/1 951/139/1 952/144/1
f 953/134/1 954/133/1 955/140/1 956/139/1
f 957/122/1 958/120/1 959/110/1 960/114/1

