# Tiled2Unity generated file. Do not modify by hand.
# Wavefront file for 'Rogue_mesh_0004.obj'

# Vertices (Count = 960)
v 0 -16 0
v -8 -16 0
v -8 -8 0
v 0 -8 0
v -8 -16 0
v -16 -16 0
v -16 -8 0
v -8 -8 0
v -16 -16 0
v -24 -16 0
v -24 -8 0
v -16 -8 0
v -24 -16 0
v -32 -16 0
v -32 -8 0
v -24 -8 0
v -32 -16 0
v -40 -16 0
v -40 -8 0
v -32 -8 0
v -40 -16 0
v -48 -16 0
v -48 -8 0
v -40 -8 0
v -48 -16 0
v -56 -16 0
v -56 -8 0
v -48 -8 0
v -56 -16 0
v -64 -16 0
v -64 -8 0
v -56 -8 0
v -64 -16 0
v -72 -16 0
v -72 -8 0
v -64 -8 0
v -72 -16 0
v -80 -16 0
v -80 -8 0
v -72 -8 0
v -80 -16 0
v -88 -16 0
v -88 -8 0
v -80 -8 0
v -88 -16 0
v -96 -16 0
v -96 -8 0
v -88 -8 0
v -96 -16 0
v -104 -16 0
v -104 -8 0
v -96 -8 0
v -104 -16 0
v -112 -16 0
v -112 -8 0
v -104 -8 0
v -112 -16 0
v -120 -16 0
v -120 -8 0
v -112 -8 0
v -120 -16 0
v -128 -16 0
v -128 -8 0
v -120 -8 0
v 0 -24 0
v -8 -24 0
v -8 -16 0
v 0 -16 0
v -8 -24 0
v -16 -24 0
v -16 -16 0
v -8 -16 0
v -16 -24 0
v -24 -24 0
v -24 -16 0
v -16 -16 0
v -24 -24 0
v -32 -24 0
v -32 -16 0
v -24 -16 0
v -32 -24 0
v -40 -24 0
v -40 -16 0
v -32 -16 0
v -40 -24 0
v -48 -24 0
v -48 -16 0
v -40 -16 0
v -48 -24 0
v -56 -24 0
v -56 -16 0
v -48 -16 0
v -56 -24 0
v -64 -24 0
v -64 -16 0
v -56 -16 0
v -64 -24 0
v -72 -24 0
v -72 -16 0
v -64 -16 0
v -72 -24 0
v -80 -24 0
v -80 -16 0
v -72 -16 0
v -80 -24 0
v -88 -24 0
v -88 -16 0
v -80 -16 0
v -88 -24 0
v -96 -24 0
v -96 -16 0
v -88 -16 0
v -96 -24 0
v -104 -24 0
v -104 -16 0
v -96 -16 0
v -104 -24 0
v -112 -24 0
v -112 -16 0
v -104 -16 0
v -112 -24 0
v -120 -24 0
v -120 -16 0
v -112 -16 0
v -120 -24 0
v -128 -24 0
v -128 -16 0
v -120 -16 0
v 0 -32 0
v -8 -32 0
v -8 -24 0
v 0 -24 0
v -8 -32 0
v -16 -32 0
v -16 -24 0
v -8 -24 0
v -16 -32 0
v -24 -32 0
v -24 -24 0
v -16 -24 0
v -24 -32 0
v -32 -32 0
v -32 -24 0
v -24 -24 0
v -32 -32 0
v -40 -32 0
v -40 -24 0
v -32 -24 0
v -40 -32 0
v -48 -32 0
v -48 -24 0
v -40 -24 0
v -48 -32 0
v -56 -32 0
v -56 -24 0
v -48 -24 0
v -56 -32 0
v -64 -32 0
v -64 -24 0
v -56 -24 0
v -64 -32 0
v -72 -32 0
v -72 -24 0
v -64 -24 0
v -72 -32 0
v -80 -32 0
v -80 -24 0
v -72 -24 0
v -80 -32 0
v -88 -32 0
v -88 -24 0
v -80 -24 0
v -88 -32 0
v -96 -32 0
v -96 -24 0
v -88 -24 0
v -96 -32 0
v -104 -32 0
v -104 -24 0
v -96 -24 0
v -104 -32 0
v -112 -32 0
v -112 -24 0
v -104 -24 0
v -112 -32 0
v -120 -32 0
v -120 -24 0
v -112 -24 0
v -120 -32 0
v -128 -32 0
v -128 -24 0
v -120 -24 0
v 0 -40 0
v -8 -40 0
v -8 -32 0
v 0 -32 0
v -8 -40 0
v -16 -40 0
v -16 -32 0
v -8 -32 0
v -16 -40 0
v -24 -40 0
v -24 -32 0
v -16 -32 0
v -24 -40 0
v -32 -40 0
v -32 -32 0
v -24 -32 0
v -32 -40 0
v -40 -40 0
v -40 -32 0
v -32 -32 0
v -40 -40 0
v -48 -40 0
v -48 -32 0
v -40 -32 0
v -48 -40 0
v -56 -40 0
v -56 -32 0
v -48 -32 0
v -56 -40 0
v -64 -40 0
v -64 -32 0
v -56 -32 0
v -64 -40 0
v -72 -40 0
v -72 -32 0
v -64 -32 0
v -72 -40 0
v -80 -40 0
v -80 -32 0
v -72 -32 0
v -80 -40 0
v -88 -40 0
v -88 -32 0
v -80 -32 0
v -88 -40 0
v -96 -40 0
v -96 -32 0
v -88 -32 0
v -96 -40 0
v -104 -40 0
v -104 -32 0
v -96 -32 0
v -104 -40 0
v -112 -40 0
v -112 -32 0
v -104 -32 0
v -112 -40 0
v -120 -40 0
v -120 -32 0
v -112 -32 0
v -120 -40 0
v -128 -40 0
v -128 -32 0
v -120 -32 0
v 0 -48 0
v -8 -48 0
v -8 -40 0
v 0 -40 0
v -8 -48 0
v -16 -48 0
v -16 -40 0
v -8 -40 0
v -16 -48 0
v -24 -48 0
v -24 -40 0
v -16 -40 0
v -24 -48 0
v -32 -48 0
v -32 -40 0
v -24 -40 0
v -32 -48 0
v -40 -48 0
v -40 -40 0
v -32 -40 0
v -40 -48 0
v -48 -48 0
v -48 -40 0
v -40 -40 0
v -48 -48 0
v -56 -48 0
v -56 -40 0
v -48 -40 0
v -56 -48 0
v -64 -48 0
v -64 -40 0
v -56 -40 0
v -64 -48 0
v -72 -48 0
v -72 -40 0
v -64 -40 0
v -72 -48 0
v -80 -48 0
v -80 -40 0
v -72 -40 0
v -80 -48 0
v -88 -48 0
v -88 -40 0
v -80 -40 0
v -88 -48 0
v -96 -48 0
v -96 -40 0
v -88 -40 0
v -96 -48 0
v -104 -48 0
v -104 -40 0
v -96 -40 0
v -104 -48 0
v -112 -48 0
v -112 -40 0
v -104 -40 0
v -112 -48 0
v -120 -48 0
v -120 -40 0
v -112 -40 0
v -120 -48 0
v -128 -48 0
v -128 -40 0
v -120 -40 0
v 0 -56 0
v -8 -56 0
v -8 -48 0
v 0 -48 0
v -8 -56 0
v -16 -56 0
v -16 -48 0
v -8 -48 0
v -16 -56 0
v -24 -56 0
v -24 -48 0
v -16 -48 0
v -24 -56 0
v -32 -56 0
v -32 -48 0
v -24 -48 0
v -32 -56 0
v -40 -56 0
v -40 -48 0
v -32 -48 0
v -40 -56 0
v -48 -56 0
v -48 -48 0
v -40 -48 0
v -48 -56 0
v -56 -56 0
v -56 -48 0
v -48 -48 0
v -56 -56 0
v -64 -56 0
v -64 -48 0
v -56 -48 0
v -64 -56 0
v -72 -56 0
v -72 -48 0
v -64 -48 0
v -72 -56 0
v -80 -56 0
v -80 -48 0
v -72 -48 0
v -80 -56 0
v -88 -56 0
v -88 -48 0
v -80 -48 0
v -88 -56 0
v -96 -56 0
v -96 -48 0
v -88 -48 0
v -96 -56 0
v -104 -56 0
v -104 -48 0
v -96 -48 0
v -104 -56 0
v -112 -56 0
v -112 -48 0
v -104 -48 0
v -112 -56 0
v -120 -56 0
v -120 -48 0
v -112 -48 0
v -120 -56 0
v -128 -56 0
v -128 -48 0
v -120 -48 0
v 0 -64 0
v -8 -64 0
v -8 -56 0
v 0 -56 0
v -8 -64 0
v -16 -64 0
v -16 -56 0
v -8 -56 0
v -16 -64 0
v -24 -64 0
v -24 -56 0
v -16 -56 0
v -24 -64 0
v -32 -64 0
v -32 -56 0
v -24 -56 0
v -32 -64 0
v -40 -64 0
v -40 -56 0
v -32 -56 0
v -40 -64 0
v -48 -64 0
v -48 -56 0
v -40 -56 0
v -48 -64 0
v -56 -64 0
v -56 -56 0
v -48 -56 0
v -56 -64 0
v -64 -64 0
v -64 -56 0
v -56 -56 0
v -64 -64 0
v -72 -64 0
v -72 -56 0
v -64 -56 0
v -72 -64 0
v -80 -64 0
v -80 -56 0
v -72 -56 0
v -80 -64 0
v -88 -64 0
v -88 -56 0
v -80 -56 0
v -88 -64 0
v -96 -64 0
v -96 -56 0
v -88 -56 0
v -96 -64 0
v -104 -64 0
v -104 -56 0
v -96 -56 0
v -104 -64 0
v -112 -64 0
v -112 -56 0
v -104 -56 0
v -112 -64 0
v -120 -64 0
v -120 -56 0
v -112 -56 0
v -120 -64 0
v -128 -64 0
v -128 -56 0
v -120 -56 0
v 0 -72 0
v -8 -72 0
v -8 -64 0
v 0 -64 0
v -8 -72 0
v -16 -72 0
v -16 -64 0
v -8 -64 0
v -16 -72 0
v -24 -72 0
v -24 -64 0
v -16 -64 0
v -24 -72 0
v -32 -72 0
v -32 -64 0
v -24 -64 0
v -32 -72 0
v -40 -72 0
v -40 -64 0
v -32 -64 0
v -40 -72 0
v -48 -72 0
v -48 -64 0
v -40 -64 0
v -48 -72 0
v -56 -72 0
v -56 -64 0
v -48 -64 0
v -56 -72 0
v -64 -72 0
v -64 -64 0
v -56 -64 0
v -64 -72 0
v -72 -72 0
v -72 -64 0
v -64 -64 0
v -72 -72 0
v -80 -72 0
v -80 -64 0
v -72 -64 0
v -80 -72 0
v -88 -72 0
v -88 -64 0
v -80 -64 0
v -88 -72 0
v -96 -72 0
v -96 -64 0
v -88 -64 0
v -96 -72 0
v -104 -72 0
v -104 -64 0
v -96 -64 0
v -104 -72 0
v -112 -72 0
v -112 -64 0
v -104 -64 0
v -112 -72 0
v -120 -72 0
v -120 -64 0
v -112 -64 0
v -120 -72 0
v -128 -72 0
v -128 -64 0
v -120 -64 0
v 0 -80 0
v -8 -80 0
v -8 -72 0
v 0 -72 0
v -8 -80 0
v -16 -80 0
v -16 -72 0
v -8 -72 0
v -16 -80 0
v -24 -80 0
v -24 -72 0
v -16 -72 0
v -24 -80 0
v -32 -80 0
v -32 -72 0
v -24 -72 0
v -32 -80 0
v -40 -80 0
v -40 -72 0
v -32 -72 0
v -40 -80 0
v -48 -80 0
v -48 -72 0
v -40 -72 0
v -48 -80 0
v -56 -80 0
v -56 -72 0
v -48 -72 0
v -56 -80 0
v -64 -80 0
v -64 -72 0
v -56 -72 0
v -64 -80 0
v -72 -80 0
v -72 -72 0
v -64 -72 0
v -72 -80 0
v -80 -80 0
v -80 -72 0
v -72 -72 0
v -80 -80 0
v -88 -80 0
v -88 -72 0
v -80 -72 0
v -88 -80 0
v -96 -80 0
v -96 -72 0
v -88 -72 0
v -96 -80 0
v -104 -80 0
v -104 -72 0
v -96 -72 0
v -104 -80 0
v -112 -80 0
v -112 -72 0
v -104 -72 0
v -112 -80 0
v -120 -80 0
v -120 -72 0
v -112 -72 0
v -120 -80 0
v -128 -80 0
v -128 -72 0
v -120 -72 0
v 0 -88 0
v -8 -88 0
v -8 -80 0
v 0 -80 0
v -8 -88 0
v -16 -88 0
v -16 -80 0
v -8 -80 0
v -16 -88 0
v -24 -88 0
v -24 -80 0
v -16 -80 0
v -24 -88 0
v -32 -88 0
v -32 -80 0
v -24 -80 0
v -32 -88 0
v -40 -88 0
v -40 -80 0
v -32 -80 0
v -40 -88 0
v -48 -88 0
v -48 -80 0
v -40 -80 0
v -48 -88 0
v -56 -88 0
v -56 -80 0
v -48 -80 0
v -56 -88 0
v -64 -88 0
v -64 -80 0
v -56 -80 0
v -64 -88 0
v -72 -88 0
v -72 -80 0
v -64 -80 0
v -72 -88 0
v -80 -88 0
v -80 -80 0
v -72 -80 0
v -80 -88 0
v -88 -88 0
v -88 -80 0
v -80 -80 0
v -88 -88 0
v -96 -88 0
v -96 -80 0
v -88 -80 0
v -96 -88 0
v -104 -88 0
v -104 -80 0
v -96 -80 0
v -104 -88 0
v -112 -88 0
v -112 -80 0
v -104 -80 0
v -112 -88 0
v -120 -88 0
v -120 -80 0
v -112 -80 0
v -120 -88 0
v -128 -88 0
v -128 -80 0
v -120 -80 0
v 0 -96 0
v -8 -96 0
v -8 -88 0
v 0 -88 0
v -8 -96 0
v -16 -96 0
v -16 -88 0
v -8 -88 0
v -16 -96 0
v -24 -96 0
v -24 -88 0
v -16 -88 0
v -24 -96 0
v -32 -96 0
v -32 -88 0
v -24 -88 0
v -32 -96 0
v -40 -96 0
v -40 -88 0
v -32 -88 0
v -40 -96 0
v -48 -96 0
v -48 -88 0
v -40 -88 0
v -48 -96 0
v -56 -96 0
v -56 -88 0
v -48 -88 0
v -56 -96 0
v -64 -96 0
v -64 -88 0
v -56 -88 0
v -64 -96 0
v -72 -96 0
v -72 -88 0
v -64 -88 0
v -72 -96 0
v -80 -96 0
v -80 -88 0
v -72 -88 0
v -80 -96 0
v -88 -96 0
v -88 -88 0
v -80 -88 0
v -88 -96 0
v -96 -96 0
v -96 -88 0
v -88 -88 0
v -96 -96 0
v -104 -96 0
v -104 -88 0
v -96 -88 0
v -104 -96 0
v -112 -96 0
v -112 -88 0
v -104 -88 0
v -112 -96 0
v -120 -96 0
v -120 -88 0
v -112 -88 0
v -120 -96 0
v -128 -96 0
v -128 -88 0
v -120 -88 0
v 0 -104 0
v -8 -104 0
v -8 -96 0
v 0 -96 0
v -8 -104 0
v -16 -104 0
v -16 -96 0
v -8 -96 0
v -16 -104 0
v -24 -104 0
v -24 -96 0
v -16 -96 0
v -24 -104 0
v -32 -104 0
v -32 -96 0
v -24 -96 0
v -32 -104 0
v -40 -104 0
v -40 -96 0
v -32 -96 0
v -40 -104 0
v -48 -104 0
v -48 -96 0
v -40 -96 0
v -48 -104 0
v -56 -104 0
v -56 -96 0
v -48 -96 0
v -56 -104 0
v -64 -104 0
v -64 -96 0
v -56 -96 0
v -64 -104 0
v -72 -104 0
v -72 -96 0
v -64 -96 0
v -72 -104 0
v -80 -104 0
v -80 -96 0
v -72 -96 0
v -80 -104 0
v -88 -104 0
v -88 -96 0
v -80 -96 0
v -88 -104 0
v -96 -104 0
v -96 -96 0
v -88 -96 0
v -96 -104 0
v -104 -104 0
v -104 -96 0
v -96 -96 0
v -104 -104 0
v -112 -104 0
v -112 -96 0
v -104 -96 0
v -112 -104 0
v -120 -104 0
v -120 -96 0
v -112 -96 0
v -120 -104 0
v -128 -104 0
v -128 -96 0
v -120 -96 0
v 0 -112 0
v -8 -112 0
v -8 -104 0
v 0 -104 0
v -8 -112 0
v -16 -112 0
v -16 -104 0
v -8 -104 0
v -16 -112 0
v -24 -112 0
v -24 -104 0
v -16 -104 0
v -24 -112 0
v -32 -112 0
v -32 -104 0
v -24 -104 0
v -32 -112 0
v -40 -112 0
v -40 -104 0
v -32 -104 0
v -40 -112 0
v -48 -112 0
v -48 -104 0
v -40 -104 0
v -48 -112 0
v -56 -112 0
v -56 -104 0
v -48 -104 0
v -56 -112 0
v -64 -112 0
v -64 -104 0
v -56 -104 0
v -64 -112 0
v -72 -112 0
v -72 -104 0
v -64 -104 0
v -72 -112 0
v -80 -112 0
v -80 -104 0
v -72 -104 0
v -80 -112 0
v -88 -112 0
v -88 -104 0
v -80 -104 0
v -88 -112 0
v -96 -112 0
v -96 -104 0
v -88 -104 0
v -96 -112 0
v -104 -112 0
v -104 -104 0
v -96 -104 0
v -104 -112 0
v -112 -112 0
v -112 -104 0
v -104 -104 0
v -112 -112 0
v -120 -112 0
v -120 -104 0
v -112 -104 0
v -120 -112 0
v -128 -112 0
v -128 -104 0
v -120 -104 0
v 0 -120 0
v -8 -120 0
v -8 -112 0
v 0 -112 0
v -8 -120 0
v -16 -120 0
v -16 -112 0
v -8 -112 0
v -16 -120 0
v -24 -120 0
v -24 -112 0
v -16 -112 0
v -24 -120 0
v -32 -120 0
v -32 -112 0
v -24 -112 0
v -32 -120 0
v -40 -120 0
v -40 -112 0
v -32 -112 0
v -40 -120 0
v -48 -120 0
v -48 -112 0
v -40 -112 0
v -48 -120 0
v -56 -120 0
v -56 -112 0
v -48 -112 0
v -56 -120 0
v -64 -120 0
v -64 -112 0
v -56 -112 0
v -64 -120 0
v -72 -120 0
v -72 -112 0
v -64 -112 0
v -72 -120 0
v -80 -120 0
v -80 -112 0
v -72 -112 0
v -80 -120 0
v -88 -120 0
v -88 -112 0
v -80 -112 0
v -88 -120 0
v -96 -120 0
v -96 -112 0
v -88 -112 0
v -96 -120 0
v -104 -120 0
v -104 -112 0
v -96 -112 0
v -104 -120 0
v -112 -120 0
v -112 -112 0
v -104 -112 0
v -112 -120 0
v -120 -120 0
v -120 -112 0
v -112 -112 0
v -120 -120 0
v -128 -120 0
v -128 -112 0
v -120 -112 0
v 0 -128 0
v -8 -128 0
v -8 -120 0
v 0 -120 0
v -8 -128 0
v -16 -128 0
v -16 -120 0
v -8 -120 0
v -16 -128 0
v -24 -128 0
v -24 -120 0
v -16 -120 0
v -24 -128 0
v -32 -128 0
v -32 -120 0
v -24 -120 0
v -32 -128 0
v -40 -128 0
v -40 -120 0
v -32 -120 0
v -40 -128 0
v -48 -128 0
v -48 -120 0
v -40 -120 0
v -48 -128 0
v -56 -128 0
v -56 -120 0
v -48 -120 0
v -56 -128 0
v -64 -128 0
v -64 -120 0
v -56 -120 0
v -64 -128 0
v -72 -128 0
v -72 -120 0
v -64 -120 0
v -72 -128 0
v -80 -128 0
v -80 -120 0
v -72 -120 0
v -80 -128 0
v -88 -128 0
v -88 -120 0
v -80 -120 0
v -88 -128 0
v -96 -128 0
v -96 -120 0
v -88 -120 0
v -96 -128 0
v -104 -128 0
v -104 -120 0
v -96 -120 0
v -104 -128 0
v -112 -128 0
v -112 -120 0
v -104 -120 0
v -112 -128 0
v -120 -128 0
v -120 -120 0
v -112 -120 0
v -120 -128 0
v -128 -128 0
v -128 -120 0
v -120 -120 0

# Texture cooridinates (Count = 100)
vt 0.4117647 0.9693878
vt 0.4264706 0.9693878
vt 0.4264706 0.9795918
vt 0.4117647 0.9795918
vt 0.3382353 0.9693878
vt 0.3529412 0.9693878
vt 0.3529412 0.9795918
vt 0.3382353 0.9795918
vt 0.4411765 0.9693878
vt 0.4411765 0.9795918
vt 0.4558823 0.9693878
vt 0.4558823 0.9795918
vt 0.8382353 0.9693878
vt 0.8529412 0.9693878
vt 0.8529412 0.9795918
vt 0.8382353 0.9795918
vt 0.8676471 0.9693878
vt 0.8676471 0.9795918
vt 0.8823529 0.9693878
vt 0.8823529 0.9795918
vt 0.8970588 0.9693878
vt 0.8970588 0.9795918
vt 0.9117647 0.9693878
vt 0.9117647 0.9795918
vt 0.4117647 0.9591837
vt 0.4264706 0.9591837
vt 0.3382353 0.9591837
vt 0.3529412 0.9591837
vt 0.4411765 0.9591837
vt 0.4558823 0.9591837
vt 0.8382353 0.9591837
vt 0.8529412 0.9591837
vt 0.8676471 0.9591837
vt 0.8823529 0.9591837
vt 0.8970588 0.9591837
vt 0.9117647 0.9591837
vt 0.4117647 0.9489796
vt 0.4264706 0.9489796
vt 0.4411765 0.9489796
vt 0.4705882 0.9489796
vt 0.4852941 0.9489796
vt 0.4852941 0.9591837
vt 0.4705882 0.9591837
vt 0.5 0.9489796
vt 0.5 0.9591837
vt 0.8529412 0.9489796
vt 0.8676471 0.9489796
vt 0.8823529 0.9489796
vt 0.8970588 0.9489796
vt 0.9117647 0.9489796
vt 0.4117647 0.9387755
vt 0.4264706 0.9387755
vt 0.4411765 0.9387755
vt 0.4705882 0.9387755
vt 0.4852941 0.9387755
vt 0.5 0.9387755
vt 0.8529412 0.9387755
vt 0.8676471 0.9387755
vt 0.8823529 0.9387755
vt 0.8970588 0.9387755
vt 0.9117647 0.9387755
vt 0.4117647 0.9285714
vt 0.4264706 0.9285714
vt 0.4411765 0.9285714
vt 0.4558823 0.9285714
vt 0.4558823 0.9387755
vt 0.4705882 0.9285714
vt 0.6470588 0.9285714
vt 0.6617647 0.9285714
vt 0.6617647 0.9387755
vt 0.6470588 0.9387755
vt 0.6764706 0.9285714
vt 0.6764706 0.9387755
vt 0.4411765 0.8877551
vt 0.4558823 0.8877551
vt 0.4558823 0.8979592
vt 0.4411765 0.8979592
vt 0.4264706 0.8979592
vt 0.4411765 0.9081632
vt 0.4264706 0.9081632
vt 0.4558823 0.9081632
vt 0.4264706 0.8877551
vt 0.8823529 0.9285714
vt 0.8970588 0.9285714
vt 0.9117647 0.9285714
vt 0.8823529 0.9183673
vt 0.8970588 0.9183673
vt 0.9117647 0.9183673
vt 0.8823529 0.9081632
vt 0.8970588 0.9081632
vt 0.9117647 0.9081632
vt 0.8823529 0.8979592
vt 0.8970588 0.8979592
vt 0.9117647 0.8979592
vt 0.8823529 0.8877551
vt 0.8970588 0.8877551
vt 0.9117647 0.8877551
vt 0.8823529 0.877551
vt 0.8970588 0.877551
vt 0.9117647 0.877551

# Normal
vn 0 0 -1

# Mesh description
g Rogue_mesh_0004

# Faces
f 1/1/1 2/2/1 3/3/1 4/4/1
f 5/5/1 6/6/1 7/7/1 8/8/1
f 9/1/1 10/2/1 11/3/1 12/4/1
f 13/5/1 14/6/1 15/7/1 16/8/1
f 17/1/1 18/2/1 19/3/1 20/4/1
f 21/5/1 22/6/1 23/7/1 24/8/1
f 25/1/1 26/2/1 27/3/1 28/4/1
f 29/5/1 30/6/1 31/7/1 32/8/1
f 33/1/1 34/2/1 35/3/1 36/4/1
f 37/2/1 38/9/1 39/10/1 40/3/1
f 41/9/1 42/11/1 43/12/1 44/10/1
f 45/13/1 46/14/1 47/15/1 48/16/1
f 49/14/1 50/17/1 51/18/1 52/15/1
f 53/17/1 54/19/1 55/20/1 56/18/1
f 57/19/1 58/21/1 59/22/1 60/20/1
f 61/21/1 62/23/1 63/24/1 64/22/1
f 65/25/1 66/26/1 67/2/1 68/1/1
f 69/27/1 70/28/1 71/6/1 72/5/1
f 73/25/1 74/26/1 75/2/1 76/1/1
f 77/27/1 78/28/1 79/6/1 80/5/1
f 81/25/1 82/26/1 83/2/1 84/1/1
f 85/27/1 86/28/1 87/6/1 88/5/1
f 89/25/1 90/26/1 91/2/1 92/1/1
f 93/27/1 94/28/1 95/6/1 96/5/1
f 97/25/1 98/26/1 99/2/1 100/1/1
f 101/26/1 102/29/1 103/9/1 104/2/1
f 105/29/1 106/30/1 107/11/1 108/9/1
f 109/31/1 110/32/1 111/14/1 112/13/1
f 113/32/1 114/33/1 115/17/1 116/14/1
f 117/33/1 118/34/1 119/19/1 120/17/1
f 121/34/1 122/35/1 123/21/1 124/19/1
f 125/35/1 126/36/1 127/23/1 128/21/1
f 129/37/1 130/38/1 131/26/1 132/25/1
f 133/37/1 134/38/1 135/26/1 136/25/1
f 137/37/1 138/38/1 139/26/1 140/25/1
f 141/37/1 142/38/1 143/26/1 144/25/1
f 145/37/1 146/38/1 147/26/1 148/25/1
f 149/37/1 150/38/1 151/26/1 152/25/1
f 153/37/1 154/38/1 155/26/1 156/25/1
f 157/37/1 158/38/1 159/26/1 160/25/1
f 161/37/1 162/38/1 163/26/1 164/25/1
f 165/38/1 166/39/1 167/29/1 168/26/1
f 169/40/1 170/41/1 171/42/1 172/43/1
f 173/41/1 174/44/1 175/45/1 176/42/1
f 177/46/1 178/47/1 179/33/1 180/32/1
f 181/47/1 182/48/1 183/34/1 184/33/1
f 185/48/1 186/49/1 187/35/1 188/34/1
f 189/49/1 190/50/1 191/36/1 192/35/1
f 193/51/1 194/52/1 195/38/1 196/37/1
f 197/51/1 198/52/1 199/38/1 200/37/1
f 201/51/1 202/52/1 203/38/1 204/37/1
f 205/51/1 206/52/1 207/38/1 208/37/1
f 209/51/1 210/52/1 211/38/1 212/37/1
f 213/51/1 214/52/1 215/38/1 216/37/1
f 217/51/1 218/52/1 219/38/1 220/37/1
f 221/51/1 222/52/1 223/38/1 224/37/1
f 225/51/1 226/52/1 227/38/1 228/37/1
f 229/52/1 230/53/1 231/39/1 232/38/1
f 233/54/1 234/55/1 235/41/1 236/40/1
f 237/55/1 238/56/1 239/44/1 240/41/1
f 241/57/1 242/58/1 243/47/1 244/46/1
f 245/58/1 246/59/1 247/48/1 248/47/1
f 249/59/1 250/60/1 251/49/1 252/48/1
f 253/60/1 254/61/1 255/50/1 256/49/1
f 257/62/1 258/63/1 259/52/1 260/51/1
f 261/62/1 262/63/1 263/52/1 264/51/1
f 265/62/1 266/63/1 267/52/1 268/51/1
f 269/62/1 270/63/1 271/52/1 272/51/1
f 273/62/1 274/63/1 275/52/1 276/51/1
f 277/62/1 278/63/1 279/52/1 280/51/1
f 281/62/1 282/63/1 283/52/1 284/51/1
f 285/62/1 286/63/1 287/52/1 288/51/1
f 289/62/1 290/63/1 291/52/1 292/51/1
f 293/63/1 294/64/1 295/53/1 296/52/1
f 297/64/1 298/65/1 299/66/1 300/53/1
f 301/65/1 302/67/1 303/54/1 304/66/1
f 305/68/1 306/69/1 307/70/1 308/71/1
f 309/69/1 310/72/1 311/73/1 312/70/1
f 313/48/1 314/49/1 315/35/1 316/34/1
f 317/49/1 318/50/1 319/36/1 320/35/1
f 321/74/1 322/75/1 323/76/1 324/77/1
f 325/78/1 326/77/1 327/79/1 328/80/1
f 329/77/1 330/76/1 331/81/1 332/79/1
f 333/77/1 334/76/1 335/81/1 336/79/1
f 337/77/1 338/76/1 339/81/1 340/79/1
f 341/78/1 342/77/1 343/79/1 344/80/1
f 345/77/1 346/76/1 347/81/1 348/79/1
f 349/82/1 350/74/1 351/77/1 352/78/1
f 353/74/1 354/75/1 355/76/1 356/77/1
f 357/78/1 358/77/1 359/79/1 360/80/1
f 361/77/1 362/76/1 363/81/1 364/79/1
f 365/77/1 366/76/1 367/81/1 368/79/1
f 369/77/1 370/76/1 371/81/1 372/79/1
f 373/78/1 374/77/1 375/79/1 376/80/1
f 377/59/1 378/60/1 379/49/1 380/48/1
f 381/60/1 382/61/1 383/50/1 384/49/1
f 385/77/1 386/76/1 387/81/1 388/79/1
f 389/77/1 390/76/1 391/81/1 392/79/1
f 393/77/1 394/76/1 395/81/1 396/79/1
f 397/77/1 398/76/1 399/81/1 400/79/1
f 401/74/1 402/75/1 403/76/1 404/77/1
f 405/78/1 406/77/1 407/79/1 408/80/1
f 409/77/1 410/76/1 411/81/1 412/79/1
f 413/82/1 414/74/1 415/77/1 416/78/1
f 417/74/1 418/75/1 419/76/1 420/77/1
f 421/78/1 422/77/1 423/79/1 424/80/1
f 425/77/1 426/76/1 427/81/1 428/79/1
f 429/74/1 430/75/1 431/76/1 432/77/1
f 433/77/1 434/76/1 435/81/1 436/79/1
f 437/78/1 438/77/1 439/79/1 440/80/1
f 441/83/1 442/84/1 443/60/1 444/59/1
f 445/84/1 446/85/1 447/61/1 448/60/1
f 449/78/1 450/77/1 451/79/1 452/80/1
f 453/78/1 454/77/1 455/79/1 456/80/1
f 457/78/1 458/77/1 459/79/1 460/80/1
f 461/78/1 462/77/1 463/79/1 464/80/1
f 465/78/1 466/77/1 467/79/1 468/80/1
f 469/78/1 470/77/1 471/79/1 472/80/1
f 473/78/1 474/77/1 475/79/1 476/80/1
f 477/78/1 478/77/1 479/79/1 480/80/1
f 481/77/1 482/76/1 483/81/1 484/79/1
f 485/78/1 486/77/1 487/79/1 488/80/1
f 489/77/1 490/76/1 491/81/1 492/79/1
f 493/74/1 494/75/1 495/76/1 496/77/1
f 497/77/1 498/76/1 499/81/1 500/79/1
f 501/78/1 502/77/1 503/79/1 504/80/1
f 505/86/1 506/87/1 507/84/1 508/83/1
f 509/87/1 510/88/1 511/85/1 512/84/1
f 513/82/1 514/74/1 515/77/1 516/78/1
f 517/82/1 518/74/1 519/77/1 520/78/1
f 521/78/1 522/77/1 523/79/1 524/80/1
f 525/77/1 526/76/1 527/81/1 528/79/1
f 529/77/1 530/76/1 531/81/1 532/79/1
f 533/77/1 534/76/1 535/81/1 536/79/1
f 537/77/1 538/76/1 539/81/1 540/79/1
f 541/77/1 542/76/1 543/81/1 544/79/1
f 545/77/1 546/76/1 547/81/1 548/79/1
f 549/78/1 550/77/1 551/79/1 552/80/1
f 553/77/1 554/76/1 555/81/1 556/79/1
f 557/74/1 558/75/1 559/76/1 560/77/1
f 561/77/1 562/76/1 563/81/1 564/79/1
f 565/78/1 566/77/1 567/79/1 568/80/1
f 569/89/1 570/90/1 571/87/1 572/86/1
f 573/90/1 574/91/1 575/88/1 576/87/1
f 577/77/1 578/76/1 579/81/1 580/79/1
f 581/77/1 582/76/1 583/81/1 584/79/1
f 585/77/1 586/76/1 587/81/1 588/79/1
f 589/77/1 590/76/1 591/81/1 592/79/1
f 593/74/1 594/75/1 595/76/1 596/77/1
f 597/74/1 598/75/1 599/76/1 600/77/1
f 601/74/1 602/75/1 603/76/1 604/77/1
f 605/74/1 606/75/1 607/76/1 608/77/1
f 609/78/1 610/77/1 611/79/1 612/80/1
f 613/78/1 614/77/1 615/79/1 616/80/1
f 617/77/1 618/76/1 619/81/1 620/79/1
f 621/74/1 622/75/1 623/76/1 624/77/1
f 625/77/1 626/76/1 627/81/1 628/79/1
f 629/78/1 630/77/1 631/79/1 632/80/1
f 633/92/1 634/93/1 635/90/1 636/89/1
f 637/93/1 638/94/1 639/91/1 640/90/1
f 641/78/1 642/77/1 643/79/1 644/80/1
f 645/78/1 646/77/1 647/79/1 648/80/1
f 649/78/1 650/77/1 651/79/1 652/80/1
f 653/78/1 654/77/1 655/79/1 656/80/1
f 657/78/1 658/77/1 659/79/1 660/80/1
f 661/77/1 662/76/1 663/81/1 664/79/1
f 665/77/1 666/76/1 667/81/1 668/79/1
f 669/78/1 670/77/1 671/79/1 672/80/1
f 673/77/1 674/76/1 675/81/1 676/79/1
f 677/78/1 678/77/1 679/79/1 680/80/1
f 681/77/1 682/76/1 683/81/1 684/79/1
f 685/74/1 686/75/1 687/76/1 688/77/1
f 689/77/1 690/76/1 691/81/1 692/79/1
f 693/78/1 694/77/1 695/79/1 696/80/1
f 697/95/1 698/96/1 699/93/1 700/92/1
f 701/96/1 702/97/1 703/94/1 704/93/1
f 705/78/1 706/77/1 707/79/1 708/80/1
f 709/77/1 710/76/1 711/81/1 712/79/1
f 713/78/1 714/77/1 715/79/1 716/80/1
f 717/77/1 718/76/1 719/81/1 720/79/1
f 721/77/1 722/76/1 723/81/1 724/79/1
f 725/74/1 726/75/1 727/76/1 728/77/1
f 729/74/1 730/75/1 731/76/1 732/77/1
f 733/78/1 734/77/1 735/79/1 736/80/1
f 737/77/1 738/76/1 739/81/1 740/79/1
f 741/78/1 742/77/1 743/79/1 744/80/1
f 745/77/1 746/76/1 747/81/1 748/79/1
f 749/74/1 750/75/1 751/76/1 752/77/1
f 753/77/1 754/76/1 755/81/1 756/79/1
f 757/78/1 758/77/1 759/79/1 760/80/1
f 761/98/1 762/99/1 763/96/1 764/95/1
f 765/99/1 766/100/1 767/97/1 768/96/1
f 769/78/1 770/77/1 771/79/1 772/80/1
f 773/78/1 774/77/1 775/79/1 776/80/1
f 777/78/1 778/77/1 779/79/1 780/80/1
f 781/78/1 782/77/1 783/79/1 784/80/1
f 785/77/1 786/76/1 787/81/1 788/79/1
f 789/77/1 790/76/1 791/81/1 792/79/1
f 793/78/1 794/77/1 795/79/1 796/80/1
f 797/78/1 798/77/1 799/79/1 800/80/1
f 801/77/1 802/76/1 803/81/1 804/79/1
f 805/78/1 806/77/1 807/79/1 808/80/1
f 809/77/1 810/76/1 811/81/1 812/79/1
f 813/82/1 814/74/1 815/77/1 816/78/1
f 817/74/1 818/75/1 819/76/1 820/77/1
f 821/77/1 822/76/1 823/81/1 824/79/1
f 825/48/1 826/49/1 827/35/1 828/34/1
f 829/49/1 830/50/1 831/36/1 832/35/1
f 833/78/1 834/77/1 835/79/1 836/80/1
f 837/78/1 838/77/1 839/79/1 840/80/1
f 841/78/1 842/77/1 843/79/1 844/80/1
f 845/78/1 846/77/1 847/79/1 848/80/1
f 849/77/1 850/76/1 851/81/1 852/79/1
f 853/74/1 854/75/1 855/76/1 856/77/1
f 857/82/1 858/74/1 859/77/1 860/78/1
f 861/78/1 862/77/1 863/79/1 864/80/1
f 865/77/1 866/76/1 867/81/1 868/79/1
f 869/77/1 870/76/1 871/81/1 872/79/1
f 873/77/1 874/76/1 875/81/1 876/79/1
f 877/82/1 878/74/1 879/77/1 880/78/1
f 881/74/1 882/75/1 883/76/1 884/77/1
f 885/74/1 886/75/1 887/76/1 888/77/1
f 889/59/1 890/60/1 891/49/1 892/48/1
f 893/60/1 894/61/1 895/50/1 896/49/1
f 897/78/1 898/77/1 899/79/1 900/80/1
f 901/82/1 902/74/1 903/77/1 904/78/1
f 905/78/1 906/77/1 907/79/1 908/80/1
f 909/78/1 910/77/1 911/79/1 912/80/1
f 913/77/1 914/76/1 915/81/1 916/79/1
f 917/74/1 918/75/1 919/76/1 920/77/1
f 921/82/1 922/74/1 923/77/1 924/78/1
f 925/78/1 926/77/1 927/79/1 928/80/1
f 929/77/1 930/76/1 931/81/1 932/79/1
f 933/74/1 934/75/1 935/76/1 936/77/1
f 937/77/1 938/76/1 939/81/1 940/79/1
f 941/77/1 942/76/1 943/81/1 944/79/1
f 945/77/1 946/76/1 947/81/1 948/79/1
f 949/74/1 950/75/1 951/76/1 952/77/1
f 953/83/1 954/84/1 955/60/1 956/59/1
f 957/84/1 958/85/1 959/61/1 960/60/1

