# Tiled2Unity generated file. Do not modify by hand.
# Wavefront file for 'Rogue_mesh_0007.obj'

# Vertices (Count = 1024)
v 0 -8 0
v -8 -8 0
v -8 0 0
v 0 0 0
v -8 -8 0
v -16 -8 0
v -16 0 0
v -8 0 0
v -16 -8 0
v -24 -8 0
v -24 0 0
v -16 0 0
v -24 -8 0
v -32 -8 0
v -32 0 0
v -24 0 0
v -32 -8 0
v -40 -8 0
v -40 0 0
v -32 0 0
v -40 -8 0
v -48 -8 0
v -48 0 0
v -40 0 0
v -48 -8 0
v -56 -8 0
v -56 0 0
v -48 0 0
v -56 -8 0
v -64 -8 0
v -64 0 0
v -56 0 0
v -64 -8 0
v -72 -8 0
v -72 0 0
v -64 0 0
v -72 -8 0
v -80 -8 0
v -80 0 0
v -72 0 0
v -80 -8 0
v -88 -8 0
v -88 0 0
v -80 0 0
v -88 -8 0
v -96 -8 0
v -96 0 0
v -88 0 0
v -96 -8 0
v -104 -8 0
v -104 0 0
v -96 0 0
v -104 -8 0
v -112 -8 0
v -112 0 0
v -104 0 0
v -112 -8 0
v -120 -8 0
v -120 0 0
v -112 0 0
v -120 -8 0
v -128 -8 0
v -128 0 0
v -120 0 0
v 0 -16 0
v -8 -16 0
v -8 -8 0
v 0 -8 0
v -8 -16 0
v -16 -16 0
v -16 -8 0
v -8 -8 0
v -16 -16 0
v -24 -16 0
v -24 -8 0
v -16 -8 0
v -24 -16 0
v -32 -16 0
v -32 -8 0
v -24 -8 0
v -32 -16 0
v -40 -16 0
v -40 -8 0
v -32 -8 0
v -40 -16 0
v -48 -16 0
v -48 -8 0
v -40 -8 0
v -48 -16 0
v -56 -16 0
v -56 -8 0
v -48 -8 0
v -56 -16 0
v -64 -16 0
v -64 -8 0
v -56 -8 0
v -64 -16 0
v -72 -16 0
v -72 -8 0
v -64 -8 0
v -72 -16 0
v -80 -16 0
v -80 -8 0
v -72 -8 0
v -80 -16 0
v -88 -16 0
v -88 -8 0
v -80 -8 0
v -88 -16 0
v -96 -16 0
v -96 -8 0
v -88 -8 0
v -96 -16 0
v -104 -16 0
v -104 -8 0
v -96 -8 0
v -104 -16 0
v -112 -16 0
v -112 -8 0
v -104 -8 0
v -112 -16 0
v -120 -16 0
v -120 -8 0
v -112 -8 0
v -120 -16 0
v -128 -16 0
v -128 -8 0
v -120 -8 0
v 0 -24 0
v -8 -24 0
v -8 -16 0
v 0 -16 0
v -8 -24 0
v -16 -24 0
v -16 -16 0
v -8 -16 0
v -16 -24 0
v -24 -24 0
v -24 -16 0
v -16 -16 0
v -24 -24 0
v -32 -24 0
v -32 -16 0
v -24 -16 0
v -32 -24 0
v -40 -24 0
v -40 -16 0
v -32 -16 0
v -40 -24 0
v -48 -24 0
v -48 -16 0
v -40 -16 0
v -48 -24 0
v -56 -24 0
v -56 -16 0
v -48 -16 0
v -56 -24 0
v -64 -24 0
v -64 -16 0
v -56 -16 0
v -64 -24 0
v -72 -24 0
v -72 -16 0
v -64 -16 0
v -72 -24 0
v -80 -24 0
v -80 -16 0
v -72 -16 0
v -80 -24 0
v -88 -24 0
v -88 -16 0
v -80 -16 0
v -88 -24 0
v -96 -24 0
v -96 -16 0
v -88 -16 0
v -96 -24 0
v -104 -24 0
v -104 -16 0
v -96 -16 0
v -104 -24 0
v -112 -24 0
v -112 -16 0
v -104 -16 0
v -112 -24 0
v -120 -24 0
v -120 -16 0
v -112 -16 0
v -120 -24 0
v -128 -24 0
v -128 -16 0
v -120 -16 0
v 0 -32 0
v -8 -32 0
v -8 -24 0
v 0 -24 0
v -8 -32 0
v -16 -32 0
v -16 -24 0
v -8 -24 0
v -16 -32 0
v -24 -32 0
v -24 -24 0
v -16 -24 0
v -24 -32 0
v -32 -32 0
v -32 -24 0
v -24 -24 0
v -32 -32 0
v -40 -32 0
v -40 -24 0
v -32 -24 0
v -40 -32 0
v -48 -32 0
v -48 -24 0
v -40 -24 0
v -48 -32 0
v -56 -32 0
v -56 -24 0
v -48 -24 0
v -56 -32 0
v -64 -32 0
v -64 -24 0
v -56 -24 0
v -64 -32 0
v -72 -32 0
v -72 -24 0
v -64 -24 0
v -72 -32 0
v -80 -32 0
v -80 -24 0
v -72 -24 0
v -80 -32 0
v -88 -32 0
v -88 -24 0
v -80 -24 0
v -88 -32 0
v -96 -32 0
v -96 -24 0
v -88 -24 0
v -96 -32 0
v -104 -32 0
v -104 -24 0
v -96 -24 0
v -104 -32 0
v -112 -32 0
v -112 -24 0
v -104 -24 0
v -112 -32 0
v -120 -32 0
v -120 -24 0
v -112 -24 0
v -120 -32 0
v -128 -32 0
v -128 -24 0
v -120 -24 0
v 0 -40 0
v -8 -40 0
v -8 -32 0
v 0 -32 0
v -8 -40 0
v -16 -40 0
v -16 -32 0
v -8 -32 0
v -16 -40 0
v -24 -40 0
v -24 -32 0
v -16 -32 0
v -24 -40 0
v -32 -40 0
v -32 -32 0
v -24 -32 0
v -32 -40 0
v -40 -40 0
v -40 -32 0
v -32 -32 0
v -40 -40 0
v -48 -40 0
v -48 -32 0
v -40 -32 0
v -48 -40 0
v -56 -40 0
v -56 -32 0
v -48 -32 0
v -56 -40 0
v -64 -40 0
v -64 -32 0
v -56 -32 0
v -64 -40 0
v -72 -40 0
v -72 -32 0
v -64 -32 0
v -72 -40 0
v -80 -40 0
v -80 -32 0
v -72 -32 0
v -80 -40 0
v -88 -40 0
v -88 -32 0
v -80 -32 0
v -88 -40 0
v -96 -40 0
v -96 -32 0
v -88 -32 0
v -96 -40 0
v -104 -40 0
v -104 -32 0
v -96 -32 0
v -104 -40 0
v -112 -40 0
v -112 -32 0
v -104 -32 0
v -112 -40 0
v -120 -40 0
v -120 -32 0
v -112 -32 0
v -120 -40 0
v -128 -40 0
v -128 -32 0
v -120 -32 0
v 0 -48 0
v -8 -48 0
v -8 -40 0
v 0 -40 0
v -8 -48 0
v -16 -48 0
v -16 -40 0
v -8 -40 0
v -16 -48 0
v -24 -48 0
v -24 -40 0
v -16 -40 0
v -24 -48 0
v -32 -48 0
v -32 -40 0
v -24 -40 0
v -32 -48 0
v -40 -48 0
v -40 -40 0
v -32 -40 0
v -40 -48 0
v -48 -48 0
v -48 -40 0
v -40 -40 0
v -48 -48 0
v -56 -48 0
v -56 -40 0
v -48 -40 0
v -56 -48 0
v -64 -48 0
v -64 -40 0
v -56 -40 0
v -64 -48 0
v -72 -48 0
v -72 -40 0
v -64 -40 0
v -72 -48 0
v -80 -48 0
v -80 -40 0
v -72 -40 0
v -80 -48 0
v -88 -48 0
v -88 -40 0
v -80 -40 0
v -88 -48 0
v -96 -48 0
v -96 -40 0
v -88 -40 0
v -96 -48 0
v -104 -48 0
v -104 -40 0
v -96 -40 0
v -104 -48 0
v -112 -48 0
v -112 -40 0
v -104 -40 0
v -112 -48 0
v -120 -48 0
v -120 -40 0
v -112 -40 0
v -120 -48 0
v -128 -48 0
v -128 -40 0
v -120 -40 0
v 0 -56 0
v -8 -56 0
v -8 -48 0
v 0 -48 0
v -8 -56 0
v -16 -56 0
v -16 -48 0
v -8 -48 0
v -16 -56 0
v -24 -56 0
v -24 -48 0
v -16 -48 0
v -24 -56 0
v -32 -56 0
v -32 -48 0
v -24 -48 0
v -32 -56 0
v -40 -56 0
v -40 -48 0
v -32 -48 0
v -40 -56 0
v -48 -56 0
v -48 -48 0
v -40 -48 0
v -48 -56 0
v -56 -56 0
v -56 -48 0
v -48 -48 0
v -56 -56 0
v -64 -56 0
v -64 -48 0
v -56 -48 0
v -64 -56 0
v -72 -56 0
v -72 -48 0
v -64 -48 0
v -72 -56 0
v -80 -56 0
v -80 -48 0
v -72 -48 0
v -80 -56 0
v -88 -56 0
v -88 -48 0
v -80 -48 0
v -88 -56 0
v -96 -56 0
v -96 -48 0
v -88 -48 0
v -96 -56 0
v -104 -56 0
v -104 -48 0
v -96 -48 0
v -104 -56 0
v -112 -56 0
v -112 -48 0
v -104 -48 0
v -112 -56 0
v -120 -56 0
v -120 -48 0
v -112 -48 0
v -120 -56 0
v -128 -56 0
v -128 -48 0
v -120 -48 0
v 0 -64 0
v -8 -64 0
v -8 -56 0
v 0 -56 0
v -8 -64 0
v -16 -64 0
v -16 -56 0
v -8 -56 0
v -16 -64 0
v -24 -64 0
v -24 -56 0
v -16 -56 0
v -24 -64 0
v -32 -64 0
v -32 -56 0
v -24 -56 0
v -32 -64 0
v -40 -64 0
v -40 -56 0
v -32 -56 0
v -40 -64 0
v -48 -64 0
v -48 -56 0
v -40 -56 0
v -48 -64 0
v -56 -64 0
v -56 -56 0
v -48 -56 0
v -56 -64 0
v -64 -64 0
v -64 -56 0
v -56 -56 0
v -64 -64 0
v -72 -64 0
v -72 -56 0
v -64 -56 0
v -72 -64 0
v -80 -64 0
v -80 -56 0
v -72 -56 0
v -80 -64 0
v -88 -64 0
v -88 -56 0
v -80 -56 0
v -88 -64 0
v -96 -64 0
v -96 -56 0
v -88 -56 0
v -96 -64 0
v -104 -64 0
v -104 -56 0
v -96 -56 0
v -104 -64 0
v -112 -64 0
v -112 -56 0
v -104 -56 0
v -112 -64 0
v -120 -64 0
v -120 -56 0
v -112 -56 0
v -120 -64 0
v -128 -64 0
v -128 -56 0
v -120 -56 0
v 0 -72 0
v -8 -72 0
v -8 -64 0
v 0 -64 0
v -8 -72 0
v -16 -72 0
v -16 -64 0
v -8 -64 0
v -16 -72 0
v -24 -72 0
v -24 -64 0
v -16 -64 0
v -24 -72 0
v -32 -72 0
v -32 -64 0
v -24 -64 0
v -32 -72 0
v -40 -72 0
v -40 -64 0
v -32 -64 0
v -40 -72 0
v -48 -72 0
v -48 -64 0
v -40 -64 0
v -48 -72 0
v -56 -72 0
v -56 -64 0
v -48 -64 0
v -56 -72 0
v -64 -72 0
v -64 -64 0
v -56 -64 0
v -64 -72 0
v -72 -72 0
v -72 -64 0
v -64 -64 0
v -72 -72 0
v -80 -72 0
v -80 -64 0
v -72 -64 0
v -80 -72 0
v -88 -72 0
v -88 -64 0
v -80 -64 0
v -88 -72 0
v -96 -72 0
v -96 -64 0
v -88 -64 0
v -96 -72 0
v -104 -72 0
v -104 -64 0
v -96 -64 0
v -104 -72 0
v -112 -72 0
v -112 -64 0
v -104 -64 0
v -112 -72 0
v -120 -72 0
v -120 -64 0
v -112 -64 0
v -120 -72 0
v -128 -72 0
v -128 -64 0
v -120 -64 0
v 0 -80 0
v -8 -80 0
v -8 -72 0
v 0 -72 0
v -8 -80 0
v -16 -80 0
v -16 -72 0
v -8 -72 0
v -16 -80 0
v -24 -80 0
v -24 -72 0
v -16 -72 0
v -24 -80 0
v -32 -80 0
v -32 -72 0
v -24 -72 0
v -32 -80 0
v -40 -80 0
v -40 -72 0
v -32 -72 0
v -40 -80 0
v -48 -80 0
v -48 -72 0
v -40 -72 0
v -48 -80 0
v -56 -80 0
v -56 -72 0
v -48 -72 0
v -56 -80 0
v -64 -80 0
v -64 -72 0
v -56 -72 0
v -64 -80 0
v -72 -80 0
v -72 -72 0
v -64 -72 0
v -72 -80 0
v -80 -80 0
v -80 -72 0
v -72 -72 0
v -80 -80 0
v -88 -80 0
v -88 -72 0
v -80 -72 0
v -88 -80 0
v -96 -80 0
v -96 -72 0
v -88 -72 0
v -96 -80 0
v -104 -80 0
v -104 -72 0
v -96 -72 0
v -104 -80 0
v -112 -80 0
v -112 -72 0
v -104 -72 0
v -112 -80 0
v -120 -80 0
v -120 -72 0
v -112 -72 0
v -120 -80 0
v -128 -80 0
v -128 -72 0
v -120 -72 0
v 0 -88 0
v -8 -88 0
v -8 -80 0
v 0 -80 0
v -8 -88 0
v -16 -88 0
v -16 -80 0
v -8 -80 0
v -16 -88 0
v -24 -88 0
v -24 -80 0
v -16 -80 0
v -24 -88 0
v -32 -88 0
v -32 -80 0
v -24 -80 0
v -32 -88 0
v -40 -88 0
v -40 -80 0
v -32 -80 0
v -40 -88 0
v -48 -88 0
v -48 -80 0
v -40 -80 0
v -48 -88 0
v -56 -88 0
v -56 -80 0
v -48 -80 0
v -56 -88 0
v -64 -88 0
v -64 -80 0
v -56 -80 0
v -64 -88 0
v -72 -88 0
v -72 -80 0
v -64 -80 0
v -72 -88 0
v -80 -88 0
v -80 -80 0
v -72 -80 0
v -80 -88 0
v -88 -88 0
v -88 -80 0
v -80 -80 0
v -88 -88 0
v -96 -88 0
v -96 -80 0
v -88 -80 0
v -96 -88 0
v -104 -88 0
v -104 -80 0
v -96 -80 0
v -104 -88 0
v -112 -88 0
v -112 -80 0
v -104 -80 0
v -112 -88 0
v -120 -88 0
v -120 -80 0
v -112 -80 0
v -120 -88 0
v -128 -88 0
v -128 -80 0
v -120 -80 0
v 0 -96 0
v -8 -96 0
v -8 -88 0
v 0 -88 0
v -8 -96 0
v -16 -96 0
v -16 -88 0
v -8 -88 0
v -16 -96 0
v -24 -96 0
v -24 -88 0
v -16 -88 0
v -24 -96 0
v -32 -96 0
v -32 -88 0
v -24 -88 0
v -32 -96 0
v -40 -96 0
v -40 -88 0
v -32 -88 0
v -40 -96 0
v -48 -96 0
v -48 -88 0
v -40 -88 0
v -48 -96 0
v -56 -96 0
v -56 -88 0
v -48 -88 0
v -56 -96 0
v -64 -96 0
v -64 -88 0
v -56 -88 0
v -64 -96 0
v -72 -96 0
v -72 -88 0
v -64 -88 0
v -72 -96 0
v -80 -96 0
v -80 -88 0
v -72 -88 0
v -80 -96 0
v -88 -96 0
v -88 -88 0
v -80 -88 0
v -88 -96 0
v -96 -96 0
v -96 -88 0
v -88 -88 0
v -96 -96 0
v -104 -96 0
v -104 -88 0
v -96 -88 0
v -104 -96 0
v -112 -96 0
v -112 -88 0
v -104 -88 0
v -112 -96 0
v -120 -96 0
v -120 -88 0
v -112 -88 0
v -120 -96 0
v -128 -96 0
v -128 -88 0
v -120 -88 0
v 0 -104 0
v -8 -104 0
v -8 -96 0
v 0 -96 0
v -8 -104 0
v -16 -104 0
v -16 -96 0
v -8 -96 0
v -16 -104 0
v -24 -104 0
v -24 -96 0
v -16 -96 0
v -24 -104 0
v -32 -104 0
v -32 -96 0
v -24 -96 0
v -32 -104 0
v -40 -104 0
v -40 -96 0
v -32 -96 0
v -40 -104 0
v -48 -104 0
v -48 -96 0
v -40 -96 0
v -48 -104 0
v -56 -104 0
v -56 -96 0
v -48 -96 0
v -56 -104 0
v -64 -104 0
v -64 -96 0
v -56 -96 0
v -64 -104 0
v -72 -104 0
v -72 -96 0
v -64 -96 0
v -72 -104 0
v -80 -104 0
v -80 -96 0
v -72 -96 0
v -80 -104 0
v -88 -104 0
v -88 -96 0
v -80 -96 0
v -88 -104 0
v -96 -104 0
v -96 -96 0
v -88 -96 0
v -96 -104 0
v -104 -104 0
v -104 -96 0
v -96 -96 0
v -104 -104 0
v -112 -104 0
v -112 -96 0
v -104 -96 0
v -112 -104 0
v -120 -104 0
v -120 -96 0
v -112 -96 0
v -120 -104 0
v -128 -104 0
v -128 -96 0
v -120 -96 0
v 0 -112 0
v -8 -112 0
v -8 -104 0
v 0 -104 0
v -8 -112 0
v -16 -112 0
v -16 -104 0
v -8 -104 0
v -16 -112 0
v -24 -112 0
v -24 -104 0
v -16 -104 0
v -24 -112 0
v -32 -112 0
v -32 -104 0
v -24 -104 0
v -32 -112 0
v -40 -112 0
v -40 -104 0
v -32 -104 0
v -40 -112 0
v -48 -112 0
v -48 -104 0
v -40 -104 0
v -48 -112 0
v -56 -112 0
v -56 -104 0
v -48 -104 0
v -56 -112 0
v -64 -112 0
v -64 -104 0
v -56 -104 0
v -64 -112 0
v -72 -112 0
v -72 -104 0
v -64 -104 0
v -72 -112 0
v -80 -112 0
v -80 -104 0
v -72 -104 0
v -80 -112 0
v -88 -112 0
v -88 -104 0
v -80 -104 0
v -88 -112 0
v -96 -112 0
v -96 -104 0
v -88 -104 0
v -96 -112 0
v -104 -112 0
v -104 -104 0
v -96 -104 0
v -104 -112 0
v -112 -112 0
v -112 -104 0
v -104 -104 0
v -112 -112 0
v -120 -112 0
v -120 -104 0
v -112 -104 0
v -120 -112 0
v -128 -112 0
v -128 -104 0
v -120 -104 0
v 0 -120 0
v -8 -120 0
v -8 -112 0
v 0 -112 0
v -8 -120 0
v -16 -120 0
v -16 -112 0
v -8 -112 0
v -16 -120 0
v -24 -120 0
v -24 -112 0
v -16 -112 0
v -24 -120 0
v -32 -120 0
v -32 -112 0
v -24 -112 0
v -32 -120 0
v -40 -120 0
v -40 -112 0
v -32 -112 0
v -40 -120 0
v -48 -120 0
v -48 -112 0
v -40 -112 0
v -48 -120 0
v -56 -120 0
v -56 -112 0
v -48 -112 0
v -56 -120 0
v -64 -120 0
v -64 -112 0
v -56 -112 0
v -64 -120 0
v -72 -120 0
v -72 -112 0
v -64 -112 0
v -72 -120 0
v -80 -120 0
v -80 -112 0
v -72 -112 0
v -80 -120 0
v -88 -120 0
v -88 -112 0
v -80 -112 0
v -88 -120 0
v -96 -120 0
v -96 -112 0
v -88 -112 0
v -96 -120 0
v -104 -120 0
v -104 -112 0
v -96 -112 0
v -104 -120 0
v -112 -120 0
v -112 -112 0
v -104 -112 0
v -112 -120 0
v -120 -120 0
v -120 -112 0
v -112 -112 0
v -120 -120 0
v -128 -120 0
v -128 -112 0
v -120 -112 0
v 0 -128 0
v -8 -128 0
v -8 -120 0
v 0 -120 0
v -8 -128 0
v -16 -128 0
v -16 -120 0
v -8 -120 0
v -16 -128 0
v -24 -128 0
v -24 -120 0
v -16 -120 0
v -24 -128 0
v -32 -128 0
v -32 -120 0
v -24 -120 0
v -32 -128 0
v -40 -128 0
v -40 -120 0
v -32 -120 0
v -40 -128 0
v -48 -128 0
v -48 -120 0
v -40 -120 0
v -48 -128 0
v -56 -128 0
v -56 -120 0
v -48 -120 0
v -56 -128 0
v -64 -128 0
v -64 -120 0
v -56 -120 0
v -64 -128 0
v -72 -128 0
v -72 -120 0
v -64 -120 0
v -72 -128 0
v -80 -128 0
v -80 -120 0
v -72 -120 0
v -80 -128 0
v -88 -128 0
v -88 -120 0
v -80 -120 0
v -88 -128 0
v -96 -128 0
v -96 -120 0
v -88 -120 0
v -96 -128 0
v -104 -128 0
v -104 -120 0
v -96 -120 0
v -104 -128 0
v -112 -128 0
v -112 -120 0
v -104 -120 0
v -112 -128 0
v -120 -128 0
v -120 -120 0
v -112 -120 0
v -120 -128 0
v -128 -128 0
v -128 -120 0
v -120 -120 0

# Texture cooridinates (Count = 104)
vt 0.4411765 0.8877551
vt 0.4558823 0.8877551
vt 0.4558823 0.8979592
vt 0.4411765 0.8979592
vt 0.4264706 0.8979592
vt 0.4411765 0.9081632
vt 0.4264706 0.9081632
vt 0.2647059 0.8877551
vt 0.2794118 0.8877551
vt 0.2794118 0.8979592
vt 0.2647059 0.8979592
vt 0.2941177 0.8877551
vt 0.2941177 0.8979592
vt 0.4705882 0.8877551
vt 0.4852941 0.8877551
vt 0.4852941 0.8979592
vt 0.4705882 0.8979592
vt 0.5 0.8877551
vt 0.5 0.8979592
vt 0.5147059 0.8877551
vt 0.5147059 0.8979592
vt 0.5294118 0.8877551
vt 0.5294118 0.8979592
vt 0.5441176 0.8877551
vt 0.5441176 0.8979592
vt 0.5147059 0.9081632
vt 0.5 0.9081632
vt 0.5294118 0.9081632
vt 0.5441176 0.9081632
vt 0.5588235 0.8877551
vt 0.5588235 0.8979592
vt 0.5735294 0.8877551
vt 0.5735294 0.8979592
vt 0.4264706 0.8877551
vt 0.2647059 0.877551
vt 0.2794118 0.877551
vt 0.2941177 0.877551
vt 0.4705882 0.877551
vt 0.4852941 0.877551
vt 0.5 0.877551
vt 0.5147059 0.877551
vt 0.5294118 0.877551
vt 0.5441176 0.877551
vt 0.5588235 0.877551
vt 0.5735294 0.877551
vt 0.4705882 0.8673469
vt 0.4852941 0.8673469
vt 0.5 0.8673469
vt 0.5147059 0.8673469
vt 0.5294118 0.8673469
vt 0.5441176 0.8673469
vt 0.5588235 0.8673469
vt 0.5735294 0.8673469
vt 0.4558823 0.9081632
vt 0.4705882 0.8571429
vt 0.4852941 0.8571429
vt 0.5 0.8571429
vt 0.5147059 0.8571429
vt 0.5294118 0.8571429
vt 0.5441176 0.8571429
vt 0.5588235 0.8571429
vt 0.5735294 0.8571429
vt 0.4705882 0.8469388
vt 0.4852941 0.8469388
vt 0.5 0.8469388
vt 0.5147059 0.8469388
vt 0.5294118 0.8469388
vt 0.5441176 0.8469388
vt 0.5588235 0.8469388
vt 0.5735294 0.8469388
vt 0.4705882 0.8367347
vt 0.4852941 0.8367347
vt 0.5 0.8367347
vt 0.5147059 0.8367347
vt 0.5294118 0.8367347
vt 0.5441176 0.8367347
vt 0.5588235 0.8367347
vt 0.5735294 0.8367347
vt 0.5882353 0.8367347
vt 0.5882353 0.8469388
vt 0.3676471 0.755102
vt 0.3676471 0.744898
vt 0.3823529 0.744898
vt 0.3823529 0.755102
vt 0.3676471 0.7346939
vt 0.3823529 0.7346939
vt 0.3529412 0.755102
vt 0.3529412 0.744898
vt 0.3529412 0.7346939
vt 0.5588235 0.7857143
vt 0.5735294 0.7857143
vt 0.5735294 0.7959183
vt 0.5588235 0.7959183
vt 0.5882353 0.7857143
vt 0.5882353 0.7959183
vt 0.5588235 0.7755102
vt 0.5735294 0.7755102
vt 0.5882353 0.7755102
vt 0.4411765 0.9489796
vt 0.4558823 0.9489796
vt 0.4558823 0.9591837
vt 0.4411765 0.9591837
vt 0.4705882 0.9489796
vt 0.4705882 0.9591837

# Normal
vn 0 0 -1

# Mesh description
g Rogue_mesh_0007

# Faces
f 1/1/1 2/2/1 3/3/1 4/4/1
f 5/5/1 6/4/1 7/6/1 8/7/1
f 9/5/1 10/4/1 11/6/1 12/7/1
f 13/8/1 14/9/1 15/10/1 16/11/1
f 17/9/1 18/12/1 19/13/1 20/10/1
f 21/14/1 22/15/1 23/16/1 24/17/1
f 25/15/1 26/18/1 27/19/1 28/16/1
f 29/18/1 30/20/1 31/21/1 32/19/1
f 33/20/1 34/22/1 35/23/1 36/21/1
f 37/22/1 38/24/1 39/25/1 40/23/1
f 41/22/1 42/24/1 43/25/1 44/23/1
f 45/19/1 46/21/1 47/26/1 48/27/1
f 49/21/1 50/23/1 51/28/1 52/26/1
f 53/23/1 54/25/1 55/29/1 56/28/1
f 57/24/1 58/30/1 59/31/1 60/25/1
f 61/30/1 62/32/1 63/33/1 64/31/1
f 65/5/1 66/4/1 67/6/1 68/7/1
f 69/34/1 70/1/1 71/4/1 72/5/1
f 73/34/1 74/1/1 75/4/1 76/5/1
f 77/35/1 78/36/1 79/9/1 80/8/1
f 81/36/1 82/37/1 83/12/1 84/9/1
f 85/38/1 86/39/1 87/15/1 88/14/1
f 89/39/1 90/40/1 91/18/1 92/15/1
f 93/40/1 94/41/1 95/20/1 96/18/1
f 97/41/1 98/42/1 99/22/1 100/20/1
f 101/42/1 102/43/1 103/24/1 104/22/1
f 105/40/1 106/41/1 107/20/1 108/18/1
f 109/40/1 110/41/1 111/20/1 112/18/1
f 113/40/1 114/41/1 115/20/1 116/18/1
f 117/40/1 118/41/1 119/20/1 120/18/1
f 121/43/1 122/44/1 123/30/1 124/24/1
f 125/44/1 126/45/1 127/32/1 128/30/1
f 129/34/1 130/1/1 131/4/1 132/5/1
f 133/34/1 134/1/1 135/4/1 136/5/1
f 137/1/1 138/2/1 139/3/1 140/4/1
f 141/8/1 142/9/1 143/10/1 144/11/1
f 145/9/1 146/12/1 147/13/1 148/10/1
f 149/46/1 150/47/1 151/39/1 152/38/1
f 153/47/1 154/48/1 155/40/1 156/39/1
f 157/48/1 158/49/1 159/41/1 160/40/1
f 161/49/1 162/50/1 163/42/1 164/41/1
f 165/50/1 166/51/1 167/43/1 168/42/1
f 169/51/1 170/52/1 171/44/1 172/43/1
f 173/50/1 174/51/1 175/43/1 176/42/1
f 177/51/1 178/52/1 179/44/1 180/43/1
f 181/50/1 182/51/1 183/43/1 184/42/1
f 185/51/1 186/52/1 187/44/1 188/43/1
f 189/52/1 190/53/1 191/45/1 192/44/1
f 193/4/1 194/3/1 195/54/1 196/6/1
f 197/4/1 198/3/1 199/54/1 200/6/1
f 201/1/1 202/2/1 203/3/1 204/4/1
f 205/35/1 206/36/1 207/9/1 208/8/1
f 209/36/1 210/37/1 211/12/1 212/9/1
f 213/55/1 214/56/1 215/47/1 216/46/1
f 217/56/1 218/57/1 219/48/1 220/47/1
f 221/57/1 222/58/1 223/49/1 224/48/1
f 225/58/1 226/59/1 227/50/1 228/49/1
f 229/59/1 230/60/1 231/51/1 232/50/1
f 233/60/1 234/61/1 235/52/1 236/51/1
f 237/59/1 238/60/1 239/51/1 240/50/1
f 241/60/1 242/61/1 243/52/1 244/51/1
f 245/59/1 246/60/1 247/51/1 248/50/1
f 249/60/1 250/61/1 251/52/1 252/51/1
f 253/61/1 254/62/1 255/53/1 256/52/1
f 257/1/1 258/2/1 259/3/1 260/4/1
f 261/1/1 262/2/1 263/3/1 264/4/1
f 265/5/1 266/4/1 267/6/1 268/7/1
f 269/8/1 270/9/1 271/10/1 272/11/1
f 273/9/1 274/12/1 275/13/1 276/10/1
f 277/63/1 278/64/1 279/56/1 280/55/1
f 281/64/1 282/65/1 283/57/1 284/56/1
f 285/65/1 286/66/1 287/58/1 288/57/1
f 289/66/1 290/67/1 291/59/1 292/58/1
f 293/67/1 294/68/1 295/60/1 296/59/1
f 297/68/1 298/69/1 299/61/1 300/60/1
f 301/67/1 302/68/1 303/60/1 304/59/1
f 305/68/1 306/69/1 307/61/1 308/60/1
f 309/68/1 310/69/1 311/61/1 312/60/1
f 313/67/1 314/68/1 315/60/1 316/59/1
f 317/69/1 318/70/1 319/62/1 320/61/1
f 321/34/1 322/1/1 323/4/1 324/5/1
f 325/34/1 326/1/1 327/4/1 328/5/1
f 329/5/1 330/4/1 331/6/1 332/7/1
f 333/35/1 334/36/1 335/9/1 336/8/1
f 337/36/1 338/37/1 339/12/1 340/9/1
f 341/71/1 342/72/1 343/64/1 344/63/1
f 345/72/1 346/73/1 347/65/1 348/64/1
f 349/73/1 350/74/1 351/66/1 352/65/1
f 353/74/1 354/75/1 355/67/1 356/66/1
f 357/75/1 358/76/1 359/68/1 360/67/1
f 361/76/1 362/77/1 363/69/1 364/68/1
f 365/77/1 366/78/1 367/70/1 368/69/1
f 369/78/1 370/79/1 371/80/1 372/70/1
f 373/76/1 374/77/1 375/69/1 376/68/1
f 377/77/1 378/78/1 379/70/1 380/69/1
f 381/78/1 382/79/1 383/80/1 384/70/1
f 385/1/1 386/2/1 387/3/1 388/4/1
f 389/5/1 390/4/1 391/6/1 392/7/1
f 393/34/1 394/1/1 395/4/1 396/5/1
f 397/8/1 398/9/1 399/10/1 400/11/1
f 401/9/1 402/12/1 403/13/1 404/10/1
f 405/8/1 406/9/1 407/10/1 408/11/1
f 409/9/1 410/12/1 411/13/1 412/10/1
f 413/8/1 414/9/1 415/10/1 416/11/1
f 417/9/1 418/12/1 419/13/1 420/10/1
f 421/8/1 422/9/1 423/10/1 424/11/1
f 425/9/1 426/12/1 427/13/1 428/10/1
f 429/8/1 430/9/1 431/10/1 432/11/1
f 433/9/1 434/12/1 435/13/1 436/10/1
f 437/8/1 438/9/1 439/10/1 440/11/1
f 441/9/1 442/12/1 443/13/1 444/10/1
f 445/8/1 446/9/1 447/10/1 448/11/1
f 449/5/1 450/4/1 451/6/1 452/7/1
f 453/5/1 454/4/1 455/6/1 456/7/1
f 457/34/1 458/1/1 459/4/1 460/5/1
f 461/35/1 462/36/1 463/9/1 464/8/1
f 465/36/1 466/37/1 467/12/1 468/9/1
f 469/35/1 470/36/1 471/9/1 472/8/1
f 473/36/1 474/37/1 475/12/1 476/9/1
f 477/35/1 478/36/1 479/9/1 480/8/1
f 481/36/1 482/37/1 483/12/1 484/9/1
f 485/35/1 486/36/1 487/9/1 488/8/1
f 489/36/1 490/37/1 491/12/1 492/9/1
f 493/35/1 494/36/1 495/9/1 496/8/1
f 497/36/1 498/37/1 499/12/1 500/9/1
f 501/35/1 502/36/1 503/9/1 504/8/1
f 505/36/1 506/37/1 507/12/1 508/9/1
f 509/35/1 510/36/1 511/9/1 512/8/1
f 513/34/1 514/1/1 515/4/1 516/5/1
f 517/34/1 518/1/1 519/4/1 520/5/1
f 521/1/1 522/2/1 523/3/1 524/4/1
f 525/5/1 526/4/1 527/6/1 528/7/1
f 529/34/1 530/1/1 531/4/1 532/5/1
f 533/81/1 534/82/1 535/83/1 536/84/1
f 537/82/1 538/85/1 539/86/1 540/83/1
f 541/5/1 542/4/1 543/6/1 544/7/1
f 545/4/1 546/3/1 547/54/1 548/6/1
f 549/1/1 550/2/1 551/3/1 552/4/1
f 553/4/1 554/3/1 555/54/1 556/6/1
f 557/4/1 558/3/1 559/54/1 560/6/1
f 561/4/1 562/3/1 563/54/1 564/6/1
f 565/5/1 566/4/1 567/6/1 568/7/1
f 569/4/1 570/3/1 571/54/1 572/6/1
f 573/1/1 574/2/1 575/3/1 576/4/1
f 577/34/1 578/1/1 579/4/1 580/5/1
f 581/1/1 582/2/1 583/3/1 584/4/1
f 585/1/1 586/2/1 587/3/1 588/4/1
f 589/34/1 590/1/1 591/4/1 592/5/1
f 593/34/1 594/1/1 595/4/1 596/5/1
f 597/87/1 598/88/1 599/82/1 600/81/1
f 601/88/1 602/89/1 603/85/1 604/82/1
f 605/4/1 606/3/1 607/54/1 608/6/1
f 609/1/1 610/2/1 611/3/1 612/4/1
f 613/1/1 614/2/1 615/3/1 616/4/1
f 617/1/1 618/2/1 619/3/1 620/4/1
f 621/1/1 622/2/1 623/3/1 624/4/1
f 625/1/1 626/2/1 627/3/1 628/4/1
f 629/4/1 630/3/1 631/54/1 632/6/1
f 633/1/1 634/2/1 635/3/1 636/4/1
f 637/1/1 638/2/1 639/3/1 640/4/1
f 641/5/1 642/4/1 643/6/1 644/7/1
f 645/5/1 646/4/1 647/6/1 648/7/1
f 649/4/1 650/3/1 651/54/1 652/6/1
f 653/4/1 654/3/1 655/54/1 656/6/1
f 657/1/1 658/2/1 659/3/1 660/4/1
f 661/1/1 662/2/1 663/3/1 664/4/1
f 665/5/1 666/4/1 667/6/1 668/7/1
f 669/4/1 670/3/1 671/54/1 672/6/1
f 673/1/1 674/2/1 675/3/1 676/4/1
f 677/4/1 678/3/1 679/54/1 680/6/1
f 681/4/1 682/3/1 683/54/1 684/6/1
f 685/1/1 686/2/1 687/3/1 688/4/1
f 689/1/1 690/2/1 691/3/1 692/4/1
f 693/4/1 694/3/1 695/54/1 696/6/1
f 697/1/1 698/2/1 699/3/1 700/4/1
f 701/1/1 702/2/1 703/3/1 704/4/1
f 705/4/1 706/3/1 707/54/1 708/6/1
f 709/4/1 710/3/1 711/54/1 712/6/1
f 713/4/1 714/3/1 715/54/1 716/6/1
f 717/1/1 718/2/1 719/3/1 720/4/1
f 721/4/1 722/3/1 723/54/1 724/6/1
f 725/1/1 726/2/1 727/3/1 728/4/1
f 729/4/1 730/3/1 731/54/1 732/6/1
f 733/1/1 734/2/1 735/3/1 736/4/1
f 737/1/1 738/2/1 739/3/1 740/4/1
f 741/4/1 742/3/1 743/54/1 744/6/1
f 745/1/1 746/2/1 747/3/1 748/4/1
f 749/1/1 750/2/1 751/3/1 752/4/1
f 753/4/1 754/3/1 755/54/1 756/6/1
f 757/1/1 758/2/1 759/3/1 760/4/1
f 761/1/1 762/2/1 763/3/1 764/4/1
f 765/5/1 766/4/1 767/6/1 768/7/1
f 769/1/1 770/2/1 771/3/1 772/4/1
f 773/1/1 774/2/1 775/3/1 776/4/1
f 777/1/1 778/2/1 779/3/1 780/4/1
f 781/1/1 782/2/1 783/3/1 784/4/1
f 785/1/1 786/2/1 787/3/1 788/4/1
f 789/1/1 790/2/1 791/3/1 792/4/1
f 793/4/1 794/3/1 795/54/1 796/6/1
f 797/1/1 798/2/1 799/3/1 800/4/1
f 801/4/1 802/3/1 803/54/1 804/6/1
f 805/1/1 806/2/1 807/3/1 808/4/1
f 809/1/1 810/2/1 811/3/1 812/4/1
f 813/1/1 814/2/1 815/3/1 816/4/1
f 817/4/1 818/3/1 819/54/1 820/6/1
f 821/34/1 822/1/1 823/4/1 824/5/1
f 825/1/1 826/2/1 827/3/1 828/4/1
f 829/5/1 830/4/1 831/6/1 832/7/1
f 833/34/1 834/1/1 835/4/1 836/5/1
f 837/34/1 838/1/1 839/4/1 840/5/1
f 841/1/1 842/2/1 843/3/1 844/4/1
f 845/4/1 846/3/1 847/54/1 848/6/1
f 849/1/1 850/2/1 851/3/1 852/4/1
f 853/4/1 854/3/1 855/54/1 856/6/1
f 857/1/1 858/2/1 859/3/1 860/4/1
f 861/1/1 862/2/1 863/3/1 864/4/1
f 865/1/1 866/2/1 867/3/1 868/4/1
f 869/1/1 870/2/1 871/3/1 872/4/1
f 873/34/1 874/1/1 875/4/1 876/5/1
f 877/1/1 878/2/1 879/3/1 880/4/1
f 881/1/1 882/2/1 883/3/1 884/4/1
f 885/1/1 886/2/1 887/3/1 888/4/1
f 889/90/1 890/91/1 891/92/1 892/93/1
f 893/91/1 894/94/1 895/95/1 896/92/1
f 897/4/1 898/3/1 899/54/1 900/6/1
f 901/4/1 902/3/1 903/54/1 904/6/1
f 905/4/1 906/3/1 907/54/1 908/6/1
f 909/4/1 910/3/1 911/54/1 912/6/1
f 913/4/1 914/3/1 915/54/1 916/6/1
f 917/4/1 918/3/1 919/54/1 920/6/1
f 921/34/1 922/1/1 923/4/1 924/5/1
f 925/1/1 926/2/1 927/3/1 928/4/1
f 929/4/1 930/3/1 931/54/1 932/6/1
f 933/34/1 934/1/1 935/4/1 936/5/1
f 937/1/1 938/2/1 939/3/1 940/4/1
f 941/1/1 942/2/1 943/3/1 944/4/1
f 945/34/1 946/1/1 947/4/1 948/5/1
f 949/1/1 950/2/1 951/3/1 952/4/1
f 953/96/1 954/97/1 955/91/1 956/90/1
f 957/97/1 958/98/1 959/94/1 960/91/1
f 961/4/1 962/3/1 963/54/1 964/6/1
f 965/4/1 966/3/1 967/54/1 968/6/1
f 969/1/1 970/2/1 971/3/1 972/4/1
f 973/1/1 974/2/1 975/3/1 976/4/1
f 977/1/1 978/2/1 979/3/1 980/4/1
f 981/1/1 982/2/1 983/3/1 984/4/1
f 985/1/1 986/2/1 987/3/1 988/4/1
f 989/4/1 990/3/1 991/54/1 992/6/1
f 993/1/1 994/2/1 995/3/1 996/4/1
f 997/34/1 998/1/1 999/4/1 1000/5/1
f 1001/1/1 1002/2/1 1003/3/1 1004/4/1
f 1005/34/1 1006/1/1 1007/4/1 1008/5/1
f 1009/1/1 1010/2/1 1011/3/1 1012/4/1
f 1013/5/1 1014/4/1 1015/6/1 1016/7/1
f 1017/99/1 1018/100/1 1019/101/1 1020/102/1
f 1021/100/1 1022/103/1 1023/104/1 1024/101/1

