# Tiled2Unity generated file. Do not modify by hand.
# Wavefront file for 'Rogue_mesh_0001.obj'

# Vertices (Count = 960)
v 0 -16 0
v -8 -16 0
v -8 -8 0
v 0 -8 0
v -8 -16 0
v -16 -16 0
v -16 -8 0
v -8 -8 0
v -16 -16 0
v -24 -16 0
v -24 -8 0
v -16 -8 0
v -24 -16 0
v -32 -16 0
v -32 -8 0
v -24 -8 0
v -32 -16 0
v -40 -16 0
v -40 -8 0
v -32 -8 0
v -40 -16 0
v -48 -16 0
v -48 -8 0
v -40 -8 0
v -48 -16 0
v -56 -16 0
v -56 -8 0
v -48 -8 0
v -56 -16 0
v -64 -16 0
v -64 -8 0
v -56 -8 0
v -64 -16 0
v -72 -16 0
v -72 -8 0
v -64 -8 0
v -72 -16 0
v -80 -16 0
v -80 -8 0
v -72 -8 0
v -80 -16 0
v -88 -16 0
v -88 -8 0
v -80 -8 0
v -88 -16 0
v -96 -16 0
v -96 -8 0
v -88 -8 0
v -96 -16 0
v -104 -16 0
v -104 -8 0
v -96 -8 0
v -104 -16 0
v -112 -16 0
v -112 -8 0
v -104 -8 0
v -112 -16 0
v -120 -16 0
v -120 -8 0
v -112 -8 0
v -120 -16 0
v -128 -16 0
v -128 -8 0
v -120 -8 0
v 0 -24 0
v -8 -24 0
v -8 -16 0
v 0 -16 0
v -8 -24 0
v -16 -24 0
v -16 -16 0
v -8 -16 0
v -16 -24 0
v -24 -24 0
v -24 -16 0
v -16 -16 0
v -24 -24 0
v -32 -24 0
v -32 -16 0
v -24 -16 0
v -32 -24 0
v -40 -24 0
v -40 -16 0
v -32 -16 0
v -40 -24 0
v -48 -24 0
v -48 -16 0
v -40 -16 0
v -48 -24 0
v -56 -24 0
v -56 -16 0
v -48 -16 0
v -56 -24 0
v -64 -24 0
v -64 -16 0
v -56 -16 0
v -64 -24 0
v -72 -24 0
v -72 -16 0
v -64 -16 0
v -72 -24 0
v -80 -24 0
v -80 -16 0
v -72 -16 0
v -80 -24 0
v -88 -24 0
v -88 -16 0
v -80 -16 0
v -88 -24 0
v -96 -24 0
v -96 -16 0
v -88 -16 0
v -96 -24 0
v -104 -24 0
v -104 -16 0
v -96 -16 0
v -104 -24 0
v -112 -24 0
v -112 -16 0
v -104 -16 0
v -112 -24 0
v -120 -24 0
v -120 -16 0
v -112 -16 0
v -120 -24 0
v -128 -24 0
v -128 -16 0
v -120 -16 0
v 0 -32 0
v -8 -32 0
v -8 -24 0
v 0 -24 0
v -8 -32 0
v -16 -32 0
v -16 -24 0
v -8 -24 0
v -16 -32 0
v -24 -32 0
v -24 -24 0
v -16 -24 0
v -24 -32 0
v -32 -32 0
v -32 -24 0
v -24 -24 0
v -32 -32 0
v -40 -32 0
v -40 -24 0
v -32 -24 0
v -40 -32 0
v -48 -32 0
v -48 -24 0
v -40 -24 0
v -48 -32 0
v -56 -32 0
v -56 -24 0
v -48 -24 0
v -56 -32 0
v -64 -32 0
v -64 -24 0
v -56 -24 0
v -64 -32 0
v -72 -32 0
v -72 -24 0
v -64 -24 0
v -72 -32 0
v -80 -32 0
v -80 -24 0
v -72 -24 0
v -80 -32 0
v -88 -32 0
v -88 -24 0
v -80 -24 0
v -88 -32 0
v -96 -32 0
v -96 -24 0
v -88 -24 0
v -96 -32 0
v -104 -32 0
v -104 -24 0
v -96 -24 0
v -104 -32 0
v -112 -32 0
v -112 -24 0
v -104 -24 0
v -112 -32 0
v -120 -32 0
v -120 -24 0
v -112 -24 0
v -120 -32 0
v -128 -32 0
v -128 -24 0
v -120 -24 0
v 0 -40 0
v -8 -40 0
v -8 -32 0
v 0 -32 0
v -8 -40 0
v -16 -40 0
v -16 -32 0
v -8 -32 0
v -16 -40 0
v -24 -40 0
v -24 -32 0
v -16 -32 0
v -24 -40 0
v -32 -40 0
v -32 -32 0
v -24 -32 0
v -32 -40 0
v -40 -40 0
v -40 -32 0
v -32 -32 0
v -40 -40 0
v -48 -40 0
v -48 -32 0
v -40 -32 0
v -48 -40 0
v -56 -40 0
v -56 -32 0
v -48 -32 0
v -56 -40 0
v -64 -40 0
v -64 -32 0
v -56 -32 0
v -64 -40 0
v -72 -40 0
v -72 -32 0
v -64 -32 0
v -72 -40 0
v -80 -40 0
v -80 -32 0
v -72 -32 0
v -80 -40 0
v -88 -40 0
v -88 -32 0
v -80 -32 0
v -88 -40 0
v -96 -40 0
v -96 -32 0
v -88 -32 0
v -96 -40 0
v -104 -40 0
v -104 -32 0
v -96 -32 0
v -104 -40 0
v -112 -40 0
v -112 -32 0
v -104 -32 0
v -112 -40 0
v -120 -40 0
v -120 -32 0
v -112 -32 0
v -120 -40 0
v -128 -40 0
v -128 -32 0
v -120 -32 0
v 0 -48 0
v -8 -48 0
v -8 -40 0
v 0 -40 0
v -8 -48 0
v -16 -48 0
v -16 -40 0
v -8 -40 0
v -16 -48 0
v -24 -48 0
v -24 -40 0
v -16 -40 0
v -24 -48 0
v -32 -48 0
v -32 -40 0
v -24 -40 0
v -32 -48 0
v -40 -48 0
v -40 -40 0
v -32 -40 0
v -40 -48 0
v -48 -48 0
v -48 -40 0
v -40 -40 0
v -48 -48 0
v -56 -48 0
v -56 -40 0
v -48 -40 0
v -56 -48 0
v -64 -48 0
v -64 -40 0
v -56 -40 0
v -64 -48 0
v -72 -48 0
v -72 -40 0
v -64 -40 0
v -72 -48 0
v -80 -48 0
v -80 -40 0
v -72 -40 0
v -80 -48 0
v -88 -48 0
v -88 -40 0
v -80 -40 0
v -88 -48 0
v -96 -48 0
v -96 -40 0
v -88 -40 0
v -96 -48 0
v -104 -48 0
v -104 -40 0
v -96 -40 0
v -104 -48 0
v -112 -48 0
v -112 -40 0
v -104 -40 0
v -112 -48 0
v -120 -48 0
v -120 -40 0
v -112 -40 0
v -120 -48 0
v -128 -48 0
v -128 -40 0
v -120 -40 0
v 0 -56 0
v -8 -56 0
v -8 -48 0
v 0 -48 0
v -8 -56 0
v -16 -56 0
v -16 -48 0
v -8 -48 0
v -16 -56 0
v -24 -56 0
v -24 -48 0
v -16 -48 0
v -24 -56 0
v -32 -56 0
v -32 -48 0
v -24 -48 0
v -32 -56 0
v -40 -56 0
v -40 -48 0
v -32 -48 0
v -40 -56 0
v -48 -56 0
v -48 -48 0
v -40 -48 0
v -48 -56 0
v -56 -56 0
v -56 -48 0
v -48 -48 0
v -56 -56 0
v -64 -56 0
v -64 -48 0
v -56 -48 0
v -64 -56 0
v -72 -56 0
v -72 -48 0
v -64 -48 0
v -72 -56 0
v -80 -56 0
v -80 -48 0
v -72 -48 0
v -80 -56 0
v -88 -56 0
v -88 -48 0
v -80 -48 0
v -88 -56 0
v -96 -56 0
v -96 -48 0
v -88 -48 0
v -96 -56 0
v -104 -56 0
v -104 -48 0
v -96 -48 0
v -104 -56 0
v -112 -56 0
v -112 -48 0
v -104 -48 0
v -112 -56 0
v -120 -56 0
v -120 -48 0
v -112 -48 0
v -120 -56 0
v -128 -56 0
v -128 -48 0
v -120 -48 0
v 0 -64 0
v -8 -64 0
v -8 -56 0
v 0 -56 0
v -8 -64 0
v -16 -64 0
v -16 -56 0
v -8 -56 0
v -16 -64 0
v -24 -64 0
v -24 -56 0
v -16 -56 0
v -24 -64 0
v -32 -64 0
v -32 -56 0
v -24 -56 0
v -32 -64 0
v -40 -64 0
v -40 -56 0
v -32 -56 0
v -40 -64 0
v -48 -64 0
v -48 -56 0
v -40 -56 0
v -48 -64 0
v -56 -64 0
v -56 -56 0
v -48 -56 0
v -56 -64 0
v -64 -64 0
v -64 -56 0
v -56 -56 0
v -64 -64 0
v -72 -64 0
v -72 -56 0
v -64 -56 0
v -72 -64 0
v -80 -64 0
v -80 -56 0
v -72 -56 0
v -80 -64 0
v -88 -64 0
v -88 -56 0
v -80 -56 0
v -88 -64 0
v -96 -64 0
v -96 -56 0
v -88 -56 0
v -96 -64 0
v -104 -64 0
v -104 -56 0
v -96 -56 0
v -104 -64 0
v -112 -64 0
v -112 -56 0
v -104 -56 0
v -112 -64 0
v -120 -64 0
v -120 -56 0
v -112 -56 0
v -120 -64 0
v -128 -64 0
v -128 -56 0
v -120 -56 0
v 0 -72 0
v -8 -72 0
v -8 -64 0
v 0 -64 0
v -8 -72 0
v -16 -72 0
v -16 -64 0
v -8 -64 0
v -16 -72 0
v -24 -72 0
v -24 -64 0
v -16 -64 0
v -24 -72 0
v -32 -72 0
v -32 -64 0
v -24 -64 0
v -32 -72 0
v -40 -72 0
v -40 -64 0
v -32 -64 0
v -40 -72 0
v -48 -72 0
v -48 -64 0
v -40 -64 0
v -48 -72 0
v -56 -72 0
v -56 -64 0
v -48 -64 0
v -56 -72 0
v -64 -72 0
v -64 -64 0
v -56 -64 0
v -64 -72 0
v -72 -72 0
v -72 -64 0
v -64 -64 0
v -72 -72 0
v -80 -72 0
v -80 -64 0
v -72 -64 0
v -80 -72 0
v -88 -72 0
v -88 -64 0
v -80 -64 0
v -88 -72 0
v -96 -72 0
v -96 -64 0
v -88 -64 0
v -96 -72 0
v -104 -72 0
v -104 -64 0
v -96 -64 0
v -104 -72 0
v -112 -72 0
v -112 -64 0
v -104 -64 0
v -112 -72 0
v -120 -72 0
v -120 -64 0
v -112 -64 0
v -120 -72 0
v -128 -72 0
v -128 -64 0
v -120 -64 0
v 0 -80 0
v -8 -80 0
v -8 -72 0
v 0 -72 0
v -8 -80 0
v -16 -80 0
v -16 -72 0
v -8 -72 0
v -16 -80 0
v -24 -80 0
v -24 -72 0
v -16 -72 0
v -24 -80 0
v -32 -80 0
v -32 -72 0
v -24 -72 0
v -32 -80 0
v -40 -80 0
v -40 -72 0
v -32 -72 0
v -40 -80 0
v -48 -80 0
v -48 -72 0
v -40 -72 0
v -48 -80 0
v -56 -80 0
v -56 -72 0
v -48 -72 0
v -56 -80 0
v -64 -80 0
v -64 -72 0
v -56 -72 0
v -64 -80 0
v -72 -80 0
v -72 -72 0
v -64 -72 0
v -72 -80 0
v -80 -80 0
v -80 -72 0
v -72 -72 0
v -80 -80 0
v -88 -80 0
v -88 -72 0
v -80 -72 0
v -88 -80 0
v -96 -80 0
v -96 -72 0
v -88 -72 0
v -96 -80 0
v -104 -80 0
v -104 -72 0
v -96 -72 0
v -104 -80 0
v -112 -80 0
v -112 -72 0
v -104 -72 0
v -112 -80 0
v -120 -80 0
v -120 -72 0
v -112 -72 0
v -120 -80 0
v -128 -80 0
v -128 -72 0
v -120 -72 0
v 0 -88 0
v -8 -88 0
v -8 -80 0
v 0 -80 0
v -8 -88 0
v -16 -88 0
v -16 -80 0
v -8 -80 0
v -16 -88 0
v -24 -88 0
v -24 -80 0
v -16 -80 0
v -24 -88 0
v -32 -88 0
v -32 -80 0
v -24 -80 0
v -32 -88 0
v -40 -88 0
v -40 -80 0
v -32 -80 0
v -40 -88 0
v -48 -88 0
v -48 -80 0
v -40 -80 0
v -48 -88 0
v -56 -88 0
v -56 -80 0
v -48 -80 0
v -56 -88 0
v -64 -88 0
v -64 -80 0
v -56 -80 0
v -64 -88 0
v -72 -88 0
v -72 -80 0
v -64 -80 0
v -72 -88 0
v -80 -88 0
v -80 -80 0
v -72 -80 0
v -80 -88 0
v -88 -88 0
v -88 -80 0
v -80 -80 0
v -88 -88 0
v -96 -88 0
v -96 -80 0
v -88 -80 0
v -96 -88 0
v -104 -88 0
v -104 -80 0
v -96 -80 0
v -104 -88 0
v -112 -88 0
v -112 -80 0
v -104 -80 0
v -112 -88 0
v -120 -88 0
v -120 -80 0
v -112 -80 0
v -120 -88 0
v -128 -88 0
v -128 -80 0
v -120 -80 0
v 0 -96 0
v -8 -96 0
v -8 -88 0
v 0 -88 0
v -8 -96 0
v -16 -96 0
v -16 -88 0
v -8 -88 0
v -16 -96 0
v -24 -96 0
v -24 -88 0
v -16 -88 0
v -24 -96 0
v -32 -96 0
v -32 -88 0
v -24 -88 0
v -32 -96 0
v -40 -96 0
v -40 -88 0
v -32 -88 0
v -40 -96 0
v -48 -96 0
v -48 -88 0
v -40 -88 0
v -48 -96 0
v -56 -96 0
v -56 -88 0
v -48 -88 0
v -56 -96 0
v -64 -96 0
v -64 -88 0
v -56 -88 0
v -64 -96 0
v -72 -96 0
v -72 -88 0
v -64 -88 0
v -72 -96 0
v -80 -96 0
v -80 -88 0
v -72 -88 0
v -80 -96 0
v -88 -96 0
v -88 -88 0
v -80 -88 0
v -88 -96 0
v -96 -96 0
v -96 -88 0
v -88 -88 0
v -96 -96 0
v -104 -96 0
v -104 -88 0
v -96 -88 0
v -104 -96 0
v -112 -96 0
v -112 -88 0
v -104 -88 0
v -112 -96 0
v -120 -96 0
v -120 -88 0
v -112 -88 0
v -120 -96 0
v -128 -96 0
v -128 -88 0
v -120 -88 0
v 0 -104 0
v -8 -104 0
v -8 -96 0
v 0 -96 0
v -8 -104 0
v -16 -104 0
v -16 -96 0
v -8 -96 0
v -16 -104 0
v -24 -104 0
v -24 -96 0
v -16 -96 0
v -24 -104 0
v -32 -104 0
v -32 -96 0
v -24 -96 0
v -32 -104 0
v -40 -104 0
v -40 -96 0
v -32 -96 0
v -40 -104 0
v -48 -104 0
v -48 -96 0
v -40 -96 0
v -48 -104 0
v -56 -104 0
v -56 -96 0
v -48 -96 0
v -56 -104 0
v -64 -104 0
v -64 -96 0
v -56 -96 0
v -64 -104 0
v -72 -104 0
v -72 -96 0
v -64 -96 0
v -72 -104 0
v -80 -104 0
v -80 -96 0
v -72 -96 0
v -80 -104 0
v -88 -104 0
v -88 -96 0
v -80 -96 0
v -88 -104 0
v -96 -104 0
v -96 -96 0
v -88 -96 0
v -96 -104 0
v -104 -104 0
v -104 -96 0
v -96 -96 0
v -104 -104 0
v -112 -104 0
v -112 -96 0
v -104 -96 0
v -112 -104 0
v -120 -104 0
v -120 -96 0
v -112 -96 0
v -120 -104 0
v -128 -104 0
v -128 -96 0
v -120 -96 0
v 0 -112 0
v -8 -112 0
v -8 -104 0
v 0 -104 0
v -8 -112 0
v -16 -112 0
v -16 -104 0
v -8 -104 0
v -16 -112 0
v -24 -112 0
v -24 -104 0
v -16 -104 0
v -24 -112 0
v -32 -112 0
v -32 -104 0
v -24 -104 0
v -32 -112 0
v -40 -112 0
v -40 -104 0
v -32 -104 0
v -40 -112 0
v -48 -112 0
v -48 -104 0
v -40 -104 0
v -48 -112 0
v -56 -112 0
v -56 -104 0
v -48 -104 0
v -56 -112 0
v -64 -112 0
v -64 -104 0
v -56 -104 0
v -64 -112 0
v -72 -112 0
v -72 -104 0
v -64 -104 0
v -72 -112 0
v -80 -112 0
v -80 -104 0
v -72 -104 0
v -80 -112 0
v -88 -112 0
v -88 -104 0
v -80 -104 0
v -88 -112 0
v -96 -112 0
v -96 -104 0
v -88 -104 0
v -96 -112 0
v -104 -112 0
v -104 -104 0
v -96 -104 0
v -104 -112 0
v -112 -112 0
v -112 -104 0
v -104 -104 0
v -112 -112 0
v -120 -112 0
v -120 -104 0
v -112 -104 0
v -120 -112 0
v -128 -112 0
v -128 -104 0
v -120 -104 0
v 0 -120 0
v -8 -120 0
v -8 -112 0
v 0 -112 0
v -8 -120 0
v -16 -120 0
v -16 -112 0
v -8 -112 0
v -16 -120 0
v -24 -120 0
v -24 -112 0
v -16 -112 0
v -24 -120 0
v -32 -120 0
v -32 -112 0
v -24 -112 0
v -32 -120 0
v -40 -120 0
v -40 -112 0
v -32 -112 0
v -40 -120 0
v -48 -120 0
v -48 -112 0
v -40 -112 0
v -48 -120 0
v -56 -120 0
v -56 -112 0
v -48 -112 0
v -56 -120 0
v -64 -120 0
v -64 -112 0
v -56 -112 0
v -64 -120 0
v -72 -120 0
v -72 -112 0
v -64 -112 0
v -72 -120 0
v -80 -120 0
v -80 -112 0
v -72 -112 0
v -80 -120 0
v -88 -120 0
v -88 -112 0
v -80 -112 0
v -88 -120 0
v -96 -120 0
v -96 -112 0
v -88 -112 0
v -96 -120 0
v -104 -120 0
v -104 -112 0
v -96 -112 0
v -104 -120 0
v -112 -120 0
v -112 -112 0
v -104 -112 0
v -112 -120 0
v -120 -120 0
v -120 -112 0
v -112 -112 0
v -120 -120 0
v -128 -120 0
v -128 -112 0
v -120 -112 0
v 0 -128 0
v -8 -128 0
v -8 -120 0
v 0 -120 0
v -8 -128 0
v -16 -128 0
v -16 -120 0
v -8 -120 0
v -16 -128 0
v -24 -128 0
v -24 -120 0
v -16 -120 0
v -24 -128 0
v -32 -128 0
v -32 -120 0
v -24 -120 0
v -32 -128 0
v -40 -128 0
v -40 -120 0
v -32 -120 0
v -40 -128 0
v -48 -128 0
v -48 -120 0
v -40 -120 0
v -48 -128 0
v -56 -128 0
v -56 -120 0
v -48 -120 0
v -56 -128 0
v -64 -128 0
v -64 -120 0
v -56 -120 0
v -64 -128 0
v -72 -128 0
v -72 -120 0
v -64 -120 0
v -72 -128 0
v -80 -128 0
v -80 -120 0
v -72 -120 0
v -80 -128 0
v -88 -128 0
v -88 -120 0
v -80 -120 0
v -88 -128 0
v -96 -128 0
v -96 -120 0
v -88 -120 0
v -96 -128 0
v -104 -128 0
v -104 -120 0
v -96 -120 0
v -104 -128 0
v -112 -128 0
v -112 -120 0
v -104 -120 0
v -112 -128 0
v -120 -128 0
v -120 -120 0
v -112 -120 0
v -120 -128 0
v -128 -128 0
v -128 -120 0
v -120 -120 0

# Texture cooridinates (Count = 107)
vt 0.2058824 0.9693878
vt 0.2205882 0.9693878
vt 0.2205882 0.9795918
vt 0.2058824 0.9795918
vt 0.2352941 0.9693878
vt 0.2352941 0.9795918
vt 0.25 0.9693878
vt 0.25 0.9795918
vt 0.2647059 0.9693878
vt 0.2647059 0.9795918
vt 0.4117647 0.9693878
vt 0.4264706 0.9693878
vt 0.4264706 0.9795918
vt 0.4117647 0.9795918
vt 0.2794118 0.9693878
vt 0.2941177 0.9693878
vt 0.2941177 0.9795918
vt 0.2794118 0.9795918
vt 0.3235294 0.9693878
vt 0.3382353 0.9693878
vt 0.3382353 0.9795918
vt 0.3235294 0.9795918
vt 0.3529412 0.9693878
vt 0.3529412 0.9795918
vt 0.2058824 0.9591837
vt 0.2205882 0.9591837
vt 0.2352941 0.9591837
vt 0.25 0.9591837
vt 0.2647059 0.9591837
vt 0.4117647 0.9591837
vt 0.4264706 0.9591837
vt 0.2794118 0.9591837
vt 0.2941177 0.9591837
vt 0.3235294 0.9591837
vt 0.3382353 0.9591837
vt 0.3529412 0.9591837
vt 0.2058824 0.9489796
vt 0.2205882 0.9489796
vt 0.2352941 0.9489796
vt 0.25 0.9489796
vt 0.2647059 0.9489796
vt 0.4117647 0.9489796
vt 0.4264706 0.9489796
vt 0.4411765 0.9489796
vt 0.4411765 0.9591837
vt 0.3823529 0.9489796
vt 0.3970588 0.9489796
vt 0.3970588 0.9591837
vt 0.3823529 0.9591837
vt 0.2058824 0.9387755
vt 0.2205882 0.9387755
vt 0.2352941 0.9387755
vt 0.25 0.9387755
vt 0.2647059 0.9387755
vt 0.4117647 0.9387755
vt 0.4264706 0.9387755
vt 0.4411765 0.9387755
vt 0.3823529 0.9387755
vt 0.3970588 0.9387755
vt 0.2058824 0.9285714
vt 0.2205882 0.9285714
vt 0.2352941 0.9285714
vt 0.25 0.9285714
vt 0.4117647 0.9285714
vt 0.4264706 0.9285714
vt 0.4411765 0.9285714
vt 0.4558823 0.9285714
vt 0.4558823 0.9387755
vt 0.4705882 0.9285714
vt 0.4705882 0.9387755
vt 0.2058824 0.9183673
vt 0.2205882 0.9183673
vt 0.2352941 0.9183673
vt 0.25 0.9183673
vt 0.4411765 0.8877551
vt 0.4558823 0.8877551
vt 0.4558823 0.8979592
vt 0.4411765 0.8979592
vt 0.4264706 0.8979592
vt 0.4411765 0.9081632
vt 0.4264706 0.9081632
vt 0.4558823 0.9081632
vt 0.4264706 0.8877551
vt 0.2058824 0.9081632
vt 0.2205882 0.9081632
vt 0.2352941 0.9081632
vt 0.25 0.9081632
vt 0.2058824 0.8979592
vt 0.2205882 0.8979592
vt 0.2352941 0.8979592
vt 0.25 0.8979592
vt 0.2058824 0.8877551
vt 0.2205882 0.8877551
vt 0.2352941 0.8877551
vt 0.25 0.8877551
vt 0.2058824 0.755102
vt 0.2205882 0.755102
vt 0.2205882 0.7653061
vt 0.2058824 0.7653061
vt 0.2352941 0.755102
vt 0.2352941 0.7653061
vt 0.2058824 0.744898
vt 0.2205882 0.744898
vt 0.2352941 0.744898
vt 0.2058824 0.7346939
vt 0.2205882 0.7346939
vt 0.2352941 0.7346939

# Normal
vn 0 0 -1

# Mesh description
g Rogue_mesh_0001

# Faces
f 1/1/1 2/2/1 3/3/1 4/4/1
f 5/2/1 6/5/1 7/6/1 8/3/1
f 9/5/1 10/7/1 11/8/1 12/6/1
f 13/7/1 14/9/1 15/10/1 16/8/1
f 17/11/1 18/12/1 19/13/1 20/14/1
f 21/15/1 22/16/1 23/17/1 24/18/1
f 25/11/1 26/12/1 27/13/1 28/14/1
f 29/15/1 30/16/1 31/17/1 32/18/1
f 33/11/1 34/12/1 35/13/1 36/14/1
f 37/15/1 38/16/1 39/17/1 40/18/1
f 41/11/1 42/12/1 43/13/1 44/14/1
f 45/15/1 46/16/1 47/17/1 48/18/1
f 49/19/1 50/20/1 51/21/1 52/22/1
f 53/15/1 54/16/1 55/17/1 56/18/1
f 57/19/1 58/20/1 59/21/1 60/22/1
f 61/20/1 62/23/1 63/24/1 64/21/1
f 65/25/1 66/26/1 67/2/1 68/1/1
f 69/26/1 70/27/1 71/5/1 72/2/1
f 73/27/1 74/28/1 75/7/1 76/5/1
f 77/28/1 78/29/1 79/9/1 80/7/1
f 81/30/1 82/31/1 83/12/1 84/11/1
f 85/32/1 86/33/1 87/16/1 88/15/1
f 89/30/1 90/31/1 91/12/1 92/11/1
f 93/32/1 94/33/1 95/16/1 96/15/1
f 97/30/1 98/31/1 99/12/1 100/11/1
f 101/32/1 102/33/1 103/16/1 104/15/1
f 105/30/1 106/31/1 107/12/1 108/11/1
f 109/32/1 110/33/1 111/16/1 112/15/1
f 113/34/1 114/35/1 115/20/1 116/19/1
f 117/32/1 118/33/1 119/16/1 120/15/1
f 121/34/1 122/35/1 123/20/1 124/19/1
f 125/35/1 126/36/1 127/23/1 128/20/1
f 129/37/1 130/38/1 131/26/1 132/25/1
f 133/38/1 134/39/1 135/27/1 136/26/1
f 137/39/1 138/40/1 139/28/1 140/27/1
f 141/40/1 142/41/1 143/29/1 144/28/1
f 145/42/1 146/43/1 147/31/1 148/30/1
f 149/42/1 150/43/1 151/31/1 152/30/1
f 153/42/1 154/43/1 155/31/1 156/30/1
f 157/42/1 158/43/1 159/31/1 160/30/1
f 161/42/1 162/43/1 163/31/1 164/30/1
f 165/42/1 166/43/1 167/31/1 168/30/1
f 169/42/1 170/43/1 171/31/1 172/30/1
f 173/42/1 174/43/1 175/31/1 176/30/1
f 177/43/1 178/44/1 179/45/1 180/31/1
f 181/46/1 182/47/1 183/48/1 184/49/1
f 185/47/1 186/42/1 187/30/1 188/48/1
f 189/42/1 190/43/1 191/31/1 192/30/1
f 193/50/1 194/51/1 195/38/1 196/37/1
f 197/51/1 198/52/1 199/39/1 200/38/1
f 201/52/1 202/53/1 203/40/1 204/39/1
f 205/53/1 206/54/1 207/41/1 208/40/1
f 209/55/1 210/56/1 211/43/1 212/42/1
f 213/55/1 214/56/1 215/43/1 216/42/1
f 217/55/1 218/56/1 219/43/1 220/42/1
f 221/55/1 222/56/1 223/43/1 224/42/1
f 225/55/1 226/56/1 227/43/1 228/42/1
f 229/55/1 230/56/1 231/43/1 232/42/1
f 233/55/1 234/56/1 235/43/1 236/42/1
f 237/55/1 238/56/1 239/43/1 240/42/1
f 241/56/1 242/57/1 243/44/1 244/43/1
f 245/58/1 246/59/1 247/47/1 248/46/1
f 249/59/1 250/55/1 251/42/1 252/47/1
f 253/55/1 254/56/1 255/43/1 256/42/1
f 257/60/1 258/61/1 259/51/1 260/50/1
f 261/61/1 262/62/1 263/52/1 264/51/1
f 265/62/1 266/63/1 267/53/1 268/52/1
f 269/64/1 270/65/1 271/56/1 272/55/1
f 273/64/1 274/65/1 275/56/1 276/55/1
f 277/64/1 278/65/1 279/56/1 280/55/1
f 281/64/1 282/65/1 283/56/1 284/55/1
f 285/64/1 286/65/1 287/56/1 288/55/1
f 289/64/1 290/65/1 291/56/1 292/55/1
f 293/64/1 294/65/1 295/56/1 296/55/1
f 297/64/1 298/65/1 299/56/1 300/55/1
f 301/64/1 302/65/1 303/56/1 304/55/1
f 305/65/1 306/66/1 307/57/1 308/56/1
f 309/66/1 310/67/1 311/68/1 312/57/1
f 313/67/1 314/69/1 315/70/1 316/68/1
f 317/64/1 318/65/1 319/56/1 320/55/1
f 321/71/1 322/72/1 323/61/1 324/60/1
f 325/72/1 326/73/1 327/62/1 328/61/1
f 329/73/1 330/74/1 331/63/1 332/62/1
f 333/75/1 334/76/1 335/77/1 336/78/1
f 337/79/1 338/78/1 339/80/1 340/81/1
f 341/78/1 342/77/1 343/82/1 344/80/1
f 345/83/1 346/75/1 347/78/1 348/79/1
f 349/83/1 350/75/1 351/78/1 352/79/1
f 353/83/1 354/75/1 355/78/1 356/79/1
f 357/83/1 358/75/1 359/78/1 360/79/1
f 361/83/1 362/75/1 363/78/1 364/79/1
f 365/83/1 366/75/1 367/78/1 368/79/1
f 369/83/1 370/75/1 371/78/1 372/79/1
f 373/83/1 374/75/1 375/78/1 376/79/1
f 377/83/1 378/75/1 379/78/1 380/79/1
f 381/83/1 382/75/1 383/78/1 384/79/1
f 385/84/1 386/85/1 387/72/1 388/71/1
f 389/85/1 390/86/1 391/73/1 392/72/1
f 393/86/1 394/87/1 395/74/1 396/73/1
f 397/78/1 398/77/1 399/82/1 400/80/1
f 401/78/1 402/77/1 403/82/1 404/80/1
f 405/79/1 406/78/1 407/80/1 408/81/1
f 409/79/1 410/78/1 411/80/1 412/81/1
f 413/79/1 414/78/1 415/80/1 416/81/1
f 417/79/1 418/78/1 419/80/1 420/81/1
f 421/79/1 422/78/1 423/80/1 424/81/1
f 425/79/1 426/78/1 427/80/1 428/81/1
f 429/78/1 430/77/1 431/82/1 432/80/1
f 433/78/1 434/77/1 435/82/1 436/80/1
f 437/78/1 438/77/1 439/82/1 440/80/1
f 441/78/1 442/77/1 443/82/1 444/80/1
f 445/78/1 446/77/1 447/82/1 448/80/1
f 449/88/1 450/89/1 451/85/1 452/84/1
f 453/89/1 454/90/1 455/86/1 456/85/1
f 457/90/1 458/91/1 459/87/1 460/86/1
f 461/78/1 462/77/1 463/82/1 464/80/1
f 465/75/1 466/76/1 467/77/1 468/78/1
f 469/79/1 470/78/1 471/80/1 472/81/1
f 473/78/1 474/77/1 475/82/1 476/80/1
f 477/83/1 478/75/1 479/78/1 480/79/1
f 481/83/1 482/75/1 483/78/1 484/79/1
f 485/83/1 486/75/1 487/78/1 488/79/1
f 489/83/1 490/75/1 491/78/1 492/79/1
f 493/79/1 494/78/1 495/80/1 496/81/1
f 497/79/1 498/78/1 499/80/1 500/81/1
f 501/79/1 502/78/1 503/80/1 504/81/1
f 505/79/1 506/78/1 507/80/1 508/81/1
f 509/79/1 510/78/1 511/80/1 512/81/1
f 513/92/1 514/93/1 515/89/1 516/88/1
f 517/93/1 518/94/1 519/90/1 520/89/1
f 521/94/1 522/95/1 523/91/1 524/90/1
f 525/78/1 526/77/1 527/82/1 528/80/1
f 529/75/1 530/76/1 531/77/1 532/78/1
f 533/79/1 534/78/1 535/80/1 536/81/1
f 537/78/1 538/77/1 539/82/1 540/80/1
f 541/78/1 542/77/1 543/82/1 544/80/1
f 545/79/1 546/78/1 547/80/1 548/81/1
f 549/78/1 550/77/1 551/82/1 552/80/1
f 553/79/1 554/78/1 555/80/1 556/81/1
f 557/79/1 558/78/1 559/80/1 560/81/1
f 561/78/1 562/77/1 563/82/1 564/80/1
f 565/78/1 566/77/1 567/82/1 568/80/1
f 569/78/1 570/77/1 571/82/1 572/80/1
f 573/78/1 574/77/1 575/82/1 576/80/1
f 577/84/1 578/85/1 579/72/1 580/71/1
f 581/85/1 582/86/1 583/73/1 584/72/1
f 585/73/1 586/74/1 587/63/1 588/62/1
f 589/78/1 590/77/1 591/82/1 592/80/1
f 593/75/1 594/76/1 595/77/1 596/78/1
f 597/79/1 598/78/1 599/80/1 600/81/1
f 601/78/1 602/77/1 603/82/1 604/80/1
f 605/79/1 606/78/1 607/80/1 608/81/1
f 609/79/1 610/78/1 611/80/1 612/81/1
f 613/78/1 614/77/1 615/82/1 616/80/1
f 617/83/1 618/75/1 619/78/1 620/79/1
f 621/79/1 622/78/1 623/80/1 624/81/1
f 625/79/1 626/78/1 627/80/1 628/81/1
f 629/79/1 630/78/1 631/80/1 632/81/1
f 633/79/1 634/78/1 635/80/1 636/81/1
f 637/79/1 638/78/1 639/80/1 640/81/1
f 641/88/1 642/89/1 643/85/1 644/84/1
f 645/89/1 646/90/1 647/86/1 648/85/1
f 649/86/1 650/87/1 651/74/1 652/73/1
f 653/79/1 654/78/1 655/80/1 656/81/1
f 657/78/1 658/77/1 659/82/1 660/80/1
f 661/79/1 662/78/1 663/80/1 664/81/1
f 665/78/1 666/77/1 667/82/1 668/80/1
f 669/79/1 670/78/1 671/80/1 672/81/1
f 673/78/1 674/77/1 675/82/1 676/80/1
f 677/75/1 678/76/1 679/77/1 680/78/1
f 681/78/1 682/77/1 683/82/1 684/80/1
f 685/78/1 686/77/1 687/82/1 688/80/1
f 689/79/1 690/78/1 691/80/1 692/81/1
f 693/78/1 694/77/1 695/82/1 696/80/1
f 697/78/1 698/77/1 699/82/1 700/80/1
f 701/78/1 702/77/1 703/82/1 704/80/1
f 705/92/1 706/93/1 707/89/1 708/88/1
f 709/93/1 710/94/1 711/90/1 712/89/1
f 713/90/1 714/91/1 715/87/1 716/86/1
f 717/79/1 718/78/1 719/80/1 720/81/1
f 721/78/1 722/77/1 723/82/1 724/80/1
f 725/79/1 726/78/1 727/80/1 728/81/1
f 729/78/1 730/77/1 731/82/1 732/80/1
f 733/79/1 734/78/1 735/80/1 736/81/1
f 737/78/1 738/77/1 739/82/1 740/80/1
f 741/83/1 742/75/1 743/78/1 744/79/1
f 745/75/1 746/76/1 747/77/1 748/78/1
f 749/79/1 750/78/1 751/80/1 752/81/1
f 753/79/1 754/78/1 755/80/1 756/81/1
f 757/78/1 758/77/1 759/82/1 760/80/1
f 761/79/1 762/78/1 763/80/1 764/81/1
f 765/78/1 766/77/1 767/82/1 768/80/1
f 769/96/1 770/97/1 771/98/1 772/99/1
f 773/97/1 774/100/1 775/101/1 776/98/1
f 777/73/1 778/74/1 779/63/1 780/62/1
f 781/79/1 782/78/1 783/80/1 784/81/1
f 785/79/1 786/78/1 787/80/1 788/81/1
f 789/79/1 790/78/1 791/80/1 792/81/1
f 793/78/1 794/77/1 795/82/1 796/80/1
f 797/79/1 798/78/1 799/80/1 800/81/1
f 801/78/1 802/77/1 803/82/1 804/80/1
f 805/79/1 806/78/1 807/80/1 808/81/1
f 809/78/1 810/77/1 811/82/1 812/80/1
f 813/79/1 814/78/1 815/80/1 816/81/1
f 817/78/1 818/77/1 819/82/1 820/80/1
f 821/75/1 822/76/1 823/77/1 824/78/1
f 825/78/1 826/77/1 827/82/1 828/80/1
f 829/78/1 830/77/1 831/82/1 832/80/1
f 833/102/1 834/103/1 835/97/1 836/96/1
f 837/103/1 838/104/1 839/100/1 840/97/1
f 841/73/1 842/74/1 843/63/1 844/62/1
f 845/79/1 846/78/1 847/80/1 848/81/1
f 849/83/1 850/75/1 851/78/1 852/79/1
f 853/79/1 854/78/1 855/80/1 856/81/1
f 857/78/1 858/77/1 859/82/1 860/80/1
f 861/78/1 862/77/1 863/82/1 864/80/1
f 865/78/1 866/77/1 867/82/1 868/80/1
f 869/79/1 870/78/1 871/80/1 872/81/1
f 873/78/1 874/77/1 875/82/1 876/80/1
f 877/79/1 878/78/1 879/80/1 880/81/1
f 881/78/1 882/77/1 883/82/1 884/80/1
f 885/75/1 886/76/1 887/77/1 888/78/1
f 889/78/1 890/77/1 891/82/1 892/80/1
f 893/75/1 894/76/1 895/77/1 896/78/1
f 897/105/1 898/106/1 899/103/1 900/102/1
f 901/106/1 902/107/1 903/104/1 904/103/1
f 905/73/1 906/74/1 907/63/1 908/62/1
f 909/79/1 910/78/1 911/80/1 912/81/1
f 913/83/1 914/75/1 915/78/1 916/79/1
f 917/79/1 918/78/1 919/80/1 920/81/1
f 921/78/1 922/77/1 923/82/1 924/80/1
f 925/75/1 926/76/1 927/77/1 928/78/1
f 929/79/1 930/78/1 931/80/1 932/81/1
f 933/78/1 934/77/1 935/82/1 936/80/1
f 937/78/1 938/77/1 939/82/1 940/80/1
f 941/78/1 942/77/1 943/82/1 944/80/1
f 945/78/1 946/77/1 947/82/1 948/80/1
f 949/75/1 950/76/1 951/77/1 952/78/1
f 953/78/1 954/77/1 955/82/1 956/80/1
f 957/83/1 958/75/1 959/78/1 960/79/1

