# Tiled2Unity generated file. Do not modify by hand.
# Wavefront file for 'Rogue_mesh_0002.obj'

# Vertices (Count = 960)
v 0 -16 0
v -8 -16 0
v -8 -8 0
v 0 -8 0
v -8 -16 0
v -16 -16 0
v -16 -8 0
v -8 -8 0
v -16 -16 0
v -24 -16 0
v -24 -8 0
v -16 -8 0
v -24 -16 0
v -32 -16 0
v -32 -8 0
v -24 -8 0
v -32 -16 0
v -40 -16 0
v -40 -8 0
v -32 -8 0
v -40 -16 0
v -48 -16 0
v -48 -8 0
v -40 -8 0
v -48 -16 0
v -56 -16 0
v -56 -8 0
v -48 -8 0
v -56 -16 0
v -64 -16 0
v -64 -8 0
v -56 -8 0
v -64 -16 0
v -72 -16 0
v -72 -8 0
v -64 -8 0
v -72 -16 0
v -80 -16 0
v -80 -8 0
v -72 -8 0
v -80 -16 0
v -88 -16 0
v -88 -8 0
v -80 -8 0
v -88 -16 0
v -96 -16 0
v -96 -8 0
v -88 -8 0
v -96 -16 0
v -104 -16 0
v -104 -8 0
v -96 -8 0
v -104 -16 0
v -112 -16 0
v -112 -8 0
v -104 -8 0
v -112 -16 0
v -120 -16 0
v -120 -8 0
v -112 -8 0
v -120 -16 0
v -128 -16 0
v -128 -8 0
v -120 -8 0
v 0 -24 0
v -8 -24 0
v -8 -16 0
v 0 -16 0
v -8 -24 0
v -16 -24 0
v -16 -16 0
v -8 -16 0
v -16 -24 0
v -24 -24 0
v -24 -16 0
v -16 -16 0
v -24 -24 0
v -32 -24 0
v -32 -16 0
v -24 -16 0
v -32 -24 0
v -40 -24 0
v -40 -16 0
v -32 -16 0
v -40 -24 0
v -48 -24 0
v -48 -16 0
v -40 -16 0
v -48 -24 0
v -56 -24 0
v -56 -16 0
v -48 -16 0
v -56 -24 0
v -64 -24 0
v -64 -16 0
v -56 -16 0
v -64 -24 0
v -72 -24 0
v -72 -16 0
v -64 -16 0
v -72 -24 0
v -80 -24 0
v -80 -16 0
v -72 -16 0
v -80 -24 0
v -88 -24 0
v -88 -16 0
v -80 -16 0
v -88 -24 0
v -96 -24 0
v -96 -16 0
v -88 -16 0
v -96 -24 0
v -104 -24 0
v -104 -16 0
v -96 -16 0
v -104 -24 0
v -112 -24 0
v -112 -16 0
v -104 -16 0
v -112 -24 0
v -120 -24 0
v -120 -16 0
v -112 -16 0
v -120 -24 0
v -128 -24 0
v -128 -16 0
v -120 -16 0
v 0 -32 0
v -8 -32 0
v -8 -24 0
v 0 -24 0
v -8 -32 0
v -16 -32 0
v -16 -24 0
v -8 -24 0
v -16 -32 0
v -24 -32 0
v -24 -24 0
v -16 -24 0
v -24 -32 0
v -32 -32 0
v -32 -24 0
v -24 -24 0
v -32 -32 0
v -40 -32 0
v -40 -24 0
v -32 -24 0
v -40 -32 0
v -48 -32 0
v -48 -24 0
v -40 -24 0
v -48 -32 0
v -56 -32 0
v -56 -24 0
v -48 -24 0
v -56 -32 0
v -64 -32 0
v -64 -24 0
v -56 -24 0
v -64 -32 0
v -72 -32 0
v -72 -24 0
v -64 -24 0
v -72 -32 0
v -80 -32 0
v -80 -24 0
v -72 -24 0
v -80 -32 0
v -88 -32 0
v -88 -24 0
v -80 -24 0
v -88 -32 0
v -96 -32 0
v -96 -24 0
v -88 -24 0
v -96 -32 0
v -104 -32 0
v -104 -24 0
v -96 -24 0
v -104 -32 0
v -112 -32 0
v -112 -24 0
v -104 -24 0
v -112 -32 0
v -120 -32 0
v -120 -24 0
v -112 -24 0
v -120 -32 0
v -128 -32 0
v -128 -24 0
v -120 -24 0
v 0 -40 0
v -8 -40 0
v -8 -32 0
v 0 -32 0
v -8 -40 0
v -16 -40 0
v -16 -32 0
v -8 -32 0
v -16 -40 0
v -24 -40 0
v -24 -32 0
v -16 -32 0
v -24 -40 0
v -32 -40 0
v -32 -32 0
v -24 -32 0
v -32 -40 0
v -40 -40 0
v -40 -32 0
v -32 -32 0
v -40 -40 0
v -48 -40 0
v -48 -32 0
v -40 -32 0
v -48 -40 0
v -56 -40 0
v -56 -32 0
v -48 -32 0
v -56 -40 0
v -64 -40 0
v -64 -32 0
v -56 -32 0
v -64 -40 0
v -72 -40 0
v -72 -32 0
v -64 -32 0
v -72 -40 0
v -80 -40 0
v -80 -32 0
v -72 -32 0
v -80 -40 0
v -88 -40 0
v -88 -32 0
v -80 -32 0
v -88 -40 0
v -96 -40 0
v -96 -32 0
v -88 -32 0
v -96 -40 0
v -104 -40 0
v -104 -32 0
v -96 -32 0
v -104 -40 0
v -112 -40 0
v -112 -32 0
v -104 -32 0
v -112 -40 0
v -120 -40 0
v -120 -32 0
v -112 -32 0
v -120 -40 0
v -128 -40 0
v -128 -32 0
v -120 -32 0
v 0 -48 0
v -8 -48 0
v -8 -40 0
v 0 -40 0
v -8 -48 0
v -16 -48 0
v -16 -40 0
v -8 -40 0
v -16 -48 0
v -24 -48 0
v -24 -40 0
v -16 -40 0
v -24 -48 0
v -32 -48 0
v -32 -40 0
v -24 -40 0
v -32 -48 0
v -40 -48 0
v -40 -40 0
v -32 -40 0
v -40 -48 0
v -48 -48 0
v -48 -40 0
v -40 -40 0
v -48 -48 0
v -56 -48 0
v -56 -40 0
v -48 -40 0
v -56 -48 0
v -64 -48 0
v -64 -40 0
v -56 -40 0
v -64 -48 0
v -72 -48 0
v -72 -40 0
v -64 -40 0
v -72 -48 0
v -80 -48 0
v -80 -40 0
v -72 -40 0
v -80 -48 0
v -88 -48 0
v -88 -40 0
v -80 -40 0
v -88 -48 0
v -96 -48 0
v -96 -40 0
v -88 -40 0
v -96 -48 0
v -104 -48 0
v -104 -40 0
v -96 -40 0
v -104 -48 0
v -112 -48 0
v -112 -40 0
v -104 -40 0
v -112 -48 0
v -120 -48 0
v -120 -40 0
v -112 -40 0
v -120 -48 0
v -128 -48 0
v -128 -40 0
v -120 -40 0
v 0 -56 0
v -8 -56 0
v -8 -48 0
v 0 -48 0
v -8 -56 0
v -16 -56 0
v -16 -48 0
v -8 -48 0
v -16 -56 0
v -24 -56 0
v -24 -48 0
v -16 -48 0
v -24 -56 0
v -32 -56 0
v -32 -48 0
v -24 -48 0
v -32 -56 0
v -40 -56 0
v -40 -48 0
v -32 -48 0
v -40 -56 0
v -48 -56 0
v -48 -48 0
v -40 -48 0
v -48 -56 0
v -56 -56 0
v -56 -48 0
v -48 -48 0
v -56 -56 0
v -64 -56 0
v -64 -48 0
v -56 -48 0
v -64 -56 0
v -72 -56 0
v -72 -48 0
v -64 -48 0
v -72 -56 0
v -80 -56 0
v -80 -48 0
v -72 -48 0
v -80 -56 0
v -88 -56 0
v -88 -48 0
v -80 -48 0
v -88 -56 0
v -96 -56 0
v -96 -48 0
v -88 -48 0
v -96 -56 0
v -104 -56 0
v -104 -48 0
v -96 -48 0
v -104 -56 0
v -112 -56 0
v -112 -48 0
v -104 -48 0
v -112 -56 0
v -120 -56 0
v -120 -48 0
v -112 -48 0
v -120 -56 0
v -128 -56 0
v -128 -48 0
v -120 -48 0
v 0 -64 0
v -8 -64 0
v -8 -56 0
v 0 -56 0
v -8 -64 0
v -16 -64 0
v -16 -56 0
v -8 -56 0
v -16 -64 0
v -24 -64 0
v -24 -56 0
v -16 -56 0
v -24 -64 0
v -32 -64 0
v -32 -56 0
v -24 -56 0
v -32 -64 0
v -40 -64 0
v -40 -56 0
v -32 -56 0
v -40 -64 0
v -48 -64 0
v -48 -56 0
v -40 -56 0
v -48 -64 0
v -56 -64 0
v -56 -56 0
v -48 -56 0
v -56 -64 0
v -64 -64 0
v -64 -56 0
v -56 -56 0
v -64 -64 0
v -72 -64 0
v -72 -56 0
v -64 -56 0
v -72 -64 0
v -80 -64 0
v -80 -56 0
v -72 -56 0
v -80 -64 0
v -88 -64 0
v -88 -56 0
v -80 -56 0
v -88 -64 0
v -96 -64 0
v -96 -56 0
v -88 -56 0
v -96 -64 0
v -104 -64 0
v -104 -56 0
v -96 -56 0
v -104 -64 0
v -112 -64 0
v -112 -56 0
v -104 -56 0
v -112 -64 0
v -120 -64 0
v -120 -56 0
v -112 -56 0
v -120 -64 0
v -128 -64 0
v -128 -56 0
v -120 -56 0
v 0 -72 0
v -8 -72 0
v -8 -64 0
v 0 -64 0
v -8 -72 0
v -16 -72 0
v -16 -64 0
v -8 -64 0
v -16 -72 0
v -24 -72 0
v -24 -64 0
v -16 -64 0
v -24 -72 0
v -32 -72 0
v -32 -64 0
v -24 -64 0
v -32 -72 0
v -40 -72 0
v -40 -64 0
v -32 -64 0
v -40 -72 0
v -48 -72 0
v -48 -64 0
v -40 -64 0
v -48 -72 0
v -56 -72 0
v -56 -64 0
v -48 -64 0
v -56 -72 0
v -64 -72 0
v -64 -64 0
v -56 -64 0
v -64 -72 0
v -72 -72 0
v -72 -64 0
v -64 -64 0
v -72 -72 0
v -80 -72 0
v -80 -64 0
v -72 -64 0
v -80 -72 0
v -88 -72 0
v -88 -64 0
v -80 -64 0
v -88 -72 0
v -96 -72 0
v -96 -64 0
v -88 -64 0
v -96 -72 0
v -104 -72 0
v -104 -64 0
v -96 -64 0
v -104 -72 0
v -112 -72 0
v -112 -64 0
v -104 -64 0
v -112 -72 0
v -120 -72 0
v -120 -64 0
v -112 -64 0
v -120 -72 0
v -128 -72 0
v -128 -64 0
v -120 -64 0
v 0 -80 0
v -8 -80 0
v -8 -72 0
v 0 -72 0
v -8 -80 0
v -16 -80 0
v -16 -72 0
v -8 -72 0
v -16 -80 0
v -24 -80 0
v -24 -72 0
v -16 -72 0
v -24 -80 0
v -32 -80 0
v -32 -72 0
v -24 -72 0
v -32 -80 0
v -40 -80 0
v -40 -72 0
v -32 -72 0
v -40 -80 0
v -48 -80 0
v -48 -72 0
v -40 -72 0
v -48 -80 0
v -56 -80 0
v -56 -72 0
v -48 -72 0
v -56 -80 0
v -64 -80 0
v -64 -72 0
v -56 -72 0
v -64 -80 0
v -72 -80 0
v -72 -72 0
v -64 -72 0
v -72 -80 0
v -80 -80 0
v -80 -72 0
v -72 -72 0
v -80 -80 0
v -88 -80 0
v -88 -72 0
v -80 -72 0
v -88 -80 0
v -96 -80 0
v -96 -72 0
v -88 -72 0
v -96 -80 0
v -104 -80 0
v -104 -72 0
v -96 -72 0
v -104 -80 0
v -112 -80 0
v -112 -72 0
v -104 -72 0
v -112 -80 0
v -120 -80 0
v -120 -72 0
v -112 -72 0
v -120 -80 0
v -128 -80 0
v -128 -72 0
v -120 -72 0
v 0 -88 0
v -8 -88 0
v -8 -80 0
v 0 -80 0
v -8 -88 0
v -16 -88 0
v -16 -80 0
v -8 -80 0
v -16 -88 0
v -24 -88 0
v -24 -80 0
v -16 -80 0
v -24 -88 0
v -32 -88 0
v -32 -80 0
v -24 -80 0
v -32 -88 0
v -40 -88 0
v -40 -80 0
v -32 -80 0
v -40 -88 0
v -48 -88 0
v -48 -80 0
v -40 -80 0
v -48 -88 0
v -56 -88 0
v -56 -80 0
v -48 -80 0
v -56 -88 0
v -64 -88 0
v -64 -80 0
v -56 -80 0
v -64 -88 0
v -72 -88 0
v -72 -80 0
v -64 -80 0
v -72 -88 0
v -80 -88 0
v -80 -80 0
v -72 -80 0
v -80 -88 0
v -88 -88 0
v -88 -80 0
v -80 -80 0
v -88 -88 0
v -96 -88 0
v -96 -80 0
v -88 -80 0
v -96 -88 0
v -104 -88 0
v -104 -80 0
v -96 -80 0
v -104 -88 0
v -112 -88 0
v -112 -80 0
v -104 -80 0
v -112 -88 0
v -120 -88 0
v -120 -80 0
v -112 -80 0
v -120 -88 0
v -128 -88 0
v -128 -80 0
v -120 -80 0
v 0 -96 0
v -8 -96 0
v -8 -88 0
v 0 -88 0
v -8 -96 0
v -16 -96 0
v -16 -88 0
v -8 -88 0
v -16 -96 0
v -24 -96 0
v -24 -88 0
v -16 -88 0
v -24 -96 0
v -32 -96 0
v -32 -88 0
v -24 -88 0
v -32 -96 0
v -40 -96 0
v -40 -88 0
v -32 -88 0
v -40 -96 0
v -48 -96 0
v -48 -88 0
v -40 -88 0
v -48 -96 0
v -56 -96 0
v -56 -88 0
v -48 -88 0
v -56 -96 0
v -64 -96 0
v -64 -88 0
v -56 -88 0
v -64 -96 0
v -72 -96 0
v -72 -88 0
v -64 -88 0
v -72 -96 0
v -80 -96 0
v -80 -88 0
v -72 -88 0
v -80 -96 0
v -88 -96 0
v -88 -88 0
v -80 -88 0
v -88 -96 0
v -96 -96 0
v -96 -88 0
v -88 -88 0
v -96 -96 0
v -104 -96 0
v -104 -88 0
v -96 -88 0
v -104 -96 0
v -112 -96 0
v -112 -88 0
v -104 -88 0
v -112 -96 0
v -120 -96 0
v -120 -88 0
v -112 -88 0
v -120 -96 0
v -128 -96 0
v -128 -88 0
v -120 -88 0
v 0 -104 0
v -8 -104 0
v -8 -96 0
v 0 -96 0
v -8 -104 0
v -16 -104 0
v -16 -96 0
v -8 -96 0
v -16 -104 0
v -24 -104 0
v -24 -96 0
v -16 -96 0
v -24 -104 0
v -32 -104 0
v -32 -96 0
v -24 -96 0
v -32 -104 0
v -40 -104 0
v -40 -96 0
v -32 -96 0
v -40 -104 0
v -48 -104 0
v -48 -96 0
v -40 -96 0
v -48 -104 0
v -56 -104 0
v -56 -96 0
v -48 -96 0
v -56 -104 0
v -64 -104 0
v -64 -96 0
v -56 -96 0
v -64 -104 0
v -72 -104 0
v -72 -96 0
v -64 -96 0
v -72 -104 0
v -80 -104 0
v -80 -96 0
v -72 -96 0
v -80 -104 0
v -88 -104 0
v -88 -96 0
v -80 -96 0
v -88 -104 0
v -96 -104 0
v -96 -96 0
v -88 -96 0
v -96 -104 0
v -104 -104 0
v -104 -96 0
v -96 -96 0
v -104 -104 0
v -112 -104 0
v -112 -96 0
v -104 -96 0
v -112 -104 0
v -120 -104 0
v -120 -96 0
v -112 -96 0
v -120 -104 0
v -128 -104 0
v -128 -96 0
v -120 -96 0
v 0 -112 0
v -8 -112 0
v -8 -104 0
v 0 -104 0
v -8 -112 0
v -16 -112 0
v -16 -104 0
v -8 -104 0
v -16 -112 0
v -24 -112 0
v -24 -104 0
v -16 -104 0
v -24 -112 0
v -32 -112 0
v -32 -104 0
v -24 -104 0
v -32 -112 0
v -40 -112 0
v -40 -104 0
v -32 -104 0
v -40 -112 0
v -48 -112 0
v -48 -104 0
v -40 -104 0
v -48 -112 0
v -56 -112 0
v -56 -104 0
v -48 -104 0
v -56 -112 0
v -64 -112 0
v -64 -104 0
v -56 -104 0
v -64 -112 0
v -72 -112 0
v -72 -104 0
v -64 -104 0
v -72 -112 0
v -80 -112 0
v -80 -104 0
v -72 -104 0
v -80 -112 0
v -88 -112 0
v -88 -104 0
v -80 -104 0
v -88 -112 0
v -96 -112 0
v -96 -104 0
v -88 -104 0
v -96 -112 0
v -104 -112 0
v -104 -104 0
v -96 -104 0
v -104 -112 0
v -112 -112 0
v -112 -104 0
v -104 -104 0
v -112 -112 0
v -120 -112 0
v -120 -104 0
v -112 -104 0
v -120 -112 0
v -128 -112 0
v -128 -104 0
v -120 -104 0
v 0 -120 0
v -8 -120 0
v -8 -112 0
v 0 -112 0
v -8 -120 0
v -16 -120 0
v -16 -112 0
v -8 -112 0
v -16 -120 0
v -24 -120 0
v -24 -112 0
v -16 -112 0
v -24 -120 0
v -32 -120 0
v -32 -112 0
v -24 -112 0
v -32 -120 0
v -40 -120 0
v -40 -112 0
v -32 -112 0
v -40 -120 0
v -48 -120 0
v -48 -112 0
v -40 -112 0
v -48 -120 0
v -56 -120 0
v -56 -112 0
v -48 -112 0
v -56 -120 0
v -64 -120 0
v -64 -112 0
v -56 -112 0
v -64 -120 0
v -72 -120 0
v -72 -112 0
v -64 -112 0
v -72 -120 0
v -80 -120 0
v -80 -112 0
v -72 -112 0
v -80 -120 0
v -88 -120 0
v -88 -112 0
v -80 -112 0
v -88 -120 0
v -96 -120 0
v -96 -112 0
v -88 -112 0
v -96 -120 0
v -104 -120 0
v -104 -112 0
v -96 -112 0
v -104 -120 0
v -112 -120 0
v -112 -112 0
v -104 -112 0
v -112 -120 0
v -120 -120 0
v -120 -112 0
v -112 -112 0
v -120 -120 0
v -128 -120 0
v -128 -112 0
v -120 -112 0
v 0 -128 0
v -8 -128 0
v -8 -120 0
v 0 -120 0
v -8 -128 0
v -16 -128 0
v -16 -120 0
v -8 -120 0
v -16 -128 0
v -24 -128 0
v -24 -120 0
v -16 -120 0
v -24 -128 0
v -32 -128 0
v -32 -120 0
v -24 -120 0
v -32 -128 0
v -40 -128 0
v -40 -120 0
v -32 -120 0
v -40 -128 0
v -48 -128 0
v -48 -120 0
v -40 -120 0
v -48 -128 0
v -56 -128 0
v -56 -120 0
v -48 -120 0
v -56 -128 0
v -64 -128 0
v -64 -120 0
v -56 -120 0
v -64 -128 0
v -72 -128 0
v -72 -120 0
v -64 -120 0
v -72 -128 0
v -80 -128 0
v -80 -120 0
v -72 -120 0
v -80 -128 0
v -88 -128 0
v -88 -120 0
v -80 -120 0
v -88 -128 0
v -96 -128 0
v -96 -120 0
v -88 -120 0
v -96 -128 0
v -104 -128 0
v -104 -120 0
v -96 -120 0
v -104 -128 0
v -112 -128 0
v -112 -120 0
v -104 -120 0
v -112 -128 0
v -120 -128 0
v -120 -120 0
v -112 -120 0
v -120 -128 0
v -128 -128 0
v -128 -120 0
v -120 -120 0

# Texture cooridinates (Count = 85)
vt 0.4117647 0.9693878
vt 0.4264706 0.9693878
vt 0.4264706 0.9795918
vt 0.4117647 0.9795918
vt 0.6176471 0.7857143
vt 0.6323529 0.7857143
vt 0.6323529 0.7959183
vt 0.6176471 0.7959183
vt 0.3382353 0.9693878
vt 0.3529412 0.9693878
vt 0.3529412 0.9795918
vt 0.3382353 0.9795918
vt 0.4117647 0.9591837
vt 0.4264706 0.9591837
vt 0.3382353 0.9591837
vt 0.3529412 0.9591837
vt 0.4117647 0.9489796
vt 0.4264706 0.9489796
vt 0.3823529 0.9489796
vt 0.3970588 0.9489796
vt 0.3970588 0.9591837
vt 0.3823529 0.9591837
vt 0.4117647 0.9387755
vt 0.4264706 0.9387755
vt 0.6617647 0.9489796
vt 0.6764706 0.9489796
vt 0.6764706 0.9591837
vt 0.6617647 0.9591837
vt 0.3823529 0.9387755
vt 0.3970588 0.9387755
vt 0.3529412 0.9489796
vt 0.3676471 0.9489796
vt 0.3676471 0.9591837
vt 0.4411765 0.9285714
vt 0.4558823 0.9285714
vt 0.4558823 0.9387755
vt 0.4411765 0.9387755
vt 0.4705882 0.9285714
vt 0.4705882 0.9387755
vt 0.4852941 0.9285714
vt 0.4852941 0.9387755
vt 0.6617647 0.9285714
vt 0.6764706 0.9285714
vt 0.6764706 0.9387755
vt 0.6617647 0.9387755
vt 0.2794118 0.9285714
vt 0.2941177 0.9285714
vt 0.2941177 0.9387755
vt 0.2794118 0.9387755
vt 0.3088235 0.9285714
vt 0.3088235 0.9387755
vt 0.3235294 0.9285714
vt 0.3235294 0.9387755
vt 0.3382353 0.9285714
vt 0.3382353 0.9387755
vt 0.3529412 0.9285714
vt 0.3529412 0.9387755
vt 0.3676471 0.9285714
vt 0.3676471 0.9387755
vt 0.3823529 0.9285714
vt 0.3970588 0.9285714
vt 0.4117647 0.9285714
vt 0.4264706 0.9285714
vt 0.4411765 0.8979592
vt 0.4558823 0.8979592
vt 0.4558823 0.9081632
vt 0.4411765 0.9081632
vt 0.4264706 0.8979592
vt 0.4264706 0.9081632
vt 0.4264706 0.8877551
vt 0.4411765 0.8877551
vt 0.4558823 0.8877551
vt 0.3676471 0.755102
vt 0.3676471 0.744898
vt 0.3823529 0.744898
vt 0.3823529 0.755102
vt 0.3676471 0.7346939
vt 0.3823529 0.7346939
vt 0.3529412 0.755102
vt 0.3529412 0.744898
vt 0.3529412 0.7346939
vt 0.2794118 0.8571429
vt 0.2941177 0.8571429
vt 0.2941177 0.8673469
vt 0.2794118 0.8673469

# Normal
vn 0 0 -1

# Mesh description
g Rogue_mesh_0002

# Faces
f 1/1/1 2/2/1 3/3/1 4/4/1
f 5/5/1 6/6/1 7/7/1 8/8/1
f 9/1/1 10/2/1 11/3/1 12/4/1
f 13/9/1 14/10/1 15/11/1 16/12/1
f 17/1/1 18/2/1 19/3/1 20/4/1
f 21/9/1 22/10/1 23/11/1 24/12/1
f 25/1/1 26/2/1 27/3/1 28/4/1
f 29/9/1 30/10/1 31/11/1 32/12/1
f 33/1/1 34/2/1 35/3/1 36/4/1
f 37/5/1 38/6/1 39/7/1 40/8/1
f 41/1/1 42/2/1 43/3/1 44/4/1
f 45/9/1 46/10/1 47/11/1 48/12/1
f 49/1/1 50/2/1 51/3/1 52/4/1
f 53/9/1 54/10/1 55/11/1 56/12/1
f 57/1/1 58/2/1 59/3/1 60/4/1
f 61/9/1 62/10/1 63/11/1 64/12/1
f 65/13/1 66/14/1 67/2/1 68/1/1
f 69/15/1 70/16/1 71/10/1 72/9/1
f 73/13/1 74/14/1 75/2/1 76/1/1
f 77/15/1 78/16/1 79/10/1 80/9/1
f 81/13/1 82/14/1 83/2/1 84/1/1
f 85/15/1 86/16/1 87/10/1 88/9/1
f 89/13/1 90/14/1 91/2/1 92/1/1
f 93/15/1 94/16/1 95/10/1 96/9/1
f 97/13/1 98/14/1 99/2/1 100/1/1
f 101/15/1 102/16/1 103/10/1 104/9/1
f 105/13/1 106/14/1 107/2/1 108/1/1
f 109/15/1 110/16/1 111/10/1 112/9/1
f 113/13/1 114/14/1 115/2/1 116/1/1
f 117/15/1 118/16/1 119/10/1 120/9/1
f 121/13/1 122/14/1 123/2/1 124/1/1
f 125/15/1 126/16/1 127/10/1 128/9/1
f 129/17/1 130/18/1 131/14/1 132/13/1
f 133/17/1 134/18/1 135/14/1 136/13/1
f 137/17/1 138/18/1 139/14/1 140/13/1
f 141/17/1 142/18/1 143/14/1 144/13/1
f 145/17/1 146/18/1 147/14/1 148/13/1
f 149/17/1 150/18/1 151/14/1 152/13/1
f 153/17/1 154/18/1 155/14/1 156/13/1
f 157/17/1 158/18/1 159/14/1 160/13/1
f 161/17/1 162/18/1 163/14/1 164/13/1
f 165/17/1 166/18/1 167/14/1 168/13/1
f 169/19/1 170/20/1 171/21/1 172/22/1
f 173/20/1 174/17/1 175/13/1 176/21/1
f 177/17/1 178/18/1 179/14/1 180/13/1
f 181/17/1 182/18/1 183/14/1 184/13/1
f 185/17/1 186/18/1 187/14/1 188/13/1
f 189/17/1 190/18/1 191/14/1 192/13/1
f 193/23/1 194/24/1 195/18/1 196/17/1
f 197/25/1 198/26/1 199/27/1 200/28/1
f 201/23/1 202/24/1 203/18/1 204/17/1
f 205/23/1 206/24/1 207/18/1 208/17/1
f 209/25/1 210/26/1 211/27/1 212/28/1
f 213/25/1 214/26/1 215/27/1 216/28/1
f 217/23/1 218/24/1 219/18/1 220/17/1
f 221/23/1 222/24/1 223/18/1 224/17/1
f 225/23/1 226/24/1 227/18/1 228/17/1
f 229/23/1 230/24/1 231/18/1 232/17/1
f 233/29/1 234/30/1 235/20/1 236/19/1
f 237/30/1 238/23/1 239/17/1 240/20/1
f 241/23/1 242/24/1 243/18/1 244/17/1
f 245/25/1 246/26/1 247/27/1 248/28/1
f 249/23/1 250/24/1 251/18/1 252/17/1
f 253/23/1 254/24/1 255/18/1 256/17/1
f 257/31/1 258/32/1 259/33/1 260/16/1
f 261/25/1 262/26/1 263/27/1 264/28/1
f 265/31/1 266/32/1 267/33/1 268/16/1
f 269/31/1 270/32/1 271/33/1 272/16/1
f 273/31/1 274/32/1 275/33/1 276/16/1
f 277/32/1 278/19/1 279/22/1 280/33/1
f 281/31/1 282/32/1 283/33/1 284/16/1
f 285/31/1 286/32/1 287/33/1 288/16/1
f 289/31/1 290/32/1 291/33/1 292/16/1
f 293/31/1 294/32/1 295/33/1 296/16/1
f 297/31/1 298/32/1 299/33/1 300/16/1
f 301/31/1 302/32/1 303/33/1 304/16/1
f 305/31/1 306/32/1 307/33/1 308/16/1
f 309/25/1 310/26/1 311/27/1 312/28/1
f 313/31/1 314/32/1 315/33/1 316/16/1
f 317/31/1 318/32/1 319/33/1 320/16/1
f 321/34/1 322/35/1 323/36/1 324/37/1
f 325/35/1 326/38/1 327/39/1 328/36/1
f 329/38/1 330/40/1 331/41/1 332/39/1
f 333/42/1 334/43/1 335/44/1 336/45/1
f 337/46/1 338/47/1 339/48/1 340/49/1
f 341/47/1 342/50/1 343/51/1 344/48/1
f 345/50/1 346/52/1 347/53/1 348/51/1
f 349/52/1 350/54/1 351/55/1 352/53/1
f 353/54/1 354/56/1 355/57/1 356/55/1
f 357/56/1 358/58/1 359/59/1 360/57/1
f 361/58/1 362/60/1 363/29/1 364/59/1
f 365/60/1 366/61/1 367/30/1 368/29/1
f 369/61/1 370/62/1 371/23/1 372/30/1
f 373/62/1 374/63/1 375/24/1 376/23/1
f 377/63/1 378/34/1 379/37/1 380/24/1
f 381/34/1 382/35/1 383/36/1 384/37/1
f 385/64/1 386/65/1 387/66/1 388/67/1
f 389/64/1 390/65/1 391/66/1 392/67/1
f 393/64/1 394/65/1 395/66/1 396/67/1
f 397/64/1 398/65/1 399/66/1 400/67/1
f 401/64/1 402/65/1 403/66/1 404/67/1
f 405/64/1 406/65/1 407/66/1 408/67/1
f 409/64/1 410/65/1 411/66/1 412/67/1
f 413/64/1 414/65/1 415/66/1 416/67/1
f 417/64/1 418/65/1 419/66/1 420/67/1
f 421/64/1 422/65/1 423/66/1 424/67/1
f 425/64/1 426/65/1 427/66/1 428/67/1
f 429/68/1 430/64/1 431/67/1 432/69/1
f 433/70/1 434/71/1 435/64/1 436/68/1
f 437/70/1 438/71/1 439/64/1 440/68/1
f 441/70/1 442/71/1 443/64/1 444/68/1
f 445/68/1 446/64/1 447/67/1 448/69/1
f 449/68/1 450/64/1 451/67/1 452/69/1
f 453/68/1 454/64/1 455/67/1 456/69/1
f 457/68/1 458/64/1 459/67/1 460/69/1
f 461/68/1 462/64/1 463/67/1 464/69/1
f 465/68/1 466/64/1 467/67/1 468/69/1
f 469/68/1 470/64/1 471/67/1 472/69/1
f 473/68/1 474/64/1 475/67/1 476/69/1
f 477/68/1 478/64/1 479/67/1 480/69/1
f 481/64/1 482/65/1 483/66/1 484/67/1
f 485/71/1 486/72/1 487/65/1 488/64/1
f 489/71/1 490/72/1 491/65/1 492/64/1
f 493/70/1 494/71/1 495/64/1 496/68/1
f 497/70/1 498/71/1 499/64/1 500/68/1
f 501/71/1 502/72/1 503/65/1 504/64/1
f 505/64/1 506/65/1 507/66/1 508/67/1
f 509/70/1 510/71/1 511/64/1 512/68/1
f 513/64/1 514/65/1 515/66/1 516/67/1
f 517/64/1 518/65/1 519/66/1 520/67/1
f 521/64/1 522/65/1 523/66/1 524/67/1
f 525/64/1 526/65/1 527/66/1 528/67/1
f 529/64/1 530/65/1 531/66/1 532/67/1
f 533/64/1 534/65/1 535/66/1 536/67/1
f 537/64/1 538/65/1 539/66/1 540/67/1
f 541/64/1 542/65/1 543/66/1 544/67/1
f 545/64/1 546/65/1 547/66/1 548/67/1
f 549/64/1 550/65/1 551/66/1 552/67/1
f 553/64/1 554/65/1 555/66/1 556/67/1
f 557/68/1 558/64/1 559/67/1 560/69/1
f 561/70/1 562/71/1 563/64/1 564/68/1
f 565/71/1 566/72/1 567/65/1 568/64/1
f 569/68/1 570/64/1 571/67/1 572/69/1
f 573/68/1 574/64/1 575/67/1 576/69/1
f 577/68/1 578/64/1 579/67/1 580/69/1
f 581/64/1 582/65/1 583/66/1 584/67/1
f 585/71/1 586/72/1 587/65/1 588/64/1
f 589/71/1 590/72/1 591/65/1 592/64/1
f 593/73/1 594/74/1 595/75/1 596/76/1
f 597/74/1 598/77/1 599/78/1 600/75/1
f 601/71/1 602/72/1 603/65/1 604/64/1
f 605/71/1 606/72/1 607/65/1 608/64/1
f 609/71/1 610/72/1 611/65/1 612/64/1
f 613/68/1 614/64/1 615/67/1 616/69/1
f 617/68/1 618/64/1 619/67/1 620/69/1
f 621/70/1 622/71/1 623/64/1 624/68/1
f 625/68/1 626/64/1 627/67/1 628/69/1
f 629/68/1 630/64/1 631/67/1 632/69/1
f 633/68/1 634/64/1 635/67/1 636/69/1
f 637/70/1 638/71/1 639/64/1 640/68/1
f 641/64/1 642/65/1 643/66/1 644/67/1
f 645/64/1 646/65/1 647/66/1 648/67/1
f 649/64/1 650/65/1 651/66/1 652/67/1
f 653/64/1 654/65/1 655/66/1 656/67/1
f 657/79/1 658/80/1 659/74/1 660/73/1
f 661/80/1 662/81/1 663/77/1 664/74/1
f 665/68/1 666/64/1 667/67/1 668/69/1
f 669/68/1 670/64/1 671/67/1 672/69/1
f 673/68/1 674/64/1 675/67/1 676/69/1
f 677/70/1 678/71/1 679/64/1 680/68/1
f 681/70/1 682/71/1 683/64/1 684/68/1
f 685/70/1 686/71/1 687/64/1 688/68/1
f 689/70/1 690/71/1 691/64/1 692/68/1
f 693/70/1 694/71/1 695/64/1 696/68/1
f 697/70/1 698/71/1 699/64/1 700/68/1
f 701/71/1 702/72/1 703/65/1 704/64/1
f 705/68/1 706/64/1 707/67/1 708/69/1
f 709/68/1 710/64/1 711/67/1 712/69/1
f 713/64/1 714/65/1 715/66/1 716/67/1
f 717/71/1 718/72/1 719/65/1 720/64/1
f 721/71/1 722/72/1 723/65/1 724/64/1
f 725/71/1 726/72/1 727/65/1 728/64/1
f 729/70/1 730/71/1 731/64/1 732/68/1
f 733/70/1 734/71/1 735/64/1 736/68/1
f 737/70/1 738/71/1 739/64/1 740/68/1
f 741/70/1 742/71/1 743/64/1 744/68/1
f 745/70/1 746/71/1 747/64/1 748/68/1
f 749/70/1 750/71/1 751/64/1 752/68/1
f 753/70/1 754/71/1 755/64/1 756/68/1
f 757/70/1 758/71/1 759/64/1 760/68/1
f 761/68/1 762/64/1 763/67/1 764/69/1
f 765/64/1 766/65/1 767/66/1 768/67/1
f 769/64/1 770/65/1 771/66/1 772/67/1
f 773/70/1 774/71/1 775/64/1 776/68/1
f 777/68/1 778/64/1 779/67/1 780/69/1
f 781/68/1 782/64/1 783/67/1 784/69/1
f 785/68/1 786/64/1 787/67/1 788/69/1
f 789/68/1 790/64/1 791/67/1 792/69/1
f 793/68/1 794/64/1 795/67/1 796/69/1
f 797/68/1 798/64/1 799/67/1 800/69/1
f 801/68/1 802/64/1 803/67/1 804/69/1
f 805/68/1 806/64/1 807/67/1 808/69/1
f 809/68/1 810/64/1 811/67/1 812/69/1
f 813/68/1 814/64/1 815/67/1 816/69/1
f 817/68/1 818/64/1 819/67/1 820/69/1
f 821/68/1 822/64/1 823/67/1 824/69/1
f 825/68/1 826/64/1 827/67/1 828/69/1
f 829/68/1 830/64/1 831/67/1 832/69/1
f 833/71/1 834/72/1 835/65/1 836/64/1
f 837/64/1 838/65/1 839/66/1 840/67/1
f 841/64/1 842/65/1 843/66/1 844/67/1
f 845/68/1 846/64/1 847/67/1 848/69/1
f 849/68/1 850/64/1 851/67/1 852/69/1
f 853/68/1 854/64/1 855/67/1 856/69/1
f 857/68/1 858/64/1 859/67/1 860/69/1
f 861/68/1 862/64/1 863/67/1 864/69/1
f 865/68/1 866/64/1 867/67/1 868/69/1
f 869/70/1 870/71/1 871/64/1 872/68/1
f 873/70/1 874/71/1 875/64/1 876/68/1
f 877/70/1 878/71/1 879/64/1 880/68/1
f 881/68/1 882/64/1 883/67/1 884/69/1
f 885/64/1 886/65/1 887/66/1 888/67/1
f 889/64/1 890/65/1 891/66/1 892/67/1
f 893/64/1 894/65/1 895/66/1 896/67/1
f 897/71/1 898/72/1 899/65/1 900/64/1
f 901/71/1 902/72/1 903/65/1 904/64/1
f 905/68/1 906/64/1 907/67/1 908/69/1
f 909/70/1 910/71/1 911/64/1 912/68/1
f 913/70/1 914/71/1 915/64/1 916/68/1
f 917/70/1 918/71/1 919/64/1 920/68/1
f 921/70/1 922/71/1 923/64/1 924/68/1
f 925/70/1 926/71/1 927/64/1 928/68/1
f 929/70/1 930/71/1 931/64/1 932/68/1
f 933/68/1 934/64/1 935/67/1 936/69/1
f 937/64/1 938/65/1 939/66/1 940/67/1
f 941/82/1 942/83/1 943/84/1 944/85/1
f 945/64/1 946/65/1 947/66/1 948/67/1
f 949/71/1 950/72/1 951/65/1 952/64/1
f 953/71/1 954/72/1 955/65/1 956/64/1
f 957/71/1 958/72/1 959/65/1 960/64/1

