# Tiled2Unity generated file. Do not modify by hand.
# Wavefront file for 'Rogue_mesh_0011.obj'

# Vertices (Count = 1024)
v 0 -8 0
v -8 -8 0
v -8 0 0
v 0 0 0
v -8 -8 0
v -16 -8 0
v -16 0 0
v -8 0 0
v -16 -8 0
v -24 -8 0
v -24 0 0
v -16 0 0
v -24 -8 0
v -32 -8 0
v -32 0 0
v -24 0 0
v -32 -8 0
v -40 -8 0
v -40 0 0
v -32 0 0
v -40 -8 0
v -48 -8 0
v -48 0 0
v -40 0 0
v -48 -8 0
v -56 -8 0
v -56 0 0
v -48 0 0
v -56 -8 0
v -64 -8 0
v -64 0 0
v -56 0 0
v -64 -8 0
v -72 -8 0
v -72 0 0
v -64 0 0
v -72 -8 0
v -80 -8 0
v -80 0 0
v -72 0 0
v -80 -8 0
v -88 -8 0
v -88 0 0
v -80 0 0
v -88 -8 0
v -96 -8 0
v -96 0 0
v -88 0 0
v -96 -8 0
v -104 -8 0
v -104 0 0
v -96 0 0
v -104 -8 0
v -112 -8 0
v -112 0 0
v -104 0 0
v -112 -8 0
v -120 -8 0
v -120 0 0
v -112 0 0
v -120 -8 0
v -128 -8 0
v -128 0 0
v -120 0 0
v 0 -16 0
v -8 -16 0
v -8 -8 0
v 0 -8 0
v -8 -16 0
v -16 -16 0
v -16 -8 0
v -8 -8 0
v -16 -16 0
v -24 -16 0
v -24 -8 0
v -16 -8 0
v -24 -16 0
v -32 -16 0
v -32 -8 0
v -24 -8 0
v -32 -16 0
v -40 -16 0
v -40 -8 0
v -32 -8 0
v -40 -16 0
v -48 -16 0
v -48 -8 0
v -40 -8 0
v -48 -16 0
v -56 -16 0
v -56 -8 0
v -48 -8 0
v -56 -16 0
v -64 -16 0
v -64 -8 0
v -56 -8 0
v -64 -16 0
v -72 -16 0
v -72 -8 0
v -64 -8 0
v -72 -16 0
v -80 -16 0
v -80 -8 0
v -72 -8 0
v -80 -16 0
v -88 -16 0
v -88 -8 0
v -80 -8 0
v -88 -16 0
v -96 -16 0
v -96 -8 0
v -88 -8 0
v -96 -16 0
v -104 -16 0
v -104 -8 0
v -96 -8 0
v -104 -16 0
v -112 -16 0
v -112 -8 0
v -104 -8 0
v -112 -16 0
v -120 -16 0
v -120 -8 0
v -112 -8 0
v -120 -16 0
v -128 -16 0
v -128 -8 0
v -120 -8 0
v 0 -24 0
v -8 -24 0
v -8 -16 0
v 0 -16 0
v -8 -24 0
v -16 -24 0
v -16 -16 0
v -8 -16 0
v -16 -24 0
v -24 -24 0
v -24 -16 0
v -16 -16 0
v -24 -24 0
v -32 -24 0
v -32 -16 0
v -24 -16 0
v -32 -24 0
v -40 -24 0
v -40 -16 0
v -32 -16 0
v -40 -24 0
v -48 -24 0
v -48 -16 0
v -40 -16 0
v -48 -24 0
v -56 -24 0
v -56 -16 0
v -48 -16 0
v -56 -24 0
v -64 -24 0
v -64 -16 0
v -56 -16 0
v -64 -24 0
v -72 -24 0
v -72 -16 0
v -64 -16 0
v -72 -24 0
v -80 -24 0
v -80 -16 0
v -72 -16 0
v -80 -24 0
v -88 -24 0
v -88 -16 0
v -80 -16 0
v -88 -24 0
v -96 -24 0
v -96 -16 0
v -88 -16 0
v -96 -24 0
v -104 -24 0
v -104 -16 0
v -96 -16 0
v -104 -24 0
v -112 -24 0
v -112 -16 0
v -104 -16 0
v -112 -24 0
v -120 -24 0
v -120 -16 0
v -112 -16 0
v -120 -24 0
v -128 -24 0
v -128 -16 0
v -120 -16 0
v 0 -32 0
v -8 -32 0
v -8 -24 0
v 0 -24 0
v -8 -32 0
v -16 -32 0
v -16 -24 0
v -8 -24 0
v -16 -32 0
v -24 -32 0
v -24 -24 0
v -16 -24 0
v -24 -32 0
v -32 -32 0
v -32 -24 0
v -24 -24 0
v -32 -32 0
v -40 -32 0
v -40 -24 0
v -32 -24 0
v -40 -32 0
v -48 -32 0
v -48 -24 0
v -40 -24 0
v -48 -32 0
v -56 -32 0
v -56 -24 0
v -48 -24 0
v -56 -32 0
v -64 -32 0
v -64 -24 0
v -56 -24 0
v -64 -32 0
v -72 -32 0
v -72 -24 0
v -64 -24 0
v -72 -32 0
v -80 -32 0
v -80 -24 0
v -72 -24 0
v -80 -32 0
v -88 -32 0
v -88 -24 0
v -80 -24 0
v -88 -32 0
v -96 -32 0
v -96 -24 0
v -88 -24 0
v -96 -32 0
v -104 -32 0
v -104 -24 0
v -96 -24 0
v -104 -32 0
v -112 -32 0
v -112 -24 0
v -104 -24 0
v -112 -32 0
v -120 -32 0
v -120 -24 0
v -112 -24 0
v -120 -32 0
v -128 -32 0
v -128 -24 0
v -120 -24 0
v 0 -40 0
v -8 -40 0
v -8 -32 0
v 0 -32 0
v -8 -40 0
v -16 -40 0
v -16 -32 0
v -8 -32 0
v -16 -40 0
v -24 -40 0
v -24 -32 0
v -16 -32 0
v -24 -40 0
v -32 -40 0
v -32 -32 0
v -24 -32 0
v -32 -40 0
v -40 -40 0
v -40 -32 0
v -32 -32 0
v -40 -40 0
v -48 -40 0
v -48 -32 0
v -40 -32 0
v -48 -40 0
v -56 -40 0
v -56 -32 0
v -48 -32 0
v -56 -40 0
v -64 -40 0
v -64 -32 0
v -56 -32 0
v -64 -40 0
v -72 -40 0
v -72 -32 0
v -64 -32 0
v -72 -40 0
v -80 -40 0
v -80 -32 0
v -72 -32 0
v -80 -40 0
v -88 -40 0
v -88 -32 0
v -80 -32 0
v -88 -40 0
v -96 -40 0
v -96 -32 0
v -88 -32 0
v -96 -40 0
v -104 -40 0
v -104 -32 0
v -96 -32 0
v -104 -40 0
v -112 -40 0
v -112 -32 0
v -104 -32 0
v -112 -40 0
v -120 -40 0
v -120 -32 0
v -112 -32 0
v -120 -40 0
v -128 -40 0
v -128 -32 0
v -120 -32 0
v 0 -48 0
v -8 -48 0
v -8 -40 0
v 0 -40 0
v -8 -48 0
v -16 -48 0
v -16 -40 0
v -8 -40 0
v -16 -48 0
v -24 -48 0
v -24 -40 0
v -16 -40 0
v -24 -48 0
v -32 -48 0
v -32 -40 0
v -24 -40 0
v -32 -48 0
v -40 -48 0
v -40 -40 0
v -32 -40 0
v -40 -48 0
v -48 -48 0
v -48 -40 0
v -40 -40 0
v -48 -48 0
v -56 -48 0
v -56 -40 0
v -48 -40 0
v -56 -48 0
v -64 -48 0
v -64 -40 0
v -56 -40 0
v -64 -48 0
v -72 -48 0
v -72 -40 0
v -64 -40 0
v -72 -48 0
v -80 -48 0
v -80 -40 0
v -72 -40 0
v -80 -48 0
v -88 -48 0
v -88 -40 0
v -80 -40 0
v -88 -48 0
v -96 -48 0
v -96 -40 0
v -88 -40 0
v -96 -48 0
v -104 -48 0
v -104 -40 0
v -96 -40 0
v -104 -48 0
v -112 -48 0
v -112 -40 0
v -104 -40 0
v -112 -48 0
v -120 -48 0
v -120 -40 0
v -112 -40 0
v -120 -48 0
v -128 -48 0
v -128 -40 0
v -120 -40 0
v 0 -56 0
v -8 -56 0
v -8 -48 0
v 0 -48 0
v -8 -56 0
v -16 -56 0
v -16 -48 0
v -8 -48 0
v -16 -56 0
v -24 -56 0
v -24 -48 0
v -16 -48 0
v -24 -56 0
v -32 -56 0
v -32 -48 0
v -24 -48 0
v -32 -56 0
v -40 -56 0
v -40 -48 0
v -32 -48 0
v -40 -56 0
v -48 -56 0
v -48 -48 0
v -40 -48 0
v -48 -56 0
v -56 -56 0
v -56 -48 0
v -48 -48 0
v -56 -56 0
v -64 -56 0
v -64 -48 0
v -56 -48 0
v -64 -56 0
v -72 -56 0
v -72 -48 0
v -64 -48 0
v -72 -56 0
v -80 -56 0
v -80 -48 0
v -72 -48 0
v -80 -56 0
v -88 -56 0
v -88 -48 0
v -80 -48 0
v -88 -56 0
v -96 -56 0
v -96 -48 0
v -88 -48 0
v -96 -56 0
v -104 -56 0
v -104 -48 0
v -96 -48 0
v -104 -56 0
v -112 -56 0
v -112 -48 0
v -104 -48 0
v -112 -56 0
v -120 -56 0
v -120 -48 0
v -112 -48 0
v -120 -56 0
v -128 -56 0
v -128 -48 0
v -120 -48 0
v 0 -64 0
v -8 -64 0
v -8 -56 0
v 0 -56 0
v -8 -64 0
v -16 -64 0
v -16 -56 0
v -8 -56 0
v -16 -64 0
v -24 -64 0
v -24 -56 0
v -16 -56 0
v -24 -64 0
v -32 -64 0
v -32 -56 0
v -24 -56 0
v -32 -64 0
v -40 -64 0
v -40 -56 0
v -32 -56 0
v -40 -64 0
v -48 -64 0
v -48 -56 0
v -40 -56 0
v -48 -64 0
v -56 -64 0
v -56 -56 0
v -48 -56 0
v -56 -64 0
v -64 -64 0
v -64 -56 0
v -56 -56 0
v -64 -64 0
v -72 -64 0
v -72 -56 0
v -64 -56 0
v -72 -64 0
v -80 -64 0
v -80 -56 0
v -72 -56 0
v -80 -64 0
v -88 -64 0
v -88 -56 0
v -80 -56 0
v -88 -64 0
v -96 -64 0
v -96 -56 0
v -88 -56 0
v -96 -64 0
v -104 -64 0
v -104 -56 0
v -96 -56 0
v -104 -64 0
v -112 -64 0
v -112 -56 0
v -104 -56 0
v -112 -64 0
v -120 -64 0
v -120 -56 0
v -112 -56 0
v -120 -64 0
v -128 -64 0
v -128 -56 0
v -120 -56 0
v 0 -72 0
v -8 -72 0
v -8 -64 0
v 0 -64 0
v -8 -72 0
v -16 -72 0
v -16 -64 0
v -8 -64 0
v -16 -72 0
v -24 -72 0
v -24 -64 0
v -16 -64 0
v -24 -72 0
v -32 -72 0
v -32 -64 0
v -24 -64 0
v -32 -72 0
v -40 -72 0
v -40 -64 0
v -32 -64 0
v -40 -72 0
v -48 -72 0
v -48 -64 0
v -40 -64 0
v -48 -72 0
v -56 -72 0
v -56 -64 0
v -48 -64 0
v -56 -72 0
v -64 -72 0
v -64 -64 0
v -56 -64 0
v -64 -72 0
v -72 -72 0
v -72 -64 0
v -64 -64 0
v -72 -72 0
v -80 -72 0
v -80 -64 0
v -72 -64 0
v -80 -72 0
v -88 -72 0
v -88 -64 0
v -80 -64 0
v -88 -72 0
v -96 -72 0
v -96 -64 0
v -88 -64 0
v -96 -72 0
v -104 -72 0
v -104 -64 0
v -96 -64 0
v -104 -72 0
v -112 -72 0
v -112 -64 0
v -104 -64 0
v -112 -72 0
v -120 -72 0
v -120 -64 0
v -112 -64 0
v -120 -72 0
v -128 -72 0
v -128 -64 0
v -120 -64 0
v 0 -80 0
v -8 -80 0
v -8 -72 0
v 0 -72 0
v -8 -80 0
v -16 -80 0
v -16 -72 0
v -8 -72 0
v -16 -80 0
v -24 -80 0
v -24 -72 0
v -16 -72 0
v -24 -80 0
v -32 -80 0
v -32 -72 0
v -24 -72 0
v -32 -80 0
v -40 -80 0
v -40 -72 0
v -32 -72 0
v -40 -80 0
v -48 -80 0
v -48 -72 0
v -40 -72 0
v -48 -80 0
v -56 -80 0
v -56 -72 0
v -48 -72 0
v -56 -80 0
v -64 -80 0
v -64 -72 0
v -56 -72 0
v -64 -80 0
v -72 -80 0
v -72 -72 0
v -64 -72 0
v -72 -80 0
v -80 -80 0
v -80 -72 0
v -72 -72 0
v -80 -80 0
v -88 -80 0
v -88 -72 0
v -80 -72 0
v -88 -80 0
v -96 -80 0
v -96 -72 0
v -88 -72 0
v -96 -80 0
v -104 -80 0
v -104 -72 0
v -96 -72 0
v -104 -80 0
v -112 -80 0
v -112 -72 0
v -104 -72 0
v -112 -80 0
v -120 -80 0
v -120 -72 0
v -112 -72 0
v -120 -80 0
v -128 -80 0
v -128 -72 0
v -120 -72 0
v 0 -88 0
v -8 -88 0
v -8 -80 0
v 0 -80 0
v -8 -88 0
v -16 -88 0
v -16 -80 0
v -8 -80 0
v -16 -88 0
v -24 -88 0
v -24 -80 0
v -16 -80 0
v -24 -88 0
v -32 -88 0
v -32 -80 0
v -24 -80 0
v -32 -88 0
v -40 -88 0
v -40 -80 0
v -32 -80 0
v -40 -88 0
v -48 -88 0
v -48 -80 0
v -40 -80 0
v -48 -88 0
v -56 -88 0
v -56 -80 0
v -48 -80 0
v -56 -88 0
v -64 -88 0
v -64 -80 0
v -56 -80 0
v -64 -88 0
v -72 -88 0
v -72 -80 0
v -64 -80 0
v -72 -88 0
v -80 -88 0
v -80 -80 0
v -72 -80 0
v -80 -88 0
v -88 -88 0
v -88 -80 0
v -80 -80 0
v -88 -88 0
v -96 -88 0
v -96 -80 0
v -88 -80 0
v -96 -88 0
v -104 -88 0
v -104 -80 0
v -96 -80 0
v -104 -88 0
v -112 -88 0
v -112 -80 0
v -104 -80 0
v -112 -88 0
v -120 -88 0
v -120 -80 0
v -112 -80 0
v -120 -88 0
v -128 -88 0
v -128 -80 0
v -120 -80 0
v 0 -96 0
v -8 -96 0
v -8 -88 0
v 0 -88 0
v -8 -96 0
v -16 -96 0
v -16 -88 0
v -8 -88 0
v -16 -96 0
v -24 -96 0
v -24 -88 0
v -16 -88 0
v -24 -96 0
v -32 -96 0
v -32 -88 0
v -24 -88 0
v -32 -96 0
v -40 -96 0
v -40 -88 0
v -32 -88 0
v -40 -96 0
v -48 -96 0
v -48 -88 0
v -40 -88 0
v -48 -96 0
v -56 -96 0
v -56 -88 0
v -48 -88 0
v -56 -96 0
v -64 -96 0
v -64 -88 0
v -56 -88 0
v -64 -96 0
v -72 -96 0
v -72 -88 0
v -64 -88 0
v -72 -96 0
v -80 -96 0
v -80 -88 0
v -72 -88 0
v -80 -96 0
v -88 -96 0
v -88 -88 0
v -80 -88 0
v -88 -96 0
v -96 -96 0
v -96 -88 0
v -88 -88 0
v -96 -96 0
v -104 -96 0
v -104 -88 0
v -96 -88 0
v -104 -96 0
v -112 -96 0
v -112 -88 0
v -104 -88 0
v -112 -96 0
v -120 -96 0
v -120 -88 0
v -112 -88 0
v -120 -96 0
v -128 -96 0
v -128 -88 0
v -120 -88 0
v 0 -104 0
v -8 -104 0
v -8 -96 0
v 0 -96 0
v -8 -104 0
v -16 -104 0
v -16 -96 0
v -8 -96 0
v -16 -104 0
v -24 -104 0
v -24 -96 0
v -16 -96 0
v -24 -104 0
v -32 -104 0
v -32 -96 0
v -24 -96 0
v -32 -104 0
v -40 -104 0
v -40 -96 0
v -32 -96 0
v -40 -104 0
v -48 -104 0
v -48 -96 0
v -40 -96 0
v -48 -104 0
v -56 -104 0
v -56 -96 0
v -48 -96 0
v -56 -104 0
v -64 -104 0
v -64 -96 0
v -56 -96 0
v -64 -104 0
v -72 -104 0
v -72 -96 0
v -64 -96 0
v -72 -104 0
v -80 -104 0
v -80 -96 0
v -72 -96 0
v -80 -104 0
v -88 -104 0
v -88 -96 0
v -80 -96 0
v -88 -104 0
v -96 -104 0
v -96 -96 0
v -88 -96 0
v -96 -104 0
v -104 -104 0
v -104 -96 0
v -96 -96 0
v -104 -104 0
v -112 -104 0
v -112 -96 0
v -104 -96 0
v -112 -104 0
v -120 -104 0
v -120 -96 0
v -112 -96 0
v -120 -104 0
v -128 -104 0
v -128 -96 0
v -120 -96 0
v 0 -112 0
v -8 -112 0
v -8 -104 0
v 0 -104 0
v -8 -112 0
v -16 -112 0
v -16 -104 0
v -8 -104 0
v -16 -112 0
v -24 -112 0
v -24 -104 0
v -16 -104 0
v -24 -112 0
v -32 -112 0
v -32 -104 0
v -24 -104 0
v -32 -112 0
v -40 -112 0
v -40 -104 0
v -32 -104 0
v -40 -112 0
v -48 -112 0
v -48 -104 0
v -40 -104 0
v -48 -112 0
v -56 -112 0
v -56 -104 0
v -48 -104 0
v -56 -112 0
v -64 -112 0
v -64 -104 0
v -56 -104 0
v -64 -112 0
v -72 -112 0
v -72 -104 0
v -64 -104 0
v -72 -112 0
v -80 -112 0
v -80 -104 0
v -72 -104 0
v -80 -112 0
v -88 -112 0
v -88 -104 0
v -80 -104 0
v -88 -112 0
v -96 -112 0
v -96 -104 0
v -88 -104 0
v -96 -112 0
v -104 -112 0
v -104 -104 0
v -96 -104 0
v -104 -112 0
v -112 -112 0
v -112 -104 0
v -104 -104 0
v -112 -112 0
v -120 -112 0
v -120 -104 0
v -112 -104 0
v -120 -112 0
v -128 -112 0
v -128 -104 0
v -120 -104 0
v 0 -120 0
v -8 -120 0
v -8 -112 0
v 0 -112 0
v -8 -120 0
v -16 -120 0
v -16 -112 0
v -8 -112 0
v -16 -120 0
v -24 -120 0
v -24 -112 0
v -16 -112 0
v -24 -120 0
v -32 -120 0
v -32 -112 0
v -24 -112 0
v -32 -120 0
v -40 -120 0
v -40 -112 0
v -32 -112 0
v -40 -120 0
v -48 -120 0
v -48 -112 0
v -40 -112 0
v -48 -120 0
v -56 -120 0
v -56 -112 0
v -48 -112 0
v -56 -120 0
v -64 -120 0
v -64 -112 0
v -56 -112 0
v -64 -120 0
v -72 -120 0
v -72 -112 0
v -64 -112 0
v -72 -120 0
v -80 -120 0
v -80 -112 0
v -72 -112 0
v -80 -120 0
v -88 -120 0
v -88 -112 0
v -80 -112 0
v -88 -120 0
v -96 -120 0
v -96 -112 0
v -88 -112 0
v -96 -120 0
v -104 -120 0
v -104 -112 0
v -96 -112 0
v -104 -120 0
v -112 -120 0
v -112 -112 0
v -104 -112 0
v -112 -120 0
v -120 -120 0
v -120 -112 0
v -112 -112 0
v -120 -120 0
v -128 -120 0
v -128 -112 0
v -120 -112 0
v 0 -128 0
v -8 -128 0
v -8 -120 0
v 0 -120 0
v -8 -128 0
v -16 -128 0
v -16 -120 0
v -8 -120 0
v -16 -128 0
v -24 -128 0
v -24 -120 0
v -16 -120 0
v -24 -128 0
v -32 -128 0
v -32 -120 0
v -24 -120 0
v -32 -128 0
v -40 -128 0
v -40 -120 0
v -32 -120 0
v -40 -128 0
v -48 -128 0
v -48 -120 0
v -40 -120 0
v -48 -128 0
v -56 -128 0
v -56 -120 0
v -48 -120 0
v -56 -128 0
v -64 -128 0
v -64 -120 0
v -56 -120 0
v -64 -128 0
v -72 -128 0
v -72 -120 0
v -64 -120 0
v -72 -128 0
v -80 -128 0
v -80 -120 0
v -72 -120 0
v -80 -128 0
v -88 -128 0
v -88 -120 0
v -80 -120 0
v -88 -128 0
v -96 -128 0
v -96 -120 0
v -88 -120 0
v -96 -128 0
v -104 -128 0
v -104 -120 0
v -96 -120 0
v -104 -128 0
v -112 -128 0
v -112 -120 0
v -104 -120 0
v -112 -128 0
v -120 -128 0
v -120 -120 0
v -112 -120 0
v -120 -128 0
v -128 -128 0
v -128 -120 0
v -120 -120 0

# Texture cooridinates (Count = 9)
vt 0.4411765 0.8979592
vt 0.4558823 0.8979592
vt 0.4558823 0.9081632
vt 0.4411765 0.9081632
vt 0.4264706 0.8877551
vt 0.4411765 0.8877551
vt 0.4264706 0.8979592
vt 0.4558823 0.8877551
vt 0.4264706 0.9081632

# Normal
vn 0 0 -1

# Mesh description
g Rogue_mesh_0011

# Faces
f 1/1/1 2/2/1 3/3/1 4/4/1
f 5/1/1 6/2/1 7/3/1 8/4/1
f 9/1/1 10/2/1 11/3/1 12/4/1
f 13/1/1 14/2/1 15/3/1 16/4/1
f 17/1/1 18/2/1 19/3/1 20/4/1
f 21/5/1 22/6/1 23/1/1 24/7/1
f 25/6/1 26/8/1 27/2/1 28/1/1
f 29/6/1 30/8/1 31/2/1 32/1/1
f 33/7/1 34/1/1 35/4/1 36/9/1
f 37/5/1 38/6/1 39/1/1 40/7/1
f 41/6/1 42/8/1 43/2/1 44/1/1
f 45/5/1 46/6/1 47/1/1 48/7/1
f 49/6/1 50/8/1 51/2/1 52/1/1
f 53/1/1 54/2/1 55/3/1 56/4/1
f 57/6/1 58/8/1 59/2/1 60/1/1
f 61/5/1 62/6/1 63/1/1 64/7/1
f 65/6/1 66/8/1 67/2/1 68/1/1
f 69/6/1 70/8/1 71/2/1 72/1/1
f 73/6/1 74/8/1 75/2/1 76/1/1
f 77/6/1 78/8/1 79/2/1 80/1/1
f 81/6/1 82/8/1 83/2/1 84/1/1
f 85/6/1 86/8/1 87/2/1 88/1/1
f 89/1/1 90/2/1 91/3/1 92/4/1
f 93/6/1 94/8/1 95/2/1 96/1/1
f 97/5/1 98/6/1 99/1/1 100/7/1
f 101/6/1 102/8/1 103/2/1 104/1/1
f 105/5/1 106/6/1 107/1/1 108/7/1
f 109/6/1 110/8/1 111/2/1 112/1/1
f 113/1/1 114/2/1 115/3/1 116/4/1
f 117/1/1 118/2/1 119/3/1 120/4/1
f 121/7/1 122/1/1 123/4/1 124/9/1
f 125/5/1 126/6/1 127/1/1 128/7/1
f 129/7/1 130/1/1 131/4/1 132/9/1
f 133/7/1 134/1/1 135/4/1 136/9/1
f 137/1/1 138/2/1 139/3/1 140/4/1
f 141/5/1 142/6/1 143/1/1 144/7/1
f 145/6/1 146/8/1 147/2/1 148/1/1
f 149/6/1 150/8/1 151/2/1 152/1/1
f 153/6/1 154/8/1 155/2/1 156/1/1
f 157/5/1 158/6/1 159/1/1 160/7/1
f 161/5/1 162/6/1 163/1/1 164/7/1
f 165/6/1 166/8/1 167/2/1 168/1/1
f 169/5/1 170/6/1 171/1/1 172/7/1
f 173/6/1 174/8/1 175/2/1 176/1/1
f 177/1/1 178/2/1 179/3/1 180/4/1
f 181/6/1 182/8/1 183/2/1 184/1/1
f 185/5/1 186/6/1 187/1/1 188/7/1
f 189/5/1 190/6/1 191/1/1 192/7/1
f 193/5/1 194/6/1 195/1/1 196/7/1
f 197/5/1 198/6/1 199/1/1 200/7/1
f 201/7/1 202/1/1 203/4/1 204/9/1
f 205/1/1 206/2/1 207/3/1 208/4/1
f 209/1/1 210/2/1 211/3/1 212/4/1
f 213/1/1 214/2/1 215/3/1 216/4/1
f 217/6/1 218/8/1 219/2/1 220/1/1
f 221/5/1 222/6/1 223/1/1 224/7/1
f 225/6/1 226/8/1 227/2/1 228/1/1
f 229/5/1 230/6/1 231/1/1 232/7/1
f 233/6/1 234/8/1 235/2/1 236/1/1
f 237/1/1 238/2/1 239/3/1 240/4/1
f 241/6/1 242/8/1 243/2/1 244/1/1
f 245/7/1 246/1/1 247/4/1 248/9/1
f 249/5/1 250/6/1 251/1/1 252/7/1
f 253/6/1 254/8/1 255/2/1 256/1/1
f 257/1/1 258/2/1 259/3/1 260/4/1
f 261/1/1 262/2/1 263/3/1 264/4/1
f 265/1/1 266/2/1 267/3/1 268/4/1
f 269/1/1 270/2/1 271/3/1 272/4/1
f 273/6/1 274/8/1 275/2/1 276/1/1
f 277/6/1 278/8/1 279/2/1 280/1/1
f 281/5/1 282/6/1 283/1/1 284/7/1
f 285/6/1 286/8/1 287/2/1 288/1/1
f 289/7/1 290/1/1 291/4/1 292/9/1
f 293/5/1 294/6/1 295/1/1 296/7/1
f 297/6/1 298/8/1 299/2/1 300/1/1
f 301/6/1 302/8/1 303/2/1 304/1/1
f 305/7/1 306/1/1 307/4/1 308/9/1
f 309/5/1 310/6/1 311/1/1 312/7/1
f 313/5/1 314/6/1 315/1/1 316/7/1
f 317/6/1 318/8/1 319/2/1 320/1/1
f 321/1/1 322/2/1 323/3/1 324/4/1
f 325/1/1 326/2/1 327/3/1 328/4/1
f 329/1/1 330/2/1 331/3/1 332/4/1
f 333/1/1 334/2/1 335/3/1 336/4/1
f 337/6/1 338/8/1 339/2/1 340/1/1
f 341/6/1 342/8/1 343/2/1 344/1/1
f 345/7/1 346/1/1 347/4/1 348/9/1
f 349/7/1 350/1/1 351/4/1 352/9/1
f 353/5/1 354/6/1 355/1/1 356/7/1
f 357/5/1 358/6/1 359/1/1 360/7/1
f 361/6/1 362/8/1 363/2/1 364/1/1
f 365/7/1 366/1/1 367/4/1 368/9/1
f 369/5/1 370/6/1 371/1/1 372/7/1
f 373/7/1 374/1/1 375/4/1 376/9/1
f 377/1/1 378/2/1 379/3/1 380/4/1
f 381/5/1 382/6/1 383/1/1 384/7/1
f 385/6/1 386/8/1 387/2/1 388/1/1
f 389/6/1 390/8/1 391/2/1 392/1/1
f 393/6/1 394/8/1 395/2/1 396/1/1
f 397/6/1 398/8/1 399/2/1 400/1/1
f 401/6/1 402/8/1 403/2/1 404/1/1
f 405/1/1 406/2/1 407/3/1 408/4/1
f 409/1/1 410/2/1 411/3/1 412/4/1
f 413/1/1 414/2/1 415/3/1 416/4/1
f 417/5/1 418/6/1 419/1/1 420/7/1
f 421/6/1 422/8/1 423/2/1 424/1/1
f 425/6/1 426/8/1 427/2/1 428/1/1
f 429/5/1 430/6/1 431/1/1 432/7/1
f 433/7/1 434/1/1 435/4/1 436/9/1
f 437/7/1 438/1/1 439/4/1 440/9/1
f 441/7/1 442/1/1 443/4/1 444/9/1
f 445/5/1 446/6/1 447/1/1 448/7/1
f 449/7/1 450/1/1 451/4/1 452/9/1
f 453/7/1 454/1/1 455/4/1 456/9/1
f 457/7/1 458/1/1 459/4/1 460/9/1
f 461/1/1 462/2/1 463/3/1 464/4/1
f 465/6/1 466/8/1 467/2/1 468/1/1
f 469/6/1 470/8/1 471/2/1 472/1/1
f 473/6/1 474/8/1 475/2/1 476/1/1
f 477/7/1 478/1/1 479/4/1 480/9/1
f 481/7/1 482/1/1 483/4/1 484/9/1
f 485/5/1 486/6/1 487/1/1 488/7/1
f 489/5/1 490/6/1 491/1/1 492/7/1
f 493/6/1 494/8/1 495/2/1 496/1/1
f 497/7/1 498/1/1 499/4/1 500/9/1
f 501/5/1 502/6/1 503/1/1 504/7/1
f 505/5/1 506/6/1 507/1/1 508/7/1
f 509/6/1 510/8/1 511/2/1 512/1/1
f 513/7/1 514/1/1 515/4/1 516/9/1
f 517/1/1 518/2/1 519/3/1 520/4/1
f 521/1/1 522/2/1 523/3/1 524/4/1
f 525/1/1 526/2/1 527/3/1 528/4/1
f 529/5/1 530/6/1 531/1/1 532/7/1
f 533/7/1 534/1/1 535/4/1 536/9/1
f 537/1/1 538/2/1 539/3/1 540/4/1
f 541/1/1 542/2/1 543/3/1 544/4/1
f 545/1/1 546/2/1 547/3/1 548/4/1
f 549/6/1 550/8/1 551/2/1 552/1/1
f 553/1/1 554/2/1 555/3/1 556/4/1
f 557/6/1 558/8/1 559/2/1 560/1/1
f 561/5/1 562/6/1 563/1/1 564/7/1
f 565/5/1 566/6/1 567/1/1 568/7/1
f 569/6/1 570/8/1 571/2/1 572/1/1
f 573/6/1 574/8/1 575/2/1 576/1/1
f 577/7/1 578/1/1 579/4/1 580/9/1
f 581/7/1 582/1/1 583/4/1 584/9/1
f 585/7/1 586/1/1 587/4/1 588/9/1
f 589/7/1 590/1/1 591/4/1 592/9/1
f 593/1/1 594/2/1 595/3/1 596/4/1
f 597/1/1 598/2/1 599/3/1 600/4/1
f 601/1/1 602/2/1 603/3/1 604/4/1
f 605/6/1 606/8/1 607/2/1 608/1/1
f 609/6/1 610/8/1 611/2/1 612/1/1
f 613/6/1 614/8/1 615/2/1 616/1/1
f 617/6/1 618/8/1 619/2/1 620/1/1
f 621/6/1 622/8/1 623/2/1 624/1/1
f 625/1/1 626/2/1 627/3/1 628/4/1
f 629/6/1 630/8/1 631/2/1 632/1/1
f 633/6/1 634/8/1 635/2/1 636/1/1
f 637/1/1 638/2/1 639/3/1 640/4/1
f 641/5/1 642/6/1 643/1/1 644/7/1
f 645/7/1 646/1/1 647/4/1 648/9/1
f 649/1/1 650/2/1 651/3/1 652/4/1
f 653/1/1 654/2/1 655/3/1 656/4/1
f 657/6/1 658/8/1 659/2/1 660/1/1
f 661/6/1 662/8/1 663/2/1 664/1/1
f 665/6/1 666/8/1 667/2/1 668/1/1
f 669/6/1 670/8/1 671/2/1 672/1/1
f 673/5/1 674/6/1 675/1/1 676/7/1
f 677/6/1 678/8/1 679/2/1 680/1/1
f 681/1/1 682/2/1 683/3/1 684/4/1
f 685/6/1 686/8/1 687/2/1 688/1/1
f 689/6/1 690/8/1 691/2/1 692/1/1
f 693/6/1 694/8/1 695/2/1 696/1/1
f 697/1/1 698/2/1 699/3/1 700/4/1
f 701/6/1 702/8/1 703/2/1 704/1/1
f 705/1/1 706/2/1 707/3/1 708/4/1
f 709/1/1 710/2/1 711/3/1 712/4/1
f 713/6/1 714/8/1 715/2/1 716/1/1
f 717/6/1 718/8/1 719/2/1 720/1/1
f 721/5/1 722/6/1 723/1/1 724/7/1
f 725/5/1 726/6/1 727/1/1 728/7/1
f 729/6/1 730/8/1 731/2/1 732/1/1
f 733/5/1 734/6/1 735/1/1 736/7/1
f 737/6/1 738/8/1 739/2/1 740/1/1
f 741/6/1 742/8/1 743/2/1 744/1/1
f 745/6/1 746/8/1 747/2/1 748/1/1
f 749/6/1 750/8/1 751/2/1 752/1/1
f 753/1/1 754/2/1 755/3/1 756/4/1
f 757/6/1 758/8/1 759/2/1 760/1/1
f 761/6/1 762/8/1 763/2/1 764/1/1
f 765/6/1 766/8/1 767/2/1 768/1/1
f 769/6/1 770/8/1 771/2/1 772/1/1
f 773/6/1 774/8/1 775/2/1 776/1/1
f 777/7/1 778/1/1 779/4/1 780/9/1
f 781/5/1 782/6/1 783/1/1 784/7/1
f 785/5/1 786/6/1 787/1/1 788/7/1
f 789/6/1 790/8/1 791/2/1 792/1/1
f 793/5/1 794/6/1 795/1/1 796/7/1
f 797/6/1 798/8/1 799/2/1 800/1/1
f 801/6/1 802/8/1 803/2/1 804/1/1
f 805/5/1 806/6/1 807/1/1 808/7/1
f 809/6/1 810/8/1 811/2/1 812/1/1
f 813/6/1 814/8/1 815/2/1 816/1/1
f 817/6/1 818/8/1 819/2/1 820/1/1
f 821/5/1 822/6/1 823/1/1 824/7/1
f 825/6/1 826/8/1 827/2/1 828/1/1
f 829/6/1 830/8/1 831/2/1 832/1/1
f 833/7/1 834/1/1 835/4/1 836/9/1
f 837/5/1 838/6/1 839/1/1 840/7/1
f 841/5/1 842/6/1 843/1/1 844/7/1
f 845/6/1 846/8/1 847/2/1 848/1/1
f 849/5/1 850/6/1 851/1/1 852/7/1
f 853/5/1 854/6/1 855/1/1 856/7/1
f 857/6/1 858/8/1 859/2/1 860/1/1
f 861/5/1 862/6/1 863/1/1 864/7/1
f 865/5/1 866/6/1 867/1/1 868/7/1
f 869/6/1 870/8/1 871/2/1 872/1/1
f 873/6/1 874/8/1 875/2/1 876/1/1
f 877/5/1 878/6/1 879/1/1 880/7/1
f 881/5/1 882/6/1 883/1/1 884/7/1
f 885/6/1 886/8/1 887/2/1 888/1/1
f 889/6/1 890/8/1 891/2/1 892/1/1
f 893/5/1 894/6/1 895/1/1 896/7/1
f 897/5/1 898/6/1 899/1/1 900/7/1
f 901/6/1 902/8/1 903/2/1 904/1/1
f 905/1/1 906/2/1 907/3/1 908/4/1
f 909/1/1 910/2/1 911/3/1 912/4/1
f 913/1/1 914/2/1 915/3/1 916/4/1
f 917/1/1 918/2/1 919/3/1 920/4/1
f 921/5/1 922/6/1 923/1/1 924/7/1
f 925/5/1 926/6/1 927/1/1 928/7/1
f 929/6/1 930/8/1 931/2/1 932/1/1
f 933/5/1 934/6/1 935/1/1 936/7/1
f 937/5/1 938/6/1 939/1/1 940/7/1
f 941/6/1 942/8/1 943/2/1 944/1/1
f 945/6/1 946/8/1 947/2/1 948/1/1
f 949/5/1 950/6/1 951/1/1 952/7/1
f 953/5/1 954/6/1 955/1/1 956/7/1
f 957/6/1 958/8/1 959/2/1 960/1/1
f 961/6/1 962/8/1 963/2/1 964/1/1
f 965/1/1 966/2/1 967/3/1 968/4/1
f 969/1/1 970/2/1 971/3/1 972/4/1
f 973/6/1 974/8/1 975/2/1 976/1/1
f 977/6/1 978/8/1 979/2/1 980/1/1
f 981/6/1 982/8/1 983/2/1 984/1/1
f 985/6/1 986/8/1 987/2/1 988/1/1
f 989/6/1 990/8/1 991/2/1 992/1/1
f 993/6/1 994/8/1 995/2/1 996/1/1
f 997/5/1 998/6/1 999/1/1 1000/7/1
f 1001/6/1 1002/8/1 1003/2/1 1004/1/1
f 1005/7/1 1006/1/1 1007/4/1 1008/9/1
f 1009/5/1 1010/6/1 1011/1/1 1012/7/1
f 1013/6/1 1014/8/1 1015/2/1 1016/1/1
f 1017/6/1 1018/8/1 1019/2/1 1020/1/1
f 1021/6/1 1022/8/1 1023/2/1 1024/1/1

