# Tiled2Unity generated file. Do not modify by hand.
# Wavefront file for 'Rogue_mesh_0010.obj'

# Vertices (Count = 1024)
v 0 -8 0
v -8 -8 0
v -8 0 0
v 0 0 0
v -8 -8 0
v -16 -8 0
v -16 0 0
v -8 0 0
v -16 -8 0
v -24 -8 0
v -24 0 0
v -16 0 0
v -24 -8 0
v -32 -8 0
v -32 0 0
v -24 0 0
v -32 -8 0
v -40 -8 0
v -40 0 0
v -32 0 0
v -40 -8 0
v -48 -8 0
v -48 0 0
v -40 0 0
v -48 -8 0
v -56 -8 0
v -56 0 0
v -48 0 0
v -56 -8 0
v -64 -8 0
v -64 0 0
v -56 0 0
v -64 -8 0
v -72 -8 0
v -72 0 0
v -64 0 0
v -72 -8 0
v -80 -8 0
v -80 0 0
v -72 0 0
v -80 -8 0
v -88 -8 0
v -88 0 0
v -80 0 0
v -88 -8 0
v -96 -8 0
v -96 0 0
v -88 0 0
v -96 -8 0
v -104 -8 0
v -104 0 0
v -96 0 0
v -104 -8 0
v -112 -8 0
v -112 0 0
v -104 0 0
v -112 -8 0
v -120 -8 0
v -120 0 0
v -112 0 0
v -120 -8 0
v -128 -8 0
v -128 0 0
v -120 0 0
v 0 -16 0
v -8 -16 0
v -8 -8 0
v 0 -8 0
v -8 -16 0
v -16 -16 0
v -16 -8 0
v -8 -8 0
v -16 -16 0
v -24 -16 0
v -24 -8 0
v -16 -8 0
v -24 -16 0
v -32 -16 0
v -32 -8 0
v -24 -8 0
v -32 -16 0
v -40 -16 0
v -40 -8 0
v -32 -8 0
v -40 -16 0
v -48 -16 0
v -48 -8 0
v -40 -8 0
v -48 -16 0
v -56 -16 0
v -56 -8 0
v -48 -8 0
v -56 -16 0
v -64 -16 0
v -64 -8 0
v -56 -8 0
v -64 -16 0
v -72 -16 0
v -72 -8 0
v -64 -8 0
v -72 -16 0
v -80 -16 0
v -80 -8 0
v -72 -8 0
v -80 -16 0
v -88 -16 0
v -88 -8 0
v -80 -8 0
v -88 -16 0
v -96 -16 0
v -96 -8 0
v -88 -8 0
v -96 -16 0
v -104 -16 0
v -104 -8 0
v -96 -8 0
v -104 -16 0
v -112 -16 0
v -112 -8 0
v -104 -8 0
v -112 -16 0
v -120 -16 0
v -120 -8 0
v -112 -8 0
v -120 -16 0
v -128 -16 0
v -128 -8 0
v -120 -8 0
v 0 -24 0
v -8 -24 0
v -8 -16 0
v 0 -16 0
v -8 -24 0
v -16 -24 0
v -16 -16 0
v -8 -16 0
v -16 -24 0
v -24 -24 0
v -24 -16 0
v -16 -16 0
v -24 -24 0
v -32 -24 0
v -32 -16 0
v -24 -16 0
v -32 -24 0
v -40 -24 0
v -40 -16 0
v -32 -16 0
v -40 -24 0
v -48 -24 0
v -48 -16 0
v -40 -16 0
v -48 -24 0
v -56 -24 0
v -56 -16 0
v -48 -16 0
v -56 -24 0
v -64 -24 0
v -64 -16 0
v -56 -16 0
v -64 -24 0
v -72 -24 0
v -72 -16 0
v -64 -16 0
v -72 -24 0
v -80 -24 0
v -80 -16 0
v -72 -16 0
v -80 -24 0
v -88 -24 0
v -88 -16 0
v -80 -16 0
v -88 -24 0
v -96 -24 0
v -96 -16 0
v -88 -16 0
v -96 -24 0
v -104 -24 0
v -104 -16 0
v -96 -16 0
v -104 -24 0
v -112 -24 0
v -112 -16 0
v -104 -16 0
v -112 -24 0
v -120 -24 0
v -120 -16 0
v -112 -16 0
v -120 -24 0
v -128 -24 0
v -128 -16 0
v -120 -16 0
v 0 -32 0
v -8 -32 0
v -8 -24 0
v 0 -24 0
v -8 -32 0
v -16 -32 0
v -16 -24 0
v -8 -24 0
v -16 -32 0
v -24 -32 0
v -24 -24 0
v -16 -24 0
v -24 -32 0
v -32 -32 0
v -32 -24 0
v -24 -24 0
v -32 -32 0
v -40 -32 0
v -40 -24 0
v -32 -24 0
v -40 -32 0
v -48 -32 0
v -48 -24 0
v -40 -24 0
v -48 -32 0
v -56 -32 0
v -56 -24 0
v -48 -24 0
v -56 -32 0
v -64 -32 0
v -64 -24 0
v -56 -24 0
v -64 -32 0
v -72 -32 0
v -72 -24 0
v -64 -24 0
v -72 -32 0
v -80 -32 0
v -80 -24 0
v -72 -24 0
v -80 -32 0
v -88 -32 0
v -88 -24 0
v -80 -24 0
v -88 -32 0
v -96 -32 0
v -96 -24 0
v -88 -24 0
v -96 -32 0
v -104 -32 0
v -104 -24 0
v -96 -24 0
v -104 -32 0
v -112 -32 0
v -112 -24 0
v -104 -24 0
v -112 -32 0
v -120 -32 0
v -120 -24 0
v -112 -24 0
v -120 -32 0
v -128 -32 0
v -128 -24 0
v -120 -24 0
v 0 -40 0
v -8 -40 0
v -8 -32 0
v 0 -32 0
v -8 -40 0
v -16 -40 0
v -16 -32 0
v -8 -32 0
v -16 -40 0
v -24 -40 0
v -24 -32 0
v -16 -32 0
v -24 -40 0
v -32 -40 0
v -32 -32 0
v -24 -32 0
v -32 -40 0
v -40 -40 0
v -40 -32 0
v -32 -32 0
v -40 -40 0
v -48 -40 0
v -48 -32 0
v -40 -32 0
v -48 -40 0
v -56 -40 0
v -56 -32 0
v -48 -32 0
v -56 -40 0
v -64 -40 0
v -64 -32 0
v -56 -32 0
v -64 -40 0
v -72 -40 0
v -72 -32 0
v -64 -32 0
v -72 -40 0
v -80 -40 0
v -80 -32 0
v -72 -32 0
v -80 -40 0
v -88 -40 0
v -88 -32 0
v -80 -32 0
v -88 -40 0
v -96 -40 0
v -96 -32 0
v -88 -32 0
v -96 -40 0
v -104 -40 0
v -104 -32 0
v -96 -32 0
v -104 -40 0
v -112 -40 0
v -112 -32 0
v -104 -32 0
v -112 -40 0
v -120 -40 0
v -120 -32 0
v -112 -32 0
v -120 -40 0
v -128 -40 0
v -128 -32 0
v -120 -32 0
v 0 -48 0
v -8 -48 0
v -8 -40 0
v 0 -40 0
v -8 -48 0
v -16 -48 0
v -16 -40 0
v -8 -40 0
v -16 -48 0
v -24 -48 0
v -24 -40 0
v -16 -40 0
v -24 -48 0
v -32 -48 0
v -32 -40 0
v -24 -40 0
v -32 -48 0
v -40 -48 0
v -40 -40 0
v -32 -40 0
v -40 -48 0
v -48 -48 0
v -48 -40 0
v -40 -40 0
v -48 -48 0
v -56 -48 0
v -56 -40 0
v -48 -40 0
v -56 -48 0
v -64 -48 0
v -64 -40 0
v -56 -40 0
v -64 -48 0
v -72 -48 0
v -72 -40 0
v -64 -40 0
v -72 -48 0
v -80 -48 0
v -80 -40 0
v -72 -40 0
v -80 -48 0
v -88 -48 0
v -88 -40 0
v -80 -40 0
v -88 -48 0
v -96 -48 0
v -96 -40 0
v -88 -40 0
v -96 -48 0
v -104 -48 0
v -104 -40 0
v -96 -40 0
v -104 -48 0
v -112 -48 0
v -112 -40 0
v -104 -40 0
v -112 -48 0
v -120 -48 0
v -120 -40 0
v -112 -40 0
v -120 -48 0
v -128 -48 0
v -128 -40 0
v -120 -40 0
v 0 -56 0
v -8 -56 0
v -8 -48 0
v 0 -48 0
v -8 -56 0
v -16 -56 0
v -16 -48 0
v -8 -48 0
v -16 -56 0
v -24 -56 0
v -24 -48 0
v -16 -48 0
v -24 -56 0
v -32 -56 0
v -32 -48 0
v -24 -48 0
v -32 -56 0
v -40 -56 0
v -40 -48 0
v -32 -48 0
v -40 -56 0
v -48 -56 0
v -48 -48 0
v -40 -48 0
v -48 -56 0
v -56 -56 0
v -56 -48 0
v -48 -48 0
v -56 -56 0
v -64 -56 0
v -64 -48 0
v -56 -48 0
v -64 -56 0
v -72 -56 0
v -72 -48 0
v -64 -48 0
v -72 -56 0
v -80 -56 0
v -80 -48 0
v -72 -48 0
v -80 -56 0
v -88 -56 0
v -88 -48 0
v -80 -48 0
v -88 -56 0
v -96 -56 0
v -96 -48 0
v -88 -48 0
v -96 -56 0
v -104 -56 0
v -104 -48 0
v -96 -48 0
v -104 -56 0
v -112 -56 0
v -112 -48 0
v -104 -48 0
v -112 -56 0
v -120 -56 0
v -120 -48 0
v -112 -48 0
v -120 -56 0
v -128 -56 0
v -128 -48 0
v -120 -48 0
v 0 -64 0
v -8 -64 0
v -8 -56 0
v 0 -56 0
v -8 -64 0
v -16 -64 0
v -16 -56 0
v -8 -56 0
v -16 -64 0
v -24 -64 0
v -24 -56 0
v -16 -56 0
v -24 -64 0
v -32 -64 0
v -32 -56 0
v -24 -56 0
v -32 -64 0
v -40 -64 0
v -40 -56 0
v -32 -56 0
v -40 -64 0
v -48 -64 0
v -48 -56 0
v -40 -56 0
v -48 -64 0
v -56 -64 0
v -56 -56 0
v -48 -56 0
v -56 -64 0
v -64 -64 0
v -64 -56 0
v -56 -56 0
v -64 -64 0
v -72 -64 0
v -72 -56 0
v -64 -56 0
v -72 -64 0
v -80 -64 0
v -80 -56 0
v -72 -56 0
v -80 -64 0
v -88 -64 0
v -88 -56 0
v -80 -56 0
v -88 -64 0
v -96 -64 0
v -96 -56 0
v -88 -56 0
v -96 -64 0
v -104 -64 0
v -104 -56 0
v -96 -56 0
v -104 -64 0
v -112 -64 0
v -112 -56 0
v -104 -56 0
v -112 -64 0
v -120 -64 0
v -120 -56 0
v -112 -56 0
v -120 -64 0
v -128 -64 0
v -128 -56 0
v -120 -56 0
v 0 -72 0
v -8 -72 0
v -8 -64 0
v 0 -64 0
v -8 -72 0
v -16 -72 0
v -16 -64 0
v -8 -64 0
v -16 -72 0
v -24 -72 0
v -24 -64 0
v -16 -64 0
v -24 -72 0
v -32 -72 0
v -32 -64 0
v -24 -64 0
v -32 -72 0
v -40 -72 0
v -40 -64 0
v -32 -64 0
v -40 -72 0
v -48 -72 0
v -48 -64 0
v -40 -64 0
v -48 -72 0
v -56 -72 0
v -56 -64 0
v -48 -64 0
v -56 -72 0
v -64 -72 0
v -64 -64 0
v -56 -64 0
v -64 -72 0
v -72 -72 0
v -72 -64 0
v -64 -64 0
v -72 -72 0
v -80 -72 0
v -80 -64 0
v -72 -64 0
v -80 -72 0
v -88 -72 0
v -88 -64 0
v -80 -64 0
v -88 -72 0
v -96 -72 0
v -96 -64 0
v -88 -64 0
v -96 -72 0
v -104 -72 0
v -104 -64 0
v -96 -64 0
v -104 -72 0
v -112 -72 0
v -112 -64 0
v -104 -64 0
v -112 -72 0
v -120 -72 0
v -120 -64 0
v -112 -64 0
v -120 -72 0
v -128 -72 0
v -128 -64 0
v -120 -64 0
v 0 -80 0
v -8 -80 0
v -8 -72 0
v 0 -72 0
v -8 -80 0
v -16 -80 0
v -16 -72 0
v -8 -72 0
v -16 -80 0
v -24 -80 0
v -24 -72 0
v -16 -72 0
v -24 -80 0
v -32 -80 0
v -32 -72 0
v -24 -72 0
v -32 -80 0
v -40 -80 0
v -40 -72 0
v -32 -72 0
v -40 -80 0
v -48 -80 0
v -48 -72 0
v -40 -72 0
v -48 -80 0
v -56 -80 0
v -56 -72 0
v -48 -72 0
v -56 -80 0
v -64 -80 0
v -64 -72 0
v -56 -72 0
v -64 -80 0
v -72 -80 0
v -72 -72 0
v -64 -72 0
v -72 -80 0
v -80 -80 0
v -80 -72 0
v -72 -72 0
v -80 -80 0
v -88 -80 0
v -88 -72 0
v -80 -72 0
v -88 -80 0
v -96 -80 0
v -96 -72 0
v -88 -72 0
v -96 -80 0
v -104 -80 0
v -104 -72 0
v -96 -72 0
v -104 -80 0
v -112 -80 0
v -112 -72 0
v -104 -72 0
v -112 -80 0
v -120 -80 0
v -120 -72 0
v -112 -72 0
v -120 -80 0
v -128 -80 0
v -128 -72 0
v -120 -72 0
v 0 -88 0
v -8 -88 0
v -8 -80 0
v 0 -80 0
v -8 -88 0
v -16 -88 0
v -16 -80 0
v -8 -80 0
v -16 -88 0
v -24 -88 0
v -24 -80 0
v -16 -80 0
v -24 -88 0
v -32 -88 0
v -32 -80 0
v -24 -80 0
v -32 -88 0
v -40 -88 0
v -40 -80 0
v -32 -80 0
v -40 -88 0
v -48 -88 0
v -48 -80 0
v -40 -80 0
v -48 -88 0
v -56 -88 0
v -56 -80 0
v -48 -80 0
v -56 -88 0
v -64 -88 0
v -64 -80 0
v -56 -80 0
v -64 -88 0
v -72 -88 0
v -72 -80 0
v -64 -80 0
v -72 -88 0
v -80 -88 0
v -80 -80 0
v -72 -80 0
v -80 -88 0
v -88 -88 0
v -88 -80 0
v -80 -80 0
v -88 -88 0
v -96 -88 0
v -96 -80 0
v -88 -80 0
v -96 -88 0
v -104 -88 0
v -104 -80 0
v -96 -80 0
v -104 -88 0
v -112 -88 0
v -112 -80 0
v -104 -80 0
v -112 -88 0
v -120 -88 0
v -120 -80 0
v -112 -80 0
v -120 -88 0
v -128 -88 0
v -128 -80 0
v -120 -80 0
v 0 -96 0
v -8 -96 0
v -8 -88 0
v 0 -88 0
v -8 -96 0
v -16 -96 0
v -16 -88 0
v -8 -88 0
v -16 -96 0
v -24 -96 0
v -24 -88 0
v -16 -88 0
v -24 -96 0
v -32 -96 0
v -32 -88 0
v -24 -88 0
v -32 -96 0
v -40 -96 0
v -40 -88 0
v -32 -88 0
v -40 -96 0
v -48 -96 0
v -48 -88 0
v -40 -88 0
v -48 -96 0
v -56 -96 0
v -56 -88 0
v -48 -88 0
v -56 -96 0
v -64 -96 0
v -64 -88 0
v -56 -88 0
v -64 -96 0
v -72 -96 0
v -72 -88 0
v -64 -88 0
v -72 -96 0
v -80 -96 0
v -80 -88 0
v -72 -88 0
v -80 -96 0
v -88 -96 0
v -88 -88 0
v -80 -88 0
v -88 -96 0
v -96 -96 0
v -96 -88 0
v -88 -88 0
v -96 -96 0
v -104 -96 0
v -104 -88 0
v -96 -88 0
v -104 -96 0
v -112 -96 0
v -112 -88 0
v -104 -88 0
v -112 -96 0
v -120 -96 0
v -120 -88 0
v -112 -88 0
v -120 -96 0
v -128 -96 0
v -128 -88 0
v -120 -88 0
v 0 -104 0
v -8 -104 0
v -8 -96 0
v 0 -96 0
v -8 -104 0
v -16 -104 0
v -16 -96 0
v -8 -96 0
v -16 -104 0
v -24 -104 0
v -24 -96 0
v -16 -96 0
v -24 -104 0
v -32 -104 0
v -32 -96 0
v -24 -96 0
v -32 -104 0
v -40 -104 0
v -40 -96 0
v -32 -96 0
v -40 -104 0
v -48 -104 0
v -48 -96 0
v -40 -96 0
v -48 -104 0
v -56 -104 0
v -56 -96 0
v -48 -96 0
v -56 -104 0
v -64 -104 0
v -64 -96 0
v -56 -96 0
v -64 -104 0
v -72 -104 0
v -72 -96 0
v -64 -96 0
v -72 -104 0
v -80 -104 0
v -80 -96 0
v -72 -96 0
v -80 -104 0
v -88 -104 0
v -88 -96 0
v -80 -96 0
v -88 -104 0
v -96 -104 0
v -96 -96 0
v -88 -96 0
v -96 -104 0
v -104 -104 0
v -104 -96 0
v -96 -96 0
v -104 -104 0
v -112 -104 0
v -112 -96 0
v -104 -96 0
v -112 -104 0
v -120 -104 0
v -120 -96 0
v -112 -96 0
v -120 -104 0
v -128 -104 0
v -128 -96 0
v -120 -96 0
v 0 -112 0
v -8 -112 0
v -8 -104 0
v 0 -104 0
v -8 -112 0
v -16 -112 0
v -16 -104 0
v -8 -104 0
v -16 -112 0
v -24 -112 0
v -24 -104 0
v -16 -104 0
v -24 -112 0
v -32 -112 0
v -32 -104 0
v -24 -104 0
v -32 -112 0
v -40 -112 0
v -40 -104 0
v -32 -104 0
v -40 -112 0
v -48 -112 0
v -48 -104 0
v -40 -104 0
v -48 -112 0
v -56 -112 0
v -56 -104 0
v -48 -104 0
v -56 -112 0
v -64 -112 0
v -64 -104 0
v -56 -104 0
v -64 -112 0
v -72 -112 0
v -72 -104 0
v -64 -104 0
v -72 -112 0
v -80 -112 0
v -80 -104 0
v -72 -104 0
v -80 -112 0
v -88 -112 0
v -88 -104 0
v -80 -104 0
v -88 -112 0
v -96 -112 0
v -96 -104 0
v -88 -104 0
v -96 -112 0
v -104 -112 0
v -104 -104 0
v -96 -104 0
v -104 -112 0
v -112 -112 0
v -112 -104 0
v -104 -104 0
v -112 -112 0
v -120 -112 0
v -120 -104 0
v -112 -104 0
v -120 -112 0
v -128 -112 0
v -128 -104 0
v -120 -104 0
v 0 -120 0
v -8 -120 0
v -8 -112 0
v 0 -112 0
v -8 -120 0
v -16 -120 0
v -16 -112 0
v -8 -112 0
v -16 -120 0
v -24 -120 0
v -24 -112 0
v -16 -112 0
v -24 -120 0
v -32 -120 0
v -32 -112 0
v -24 -112 0
v -32 -120 0
v -40 -120 0
v -40 -112 0
v -32 -112 0
v -40 -120 0
v -48 -120 0
v -48 -112 0
v -40 -112 0
v -48 -120 0
v -56 -120 0
v -56 -112 0
v -48 -112 0
v -56 -120 0
v -64 -120 0
v -64 -112 0
v -56 -112 0
v -64 -120 0
v -72 -120 0
v -72 -112 0
v -64 -112 0
v -72 -120 0
v -80 -120 0
v -80 -112 0
v -72 -112 0
v -80 -120 0
v -88 -120 0
v -88 -112 0
v -80 -112 0
v -88 -120 0
v -96 -120 0
v -96 -112 0
v -88 -112 0
v -96 -120 0
v -104 -120 0
v -104 -112 0
v -96 -112 0
v -104 -120 0
v -112 -120 0
v -112 -112 0
v -104 -112 0
v -112 -120 0
v -120 -120 0
v -120 -112 0
v -112 -112 0
v -120 -120 0
v -128 -120 0
v -128 -112 0
v -120 -112 0
v 0 -128 0
v -8 -128 0
v -8 -120 0
v 0 -120 0
v -8 -128 0
v -16 -128 0
v -16 -120 0
v -8 -120 0
v -16 -128 0
v -24 -128 0
v -24 -120 0
v -16 -120 0
v -24 -128 0
v -32 -128 0
v -32 -120 0
v -24 -120 0
v -32 -128 0
v -40 -128 0
v -40 -120 0
v -32 -120 0
v -40 -128 0
v -48 -128 0
v -48 -120 0
v -40 -120 0
v -48 -128 0
v -56 -128 0
v -56 -120 0
v -48 -120 0
v -56 -128 0
v -64 -128 0
v -64 -120 0
v -56 -120 0
v -64 -128 0
v -72 -128 0
v -72 -120 0
v -64 -120 0
v -72 -128 0
v -80 -128 0
v -80 -120 0
v -72 -120 0
v -80 -128 0
v -88 -128 0
v -88 -120 0
v -80 -120 0
v -88 -128 0
v -96 -128 0
v -96 -120 0
v -88 -120 0
v -96 -128 0
v -104 -128 0
v -104 -120 0
v -96 -120 0
v -104 -128 0
v -112 -128 0
v -112 -120 0
v -104 -120 0
v -112 -128 0
v -120 -128 0
v -120 -120 0
v -112 -120 0
v -120 -128 0
v -128 -128 0
v -128 -120 0
v -120 -120 0

# Texture cooridinates (Count = 90)
vt 0.5 0.8061224
vt 0.5147059 0.8061224
vt 0.5147059 0.8163265
vt 0.5 0.8163265
vt 0.4264706 0.8979592
vt 0.4411765 0.8979592
vt 0.4411765 0.9081632
vt 0.4264706 0.9081632
vt 0.4264706 0.8877551
vt 0.4411765 0.8877551
vt 0.4558823 0.8979592
vt 0.4558823 0.9081632
vt 0.5 0.7959183
vt 0.5147059 0.7959183
vt 0.4558823 0.8877551
vt 0.3823529 0.7857143
vt 0.3970588 0.7857143
vt 0.3970588 0.7959183
vt 0.3823529 0.7959183
vt 0.6176471 0.7857143
vt 0.6323529 0.7857143
vt 0.6323529 0.7959183
vt 0.6176471 0.7959183
vt 0.4117647 0.7857143
vt 0.4117647 0.7959183
vt 0.2794118 0.7857143
vt 0.2941177 0.7857143
vt 0.2941177 0.7959183
vt 0.2794118 0.7959183
vt 0.2941177 0.8061224
vt 0.3088235 0.8061224
vt 0.3088235 0.8163265
vt 0.2941177 0.8163265
vt 0.3235294 0.8061224
vt 0.3235294 0.8163265
vt 0.3382353 0.8061224
vt 0.3382353 0.8163265
vt 0.3529412 0.8061224
vt 0.3529412 0.8163265
vt 0.3676471 0.8061224
vt 0.3676471 0.8163265
vt 0.3823529 0.7755102
vt 0.3970588 0.7755102
vt 0.4117647 0.7755102
vt 0.2647059 0.7755102
vt 0.2794118 0.7755102
vt 0.2647059 0.7857143
vt 0.2941177 0.7755102
vt 0.3088235 0.7959183
vt 0.3235294 0.7959183
vt 0.3382353 0.7959183
vt 0.3529412 0.7959183
vt 0.3676471 0.7959183
vt 0.3823529 0.755102
vt 0.3970588 0.755102
vt 0.3970588 0.7653061
vt 0.3823529 0.7653061
vt 0.5882353 0.7653061
vt 0.6029412 0.7653061
vt 0.6029412 0.7755102
vt 0.5882353 0.7755102
vt 0.4117647 0.755102
vt 0.4117647 0.7653061
vt 0.4117647 0.9489796
vt 0.4264706 0.9489796
vt 0.4264706 0.9591837
vt 0.4117647 0.9591837
vt 0.4411765 0.9489796
vt 0.4411765 0.9591837
vt 0.2941177 0.7653061
vt 0.3088235 0.7653061
vt 0.3088235 0.7755102
vt 0.3088235 0.7857143
vt 0.3235294 0.7857143
vt 0.3382353 0.7857143
vt 0.3529412 0.7857143
vt 0.3676471 0.7857143
vt 0.5882353 0.755102
vt 0.6029412 0.755102
vt 0.2647059 0.7653061
vt 0.2794118 0.7653061
vt 0.2647059 0.755102
vt 0.2794118 0.755102
vt 0.2941177 0.755102
vt 0.3088235 0.755102
vt 0.25 0.744898
vt 0.2647059 0.744898
vt 0.25 0.755102
vt 0.2941177 0.744898
vt 0.3088235 0.744898

# Normal
vn 0 0 -1

# Mesh description
g Rogue_mesh_0010

# Faces
f 1/1/1 2/2/1 3/3/1 4/4/1
f 5/5/1 6/6/1 7/7/1 8/8/1
f 9/9/1 10/10/1 11/6/1 12/5/1
f 13/5/1 14/6/1 15/7/1 16/8/1
f 17/6/1 18/11/1 19/12/1 20/7/1
f 21/5/1 22/6/1 23/7/1 24/8/1
f 25/6/1 26/11/1 27/12/1 28/7/1
f 29/9/1 30/10/1 31/6/1 32/5/1
f 33/9/1 34/10/1 35/6/1 36/5/1
f 37/9/1 38/10/1 39/6/1 40/5/1
f 41/9/1 42/10/1 43/6/1 44/5/1
f 45/5/1 46/6/1 47/7/1 48/8/1
f 49/6/1 50/11/1 51/12/1 52/7/1
f 53/6/1 54/11/1 55/12/1 56/7/1
f 57/5/1 58/6/1 59/7/1 60/8/1
f 61/6/1 62/11/1 63/12/1 64/7/1
f 65/13/1 66/14/1 67/2/1 68/1/1
f 69/9/1 70/10/1 71/6/1 72/5/1
f 73/9/1 74/10/1 75/6/1 76/5/1
f 77/5/1 78/6/1 79/7/1 80/8/1
f 81/6/1 82/11/1 83/12/1 84/7/1
f 85/6/1 86/11/1 87/12/1 88/7/1
f 89/6/1 90/11/1 91/12/1 92/7/1
f 93/6/1 94/11/1 95/12/1 96/7/1
f 97/6/1 98/11/1 99/12/1 100/7/1
f 101/6/1 102/11/1 103/12/1 104/7/1
f 105/6/1 106/11/1 107/12/1 108/7/1
f 109/6/1 110/11/1 111/12/1 112/7/1
f 113/6/1 114/11/1 115/12/1 116/7/1
f 117/6/1 118/11/1 119/12/1 120/7/1
f 121/6/1 122/11/1 123/12/1 124/7/1
f 125/10/1 126/15/1 127/11/1 128/6/1
f 129/1/1 130/2/1 131/3/1 132/4/1
f 133/9/1 134/10/1 135/6/1 136/5/1
f 137/5/1 138/6/1 139/7/1 140/8/1
f 141/6/1 142/11/1 143/12/1 144/7/1
f 145/6/1 146/11/1 147/12/1 148/7/1
f 149/10/1 150/15/1 151/11/1 152/6/1
f 153/10/1 154/15/1 155/11/1 156/6/1
f 157/5/1 158/6/1 159/7/1 160/8/1
f 161/5/1 162/6/1 163/7/1 164/8/1
f 165/5/1 166/6/1 167/7/1 168/8/1
f 169/5/1 170/6/1 171/7/1 172/8/1
f 173/5/1 174/6/1 175/7/1 176/8/1
f 177/5/1 178/6/1 179/7/1 180/8/1
f 181/5/1 182/6/1 183/7/1 184/8/1
f 185/5/1 186/6/1 187/7/1 188/8/1
f 189/5/1 190/6/1 191/7/1 192/8/1
f 193/13/1 194/14/1 195/2/1 196/1/1
f 197/5/1 198/6/1 199/7/1 200/8/1
f 201/6/1 202/11/1 203/12/1 204/7/1
f 205/6/1 206/11/1 207/12/1 208/7/1
f 209/10/1 210/15/1 211/11/1 212/6/1
f 213/9/1 214/10/1 215/6/1 216/5/1
f 217/10/1 218/15/1 219/11/1 220/6/1
f 221/9/1 222/10/1 223/6/1 224/5/1
f 225/9/1 226/10/1 227/6/1 228/5/1
f 229/9/1 230/10/1 231/6/1 232/5/1
f 233/9/1 234/10/1 235/6/1 236/5/1
f 237/9/1 238/10/1 239/6/1 240/5/1
f 241/9/1 242/10/1 243/6/1 244/5/1
f 245/9/1 246/10/1 247/6/1 248/5/1
f 249/9/1 250/10/1 251/6/1 252/5/1
f 253/9/1 254/10/1 255/6/1 256/5/1
f 257/16/1 258/17/1 259/18/1 260/19/1
f 261/20/1 262/21/1 263/22/1 264/23/1
f 265/20/1 266/21/1 267/22/1 268/23/1
f 269/17/1 270/24/1 271/25/1 272/18/1
f 273/16/1 274/17/1 275/18/1 276/19/1
f 277/20/1 278/21/1 279/22/1 280/23/1
f 281/20/1 282/21/1 283/22/1 284/23/1
f 285/26/1 286/27/1 287/28/1 288/29/1
f 289/30/1 290/31/1 291/32/1 292/33/1
f 293/31/1 294/34/1 295/35/1 296/32/1
f 297/34/1 298/36/1 299/37/1 300/35/1
f 301/36/1 302/38/1 303/39/1 304/37/1
f 305/38/1 306/40/1 307/41/1 308/39/1
f 309/30/1 310/31/1 311/32/1 312/33/1
f 313/31/1 314/34/1 315/35/1 316/32/1
f 317/34/1 318/36/1 319/37/1 320/35/1
f 321/42/1 322/43/1 323/17/1 324/16/1
f 325/43/1 326/44/1 327/24/1 328/17/1
f 329/42/1 330/43/1 331/17/1 332/16/1
f 333/43/1 334/44/1 335/24/1 336/17/1
f 337/42/1 338/43/1 339/17/1 340/16/1
f 341/43/1 342/44/1 343/24/1 344/17/1
f 345/45/1 346/46/1 347/26/1 348/47/1
f 349/46/1 350/48/1 351/27/1 352/26/1
f 353/28/1 354/49/1 355/31/1 356/30/1
f 357/49/1 358/50/1 359/34/1 360/31/1
f 361/50/1 362/51/1 363/36/1 364/34/1
f 365/51/1 366/52/1 367/38/1 368/36/1
f 369/52/1 370/53/1 371/40/1 372/38/1
f 373/28/1 374/49/1 375/31/1 376/30/1
f 377/49/1 378/50/1 379/34/1 380/31/1
f 381/50/1 382/51/1 383/36/1 384/34/1
f 385/54/1 386/55/1 387/56/1 388/57/1
f 389/58/1 390/59/1 391/60/1 392/61/1
f 393/54/1 394/55/1 395/56/1 396/57/1
f 397/55/1 398/62/1 399/63/1 400/56/1
f 401/54/1 402/55/1 403/56/1 404/57/1
f 405/55/1 406/62/1 407/63/1 408/56/1
f 409/64/1 410/65/1 411/66/1 412/67/1
f 413/65/1 414/68/1 415/69/1 416/66/1
f 417/70/1 418/71/1 419/72/1 420/48/1
f 421/73/1 422/74/1 423/50/1 424/49/1
f 425/74/1 426/75/1 427/51/1 428/50/1
f 429/75/1 430/76/1 431/52/1 432/51/1
f 433/76/1 434/77/1 435/53/1 436/52/1
f 437/27/1 438/73/1 439/49/1 440/28/1
f 441/73/1 442/74/1 443/50/1 444/49/1
f 445/74/1 446/75/1 447/51/1 448/50/1
f 449/54/1 450/55/1 451/56/1 452/57/1
f 453/78/1 454/79/1 455/59/1 456/58/1
f 457/54/1 458/55/1 459/56/1 460/57/1
f 461/55/1 462/62/1 463/63/1 464/56/1
f 465/54/1 466/55/1 467/56/1 468/57/1
f 469/58/1 470/59/1 471/60/1 472/61/1
f 473/80/1 474/81/1 475/46/1 476/45/1
f 477/81/1 478/70/1 479/48/1 480/46/1
f 481/70/1 482/71/1 483/72/1 484/48/1
f 485/30/1 486/31/1 487/32/1 488/33/1
f 489/31/1 490/34/1 491/35/1 492/32/1
f 493/34/1 494/36/1 495/37/1 496/35/1
f 497/36/1 498/38/1 499/39/1 500/37/1
f 501/38/1 502/40/1 503/41/1 504/39/1
f 505/30/1 506/31/1 507/32/1 508/33/1
f 509/31/1 510/34/1 511/35/1 512/32/1
f 513/54/1 514/55/1 515/56/1 516/57/1
f 517/55/1 518/62/1 519/63/1 520/56/1
f 521/54/1 522/55/1 523/56/1 524/57/1
f 525/55/1 526/62/1 527/63/1 528/56/1
f 529/54/1 530/55/1 531/56/1 532/57/1
f 533/78/1 534/79/1 535/59/1 536/58/1
f 537/82/1 538/83/1 539/81/1 540/80/1
f 541/83/1 542/84/1 543/70/1 544/81/1
f 545/84/1 546/85/1 547/71/1 548/70/1
f 549/28/1 550/49/1 551/31/1 552/30/1
f 553/49/1 554/50/1 555/34/1 556/31/1
f 557/50/1 558/51/1 559/36/1 560/34/1
f 561/51/1 562/52/1 563/38/1 564/36/1
f 565/52/1 566/53/1 567/40/1 568/38/1
f 569/28/1 570/49/1 571/31/1 572/30/1
f 573/49/1 574/50/1 575/34/1 576/31/1
f 577/86/1 578/87/1 579/82/1 580/88/1
f 581/86/1 582/87/1 583/82/1 584/88/1
f 585/86/1 586/87/1 587/82/1 588/88/1
f 589/86/1 590/87/1 591/82/1 592/88/1
f 593/86/1 594/87/1 595/82/1 596/88/1
f 597/86/1 598/87/1 599/82/1 600/88/1
f 601/86/1 602/87/1 603/82/1 604/88/1
f 605/86/1 606/87/1 607/82/1 608/88/1
f 609/89/1 610/90/1 611/85/1 612/84/1
f 613/27/1 614/73/1 615/49/1 616/28/1
f 617/73/1 618/74/1 619/50/1 620/49/1
f 621/74/1 622/75/1 623/51/1 624/50/1
f 625/75/1 626/76/1 627/52/1 628/51/1
f 629/76/1 630/77/1 631/53/1 632/52/1
f 633/27/1 634/73/1 635/49/1 636/28/1
f 637/73/1 638/74/1 639/50/1 640/49/1
f 641/10/1 642/15/1 643/11/1 644/6/1
f 645/5/1 646/6/1 647/7/1 648/8/1
f 649/9/1 650/10/1 651/6/1 652/5/1
f 653/10/1 654/15/1 655/11/1 656/6/1
f 657/5/1 658/6/1 659/7/1 660/8/1
f 661/5/1 662/6/1 663/7/1 664/8/1
f 665/6/1 666/11/1 667/12/1 668/7/1
f 669/30/1 670/31/1 671/32/1 672/33/1
f 673/31/1 674/34/1 675/35/1 676/32/1
f 677/34/1 678/36/1 679/37/1 680/35/1
f 681/36/1 682/38/1 683/39/1 684/37/1
f 685/38/1 686/40/1 687/41/1 688/39/1
f 689/30/1 690/31/1 691/32/1 692/33/1
f 693/31/1 694/34/1 695/35/1 696/32/1
f 697/34/1 698/36/1 699/37/1 700/35/1
f 701/36/1 702/38/1 703/39/1 704/37/1
f 705/5/1 706/6/1 707/7/1 708/8/1
f 709/9/1 710/10/1 711/6/1 712/5/1
f 713/9/1 714/10/1 715/6/1 716/5/1
f 717/10/1 718/15/1 719/11/1 720/6/1
f 721/5/1 722/6/1 723/7/1 724/8/1
f 725/6/1 726/11/1 727/12/1 728/7/1
f 729/6/1 730/11/1 731/12/1 732/7/1
f 733/28/1 734/49/1 735/31/1 736/30/1
f 737/49/1 738/50/1 739/34/1 740/31/1
f 741/50/1 742/51/1 743/36/1 744/34/1
f 745/51/1 746/52/1 747/38/1 748/36/1
f 749/52/1 750/53/1 751/40/1 752/38/1
f 753/28/1 754/49/1 755/31/1 756/30/1
f 757/49/1 758/50/1 759/34/1 760/31/1
f 761/50/1 762/51/1 763/36/1 764/34/1
f 765/51/1 766/52/1 767/38/1 768/36/1
f 769/5/1 770/6/1 771/7/1 772/8/1
f 773/9/1 774/10/1 775/6/1 776/5/1
f 777/10/1 778/15/1 779/11/1 780/6/1
f 781/5/1 782/6/1 783/7/1 784/8/1
f 785/5/1 786/6/1 787/7/1 788/8/1
f 789/6/1 790/11/1 791/12/1 792/7/1
f 793/10/1 794/15/1 795/11/1 796/6/1
f 797/27/1 798/73/1 799/49/1 800/28/1
f 801/73/1 802/74/1 803/50/1 804/49/1
f 805/74/1 806/75/1 807/51/1 808/50/1
f 809/75/1 810/76/1 811/52/1 812/51/1
f 813/76/1 814/77/1 815/53/1 816/52/1
f 817/27/1 818/73/1 819/49/1 820/28/1
f 821/73/1 822/74/1 823/50/1 824/49/1
f 825/74/1 826/75/1 827/51/1 828/50/1
f 829/75/1 830/76/1 831/52/1 832/51/1
f 833/9/1 834/10/1 835/6/1 836/5/1
f 837/9/1 838/10/1 839/6/1 840/5/1
f 841/10/1 842/15/1 843/11/1 844/6/1
f 845/9/1 846/10/1 847/6/1 848/5/1
f 849/5/1 850/6/1 851/7/1 852/8/1
f 853/6/1 854/11/1 855/12/1 856/7/1
f 857/6/1 858/11/1 859/12/1 860/7/1
f 861/6/1 862/11/1 863/12/1 864/7/1
f 865/10/1 866/15/1 867/11/1 868/6/1
f 869/9/1 870/10/1 871/6/1 872/5/1
f 873/10/1 874/15/1 875/11/1 876/6/1
f 877/6/1 878/11/1 879/12/1 880/7/1
f 881/6/1 882/11/1 883/12/1 884/7/1
f 885/6/1 886/11/1 887/12/1 888/7/1
f 889/10/1 890/15/1 891/11/1 892/6/1
f 893/10/1 894/15/1 895/11/1 896/6/1
f 897/9/1 898/10/1 899/6/1 900/5/1
f 901/5/1 902/6/1 903/7/1 904/8/1
f 905/9/1 906/10/1 907/6/1 908/5/1
f 909/9/1 910/10/1 911/6/1 912/5/1
f 913/9/1 914/10/1 915/6/1 916/5/1
f 917/10/1 918/15/1 919/11/1 920/6/1
f 921/10/1 922/15/1 923/11/1 924/6/1
f 925/10/1 926/15/1 927/11/1 928/6/1
f 929/10/1 930/15/1 931/11/1 932/6/1
f 933/6/1 934/11/1 935/12/1 936/7/1
f 937/6/1 938/11/1 939/12/1 940/7/1
f 941/10/1 942/15/1 943/11/1 944/6/1
f 945/10/1 946/15/1 947/11/1 948/6/1
f 949/10/1 950/15/1 951/11/1 952/6/1
f 953/5/1 954/6/1 955/7/1 956/8/1
f 957/5/1 958/6/1 959/7/1 960/8/1
f 961/5/1 962/6/1 963/7/1 964/8/1
f 965/9/1 966/10/1 967/6/1 968/5/1
f 969/9/1 970/10/1 971/6/1 972/5/1
f 973/10/1 974/15/1 975/11/1 976/6/1
f 977/10/1 978/15/1 979/11/1 980/6/1
f 981/10/1 982/15/1 983/11/1 984/6/1
f 985/9/1 986/10/1 987/6/1 988/5/1
f 989/10/1 990/15/1 991/11/1 992/6/1
f 993/6/1 994/11/1 995/12/1 996/7/1
f 997/6/1 998/11/1 999/12/1 1000/7/1
f 1001/10/1 1002/15/1 1003/11/1 1004/6/1
f 1005/6/1 1006/11/1 1007/12/1 1008/7/1
f 1009/5/1 1010/6/1 1011/7/1 1012/8/1
f 1013/5/1 1014/6/1 1015/7/1 1016/8/1
f 1017/9/1 1018/10/1 1019/6/1 1020/5/1
f 1021/9/1 1022/10/1 1023/6/1 1024/5/1

