# Tiled2Unity generated file. Do not modify by hand.
# Wavefront file for 'Rogue_mesh_0008.obj'

# Vertices (Count = 1024)
v 0 -8 0
v -8 -8 0
v -8 0 0
v 0 0 0
v -8 -8 0
v -16 -8 0
v -16 0 0
v -8 0 0
v -16 -8 0
v -24 -8 0
v -24 0 0
v -16 0 0
v -24 -8 0
v -32 -8 0
v -32 0 0
v -24 0 0
v -32 -8 0
v -40 -8 0
v -40 0 0
v -32 0 0
v -40 -8 0
v -48 -8 0
v -48 0 0
v -40 0 0
v -48 -8 0
v -56 -8 0
v -56 0 0
v -48 0 0
v -56 -8 0
v -64 -8 0
v -64 0 0
v -56 0 0
v -64 -8 0
v -72 -8 0
v -72 0 0
v -64 0 0
v -72 -8 0
v -80 -8 0
v -80 0 0
v -72 0 0
v -80 -8 0
v -88 -8 0
v -88 0 0
v -80 0 0
v -88 -8 0
v -96 -8 0
v -96 0 0
v -88 0 0
v -96 -8 0
v -104 -8 0
v -104 0 0
v -96 0 0
v -104 -8 0
v -112 -8 0
v -112 0 0
v -104 0 0
v -112 -8 0
v -120 -8 0
v -120 0 0
v -112 0 0
v -120 -8 0
v -128 -8 0
v -128 0 0
v -120 0 0
v 0 -16 0
v -8 -16 0
v -8 -8 0
v 0 -8 0
v -8 -16 0
v -16 -16 0
v -16 -8 0
v -8 -8 0
v -16 -16 0
v -24 -16 0
v -24 -8 0
v -16 -8 0
v -24 -16 0
v -32 -16 0
v -32 -8 0
v -24 -8 0
v -32 -16 0
v -40 -16 0
v -40 -8 0
v -32 -8 0
v -40 -16 0
v -48 -16 0
v -48 -8 0
v -40 -8 0
v -48 -16 0
v -56 -16 0
v -56 -8 0
v -48 -8 0
v -56 -16 0
v -64 -16 0
v -64 -8 0
v -56 -8 0
v -64 -16 0
v -72 -16 0
v -72 -8 0
v -64 -8 0
v -72 -16 0
v -80 -16 0
v -80 -8 0
v -72 -8 0
v -80 -16 0
v -88 -16 0
v -88 -8 0
v -80 -8 0
v -88 -16 0
v -96 -16 0
v -96 -8 0
v -88 -8 0
v -96 -16 0
v -104 -16 0
v -104 -8 0
v -96 -8 0
v -104 -16 0
v -112 -16 0
v -112 -8 0
v -104 -8 0
v -112 -16 0
v -120 -16 0
v -120 -8 0
v -112 -8 0
v -120 -16 0
v -128 -16 0
v -128 -8 0
v -120 -8 0
v 0 -24 0
v -8 -24 0
v -8 -16 0
v 0 -16 0
v -8 -24 0
v -16 -24 0
v -16 -16 0
v -8 -16 0
v -16 -24 0
v -24 -24 0
v -24 -16 0
v -16 -16 0
v -24 -24 0
v -32 -24 0
v -32 -16 0
v -24 -16 0
v -32 -24 0
v -40 -24 0
v -40 -16 0
v -32 -16 0
v -40 -24 0
v -48 -24 0
v -48 -16 0
v -40 -16 0
v -48 -24 0
v -56 -24 0
v -56 -16 0
v -48 -16 0
v -56 -24 0
v -64 -24 0
v -64 -16 0
v -56 -16 0
v -64 -24 0
v -72 -24 0
v -72 -16 0
v -64 -16 0
v -72 -24 0
v -80 -24 0
v -80 -16 0
v -72 -16 0
v -80 -24 0
v -88 -24 0
v -88 -16 0
v -80 -16 0
v -88 -24 0
v -96 -24 0
v -96 -16 0
v -88 -16 0
v -96 -24 0
v -104 -24 0
v -104 -16 0
v -96 -16 0
v -104 -24 0
v -112 -24 0
v -112 -16 0
v -104 -16 0
v -112 -24 0
v -120 -24 0
v -120 -16 0
v -112 -16 0
v -120 -24 0
v -128 -24 0
v -128 -16 0
v -120 -16 0
v 0 -32 0
v -8 -32 0
v -8 -24 0
v 0 -24 0
v -8 -32 0
v -16 -32 0
v -16 -24 0
v -8 -24 0
v -16 -32 0
v -24 -32 0
v -24 -24 0
v -16 -24 0
v -24 -32 0
v -32 -32 0
v -32 -24 0
v -24 -24 0
v -32 -32 0
v -40 -32 0
v -40 -24 0
v -32 -24 0
v -40 -32 0
v -48 -32 0
v -48 -24 0
v -40 -24 0
v -48 -32 0
v -56 -32 0
v -56 -24 0
v -48 -24 0
v -56 -32 0
v -64 -32 0
v -64 -24 0
v -56 -24 0
v -64 -32 0
v -72 -32 0
v -72 -24 0
v -64 -24 0
v -72 -32 0
v -80 -32 0
v -80 -24 0
v -72 -24 0
v -80 -32 0
v -88 -32 0
v -88 -24 0
v -80 -24 0
v -88 -32 0
v -96 -32 0
v -96 -24 0
v -88 -24 0
v -96 -32 0
v -104 -32 0
v -104 -24 0
v -96 -24 0
v -104 -32 0
v -112 -32 0
v -112 -24 0
v -104 -24 0
v -112 -32 0
v -120 -32 0
v -120 -24 0
v -112 -24 0
v -120 -32 0
v -128 -32 0
v -128 -24 0
v -120 -24 0
v 0 -40 0
v -8 -40 0
v -8 -32 0
v 0 -32 0
v -8 -40 0
v -16 -40 0
v -16 -32 0
v -8 -32 0
v -16 -40 0
v -24 -40 0
v -24 -32 0
v -16 -32 0
v -24 -40 0
v -32 -40 0
v -32 -32 0
v -24 -32 0
v -32 -40 0
v -40 -40 0
v -40 -32 0
v -32 -32 0
v -40 -40 0
v -48 -40 0
v -48 -32 0
v -40 -32 0
v -48 -40 0
v -56 -40 0
v -56 -32 0
v -48 -32 0
v -56 -40 0
v -64 -40 0
v -64 -32 0
v -56 -32 0
v -64 -40 0
v -72 -40 0
v -72 -32 0
v -64 -32 0
v -72 -40 0
v -80 -40 0
v -80 -32 0
v -72 -32 0
v -80 -40 0
v -88 -40 0
v -88 -32 0
v -80 -32 0
v -88 -40 0
v -96 -40 0
v -96 -32 0
v -88 -32 0
v -96 -40 0
v -104 -40 0
v -104 -32 0
v -96 -32 0
v -104 -40 0
v -112 -40 0
v -112 -32 0
v -104 -32 0
v -112 -40 0
v -120 -40 0
v -120 -32 0
v -112 -32 0
v -120 -40 0
v -128 -40 0
v -128 -32 0
v -120 -32 0
v 0 -48 0
v -8 -48 0
v -8 -40 0
v 0 -40 0
v -8 -48 0
v -16 -48 0
v -16 -40 0
v -8 -40 0
v -16 -48 0
v -24 -48 0
v -24 -40 0
v -16 -40 0
v -24 -48 0
v -32 -48 0
v -32 -40 0
v -24 -40 0
v -32 -48 0
v -40 -48 0
v -40 -40 0
v -32 -40 0
v -40 -48 0
v -48 -48 0
v -48 -40 0
v -40 -40 0
v -48 -48 0
v -56 -48 0
v -56 -40 0
v -48 -40 0
v -56 -48 0
v -64 -48 0
v -64 -40 0
v -56 -40 0
v -64 -48 0
v -72 -48 0
v -72 -40 0
v -64 -40 0
v -72 -48 0
v -80 -48 0
v -80 -40 0
v -72 -40 0
v -80 -48 0
v -88 -48 0
v -88 -40 0
v -80 -40 0
v -88 -48 0
v -96 -48 0
v -96 -40 0
v -88 -40 0
v -96 -48 0
v -104 -48 0
v -104 -40 0
v -96 -40 0
v -104 -48 0
v -112 -48 0
v -112 -40 0
v -104 -40 0
v -112 -48 0
v -120 -48 0
v -120 -40 0
v -112 -40 0
v -120 -48 0
v -128 -48 0
v -128 -40 0
v -120 -40 0
v 0 -56 0
v -8 -56 0
v -8 -48 0
v 0 -48 0
v -8 -56 0
v -16 -56 0
v -16 -48 0
v -8 -48 0
v -16 -56 0
v -24 -56 0
v -24 -48 0
v -16 -48 0
v -24 -56 0
v -32 -56 0
v -32 -48 0
v -24 -48 0
v -32 -56 0
v -40 -56 0
v -40 -48 0
v -32 -48 0
v -40 -56 0
v -48 -56 0
v -48 -48 0
v -40 -48 0
v -48 -56 0
v -56 -56 0
v -56 -48 0
v -48 -48 0
v -56 -56 0
v -64 -56 0
v -64 -48 0
v -56 -48 0
v -64 -56 0
v -72 -56 0
v -72 -48 0
v -64 -48 0
v -72 -56 0
v -80 -56 0
v -80 -48 0
v -72 -48 0
v -80 -56 0
v -88 -56 0
v -88 -48 0
v -80 -48 0
v -88 -56 0
v -96 -56 0
v -96 -48 0
v -88 -48 0
v -96 -56 0
v -104 -56 0
v -104 -48 0
v -96 -48 0
v -104 -56 0
v -112 -56 0
v -112 -48 0
v -104 -48 0
v -112 -56 0
v -120 -56 0
v -120 -48 0
v -112 -48 0
v -120 -56 0
v -128 -56 0
v -128 -48 0
v -120 -48 0
v 0 -64 0
v -8 -64 0
v -8 -56 0
v 0 -56 0
v -8 -64 0
v -16 -64 0
v -16 -56 0
v -8 -56 0
v -16 -64 0
v -24 -64 0
v -24 -56 0
v -16 -56 0
v -24 -64 0
v -32 -64 0
v -32 -56 0
v -24 -56 0
v -32 -64 0
v -40 -64 0
v -40 -56 0
v -32 -56 0
v -40 -64 0
v -48 -64 0
v -48 -56 0
v -40 -56 0
v -48 -64 0
v -56 -64 0
v -56 -56 0
v -48 -56 0
v -56 -64 0
v -64 -64 0
v -64 -56 0
v -56 -56 0
v -64 -64 0
v -72 -64 0
v -72 -56 0
v -64 -56 0
v -72 -64 0
v -80 -64 0
v -80 -56 0
v -72 -56 0
v -80 -64 0
v -88 -64 0
v -88 -56 0
v -80 -56 0
v -88 -64 0
v -96 -64 0
v -96 -56 0
v -88 -56 0
v -96 -64 0
v -104 -64 0
v -104 -56 0
v -96 -56 0
v -104 -64 0
v -112 -64 0
v -112 -56 0
v -104 -56 0
v -112 -64 0
v -120 -64 0
v -120 -56 0
v -112 -56 0
v -120 -64 0
v -128 -64 0
v -128 -56 0
v -120 -56 0
v 0 -72 0
v -8 -72 0
v -8 -64 0
v 0 -64 0
v -8 -72 0
v -16 -72 0
v -16 -64 0
v -8 -64 0
v -16 -72 0
v -24 -72 0
v -24 -64 0
v -16 -64 0
v -24 -72 0
v -32 -72 0
v -32 -64 0
v -24 -64 0
v -32 -72 0
v -40 -72 0
v -40 -64 0
v -32 -64 0
v -40 -72 0
v -48 -72 0
v -48 -64 0
v -40 -64 0
v -48 -72 0
v -56 -72 0
v -56 -64 0
v -48 -64 0
v -56 -72 0
v -64 -72 0
v -64 -64 0
v -56 -64 0
v -64 -72 0
v -72 -72 0
v -72 -64 0
v -64 -64 0
v -72 -72 0
v -80 -72 0
v -80 -64 0
v -72 -64 0
v -80 -72 0
v -88 -72 0
v -88 -64 0
v -80 -64 0
v -88 -72 0
v -96 -72 0
v -96 -64 0
v -88 -64 0
v -96 -72 0
v -104 -72 0
v -104 -64 0
v -96 -64 0
v -104 -72 0
v -112 -72 0
v -112 -64 0
v -104 -64 0
v -112 -72 0
v -120 -72 0
v -120 -64 0
v -112 -64 0
v -120 -72 0
v -128 -72 0
v -128 -64 0
v -120 -64 0
v 0 -80 0
v -8 -80 0
v -8 -72 0
v 0 -72 0
v -8 -80 0
v -16 -80 0
v -16 -72 0
v -8 -72 0
v -16 -80 0
v -24 -80 0
v -24 -72 0
v -16 -72 0
v -24 -80 0
v -32 -80 0
v -32 -72 0
v -24 -72 0
v -32 -80 0
v -40 -80 0
v -40 -72 0
v -32 -72 0
v -40 -80 0
v -48 -80 0
v -48 -72 0
v -40 -72 0
v -48 -80 0
v -56 -80 0
v -56 -72 0
v -48 -72 0
v -56 -80 0
v -64 -80 0
v -64 -72 0
v -56 -72 0
v -64 -80 0
v -72 -80 0
v -72 -72 0
v -64 -72 0
v -72 -80 0
v -80 -80 0
v -80 -72 0
v -72 -72 0
v -80 -80 0
v -88 -80 0
v -88 -72 0
v -80 -72 0
v -88 -80 0
v -96 -80 0
v -96 -72 0
v -88 -72 0
v -96 -80 0
v -104 -80 0
v -104 -72 0
v -96 -72 0
v -104 -80 0
v -112 -80 0
v -112 -72 0
v -104 -72 0
v -112 -80 0
v -120 -80 0
v -120 -72 0
v -112 -72 0
v -120 -80 0
v -128 -80 0
v -128 -72 0
v -120 -72 0
v 0 -88 0
v -8 -88 0
v -8 -80 0
v 0 -80 0
v -8 -88 0
v -16 -88 0
v -16 -80 0
v -8 -80 0
v -16 -88 0
v -24 -88 0
v -24 -80 0
v -16 -80 0
v -24 -88 0
v -32 -88 0
v -32 -80 0
v -24 -80 0
v -32 -88 0
v -40 -88 0
v -40 -80 0
v -32 -80 0
v -40 -88 0
v -48 -88 0
v -48 -80 0
v -40 -80 0
v -48 -88 0
v -56 -88 0
v -56 -80 0
v -48 -80 0
v -56 -88 0
v -64 -88 0
v -64 -80 0
v -56 -80 0
v -64 -88 0
v -72 -88 0
v -72 -80 0
v -64 -80 0
v -72 -88 0
v -80 -88 0
v -80 -80 0
v -72 -80 0
v -80 -88 0
v -88 -88 0
v -88 -80 0
v -80 -80 0
v -88 -88 0
v -96 -88 0
v -96 -80 0
v -88 -80 0
v -96 -88 0
v -104 -88 0
v -104 -80 0
v -96 -80 0
v -104 -88 0
v -112 -88 0
v -112 -80 0
v -104 -80 0
v -112 -88 0
v -120 -88 0
v -120 -80 0
v -112 -80 0
v -120 -88 0
v -128 -88 0
v -128 -80 0
v -120 -80 0
v 0 -96 0
v -8 -96 0
v -8 -88 0
v 0 -88 0
v -8 -96 0
v -16 -96 0
v -16 -88 0
v -8 -88 0
v -16 -96 0
v -24 -96 0
v -24 -88 0
v -16 -88 0
v -24 -96 0
v -32 -96 0
v -32 -88 0
v -24 -88 0
v -32 -96 0
v -40 -96 0
v -40 -88 0
v -32 -88 0
v -40 -96 0
v -48 -96 0
v -48 -88 0
v -40 -88 0
v -48 -96 0
v -56 -96 0
v -56 -88 0
v -48 -88 0
v -56 -96 0
v -64 -96 0
v -64 -88 0
v -56 -88 0
v -64 -96 0
v -72 -96 0
v -72 -88 0
v -64 -88 0
v -72 -96 0
v -80 -96 0
v -80 -88 0
v -72 -88 0
v -80 -96 0
v -88 -96 0
v -88 -88 0
v -80 -88 0
v -88 -96 0
v -96 -96 0
v -96 -88 0
v -88 -88 0
v -96 -96 0
v -104 -96 0
v -104 -88 0
v -96 -88 0
v -104 -96 0
v -112 -96 0
v -112 -88 0
v -104 -88 0
v -112 -96 0
v -120 -96 0
v -120 -88 0
v -112 -88 0
v -120 -96 0
v -128 -96 0
v -128 -88 0
v -120 -88 0
v 0 -104 0
v -8 -104 0
v -8 -96 0
v 0 -96 0
v -8 -104 0
v -16 -104 0
v -16 -96 0
v -8 -96 0
v -16 -104 0
v -24 -104 0
v -24 -96 0
v -16 -96 0
v -24 -104 0
v -32 -104 0
v -32 -96 0
v -24 -96 0
v -32 -104 0
v -40 -104 0
v -40 -96 0
v -32 -96 0
v -40 -104 0
v -48 -104 0
v -48 -96 0
v -40 -96 0
v -48 -104 0
v -56 -104 0
v -56 -96 0
v -48 -96 0
v -56 -104 0
v -64 -104 0
v -64 -96 0
v -56 -96 0
v -64 -104 0
v -72 -104 0
v -72 -96 0
v -64 -96 0
v -72 -104 0
v -80 -104 0
v -80 -96 0
v -72 -96 0
v -80 -104 0
v -88 -104 0
v -88 -96 0
v -80 -96 0
v -88 -104 0
v -96 -104 0
v -96 -96 0
v -88 -96 0
v -96 -104 0
v -104 -104 0
v -104 -96 0
v -96 -96 0
v -104 -104 0
v -112 -104 0
v -112 -96 0
v -104 -96 0
v -112 -104 0
v -120 -104 0
v -120 -96 0
v -112 -96 0
v -120 -104 0
v -128 -104 0
v -128 -96 0
v -120 -96 0
v 0 -112 0
v -8 -112 0
v -8 -104 0
v 0 -104 0
v -8 -112 0
v -16 -112 0
v -16 -104 0
v -8 -104 0
v -16 -112 0
v -24 -112 0
v -24 -104 0
v -16 -104 0
v -24 -112 0
v -32 -112 0
v -32 -104 0
v -24 -104 0
v -32 -112 0
v -40 -112 0
v -40 -104 0
v -32 -104 0
v -40 -112 0
v -48 -112 0
v -48 -104 0
v -40 -104 0
v -48 -112 0
v -56 -112 0
v -56 -104 0
v -48 -104 0
v -56 -112 0
v -64 -112 0
v -64 -104 0
v -56 -104 0
v -64 -112 0
v -72 -112 0
v -72 -104 0
v -64 -104 0
v -72 -112 0
v -80 -112 0
v -80 -104 0
v -72 -104 0
v -80 -112 0
v -88 -112 0
v -88 -104 0
v -80 -104 0
v -88 -112 0
v -96 -112 0
v -96 -104 0
v -88 -104 0
v -96 -112 0
v -104 -112 0
v -104 -104 0
v -96 -104 0
v -104 -112 0
v -112 -112 0
v -112 -104 0
v -104 -104 0
v -112 -112 0
v -120 -112 0
v -120 -104 0
v -112 -104 0
v -120 -112 0
v -128 -112 0
v -128 -104 0
v -120 -104 0
v 0 -120 0
v -8 -120 0
v -8 -112 0
v 0 -112 0
v -8 -120 0
v -16 -120 0
v -16 -112 0
v -8 -112 0
v -16 -120 0
v -24 -120 0
v -24 -112 0
v -16 -112 0
v -24 -120 0
v -32 -120 0
v -32 -112 0
v -24 -112 0
v -32 -120 0
v -40 -120 0
v -40 -112 0
v -32 -112 0
v -40 -120 0
v -48 -120 0
v -48 -112 0
v -40 -112 0
v -48 -120 0
v -56 -120 0
v -56 -112 0
v -48 -112 0
v -56 -120 0
v -64 -120 0
v -64 -112 0
v -56 -112 0
v -64 -120 0
v -72 -120 0
v -72 -112 0
v -64 -112 0
v -72 -120 0
v -80 -120 0
v -80 -112 0
v -72 -112 0
v -80 -120 0
v -88 -120 0
v -88 -112 0
v -80 -112 0
v -88 -120 0
v -96 -120 0
v -96 -112 0
v -88 -112 0
v -96 -120 0
v -104 -120 0
v -104 -112 0
v -96 -112 0
v -104 -120 0
v -112 -120 0
v -112 -112 0
v -104 -112 0
v -112 -120 0
v -120 -120 0
v -120 -112 0
v -112 -112 0
v -120 -120 0
v -128 -120 0
v -128 -112 0
v -120 -112 0
v 0 -128 0
v -8 -128 0
v -8 -120 0
v 0 -120 0
v -8 -128 0
v -16 -128 0
v -16 -120 0
v -8 -120 0
v -16 -128 0
v -24 -128 0
v -24 -120 0
v -16 -120 0
v -24 -128 0
v -32 -128 0
v -32 -120 0
v -24 -120 0
v -32 -128 0
v -40 -128 0
v -40 -120 0
v -32 -120 0
v -40 -128 0
v -48 -128 0
v -48 -120 0
v -40 -120 0
v -48 -128 0
v -56 -128 0
v -56 -120 0
v -48 -120 0
v -56 -128 0
v -64 -128 0
v -64 -120 0
v -56 -120 0
v -64 -128 0
v -72 -128 0
v -72 -120 0
v -64 -120 0
v -72 -128 0
v -80 -128 0
v -80 -120 0
v -72 -120 0
v -80 -128 0
v -88 -128 0
v -88 -120 0
v -80 -120 0
v -88 -128 0
v -96 -128 0
v -96 -120 0
v -88 -120 0
v -96 -128 0
v -104 -128 0
v -104 -120 0
v -96 -120 0
v -104 -128 0
v -112 -128 0
v -112 -120 0
v -104 -120 0
v -112 -128 0
v -120 -128 0
v -120 -120 0
v -112 -120 0
v -120 -128 0
v -128 -128 0
v -128 -120 0
v -120 -120 0

# Texture cooridinates (Count = 84)
vt 0.5735294 0.8979592
vt 0.5882353 0.8979592
vt 0.5882353 0.9081632
vt 0.5735294 0.9081632
vt 0.2647059 0.8877551
vt 0.2794118 0.8877551
vt 0.2794118 0.8979592
vt 0.2647059 0.8979592
vt 0.2941177 0.8877551
vt 0.2941177 0.8979592
vt 0.4264706 0.8979592
vt 0.4411765 0.8979592
vt 0.4411765 0.9081632
vt 0.4264706 0.9081632
vt 0.4558823 0.8979592
vt 0.4558823 0.9081632
vt 0.4411765 0.8877551
vt 0.4558823 0.8877551
vt 0.4264706 0.8877551
vt 0.8823529 0.9183673
vt 0.8970588 0.9183673
vt 0.8970588 0.9285714
vt 0.8823529 0.9285714
vt 0.9117647 0.9183673
vt 0.9117647 0.9285714
vt 0.5735294 0.8877551
vt 0.5882353 0.8877551
vt 0.2647059 0.877551
vt 0.2794118 0.877551
vt 0.2941177 0.877551
vt 0.8823529 0.9081632
vt 0.8970588 0.9081632
vt 0.9117647 0.9081632
vt 0.5735294 0.877551
vt 0.5882353 0.877551
vt 0.8823529 0.8979592
vt 0.8970588 0.8979592
vt 0.9117647 0.8979592
vt 0.5735294 0.8673469
vt 0.5882353 0.8673469
vt 0.8823529 0.8877551
vt 0.8970588 0.8877551
vt 0.9117647 0.8877551
vt 0.5735294 0.8571429
vt 0.5882353 0.8571429
vt 0.8823529 0.9489796
vt 0.8970588 0.9489796
vt 0.8970588 0.9591837
vt 0.8823529 0.9591837
vt 0.9117647 0.9489796
vt 0.9117647 0.9591837
vt 0.5735294 0.8469388
vt 0.5882353 0.8469388
vt 0.2794118 0.8673469
vt 0.2794118 0.8571429
vt 0.2941177 0.8571429
vt 0.2941177 0.8673469
vt 0.8823529 0.9387755
vt 0.8970588 0.9387755
vt 0.9117647 0.9387755
vt 0.8823529 0.877551
vt 0.8970588 0.877551
vt 0.9117647 0.877551
vt 0.5882353 0.7857143
vt 0.6029412 0.7857143
vt 0.6029412 0.7959183
vt 0.5882353 0.7959183
vt 0.6176471 0.7857143
vt 0.6176471 0.7959183
vt 0.5588235 0.7857143
vt 0.5735294 0.7857143
vt 0.5735294 0.7959183
vt 0.5588235 0.7959183
vt 0.5882353 0.7755102
vt 0.6029412 0.7755102
vt 0.6176471 0.7755102
vt 0.5588235 0.7755102
vt 0.5735294 0.7755102
vt 0.4558823 0.9489796
vt 0.4705882 0.9489796
vt 0.4705882 0.9591837
vt 0.4558823 0.9591837
vt 0.4411765 0.9489796
vt 0.4411765 0.9591837

# Normal
vn 0 0 -1

# Mesh description
g Rogue_mesh_0008

# Faces
f 1/1/1 2/2/1 3/3/1 4/4/1
f 5/5/1 6/6/1 7/7/1 8/8/1
f 9/6/1 10/9/1 11/10/1 12/7/1
f 13/11/1 14/12/1 15/13/1 16/14/1
f 17/12/1 18/15/1 19/16/1 20/13/1
f 21/17/1 22/18/1 23/15/1 24/12/1
f 25/19/1 26/17/1 27/12/1 28/11/1
f 29/11/1 30/12/1 31/13/1 32/14/1
f 33/12/1 34/15/1 35/16/1 36/13/1
f 37/17/1 38/18/1 39/15/1 40/12/1
f 41/12/1 42/15/1 43/16/1 44/13/1
f 45/17/1 46/18/1 47/15/1 48/12/1
f 49/12/1 50/15/1 51/16/1 52/13/1
f 53/17/1 54/18/1 55/15/1 56/12/1
f 57/20/1 58/21/1 59/22/1 60/23/1
f 61/21/1 62/24/1 63/25/1 64/22/1
f 65/26/1 66/27/1 67/2/1 68/1/1
f 69/28/1 70/29/1 71/6/1 72/5/1
f 73/29/1 74/30/1 75/9/1 76/6/1
f 77/19/1 78/17/1 79/12/1 80/11/1
f 81/11/1 82/12/1 83/13/1 84/14/1
f 85/12/1 86/15/1 87/16/1 88/13/1
f 89/12/1 90/15/1 91/16/1 92/13/1
f 93/11/1 94/12/1 95/13/1 96/14/1
f 97/12/1 98/15/1 99/16/1 100/13/1
f 101/17/1 102/18/1 103/15/1 104/12/1
f 105/12/1 106/15/1 107/16/1 108/13/1
f 109/17/1 110/18/1 111/15/1 112/12/1
f 113/12/1 114/15/1 115/16/1 116/13/1
f 117/17/1 118/18/1 119/15/1 120/12/1
f 121/31/1 122/32/1 123/21/1 124/20/1
f 125/32/1 126/33/1 127/24/1 128/21/1
f 129/34/1 130/35/1 131/27/1 132/26/1
f 133/5/1 134/6/1 135/7/1 136/8/1
f 137/6/1 138/9/1 139/10/1 140/7/1
f 141/19/1 142/17/1 143/12/1 144/11/1
f 145/11/1 146/12/1 147/13/1 148/14/1
f 149/12/1 150/15/1 151/16/1 152/13/1
f 153/17/1 154/18/1 155/15/1 156/12/1
f 157/11/1 158/12/1 159/13/1 160/14/1
f 161/12/1 162/15/1 163/16/1 164/13/1
f 165/17/1 166/18/1 167/15/1 168/12/1
f 169/12/1 170/15/1 171/16/1 172/13/1
f 173/17/1 174/18/1 175/15/1 176/12/1
f 177/12/1 178/15/1 179/16/1 180/13/1
f 181/17/1 182/18/1 183/15/1 184/12/1
f 185/36/1 186/37/1 187/32/1 188/31/1
f 189/37/1 190/38/1 191/33/1 192/32/1
f 193/39/1 194/40/1 195/35/1 196/34/1
f 197/28/1 198/29/1 199/6/1 200/5/1
f 201/29/1 202/30/1 203/9/1 204/6/1
f 205/19/1 206/17/1 207/12/1 208/11/1
f 209/11/1 210/12/1 211/13/1 212/14/1
f 213/12/1 214/15/1 215/16/1 216/13/1
f 217/17/1 218/18/1 219/15/1 220/12/1
f 221/11/1 222/12/1 223/13/1 224/14/1
f 225/12/1 226/15/1 227/16/1 228/13/1
f 229/17/1 230/18/1 231/15/1 232/12/1
f 233/12/1 234/15/1 235/16/1 236/13/1
f 237/17/1 238/18/1 239/15/1 240/12/1
f 241/12/1 242/15/1 243/16/1 244/13/1
f 245/17/1 246/18/1 247/15/1 248/12/1
f 249/41/1 250/42/1 251/37/1 252/36/1
f 253/42/1 254/43/1 255/38/1 256/37/1
f 257/44/1 258/45/1 259/40/1 260/39/1
f 261/5/1 262/6/1 263/7/1 264/8/1
f 265/6/1 266/9/1 267/10/1 268/7/1
f 269/19/1 270/17/1 271/12/1 272/11/1
f 273/11/1 274/12/1 275/13/1 276/14/1
f 277/12/1 278/15/1 279/16/1 280/13/1
f 281/17/1 282/18/1 283/15/1 284/12/1
f 285/12/1 286/15/1 287/16/1 288/13/1
f 289/12/1 290/15/1 291/16/1 292/13/1
f 293/17/1 294/18/1 295/15/1 296/12/1
f 297/12/1 298/15/1 299/16/1 300/13/1
f 301/12/1 302/15/1 303/16/1 304/13/1
f 305/12/1 306/15/1 307/16/1 308/13/1
f 309/17/1 310/18/1 311/15/1 312/12/1
f 313/46/1 314/47/1 315/48/1 316/49/1
f 317/47/1 318/50/1 319/51/1 320/48/1
f 321/52/1 322/53/1 323/45/1 324/44/1
f 325/28/1 326/29/1 327/6/1 328/5/1
f 329/29/1 330/30/1 331/9/1 332/6/1
f 333/12/1 334/15/1 335/16/1 336/13/1
f 337/11/1 338/12/1 339/13/1 340/14/1
f 341/12/1 342/15/1 343/16/1 344/13/1
f 345/54/1 346/55/1 347/56/1 348/57/1
f 349/17/1 350/18/1 351/15/1 352/12/1
f 353/12/1 354/15/1 355/16/1 356/13/1
f 357/19/1 358/17/1 359/12/1 360/11/1
f 361/17/1 362/18/1 363/15/1 364/12/1
f 365/12/1 366/15/1 367/16/1 368/13/1
f 369/12/1 370/15/1 371/16/1 372/13/1
f 373/12/1 374/15/1 375/16/1 376/13/1
f 377/58/1 378/59/1 379/47/1 380/46/1
f 381/59/1 382/60/1 383/50/1 384/47/1
f 385/6/1 386/9/1 387/10/1 388/7/1
f 389/5/1 390/6/1 391/7/1 392/8/1
f 393/6/1 394/9/1 395/10/1 396/7/1
f 397/12/1 398/15/1 399/16/1 400/13/1
f 401/11/1 402/12/1 403/13/1 404/14/1
f 405/12/1 406/15/1 407/16/1 408/13/1
f 409/17/1 410/18/1 411/15/1 412/12/1
f 413/12/1 414/15/1 415/16/1 416/13/1
f 417/12/1 418/15/1 419/16/1 420/13/1
f 421/19/1 422/17/1 423/12/1 424/11/1
f 425/17/1 426/18/1 427/15/1 428/12/1
f 429/12/1 430/15/1 431/16/1 432/13/1
f 433/12/1 434/15/1 435/16/1 436/13/1
f 437/17/1 438/18/1 439/15/1 440/12/1
f 441/23/1 442/22/1 443/59/1 444/58/1
f 445/22/1 446/25/1 447/60/1 448/59/1
f 449/29/1 450/30/1 451/9/1 452/6/1
f 453/28/1 454/29/1 455/6/1 456/5/1
f 457/29/1 458/30/1 459/9/1 460/6/1
f 461/12/1 462/15/1 463/16/1 464/13/1
f 465/11/1 466/12/1 467/13/1 468/14/1
f 469/12/1 470/15/1 471/16/1 472/13/1
f 473/17/1 474/18/1 475/15/1 476/12/1
f 477/12/1 478/15/1 479/16/1 480/13/1
f 481/12/1 482/15/1 483/16/1 484/13/1
f 485/19/1 486/17/1 487/12/1 488/11/1
f 489/17/1 490/18/1 491/15/1 492/12/1
f 493/12/1 494/15/1 495/16/1 496/13/1
f 497/17/1 498/18/1 499/15/1 500/12/1
f 501/17/1 502/18/1 503/15/1 504/12/1
f 505/20/1 506/21/1 507/22/1 508/23/1
f 509/21/1 510/24/1 511/25/1 512/22/1
f 513/17/1 514/18/1 515/15/1 516/12/1
f 517/11/1 518/12/1 519/13/1 520/14/1
f 521/11/1 522/12/1 523/13/1 524/14/1
f 525/12/1 526/15/1 527/16/1 528/13/1
f 529/11/1 530/12/1 531/13/1 532/14/1
f 533/12/1 534/15/1 535/16/1 536/13/1
f 537/17/1 538/18/1 539/15/1 540/12/1
f 541/17/1 542/18/1 543/15/1 544/12/1
f 545/12/1 546/15/1 547/16/1 548/13/1
f 549/19/1 550/17/1 551/12/1 552/11/1
f 553/17/1 554/18/1 555/15/1 556/12/1
f 557/12/1 558/15/1 559/16/1 560/13/1
f 561/17/1 562/18/1 563/15/1 564/12/1
f 565/17/1 566/18/1 567/15/1 568/12/1
f 569/31/1 570/32/1 571/21/1 572/20/1
f 573/32/1 574/33/1 575/24/1 576/21/1
f 577/11/1 578/12/1 579/13/1 580/14/1
f 581/12/1 582/15/1 583/16/1 584/13/1
f 585/12/1 586/15/1 587/16/1 588/13/1
f 589/12/1 590/15/1 591/16/1 592/13/1
f 593/11/1 594/12/1 595/13/1 596/14/1
f 597/12/1 598/15/1 599/16/1 600/13/1
f 601/17/1 602/18/1 603/15/1 604/12/1
f 605/17/1 606/18/1 607/15/1 608/12/1
f 609/12/1 610/15/1 611/16/1 612/13/1
f 613/19/1 614/17/1 615/12/1 616/11/1
f 617/17/1 618/18/1 619/15/1 620/12/1
f 621/12/1 622/15/1 623/16/1 624/13/1
f 625/17/1 626/18/1 627/15/1 628/12/1
f 629/17/1 630/18/1 631/15/1 632/12/1
f 633/36/1 634/37/1 635/32/1 636/31/1
f 637/37/1 638/38/1 639/33/1 640/32/1
f 641/11/1 642/12/1 643/13/1 644/14/1
f 645/12/1 646/15/1 647/16/1 648/13/1
f 649/17/1 650/18/1 651/15/1 652/12/1
f 653/12/1 654/15/1 655/16/1 656/13/1
f 657/11/1 658/12/1 659/13/1 660/14/1
f 661/12/1 662/15/1 663/16/1 664/13/1
f 665/17/1 666/18/1 667/15/1 668/12/1
f 669/17/1 670/18/1 671/15/1 672/12/1
f 673/12/1 674/15/1 675/16/1 676/13/1
f 677/19/1 678/17/1 679/12/1 680/11/1
f 681/17/1 682/18/1 683/15/1 684/12/1
f 685/12/1 686/15/1 687/16/1 688/13/1
f 689/17/1 690/18/1 691/15/1 692/12/1
f 693/17/1 694/18/1 695/15/1 696/12/1
f 697/41/1 698/42/1 699/37/1 700/36/1
f 701/42/1 702/43/1 703/38/1 704/37/1
f 705/12/1 706/15/1 707/16/1 708/13/1
f 709/12/1 710/15/1 711/16/1 712/13/1
f 713/17/1 714/18/1 715/15/1 716/12/1
f 717/12/1 718/15/1 719/16/1 720/13/1
f 721/11/1 722/12/1 723/13/1 724/14/1
f 725/12/1 726/15/1 727/16/1 728/13/1
f 729/17/1 730/18/1 731/15/1 732/12/1
f 733/17/1 734/18/1 735/15/1 736/12/1
f 737/12/1 738/15/1 739/16/1 740/13/1
f 741/19/1 742/17/1 743/12/1 744/11/1
f 745/17/1 746/18/1 747/15/1 748/12/1
f 749/12/1 750/15/1 751/16/1 752/13/1
f 753/17/1 754/18/1 755/15/1 756/12/1
f 757/17/1 758/18/1 759/15/1 760/12/1
f 761/61/1 762/62/1 763/42/1 764/41/1
f 765/62/1 766/63/1 767/43/1 768/42/1
f 769/12/1 770/15/1 771/16/1 772/13/1
f 773/17/1 774/18/1 775/15/1 776/12/1
f 777/12/1 778/15/1 779/16/1 780/13/1
f 781/17/1 782/18/1 783/15/1 784/12/1
f 785/11/1 786/12/1 787/13/1 788/14/1
f 789/12/1 790/15/1 791/16/1 792/13/1
f 793/11/1 794/12/1 795/13/1 796/14/1
f 797/12/1 798/15/1 799/16/1 800/13/1
f 801/12/1 802/15/1 803/16/1 804/13/1
f 805/12/1 806/15/1 807/16/1 808/13/1
f 809/19/1 810/17/1 811/12/1 812/11/1
f 813/17/1 814/18/1 815/15/1 816/12/1
f 817/17/1 818/18/1 819/15/1 820/12/1
f 821/17/1 822/18/1 823/15/1 824/12/1
f 825/46/1 826/47/1 827/48/1 828/49/1
f 829/47/1 830/50/1 831/51/1 832/48/1
f 833/64/1 834/65/1 835/66/1 836/67/1
f 837/65/1 838/68/1 839/69/1 840/66/1
f 841/70/1 842/71/1 843/72/1 844/73/1
f 845/71/1 846/64/1 847/67/1 848/72/1
f 849/64/1 850/65/1 851/66/1 852/67/1
f 853/65/1 854/68/1 855/69/1 856/66/1
f 857/70/1 858/71/1 859/72/1 860/73/1
f 861/71/1 862/64/1 863/67/1 864/72/1
f 865/64/1 866/65/1 867/66/1 868/67/1
f 869/65/1 870/68/1 871/69/1 872/66/1
f 873/70/1 874/71/1 875/72/1 876/73/1
f 877/71/1 878/64/1 879/67/1 880/72/1
f 881/64/1 882/65/1 883/66/1 884/67/1
f 885/65/1 886/68/1 887/69/1 888/66/1
f 889/58/1 890/59/1 891/47/1 892/46/1
f 893/59/1 894/60/1 895/50/1 896/47/1
f 897/74/1 898/75/1 899/65/1 900/64/1
f 901/75/1 902/76/1 903/68/1 904/65/1
f 905/77/1 906/78/1 907/71/1 908/70/1
f 909/78/1 910/74/1 911/64/1 912/71/1
f 913/74/1 914/75/1 915/65/1 916/64/1
f 917/75/1 918/76/1 919/68/1 920/65/1
f 921/77/1 922/78/1 923/71/1 924/70/1
f 925/78/1 926/74/1 927/64/1 928/71/1
f 929/74/1 930/75/1 931/65/1 932/64/1
f 933/75/1 934/76/1 935/68/1 936/65/1
f 937/77/1 938/78/1 939/71/1 940/70/1
f 941/78/1 942/74/1 943/64/1 944/71/1
f 945/74/1 946/75/1 947/65/1 948/64/1
f 949/75/1 950/76/1 951/68/1 952/65/1
f 953/23/1 954/22/1 955/59/1 956/58/1
f 957/22/1 958/25/1 959/60/1 960/59/1
f 961/79/1 962/80/1 963/81/1 964/82/1
f 965/79/1 966/80/1 967/81/1 968/82/1
f 969/79/1 970/80/1 971/81/1 972/82/1
f 973/79/1 974/80/1 975/81/1 976/82/1
f 977/79/1 978/80/1 979/81/1 980/82/1
f 981/79/1 982/80/1 983/81/1 984/82/1
f 985/79/1 986/80/1 987/81/1 988/82/1
f 989/83/1 990/79/1 991/82/1 992/84/1
f 993/83/1 994/79/1 995/82/1 996/84/1
f 997/83/1 998/79/1 999/82/1 1000/84/1
f 1001/83/1 1002/79/1 1003/82/1 1004/84/1
f 1005/79/1 1006/80/1 1007/81/1 1008/82/1
f 1009/83/1 1010/79/1 1011/82/1 1012/84/1
f 1013/79/1 1014/80/1 1015/81/1 1016/82/1
f 1017/20/1 1018/21/1 1019/22/1 1020/23/1
f 1021/21/1 1022/24/1 1023/25/1 1024/22/1

