# Tiled2Unity generated file. Do not modify by hand.
# Wavefront file for 'Rogue_mesh_0008.obj'

# Vertices (Count = 1024)
v 0 -8 0
v -8 -8 0
v -8 0 0
v 0 0 0
v -8 -8 0
v -16 -8 0
v -16 0 0
v -8 0 0
v -16 -8 0
v -24 -8 0
v -24 0 0
v -16 0 0
v -24 -8 0
v -32 -8 0
v -32 0 0
v -24 0 0
v -32 -8 0
v -40 -8 0
v -40 0 0
v -32 0 0
v -40 -8 0
v -48 -8 0
v -48 0 0
v -40 0 0
v -48 -8 0
v -56 -8 0
v -56 0 0
v -48 0 0
v -56 -8 0
v -64 -8 0
v -64 0 0
v -56 0 0
v -64 -8 0
v -72 -8 0
v -72 0 0
v -64 0 0
v -72 -8 0
v -80 -8 0
v -80 0 0
v -72 0 0
v -80 -8 0
v -88 -8 0
v -88 0 0
v -80 0 0
v -88 -8 0
v -96 -8 0
v -96 0 0
v -88 0 0
v -96 -8 0
v -104 -8 0
v -104 0 0
v -96 0 0
v -104 -8 0
v -112 -8 0
v -112 0 0
v -104 0 0
v -112 -8 0
v -120 -8 0
v -120 0 0
v -112 0 0
v -120 -8 0
v -128 -8 0
v -128 0 0
v -120 0 0
v 0 -16 0
v -8 -16 0
v -8 -8 0
v 0 -8 0
v -8 -16 0
v -16 -16 0
v -16 -8 0
v -8 -8 0
v -16 -16 0
v -24 -16 0
v -24 -8 0
v -16 -8 0
v -24 -16 0
v -32 -16 0
v -32 -8 0
v -24 -8 0
v -32 -16 0
v -40 -16 0
v -40 -8 0
v -32 -8 0
v -40 -16 0
v -48 -16 0
v -48 -8 0
v -40 -8 0
v -48 -16 0
v -56 -16 0
v -56 -8 0
v -48 -8 0
v -56 -16 0
v -64 -16 0
v -64 -8 0
v -56 -8 0
v -64 -16 0
v -72 -16 0
v -72 -8 0
v -64 -8 0
v -72 -16 0
v -80 -16 0
v -80 -8 0
v -72 -8 0
v -80 -16 0
v -88 -16 0
v -88 -8 0
v -80 -8 0
v -88 -16 0
v -96 -16 0
v -96 -8 0
v -88 -8 0
v -96 -16 0
v -104 -16 0
v -104 -8 0
v -96 -8 0
v -104 -16 0
v -112 -16 0
v -112 -8 0
v -104 -8 0
v -112 -16 0
v -120 -16 0
v -120 -8 0
v -112 -8 0
v -120 -16 0
v -128 -16 0
v -128 -8 0
v -120 -8 0
v 0 -24 0
v -8 -24 0
v -8 -16 0
v 0 -16 0
v -8 -24 0
v -16 -24 0
v -16 -16 0
v -8 -16 0
v -16 -24 0
v -24 -24 0
v -24 -16 0
v -16 -16 0
v -24 -24 0
v -32 -24 0
v -32 -16 0
v -24 -16 0
v -32 -24 0
v -40 -24 0
v -40 -16 0
v -32 -16 0
v -40 -24 0
v -48 -24 0
v -48 -16 0
v -40 -16 0
v -48 -24 0
v -56 -24 0
v -56 -16 0
v -48 -16 0
v -56 -24 0
v -64 -24 0
v -64 -16 0
v -56 -16 0
v -64 -24 0
v -72 -24 0
v -72 -16 0
v -64 -16 0
v -72 -24 0
v -80 -24 0
v -80 -16 0
v -72 -16 0
v -80 -24 0
v -88 -24 0
v -88 -16 0
v -80 -16 0
v -88 -24 0
v -96 -24 0
v -96 -16 0
v -88 -16 0
v -96 -24 0
v -104 -24 0
v -104 -16 0
v -96 -16 0
v -104 -24 0
v -112 -24 0
v -112 -16 0
v -104 -16 0
v -112 -24 0
v -120 -24 0
v -120 -16 0
v -112 -16 0
v -120 -24 0
v -128 -24 0
v -128 -16 0
v -120 -16 0
v 0 -32 0
v -8 -32 0
v -8 -24 0
v 0 -24 0
v -8 -32 0
v -16 -32 0
v -16 -24 0
v -8 -24 0
v -16 -32 0
v -24 -32 0
v -24 -24 0
v -16 -24 0
v -24 -32 0
v -32 -32 0
v -32 -24 0
v -24 -24 0
v -32 -32 0
v -40 -32 0
v -40 -24 0
v -32 -24 0
v -40 -32 0
v -48 -32 0
v -48 -24 0
v -40 -24 0
v -48 -32 0
v -56 -32 0
v -56 -24 0
v -48 -24 0
v -56 -32 0
v -64 -32 0
v -64 -24 0
v -56 -24 0
v -64 -32 0
v -72 -32 0
v -72 -24 0
v -64 -24 0
v -72 -32 0
v -80 -32 0
v -80 -24 0
v -72 -24 0
v -80 -32 0
v -88 -32 0
v -88 -24 0
v -80 -24 0
v -88 -32 0
v -96 -32 0
v -96 -24 0
v -88 -24 0
v -96 -32 0
v -104 -32 0
v -104 -24 0
v -96 -24 0
v -104 -32 0
v -112 -32 0
v -112 -24 0
v -104 -24 0
v -112 -32 0
v -120 -32 0
v -120 -24 0
v -112 -24 0
v -120 -32 0
v -128 -32 0
v -128 -24 0
v -120 -24 0
v 0 -40 0
v -8 -40 0
v -8 -32 0
v 0 -32 0
v -8 -40 0
v -16 -40 0
v -16 -32 0
v -8 -32 0
v -16 -40 0
v -24 -40 0
v -24 -32 0
v -16 -32 0
v -24 -40 0
v -32 -40 0
v -32 -32 0
v -24 -32 0
v -32 -40 0
v -40 -40 0
v -40 -32 0
v -32 -32 0
v -40 -40 0
v -48 -40 0
v -48 -32 0
v -40 -32 0
v -48 -40 0
v -56 -40 0
v -56 -32 0
v -48 -32 0
v -56 -40 0
v -64 -40 0
v -64 -32 0
v -56 -32 0
v -64 -40 0
v -72 -40 0
v -72 -32 0
v -64 -32 0
v -72 -40 0
v -80 -40 0
v -80 -32 0
v -72 -32 0
v -80 -40 0
v -88 -40 0
v -88 -32 0
v -80 -32 0
v -88 -40 0
v -96 -40 0
v -96 -32 0
v -88 -32 0
v -96 -40 0
v -104 -40 0
v -104 -32 0
v -96 -32 0
v -104 -40 0
v -112 -40 0
v -112 -32 0
v -104 -32 0
v -112 -40 0
v -120 -40 0
v -120 -32 0
v -112 -32 0
v -120 -40 0
v -128 -40 0
v -128 -32 0
v -120 -32 0
v 0 -48 0
v -8 -48 0
v -8 -40 0
v 0 -40 0
v -8 -48 0
v -16 -48 0
v -16 -40 0
v -8 -40 0
v -16 -48 0
v -24 -48 0
v -24 -40 0
v -16 -40 0
v -24 -48 0
v -32 -48 0
v -32 -40 0
v -24 -40 0
v -32 -48 0
v -40 -48 0
v -40 -40 0
v -32 -40 0
v -40 -48 0
v -48 -48 0
v -48 -40 0
v -40 -40 0
v -48 -48 0
v -56 -48 0
v -56 -40 0
v -48 -40 0
v -56 -48 0
v -64 -48 0
v -64 -40 0
v -56 -40 0
v -64 -48 0
v -72 -48 0
v -72 -40 0
v -64 -40 0
v -72 -48 0
v -80 -48 0
v -80 -40 0
v -72 -40 0
v -80 -48 0
v -88 -48 0
v -88 -40 0
v -80 -40 0
v -88 -48 0
v -96 -48 0
v -96 -40 0
v -88 -40 0
v -96 -48 0
v -104 -48 0
v -104 -40 0
v -96 -40 0
v -104 -48 0
v -112 -48 0
v -112 -40 0
v -104 -40 0
v -112 -48 0
v -120 -48 0
v -120 -40 0
v -112 -40 0
v -120 -48 0
v -128 -48 0
v -128 -40 0
v -120 -40 0
v 0 -56 0
v -8 -56 0
v -8 -48 0
v 0 -48 0
v -8 -56 0
v -16 -56 0
v -16 -48 0
v -8 -48 0
v -16 -56 0
v -24 -56 0
v -24 -48 0
v -16 -48 0
v -24 -56 0
v -32 -56 0
v -32 -48 0
v -24 -48 0
v -32 -56 0
v -40 -56 0
v -40 -48 0
v -32 -48 0
v -40 -56 0
v -48 -56 0
v -48 -48 0
v -40 -48 0
v -48 -56 0
v -56 -56 0
v -56 -48 0
v -48 -48 0
v -56 -56 0
v -64 -56 0
v -64 -48 0
v -56 -48 0
v -64 -56 0
v -72 -56 0
v -72 -48 0
v -64 -48 0
v -72 -56 0
v -80 -56 0
v -80 -48 0
v -72 -48 0
v -80 -56 0
v -88 -56 0
v -88 -48 0
v -80 -48 0
v -88 -56 0
v -96 -56 0
v -96 -48 0
v -88 -48 0
v -96 -56 0
v -104 -56 0
v -104 -48 0
v -96 -48 0
v -104 -56 0
v -112 -56 0
v -112 -48 0
v -104 -48 0
v -112 -56 0
v -120 -56 0
v -120 -48 0
v -112 -48 0
v -120 -56 0
v -128 -56 0
v -128 -48 0
v -120 -48 0
v 0 -64 0
v -8 -64 0
v -8 -56 0
v 0 -56 0
v -8 -64 0
v -16 -64 0
v -16 -56 0
v -8 -56 0
v -16 -64 0
v -24 -64 0
v -24 -56 0
v -16 -56 0
v -24 -64 0
v -32 -64 0
v -32 -56 0
v -24 -56 0
v -32 -64 0
v -40 -64 0
v -40 -56 0
v -32 -56 0
v -40 -64 0
v -48 -64 0
v -48 -56 0
v -40 -56 0
v -48 -64 0
v -56 -64 0
v -56 -56 0
v -48 -56 0
v -56 -64 0
v -64 -64 0
v -64 -56 0
v -56 -56 0
v -64 -64 0
v -72 -64 0
v -72 -56 0
v -64 -56 0
v -72 -64 0
v -80 -64 0
v -80 -56 0
v -72 -56 0
v -80 -64 0
v -88 -64 0
v -88 -56 0
v -80 -56 0
v -88 -64 0
v -96 -64 0
v -96 -56 0
v -88 -56 0
v -96 -64 0
v -104 -64 0
v -104 -56 0
v -96 -56 0
v -104 -64 0
v -112 -64 0
v -112 -56 0
v -104 -56 0
v -112 -64 0
v -120 -64 0
v -120 -56 0
v -112 -56 0
v -120 -64 0
v -128 -64 0
v -128 -56 0
v -120 -56 0
v 0 -72 0
v -8 -72 0
v -8 -64 0
v 0 -64 0
v -8 -72 0
v -16 -72 0
v -16 -64 0
v -8 -64 0
v -16 -72 0
v -24 -72 0
v -24 -64 0
v -16 -64 0
v -24 -72 0
v -32 -72 0
v -32 -64 0
v -24 -64 0
v -32 -72 0
v -40 -72 0
v -40 -64 0
v -32 -64 0
v -40 -72 0
v -48 -72 0
v -48 -64 0
v -40 -64 0
v -48 -72 0
v -56 -72 0
v -56 -64 0
v -48 -64 0
v -56 -72 0
v -64 -72 0
v -64 -64 0
v -56 -64 0
v -64 -72 0
v -72 -72 0
v -72 -64 0
v -64 -64 0
v -72 -72 0
v -80 -72 0
v -80 -64 0
v -72 -64 0
v -80 -72 0
v -88 -72 0
v -88 -64 0
v -80 -64 0
v -88 -72 0
v -96 -72 0
v -96 -64 0
v -88 -64 0
v -96 -72 0
v -104 -72 0
v -104 -64 0
v -96 -64 0
v -104 -72 0
v -112 -72 0
v -112 -64 0
v -104 -64 0
v -112 -72 0
v -120 -72 0
v -120 -64 0
v -112 -64 0
v -120 -72 0
v -128 -72 0
v -128 -64 0
v -120 -64 0
v 0 -80 0
v -8 -80 0
v -8 -72 0
v 0 -72 0
v -8 -80 0
v -16 -80 0
v -16 -72 0
v -8 -72 0
v -16 -80 0
v -24 -80 0
v -24 -72 0
v -16 -72 0
v -24 -80 0
v -32 -80 0
v -32 -72 0
v -24 -72 0
v -32 -80 0
v -40 -80 0
v -40 -72 0
v -32 -72 0
v -40 -80 0
v -48 -80 0
v -48 -72 0
v -40 -72 0
v -48 -80 0
v -56 -80 0
v -56 -72 0
v -48 -72 0
v -56 -80 0
v -64 -80 0
v -64 -72 0
v -56 -72 0
v -64 -80 0
v -72 -80 0
v -72 -72 0
v -64 -72 0
v -72 -80 0
v -80 -80 0
v -80 -72 0
v -72 -72 0
v -80 -80 0
v -88 -80 0
v -88 -72 0
v -80 -72 0
v -88 -80 0
v -96 -80 0
v -96 -72 0
v -88 -72 0
v -96 -80 0
v -104 -80 0
v -104 -72 0
v -96 -72 0
v -104 -80 0
v -112 -80 0
v -112 -72 0
v -104 -72 0
v -112 -80 0
v -120 -80 0
v -120 -72 0
v -112 -72 0
v -120 -80 0
v -128 -80 0
v -128 -72 0
v -120 -72 0
v 0 -88 0
v -8 -88 0
v -8 -80 0
v 0 -80 0
v -8 -88 0
v -16 -88 0
v -16 -80 0
v -8 -80 0
v -16 -88 0
v -24 -88 0
v -24 -80 0
v -16 -80 0
v -24 -88 0
v -32 -88 0
v -32 -80 0
v -24 -80 0
v -32 -88 0
v -40 -88 0
v -40 -80 0
v -32 -80 0
v -40 -88 0
v -48 -88 0
v -48 -80 0
v -40 -80 0
v -48 -88 0
v -56 -88 0
v -56 -80 0
v -48 -80 0
v -56 -88 0
v -64 -88 0
v -64 -80 0
v -56 -80 0
v -64 -88 0
v -72 -88 0
v -72 -80 0
v -64 -80 0
v -72 -88 0
v -80 -88 0
v -80 -80 0
v -72 -80 0
v -80 -88 0
v -88 -88 0
v -88 -80 0
v -80 -80 0
v -88 -88 0
v -96 -88 0
v -96 -80 0
v -88 -80 0
v -96 -88 0
v -104 -88 0
v -104 -80 0
v -96 -80 0
v -104 -88 0
v -112 -88 0
v -112 -80 0
v -104 -80 0
v -112 -88 0
v -120 -88 0
v -120 -80 0
v -112 -80 0
v -120 -88 0
v -128 -88 0
v -128 -80 0
v -120 -80 0
v 0 -96 0
v -8 -96 0
v -8 -88 0
v 0 -88 0
v -8 -96 0
v -16 -96 0
v -16 -88 0
v -8 -88 0
v -16 -96 0
v -24 -96 0
v -24 -88 0
v -16 -88 0
v -24 -96 0
v -32 -96 0
v -32 -88 0
v -24 -88 0
v -32 -96 0
v -40 -96 0
v -40 -88 0
v -32 -88 0
v -40 -96 0
v -48 -96 0
v -48 -88 0
v -40 -88 0
v -48 -96 0
v -56 -96 0
v -56 -88 0
v -48 -88 0
v -56 -96 0
v -64 -96 0
v -64 -88 0
v -56 -88 0
v -64 -96 0
v -72 -96 0
v -72 -88 0
v -64 -88 0
v -72 -96 0
v -80 -96 0
v -80 -88 0
v -72 -88 0
v -80 -96 0
v -88 -96 0
v -88 -88 0
v -80 -88 0
v -88 -96 0
v -96 -96 0
v -96 -88 0
v -88 -88 0
v -96 -96 0
v -104 -96 0
v -104 -88 0
v -96 -88 0
v -104 -96 0
v -112 -96 0
v -112 -88 0
v -104 -88 0
v -112 -96 0
v -120 -96 0
v -120 -88 0
v -112 -88 0
v -120 -96 0
v -128 -96 0
v -128 -88 0
v -120 -88 0
v 0 -104 0
v -8 -104 0
v -8 -96 0
v 0 -96 0
v -8 -104 0
v -16 -104 0
v -16 -96 0
v -8 -96 0
v -16 -104 0
v -24 -104 0
v -24 -96 0
v -16 -96 0
v -24 -104 0
v -32 -104 0
v -32 -96 0
v -24 -96 0
v -32 -104 0
v -40 -104 0
v -40 -96 0
v -32 -96 0
v -40 -104 0
v -48 -104 0
v -48 -96 0
v -40 -96 0
v -48 -104 0
v -56 -104 0
v -56 -96 0
v -48 -96 0
v -56 -104 0
v -64 -104 0
v -64 -96 0
v -56 -96 0
v -64 -104 0
v -72 -104 0
v -72 -96 0
v -64 -96 0
v -72 -104 0
v -80 -104 0
v -80 -96 0
v -72 -96 0
v -80 -104 0
v -88 -104 0
v -88 -96 0
v -80 -96 0
v -88 -104 0
v -96 -104 0
v -96 -96 0
v -88 -96 0
v -96 -104 0
v -104 -104 0
v -104 -96 0
v -96 -96 0
v -104 -104 0
v -112 -104 0
v -112 -96 0
v -104 -96 0
v -112 -104 0
v -120 -104 0
v -120 -96 0
v -112 -96 0
v -120 -104 0
v -128 -104 0
v -128 -96 0
v -120 -96 0
v 0 -112 0
v -8 -112 0
v -8 -104 0
v 0 -104 0
v -8 -112 0
v -16 -112 0
v -16 -104 0
v -8 -104 0
v -16 -112 0
v -24 -112 0
v -24 -104 0
v -16 -104 0
v -24 -112 0
v -32 -112 0
v -32 -104 0
v -24 -104 0
v -32 -112 0
v -40 -112 0
v -40 -104 0
v -32 -104 0
v -40 -112 0
v -48 -112 0
v -48 -104 0
v -40 -104 0
v -48 -112 0
v -56 -112 0
v -56 -104 0
v -48 -104 0
v -56 -112 0
v -64 -112 0
v -64 -104 0
v -56 -104 0
v -64 -112 0
v -72 -112 0
v -72 -104 0
v -64 -104 0
v -72 -112 0
v -80 -112 0
v -80 -104 0
v -72 -104 0
v -80 -112 0
v -88 -112 0
v -88 -104 0
v -80 -104 0
v -88 -112 0
v -96 -112 0
v -96 -104 0
v -88 -104 0
v -96 -112 0
v -104 -112 0
v -104 -104 0
v -96 -104 0
v -104 -112 0
v -112 -112 0
v -112 -104 0
v -104 -104 0
v -112 -112 0
v -120 -112 0
v -120 -104 0
v -112 -104 0
v -120 -112 0
v -128 -112 0
v -128 -104 0
v -120 -104 0
v 0 -120 0
v -8 -120 0
v -8 -112 0
v 0 -112 0
v -8 -120 0
v -16 -120 0
v -16 -112 0
v -8 -112 0
v -16 -120 0
v -24 -120 0
v -24 -112 0
v -16 -112 0
v -24 -120 0
v -32 -120 0
v -32 -112 0
v -24 -112 0
v -32 -120 0
v -40 -120 0
v -40 -112 0
v -32 -112 0
v -40 -120 0
v -48 -120 0
v -48 -112 0
v -40 -112 0
v -48 -120 0
v -56 -120 0
v -56 -112 0
v -48 -112 0
v -56 -120 0
v -64 -120 0
v -64 -112 0
v -56 -112 0
v -64 -120 0
v -72 -120 0
v -72 -112 0
v -64 -112 0
v -72 -120 0
v -80 -120 0
v -80 -112 0
v -72 -112 0
v -80 -120 0
v -88 -120 0
v -88 -112 0
v -80 -112 0
v -88 -120 0
v -96 -120 0
v -96 -112 0
v -88 -112 0
v -96 -120 0
v -104 -120 0
v -104 -112 0
v -96 -112 0
v -104 -120 0
v -112 -120 0
v -112 -112 0
v -104 -112 0
v -112 -120 0
v -120 -120 0
v -120 -112 0
v -112 -112 0
v -120 -120 0
v -128 -120 0
v -128 -112 0
v -120 -112 0
v 0 -128 0
v -8 -128 0
v -8 -120 0
v 0 -120 0
v -8 -128 0
v -16 -128 0
v -16 -120 0
v -8 -120 0
v -16 -128 0
v -24 -128 0
v -24 -120 0
v -16 -120 0
v -24 -128 0
v -32 -128 0
v -32 -120 0
v -24 -120 0
v -32 -128 0
v -40 -128 0
v -40 -120 0
v -32 -120 0
v -40 -128 0
v -48 -128 0
v -48 -120 0
v -40 -120 0
v -48 -128 0
v -56 -128 0
v -56 -120 0
v -48 -120 0
v -56 -128 0
v -64 -128 0
v -64 -120 0
v -56 -120 0
v -64 -128 0
v -72 -128 0
v -72 -120 0
v -64 -120 0
v -72 -128 0
v -80 -128 0
v -80 -120 0
v -72 -120 0
v -80 -128 0
v -88 -128 0
v -88 -120 0
v -80 -120 0
v -88 -128 0
v -96 -128 0
v -96 -120 0
v -88 -120 0
v -96 -128 0
v -104 -128 0
v -104 -120 0
v -96 -120 0
v -104 -128 0
v -112 -128 0
v -112 -120 0
v -104 -120 0
v -112 -128 0
v -120 -128 0
v -120 -120 0
v -112 -120 0
v -120 -128 0
v -128 -128 0
v -128 -120 0
v -120 -120 0

# Texture cooridinates (Count = 36)
vt 0.4264706 0.8877551
vt 0.4411765 0.8877551
vt 0.4411765 0.8979592
vt 0.4264706 0.8979592
vt 0.4411765 0.9081632
vt 0.4264706 0.9081632
vt 0.4558823 0.8979592
vt 0.4558823 0.9081632
vt 0.4558823 0.8877551
vt 0.8823529 0.9183673
vt 0.8970588 0.9183673
vt 0.8970588 0.9285714
vt 0.8823529 0.9285714
vt 0.9117647 0.9183673
vt 0.9117647 0.9285714
vt 0.8823529 0.9081632
vt 0.8970588 0.9081632
vt 0.9117647 0.9081632
vt 0.8823529 0.8979592
vt 0.8970588 0.8979592
vt 0.9117647 0.8979592
vt 0.8823529 0.8877551
vt 0.8970588 0.8877551
vt 0.9117647 0.8877551
vt 0.8823529 0.9489796
vt 0.8970588 0.9489796
vt 0.8970588 0.9591837
vt 0.8823529 0.9591837
vt 0.9117647 0.9489796
vt 0.9117647 0.9591837
vt 0.8823529 0.9387755
vt 0.8970588 0.9387755
vt 0.9117647 0.9387755
vt 0.8823529 0.877551
vt 0.8970588 0.877551
vt 0.9117647 0.877551

# Normal
vn 0 0 -1

# Mesh description
g Rogue_mesh_0008

# Faces
f 1/1/1 2/2/1 3/3/1 4/4/1
f 5/1/1 6/2/1 7/3/1 8/4/1
f 9/4/1 10/3/1 11/5/1 12/6/1
f 13/4/1 14/3/1 15/5/1 16/6/1
f 17/3/1 18/7/1 19/8/1 20/5/1
f 21/2/1 22/9/1 23/7/1 24/3/1
f 25/1/1 26/2/1 27/3/1 28/4/1
f 29/4/1 30/3/1 31/5/1 32/6/1
f 33/3/1 34/7/1 35/8/1 36/5/1
f 37/2/1 38/9/1 39/7/1 40/3/1
f 41/3/1 42/7/1 43/8/1 44/5/1
f 45/2/1 46/9/1 47/7/1 48/3/1
f 49/3/1 50/7/1 51/8/1 52/5/1
f 53/2/1 54/9/1 55/7/1 56/3/1
f 57/10/1 58/11/1 59/12/1 60/13/1
f 61/11/1 62/14/1 63/15/1 64/12/1
f 65/3/1 66/7/1 67/8/1 68/5/1
f 69/2/1 70/9/1 71/7/1 72/3/1
f 73/4/1 74/3/1 75/5/1 76/6/1
f 77/1/1 78/2/1 79/3/1 80/4/1
f 81/4/1 82/3/1 83/5/1 84/6/1
f 85/3/1 86/7/1 87/8/1 88/5/1
f 89/3/1 90/7/1 91/8/1 92/5/1
f 93/4/1 94/3/1 95/5/1 96/6/1
f 97/3/1 98/7/1 99/8/1 100/5/1
f 101/2/1 102/9/1 103/7/1 104/3/1
f 105/3/1 106/7/1 107/8/1 108/5/1
f 109/2/1 110/9/1 111/7/1 112/3/1
f 113/3/1 114/7/1 115/8/1 116/5/1
f 117/2/1 118/9/1 119/7/1 120/3/1
f 121/16/1 122/17/1 123/11/1 124/10/1
f 125/17/1 126/18/1 127/14/1 128/11/1
f 129/2/1 130/9/1 131/7/1 132/3/1
f 133/1/1 134/2/1 135/3/1 136/4/1
f 137/4/1 138/3/1 139/5/1 140/6/1
f 141/1/1 142/2/1 143/3/1 144/4/1
f 145/4/1 146/3/1 147/5/1 148/6/1
f 149/3/1 150/7/1 151/8/1 152/5/1
f 153/2/1 154/9/1 155/7/1 156/3/1
f 157/4/1 158/3/1 159/5/1 160/6/1
f 161/3/1 162/7/1 163/8/1 164/5/1
f 165/2/1 166/9/1 167/7/1 168/3/1
f 169/3/1 170/7/1 171/8/1 172/5/1
f 173/2/1 174/9/1 175/7/1 176/3/1
f 177/3/1 178/7/1 179/8/1 180/5/1
f 181/2/1 182/9/1 183/7/1 184/3/1
f 185/19/1 186/20/1 187/17/1 188/16/1
f 189/20/1 190/21/1 191/18/1 192/17/1
f 193/3/1 194/7/1 195/8/1 196/5/1
f 197/3/1 198/7/1 199/8/1 200/5/1
f 201/3/1 202/7/1 203/8/1 204/5/1
f 205/1/1 206/2/1 207/3/1 208/4/1
f 209/4/1 210/3/1 211/5/1 212/6/1
f 213/3/1 214/7/1 215/8/1 216/5/1
f 217/2/1 218/9/1 219/7/1 220/3/1
f 221/4/1 222/3/1 223/5/1 224/6/1
f 225/3/1 226/7/1 227/8/1 228/5/1
f 229/2/1 230/9/1 231/7/1 232/3/1
f 233/3/1 234/7/1 235/8/1 236/5/1
f 237/2/1 238/9/1 239/7/1 240/3/1
f 241/3/1 242/7/1 243/8/1 244/5/1
f 245/2/1 246/9/1 247/7/1 248/3/1
f 249/22/1 250/23/1 251/20/1 252/19/1
f 253/23/1 254/24/1 255/21/1 256/20/1
f 257/2/1 258/9/1 259/7/1 260/3/1
f 261/2/1 262/9/1 263/7/1 264/3/1
f 265/2/1 266/9/1 267/7/1 268/3/1
f 269/1/1 270/2/1 271/3/1 272/4/1
f 273/4/1 274/3/1 275/5/1 276/6/1
f 277/3/1 278/7/1 279/8/1 280/5/1
f 281/2/1 282/9/1 283/7/1 284/3/1
f 285/3/1 286/7/1 287/8/1 288/5/1
f 289/3/1 290/7/1 291/8/1 292/5/1
f 293/2/1 294/9/1 295/7/1 296/3/1
f 297/3/1 298/7/1 299/8/1 300/5/1
f 301/3/1 302/7/1 303/8/1 304/5/1
f 305/3/1 306/7/1 307/8/1 308/5/1
f 309/2/1 310/9/1 311/7/1 312/3/1
f 313/25/1 314/26/1 315/27/1 316/28/1
f 317/26/1 318/29/1 319/30/1 320/27/1
f 321/1/1 322/2/1 323/3/1 324/4/1
f 325/1/1 326/2/1 327/3/1 328/4/1
f 329/2/1 330/9/1 331/7/1 332/3/1
f 333/3/1 334/7/1 335/8/1 336/5/1
f 337/4/1 338/3/1 339/5/1 340/6/1
f 341/3/1 342/7/1 343/8/1 344/5/1
f 345/2/1 346/9/1 347/7/1 348/3/1
f 349/2/1 350/9/1 351/7/1 352/3/1
f 353/3/1 354/7/1 355/8/1 356/5/1
f 357/1/1 358/2/1 359/3/1 360/4/1
f 361/2/1 362/9/1 363/7/1 364/3/1
f 365/3/1 366/7/1 367/8/1 368/5/1
f 369/3/1 370/7/1 371/8/1 372/5/1
f 373/3/1 374/7/1 375/8/1 376/5/1
f 377/31/1 378/32/1 379/26/1 380/25/1
f 381/32/1 382/33/1 383/29/1 384/26/1
f 385/1/1 386/2/1 387/3/1 388/4/1
f 389/2/1 390/9/1 391/7/1 392/3/1
f 393/4/1 394/3/1 395/5/1 396/6/1
f 397/3/1 398/7/1 399/8/1 400/5/1
f 401/4/1 402/3/1 403/5/1 404/6/1
f 405/3/1 406/7/1 407/8/1 408/5/1
f 409/2/1 410/9/1 411/7/1 412/3/1
f 413/3/1 414/7/1 415/8/1 416/5/1
f 417/3/1 418/7/1 419/8/1 420/5/1
f 421/1/1 422/2/1 423/3/1 424/4/1
f 425/2/1 426/9/1 427/7/1 428/3/1
f 429/3/1 430/7/1 431/8/1 432/5/1
f 433/3/1 434/7/1 435/8/1 436/5/1
f 437/2/1 438/9/1 439/7/1 440/3/1
f 441/13/1 442/12/1 443/32/1 444/31/1
f 445/12/1 446/15/1 447/33/1 448/32/1
f 449/3/1 450/7/1 451/8/1 452/5/1
f 453/4/1 454/3/1 455/5/1 456/6/1
f 457/4/1 458/3/1 459/5/1 460/6/1
f 461/3/1 462/7/1 463/8/1 464/5/1
f 465/4/1 466/3/1 467/5/1 468/6/1
f 469/3/1 470/7/1 471/8/1 472/5/1
f 473/2/1 474/9/1 475/7/1 476/3/1
f 477/3/1 478/7/1 479/8/1 480/5/1
f 481/3/1 482/7/1 483/8/1 484/5/1
f 485/1/1 486/2/1 487/3/1 488/4/1
f 489/2/1 490/9/1 491/7/1 492/3/1
f 493/3/1 494/7/1 495/8/1 496/5/1
f 497/2/1 498/9/1 499/7/1 500/3/1
f 501/2/1 502/9/1 503/7/1 504/3/1
f 505/10/1 506/11/1 507/12/1 508/13/1
f 509/11/1 510/14/1 511/15/1 512/12/1
f 513/2/1 514/9/1 515/7/1 516/3/1
f 517/4/1 518/3/1 519/5/1 520/6/1
f 521/4/1 522/3/1 523/5/1 524/6/1
f 525/3/1 526/7/1 527/8/1 528/5/1
f 529/4/1 530/3/1 531/5/1 532/6/1
f 533/3/1 534/7/1 535/8/1 536/5/1
f 537/2/1 538/9/1 539/7/1 540/3/1
f 541/2/1 542/9/1 543/7/1 544/3/1
f 545/3/1 546/7/1 547/8/1 548/5/1
f 549/1/1 550/2/1 551/3/1 552/4/1
f 553/2/1 554/9/1 555/7/1 556/3/1
f 557/3/1 558/7/1 559/8/1 560/5/1
f 561/2/1 562/9/1 563/7/1 564/3/1
f 565/2/1 566/9/1 567/7/1 568/3/1
f 569/16/1 570/17/1 571/11/1 572/10/1
f 573/17/1 574/18/1 575/14/1 576/11/1
f 577/4/1 578/3/1 579/5/1 580/6/1
f 581/3/1 582/7/1 583/8/1 584/5/1
f 585/3/1 586/7/1 587/8/1 588/5/1
f 589/3/1 590/7/1 591/8/1 592/5/1
f 593/4/1 594/3/1 595/5/1 596/6/1
f 597/3/1 598/7/1 599/8/1 600/5/1
f 601/2/1 602/9/1 603/7/1 604/3/1
f 605/2/1 606/9/1 607/7/1 608/3/1
f 609/3/1 610/7/1 611/8/1 612/5/1
f 613/1/1 614/2/1 615/3/1 616/4/1
f 617/2/1 618/9/1 619/7/1 620/3/1
f 621/3/1 622/7/1 623/8/1 624/5/1
f 625/2/1 626/9/1 627/7/1 628/3/1
f 629/2/1 630/9/1 631/7/1 632/3/1
f 633/19/1 634/20/1 635/17/1 636/16/1
f 637/20/1 638/21/1 639/18/1 640/17/1
f 641/4/1 642/3/1 643/5/1 644/6/1
f 645/3/1 646/7/1 647/8/1 648/5/1
f 649/2/1 650/9/1 651/7/1 652/3/1
f 653/3/1 654/7/1 655/8/1 656/5/1
f 657/4/1 658/3/1 659/5/1 660/6/1
f 661/3/1 662/7/1 663/8/1 664/5/1
f 665/2/1 666/9/1 667/7/1 668/3/1
f 669/2/1 670/9/1 671/7/1 672/3/1
f 673/3/1 674/7/1 675/8/1 676/5/1
f 677/1/1 678/2/1 679/3/1 680/4/1
f 681/2/1 682/9/1 683/7/1 684/3/1
f 685/3/1 686/7/1 687/8/1 688/5/1
f 689/2/1 690/9/1 691/7/1 692/3/1
f 693/2/1 694/9/1 695/7/1 696/3/1
f 697/22/1 698/23/1 699/20/1 700/19/1
f 701/23/1 702/24/1 703/21/1 704/20/1
f 705/3/1 706/7/1 707/8/1 708/5/1
f 709/3/1 710/7/1 711/8/1 712/5/1
f 713/2/1 714/9/1 715/7/1 716/3/1
f 717/3/1 718/7/1 719/8/1 720/5/1
f 721/4/1 722/3/1 723/5/1 724/6/1
f 725/3/1 726/7/1 727/8/1 728/5/1
f 729/2/1 730/9/1 731/7/1 732/3/1
f 733/2/1 734/9/1 735/7/1 736/3/1
f 737/3/1 738/7/1 739/8/1 740/5/1
f 741/1/1 742/2/1 743/3/1 744/4/1
f 745/2/1 746/9/1 747/7/1 748/3/1
f 749/3/1 750/7/1 751/8/1 752/5/1
f 753/2/1 754/9/1 755/7/1 756/3/1
f 757/2/1 758/9/1 759/7/1 760/3/1
f 761/34/1 762/35/1 763/23/1 764/22/1
f 765/35/1 766/36/1 767/24/1 768/23/1
f 769/3/1 770/7/1 771/8/1 772/5/1
f 773/2/1 774/9/1 775/7/1 776/3/1
f 777/3/1 778/7/1 779/8/1 780/5/1
f 781/2/1 782/9/1 783/7/1 784/3/1
f 785/4/1 786/3/1 787/5/1 788/6/1
f 789/3/1 790/7/1 791/8/1 792/5/1
f 793/4/1 794/3/1 795/5/1 796/6/1
f 797/3/1 798/7/1 799/8/1 800/5/1
f 801/3/1 802/7/1 803/8/1 804/5/1
f 805/3/1 806/7/1 807/8/1 808/5/1
f 809/1/1 810/2/1 811/3/1 812/4/1
f 813/2/1 814/9/1 815/7/1 816/3/1
f 817/2/1 818/9/1 819/7/1 820/3/1
f 821/2/1 822/9/1 823/7/1 824/3/1
f 825/25/1 826/26/1 827/27/1 828/28/1
f 829/26/1 830/29/1 831/30/1 832/27/1
f 833/2/1 834/9/1 835/7/1 836/3/1
f 837/2/1 838/9/1 839/7/1 840/3/1
f 841/3/1 842/7/1 843/8/1 844/5/1
f 845/3/1 846/7/1 847/8/1 848/5/1
f 849/4/1 850/3/1 851/5/1 852/6/1
f 853/4/1 854/3/1 855/5/1 856/6/1
f 857/4/1 858/3/1 859/5/1 860/6/1
f 861/3/1 862/7/1 863/8/1 864/5/1
f 865/3/1 866/7/1 867/8/1 868/5/1
f 869/4/1 870/3/1 871/5/1 872/6/1
f 873/1/1 874/2/1 875/3/1 876/4/1
f 877/2/1 878/9/1 879/7/1 880/3/1
f 881/2/1 882/9/1 883/7/1 884/3/1
f 885/2/1 886/9/1 887/7/1 888/3/1
f 889/31/1 890/32/1 891/26/1 892/25/1
f 893/32/1 894/33/1 895/29/1 896/26/1
f 897/1/1 898/2/1 899/3/1 900/4/1
f 901/2/1 902/9/1 903/7/1 904/3/1
f 905/3/1 906/7/1 907/8/1 908/5/1
f 909/2/1 910/9/1 911/7/1 912/3/1
f 913/3/1 914/7/1 915/8/1 916/5/1
f 917/3/1 918/7/1 919/8/1 920/5/1
f 921/4/1 922/3/1 923/5/1 924/6/1
f 925/3/1 926/7/1 927/8/1 928/5/1
f 929/2/1 930/9/1 931/7/1 932/3/1
f 933/4/1 934/3/1 935/5/1 936/6/1
f 937/1/1 938/2/1 939/3/1 940/4/1
f 941/2/1 942/9/1 943/7/1 944/3/1
f 945/3/1 946/7/1 947/8/1 948/5/1
f 949/2/1 950/9/1 951/7/1 952/3/1
f 953/13/1 954/12/1 955/32/1 956/31/1
f 957/12/1 958/15/1 959/33/1 960/32/1
f 961/1/1 962/2/1 963/3/1 964/4/1
f 965/2/1 966/9/1 967/7/1 968/3/1
f 969/2/1 970/9/1 971/7/1 972/3/1
f 973/2/1 974/9/1 975/7/1 976/3/1
f 977/3/1 978/7/1 979/8/1 980/5/1
f 981/2/1 982/9/1 983/7/1 984/3/1
f 985/4/1 986/3/1 987/5/1 988/6/1
f 989/3/1 990/7/1 991/8/1 992/5/1
f 993/2/1 994/9/1 995/7/1 996/3/1
f 997/4/1 998/3/1 999/5/1 1000/6/1
f 1001/1/1 1002/2/1 1003/3/1 1004/4/1
f 1005/2/1 1006/9/1 1007/7/1 1008/3/1
f 1009/3/1 1010/7/1 1011/8/1 1012/5/1
f 1013/2/1 1014/9/1 1015/7/1 1016/3/1
f 1017/10/1 1018/11/1 1019/12/1 1020/13/1
f 1021/11/1 1022/14/1 1023/15/1 1024/12/1

