# Tiled2Unity generated file. Do not modify by hand.
# Wavefront file for 'TownTest_mesh_0003.obj'

# Vertices (Count = 24)
v -32 -48 0
v -48 -48 0
v -48 -32 0
v -32 -32 0
v -96 -64 0
v -112 -64 0
v -112 -48 0
v -96 -48 0
v -48 -96 0
v -64 -96 0
v -64 -80 0
v -48 -80 0
v -32 -112 0
v -48 -112 0
v -48 -96 0
v -32 -96 0
v -112 -112 0
v -128 -112 0
v -128 -96 0
v -112 -96 0
v -128 -128 0
v -144 -128 0
v -144 -112 0
v -128 -112 0

# Texture cooridinates (Count = 20)
vt 0.875 0.9722222
vt 0.9 0.9722222
vt 0.9 1
vt 0.875 1
vt 0.825 0.9166667
vt 0.85 0.9166667
vt 0.85 0.9444444
vt 0.825 0.9444444
vt 0.275 0.3611111
vt 0.3 0.3611111
vt 0.3 0.3888889
vt 0.275 0.3888889
vt 0.275 0.3333333
vt 0.3 0.3333333
vt 0.875 0.9444444
vt 0.9 0.9444444
vt 0.925 0.9722222
vt 0.95 0.9722222
vt 0.95 1
vt 0.925 1

# Normal
vn 0 0 -1

# Mesh description
g TownTest_mesh_0003

# Faces
f 1/1/1 2/2/1 3/3/1 4/4/1
f 5/5/1 6/6/1 7/7/1 8/8/1
f 9/9/1 10/10/1 11/11/1 12/12/1
f 13/13/1 14/14/1 15/10/1 16/9/1
f 17/15/1 18/16/1 19/2/1 20/1/1
f 21/17/1 22/18/1 23/19/1 24/20/1

