# Tiled2Unity generated file. Do not modify by hand.
# Wavefront file for 'CustomTile_mesh_0002.obj'

# Vertices (Count = 200)
v -16 -16 0
v -32 -16 0
v -32 0 0
v -16 0 0
v -64 -16 0
v -80 -16 0
v -80 0 0
v -64 0 0
v -96 -16 0
v -112 -16 0
v -112 0 0
v -96 0 0
v -128 -16 0
v -144 -16 0
v -144 0 0
v -128 0 0
v 0 -32 0
v -16 -32 0
v -16 -16 0
v 0 -16 0
v -16 -32 0
v -32 -32 0
v -32 -16 0
v -16 -16 0
v -80 -32 0
v -96 -32 0
v -96 -16 0
v -80 -16 0
v -96 -32 0
v -112 -32 0
v -112 -16 0
v -96 -16 0
v -128 -32 0
v -144 -32 0
v -144 -16 0
v -128 -16 0
v 0 -48 0
v -16 -48 0
v -16 -32 0
v 0 -32 0
v -16 -48 0
v -32 -48 0
v -32 -32 0
v -16 -32 0
v -80 -48 0
v -96 -48 0
v -96 -32 0
v -80 -32 0
v -128 -48 0
v -144 -48 0
v -144 -32 0
v -128 -32 0
v 0 -64 0
v -16 -64 0
v -16 -48 0
v 0 -48 0
v -16 -64 0
v -32 -64 0
v -32 -48 0
v -16 -48 0
v -48 -64 0
v -64 -64 0
v -64 -48 0
v -48 -48 0
v -64 -64 0
v -80 -64 0
v -80 -48 0
v -64 -48 0
v -80 -64 0
v -96 -64 0
v -96 -48 0
v -80 -48 0
v -112 -64 0
v -128 -64 0
v -128 -48 0
v -112 -48 0
v -128 -64 0
v -144 -64 0
v -144 -48 0
v -128 -48 0
v -32 -80 0
v -48 -80 0
v -48 -64 0
v -32 -64 0
v -48 -80 0
v -64 -80 0
v -64 -64 0
v -48 -64 0
v -64 -80 0
v -80 -80 0
v -80 -64 0
v -64 -64 0
v -80 -80 0
v -96 -80 0
v -96 -64 0
v -80 -64 0
v -112 -80 0
v -128 -80 0
v -128 -64 0
v -112 -64 0
v -32 -96 0
v -48 -96 0
v -48 -80 0
v -32 -80 0
v -112 -96 0
v -128 -96 0
v -128 -80 0
v -112 -80 0
v -32 -112 0
v -48 -112 0
v -48 -96 0
v -32 -96 0
v -64 -112 0
v -80 -112 0
v -80 -96 0
v -64 -96 0
v -80 -112 0
v -96 -112 0
v -96 -96 0
v -80 -96 0
v -96 -112 0
v -112 -112 0
v -112 -96 0
v -96 -96 0
v -112 -112 0
v -128 -112 0
v -128 -96 0
v -112 -96 0
v 0 -128 0
v -16 -128 0
v -16 -112 0
v 0 -112 0
v -32 -128 0
v -48 -128 0
v -48 -112 0
v -32 -112 0
v -64 -128 0
v -80 -128 0
v -80 -112 0
v -64 -112 0
v -112 -128 0
v -128 -128 0
v -128 -112 0
v -112 -112 0
v -128 -128 0
v -144 -128 0
v -144 -112 0
v -128 -112 0
v -144 -128 0
v -160 -128 0
v -160 -112 0
v -144 -112 0
v 0 -144 0
v -16 -144 0
v -16 -128 0
v 0 -128 0
v -32 -144 0
v -48 -144 0
v -48 -128 0
v -32 -128 0
v -64 -144 0
v -80 -144 0
v -80 -128 0
v -64 -128 0
v -112 -144 0
v -128 -144 0
v -128 -128 0
v -112 -128 0
v -128 -144 0
v -144 -144 0
v -144 -128 0
v -128 -128 0
v -144 -144 0
v -160 -144 0
v -160 -128 0
v -144 -128 0
v 0 -160 0
v -16 -160 0
v -16 -144 0
v 0 -144 0
v -32 -160 0
v -48 -160 0
v -48 -144 0
v -32 -144 0
v -64 -160 0
v -80 -160 0
v -80 -144 0
v -64 -144 0
v -112 -160 0
v -128 -160 0
v -128 -144 0
v -112 -144 0
v -128 -160 0
v -144 -160 0
v -144 -144 0
v -128 -144 0
v -144 -160 0
v -160 -160 0
v -160 -144 0
v -144 -144 0

# Texture cooridinates (Count = 32)
vt 0.46875 0.8125
vt 0.5 0.8125
vt 0.5 0.875
vt 0.46875 0.875
vt 0.15625 0.8125
vt 0.1875 0.8125
vt 0.1875 0.875
vt 0.15625 0.875
vt 0.21875 0.8125
vt 0.25 0.8125
vt 0.25 0.875
vt 0.21875 0.875
vt 0.21875 0.9375
vt 0.1875 0.9375
vt 0.25 0.9375
vt 0.15625 0.9375
vt 0.59375 0.8125
vt 0.625 0.8125
vt 0.625 0.875
vt 0.59375 0.875
vt 0.1875 0.75
vt 0.21875 0.75
vt 0.25 0.75
vt 0.28125 0.3125
vt 0.3125 0.3125
vt 0.3125 0.375
vt 0.28125 0.375
vt 0.5625 0.8125
vt 0.5625 0.875
vt 0.53125 0.875
vt 0.53125 0.8125
vt 0.15625 0.75

# Normal
vn 0 0 -1

# Mesh description
g CustomTile_mesh_0002

# Faces
f 1/1/1 2/2/1 3/3/1 4/4/1
f 5/1/1 6/2/1 7/3/1 8/4/1
f 9/5/1 10/6/1 11/7/1 12/8/1
f 13/9/1 14/10/1 15/11/1 16/12/1
f 17/7/1 18/12/1 19/13/1 20/14/1
f 21/12/1 22/11/1 23/15/1 24/13/1
f 25/8/1 26/7/1 27/14/1 28/16/1
f 29/17/1 30/18/1 31/19/1 32/20/1
f 33/9/1 34/10/1 35/11/1 36/12/1
f 37/6/1 38/9/1 39/12/1 40/7/1
f 41/9/1 42/10/1 43/11/1 44/12/1
f 45/5/1 46/6/1 47/7/1 48/8/1
f 49/9/1 50/10/1 51/11/1 52/12/1
f 53/21/1 54/22/1 55/9/1 56/6/1
f 57/22/1 58/23/1 59/10/1 60/9/1
f 61/24/1 62/25/1 63/26/1 64/27/1
f 65/24/1 66/25/1 67/26/1 68/27/1
f 69/5/1 70/6/1 71/7/1 72/8/1
f 73/28/1 74/29/1 75/30/1 76/31/1
f 77/22/1 78/23/1 79/10/1 80/9/1
f 81/8/1 82/7/1 83/14/1 84/16/1
f 85/7/1 86/12/1 87/13/1 88/14/1
f 89/7/1 90/12/1 91/13/1 92/14/1
f 93/17/1 94/18/1 95/19/1 96/20/1
f 97/9/1 98/10/1 99/11/1 100/12/1
f 101/5/1 102/6/1 103/7/1 104/8/1
f 105/9/1 106/10/1 107/11/1 108/12/1
f 109/5/1 110/6/1 111/7/1 112/8/1
f 113/28/1 114/29/1 115/30/1 116/31/1
f 117/21/1 118/22/1 119/9/1 120/6/1
f 121/21/1 122/22/1 123/9/1 124/6/1
f 125/22/1 126/23/1 127/10/1 128/9/1
f 129/12/1 130/11/1 131/15/1 132/13/1
f 133/5/1 134/6/1 135/7/1 136/8/1
f 137/9/1 138/10/1 139/11/1 140/12/1
f 141/8/1 142/7/1 143/14/1 144/16/1
f 145/7/1 146/12/1 147/13/1 148/14/1
f 149/12/1 150/11/1 151/15/1 152/13/1
f 153/9/1 154/10/1 155/11/1 156/12/1
f 157/5/1 158/6/1 159/7/1 160/8/1
f 161/9/1 162/10/1 163/11/1 164/12/1
f 165/5/1 166/6/1 167/7/1 168/8/1
f 169/6/1 170/9/1 171/12/1 172/7/1
f 173/9/1 174/10/1 175/11/1 176/12/1
f 177/22/1 178/23/1 179/10/1 180/9/1
f 181/5/1 182/6/1 183/7/1 184/8/1
f 185/9/1 186/10/1 187/11/1 188/12/1
f 189/32/1 190/21/1 191/6/1 192/5/1
f 193/21/1 194/22/1 195/9/1 196/6/1
f 197/22/1 198/23/1 199/10/1 200/9/1

