# Tiled2Unity generated file. Do not modify by hand.
# Wavefront file for 'CustomTile_mesh_0008.obj'

# Vertices (Count = 36)
v -16 -16 0
v -32 -16 0
v -32 0 0
v -16 0 0
v -32 -16 0
v -48 -16 0
v -48 0 0
v -32 0 0
v -48 -16 0
v -64 -16 0
v -64 0 0
v -48 0 0
v -16 -32 0
v -32 -32 0
v -32 -16 0
v -16 -16 0
v -32 -32 0
v -48 -32 0
v -48 -16 0
v -32 -16 0
v -48 -32 0
v -64 -32 0
v -64 -16 0
v -48 -16 0
v -16 -48 0
v -32 -48 0
v -32 -32 0
v -16 -32 0
v -32 -48 0
v -48 -48 0
v -48 -32 0
v -32 -32 0
v -48 -48 0
v -64 -48 0
v -64 -32 0
v -48 -32 0

# Texture cooridinates (Count = 16)
vt 0.5625 0.4375
vt 0.59375 0.4375
vt 0.59375 0.5
vt 0.5625 0.5
vt 0.625 0.4375
vt 0.625 0.5
vt 0.65625 0.4375
vt 0.65625 0.5
vt 0.5625 0.375
vt 0.59375 0.375
vt 0.625 0.375
vt 0.65625 0.375
vt 0.5625 0.3125
vt 0.59375 0.3125
vt 0.625 0.3125
vt 0.65625 0.3125

# Normal
vn 0 0 -1

# Mesh description
g CustomTile_mesh_0008

# Faces
f 1/1/1 2/2/1 3/3/1 4/4/1
f 5/2/1 6/5/1 7/6/1 8/3/1
f 9/5/1 10/7/1 11/8/1 12/6/1
f 13/9/1 14/10/1 15/2/1 16/1/1
f 17/10/1 18/11/1 19/5/1 20/2/1
f 21/11/1 22/12/1 23/7/1 24/5/1
f 25/13/1 26/14/1 27/10/1 28/9/1
f 29/14/1 30/15/1 31/11/1 32/10/1
f 33/15/1 34/16/1 35/12/1 36/11/1

