# Tiled2Unity generated file. Do not modify by hand.
# Wavefront file for 'RoomD_mesh_0005.obj'

# Vertices (Count = 152)
v 0 -8 0
v -8 -8 0
v -8 0 0
v 0 0 0
v -8 -8 0
v -16 -8 0
v -16 0 0
v -8 0 0
v 0 -16 0
v -8 -16 0
v -8 -8 0
v 0 -8 0
v -8 -16 0
v -16 -16 0
v -16 -8 0
v -8 -8 0
v 0 -24 0
v -8 -24 0
v -8 -16 0
v 0 -16 0
v -8 -24 0
v -16 -24 0
v -16 -16 0
v -8 -16 0
v 0 -32 0
v -8 -32 0
v -8 -24 0
v 0 -24 0
v -8 -32 0
v -16 -32 0
v -16 -24 0
v -8 -24 0
v 0 -40 0
v -8 -40 0
v -8 -32 0
v 0 -32 0
v -8 -40 0
v -16 -40 0
v -16 -32 0
v -8 -32 0
v 0 -48 0
v -8 -48 0
v -8 -40 0
v 0 -40 0
v -8 -48 0
v -16 -48 0
v -16 -40 0
v -8 -40 0
v 0 -56 0
v -8 -56 0
v -8 -48 0
v 0 -48 0
v -8 -56 0
v -16 -56 0
v -16 -48 0
v -8 -48 0
v 0 -64 0
v -8 -64 0
v -8 -56 0
v 0 -56 0
v -8 -64 0
v -16 -64 0
v -16 -56 0
v -8 -56 0
v 0 -72 0
v -8 -72 0
v -8 -64 0
v 0 -64 0
v -8 -72 0
v -16 -72 0
v -16 -64 0
v -8 -64 0
v 0 -80 0
v -8 -80 0
v -8 -72 0
v 0 -72 0
v -8 -80 0
v -16 -80 0
v -16 -72 0
v -8 -72 0
v 0 -88 0
v -8 -88 0
v -8 -80 0
v 0 -80 0
v -8 -88 0
v -16 -88 0
v -16 -80 0
v -8 -80 0
v 0 -96 0
v -8 -96 0
v -8 -88 0
v 0 -88 0
v -8 -96 0
v -16 -96 0
v -16 -88 0
v -8 -88 0
v 0 -104 0
v -8 -104 0
v -8 -96 0
v 0 -96 0
v -8 -104 0
v -16 -104 0
v -16 -96 0
v -8 -96 0
v 0 -112 0
v -8 -112 0
v -8 -104 0
v 0 -104 0
v -8 -112 0
v -16 -112 0
v -16 -104 0
v -8 -104 0
v -112 -112 0
v -120 -112 0
v -120 -104 0
v -112 -104 0
v -120 -112 0
v -128 -112 0
v -128 -104 0
v -120 -104 0
v 0 -120 0
v -8 -120 0
v -8 -112 0
v 0 -112 0
v -8 -120 0
v -16 -120 0
v -16 -112 0
v -8 -112 0
v -112 -120 0
v -120 -120 0
v -120 -112 0
v -112 -112 0
v -120 -120 0
v -128 -120 0
v -128 -112 0
v -120 -112 0
v 0 -128 0
v -8 -128 0
v -8 -120 0
v 0 -120 0
v -8 -128 0
v -16 -128 0
v -16 -120 0
v -8 -120 0
v -112 -128 0
v -120 -128 0
v -120 -120 0
v -112 -120 0
v -120 -128 0
v -128 -128 0
v -128 -120 0
v -120 -120 0

# Texture cooridinates (Count = 39)
vt 0.2058824 0.7244898
vt 0.2205882 0.7244898
vt 0.2205882 0.7346939
vt 0.2058824 0.7346939
vt 0.2352941 0.7244898
vt 0.2352941 0.7346939
vt 0.2058824 0.7142857
vt 0.2205882 0.7142857
vt 0.2352941 0.7142857
vt 0.2058824 0.7040817
vt 0.2205882 0.7040817
vt 0.2352941 0.7040817
vt 0.2058824 0.6938776
vt 0.2205882 0.6938776
vt 0.2352941 0.6938776
vt 0.2058824 0.7653061
vt 0.2205882 0.7653061
vt 0.2205882 0.7755102
vt 0.2058824 0.7755102
vt 0.2352941 0.7653061
vt 0.2352941 0.7755102
vt 0.2058824 0.755102
vt 0.2205882 0.755102
vt 0.2352941 0.755102
vt 0.2058824 0.744898
vt 0.2205882 0.744898
vt 0.2352941 0.744898
vt 0.4705882 0.8265306
vt 0.4852941 0.8265306
vt 0.4852941 0.8367347
vt 0.4705882 0.8367347
vt 0.5 0.8265306
vt 0.5 0.8367347
vt 0.4705882 0.8163265
vt 0.4852941 0.8163265
vt 0.5 0.8163265
vt 0.4705882 0.8061224
vt 0.4852941 0.8061224
vt 0.5 0.8061224

# Normal
vn 0 0 -1

# Mesh description
g RoomD_mesh_0005

# Faces
f 1/1/1 2/2/1 3/3/1 4/4/1
f 5/2/1 6/5/1 7/6/1 8/3/1
f 9/7/1 10/8/1 11/2/1 12/1/1
f 13/8/1 14/9/1 15/5/1 16/2/1
f 17/10/1 18/11/1 19/8/1 20/7/1
f 21/11/1 22/12/1 23/9/1 24/8/1
f 25/13/1 26/14/1 27/11/1 28/10/1
f 29/14/1 30/15/1 31/12/1 32/11/1
f 33/16/1 34/17/1 35/18/1 36/19/1
f 37/17/1 38/20/1 39/21/1 40/18/1
f 41/22/1 42/23/1 43/17/1 44/16/1
f 45/23/1 46/24/1 47/20/1 48/17/1
f 49/25/1 50/26/1 51/23/1 52/22/1
f 53/26/1 54/27/1 55/24/1 56/23/1
f 57/4/1 58/3/1 59/26/1 60/25/1
f 61/3/1 62/6/1 63/27/1 64/26/1
f 65/1/1 66/2/1 67/3/1 68/4/1
f 69/2/1 70/5/1 71/6/1 72/3/1
f 73/7/1 74/8/1 75/2/1 76/1/1
f 77/8/1 78/9/1 79/5/1 80/2/1
f 81/10/1 82/11/1 83/8/1 84/7/1
f 85/11/1 86/12/1 87/9/1 88/8/1
f 89/13/1 90/14/1 91/11/1 92/10/1
f 93/14/1 94/15/1 95/12/1 96/11/1
f 97/16/1 98/17/1 99/18/1 100/19/1
f 101/17/1 102/20/1 103/21/1 104/18/1
f 105/22/1 106/23/1 107/17/1 108/16/1
f 109/23/1 110/24/1 111/20/1 112/17/1
f 113/28/1 114/29/1 115/30/1 116/31/1
f 117/29/1 118/32/1 119/33/1 120/30/1
f 121/25/1 122/26/1 123/23/1 124/22/1
f 125/26/1 126/27/1 127/24/1 128/23/1
f 129/34/1 130/35/1 131/29/1 132/28/1
f 133/35/1 134/36/1 135/32/1 136/29/1
f 137/4/1 138/3/1 139/26/1 140/25/1
f 141/3/1 142/6/1 143/27/1 144/26/1
f 145/37/1 146/38/1 147/35/1 148/34/1
f 149/38/1 150/39/1 151/36/1 152/35/1

