# Tiled2Unity generated file. Do not modify by hand.
# Wavefront file for 'RoomD_mesh_0010.obj'

# Vertices (Count = 16)
v -112 -8 0
v -120 -8 0
v -120 0 0
v -112 0 0
v -120 -8 0
v -128 -8 0
v -128 0 0
v -120 0 0
v -112 -16 0
v -120 -16 0
v -120 -8 0
v -112 -8 0
v -120 -16 0
v -128 -16 0
v -128 -8 0
v -120 -8 0

# Texture cooridinates (Count = 8)
vt 0.4411765 0.9489796
vt 0.4558823 0.9489796
vt 0.4558823 0.9591837
vt 0.4411765 0.9591837
vt 0.4264706 0.9387755
vt 0.4411765 0.9387755
vt 0.4264706 0.9489796
vt 0.4558823 0.9387755

# Normal
vn 0 0 -1

# Mesh description
g RoomD_mesh_0010

# Faces
f 1/1/1 2/2/1 3/3/1 4/4/1
f 5/5/1 6/6/1 7/1/1 8/7/1
f 9/6/1 10/8/1 11/2/1 12/1/1
f 13/5/1 14/6/1 15/1/1 16/7/1

