# Tiled2Unity generated file. Do not modify by hand.
# Wavefront file for 'RoomD_mesh_0029.obj'

# Vertices (Count = 864)
v 0 -8 0
v -8 -8 0
v -8 0 0
v 0 0 0
v -8 -8 0
v -16 -8 0
v -16 0 0
v -8 0 0
v -16 -8 0
v -24 -8 0
v -24 0 0
v -16 0 0
v -24 -8 0
v -32 -8 0
v -32 0 0
v -24 0 0
v -32 -8 0
v -40 -8 0
v -40 0 0
v -32 0 0
v -40 -8 0
v -48 -8 0
v -48 0 0
v -40 0 0
v -48 -8 0
v -56 -8 0
v -56 0 0
v -48 0 0
v -56 -8 0
v -64 -8 0
v -64 0 0
v -56 0 0
v -64 -8 0
v -72 -8 0
v -72 0 0
v -64 0 0
v -72 -8 0
v -80 -8 0
v -80 0 0
v -72 0 0
v -80 -8 0
v -88 -8 0
v -88 0 0
v -80 0 0
v -88 -8 0
v -96 -8 0
v -96 0 0
v -88 0 0
v -96 -8 0
v -104 -8 0
v -104 0 0
v -96 0 0
v -104 -8 0
v -112 -8 0
v -112 0 0
v -104 0 0
v -112 -8 0
v -120 -8 0
v -120 0 0
v -112 0 0
v -120 -8 0
v -128 -8 0
v -128 0 0
v -120 0 0
v 0 -16 0
v -8 -16 0
v -8 -8 0
v 0 -8 0
v -8 -16 0
v -16 -16 0
v -16 -8 0
v -8 -8 0
v -16 -16 0
v -24 -16 0
v -24 -8 0
v -16 -8 0
v -24 -16 0
v -32 -16 0
v -32 -8 0
v -24 -8 0
v -32 -16 0
v -40 -16 0
v -40 -8 0
v -32 -8 0
v -40 -16 0
v -48 -16 0
v -48 -8 0
v -40 -8 0
v -48 -16 0
v -56 -16 0
v -56 -8 0
v -48 -8 0
v -56 -16 0
v -64 -16 0
v -64 -8 0
v -56 -8 0
v -64 -16 0
v -72 -16 0
v -72 -8 0
v -64 -8 0
v -72 -16 0
v -80 -16 0
v -80 -8 0
v -72 -8 0
v -80 -16 0
v -88 -16 0
v -88 -8 0
v -80 -8 0
v -88 -16 0
v -96 -16 0
v -96 -8 0
v -88 -8 0
v -96 -16 0
v -104 -16 0
v -104 -8 0
v -96 -8 0
v -104 -16 0
v -112 -16 0
v -112 -8 0
v -104 -8 0
v -112 -16 0
v -120 -16 0
v -120 -8 0
v -112 -8 0
v -120 -16 0
v -128 -16 0
v -128 -8 0
v -120 -8 0
v 0 -24 0
v -8 -24 0
v -8 -16 0
v 0 -16 0
v -8 -24 0
v -16 -24 0
v -16 -16 0
v -8 -16 0
v -16 -24 0
v -24 -24 0
v -24 -16 0
v -16 -16 0
v -24 -24 0
v -32 -24 0
v -32 -16 0
v -24 -16 0
v -32 -24 0
v -40 -24 0
v -40 -16 0
v -32 -16 0
v -40 -24 0
v -48 -24 0
v -48 -16 0
v -40 -16 0
v -48 -24 0
v -56 -24 0
v -56 -16 0
v -48 -16 0
v -56 -24 0
v -64 -24 0
v -64 -16 0
v -56 -16 0
v -64 -24 0
v -72 -24 0
v -72 -16 0
v -64 -16 0
v -72 -24 0
v -80 -24 0
v -80 -16 0
v -72 -16 0
v -80 -24 0
v -88 -24 0
v -88 -16 0
v -80 -16 0
v -88 -24 0
v -96 -24 0
v -96 -16 0
v -88 -16 0
v -96 -24 0
v -104 -24 0
v -104 -16 0
v -96 -16 0
v -104 -24 0
v -112 -24 0
v -112 -16 0
v -104 -16 0
v -112 -24 0
v -120 -24 0
v -120 -16 0
v -112 -16 0
v -120 -24 0
v -128 -24 0
v -128 -16 0
v -120 -16 0
v 0 -32 0
v -8 -32 0
v -8 -24 0
v 0 -24 0
v -8 -32 0
v -16 -32 0
v -16 -24 0
v -8 -24 0
v -16 -32 0
v -24 -32 0
v -24 -24 0
v -16 -24 0
v -24 -32 0
v -32 -32 0
v -32 -24 0
v -24 -24 0
v -32 -32 0
v -40 -32 0
v -40 -24 0
v -32 -24 0
v -40 -32 0
v -48 -32 0
v -48 -24 0
v -40 -24 0
v -48 -32 0
v -56 -32 0
v -56 -24 0
v -48 -24 0
v -56 -32 0
v -64 -32 0
v -64 -24 0
v -56 -24 0
v -64 -32 0
v -72 -32 0
v -72 -24 0
v -64 -24 0
v -72 -32 0
v -80 -32 0
v -80 -24 0
v -72 -24 0
v -80 -32 0
v -88 -32 0
v -88 -24 0
v -80 -24 0
v -88 -32 0
v -96 -32 0
v -96 -24 0
v -88 -24 0
v -96 -32 0
v -104 -32 0
v -104 -24 0
v -96 -24 0
v -104 -32 0
v -112 -32 0
v -112 -24 0
v -104 -24 0
v -112 -32 0
v -120 -32 0
v -120 -24 0
v -112 -24 0
v -120 -32 0
v -128 -32 0
v -128 -24 0
v -120 -24 0
v -64 -40 0
v -72 -40 0
v -72 -32 0
v -64 -32 0
v -72 -40 0
v -80 -40 0
v -80 -32 0
v -72 -32 0
v -80 -40 0
v -88 -40 0
v -88 -32 0
v -80 -32 0
v -88 -40 0
v -96 -40 0
v -96 -32 0
v -88 -32 0
v -96 -40 0
v -104 -40 0
v -104 -32 0
v -96 -32 0
v -104 -40 0
v -112 -40 0
v -112 -32 0
v -104 -32 0
v -112 -40 0
v -120 -40 0
v -120 -32 0
v -112 -32 0
v -120 -40 0
v -128 -40 0
v -128 -32 0
v -120 -32 0
v -64 -48 0
v -72 -48 0
v -72 -40 0
v -64 -40 0
v -72 -48 0
v -80 -48 0
v -80 -40 0
v -72 -40 0
v -80 -48 0
v -88 -48 0
v -88 -40 0
v -80 -40 0
v -88 -48 0
v -96 -48 0
v -96 -40 0
v -88 -40 0
v -96 -48 0
v -104 -48 0
v -104 -40 0
v -96 -40 0
v -104 -48 0
v -112 -48 0
v -112 -40 0
v -104 -40 0
v -112 -48 0
v -120 -48 0
v -120 -40 0
v -112 -40 0
v -120 -48 0
v -128 -48 0
v -128 -40 0
v -120 -40 0
v -64 -56 0
v -72 -56 0
v -72 -48 0
v -64 -48 0
v -72 -56 0
v -80 -56 0
v -80 -48 0
v -72 -48 0
v -80 -56 0
v -88 -56 0
v -88 -48 0
v -80 -48 0
v -88 -56 0
v -96 -56 0
v -96 -48 0
v -88 -48 0
v -96 -56 0
v -104 -56 0
v -104 -48 0
v -96 -48 0
v -104 -56 0
v -112 -56 0
v -112 -48 0
v -104 -48 0
v -112 -56 0
v -120 -56 0
v -120 -48 0
v -112 -48 0
v -120 -56 0
v -128 -56 0
v -128 -48 0
v -120 -48 0
v -64 -64 0
v -72 -64 0
v -72 -56 0
v -64 -56 0
v -72 -64 0
v -80 -64 0
v -80 -56 0
v -72 -56 0
v -80 -64 0
v -88 -64 0
v -88 -56 0
v -80 -56 0
v -88 -64 0
v -96 -64 0
v -96 -56 0
v -88 -56 0
v -96 -64 0
v -104 -64 0
v -104 -56 0
v -96 -56 0
v -104 -64 0
v -112 -64 0
v -112 -56 0
v -104 -56 0
v -112 -64 0
v -120 -64 0
v -120 -56 0
v -112 -56 0
v -120 -64 0
v -128 -64 0
v -128 -56 0
v -120 -56 0
v -64 -72 0
v -72 -72 0
v -72 -64 0
v -64 -64 0
v -72 -72 0
v -80 -72 0
v -80 -64 0
v -72 -64 0
v -80 -72 0
v -88 -72 0
v -88 -64 0
v -80 -64 0
v -88 -72 0
v -96 -72 0
v -96 -64 0
v -88 -64 0
v -96 -72 0
v -104 -72 0
v -104 -64 0
v -96 -64 0
v -104 -72 0
v -112 -72 0
v -112 -64 0
v -104 -64 0
v -112 -72 0
v -120 -72 0
v -120 -64 0
v -112 -64 0
v -120 -72 0
v -128 -72 0
v -128 -64 0
v -120 -64 0
v 0 -80 0
v -8 -80 0
v -8 -72 0
v 0 -72 0
v -8 -80 0
v -16 -80 0
v -16 -72 0
v -8 -72 0
v -16 -80 0
v -24 -80 0
v -24 -72 0
v -16 -72 0
v -24 -80 0
v -32 -80 0
v -32 -72 0
v -24 -72 0
v -32 -80 0
v -40 -80 0
v -40 -72 0
v -32 -72 0
v -40 -80 0
v -48 -80 0
v -48 -72 0
v -40 -72 0
v -48 -80 0
v -56 -80 0
v -56 -72 0
v -48 -72 0
v -56 -80 0
v -64 -80 0
v -64 -72 0
v -56 -72 0
v -64 -80 0
v -72 -80 0
v -72 -72 0
v -64 -72 0
v -72 -80 0
v -80 -80 0
v -80 -72 0
v -72 -72 0
v -80 -80 0
v -88 -80 0
v -88 -72 0
v -80 -72 0
v -88 -80 0
v -96 -80 0
v -96 -72 0
v -88 -72 0
v -96 -80 0
v -104 -80 0
v -104 -72 0
v -96 -72 0
v -104 -80 0
v -112 -80 0
v -112 -72 0
v -104 -72 0
v -112 -80 0
v -120 -80 0
v -120 -72 0
v -112 -72 0
v -120 -80 0
v -128 -80 0
v -128 -72 0
v -120 -72 0
v 0 -88 0
v -8 -88 0
v -8 -80 0
v 0 -80 0
v -8 -88 0
v -16 -88 0
v -16 -80 0
v -8 -80 0
v -16 -88 0
v -24 -88 0
v -24 -80 0
v -16 -80 0
v -24 -88 0
v -32 -88 0
v -32 -80 0
v -24 -80 0
v -32 -88 0
v -40 -88 0
v -40 -80 0
v -32 -80 0
v -40 -88 0
v -48 -88 0
v -48 -80 0
v -40 -80 0
v -48 -88 0
v -56 -88 0
v -56 -80 0
v -48 -80 0
v -56 -88 0
v -64 -88 0
v -64 -80 0
v -56 -80 0
v -64 -88 0
v -72 -88 0
v -72 -80 0
v -64 -80 0
v -72 -88 0
v -80 -88 0
v -80 -80 0
v -72 -80 0
v -80 -88 0
v -88 -88 0
v -88 -80 0
v -80 -80 0
v -88 -88 0
v -96 -88 0
v -96 -80 0
v -88 -80 0
v -96 -88 0
v -104 -88 0
v -104 -80 0
v -96 -80 0
v -104 -88 0
v -112 -88 0
v -112 -80 0
v -104 -80 0
v -112 -88 0
v -120 -88 0
v -120 -80 0
v -112 -80 0
v -120 -88 0
v -128 -88 0
v -128 -80 0
v -120 -80 0
v 0 -96 0
v -8 -96 0
v -8 -88 0
v 0 -88 0
v -8 -96 0
v -16 -96 0
v -16 -88 0
v -8 -88 0
v -16 -96 0
v -24 -96 0
v -24 -88 0
v -16 -88 0
v -24 -96 0
v -32 -96 0
v -32 -88 0
v -24 -88 0
v -32 -96 0
v -40 -96 0
v -40 -88 0
v -32 -88 0
v -40 -96 0
v -48 -96 0
v -48 -88 0
v -40 -88 0
v -48 -96 0
v -56 -96 0
v -56 -88 0
v -48 -88 0
v -56 -96 0
v -64 -96 0
v -64 -88 0
v -56 -88 0
v -64 -96 0
v -72 -96 0
v -72 -88 0
v -64 -88 0
v -72 -96 0
v -80 -96 0
v -80 -88 0
v -72 -88 0
v -80 -96 0
v -88 -96 0
v -88 -88 0
v -80 -88 0
v -88 -96 0
v -96 -96 0
v -96 -88 0
v -88 -88 0
v -96 -96 0
v -104 -96 0
v -104 -88 0
v -96 -88 0
v -104 -96 0
v -112 -96 0
v -112 -88 0
v -104 -88 0
v -112 -96 0
v -120 -96 0
v -120 -88 0
v -112 -88 0
v -120 -96 0
v -128 -96 0
v -128 -88 0
v -120 -88 0
v 0 -104 0
v -8 -104 0
v -8 -96 0
v 0 -96 0
v -8 -104 0
v -16 -104 0
v -16 -96 0
v -8 -96 0
v -16 -104 0
v -24 -104 0
v -24 -96 0
v -16 -96 0
v -24 -104 0
v -32 -104 0
v -32 -96 0
v -24 -96 0
v -32 -104 0
v -40 -104 0
v -40 -96 0
v -32 -96 0
v -40 -104 0
v -48 -104 0
v -48 -96 0
v -40 -96 0
v -48 -104 0
v -56 -104 0
v -56 -96 0
v -48 -96 0
v -56 -104 0
v -64 -104 0
v -64 -96 0
v -56 -96 0
v -64 -104 0
v -72 -104 0
v -72 -96 0
v -64 -96 0
v -72 -104 0
v -80 -104 0
v -80 -96 0
v -72 -96 0
v -80 -104 0
v -88 -104 0
v -88 -96 0
v -80 -96 0
v -88 -104 0
v -96 -104 0
v -96 -96 0
v -88 -96 0
v -96 -104 0
v -104 -104 0
v -104 -96 0
v -96 -96 0
v -104 -104 0
v -112 -104 0
v -112 -96 0
v -104 -96 0
v -112 -104 0
v -120 -104 0
v -120 -96 0
v -112 -96 0
v -120 -104 0
v -128 -104 0
v -128 -96 0
v -120 -96 0
v 0 -112 0
v -8 -112 0
v -8 -104 0
v 0 -104 0
v -8 -112 0
v -16 -112 0
v -16 -104 0
v -8 -104 0
v -16 -112 0
v -24 -112 0
v -24 -104 0
v -16 -104 0
v -24 -112 0
v -32 -112 0
v -32 -104 0
v -24 -104 0
v -32 -112 0
v -40 -112 0
v -40 -104 0
v -32 -104 0
v -40 -112 0
v -48 -112 0
v -48 -104 0
v -40 -104 0
v -48 -112 0
v -56 -112 0
v -56 -104 0
v -48 -104 0
v -56 -112 0
v -64 -112 0
v -64 -104 0
v -56 -104 0
v -64 -112 0
v -72 -112 0
v -72 -104 0
v -64 -104 0
v -72 -112 0
v -80 -112 0
v -80 -104 0
v -72 -104 0
v -80 -112 0
v -88 -112 0
v -88 -104 0
v -80 -104 0
v -88 -112 0
v -96 -112 0
v -96 -104 0
v -88 -104 0
v -96 -112 0
v -104 -112 0
v -104 -104 0
v -96 -104 0
v -104 -112 0
v -112 -112 0
v -112 -104 0
v -104 -104 0
v -112 -112 0
v -120 -112 0
v -120 -104 0
v -112 -104 0
v -120 -112 0
v -128 -112 0
v -128 -104 0
v -120 -104 0
v 0 -120 0
v -8 -120 0
v -8 -112 0
v 0 -112 0
v -8 -120 0
v -16 -120 0
v -16 -112 0
v -8 -112 0
v -16 -120 0
v -24 -120 0
v -24 -112 0
v -16 -112 0
v -24 -120 0
v -32 -120 0
v -32 -112 0
v -24 -112 0
v -32 -120 0
v -40 -120 0
v -40 -112 0
v -32 -112 0
v -40 -120 0
v -48 -120 0
v -48 -112 0
v -40 -112 0
v -48 -120 0
v -56 -120 0
v -56 -112 0
v -48 -112 0
v -56 -120 0
v -64 -120 0
v -64 -112 0
v -56 -112 0
v -64 -120 0
v -72 -120 0
v -72 -112 0
v -64 -112 0
v -72 -120 0
v -80 -120 0
v -80 -112 0
v -72 -112 0
v -80 -120 0
v -88 -120 0
v -88 -112 0
v -80 -112 0
v -88 -120 0
v -96 -120 0
v -96 -112 0
v -88 -112 0
v -96 -120 0
v -104 -120 0
v -104 -112 0
v -96 -112 0
v -104 -120 0
v -112 -120 0
v -112 -112 0
v -104 -112 0
v -112 -120 0
v -120 -120 0
v -120 -112 0
v -112 -112 0
v -120 -120 0
v -128 -120 0
v -128 -112 0
v -120 -112 0
v 0 -128 0
v -8 -128 0
v -8 -120 0
v 0 -120 0
v -8 -128 0
v -16 -128 0
v -16 -120 0
v -8 -120 0
v -16 -128 0
v -24 -128 0
v -24 -120 0
v -16 -120 0
v -24 -128 0
v -32 -128 0
v -32 -120 0
v -24 -120 0
v -32 -128 0
v -40 -128 0
v -40 -120 0
v -32 -120 0
v -40 -128 0
v -48 -128 0
v -48 -120 0
v -40 -120 0
v -48 -128 0
v -56 -128 0
v -56 -120 0
v -48 -120 0
v -56 -128 0
v -64 -128 0
v -64 -120 0
v -56 -120 0
v -64 -128 0
v -72 -128 0
v -72 -120 0
v -64 -120 0
v -72 -128 0
v -80 -128 0
v -80 -120 0
v -72 -120 0
v -80 -128 0
v -88 -128 0
v -88 -120 0
v -80 -120 0
v -88 -128 0
v -96 -128 0
v -96 -120 0
v -88 -120 0
v -96 -128 0
v -104 -128 0
v -104 -120 0
v -96 -120 0
v -104 -128 0
v -112 -128 0
v -112 -120 0
v -104 -120 0
v -112 -128 0
v -120 -128 0
v -120 -120 0
v -112 -120 0
v -120 -128 0
v -128 -128 0
v -128 -120 0
v -120 -120 0

# Texture cooridinates (Count = 51)
vt 0.5 0.8061224
vt 0.5147059 0.8061224
vt 0.5147059 0.8163265
vt 0.5 0.8163265
vt 0.4264706 0.8979592
vt 0.4411765 0.8979592
vt 0.4411765 0.9081632
vt 0.4264706 0.9081632
vt 0.4264706 0.8877551
vt 0.4411765 0.8877551
vt 0.4558823 0.8979592
vt 0.4558823 0.9081632
vt 0.5 0.7959183
vt 0.5147059 0.7959183
vt 0.4558823 0.8877551
vt 0.2941177 0.8061224
vt 0.3088235 0.8061224
vt 0.3088235 0.8163265
vt 0.2941177 0.8163265
vt 0.3235294 0.8061224
vt 0.3235294 0.8163265
vt 0.3382353 0.8061224
vt 0.3382353 0.8163265
vt 0.3529412 0.8061224
vt 0.3529412 0.8163265
vt 0.3676471 0.8061224
vt 0.3676471 0.8163265
vt 0.2941177 0.7959183
vt 0.3088235 0.7959183
vt 0.3235294 0.7959183
vt 0.3382353 0.7959183
vt 0.3529412 0.7959183
vt 0.3676471 0.7959183
vt 0.2941177 0.7653061
vt 0.3088235 0.7653061
vt 0.3088235 0.7755102
vt 0.2941177 0.7755102
vt 0.3088235 0.7857143
vt 0.3235294 0.7857143
vt 0.3382353 0.7857143
vt 0.3529412 0.7857143
vt 0.3676471 0.7857143
vt 0.2941177 0.7857143
vt 0.2941177 0.755102
vt 0.3088235 0.755102
vt 0.25 0.744898
vt 0.2647059 0.744898
vt 0.2647059 0.755102
vt 0.25 0.755102
vt 0.2941177 0.744898
vt 0.3088235 0.744898

# Normal
vn 0 0 -1

# Mesh description
g RoomD_mesh_0029

# Faces
f 1/1/1 2/2/1 3/3/1 4/4/1
f 5/5/1 6/6/1 7/7/1 8/8/1
f 9/9/1 10/10/1 11/6/1 12/5/1
f 13/5/1 14/6/1 15/7/1 16/8/1
f 17/6/1 18/11/1 19/12/1 20/7/1
f 21/5/1 22/6/1 23/7/1 24/8/1
f 25/6/1 26/11/1 27/12/1 28/7/1
f 29/9/1 30/10/1 31/6/1 32/5/1
f 33/9/1 34/10/1 35/6/1 36/5/1
f 37/9/1 38/10/1 39/6/1 40/5/1
f 41/9/1 42/10/1 43/6/1 44/5/1
f 45/5/1 46/6/1 47/7/1 48/8/1
f 49/6/1 50/11/1 51/12/1 52/7/1
f 53/6/1 54/11/1 55/12/1 56/7/1
f 57/5/1 58/6/1 59/7/1 60/8/1
f 61/6/1 62/11/1 63/12/1 64/7/1
f 65/13/1 66/14/1 67/2/1 68/1/1
f 69/9/1 70/10/1 71/6/1 72/5/1
f 73/9/1 74/10/1 75/6/1 76/5/1
f 77/5/1 78/6/1 79/7/1 80/8/1
f 81/6/1 82/11/1 83/12/1 84/7/1
f 85/6/1 86/11/1 87/12/1 88/7/1
f 89/6/1 90/11/1 91/12/1 92/7/1
f 93/6/1 94/11/1 95/12/1 96/7/1
f 97/6/1 98/11/1 99/12/1 100/7/1
f 101/6/1 102/11/1 103/12/1 104/7/1
f 105/6/1 106/11/1 107/12/1 108/7/1
f 109/6/1 110/11/1 111/12/1 112/7/1
f 113/6/1 114/11/1 115/12/1 116/7/1
f 117/6/1 118/11/1 119/12/1 120/7/1
f 121/6/1 122/11/1 123/12/1 124/7/1
f 125/10/1 126/15/1 127/11/1 128/6/1
f 129/1/1 130/2/1 131/3/1 132/4/1
f 133/9/1 134/10/1 135/6/1 136/5/1
f 137/5/1 138/6/1 139/7/1 140/8/1
f 141/6/1 142/11/1 143/12/1 144/7/1
f 145/6/1 146/11/1 147/12/1 148/7/1
f 149/10/1 150/15/1 151/11/1 152/6/1
f 153/10/1 154/15/1 155/11/1 156/6/1
f 157/5/1 158/6/1 159/7/1 160/8/1
f 161/5/1 162/6/1 163/7/1 164/8/1
f 165/5/1 166/6/1 167/7/1 168/8/1
f 169/5/1 170/6/1 171/7/1 172/8/1
f 173/5/1 174/6/1 175/7/1 176/8/1
f 177/5/1 178/6/1 179/7/1 180/8/1
f 181/5/1 182/6/1 183/7/1 184/8/1
f 185/5/1 186/6/1 187/7/1 188/8/1
f 189/5/1 190/6/1 191/7/1 192/8/1
f 193/13/1 194/14/1 195/2/1 196/1/1
f 197/5/1 198/6/1 199/7/1 200/8/1
f 201/6/1 202/11/1 203/12/1 204/7/1
f 205/6/1 206/11/1 207/12/1 208/7/1
f 209/10/1 210/15/1 211/11/1 212/6/1
f 213/9/1 214/10/1 215/6/1 216/5/1
f 217/10/1 218/15/1 219/11/1 220/6/1
f 221/9/1 222/10/1 223/6/1 224/5/1
f 225/9/1 226/10/1 227/6/1 228/5/1
f 229/9/1 230/10/1 231/6/1 232/5/1
f 233/9/1 234/10/1 235/6/1 236/5/1
f 237/9/1 238/10/1 239/6/1 240/5/1
f 241/9/1 242/10/1 243/6/1 244/5/1
f 245/9/1 246/10/1 247/6/1 248/5/1
f 249/9/1 250/10/1 251/6/1 252/5/1
f 253/9/1 254/10/1 255/6/1 256/5/1
f 257/16/1 258/17/1 259/18/1 260/19/1
f 261/17/1 262/20/1 263/21/1 264/18/1
f 265/20/1 266/22/1 267/23/1 268/21/1
f 269/22/1 270/24/1 271/25/1 272/23/1
f 273/24/1 274/26/1 275/27/1 276/25/1
f 277/16/1 278/17/1 279/18/1 280/19/1
f 281/17/1 282/20/1 283/21/1 284/18/1
f 285/20/1 286/22/1 287/23/1 288/21/1
f 289/28/1 290/29/1 291/17/1 292/16/1
f 293/29/1 294/30/1 295/20/1 296/17/1
f 297/30/1 298/31/1 299/22/1 300/20/1
f 301/31/1 302/32/1 303/24/1 304/22/1
f 305/32/1 306/33/1 307/26/1 308/24/1
f 309/28/1 310/29/1 311/17/1 312/16/1
f 313/29/1 314/30/1 315/20/1 316/17/1
f 317/30/1 318/31/1 319/22/1 320/20/1
f 321/34/1 322/35/1 323/36/1 324/37/1
f 325/38/1 326/39/1 327/30/1 328/29/1
f 329/39/1 330/40/1 331/31/1 332/30/1
f 333/40/1 334/41/1 335/32/1 336/31/1
f 337/41/1 338/42/1 339/33/1 340/32/1
f 341/43/1 342/38/1 343/29/1 344/28/1
f 345/38/1 346/39/1 347/30/1 348/29/1
f 349/39/1 350/40/1 351/31/1 352/30/1
f 353/34/1 354/35/1 355/36/1 356/37/1
f 357/16/1 358/17/1 359/18/1 360/19/1
f 361/17/1 362/20/1 363/21/1 364/18/1
f 365/20/1 366/22/1 367/23/1 368/21/1
f 369/22/1 370/24/1 371/25/1 372/23/1
f 373/24/1 374/26/1 375/27/1 376/25/1
f 377/16/1 378/17/1 379/18/1 380/19/1
f 381/17/1 382/20/1 383/21/1 384/18/1
f 385/44/1 386/45/1 387/35/1 388/34/1
f 389/28/1 390/29/1 391/17/1 392/16/1
f 393/29/1 394/30/1 395/20/1 396/17/1
f 397/30/1 398/31/1 399/22/1 400/20/1
f 401/31/1 402/32/1 403/24/1 404/22/1
f 405/32/1 406/33/1 407/26/1 408/24/1
f 409/28/1 410/29/1 411/17/1 412/16/1
f 413/29/1 414/30/1 415/20/1 416/17/1
f 417/46/1 418/47/1 419/48/1 420/49/1
f 421/46/1 422/47/1 423/48/1 424/49/1
f 425/46/1 426/47/1 427/48/1 428/49/1
f 429/46/1 430/47/1 431/48/1 432/49/1
f 433/46/1 434/47/1 435/48/1 436/49/1
f 437/46/1 438/47/1 439/48/1 440/49/1
f 441/46/1 442/47/1 443/48/1 444/49/1
f 445/46/1 446/47/1 447/48/1 448/49/1
f 449/50/1 450/51/1 451/45/1 452/44/1
f 453/43/1 454/38/1 455/29/1 456/28/1
f 457/38/1 458/39/1 459/30/1 460/29/1
f 461/39/1 462/40/1 463/31/1 464/30/1
f 465/40/1 466/41/1 467/32/1 468/31/1
f 469/41/1 470/42/1 471/33/1 472/32/1
f 473/43/1 474/38/1 475/29/1 476/28/1
f 477/38/1 478/39/1 479/30/1 480/29/1
f 481/10/1 482/15/1 483/11/1 484/6/1
f 485/5/1 486/6/1 487/7/1 488/8/1
f 489/9/1 490/10/1 491/6/1 492/5/1
f 493/10/1 494/15/1 495/11/1 496/6/1
f 497/5/1 498/6/1 499/7/1 500/8/1
f 501/5/1 502/6/1 503/7/1 504/8/1
f 505/6/1 506/11/1 507/12/1 508/7/1
f 509/16/1 510/17/1 511/18/1 512/19/1
f 513/17/1 514/20/1 515/21/1 516/18/1
f 517/20/1 518/22/1 519/23/1 520/21/1
f 521/22/1 522/24/1 523/25/1 524/23/1
f 525/24/1 526/26/1 527/27/1 528/25/1
f 529/16/1 530/17/1 531/18/1 532/19/1
f 533/17/1 534/20/1 535/21/1 536/18/1
f 537/20/1 538/22/1 539/23/1 540/21/1
f 541/22/1 542/24/1 543/25/1 544/23/1
f 545/5/1 546/6/1 547/7/1 548/8/1
f 549/9/1 550/10/1 551/6/1 552/5/1
f 553/9/1 554/10/1 555/6/1 556/5/1
f 557/10/1 558/15/1 559/11/1 560/6/1
f 561/5/1 562/6/1 563/7/1 564/8/1
f 565/6/1 566/11/1 567/12/1 568/7/1
f 569/6/1 570/11/1 571/12/1 572/7/1
f 573/28/1 574/29/1 575/17/1 576/16/1
f 577/29/1 578/30/1 579/20/1 580/17/1
f 581/30/1 582/31/1 583/22/1 584/20/1
f 585/31/1 586/32/1 587/24/1 588/22/1
f 589/32/1 590/33/1 591/26/1 592/24/1
f 593/28/1 594/29/1 595/17/1 596/16/1
f 597/29/1 598/30/1 599/20/1 600/17/1
f 601/30/1 602/31/1 603/22/1 604/20/1
f 605/31/1 606/32/1 607/24/1 608/22/1
f 609/5/1 610/6/1 611/7/1 612/8/1
f 613/9/1 614/10/1 615/6/1 616/5/1
f 617/10/1 618/15/1 619/11/1 620/6/1
f 621/5/1 622/6/1 623/7/1 624/8/1
f 625/5/1 626/6/1 627/7/1 628/8/1
f 629/6/1 630/11/1 631/12/1 632/7/1
f 633/10/1 634/15/1 635/11/1 636/6/1
f 637/43/1 638/38/1 639/29/1 640/28/1
f 641/38/1 642/39/1 643/30/1 644/29/1
f 645/39/1 646/40/1 647/31/1 648/30/1
f 649/40/1 650/41/1 651/32/1 652/31/1
f 653/41/1 654/42/1 655/33/1 656/32/1
f 657/43/1 658/38/1 659/29/1 660/28/1
f 661/38/1 662/39/1 663/30/1 664/29/1
f 665/39/1 666/40/1 667/31/1 668/30/1
f 669/40/1 670/41/1 671/32/1 672/31/1
f 673/9/1 674/10/1 675/6/1 676/5/1
f 677/9/1 678/10/1 679/6/1 680/5/1
f 681/10/1 682/15/1 683/11/1 684/6/1
f 685/9/1 686/10/1 687/6/1 688/5/1
f 689/5/1 690/6/1 691/7/1 692/8/1
f 693/6/1 694/11/1 695/12/1 696/7/1
f 697/6/1 698/11/1 699/12/1 700/7/1
f 701/6/1 702/11/1 703/12/1 704/7/1
f 705/10/1 706/15/1 707/11/1 708/6/1
f 709/9/1 710/10/1 711/6/1 712/5/1
f 713/10/1 714/15/1 715/11/1 716/6/1
f 717/6/1 718/11/1 719/12/1 720/7/1
f 721/6/1 722/11/1 723/12/1 724/7/1
f 725/6/1 726/11/1 727/12/1 728/7/1
f 729/10/1 730/15/1 731/11/1 732/6/1
f 733/10/1 734/15/1 735/11/1 736/6/1
f 737/9/1 738/10/1 739/6/1 740/5/1
f 741/5/1 742/6/1 743/7/1 744/8/1
f 745/9/1 746/10/1 747/6/1 748/5/1
f 749/9/1 750/10/1 751/6/1 752/5/1
f 753/9/1 754/10/1 755/6/1 756/5/1
f 757/10/1 758/15/1 759/11/1 760/6/1
f 761/10/1 762/15/1 763/11/1 764/6/1
f 765/10/1 766/15/1 767/11/1 768/6/1
f 769/10/1 770/15/1 771/11/1 772/6/1
f 773/6/1 774/11/1 775/12/1 776/7/1
f 777/6/1 778/11/1 779/12/1 780/7/1
f 781/10/1 782/15/1 783/11/1 784/6/1
f 785/10/1 786/15/1 787/11/1 788/6/1
f 789/10/1 790/15/1 791/11/1 792/6/1
f 793/5/1 794/6/1 795/7/1 796/8/1
f 797/5/1 798/6/1 799/7/1 800/8/1
f 801/5/1 802/6/1 803/7/1 804/8/1
f 805/9/1 806/10/1 807/6/1 808/5/1
f 809/9/1 810/10/1 811/6/1 812/5/1
f 813/10/1 814/15/1 815/11/1 816/6/1
f 817/10/1 818/15/1 819/11/1 820/6/1
f 821/10/1 822/15/1 823/11/1 824/6/1
f 825/9/1 826/10/1 827/6/1 828/5/1
f 829/10/1 830/15/1 831/11/1 832/6/1
f 833/6/1 834/11/1 835/12/1 836/7/1
f 837/6/1 838/11/1 839/12/1 840/7/1
f 841/10/1 842/15/1 843/11/1 844/6/1
f 845/6/1 846/11/1 847/12/1 848/7/1
f 849/5/1 850/6/1 851/7/1 852/8/1
f 853/5/1 854/6/1 855/7/1 856/8/1
f 857/9/1 858/10/1 859/6/1 860/5/1
f 861/9/1 862/10/1 863/6/1 864/5/1

