# Tiled2Unity generated file. Do not modify by hand.
# Wavefront file for 'RoomD_mesh_0001.obj'

# Vertices (Count = 400)
v 0 -16 0
v -8 -16 0
v -8 -8 0
v 0 -8 0
v -8 -16 0
v -16 -16 0
v -16 -8 0
v -8 -8 0
v -16 -16 0
v -24 -16 0
v -24 -8 0
v -16 -8 0
v -24 -16 0
v -32 -16 0
v -32 -8 0
v -24 -8 0
v -32 -16 0
v -40 -16 0
v -40 -8 0
v -32 -8 0
v -40 -16 0
v -48 -16 0
v -48 -8 0
v -40 -8 0
v -48 -16 0
v -56 -16 0
v -56 -8 0
v -48 -8 0
v -56 -16 0
v -64 -16 0
v -64 -8 0
v -56 -8 0
v -64 -16 0
v -72 -16 0
v -72 -8 0
v -64 -8 0
v -72 -16 0
v -80 -16 0
v -80 -8 0
v -72 -8 0
v -80 -16 0
v -88 -16 0
v -88 -8 0
v -80 -8 0
v -88 -16 0
v -96 -16 0
v -96 -8 0
v -88 -8 0
v -96 -16 0
v -104 -16 0
v -104 -8 0
v -96 -8 0
v -104 -16 0
v -112 -16 0
v -112 -8 0
v -104 -8 0
v -112 -16 0
v -120 -16 0
v -120 -8 0
v -112 -8 0
v -120 -16 0
v -128 -16 0
v -128 -8 0
v -120 -8 0
v 0 -24 0
v -8 -24 0
v -8 -16 0
v 0 -16 0
v -8 -24 0
v -16 -24 0
v -16 -16 0
v -8 -16 0
v -16 -24 0
v -24 -24 0
v -24 -16 0
v -16 -16 0
v -24 -24 0
v -32 -24 0
v -32 -16 0
v -24 -16 0
v -32 -24 0
v -40 -24 0
v -40 -16 0
v -32 -16 0
v -40 -24 0
v -48 -24 0
v -48 -16 0
v -40 -16 0
v -48 -24 0
v -56 -24 0
v -56 -16 0
v -48 -16 0
v -56 -24 0
v -64 -24 0
v -64 -16 0
v -56 -16 0
v -64 -24 0
v -72 -24 0
v -72 -16 0
v -64 -16 0
v -72 -24 0
v -80 -24 0
v -80 -16 0
v -72 -16 0
v -80 -24 0
v -88 -24 0
v -88 -16 0
v -80 -16 0
v -88 -24 0
v -96 -24 0
v -96 -16 0
v -88 -16 0
v -96 -24 0
v -104 -24 0
v -104 -16 0
v -96 -16 0
v -104 -24 0
v -112 -24 0
v -112 -16 0
v -104 -16 0
v -112 -24 0
v -120 -24 0
v -120 -16 0
v -112 -16 0
v -120 -24 0
v -128 -24 0
v -128 -16 0
v -120 -16 0
v 0 -32 0
v -8 -32 0
v -8 -24 0
v 0 -24 0
v -8 -32 0
v -16 -32 0
v -16 -24 0
v -8 -24 0
v -16 -32 0
v -24 -32 0
v -24 -24 0
v -16 -24 0
v -24 -32 0
v -32 -32 0
v -32 -24 0
v -24 -24 0
v -32 -32 0
v -40 -32 0
v -40 -24 0
v -32 -24 0
v -40 -32 0
v -48 -32 0
v -48 -24 0
v -40 -24 0
v -48 -32 0
v -56 -32 0
v -56 -24 0
v -48 -24 0
v -56 -32 0
v -64 -32 0
v -64 -24 0
v -56 -24 0
v -64 -32 0
v -72 -32 0
v -72 -24 0
v -64 -24 0
v -72 -32 0
v -80 -32 0
v -80 -24 0
v -72 -24 0
v -80 -32 0
v -88 -32 0
v -88 -24 0
v -80 -24 0
v -88 -32 0
v -96 -32 0
v -96 -24 0
v -88 -24 0
v -96 -32 0
v -104 -32 0
v -104 -24 0
v -96 -24 0
v -104 -32 0
v -112 -32 0
v -112 -24 0
v -104 -24 0
v -112 -32 0
v -120 -32 0
v -120 -24 0
v -112 -24 0
v -120 -32 0
v -128 -32 0
v -128 -24 0
v -120 -24 0
v 0 -40 0
v -8 -40 0
v -8 -32 0
v 0 -32 0
v -8 -40 0
v -16 -40 0
v -16 -32 0
v -8 -32 0
v -16 -40 0
v -24 -40 0
v -24 -32 0
v -16 -32 0
v -24 -40 0
v -32 -40 0
v -32 -32 0
v -24 -32 0
v -32 -40 0
v -40 -40 0
v -40 -32 0
v -32 -32 0
v -40 -40 0
v -48 -40 0
v -48 -32 0
v -40 -32 0
v -48 -40 0
v -56 -40 0
v -56 -32 0
v -48 -32 0
v -56 -40 0
v -64 -40 0
v -64 -32 0
v -56 -32 0
v -64 -40 0
v -72 -40 0
v -72 -32 0
v -64 -32 0
v -72 -40 0
v -80 -40 0
v -80 -32 0
v -72 -32 0
v -80 -40 0
v -88 -40 0
v -88 -32 0
v -80 -32 0
v -88 -40 0
v -96 -40 0
v -96 -32 0
v -88 -32 0
v -96 -40 0
v -104 -40 0
v -104 -32 0
v -96 -32 0
v -104 -40 0
v -112 -40 0
v -112 -32 0
v -104 -32 0
v -112 -40 0
v -120 -40 0
v -120 -32 0
v -112 -32 0
v -120 -40 0
v -128 -40 0
v -128 -32 0
v -120 -32 0
v 0 -48 0
v -8 -48 0
v -8 -40 0
v 0 -40 0
v -8 -48 0
v -16 -48 0
v -16 -40 0
v -8 -40 0
v -16 -48 0
v -24 -48 0
v -24 -40 0
v -16 -40 0
v -24 -48 0
v -32 -48 0
v -32 -40 0
v -24 -40 0
v -32 -48 0
v -40 -48 0
v -40 -40 0
v -32 -40 0
v -40 -48 0
v -48 -48 0
v -48 -40 0
v -40 -40 0
v -48 -48 0
v -56 -48 0
v -56 -40 0
v -48 -40 0
v -56 -48 0
v -64 -48 0
v -64 -40 0
v -56 -40 0
v -64 -48 0
v -72 -48 0
v -72 -40 0
v -64 -40 0
v -72 -48 0
v -80 -48 0
v -80 -40 0
v -72 -40 0
v -80 -48 0
v -88 -48 0
v -88 -40 0
v -80 -40 0
v -88 -48 0
v -96 -48 0
v -96 -40 0
v -88 -40 0
v -96 -48 0
v -104 -48 0
v -104 -40 0
v -96 -40 0
v -104 -48 0
v -112 -48 0
v -112 -40 0
v -104 -40 0
v -112 -48 0
v -120 -48 0
v -120 -40 0
v -112 -40 0
v -120 -48 0
v -128 -48 0
v -128 -40 0
v -120 -40 0
v 0 -56 0
v -8 -56 0
v -8 -48 0
v 0 -48 0
v -8 -56 0
v -16 -56 0
v -16 -48 0
v -8 -48 0
v 0 -64 0
v -8 -64 0
v -8 -56 0
v 0 -56 0
v -8 -64 0
v -16 -64 0
v -16 -56 0
v -8 -56 0
v 0 -72 0
v -8 -72 0
v -8 -64 0
v 0 -64 0
v -8 -72 0
v -16 -72 0
v -16 -64 0
v -8 -64 0
v 0 -80 0
v -8 -80 0
v -8 -72 0
v 0 -72 0
v -8 -80 0
v -16 -80 0
v -16 -72 0
v -8 -72 0
v 0 -88 0
v -8 -88 0
v -8 -80 0
v 0 -80 0
v -8 -88 0
v -16 -88 0
v -16 -80 0
v -8 -80 0
v 0 -96 0
v -8 -96 0
v -8 -88 0
v 0 -88 0
v -8 -96 0
v -16 -96 0
v -16 -88 0
v -8 -88 0
v 0 -104 0
v -8 -104 0
v -8 -96 0
v 0 -96 0
v -8 -104 0
v -16 -104 0
v -16 -96 0
v -8 -96 0
v 0 -112 0
v -8 -112 0
v -8 -104 0
v 0 -104 0
v -8 -112 0
v -16 -112 0
v -16 -104 0
v -8 -104 0
v 0 -120 0
v -8 -120 0
v -8 -112 0
v 0 -112 0
v -8 -120 0
v -16 -120 0
v -16 -112 0
v -8 -112 0
v 0 -128 0
v -8 -128 0
v -8 -120 0
v 0 -120 0
v -8 -128 0
v -16 -128 0
v -16 -120 0
v -8 -120 0

# Texture cooridinates (Count = 98)
vt 0.2058824 0.9693878
vt 0.2205882 0.9693878
vt 0.2205882 0.9795918
vt 0.2058824 0.9795918
vt 0.2352941 0.9693878
vt 0.2352941 0.9795918
vt 0.25 0.9693878
vt 0.25 0.9795918
vt 0.2647059 0.9693878
vt 0.2647059 0.9795918
vt 0.4117647 0.9693878
vt 0.4264706 0.9693878
vt 0.4264706 0.9795918
vt 0.4117647 0.9795918
vt 0.2794118 0.9693878
vt 0.2941177 0.9693878
vt 0.2941177 0.9795918
vt 0.2794118 0.9795918
vt 0.6176471 0.7857143
vt 0.6323529 0.7857143
vt 0.6323529 0.7959183
vt 0.6176471 0.7959183
vt 0.3235294 0.9693878
vt 0.3382353 0.9693878
vt 0.3382353 0.9795918
vt 0.3235294 0.9795918
vt 0.3529412 0.9693878
vt 0.3529412 0.9795918
vt 0.2058824 0.9591837
vt 0.2205882 0.9591837
vt 0.2352941 0.9591837
vt 0.25 0.9591837
vt 0.2647059 0.9591837
vt 0.4117647 0.9591837
vt 0.4264706 0.9591837
vt 0.2794118 0.9591837
vt 0.2941177 0.9591837
vt 0.3235294 0.9591837
vt 0.3382353 0.9591837
vt 0.3529412 0.9591837
vt 0.2058824 0.9489796
vt 0.2205882 0.9489796
vt 0.2352941 0.9489796
vt 0.25 0.9489796
vt 0.75 0.9489796
vt 0.7647059 0.9489796
vt 0.7647059 0.9591837
vt 0.75 0.9591837
vt 0.4117647 0.9489796
vt 0.4264706 0.9489796
vt 0.4411765 0.9489796
vt 0.4411765 0.9591837
vt 0.3823529 0.9489796
vt 0.3970588 0.9489796
vt 0.3970588 0.9591837
vt 0.3823529 0.9591837
vt 0.2058824 0.9387755
vt 0.2205882 0.9387755
vt 0.2352941 0.9387755
vt 0.3676471 0.9489796
vt 0.3676471 0.9591837
vt 0.4117647 0.9387755
vt 0.4264706 0.9387755
vt 0.6617647 0.9489796
vt 0.6764706 0.9489796
vt 0.6764706 0.9591837
vt 0.6617647 0.9591837
vt 0.4411765 0.9387755
vt 0.3823529 0.9387755
vt 0.3970588 0.9387755
vt 0.2058824 0.9285714
vt 0.2205882 0.9285714
vt 0.2352941 0.9285714
vt 0.3529412 0.9489796
vt 0.2058824 0.9183673
vt 0.2205882 0.9183673
vt 0.2352941 0.9183673
vt 0.2058824 0.9081632
vt 0.2205882 0.9081632
vt 0.2352941 0.9081632
vt 0.2058824 0.8979592
vt 0.2205882 0.8979592
vt 0.2352941 0.8979592
vt 0.2058824 0.8877551
vt 0.2205882 0.8877551
vt 0.2352941 0.8877551
vt 0.2058824 0.755102
vt 0.2205882 0.755102
vt 0.2205882 0.7653061
vt 0.2058824 0.7653061
vt 0.2352941 0.755102
vt 0.2352941 0.7653061
vt 0.2058824 0.744898
vt 0.2205882 0.744898
vt 0.2352941 0.744898
vt 0.2058824 0.7346939
vt 0.2205882 0.7346939
vt 0.2352941 0.7346939

# Normal
vn 0 0 -1

# Mesh description
g RoomD_mesh_0001

# Faces
f 1/1/1 2/2/1 3/3/1 4/4/1
f 5/2/1 6/5/1 7/6/1 8/3/1
f 9/5/1 10/7/1 11/8/1 12/6/1
f 13/7/1 14/9/1 15/10/1 16/8/1
f 17/11/1 18/12/1 19/13/1 20/14/1
f 21/15/1 22/16/1 23/17/1 24/18/1
f 25/19/1 26/20/1 27/21/1 28/22/1
f 29/15/1 30/16/1 31/17/1 32/18/1
f 33/19/1 34/20/1 35/21/1 36/22/1
f 37/15/1 38/16/1 39/17/1 40/18/1
f 41/11/1 42/12/1 43/13/1 44/14/1
f 45/19/1 46/20/1 47/21/1 48/22/1
f 49/23/1 50/24/1 51/25/1 52/26/1
f 53/15/1 54/16/1 55/17/1 56/18/1
f 57/23/1 58/24/1 59/25/1 60/26/1
f 61/24/1 62/27/1 63/28/1 64/25/1
f 65/29/1 66/30/1 67/2/1 68/1/1
f 69/30/1 70/31/1 71/5/1 72/2/1
f 73/31/1 74/32/1 75/7/1 76/5/1
f 77/32/1 78/33/1 79/9/1 80/7/1
f 81/34/1 82/35/1 83/12/1 84/11/1
f 85/36/1 86/37/1 87/16/1 88/15/1
f 89/34/1 90/35/1 91/12/1 92/11/1
f 93/36/1 94/37/1 95/16/1 96/15/1
f 97/34/1 98/35/1 99/12/1 100/11/1
f 101/36/1 102/37/1 103/16/1 104/15/1
f 105/34/1 106/35/1 107/12/1 108/11/1
f 109/36/1 110/37/1 111/16/1 112/15/1
f 113/38/1 114/39/1 115/24/1 116/23/1
f 117/36/1 118/37/1 119/16/1 120/15/1
f 121/38/1 122/39/1 123/24/1 124/23/1
f 125/39/1 126/40/1 127/27/1 128/24/1
f 129/41/1 130/42/1 131/30/1 132/29/1
f 133/42/1 134/43/1 135/31/1 136/30/1
f 137/43/1 138/44/1 139/32/1 140/31/1
f 141/45/1 142/46/1 143/47/1 144/48/1
f 145/49/1 146/50/1 147/35/1 148/34/1
f 149/49/1 150/50/1 151/35/1 152/34/1
f 153/49/1 154/50/1 155/35/1 156/34/1
f 157/49/1 158/50/1 159/35/1 160/34/1
f 161/49/1 162/50/1 163/35/1 164/34/1
f 165/49/1 166/50/1 167/35/1 168/34/1
f 169/49/1 170/50/1 171/35/1 172/34/1
f 173/49/1 174/50/1 175/35/1 176/34/1
f 177/50/1 178/51/1 179/52/1 180/35/1
f 181/53/1 182/54/1 183/55/1 184/56/1
f 185/54/1 186/49/1 187/34/1 188/55/1
f 189/49/1 190/50/1 191/35/1 192/34/1
f 193/57/1 194/58/1 195/42/1 196/41/1
f 197/58/1 198/59/1 199/43/1 200/42/1
f 201/60/1 202/53/1 203/56/1 204/61/1
f 205/60/1 206/53/1 207/56/1 208/61/1
f 209/62/1 210/63/1 211/50/1 212/49/1
f 213/62/1 214/63/1 215/50/1 216/49/1
f 217/62/1 218/63/1 219/50/1 220/49/1
f 221/64/1 222/65/1 223/66/1 224/67/1
f 225/62/1 226/63/1 227/50/1 228/49/1
f 229/62/1 230/63/1 231/50/1 232/49/1
f 233/62/1 234/63/1 235/50/1 236/49/1
f 237/62/1 238/63/1 239/50/1 240/49/1
f 241/63/1 242/68/1 243/51/1 244/50/1
f 245/69/1 246/70/1 247/54/1 248/53/1
f 249/70/1 250/62/1 251/49/1 252/54/1
f 253/62/1 254/63/1 255/50/1 256/49/1
f 257/71/1 258/72/1 259/58/1 260/57/1
f 261/72/1 262/73/1 263/59/1 264/58/1
f 265/43/1 266/44/1 267/32/1 268/31/1
f 269/45/1 270/46/1 271/47/1 272/48/1
f 273/74/1 274/60/1 275/61/1 276/40/1
f 277/64/1 278/65/1 279/66/1 280/67/1
f 281/74/1 282/60/1 283/61/1 284/40/1
f 285/64/1 286/65/1 287/66/1 288/67/1
f 289/74/1 290/60/1 291/61/1 292/40/1
f 293/74/1 294/60/1 295/61/1 296/40/1
f 297/74/1 298/60/1 299/61/1 300/40/1
f 301/74/1 302/60/1 303/61/1 304/40/1
f 305/74/1 306/60/1 307/61/1 308/40/1
f 309/74/1 310/60/1 311/61/1 312/40/1
f 313/74/1 314/60/1 315/61/1 316/40/1
f 317/74/1 318/60/1 319/61/1 320/40/1
f 321/75/1 322/76/1 323/72/1 324/71/1
f 325/76/1 326/77/1 327/73/1 328/72/1
f 329/78/1 330/79/1 331/76/1 332/75/1
f 333/79/1 334/80/1 335/77/1 336/76/1
f 337/81/1 338/82/1 339/79/1 340/78/1
f 341/82/1 342/83/1 343/80/1 344/79/1
f 345/84/1 346/85/1 347/82/1 348/81/1
f 349/85/1 350/86/1 351/83/1 352/82/1
f 353/78/1 354/79/1 355/76/1 356/75/1
f 357/79/1 358/80/1 359/77/1 360/76/1
f 361/81/1 362/82/1 363/79/1 364/78/1
f 365/82/1 366/83/1 367/80/1 368/79/1
f 369/84/1 370/85/1 371/82/1 372/81/1
f 373/85/1 374/86/1 375/83/1 376/82/1
f 377/87/1 378/88/1 379/89/1 380/90/1
f 381/88/1 382/91/1 383/92/1 384/89/1
f 385/93/1 386/94/1 387/88/1 388/87/1
f 389/94/1 390/95/1 391/91/1 392/88/1
f 393/96/1 394/97/1 395/94/1 396/93/1
f 397/97/1 398/98/1 399/95/1 400/94/1

