# Tiled2Unity generated file. Do not modify by hand.
# Wavefront file for 'RoomD_mesh_0003.obj'

# Vertices (Count = 384)
v 0 -16 0
v -8 -16 0
v -8 -8 0
v 0 -8 0
v -8 -16 0
v -16 -16 0
v -16 -8 0
v -8 -8 0
v -16 -16 0
v -24 -16 0
v -24 -8 0
v -16 -8 0
v -24 -16 0
v -32 -16 0
v -32 -8 0
v -24 -8 0
v -32 -16 0
v -40 -16 0
v -40 -8 0
v -32 -8 0
v -40 -16 0
v -48 -16 0
v -48 -8 0
v -40 -8 0
v -48 -16 0
v -56 -16 0
v -56 -8 0
v -48 -8 0
v -56 -16 0
v -64 -16 0
v -64 -8 0
v -56 -8 0
v -64 -16 0
v -72 -16 0
v -72 -8 0
v -64 -8 0
v -72 -16 0
v -80 -16 0
v -80 -8 0
v -72 -8 0
v -80 -16 0
v -88 -16 0
v -88 -8 0
v -80 -8 0
v -88 -16 0
v -96 -16 0
v -96 -8 0
v -88 -8 0
v -96 -16 0
v -104 -16 0
v -104 -8 0
v -96 -8 0
v -104 -16 0
v -112 -16 0
v -112 -8 0
v -104 -8 0
v -112 -16 0
v -120 -16 0
v -120 -8 0
v -112 -8 0
v -120 -16 0
v -128 -16 0
v -128 -8 0
v -120 -8 0
v 0 -24 0
v -8 -24 0
v -8 -16 0
v 0 -16 0
v -8 -24 0
v -16 -24 0
v -16 -16 0
v -8 -16 0
v -16 -24 0
v -24 -24 0
v -24 -16 0
v -16 -16 0
v -24 -24 0
v -32 -24 0
v -32 -16 0
v -24 -16 0
v -32 -24 0
v -40 -24 0
v -40 -16 0
v -32 -16 0
v -40 -24 0
v -48 -24 0
v -48 -16 0
v -40 -16 0
v -48 -24 0
v -56 -24 0
v -56 -16 0
v -48 -16 0
v -56 -24 0
v -64 -24 0
v -64 -16 0
v -56 -16 0
v -64 -24 0
v -72 -24 0
v -72 -16 0
v -64 -16 0
v -72 -24 0
v -80 -24 0
v -80 -16 0
v -72 -16 0
v -80 -24 0
v -88 -24 0
v -88 -16 0
v -80 -16 0
v -88 -24 0
v -96 -24 0
v -96 -16 0
v -88 -16 0
v -96 -24 0
v -104 -24 0
v -104 -16 0
v -96 -16 0
v -104 -24 0
v -112 -24 0
v -112 -16 0
v -104 -16 0
v -112 -24 0
v -120 -24 0
v -120 -16 0
v -112 -16 0
v -120 -24 0
v -128 -24 0
v -128 -16 0
v -120 -16 0
v 0 -32 0
v -8 -32 0
v -8 -24 0
v 0 -24 0
v -8 -32 0
v -16 -32 0
v -16 -24 0
v -8 -24 0
v -16 -32 0
v -24 -32 0
v -24 -24 0
v -16 -24 0
v -24 -32 0
v -32 -32 0
v -32 -24 0
v -24 -24 0
v -32 -32 0
v -40 -32 0
v -40 -24 0
v -32 -24 0
v -40 -32 0
v -48 -32 0
v -48 -24 0
v -40 -24 0
v -48 -32 0
v -56 -32 0
v -56 -24 0
v -48 -24 0
v -56 -32 0
v -64 -32 0
v -64 -24 0
v -56 -24 0
v -64 -32 0
v -72 -32 0
v -72 -24 0
v -64 -24 0
v -72 -32 0
v -80 -32 0
v -80 -24 0
v -72 -24 0
v -80 -32 0
v -88 -32 0
v -88 -24 0
v -80 -24 0
v -88 -32 0
v -96 -32 0
v -96 -24 0
v -88 -24 0
v -96 -32 0
v -104 -32 0
v -104 -24 0
v -96 -24 0
v -104 -32 0
v -112 -32 0
v -112 -24 0
v -104 -24 0
v -112 -32 0
v -120 -32 0
v -120 -24 0
v -112 -24 0
v -120 -32 0
v -128 -32 0
v -128 -24 0
v -120 -24 0
v 0 -40 0
v -8 -40 0
v -8 -32 0
v 0 -32 0
v -8 -40 0
v -16 -40 0
v -16 -32 0
v -8 -32 0
v -16 -40 0
v -24 -40 0
v -24 -32 0
v -16 -32 0
v -24 -40 0
v -32 -40 0
v -32 -32 0
v -24 -32 0
v -32 -40 0
v -40 -40 0
v -40 -32 0
v -32 -32 0
v -40 -40 0
v -48 -40 0
v -48 -32 0
v -40 -32 0
v -48 -40 0
v -56 -40 0
v -56 -32 0
v -48 -32 0
v -56 -40 0
v -64 -40 0
v -64 -32 0
v -56 -32 0
v -64 -40 0
v -72 -40 0
v -72 -32 0
v -64 -32 0
v -72 -40 0
v -80 -40 0
v -80 -32 0
v -72 -32 0
v -80 -40 0
v -88 -40 0
v -88 -32 0
v -80 -32 0
v -88 -40 0
v -96 -40 0
v -96 -32 0
v -88 -32 0
v -96 -40 0
v -104 -40 0
v -104 -32 0
v -96 -32 0
v -104 -40 0
v -112 -40 0
v -112 -32 0
v -104 -32 0
v -112 -40 0
v -120 -40 0
v -120 -32 0
v -112 -32 0
v -120 -40 0
v -128 -40 0
v -128 -32 0
v -120 -32 0
v 0 -48 0
v -8 -48 0
v -8 -40 0
v 0 -40 0
v -8 -48 0
v -16 -48 0
v -16 -40 0
v -8 -40 0
v -16 -48 0
v -24 -48 0
v -24 -40 0
v -16 -40 0
v -24 -48 0
v -32 -48 0
v -32 -40 0
v -24 -40 0
v -32 -48 0
v -40 -48 0
v -40 -40 0
v -32 -40 0
v -40 -48 0
v -48 -48 0
v -48 -40 0
v -40 -40 0
v -48 -48 0
v -56 -48 0
v -56 -40 0
v -48 -40 0
v -56 -48 0
v -64 -48 0
v -64 -40 0
v -56 -40 0
v -64 -48 0
v -72 -48 0
v -72 -40 0
v -64 -40 0
v -72 -48 0
v -80 -48 0
v -80 -40 0
v -72 -40 0
v -80 -48 0
v -88 -48 0
v -88 -40 0
v -80 -40 0
v -88 -48 0
v -96 -48 0
v -96 -40 0
v -88 -40 0
v -96 -48 0
v -104 -48 0
v -104 -40 0
v -96 -40 0
v -104 -48 0
v -112 -48 0
v -112 -40 0
v -104 -40 0
v -112 -48 0
v -120 -48 0
v -120 -40 0
v -112 -40 0
v -120 -48 0
v -128 -48 0
v -128 -40 0
v -120 -40 0
v -56 -120 0
v -64 -120 0
v -64 -112 0
v -56 -112 0
v -64 -120 0
v -72 -120 0
v -72 -112 0
v -64 -112 0
v -72 -120 0
v -80 -120 0
v -80 -112 0
v -72 -112 0
v -80 -120 0
v -88 -120 0
v -88 -112 0
v -80 -112 0
v -88 -120 0
v -96 -120 0
v -96 -112 0
v -88 -112 0
v -96 -120 0
v -104 -120 0
v -104 -112 0
v -96 -112 0
v -104 -120 0
v -112 -120 0
v -112 -112 0
v -104 -112 0
v -112 -120 0
v -120 -120 0
v -120 -112 0
v -112 -112 0
v -56 -128 0
v -64 -128 0
v -64 -120 0
v -56 -120 0
v -64 -128 0
v -72 -128 0
v -72 -120 0
v -64 -120 0
v -72 -128 0
v -80 -128 0
v -80 -120 0
v -72 -120 0
v -80 -128 0
v -88 -128 0
v -88 -120 0
v -80 -120 0
v -88 -128 0
v -96 -128 0
v -96 -120 0
v -88 -120 0
v -96 -128 0
v -104 -128 0
v -104 -120 0
v -96 -120 0
v -104 -128 0
v -112 -128 0
v -112 -120 0
v -104 -120 0
v -112 -128 0
v -120 -128 0
v -120 -120 0
v -112 -120 0

# Texture cooridinates (Count = 54)
vt 0.4117647 0.9693878
vt 0.4264706 0.9693878
vt 0.4264706 0.9795918
vt 0.4117647 0.9795918
vt 0.6176471 0.7857143
vt 0.6323529 0.7857143
vt 0.6323529 0.7959183
vt 0.6176471 0.7959183
vt 0.3382353 0.9693878
vt 0.3529412 0.9693878
vt 0.3529412 0.9795918
vt 0.3382353 0.9795918
vt 0.3235294 0.9693878
vt 0.3235294 0.9795918
vt 0.4117647 0.9591837
vt 0.4264706 0.9591837
vt 0.3382353 0.9591837
vt 0.3529412 0.9591837
vt 0.3235294 0.9591837
vt 0.4117647 0.9489796
vt 0.4264706 0.9489796
vt 0.6617647 0.9489796
vt 0.6764706 0.9489796
vt 0.6764706 0.9591837
vt 0.6617647 0.9591837
vt 0.4411765 0.9489796
vt 0.4411765 0.9591837
vt 0.3823529 0.9489796
vt 0.3970588 0.9489796
vt 0.3970588 0.9591837
vt 0.3823529 0.9591837
vt 0.4117647 0.9387755
vt 0.4264706 0.9387755
vt 0.4411765 0.9387755
vt 0.3823529 0.9387755
vt 0.3970588 0.9387755
vt 0.3676471 0.9489796
vt 0.3676471 0.9591837
vt 0.3529412 0.9489796
vt 0.5 0.9081632
vt 0.5147059 0.9081632
vt 0.5147059 0.9183673
vt 0.5 0.9183673
vt 0.5294118 0.9081632
vt 0.5294118 0.9183673
vt 0.5441176 0.9081632
vt 0.5441176 0.9183673
vt 0.5588235 0.9081632
vt 0.5588235 0.9183673
vt 0.5 0.8979592
vt 0.5147059 0.8979592
vt 0.5294118 0.8979592
vt 0.5441176 0.8979592
vt 0.5588235 0.8979592

# Normal
vn 0 0 -1

# Mesh description
g RoomD_mesh_0003

# Faces
f 1/1/1 2/2/1 3/3/1 4/4/1
f 5/5/1 6/6/1 7/7/1 8/8/1
f 9/5/1 10/6/1 11/7/1 12/8/1
f 13/9/1 14/10/1 15/11/1 16/12/1
f 17/1/1 18/2/1 19/3/1 20/4/1
f 21/9/1 22/10/1 23/11/1 24/12/1
f 25/1/1 26/2/1 27/3/1 28/4/1
f 29/9/1 30/10/1 31/11/1 32/12/1
f 33/13/1 34/9/1 35/12/1 36/14/1
f 37/9/1 38/10/1 39/11/1 40/12/1
f 41/13/1 42/9/1 43/12/1 44/14/1
f 45/5/1 46/6/1 47/7/1 48/8/1
f 49/5/1 50/6/1 51/7/1 52/8/1
f 53/9/1 54/10/1 55/11/1 56/12/1
f 57/1/1 58/2/1 59/3/1 60/4/1
f 61/9/1 62/10/1 63/11/1 64/12/1
f 65/15/1 66/16/1 67/2/1 68/1/1
f 69/17/1 70/18/1 71/10/1 72/9/1
f 73/15/1 74/16/1 75/2/1 76/1/1
f 77/17/1 78/18/1 79/10/1 80/9/1
f 81/15/1 82/16/1 83/2/1 84/1/1
f 85/17/1 86/18/1 87/10/1 88/9/1
f 89/15/1 90/16/1 91/2/1 92/1/1
f 93/17/1 94/18/1 95/10/1 96/9/1
f 97/19/1 98/17/1 99/9/1 100/13/1
f 101/17/1 102/18/1 103/10/1 104/9/1
f 105/19/1 106/17/1 107/9/1 108/13/1
f 109/17/1 110/18/1 111/10/1 112/9/1
f 113/19/1 114/17/1 115/9/1 116/13/1
f 117/17/1 118/18/1 119/10/1 120/9/1
f 121/15/1 122/16/1 123/2/1 124/1/1
f 125/17/1 126/18/1 127/10/1 128/9/1
f 129/20/1 130/21/1 131/16/1 132/15/1
f 133/22/1 134/23/1 135/24/1 136/25/1
f 137/20/1 138/21/1 139/16/1 140/15/1
f 141/20/1 142/21/1 143/16/1 144/15/1
f 145/20/1 146/21/1 147/16/1 148/15/1
f 149/20/1 150/21/1 151/16/1 152/15/1
f 153/20/1 154/21/1 155/16/1 156/15/1
f 157/20/1 158/21/1 159/16/1 160/15/1
f 161/21/1 162/26/1 163/27/1 164/16/1
f 165/28/1 166/29/1 167/30/1 168/31/1
f 169/29/1 170/20/1 171/15/1 172/30/1
f 173/20/1 174/21/1 175/16/1 176/15/1
f 177/20/1 178/21/1 179/16/1 180/15/1
f 181/20/1 182/21/1 183/16/1 184/15/1
f 185/20/1 186/21/1 187/16/1 188/15/1
f 189/20/1 190/21/1 191/16/1 192/15/1
f 193/32/1 194/33/1 195/21/1 196/20/1
f 197/22/1 198/23/1 199/24/1 200/25/1
f 201/32/1 202/33/1 203/21/1 204/20/1
f 205/22/1 206/23/1 207/24/1 208/25/1
f 209/32/1 210/33/1 211/21/1 212/20/1
f 213/32/1 214/33/1 215/21/1 216/20/1
f 217/32/1 218/33/1 219/21/1 220/20/1
f 221/32/1 222/33/1 223/21/1 224/20/1
f 225/33/1 226/34/1 227/26/1 228/21/1
f 229/35/1 230/36/1 231/29/1 232/28/1
f 233/36/1 234/32/1 235/20/1 236/29/1
f 237/32/1 238/33/1 239/21/1 240/20/1
f 241/32/1 242/33/1 243/21/1 244/20/1
f 245/22/1 246/23/1 247/24/1 248/25/1
f 249/32/1 250/33/1 251/21/1 252/20/1
f 253/32/1 254/33/1 255/21/1 256/20/1
f 257/37/1 258/28/1 259/31/1 260/38/1
f 261/22/1 262/23/1 263/24/1 264/25/1
f 265/39/1 266/37/1 267/38/1 268/18/1
f 269/22/1 270/23/1 271/24/1 272/25/1
f 273/39/1 274/37/1 275/38/1 276/18/1
f 277/39/1 278/37/1 279/38/1 280/18/1
f 281/39/1 282/37/1 283/38/1 284/18/1
f 285/39/1 286/37/1 287/38/1 288/18/1
f 289/39/1 290/37/1 291/38/1 292/18/1
f 293/39/1 294/37/1 295/38/1 296/18/1
f 297/39/1 298/37/1 299/38/1 300/18/1
f 301/39/1 302/37/1 303/38/1 304/18/1
f 305/37/1 306/28/1 307/31/1 308/38/1
f 309/22/1 310/23/1 311/24/1 312/25/1
f 313/39/1 314/37/1 315/38/1 316/18/1
f 317/39/1 318/37/1 319/38/1 320/18/1
f 321/40/1 322/41/1 323/42/1 324/43/1
f 325/41/1 326/44/1 327/45/1 328/42/1
f 329/44/1 330/46/1 331/47/1 332/45/1
f 333/44/1 334/46/1 335/47/1 336/45/1
f 337/40/1 338/41/1 339/42/1 340/43/1
f 341/41/1 342/44/1 343/45/1 344/42/1
f 345/44/1 346/46/1 347/47/1 348/45/1
f 349/46/1 350/48/1 351/49/1 352/47/1
f 353/50/1 354/51/1 355/41/1 356/40/1
f 357/51/1 358/52/1 359/44/1 360/41/1
f 361/52/1 362/53/1 363/46/1 364/44/1
f 365/52/1 366/53/1 367/46/1 368/44/1
f 369/40/1 370/41/1 371/42/1 372/43/1
f 373/41/1 374/44/1 375/45/1 376/42/1
f 377/44/1 378/46/1 379/47/1 380/45/1
f 381/53/1 382/54/1 383/48/1 384/46/1

