# Tiled2Unity generated file. Do not modify by hand.
# Wavefront file for 'RoomD_mesh_0020.obj'

# Vertices (Count = 560)
v -16 -56 0
v -24 -56 0
v -24 -48 0
v -16 -48 0
v -24 -56 0
v -32 -56 0
v -32 -48 0
v -24 -48 0
v -32 -56 0
v -40 -56 0
v -40 -48 0
v -32 -48 0
v -40 -56 0
v -48 -56 0
v -48 -48 0
v -40 -48 0
v -48 -56 0
v -56 -56 0
v -56 -48 0
v -48 -48 0
v -56 -56 0
v -64 -56 0
v -64 -48 0
v -56 -48 0
v -64 -56 0
v -72 -56 0
v -72 -48 0
v -64 -48 0
v -72 -56 0
v -80 -56 0
v -80 -48 0
v -72 -48 0
v -80 -56 0
v -88 -56 0
v -88 -48 0
v -80 -48 0
v -88 -56 0
v -96 -56 0
v -96 -48 0
v -88 -48 0
v -96 -56 0
v -104 -56 0
v -104 -48 0
v -96 -48 0
v -104 -56 0
v -112 -56 0
v -112 -48 0
v -104 -48 0
v -112 -56 0
v -120 -56 0
v -120 -48 0
v -112 -48 0
v -120 -56 0
v -128 -56 0
v -128 -48 0
v -120 -48 0
v -16 -64 0
v -24 -64 0
v -24 -56 0
v -16 -56 0
v -24 -64 0
v -32 -64 0
v -32 -56 0
v -24 -56 0
v -32 -64 0
v -40 -64 0
v -40 -56 0
v -32 -56 0
v -40 -64 0
v -48 -64 0
v -48 -56 0
v -40 -56 0
v -48 -64 0
v -56 -64 0
v -56 -56 0
v -48 -56 0
v -56 -64 0
v -64 -64 0
v -64 -56 0
v -56 -56 0
v -64 -64 0
v -72 -64 0
v -72 -56 0
v -64 -56 0
v -72 -64 0
v -80 -64 0
v -80 -56 0
v -72 -56 0
v -80 -64 0
v -88 -64 0
v -88 -56 0
v -80 -56 0
v -88 -64 0
v -96 -64 0
v -96 -56 0
v -88 -56 0
v -96 -64 0
v -104 -64 0
v -104 -56 0
v -96 -56 0
v -104 -64 0
v -112 -64 0
v -112 -56 0
v -104 -56 0
v -112 -64 0
v -120 -64 0
v -120 -56 0
v -112 -56 0
v -120 -64 0
v -128 -64 0
v -128 -56 0
v -120 -56 0
v -16 -72 0
v -24 -72 0
v -24 -64 0
v -16 -64 0
v -24 -72 0
v -32 -72 0
v -32 -64 0
v -24 -64 0
v -32 -72 0
v -40 -72 0
v -40 -64 0
v -32 -64 0
v -40 -72 0
v -48 -72 0
v -48 -64 0
v -40 -64 0
v -48 -72 0
v -56 -72 0
v -56 -64 0
v -48 -64 0
v -56 -72 0
v -64 -72 0
v -64 -64 0
v -56 -64 0
v -64 -72 0
v -72 -72 0
v -72 -64 0
v -64 -64 0
v -72 -72 0
v -80 -72 0
v -80 -64 0
v -72 -64 0
v -80 -72 0
v -88 -72 0
v -88 -64 0
v -80 -64 0
v -88 -72 0
v -96 -72 0
v -96 -64 0
v -88 -64 0
v -96 -72 0
v -104 -72 0
v -104 -64 0
v -96 -64 0
v -104 -72 0
v -112 -72 0
v -112 -64 0
v -104 -64 0
v -112 -72 0
v -120 -72 0
v -120 -64 0
v -112 -64 0
v -120 -72 0
v -128 -72 0
v -128 -64 0
v -120 -64 0
v -16 -80 0
v -24 -80 0
v -24 -72 0
v -16 -72 0
v -24 -80 0
v -32 -80 0
v -32 -72 0
v -24 -72 0
v -32 -80 0
v -40 -80 0
v -40 -72 0
v -32 -72 0
v -40 -80 0
v -48 -80 0
v -48 -72 0
v -40 -72 0
v -48 -80 0
v -56 -80 0
v -56 -72 0
v -48 -72 0
v -56 -80 0
v -64 -80 0
v -64 -72 0
v -56 -72 0
v -64 -80 0
v -72 -80 0
v -72 -72 0
v -64 -72 0
v -72 -80 0
v -80 -80 0
v -80 -72 0
v -72 -72 0
v -80 -80 0
v -88 -80 0
v -88 -72 0
v -80 -72 0
v -88 -80 0
v -96 -80 0
v -96 -72 0
v -88 -72 0
v -96 -80 0
v -104 -80 0
v -104 -72 0
v -96 -72 0
v -104 -80 0
v -112 -80 0
v -112 -72 0
v -104 -72 0
v -112 -80 0
v -120 -80 0
v -120 -72 0
v -112 -72 0
v -120 -80 0
v -128 -80 0
v -128 -72 0
v -120 -72 0
v -16 -88 0
v -24 -88 0
v -24 -80 0
v -16 -80 0
v -24 -88 0
v -32 -88 0
v -32 -80 0
v -24 -80 0
v -32 -88 0
v -40 -88 0
v -40 -80 0
v -32 -80 0
v -40 -88 0
v -48 -88 0
v -48 -80 0
v -40 -80 0
v -48 -88 0
v -56 -88 0
v -56 -80 0
v -48 -80 0
v -56 -88 0
v -64 -88 0
v -64 -80 0
v -56 -80 0
v -64 -88 0
v -72 -88 0
v -72 -80 0
v -64 -80 0
v -72 -88 0
v -80 -88 0
v -80 -80 0
v -72 -80 0
v -80 -88 0
v -88 -88 0
v -88 -80 0
v -80 -80 0
v -88 -88 0
v -96 -88 0
v -96 -80 0
v -88 -80 0
v -96 -88 0
v -104 -88 0
v -104 -80 0
v -96 -80 0
v -104 -88 0
v -112 -88 0
v -112 -80 0
v -104 -80 0
v -112 -88 0
v -120 -88 0
v -120 -80 0
v -112 -80 0
v -120 -88 0
v -128 -88 0
v -128 -80 0
v -120 -80 0
v -16 -96 0
v -24 -96 0
v -24 -88 0
v -16 -88 0
v -24 -96 0
v -32 -96 0
v -32 -88 0
v -24 -88 0
v -32 -96 0
v -40 -96 0
v -40 -88 0
v -32 -88 0
v -40 -96 0
v -48 -96 0
v -48 -88 0
v -40 -88 0
v -48 -96 0
v -56 -96 0
v -56 -88 0
v -48 -88 0
v -56 -96 0
v -64 -96 0
v -64 -88 0
v -56 -88 0
v -64 -96 0
v -72 -96 0
v -72 -88 0
v -64 -88 0
v -72 -96 0
v -80 -96 0
v -80 -88 0
v -72 -88 0
v -80 -96 0
v -88 -96 0
v -88 -88 0
v -80 -88 0
v -88 -96 0
v -96 -96 0
v -96 -88 0
v -88 -88 0
v -96 -96 0
v -104 -96 0
v -104 -88 0
v -96 -88 0
v -104 -96 0
v -112 -96 0
v -112 -88 0
v -104 -88 0
v -112 -96 0
v -120 -96 0
v -120 -88 0
v -112 -88 0
v -120 -96 0
v -128 -96 0
v -128 -88 0
v -120 -88 0
v -16 -104 0
v -24 -104 0
v -24 -96 0
v -16 -96 0
v -24 -104 0
v -32 -104 0
v -32 -96 0
v -24 -96 0
v -32 -104 0
v -40 -104 0
v -40 -96 0
v -32 -96 0
v -40 -104 0
v -48 -104 0
v -48 -96 0
v -40 -96 0
v -48 -104 0
v -56 -104 0
v -56 -96 0
v -48 -96 0
v -56 -104 0
v -64 -104 0
v -64 -96 0
v -56 -96 0
v -64 -104 0
v -72 -104 0
v -72 -96 0
v -64 -96 0
v -72 -104 0
v -80 -104 0
v -80 -96 0
v -72 -96 0
v -80 -104 0
v -88 -104 0
v -88 -96 0
v -80 -96 0
v -88 -104 0
v -96 -104 0
v -96 -96 0
v -88 -96 0
v -96 -104 0
v -104 -104 0
v -104 -96 0
v -96 -96 0
v -104 -104 0
v -112 -104 0
v -112 -96 0
v -104 -96 0
v -112 -104 0
v -120 -104 0
v -120 -96 0
v -112 -96 0
v -120 -104 0
v -128 -104 0
v -128 -96 0
v -120 -96 0
v -16 -112 0
v -24 -112 0
v -24 -104 0
v -16 -104 0
v -24 -112 0
v -32 -112 0
v -32 -104 0
v -24 -104 0
v -32 -112 0
v -40 -112 0
v -40 -104 0
v -32 -104 0
v -40 -112 0
v -48 -112 0
v -48 -104 0
v -40 -104 0
v -48 -112 0
v -56 -112 0
v -56 -104 0
v -48 -104 0
v -56 -112 0
v -64 -112 0
v -64 -104 0
v -56 -104 0
v -64 -112 0
v -72 -112 0
v -72 -104 0
v -64 -104 0
v -72 -112 0
v -80 -112 0
v -80 -104 0
v -72 -104 0
v -80 -112 0
v -88 -112 0
v -88 -104 0
v -80 -104 0
v -88 -112 0
v -96 -112 0
v -96 -104 0
v -88 -104 0
v -96 -112 0
v -104 -112 0
v -104 -104 0
v -96 -104 0
v -104 -112 0
v -112 -112 0
v -112 -104 0
v -104 -104 0
v -112 -112 0
v -120 -112 0
v -120 -104 0
v -112 -104 0
v -120 -112 0
v -128 -112 0
v -128 -104 0
v -120 -104 0
v -16 -120 0
v -24 -120 0
v -24 -112 0
v -16 -112 0
v -24 -120 0
v -32 -120 0
v -32 -112 0
v -24 -112 0
v -32 -120 0
v -40 -120 0
v -40 -112 0
v -32 -112 0
v -40 -120 0
v -48 -120 0
v -48 -112 0
v -40 -112 0
v -48 -120 0
v -56 -120 0
v -56 -112 0
v -48 -112 0
v -56 -120 0
v -64 -120 0
v -64 -112 0
v -56 -112 0
v -64 -120 0
v -72 -120 0
v -72 -112 0
v -64 -112 0
v -72 -120 0
v -80 -120 0
v -80 -112 0
v -72 -112 0
v -80 -120 0
v -88 -120 0
v -88 -112 0
v -80 -112 0
v -88 -120 0
v -96 -120 0
v -96 -112 0
v -88 -112 0
v -96 -120 0
v -104 -120 0
v -104 -112 0
v -96 -112 0
v -104 -120 0
v -112 -120 0
v -112 -112 0
v -104 -112 0
v -112 -120 0
v -120 -120 0
v -120 -112 0
v -112 -112 0
v -120 -120 0
v -128 -120 0
v -128 -112 0
v -120 -112 0
v -16 -128 0
v -24 -128 0
v -24 -120 0
v -16 -120 0
v -24 -128 0
v -32 -128 0
v -32 -120 0
v -24 -120 0
v -32 -128 0
v -40 -128 0
v -40 -120 0
v -32 -120 0
v -40 -128 0
v -48 -128 0
v -48 -120 0
v -40 -120 0
v -48 -128 0
v -56 -128 0
v -56 -120 0
v -48 -120 0
v -56 -128 0
v -64 -128 0
v -64 -120 0
v -56 -120 0
v -64 -128 0
v -72 -128 0
v -72 -120 0
v -64 -120 0
v -72 -128 0
v -80 -128 0
v -80 -120 0
v -72 -120 0
v -80 -128 0
v -88 -128 0
v -88 -120 0
v -80 -120 0
v -88 -128 0
v -96 -128 0
v -96 -120 0
v -88 -120 0
v -96 -128 0
v -104 -128 0
v -104 -120 0
v -96 -120 0
v -104 -128 0
v -112 -128 0
v -112 -120 0
v -104 -120 0
v -112 -128 0
v -120 -128 0
v -120 -120 0
v -112 -120 0
v -120 -128 0
v -128 -128 0
v -128 -120 0
v -120 -120 0

# Texture cooridinates (Count = 60)
vt 0.2352941 0.9285714
vt 0.25 0.9285714
vt 0.25 0.9387755
vt 0.2352941 0.9387755
vt 0.2647059 0.9285714
vt 0.2647059 0.9387755
vt 0.6617647 0.9285714
vt 0.6764706 0.9285714
vt 0.6764706 0.9387755
vt 0.6617647 0.9387755
vt 0.2794118 0.9285714
vt 0.2941177 0.9285714
vt 0.2941177 0.9387755
vt 0.2794118 0.9387755
vt 0.3088235 0.9285714
vt 0.3088235 0.9387755
vt 0.3235294 0.9285714
vt 0.3235294 0.9387755
vt 0.3382353 0.9285714
vt 0.3382353 0.9387755
vt 0.3529412 0.9285714
vt 0.3529412 0.9387755
vt 0.3676471 0.9285714
vt 0.3676471 0.9387755
vt 0.3823529 0.9285714
vt 0.3823529 0.9387755
vt 0.3970588 0.9285714
vt 0.3970588 0.9387755
vt 0.4117647 0.9285714
vt 0.4117647 0.9387755
vt 0.4264706 0.9285714
vt 0.4264706 0.9387755
vt 0.4411765 0.9285714
vt 0.4411765 0.9387755
vt 0.2352941 0.9081632
vt 0.25 0.9081632
vt 0.25 0.9183673
vt 0.2352941 0.9183673
vt 0.4411765 0.8979592
vt 0.4558823 0.8979592
vt 0.4558823 0.9081632
vt 0.4411765 0.9081632
vt 0.4264706 0.8979592
vt 0.4264706 0.9081632
vt 0.2352941 0.8979592
vt 0.25 0.8979592
vt 0.4411765 0.8877551
vt 0.4558823 0.8877551
vt 0.4264706 0.8877551
vt 0.2352941 0.8877551
vt 0.25 0.8877551
vt 0.6176471 0.9081632
vt 0.6323529 0.9081632
vt 0.6323529 0.9183673
vt 0.6176471 0.9183673
vt 0.6470588 0.9081632
vt 0.6470588 0.9183673
vt 0.6323529 0.8979592
vt 0.6176471 0.8979592
vt 0.6470588 0.8979592

# Normal
vn 0 0 -1

# Mesh description
g RoomD_mesh_0020

# Faces
f 1/1/1 2/2/1 3/3/1 4/4/1
f 5/2/1 6/5/1 7/6/1 8/3/1
f 9/7/1 10/8/1 11/9/1 12/10/1
f 13/11/1 14/12/1 15/13/1 16/14/1
f 17/12/1 18/15/1 19/16/1 20/13/1
f 21/15/1 22/17/1 23/18/1 24/16/1
f 25/17/1 26/19/1 27/20/1 28/18/1
f 29/19/1 30/21/1 31/22/1 32/20/1
f 33/21/1 34/23/1 35/24/1 36/22/1
f 37/23/1 38/25/1 39/26/1 40/24/1
f 41/25/1 42/27/1 43/28/1 44/26/1
f 45/27/1 46/29/1 47/30/1 48/28/1
f 49/29/1 50/31/1 51/32/1 52/30/1
f 53/31/1 54/33/1 55/34/1 56/32/1
f 57/35/1 58/36/1 59/37/1 60/38/1
f 61/39/1 62/40/1 63/41/1 64/42/1
f 65/39/1 66/40/1 67/41/1 68/42/1
f 69/43/1 70/39/1 71/42/1 72/44/1
f 73/43/1 74/39/1 75/42/1 76/44/1
f 77/43/1 78/39/1 79/42/1 80/44/1
f 81/43/1 82/39/1 83/42/1 84/44/1
f 85/43/1 86/39/1 87/42/1 88/44/1
f 89/43/1 90/39/1 91/42/1 92/44/1
f 93/39/1 94/40/1 95/41/1 96/42/1
f 97/39/1 98/40/1 99/41/1 100/42/1
f 101/39/1 102/40/1 103/41/1 104/42/1
f 105/39/1 106/40/1 107/41/1 108/42/1
f 109/39/1 110/40/1 111/41/1 112/42/1
f 113/45/1 114/46/1 115/36/1 116/35/1
f 117/39/1 118/40/1 119/41/1 120/42/1
f 121/47/1 122/48/1 123/40/1 124/39/1
f 125/43/1 126/39/1 127/42/1 128/44/1
f 129/39/1 130/40/1 131/41/1 132/42/1
f 133/49/1 134/47/1 135/39/1 136/43/1
f 137/49/1 138/47/1 139/39/1 140/43/1
f 141/49/1 142/47/1 143/39/1 144/43/1
f 145/49/1 146/47/1 147/39/1 148/43/1
f 149/43/1 150/39/1 151/42/1 152/44/1
f 153/43/1 154/39/1 155/42/1 156/44/1
f 157/43/1 158/39/1 159/42/1 160/44/1
f 161/43/1 162/39/1 163/42/1 164/44/1
f 165/43/1 166/39/1 167/42/1 168/44/1
f 169/50/1 170/51/1 171/46/1 172/45/1
f 173/39/1 174/40/1 175/41/1 176/42/1
f 177/47/1 178/48/1 179/40/1 180/39/1
f 181/43/1 182/39/1 183/42/1 184/44/1
f 185/39/1 186/40/1 187/41/1 188/42/1
f 189/39/1 190/40/1 191/41/1 192/42/1
f 193/43/1 194/39/1 195/42/1 196/44/1
f 197/39/1 198/40/1 199/41/1 200/42/1
f 201/43/1 202/39/1 203/42/1 204/44/1
f 205/43/1 206/39/1 207/42/1 208/44/1
f 209/39/1 210/40/1 211/41/1 212/42/1
f 213/39/1 214/40/1 215/41/1 216/42/1
f 217/39/1 218/40/1 219/41/1 220/42/1
f 221/39/1 222/40/1 223/41/1 224/42/1
f 225/38/1 226/37/1 227/2/1 228/1/1
f 229/39/1 230/40/1 231/41/1 232/42/1
f 233/47/1 234/48/1 235/40/1 236/39/1
f 237/43/1 238/39/1 239/42/1 240/44/1
f 241/39/1 242/40/1 243/41/1 244/42/1
f 245/43/1 246/39/1 247/42/1 248/44/1
f 249/43/1 250/39/1 251/42/1 252/44/1
f 253/39/1 254/40/1 255/41/1 256/42/1
f 257/49/1 258/47/1 259/39/1 260/43/1
f 261/43/1 262/39/1 263/42/1 264/44/1
f 265/43/1 266/39/1 267/42/1 268/44/1
f 269/43/1 270/39/1 271/42/1 272/44/1
f 273/43/1 274/39/1 275/42/1 276/44/1
f 277/43/1 278/39/1 279/42/1 280/44/1
f 281/35/1 282/36/1 283/37/1 284/38/1
f 285/43/1 286/39/1 287/42/1 288/44/1
f 289/39/1 290/40/1 291/41/1 292/42/1
f 293/43/1 294/39/1 295/42/1 296/44/1
f 297/39/1 298/40/1 299/41/1 300/42/1
f 301/43/1 302/39/1 303/42/1 304/44/1
f 305/39/1 306/40/1 307/41/1 308/42/1
f 309/47/1 310/48/1 311/40/1 312/39/1
f 313/39/1 314/40/1 315/41/1 316/42/1
f 317/39/1 318/40/1 319/41/1 320/42/1
f 321/43/1 322/39/1 323/42/1 324/44/1
f 325/39/1 326/40/1 327/41/1 328/42/1
f 329/39/1 330/40/1 331/41/1 332/42/1
f 333/39/1 334/40/1 335/41/1 336/42/1
f 337/45/1 338/46/1 339/36/1 340/35/1
f 341/43/1 342/39/1 343/42/1 344/44/1
f 345/39/1 346/40/1 347/41/1 348/42/1
f 349/43/1 350/39/1 351/42/1 352/44/1
f 353/39/1 354/40/1 355/41/1 356/42/1
f 357/43/1 358/39/1 359/42/1 360/44/1
f 361/39/1 362/40/1 363/41/1 364/42/1
f 365/49/1 366/47/1 367/39/1 368/43/1
f 369/47/1 370/48/1 371/40/1 372/39/1
f 373/43/1 374/39/1 375/42/1 376/44/1
f 377/43/1 378/39/1 379/42/1 380/44/1
f 381/39/1 382/40/1 383/41/1 384/42/1
f 385/43/1 386/39/1 387/42/1 388/44/1
f 389/39/1 390/40/1 391/41/1 392/42/1
f 393/38/1 394/37/1 395/2/1 396/1/1
f 397/43/1 398/39/1 399/42/1 400/44/1
f 401/43/1 402/39/1 403/42/1 404/44/1
f 405/43/1 406/39/1 407/42/1 408/44/1
f 409/39/1 410/40/1 411/41/1 412/42/1
f 413/43/1 414/39/1 415/42/1 416/44/1
f 417/39/1 418/40/1 419/41/1 420/42/1
f 421/43/1 422/39/1 423/42/1 424/44/1
f 425/39/1 426/40/1 427/41/1 428/42/1
f 429/52/1 430/53/1 431/54/1 432/55/1
f 433/53/1 434/56/1 435/57/1 436/54/1
f 437/58/1 438/53/1 439/52/1 440/59/1
f 441/53/1 442/54/1 443/55/1 444/52/1
f 445/39/1 446/40/1 447/41/1 448/42/1
f 449/38/1 450/37/1 451/2/1 452/1/1
f 453/43/1 454/39/1 455/42/1 456/44/1
f 457/49/1 458/47/1 459/39/1 460/43/1
f 461/43/1 462/39/1 463/42/1 464/44/1
f 465/39/1 466/40/1 467/41/1 468/42/1
f 469/39/1 470/40/1 471/41/1 472/42/1
f 473/39/1 474/40/1 475/41/1 476/42/1
f 477/43/1 478/39/1 479/42/1 480/44/1
f 481/39/1 482/40/1 483/41/1 484/42/1
f 485/59/1 486/58/1 487/53/1 488/52/1
f 489/58/1 490/60/1 491/56/1 492/53/1
f 493/60/1 494/56/1 495/53/1 496/58/1
f 497/56/1 498/57/1 499/54/1 500/53/1
f 501/47/1 502/48/1 503/40/1 504/39/1
f 505/38/1 506/37/1 507/2/1 508/1/1
f 509/43/1 510/39/1 511/42/1 512/44/1
f 513/49/1 514/47/1 515/39/1 516/43/1
f 517/43/1 518/39/1 519/42/1 520/44/1
f 521/39/1 522/40/1 523/41/1 524/42/1
f 525/47/1 526/48/1 527/40/1 528/39/1
f 529/43/1 530/39/1 531/42/1 532/44/1
f 533/39/1 534/40/1 535/41/1 536/42/1
f 537/39/1 538/40/1 539/41/1 540/42/1
f 541/39/1 542/40/1 543/41/1 544/42/1
f 545/39/1 546/40/1 547/41/1 548/42/1
f 549/56/1 550/53/1 551/58/1 552/60/1
f 553/53/1 554/52/1 555/59/1 556/58/1
f 557/49/1 558/47/1 559/39/1 560/43/1

