# Tiled2Unity generated file. Do not modify by hand.
# Wavefront file for 'RoomD_mesh_0015.obj'

# Vertices (Count = 352)
v -8 -8 0
v -16 -8 0
v -16 0 0
v -8 0 0
v -16 -8 0
v -24 -8 0
v -24 0 0
v -16 0 0
v -24 -8 0
v -32 -8 0
v -32 0 0
v -24 0 0
v -32 -8 0
v -40 -8 0
v -40 0 0
v -32 0 0
v -40 -8 0
v -48 -8 0
v -48 0 0
v -40 0 0
v -48 -8 0
v -56 -8 0
v -56 0 0
v -48 0 0
v -56 -8 0
v -64 -8 0
v -64 0 0
v -56 0 0
v -64 -8 0
v -72 -8 0
v -72 0 0
v -64 0 0
v -72 -8 0
v -80 -8 0
v -80 0 0
v -72 0 0
v -80 -8 0
v -88 -8 0
v -88 0 0
v -80 0 0
v -88 -8 0
v -96 -8 0
v -96 0 0
v -88 0 0
v -96 -8 0
v -104 -8 0
v -104 0 0
v -96 0 0
v -104 -8 0
v -112 -8 0
v -112 0 0
v -104 0 0
v -112 -8 0
v -120 -8 0
v -120 0 0
v -112 0 0
v -120 -8 0
v -128 -8 0
v -128 0 0
v -120 0 0
v -8 -16 0
v -16 -16 0
v -16 -8 0
v -8 -8 0
v -16 -16 0
v -24 -16 0
v -24 -8 0
v -16 -8 0
v -24 -16 0
v -32 -16 0
v -32 -8 0
v -24 -8 0
v -32 -16 0
v -40 -16 0
v -40 -8 0
v -32 -8 0
v -40 -16 0
v -48 -16 0
v -48 -8 0
v -40 -8 0
v -48 -16 0
v -56 -16 0
v -56 -8 0
v -48 -8 0
v -56 -16 0
v -64 -16 0
v -64 -8 0
v -56 -8 0
v -64 -16 0
v -72 -16 0
v -72 -8 0
v -64 -8 0
v -72 -16 0
v -80 -16 0
v -80 -8 0
v -72 -8 0
v -80 -16 0
v -88 -16 0
v -88 -8 0
v -80 -8 0
v -88 -16 0
v -96 -16 0
v -96 -8 0
v -88 -8 0
v -96 -16 0
v -104 -16 0
v -104 -8 0
v -96 -8 0
v -104 -16 0
v -112 -16 0
v -112 -8 0
v -104 -8 0
v -112 -16 0
v -120 -16 0
v -120 -8 0
v -112 -8 0
v -120 -16 0
v -128 -16 0
v -128 -8 0
v -120 -8 0
v -8 -24 0
v -16 -24 0
v -16 -16 0
v -8 -16 0
v -16 -24 0
v -24 -24 0
v -24 -16 0
v -16 -16 0
v -24 -24 0
v -32 -24 0
v -32 -16 0
v -24 -16 0
v -32 -24 0
v -40 -24 0
v -40 -16 0
v -32 -16 0
v -40 -24 0
v -48 -24 0
v -48 -16 0
v -40 -16 0
v -48 -24 0
v -56 -24 0
v -56 -16 0
v -48 -16 0
v -56 -24 0
v -64 -24 0
v -64 -16 0
v -56 -16 0
v -64 -24 0
v -72 -24 0
v -72 -16 0
v -64 -16 0
v -72 -24 0
v -80 -24 0
v -80 -16 0
v -72 -16 0
v -80 -24 0
v -88 -24 0
v -88 -16 0
v -80 -16 0
v -88 -24 0
v -96 -24 0
v -96 -16 0
v -88 -16 0
v -96 -24 0
v -104 -24 0
v -104 -16 0
v -96 -16 0
v -104 -24 0
v -112 -24 0
v -112 -16 0
v -104 -16 0
v -112 -24 0
v -120 -24 0
v -120 -16 0
v -112 -16 0
v -120 -24 0
v -128 -24 0
v -128 -16 0
v -120 -16 0
v -8 -32 0
v -16 -32 0
v -16 -24 0
v -8 -24 0
v -16 -32 0
v -24 -32 0
v -24 -24 0
v -16 -24 0
v -24 -32 0
v -32 -32 0
v -32 -24 0
v -24 -24 0
v -32 -32 0
v -40 -32 0
v -40 -24 0
v -32 -24 0
v -40 -32 0
v -48 -32 0
v -48 -24 0
v -40 -24 0
v -48 -32 0
v -56 -32 0
v -56 -24 0
v -48 -24 0
v -56 -32 0
v -64 -32 0
v -64 -24 0
v -56 -24 0
v -64 -32 0
v -72 -32 0
v -72 -24 0
v -64 -24 0
v -72 -32 0
v -80 -32 0
v -80 -24 0
v -72 -24 0
v -80 -32 0
v -88 -32 0
v -88 -24 0
v -80 -24 0
v -88 -32 0
v -96 -32 0
v -96 -24 0
v -88 -24 0
v -96 -32 0
v -104 -32 0
v -104 -24 0
v -96 -24 0
v -104 -32 0
v -112 -32 0
v -112 -24 0
v -104 -24 0
v -112 -32 0
v -120 -32 0
v -120 -24 0
v -112 -24 0
v -120 -32 0
v -128 -32 0
v -128 -24 0
v -120 -24 0
v -8 -40 0
v -16 -40 0
v -16 -32 0
v -8 -32 0
v -16 -40 0
v -24 -40 0
v -24 -32 0
v -16 -32 0
v -8 -48 0
v -16 -48 0
v -16 -40 0
v -8 -40 0
v -16 -48 0
v -24 -48 0
v -24 -40 0
v -16 -40 0
v -8 -56 0
v -16 -56 0
v -16 -48 0
v -8 -48 0
v -16 -56 0
v -24 -56 0
v -24 -48 0
v -16 -48 0
v -8 -64 0
v -16 -64 0
v -16 -56 0
v -8 -56 0
v -16 -64 0
v -24 -64 0
v -24 -56 0
v -16 -56 0
v -8 -72 0
v -16 -72 0
v -16 -64 0
v -8 -64 0
v -16 -72 0
v -24 -72 0
v -24 -64 0
v -16 -64 0
v -8 -80 0
v -16 -80 0
v -16 -72 0
v -8 -72 0
v -16 -80 0
v -24 -80 0
v -24 -72 0
v -16 -72 0
v -8 -88 0
v -16 -88 0
v -16 -80 0
v -8 -80 0
v -16 -88 0
v -24 -88 0
v -24 -80 0
v -16 -80 0
v -8 -96 0
v -16 -96 0
v -16 -88 0
v -8 -88 0
v -16 -96 0
v -24 -96 0
v -24 -88 0
v -16 -88 0
v 0 -104 0
v -8 -104 0
v -8 -96 0
v 0 -96 0
v -8 -104 0
v -16 -104 0
v -16 -96 0
v -8 -96 0
v -16 -104 0
v -24 -104 0
v -24 -96 0
v -16 -96 0
v 0 -112 0
v -8 -112 0
v -8 -104 0
v 0 -104 0
v -8 -112 0
v -16 -112 0
v -16 -104 0
v -8 -104 0
v -16 -112 0
v -24 -112 0
v -24 -104 0
v -16 -104 0
v 0 -120 0
v -8 -120 0
v -8 -112 0
v 0 -112 0
v -8 -120 0
v -16 -120 0
v -16 -112 0
v -8 -112 0
v -16 -120 0
v -24 -120 0
v -24 -112 0
v -16 -112 0
v 0 -128 0
v -8 -128 0
v -8 -120 0
v 0 -120 0
v -8 -128 0
v -16 -128 0
v -16 -120 0
v -8 -120 0
v -16 -128 0
v -24 -128 0
v -24 -120 0
v -16 -120 0

# Texture cooridinates (Count = 79)
vt 0.6176471 0.8571429
vt 0.6323529 0.8571429
vt 0.6323529 0.8673469
vt 0.6176471 0.8673469
vt 0.6470588 0.8571429
vt 0.6470588 0.8673469
vt 0.6617647 0.8571429
vt 0.6617647 0.8673469
vt 0.6764706 0.8571429
vt 0.6764706 0.8673469
vt 0.5882353 0.7755102
vt 0.6029412 0.7755102
vt 0.6029412 0.7857143
vt 0.5882353 0.7857143
vt 0.6176471 0.7755102
vt 0.6176471 0.7857143
vt 0.8823529 0.8571429
vt 0.8970588 0.8571429
vt 0.8970588 0.8673469
vt 0.8823529 0.8673469
vt 0.9117647 0.8571429
vt 0.9117647 0.8673469
vt 0.4705882 0.8061224
vt 0.4852941 0.8061224
vt 0.4852941 0.8163265
vt 0.4705882 0.8163265
vt 0.5 0.8061224
vt 0.5 0.8163265
vt 0.6470588 0.8469388
vt 0.6617647 0.8469388
vt 0.6764706 0.8469388
vt 0.7352941 0.8469388
vt 0.75 0.8469388
vt 0.75 0.8571429
vt 0.7352941 0.8571429
vt 0.7647059 0.8469388
vt 0.7647059 0.8571429
vt 0.4705882 0.7959183
vt 0.4852941 0.7959183
vt 0.5 0.7959183
vt 0.4705882 0.7857143
vt 0.4852941 0.7857143
vt 0.5 0.7857143
vt 0.6470588 0.8367347
vt 0.6617647 0.8367347
vt 0.6764706 0.8367347
vt 0.6911765 0.8469388
vt 0.7058824 0.8469388
vt 0.7058824 0.8571429
vt 0.6911765 0.8571429
vt 0.7352941 0.8367347
vt 0.75 0.8367347
vt 0.7647059 0.8367347
vt 0.2941177 0.6836735
vt 0.3088235 0.6836735
vt 0.3088235 0.6938776
vt 0.2941177 0.6938776
vt 0.2941177 0.6734694
vt 0.3088235 0.6734694
vt 0.3529412 0.6734694
vt 0.3676471 0.6734694
vt 0.3676471 0.6836735
vt 0.3529412 0.6836735
vt 0.2352941 0.6734694
vt 0.25 0.6734694
vt 0.25 0.6836735
vt 0.2352941 0.6836735
vt 0.2941177 0.6632653
vt 0.3088235 0.6632653
vt 0.3529412 0.6632653
vt 0.3676471 0.6632653
vt 0.2352941 0.6632653
vt 0.25 0.6632653
vt 0.2941177 0.6530612
vt 0.3088235 0.6530612
vt 0.8529412 0.8469388
vt 0.8676471 0.8469388
vt 0.8676471 0.8571429
vt 0.8529412 0.8571429

# Normal
vn 0 0 -1

# Mesh description
g RoomD_mesh_0015

# Faces
f 1/1/1 2/2/1 3/3/1 4/4/1
f 5/2/1 6/5/1 7/6/1 8/3/1
f 9/5/1 10/7/1 11/8/1 12/6/1
f 13/5/1 14/7/1 15/8/1 16/6/1
f 17/7/1 18/9/1 19/10/1 20/8/1
f 21/11/1 22/12/1 23/13/1 24/14/1
f 25/12/1 26/15/1 27/16/1 28/13/1
f 29/11/1 30/12/1 31/13/1 32/14/1
f 33/12/1 34/15/1 35/16/1 36/13/1
f 37/11/1 38/12/1 39/13/1 40/14/1
f 41/12/1 42/15/1 43/16/1 44/13/1
f 45/11/1 46/12/1 47/13/1 48/14/1
f 49/12/1 50/15/1 51/16/1 52/13/1
f 53/17/1 54/18/1 55/19/1 56/20/1
f 57/18/1 58/21/1 59/22/1 60/19/1
f 61/23/1 62/24/1 63/25/1 64/26/1
f 65/24/1 66/27/1 67/28/1 68/25/1
f 69/29/1 70/30/1 71/7/1 72/5/1
f 73/30/1 74/31/1 75/9/1 76/7/1
f 77/29/1 78/30/1 79/7/1 80/5/1
f 81/30/1 82/31/1 83/9/1 84/7/1
f 85/30/1 86/31/1 87/9/1 88/7/1
f 89/29/1 90/30/1 91/7/1 92/5/1
f 93/30/1 94/31/1 95/9/1 96/7/1
f 97/29/1 98/30/1 99/7/1 100/5/1
f 101/29/1 102/30/1 103/7/1 104/5/1
f 105/29/1 106/30/1 107/7/1 108/5/1
f 109/30/1 110/31/1 111/9/1 112/7/1
f 113/32/1 114/33/1 115/34/1 116/35/1
f 117/33/1 118/36/1 119/37/1 120/34/1
f 121/38/1 122/39/1 123/24/1 124/23/1
f 125/39/1 126/40/1 127/27/1 128/24/1
f 129/29/1 130/30/1 131/7/1 132/5/1
f 133/30/1 134/31/1 135/9/1 136/7/1
f 137/29/1 138/30/1 139/7/1 140/5/1
f 141/30/1 142/31/1 143/9/1 144/7/1
f 145/30/1 146/31/1 147/9/1 148/7/1
f 149/29/1 150/30/1 151/7/1 152/5/1
f 153/30/1 154/31/1 155/9/1 156/7/1
f 157/29/1 158/30/1 159/7/1 160/5/1
f 161/29/1 162/30/1 163/7/1 164/5/1
f 165/29/1 166/30/1 167/7/1 168/5/1
f 169/30/1 170/31/1 171/9/1 172/7/1
f 173/32/1 174/33/1 175/34/1 176/35/1
f 177/33/1 178/36/1 179/37/1 180/34/1
f 181/41/1 182/42/1 183/39/1 184/38/1
f 185/42/1 186/43/1 187/40/1 188/39/1
f 189/44/1 190/45/1 191/30/1 192/29/1
f 193/45/1 194/46/1 195/31/1 196/30/1
f 197/44/1 198/45/1 199/30/1 200/29/1
f 201/47/1 202/48/1 203/49/1 204/50/1
f 205/45/1 206/46/1 207/31/1 208/30/1
f 209/44/1 210/45/1 211/30/1 212/29/1
f 213/45/1 214/46/1 215/31/1 216/30/1
f 217/44/1 218/45/1 219/30/1 220/29/1
f 221/44/1 222/45/1 223/30/1 224/29/1
f 225/44/1 226/45/1 227/30/1 228/29/1
f 229/45/1 230/46/1 231/31/1 232/30/1
f 233/51/1 234/52/1 235/33/1 236/32/1
f 237/52/1 238/53/1 239/36/1 240/33/1
f 241/23/1 242/24/1 243/25/1 244/26/1
f 245/24/1 246/27/1 247/28/1 248/25/1
f 249/38/1 250/39/1 251/24/1 252/23/1
f 253/39/1 254/40/1 255/27/1 256/24/1
f 257/41/1 258/42/1 259/39/1 260/38/1
f 261/42/1 262/43/1 263/40/1 264/39/1
f 265/23/1 266/24/1 267/25/1 268/26/1
f 269/24/1 270/27/1 271/28/1 272/25/1
f 273/38/1 274/39/1 275/24/1 276/23/1
f 277/39/1 278/40/1 279/27/1 280/24/1
f 281/41/1 282/42/1 283/39/1 284/38/1
f 285/42/1 286/43/1 287/40/1 288/39/1
f 289/23/1 290/24/1 291/25/1 292/26/1
f 293/24/1 294/27/1 295/28/1 296/25/1
f 297/38/1 298/39/1 299/24/1 300/23/1
f 301/39/1 302/40/1 303/27/1 304/24/1
f 305/54/1 306/55/1 307/56/1 308/57/1
f 309/41/1 310/42/1 311/39/1 312/38/1
f 313/42/1 314/43/1 315/40/1 316/39/1
f 317/58/1 318/59/1 319/55/1 320/54/1
f 321/60/1 322/61/1 323/62/1 324/63/1
f 325/64/1 326/65/1 327/66/1 328/67/1
f 329/68/1 330/69/1 331/59/1 332/58/1
f 333/70/1 334/71/1 335/61/1 336/60/1
f 337/72/1 338/73/1 339/65/1 340/64/1
f 341/74/1 342/75/1 343/69/1 344/68/1
f 345/76/1 346/77/1 347/78/1 348/79/1
f 349/76/1 350/77/1 351/78/1 352/79/1

