# Tiled2Unity generated file. Do not modify by hand.
# Wavefront file for 'RoomD_mesh_0023.obj'

# Vertices (Count = 560)
v 0 -56 0
v -8 -56 0
v -8 -48 0
v 0 -48 0
v -8 -56 0
v -16 -56 0
v -16 -48 0
v -8 -48 0
v -16 -56 0
v -24 -56 0
v -24 -48 0
v -16 -48 0
v -24 -56 0
v -32 -56 0
v -32 -48 0
v -24 -48 0
v -32 -56 0
v -40 -56 0
v -40 -48 0
v -32 -48 0
v -40 -56 0
v -48 -56 0
v -48 -48 0
v -40 -48 0
v -48 -56 0
v -56 -56 0
v -56 -48 0
v -48 -48 0
v -56 -56 0
v -64 -56 0
v -64 -48 0
v -56 -48 0
v -64 -56 0
v -72 -56 0
v -72 -48 0
v -64 -48 0
v -72 -56 0
v -80 -56 0
v -80 -48 0
v -72 -48 0
v -80 -56 0
v -88 -56 0
v -88 -48 0
v -80 -48 0
v -88 -56 0
v -96 -56 0
v -96 -48 0
v -88 -48 0
v -96 -56 0
v -104 -56 0
v -104 -48 0
v -96 -48 0
v -104 -56 0
v -112 -56 0
v -112 -48 0
v -104 -48 0
v 0 -64 0
v -8 -64 0
v -8 -56 0
v 0 -56 0
v -8 -64 0
v -16 -64 0
v -16 -56 0
v -8 -56 0
v -16 -64 0
v -24 -64 0
v -24 -56 0
v -16 -56 0
v -24 -64 0
v -32 -64 0
v -32 -56 0
v -24 -56 0
v -32 -64 0
v -40 -64 0
v -40 -56 0
v -32 -56 0
v -40 -64 0
v -48 -64 0
v -48 -56 0
v -40 -56 0
v -48 -64 0
v -56 -64 0
v -56 -56 0
v -48 -56 0
v -56 -64 0
v -64 -64 0
v -64 -56 0
v -56 -56 0
v -64 -64 0
v -72 -64 0
v -72 -56 0
v -64 -56 0
v -72 -64 0
v -80 -64 0
v -80 -56 0
v -72 -56 0
v -80 -64 0
v -88 -64 0
v -88 -56 0
v -80 -56 0
v -88 -64 0
v -96 -64 0
v -96 -56 0
v -88 -56 0
v -96 -64 0
v -104 -64 0
v -104 -56 0
v -96 -56 0
v -104 -64 0
v -112 -64 0
v -112 -56 0
v -104 -56 0
v 0 -72 0
v -8 -72 0
v -8 -64 0
v 0 -64 0
v -8 -72 0
v -16 -72 0
v -16 -64 0
v -8 -64 0
v -16 -72 0
v -24 -72 0
v -24 -64 0
v -16 -64 0
v -24 -72 0
v -32 -72 0
v -32 -64 0
v -24 -64 0
v -32 -72 0
v -40 -72 0
v -40 -64 0
v -32 -64 0
v -40 -72 0
v -48 -72 0
v -48 -64 0
v -40 -64 0
v -48 -72 0
v -56 -72 0
v -56 -64 0
v -48 -64 0
v -56 -72 0
v -64 -72 0
v -64 -64 0
v -56 -64 0
v -64 -72 0
v -72 -72 0
v -72 -64 0
v -64 -64 0
v -72 -72 0
v -80 -72 0
v -80 -64 0
v -72 -64 0
v -80 -72 0
v -88 -72 0
v -88 -64 0
v -80 -64 0
v -88 -72 0
v -96 -72 0
v -96 -64 0
v -88 -64 0
v -96 -72 0
v -104 -72 0
v -104 -64 0
v -96 -64 0
v -104 -72 0
v -112 -72 0
v -112 -64 0
v -104 -64 0
v 0 -80 0
v -8 -80 0
v -8 -72 0
v 0 -72 0
v -8 -80 0
v -16 -80 0
v -16 -72 0
v -8 -72 0
v -16 -80 0
v -24 -80 0
v -24 -72 0
v -16 -72 0
v -24 -80 0
v -32 -80 0
v -32 -72 0
v -24 -72 0
v -32 -80 0
v -40 -80 0
v -40 -72 0
v -32 -72 0
v -40 -80 0
v -48 -80 0
v -48 -72 0
v -40 -72 0
v -48 -80 0
v -56 -80 0
v -56 -72 0
v -48 -72 0
v -56 -80 0
v -64 -80 0
v -64 -72 0
v -56 -72 0
v -64 -80 0
v -72 -80 0
v -72 -72 0
v -64 -72 0
v -72 -80 0
v -80 -80 0
v -80 -72 0
v -72 -72 0
v -80 -80 0
v -88 -80 0
v -88 -72 0
v -80 -72 0
v -88 -80 0
v -96 -80 0
v -96 -72 0
v -88 -72 0
v -96 -80 0
v -104 -80 0
v -104 -72 0
v -96 -72 0
v -104 -80 0
v -112 -80 0
v -112 -72 0
v -104 -72 0
v 0 -88 0
v -8 -88 0
v -8 -80 0
v 0 -80 0
v -8 -88 0
v -16 -88 0
v -16 -80 0
v -8 -80 0
v -16 -88 0
v -24 -88 0
v -24 -80 0
v -16 -80 0
v -24 -88 0
v -32 -88 0
v -32 -80 0
v -24 -80 0
v -32 -88 0
v -40 -88 0
v -40 -80 0
v -32 -80 0
v -40 -88 0
v -48 -88 0
v -48 -80 0
v -40 -80 0
v -48 -88 0
v -56 -88 0
v -56 -80 0
v -48 -80 0
v -56 -88 0
v -64 -88 0
v -64 -80 0
v -56 -80 0
v -64 -88 0
v -72 -88 0
v -72 -80 0
v -64 -80 0
v -72 -88 0
v -80 -88 0
v -80 -80 0
v -72 -80 0
v -80 -88 0
v -88 -88 0
v -88 -80 0
v -80 -80 0
v -88 -88 0
v -96 -88 0
v -96 -80 0
v -88 -80 0
v -96 -88 0
v -104 -88 0
v -104 -80 0
v -96 -80 0
v -104 -88 0
v -112 -88 0
v -112 -80 0
v -104 -80 0
v 0 -96 0
v -8 -96 0
v -8 -88 0
v 0 -88 0
v -8 -96 0
v -16 -96 0
v -16 -88 0
v -8 -88 0
v -16 -96 0
v -24 -96 0
v -24 -88 0
v -16 -88 0
v -24 -96 0
v -32 -96 0
v -32 -88 0
v -24 -88 0
v -32 -96 0
v -40 -96 0
v -40 -88 0
v -32 -88 0
v -40 -96 0
v -48 -96 0
v -48 -88 0
v -40 -88 0
v -48 -96 0
v -56 -96 0
v -56 -88 0
v -48 -88 0
v -56 -96 0
v -64 -96 0
v -64 -88 0
v -56 -88 0
v -64 -96 0
v -72 -96 0
v -72 -88 0
v -64 -88 0
v -72 -96 0
v -80 -96 0
v -80 -88 0
v -72 -88 0
v -80 -96 0
v -88 -96 0
v -88 -88 0
v -80 -88 0
v -88 -96 0
v -96 -96 0
v -96 -88 0
v -88 -88 0
v -96 -96 0
v -104 -96 0
v -104 -88 0
v -96 -88 0
v -104 -96 0
v -112 -96 0
v -112 -88 0
v -104 -88 0
v 0 -104 0
v -8 -104 0
v -8 -96 0
v 0 -96 0
v -8 -104 0
v -16 -104 0
v -16 -96 0
v -8 -96 0
v -16 -104 0
v -24 -104 0
v -24 -96 0
v -16 -96 0
v -24 -104 0
v -32 -104 0
v -32 -96 0
v -24 -96 0
v -32 -104 0
v -40 -104 0
v -40 -96 0
v -32 -96 0
v -40 -104 0
v -48 -104 0
v -48 -96 0
v -40 -96 0
v -48 -104 0
v -56 -104 0
v -56 -96 0
v -48 -96 0
v -56 -104 0
v -64 -104 0
v -64 -96 0
v -56 -96 0
v -64 -104 0
v -72 -104 0
v -72 -96 0
v -64 -96 0
v -72 -104 0
v -80 -104 0
v -80 -96 0
v -72 -96 0
v -80 -104 0
v -88 -104 0
v -88 -96 0
v -80 -96 0
v -88 -104 0
v -96 -104 0
v -96 -96 0
v -88 -96 0
v -96 -104 0
v -104 -104 0
v -104 -96 0
v -96 -96 0
v -104 -104 0
v -112 -104 0
v -112 -96 0
v -104 -96 0
v 0 -112 0
v -8 -112 0
v -8 -104 0
v 0 -104 0
v -8 -112 0
v -16 -112 0
v -16 -104 0
v -8 -104 0
v -16 -112 0
v -24 -112 0
v -24 -104 0
v -16 -104 0
v -24 -112 0
v -32 -112 0
v -32 -104 0
v -24 -104 0
v -32 -112 0
v -40 -112 0
v -40 -104 0
v -32 -104 0
v -40 -112 0
v -48 -112 0
v -48 -104 0
v -40 -104 0
v -48 -112 0
v -56 -112 0
v -56 -104 0
v -48 -104 0
v -56 -112 0
v -64 -112 0
v -64 -104 0
v -56 -104 0
v -64 -112 0
v -72 -112 0
v -72 -104 0
v -64 -104 0
v -72 -112 0
v -80 -112 0
v -80 -104 0
v -72 -104 0
v -80 -112 0
v -88 -112 0
v -88 -104 0
v -80 -104 0
v -88 -112 0
v -96 -112 0
v -96 -104 0
v -88 -104 0
v -96 -112 0
v -104 -112 0
v -104 -104 0
v -96 -104 0
v -104 -112 0
v -112 -112 0
v -112 -104 0
v -104 -104 0
v 0 -120 0
v -8 -120 0
v -8 -112 0
v 0 -112 0
v -8 -120 0
v -16 -120 0
v -16 -112 0
v -8 -112 0
v -16 -120 0
v -24 -120 0
v -24 -112 0
v -16 -112 0
v -24 -120 0
v -32 -120 0
v -32 -112 0
v -24 -112 0
v -32 -120 0
v -40 -120 0
v -40 -112 0
v -32 -112 0
v -40 -120 0
v -48 -120 0
v -48 -112 0
v -40 -112 0
v -48 -120 0
v -56 -120 0
v -56 -112 0
v -48 -112 0
v -56 -120 0
v -64 -120 0
v -64 -112 0
v -56 -112 0
v -64 -120 0
v -72 -120 0
v -72 -112 0
v -64 -112 0
v -72 -120 0
v -80 -120 0
v -80 -112 0
v -72 -112 0
v -80 -120 0
v -88 -120 0
v -88 -112 0
v -80 -112 0
v -88 -120 0
v -96 -120 0
v -96 -112 0
v -88 -112 0
v -96 -120 0
v -104 -120 0
v -104 -112 0
v -96 -112 0
v -104 -120 0
v -112 -120 0
v -112 -112 0
v -104 -112 0
v 0 -128 0
v -8 -128 0
v -8 -120 0
v 0 -120 0
v -8 -128 0
v -16 -128 0
v -16 -120 0
v -8 -120 0
v -16 -128 0
v -24 -128 0
v -24 -120 0
v -16 -120 0
v -24 -128 0
v -32 -128 0
v -32 -120 0
v -24 -120 0
v -32 -128 0
v -40 -128 0
v -40 -120 0
v -32 -120 0
v -40 -128 0
v -48 -128 0
v -48 -120 0
v -40 -120 0
v -48 -128 0
v -56 -128 0
v -56 -120 0
v -48 -120 0
v -56 -128 0
v -64 -128 0
v -64 -120 0
v -56 -120 0
v -64 -128 0
v -72 -128 0
v -72 -120 0
v -64 -120 0
v -72 -128 0
v -80 -128 0
v -80 -120 0
v -72 -120 0
v -80 -128 0
v -88 -128 0
v -88 -120 0
v -80 -120 0
v -88 -128 0
v -96 -128 0
v -96 -120 0
v -88 -120 0
v -96 -128 0
v -104 -128 0
v -104 -120 0
v -96 -120 0
v -104 -128 0
v -112 -128 0
v -112 -120 0
v -104 -120 0

# Texture cooridinates (Count = 72)
vt 0.2794118 0.9285714
vt 0.2941177 0.9285714
vt 0.2941177 0.9387755
vt 0.2794118 0.9387755
vt 0.3088235 0.9285714
vt 0.3088235 0.9387755
vt 0.3235294 0.9285714
vt 0.3235294 0.9387755
vt 0.3382353 0.9285714
vt 0.3382353 0.9387755
vt 0.3529412 0.9285714
vt 0.3529412 0.9387755
vt 0.3676471 0.9285714
vt 0.3676471 0.9387755
vt 0.3823529 0.9285714
vt 0.3823529 0.9387755
vt 0.3970588 0.9285714
vt 0.3970588 0.9387755
vt 0.4117647 0.9285714
vt 0.4117647 0.9387755
vt 0.4264706 0.9285714
vt 0.4264706 0.9387755
vt 0.4411765 0.9285714
vt 0.4411765 0.9387755
vt 0.4558823 0.9285714
vt 0.4558823 0.9387755
vt 0.4705882 0.9285714
vt 0.4705882 0.9387755
vt 0.6617647 0.9285714
vt 0.6764706 0.9285714
vt 0.6764706 0.9387755
vt 0.6617647 0.9387755
vt 0.4411765 0.8979592
vt 0.4558823 0.8979592
vt 0.4558823 0.9081632
vt 0.4411765 0.9081632
vt 0.4411765 0.8877551
vt 0.4558823 0.8877551
vt 0.4264706 0.8979592
vt 0.4264706 0.9081632
vt 0.4264706 0.8877551
vt 0.3676471 0.9081632
vt 0.3823529 0.9081632
vt 0.3823529 0.9183673
vt 0.3676471 0.9183673
vt 0.3970588 0.9081632
vt 0.3970588 0.9183673
vt 0.4117647 0.9081632
vt 0.4117647 0.9183673
vt 0.3676471 0.8979592
vt 0.3823529 0.8979592
vt 0.3970588 0.8979592
vt 0.4117647 0.8979592
vt 0.5735294 0.9081632
vt 0.5882353 0.9081632
vt 0.5882353 0.9183673
vt 0.5735294 0.9183673
vt 0.3823529 0.8877551
vt 0.3970588 0.8877551
vt 0.4117647 0.8877551
vt 0.3676471 0.755102
vt 0.3676471 0.744898
vt 0.3823529 0.744898
vt 0.3823529 0.755102
vt 0.3676471 0.7346939
vt 0.3823529 0.7346939
vt 0.3823529 0.877551
vt 0.3970588 0.877551
vt 0.4117647 0.877551
vt 0.3529412 0.755102
vt 0.3529412 0.744898
vt 0.3529412 0.7346939

# Normal
vn 0 0 -1

# Mesh description
g RoomD_mesh_0023

# Faces
f 1/1/1 2/2/1 3/3/1 4/4/1
f 5/2/1 6/5/1 7/6/1 8/3/1
f 9/5/1 10/7/1 11/8/1 12/6/1
f 13/7/1 14/9/1 15/10/1 16/8/1
f 17/9/1 18/11/1 19/12/1 20/10/1
f 21/11/1 22/13/1 23/14/1 24/12/1
f 25/13/1 26/15/1 27/16/1 28/14/1
f 29/15/1 30/17/1 31/18/1 32/16/1
f 33/17/1 34/19/1 35/20/1 36/18/1
f 37/19/1 38/21/1 39/22/1 40/20/1
f 41/21/1 42/23/1 43/24/1 44/22/1
f 45/23/1 46/25/1 47/26/1 48/24/1
f 49/25/1 50/27/1 51/28/1 52/26/1
f 53/29/1 54/30/1 55/31/1 56/32/1
f 57/33/1 58/34/1 59/35/1 60/36/1
f 61/33/1 62/34/1 63/35/1 64/36/1
f 65/33/1 66/34/1 67/35/1 68/36/1
f 69/33/1 70/34/1 71/35/1 72/36/1
f 73/37/1 74/38/1 75/34/1 76/33/1
f 77/39/1 78/33/1 79/36/1 80/40/1
f 81/33/1 82/34/1 83/35/1 84/36/1
f 85/41/1 86/37/1 87/33/1 88/39/1
f 89/37/1 90/38/1 91/34/1 92/33/1
f 93/39/1 94/33/1 95/36/1 96/40/1
f 97/33/1 98/34/1 99/35/1 100/36/1
f 101/37/1 102/38/1 103/34/1 104/33/1
f 105/33/1 106/34/1 107/35/1 108/36/1
f 109/39/1 110/33/1 111/36/1 112/40/1
f 113/39/1 114/33/1 115/36/1 116/40/1
f 117/39/1 118/33/1 119/36/1 120/40/1
f 121/39/1 122/33/1 123/36/1 124/40/1
f 125/39/1 126/33/1 127/36/1 128/40/1
f 129/39/1 130/33/1 131/36/1 132/40/1
f 133/39/1 134/33/1 135/36/1 136/40/1
f 137/39/1 138/33/1 139/36/1 140/40/1
f 141/39/1 142/33/1 143/36/1 144/40/1
f 145/33/1 146/34/1 147/35/1 148/36/1
f 149/39/1 150/33/1 151/36/1 152/40/1
f 153/33/1 154/34/1 155/35/1 156/36/1
f 157/37/1 158/38/1 159/34/1 160/33/1
f 161/33/1 162/34/1 163/35/1 164/36/1
f 165/39/1 166/33/1 167/36/1 168/40/1
f 169/41/1 170/37/1 171/33/1 172/39/1
f 173/41/1 174/37/1 175/33/1 176/39/1
f 177/39/1 178/33/1 179/36/1 180/40/1
f 181/33/1 182/34/1 183/35/1 184/36/1
f 185/33/1 186/34/1 187/35/1 188/36/1
f 189/33/1 190/34/1 191/35/1 192/36/1
f 193/33/1 194/34/1 195/35/1 196/36/1
f 197/33/1 198/34/1 199/35/1 200/36/1
f 201/33/1 202/34/1 203/35/1 204/36/1
f 205/39/1 206/33/1 207/36/1 208/40/1
f 209/33/1 210/34/1 211/35/1 212/36/1
f 213/37/1 214/38/1 215/34/1 216/33/1
f 217/33/1 218/34/1 219/35/1 220/36/1
f 221/39/1 222/33/1 223/36/1 224/40/1
f 225/33/1 226/34/1 227/35/1 228/36/1
f 229/33/1 230/34/1 231/35/1 232/36/1
f 233/33/1 234/34/1 235/35/1 236/36/1
f 237/33/1 238/34/1 239/35/1 240/36/1
f 241/37/1 242/38/1 243/34/1 244/33/1
f 245/37/1 246/38/1 247/34/1 248/33/1
f 249/37/1 250/38/1 251/34/1 252/33/1
f 253/37/1 254/38/1 255/34/1 256/33/1
f 257/39/1 258/33/1 259/36/1 260/40/1
f 261/39/1 262/33/1 263/36/1 264/40/1
f 265/33/1 266/34/1 267/35/1 268/36/1
f 269/37/1 270/38/1 271/34/1 272/33/1
f 273/33/1 274/34/1 275/35/1 276/36/1
f 277/39/1 278/33/1 279/36/1 280/40/1
f 281/39/1 282/33/1 283/36/1 284/40/1
f 285/39/1 286/33/1 287/36/1 288/40/1
f 289/39/1 290/33/1 291/36/1 292/40/1
f 293/39/1 294/33/1 295/36/1 296/40/1
f 297/39/1 298/33/1 299/36/1 300/40/1
f 301/33/1 302/34/1 303/35/1 304/36/1
f 305/33/1 306/34/1 307/35/1 308/36/1
f 309/39/1 310/33/1 311/36/1 312/40/1
f 313/33/1 314/34/1 315/35/1 316/36/1
f 317/39/1 318/33/1 319/36/1 320/40/1
f 321/33/1 322/34/1 323/35/1 324/36/1
f 325/37/1 326/38/1 327/34/1 328/33/1
f 329/33/1 330/34/1 331/35/1 332/36/1
f 333/39/1 334/33/1 335/36/1 336/40/1
f 337/42/1 338/43/1 339/44/1 340/45/1
f 341/43/1 342/46/1 343/47/1 344/44/1
f 345/46/1 346/48/1 347/49/1 348/47/1
f 349/33/1 350/34/1 351/35/1 352/36/1
f 353/33/1 354/34/1 355/35/1 356/36/1
f 357/37/1 358/38/1 359/34/1 360/33/1
f 361/37/1 362/38/1 363/34/1 364/33/1
f 365/39/1 366/33/1 367/36/1 368/40/1
f 369/33/1 370/34/1 371/35/1 372/36/1
f 373/39/1 374/33/1 375/36/1 376/40/1
f 377/33/1 378/34/1 379/35/1 380/36/1
f 381/37/1 382/38/1 383/34/1 384/33/1
f 385/33/1 386/34/1 387/35/1 388/36/1
f 389/39/1 390/33/1 391/36/1 392/40/1
f 393/50/1 394/51/1 395/43/1 396/42/1
f 397/51/1 398/52/1 399/46/1 400/43/1
f 401/52/1 402/53/1 403/48/1 404/46/1
f 405/39/1 406/33/1 407/36/1 408/40/1
f 409/33/1 410/34/1 411/35/1 412/36/1
f 413/33/1 414/34/1 415/35/1 416/36/1
f 417/39/1 418/33/1 419/36/1 420/40/1
f 421/39/1 422/33/1 423/36/1 424/40/1
f 425/33/1 426/34/1 427/35/1 428/36/1
f 429/39/1 430/33/1 431/36/1 432/40/1
f 433/33/1 434/34/1 435/35/1 436/36/1
f 437/41/1 438/37/1 439/33/1 440/39/1
f 441/37/1 442/38/1 443/34/1 444/33/1
f 445/33/1 446/34/1 447/35/1 448/36/1
f 449/54/1 450/55/1 451/56/1 452/57/1
f 453/58/1 454/59/1 455/52/1 456/51/1
f 457/59/1 458/60/1 459/53/1 460/52/1
f 461/39/1 462/33/1 463/36/1 464/40/1
f 465/33/1 466/34/1 467/35/1 468/36/1
f 469/61/1 470/62/1 471/63/1 472/64/1
f 473/62/1 474/65/1 475/66/1 476/63/1
f 477/39/1 478/33/1 479/36/1 480/40/1
f 481/33/1 482/34/1 483/35/1 484/36/1
f 485/33/1 486/34/1 487/35/1 488/36/1
f 489/33/1 490/34/1 491/35/1 492/36/1
f 493/41/1 494/37/1 495/33/1 496/39/1
f 497/37/1 498/38/1 499/34/1 500/33/1
f 501/37/1 502/38/1 503/34/1 504/33/1
f 505/54/1 506/55/1 507/56/1 508/57/1
f 509/67/1 510/68/1 511/59/1 512/58/1
f 513/68/1 514/69/1 515/60/1 516/59/1
f 517/39/1 518/33/1 519/36/1 520/40/1
f 521/33/1 522/34/1 523/35/1 524/36/1
f 525/70/1 526/71/1 527/62/1 528/61/1
f 529/71/1 530/72/1 531/65/1 532/62/1
f 533/39/1 534/33/1 535/36/1 536/40/1
f 537/33/1 538/34/1 539/35/1 540/36/1
f 541/37/1 542/38/1 543/34/1 544/33/1
f 545/33/1 546/34/1 547/35/1 548/36/1
f 549/33/1 550/34/1 551/35/1 552/36/1
f 553/33/1 554/34/1 555/35/1 556/36/1
f 557/37/1 558/38/1 559/34/1 560/33/1

