# Tiled2Unity generated file. Do not modify by hand.
# Wavefront file for 'RoomD_mesh_0030.obj'

# Vertices (Count = 1008)
v 0 -8 0
v -8 -8 0
v -8 0 0
v 0 0 0
v -8 -8 0
v -16 -8 0
v -16 0 0
v -8 0 0
v -16 -8 0
v -24 -8 0
v -24 0 0
v -16 0 0
v -24 -8 0
v -32 -8 0
v -32 0 0
v -24 0 0
v -32 -8 0
v -40 -8 0
v -40 0 0
v -32 0 0
v -40 -8 0
v -48 -8 0
v -48 0 0
v -40 0 0
v -48 -8 0
v -56 -8 0
v -56 0 0
v -48 0 0
v -56 -8 0
v -64 -8 0
v -64 0 0
v -56 0 0
v -64 -8 0
v -72 -8 0
v -72 0 0
v -64 0 0
v -72 -8 0
v -80 -8 0
v -80 0 0
v -72 0 0
v -80 -8 0
v -88 -8 0
v -88 0 0
v -80 0 0
v -88 -8 0
v -96 -8 0
v -96 0 0
v -88 0 0
v -96 -8 0
v -104 -8 0
v -104 0 0
v -96 0 0
v -104 -8 0
v -112 -8 0
v -112 0 0
v -104 0 0
v 0 -16 0
v -8 -16 0
v -8 -8 0
v 0 -8 0
v -8 -16 0
v -16 -16 0
v -16 -8 0
v -8 -8 0
v -16 -16 0
v -24 -16 0
v -24 -8 0
v -16 -8 0
v -24 -16 0
v -32 -16 0
v -32 -8 0
v -24 -8 0
v -32 -16 0
v -40 -16 0
v -40 -8 0
v -32 -8 0
v -40 -16 0
v -48 -16 0
v -48 -8 0
v -40 -8 0
v -48 -16 0
v -56 -16 0
v -56 -8 0
v -48 -8 0
v -56 -16 0
v -64 -16 0
v -64 -8 0
v -56 -8 0
v -64 -16 0
v -72 -16 0
v -72 -8 0
v -64 -8 0
v -72 -16 0
v -80 -16 0
v -80 -8 0
v -72 -8 0
v -80 -16 0
v -88 -16 0
v -88 -8 0
v -80 -8 0
v -88 -16 0
v -96 -16 0
v -96 -8 0
v -88 -8 0
v -96 -16 0
v -104 -16 0
v -104 -8 0
v -96 -8 0
v -104 -16 0
v -112 -16 0
v -112 -8 0
v -104 -8 0
v 0 -24 0
v -8 -24 0
v -8 -16 0
v 0 -16 0
v -8 -24 0
v -16 -24 0
v -16 -16 0
v -8 -16 0
v -16 -24 0
v -24 -24 0
v -24 -16 0
v -16 -16 0
v -24 -24 0
v -32 -24 0
v -32 -16 0
v -24 -16 0
v -32 -24 0
v -40 -24 0
v -40 -16 0
v -32 -16 0
v -40 -24 0
v -48 -24 0
v -48 -16 0
v -40 -16 0
v -48 -24 0
v -56 -24 0
v -56 -16 0
v -48 -16 0
v -56 -24 0
v -64 -24 0
v -64 -16 0
v -56 -16 0
v -64 -24 0
v -72 -24 0
v -72 -16 0
v -64 -16 0
v -72 -24 0
v -80 -24 0
v -80 -16 0
v -72 -16 0
v -80 -24 0
v -88 -24 0
v -88 -16 0
v -80 -16 0
v -88 -24 0
v -96 -24 0
v -96 -16 0
v -88 -16 0
v -96 -24 0
v -104 -24 0
v -104 -16 0
v -96 -16 0
v -104 -24 0
v -112 -24 0
v -112 -16 0
v -104 -16 0
v -112 -24 0
v -120 -24 0
v -120 -16 0
v -112 -16 0
v -120 -24 0
v -128 -24 0
v -128 -16 0
v -120 -16 0
v 0 -32 0
v -8 -32 0
v -8 -24 0
v 0 -24 0
v -8 -32 0
v -16 -32 0
v -16 -24 0
v -8 -24 0
v -16 -32 0
v -24 -32 0
v -24 -24 0
v -16 -24 0
v -24 -32 0
v -32 -32 0
v -32 -24 0
v -24 -24 0
v -32 -32 0
v -40 -32 0
v -40 -24 0
v -32 -24 0
v -40 -32 0
v -48 -32 0
v -48 -24 0
v -40 -24 0
v -48 -32 0
v -56 -32 0
v -56 -24 0
v -48 -24 0
v -56 -32 0
v -64 -32 0
v -64 -24 0
v -56 -24 0
v -64 -32 0
v -72 -32 0
v -72 -24 0
v -64 -24 0
v -72 -32 0
v -80 -32 0
v -80 -24 0
v -72 -24 0
v -80 -32 0
v -88 -32 0
v -88 -24 0
v -80 -24 0
v -88 -32 0
v -96 -32 0
v -96 -24 0
v -88 -24 0
v -96 -32 0
v -104 -32 0
v -104 -24 0
v -96 -24 0
v -104 -32 0
v -112 -32 0
v -112 -24 0
v -104 -24 0
v -112 -32 0
v -120 -32 0
v -120 -24 0
v -112 -24 0
v -120 -32 0
v -128 -32 0
v -128 -24 0
v -120 -24 0
v 0 -40 0
v -8 -40 0
v -8 -32 0
v 0 -32 0
v -8 -40 0
v -16 -40 0
v -16 -32 0
v -8 -32 0
v -16 -40 0
v -24 -40 0
v -24 -32 0
v -16 -32 0
v -24 -40 0
v -32 -40 0
v -32 -32 0
v -24 -32 0
v -32 -40 0
v -40 -40 0
v -40 -32 0
v -32 -32 0
v -40 -40 0
v -48 -40 0
v -48 -32 0
v -40 -32 0
v -48 -40 0
v -56 -40 0
v -56 -32 0
v -48 -32 0
v -56 -40 0
v -64 -40 0
v -64 -32 0
v -56 -32 0
v -64 -40 0
v -72 -40 0
v -72 -32 0
v -64 -32 0
v -72 -40 0
v -80 -40 0
v -80 -32 0
v -72 -32 0
v -80 -40 0
v -88 -40 0
v -88 -32 0
v -80 -32 0
v -88 -40 0
v -96 -40 0
v -96 -32 0
v -88 -32 0
v -96 -40 0
v -104 -40 0
v -104 -32 0
v -96 -32 0
v -104 -40 0
v -112 -40 0
v -112 -32 0
v -104 -32 0
v -112 -40 0
v -120 -40 0
v -120 -32 0
v -112 -32 0
v -120 -40 0
v -128 -40 0
v -128 -32 0
v -120 -32 0
v 0 -48 0
v -8 -48 0
v -8 -40 0
v 0 -40 0
v -8 -48 0
v -16 -48 0
v -16 -40 0
v -8 -40 0
v -16 -48 0
v -24 -48 0
v -24 -40 0
v -16 -40 0
v -24 -48 0
v -32 -48 0
v -32 -40 0
v -24 -40 0
v -32 -48 0
v -40 -48 0
v -40 -40 0
v -32 -40 0
v -40 -48 0
v -48 -48 0
v -48 -40 0
v -40 -40 0
v -48 -48 0
v -56 -48 0
v -56 -40 0
v -48 -40 0
v -56 -48 0
v -64 -48 0
v -64 -40 0
v -56 -40 0
v -64 -48 0
v -72 -48 0
v -72 -40 0
v -64 -40 0
v -72 -48 0
v -80 -48 0
v -80 -40 0
v -72 -40 0
v -80 -48 0
v -88 -48 0
v -88 -40 0
v -80 -40 0
v -88 -48 0
v -96 -48 0
v -96 -40 0
v -88 -40 0
v -96 -48 0
v -104 -48 0
v -104 -40 0
v -96 -40 0
v -104 -48 0
v -112 -48 0
v -112 -40 0
v -104 -40 0
v -112 -48 0
v -120 -48 0
v -120 -40 0
v -112 -40 0
v -120 -48 0
v -128 -48 0
v -128 -40 0
v -120 -40 0
v 0 -56 0
v -8 -56 0
v -8 -48 0
v 0 -48 0
v -8 -56 0
v -16 -56 0
v -16 -48 0
v -8 -48 0
v -16 -56 0
v -24 -56 0
v -24 -48 0
v -16 -48 0
v -24 -56 0
v -32 -56 0
v -32 -48 0
v -24 -48 0
v -32 -56 0
v -40 -56 0
v -40 -48 0
v -32 -48 0
v -40 -56 0
v -48 -56 0
v -48 -48 0
v -40 -48 0
v -48 -56 0
v -56 -56 0
v -56 -48 0
v -48 -48 0
v -56 -56 0
v -64 -56 0
v -64 -48 0
v -56 -48 0
v -64 -56 0
v -72 -56 0
v -72 -48 0
v -64 -48 0
v -72 -56 0
v -80 -56 0
v -80 -48 0
v -72 -48 0
v -80 -56 0
v -88 -56 0
v -88 -48 0
v -80 -48 0
v -88 -56 0
v -96 -56 0
v -96 -48 0
v -88 -48 0
v -96 -56 0
v -104 -56 0
v -104 -48 0
v -96 -48 0
v -104 -56 0
v -112 -56 0
v -112 -48 0
v -104 -48 0
v -112 -56 0
v -120 -56 0
v -120 -48 0
v -112 -48 0
v -120 -56 0
v -128 -56 0
v -128 -48 0
v -120 -48 0
v 0 -64 0
v -8 -64 0
v -8 -56 0
v 0 -56 0
v -8 -64 0
v -16 -64 0
v -16 -56 0
v -8 -56 0
v -16 -64 0
v -24 -64 0
v -24 -56 0
v -16 -56 0
v -24 -64 0
v -32 -64 0
v -32 -56 0
v -24 -56 0
v -32 -64 0
v -40 -64 0
v -40 -56 0
v -32 -56 0
v -40 -64 0
v -48 -64 0
v -48 -56 0
v -40 -56 0
v -48 -64 0
v -56 -64 0
v -56 -56 0
v -48 -56 0
v -56 -64 0
v -64 -64 0
v -64 -56 0
v -56 -56 0
v -64 -64 0
v -72 -64 0
v -72 -56 0
v -64 -56 0
v -72 -64 0
v -80 -64 0
v -80 -56 0
v -72 -56 0
v -80 -64 0
v -88 -64 0
v -88 -56 0
v -80 -56 0
v -88 -64 0
v -96 -64 0
v -96 -56 0
v -88 -56 0
v -96 -64 0
v -104 -64 0
v -104 -56 0
v -96 -56 0
v -104 -64 0
v -112 -64 0
v -112 -56 0
v -104 -56 0
v -112 -64 0
v -120 -64 0
v -120 -56 0
v -112 -56 0
v -120 -64 0
v -128 -64 0
v -128 -56 0
v -120 -56 0
v 0 -72 0
v -8 -72 0
v -8 -64 0
v 0 -64 0
v -8 -72 0
v -16 -72 0
v -16 -64 0
v -8 -64 0
v -16 -72 0
v -24 -72 0
v -24 -64 0
v -16 -64 0
v -24 -72 0
v -32 -72 0
v -32 -64 0
v -24 -64 0
v -32 -72 0
v -40 -72 0
v -40 -64 0
v -32 -64 0
v -40 -72 0
v -48 -72 0
v -48 -64 0
v -40 -64 0
v -48 -72 0
v -56 -72 0
v -56 -64 0
v -48 -64 0
v -56 -72 0
v -64 -72 0
v -64 -64 0
v -56 -64 0
v -64 -72 0
v -72 -72 0
v -72 -64 0
v -64 -64 0
v -72 -72 0
v -80 -72 0
v -80 -64 0
v -72 -64 0
v -80 -72 0
v -88 -72 0
v -88 -64 0
v -80 -64 0
v -88 -72 0
v -96 -72 0
v -96 -64 0
v -88 -64 0
v -96 -72 0
v -104 -72 0
v -104 -64 0
v -96 -64 0
v -104 -72 0
v -112 -72 0
v -112 -64 0
v -104 -64 0
v -112 -72 0
v -120 -72 0
v -120 -64 0
v -112 -64 0
v -120 -72 0
v -128 -72 0
v -128 -64 0
v -120 -64 0
v 0 -80 0
v -8 -80 0
v -8 -72 0
v 0 -72 0
v -8 -80 0
v -16 -80 0
v -16 -72 0
v -8 -72 0
v -16 -80 0
v -24 -80 0
v -24 -72 0
v -16 -72 0
v -24 -80 0
v -32 -80 0
v -32 -72 0
v -24 -72 0
v -32 -80 0
v -40 -80 0
v -40 -72 0
v -32 -72 0
v -40 -80 0
v -48 -80 0
v -48 -72 0
v -40 -72 0
v -48 -80 0
v -56 -80 0
v -56 -72 0
v -48 -72 0
v -56 -80 0
v -64 -80 0
v -64 -72 0
v -56 -72 0
v -64 -80 0
v -72 -80 0
v -72 -72 0
v -64 -72 0
v -72 -80 0
v -80 -80 0
v -80 -72 0
v -72 -72 0
v -80 -80 0
v -88 -80 0
v -88 -72 0
v -80 -72 0
v -88 -80 0
v -96 -80 0
v -96 -72 0
v -88 -72 0
v -96 -80 0
v -104 -80 0
v -104 -72 0
v -96 -72 0
v -104 -80 0
v -112 -80 0
v -112 -72 0
v -104 -72 0
v -112 -80 0
v -120 -80 0
v -120 -72 0
v -112 -72 0
v -120 -80 0
v -128 -80 0
v -128 -72 0
v -120 -72 0
v 0 -88 0
v -8 -88 0
v -8 -80 0
v 0 -80 0
v -8 -88 0
v -16 -88 0
v -16 -80 0
v -8 -80 0
v -16 -88 0
v -24 -88 0
v -24 -80 0
v -16 -80 0
v -24 -88 0
v -32 -88 0
v -32 -80 0
v -24 -80 0
v -32 -88 0
v -40 -88 0
v -40 -80 0
v -32 -80 0
v -40 -88 0
v -48 -88 0
v -48 -80 0
v -40 -80 0
v -48 -88 0
v -56 -88 0
v -56 -80 0
v -48 -80 0
v -56 -88 0
v -64 -88 0
v -64 -80 0
v -56 -80 0
v -64 -88 0
v -72 -88 0
v -72 -80 0
v -64 -80 0
v -72 -88 0
v -80 -88 0
v -80 -80 0
v -72 -80 0
v -80 -88 0
v -88 -88 0
v -88 -80 0
v -80 -80 0
v -88 -88 0
v -96 -88 0
v -96 -80 0
v -88 -80 0
v -96 -88 0
v -104 -88 0
v -104 -80 0
v -96 -80 0
v -104 -88 0
v -112 -88 0
v -112 -80 0
v -104 -80 0
v -112 -88 0
v -120 -88 0
v -120 -80 0
v -112 -80 0
v -120 -88 0
v -128 -88 0
v -128 -80 0
v -120 -80 0
v 0 -96 0
v -8 -96 0
v -8 -88 0
v 0 -88 0
v -8 -96 0
v -16 -96 0
v -16 -88 0
v -8 -88 0
v -16 -96 0
v -24 -96 0
v -24 -88 0
v -16 -88 0
v -24 -96 0
v -32 -96 0
v -32 -88 0
v -24 -88 0
v -32 -96 0
v -40 -96 0
v -40 -88 0
v -32 -88 0
v -40 -96 0
v -48 -96 0
v -48 -88 0
v -40 -88 0
v -48 -96 0
v -56 -96 0
v -56 -88 0
v -48 -88 0
v -56 -96 0
v -64 -96 0
v -64 -88 0
v -56 -88 0
v -64 -96 0
v -72 -96 0
v -72 -88 0
v -64 -88 0
v -72 -96 0
v -80 -96 0
v -80 -88 0
v -72 -88 0
v -80 -96 0
v -88 -96 0
v -88 -88 0
v -80 -88 0
v -88 -96 0
v -96 -96 0
v -96 -88 0
v -88 -88 0
v -96 -96 0
v -104 -96 0
v -104 -88 0
v -96 -88 0
v -104 -96 0
v -112 -96 0
v -112 -88 0
v -104 -88 0
v -112 -96 0
v -120 -96 0
v -120 -88 0
v -112 -88 0
v -120 -96 0
v -128 -96 0
v -128 -88 0
v -120 -88 0
v 0 -104 0
v -8 -104 0
v -8 -96 0
v 0 -96 0
v -8 -104 0
v -16 -104 0
v -16 -96 0
v -8 -96 0
v -16 -104 0
v -24 -104 0
v -24 -96 0
v -16 -96 0
v -24 -104 0
v -32 -104 0
v -32 -96 0
v -24 -96 0
v -32 -104 0
v -40 -104 0
v -40 -96 0
v -32 -96 0
v -40 -104 0
v -48 -104 0
v -48 -96 0
v -40 -96 0
v -48 -104 0
v -56 -104 0
v -56 -96 0
v -48 -96 0
v -56 -104 0
v -64 -104 0
v -64 -96 0
v -56 -96 0
v -64 -104 0
v -72 -104 0
v -72 -96 0
v -64 -96 0
v -72 -104 0
v -80 -104 0
v -80 -96 0
v -72 -96 0
v -80 -104 0
v -88 -104 0
v -88 -96 0
v -80 -96 0
v -88 -104 0
v -96 -104 0
v -96 -96 0
v -88 -96 0
v -96 -104 0
v -104 -104 0
v -104 -96 0
v -96 -96 0
v -104 -104 0
v -112 -104 0
v -112 -96 0
v -104 -96 0
v -112 -104 0
v -120 -104 0
v -120 -96 0
v -112 -96 0
v -120 -104 0
v -128 -104 0
v -128 -96 0
v -120 -96 0
v 0 -112 0
v -8 -112 0
v -8 -104 0
v 0 -104 0
v -8 -112 0
v -16 -112 0
v -16 -104 0
v -8 -104 0
v -16 -112 0
v -24 -112 0
v -24 -104 0
v -16 -104 0
v -24 -112 0
v -32 -112 0
v -32 -104 0
v -24 -104 0
v -32 -112 0
v -40 -112 0
v -40 -104 0
v -32 -104 0
v -40 -112 0
v -48 -112 0
v -48 -104 0
v -40 -104 0
v -48 -112 0
v -56 -112 0
v -56 -104 0
v -48 -104 0
v -56 -112 0
v -64 -112 0
v -64 -104 0
v -56 -104 0
v -64 -112 0
v -72 -112 0
v -72 -104 0
v -64 -104 0
v -72 -112 0
v -80 -112 0
v -80 -104 0
v -72 -104 0
v -80 -112 0
v -88 -112 0
v -88 -104 0
v -80 -104 0
v -88 -112 0
v -96 -112 0
v -96 -104 0
v -88 -104 0
v -96 -112 0
v -104 -112 0
v -104 -104 0
v -96 -104 0
v -104 -112 0
v -112 -112 0
v -112 -104 0
v -104 -104 0
v -112 -112 0
v -120 -112 0
v -120 -104 0
v -112 -104 0
v -120 -112 0
v -128 -112 0
v -128 -104 0
v -120 -104 0
v 0 -120 0
v -8 -120 0
v -8 -112 0
v 0 -112 0
v -8 -120 0
v -16 -120 0
v -16 -112 0
v -8 -112 0
v -16 -120 0
v -24 -120 0
v -24 -112 0
v -16 -112 0
v -24 -120 0
v -32 -120 0
v -32 -112 0
v -24 -112 0
v -32 -120 0
v -40 -120 0
v -40 -112 0
v -32 -112 0
v -40 -120 0
v -48 -120 0
v -48 -112 0
v -40 -112 0
v -48 -120 0
v -56 -120 0
v -56 -112 0
v -48 -112 0
v -56 -120 0
v -64 -120 0
v -64 -112 0
v -56 -112 0
v -64 -120 0
v -72 -120 0
v -72 -112 0
v -64 -112 0
v -72 -120 0
v -80 -120 0
v -80 -112 0
v -72 -112 0
v -80 -120 0
v -88 -120 0
v -88 -112 0
v -80 -112 0
v -88 -120 0
v -96 -120 0
v -96 -112 0
v -88 -112 0
v -96 -120 0
v -104 -120 0
v -104 -112 0
v -96 -112 0
v -104 -120 0
v -112 -120 0
v -112 -112 0
v -104 -112 0
v -112 -120 0
v -120 -120 0
v -120 -112 0
v -112 -112 0
v -120 -120 0
v -128 -120 0
v -128 -112 0
v -120 -112 0
v 0 -128 0
v -8 -128 0
v -8 -120 0
v 0 -120 0
v -8 -128 0
v -16 -128 0
v -16 -120 0
v -8 -120 0
v -16 -128 0
v -24 -128 0
v -24 -120 0
v -16 -120 0
v -24 -128 0
v -32 -128 0
v -32 -120 0
v -24 -120 0
v -32 -128 0
v -40 -128 0
v -40 -120 0
v -32 -120 0
v -40 -128 0
v -48 -128 0
v -48 -120 0
v -40 -120 0
v -48 -128 0
v -56 -128 0
v -56 -120 0
v -48 -120 0
v -56 -128 0
v -64 -128 0
v -64 -120 0
v -56 -120 0
v -64 -128 0
v -72 -128 0
v -72 -120 0
v -64 -120 0
v -72 -128 0
v -80 -128 0
v -80 -120 0
v -72 -120 0
v -80 -128 0
v -88 -128 0
v -88 -120 0
v -80 -120 0
v -88 -128 0
v -96 -128 0
v -96 -120 0
v -88 -120 0
v -96 -128 0
v -104 -128 0
v -104 -120 0
v -96 -120 0
v -104 -128 0
v -112 -128 0
v -112 -120 0
v -104 -120 0
v -112 -128 0
v -120 -128 0
v -120 -120 0
v -112 -120 0
v -120 -128 0
v -128 -128 0
v -128 -120 0
v -120 -120 0

# Texture cooridinates (Count = 43)
vt 0.4411765 0.8979592
vt 0.4558823 0.8979592
vt 0.4558823 0.9081632
vt 0.4411765 0.9081632
vt 0.4264706 0.8877551
vt 0.4411765 0.8877551
vt 0.4264706 0.8979592
vt 0.4558823 0.8877551
vt 0.4264706 0.9081632
vt 0.3970588 0.744898
vt 0.4117647 0.744898
vt 0.4117647 0.755102
vt 0.3970588 0.755102
vt 0.3382353 0.8061224
vt 0.3529412 0.8061224
vt 0.3529412 0.8163265
vt 0.3382353 0.8163265
vt 0.3676471 0.8061224
vt 0.3676471 0.8163265
vt 0.3382353 0.7959183
vt 0.3529412 0.7959183
vt 0.3676471 0.7959183
vt 0.2941177 0.8061224
vt 0.3088235 0.8061224
vt 0.3088235 0.8163265
vt 0.2941177 0.8163265
vt 0.3235294 0.8061224
vt 0.3235294 0.8163265
vt 0.3382353 0.7857143
vt 0.3529412 0.7857143
vt 0.3676471 0.7857143
vt 0.2941177 0.7959183
vt 0.3088235 0.7959183
vt 0.3235294 0.7959183
vt 0.2941177 0.7857143
vt 0.3088235 0.7857143
vt 0.3235294 0.7857143
vt 0.6176471 0.9081632
vt 0.6323529 0.9081632
vt 0.6323529 0.9183673
vt 0.6176471 0.9183673
vt 0.6470588 0.9081632
vt 0.6470588 0.9183673

# Normal
vn 0 0 -1

# Mesh description
g RoomD_mesh_0030

# Faces
f 1/1/1 2/2/1 3/3/1 4/4/1
f 5/1/1 6/2/1 7/3/1 8/4/1
f 9/1/1 10/2/1 11/3/1 12/4/1
f 13/1/1 14/2/1 15/3/1 16/4/1
f 17/1/1 18/2/1 19/3/1 20/4/1
f 21/5/1 22/6/1 23/1/1 24/7/1
f 25/6/1 26/8/1 27/2/1 28/1/1
f 29/6/1 30/8/1 31/2/1 32/1/1
f 33/7/1 34/1/1 35/4/1 36/9/1
f 37/5/1 38/6/1 39/1/1 40/7/1
f 41/6/1 42/8/1 43/2/1 44/1/1
f 45/5/1 46/6/1 47/1/1 48/7/1
f 49/6/1 50/8/1 51/2/1 52/1/1
f 53/1/1 54/2/1 55/3/1 56/4/1
f 57/6/1 58/8/1 59/2/1 60/1/1
f 61/6/1 62/8/1 63/2/1 64/1/1
f 65/6/1 66/8/1 67/2/1 68/1/1
f 69/6/1 70/8/1 71/2/1 72/1/1
f 73/6/1 74/8/1 75/2/1 76/1/1
f 77/6/1 78/8/1 79/2/1 80/1/1
f 81/1/1 82/2/1 83/3/1 84/4/1
f 85/6/1 86/8/1 87/2/1 88/1/1
f 89/5/1 90/6/1 91/1/1 92/7/1
f 93/6/1 94/8/1 95/2/1 96/1/1
f 97/5/1 98/6/1 99/1/1 100/7/1
f 101/6/1 102/8/1 103/2/1 104/1/1
f 105/1/1 106/2/1 107/3/1 108/4/1
f 109/1/1 110/2/1 111/3/1 112/4/1
f 113/7/1 114/1/1 115/4/1 116/9/1
f 117/7/1 118/1/1 119/4/1 120/9/1
f 121/1/1 122/2/1 123/3/1 124/4/1
f 125/5/1 126/6/1 127/1/1 128/7/1
f 129/6/1 130/8/1 131/2/1 132/1/1
f 133/6/1 134/8/1 135/2/1 136/1/1
f 137/6/1 138/8/1 139/2/1 140/1/1
f 141/5/1 142/6/1 143/1/1 144/7/1
f 145/5/1 146/6/1 147/1/1 148/7/1
f 149/6/1 150/8/1 151/2/1 152/1/1
f 153/5/1 154/6/1 155/1/1 156/7/1
f 157/6/1 158/8/1 159/2/1 160/1/1
f 161/1/1 162/2/1 163/3/1 164/4/1
f 165/6/1 166/8/1 167/2/1 168/1/1
f 169/10/1 170/11/1 171/12/1 172/13/1
f 173/10/1 174/11/1 175/12/1 176/13/1
f 177/5/1 178/6/1 179/1/1 180/7/1
f 181/5/1 182/6/1 183/1/1 184/7/1
f 185/7/1 186/1/1 187/4/1 188/9/1
f 189/1/1 190/2/1 191/3/1 192/4/1
f 193/1/1 194/2/1 195/3/1 196/4/1
f 197/1/1 198/2/1 199/3/1 200/4/1
f 201/6/1 202/8/1 203/2/1 204/1/1
f 205/5/1 206/6/1 207/1/1 208/7/1
f 209/6/1 210/8/1 211/2/1 212/1/1
f 213/5/1 214/6/1 215/1/1 216/7/1
f 217/6/1 218/8/1 219/2/1 220/1/1
f 221/1/1 222/2/1 223/3/1 224/4/1
f 225/6/1 226/8/1 227/2/1 228/1/1
f 229/7/1 230/1/1 231/4/1 232/9/1
f 233/5/1 234/6/1 235/1/1 236/7/1
f 237/6/1 238/8/1 239/2/1 240/1/1
f 241/14/1 242/15/1 243/16/1 244/17/1
f 245/15/1 246/18/1 247/19/1 248/16/1
f 249/1/1 250/2/1 251/3/1 252/4/1
f 253/1/1 254/2/1 255/3/1 256/4/1
f 257/6/1 258/8/1 259/2/1 260/1/1
f 261/6/1 262/8/1 263/2/1 264/1/1
f 265/5/1 266/6/1 267/1/1 268/7/1
f 269/6/1 270/8/1 271/2/1 272/1/1
f 273/7/1 274/1/1 275/4/1 276/9/1
f 277/5/1 278/6/1 279/1/1 280/7/1
f 281/6/1 282/8/1 283/2/1 284/1/1
f 285/6/1 286/8/1 287/2/1 288/1/1
f 289/7/1 290/1/1 291/4/1 292/9/1
f 293/5/1 294/6/1 295/1/1 296/7/1
f 297/5/1 298/6/1 299/1/1 300/7/1
f 301/6/1 302/8/1 303/2/1 304/1/1
f 305/20/1 306/21/1 307/15/1 308/14/1
f 309/21/1 310/22/1 311/18/1 312/15/1
f 313/23/1 314/24/1 315/25/1 316/26/1
f 317/24/1 318/27/1 319/28/1 320/25/1
f 321/27/1 322/14/1 323/17/1 324/28/1
f 325/14/1 326/15/1 327/16/1 328/17/1
f 329/15/1 330/18/1 331/19/1 332/16/1
f 333/7/1 334/1/1 335/4/1 336/9/1
f 337/5/1 338/6/1 339/1/1 340/7/1
f 341/5/1 342/6/1 343/1/1 344/7/1
f 345/6/1 346/8/1 347/2/1 348/1/1
f 349/7/1 350/1/1 351/4/1 352/9/1
f 353/5/1 354/6/1 355/1/1 356/7/1
f 357/7/1 358/1/1 359/4/1 360/9/1
f 361/1/1 362/2/1 363/3/1 364/4/1
f 365/5/1 366/6/1 367/1/1 368/7/1
f 369/29/1 370/30/1 371/21/1 372/20/1
f 373/30/1 374/31/1 375/22/1 376/21/1
f 377/32/1 378/33/1 379/24/1 380/23/1
f 381/33/1 382/34/1 383/27/1 384/24/1
f 385/34/1 386/20/1 387/14/1 388/27/1
f 389/20/1 390/21/1 391/15/1 392/14/1
f 393/21/1 394/22/1 395/18/1 396/15/1
f 397/1/1 398/2/1 399/3/1 400/4/1
f 401/5/1 402/6/1 403/1/1 404/7/1
f 405/6/1 406/8/1 407/2/1 408/1/1
f 409/6/1 410/8/1 411/2/1 412/1/1
f 413/5/1 414/6/1 415/1/1 416/7/1
f 417/7/1 418/1/1 419/4/1 420/9/1
f 421/7/1 422/1/1 423/4/1 424/9/1
f 425/7/1 426/1/1 427/4/1 428/9/1
f 429/5/1 430/6/1 431/1/1 432/7/1
f 433/27/1 434/14/1 435/17/1 436/28/1
f 437/14/1 438/15/1 439/16/1 440/17/1
f 441/35/1 442/36/1 443/33/1 444/32/1
f 445/36/1 446/37/1 447/34/1 448/33/1
f 449/37/1 450/29/1 451/20/1 452/34/1
f 453/29/1 454/30/1 455/21/1 456/20/1
f 457/30/1 458/31/1 459/22/1 460/21/1
f 461/7/1 462/1/1 463/4/1 464/9/1
f 465/7/1 466/1/1 467/4/1 468/9/1
f 469/5/1 470/6/1 471/1/1 472/7/1
f 473/5/1 474/6/1 475/1/1 476/7/1
f 477/6/1 478/8/1 479/2/1 480/1/1
f 481/7/1 482/1/1 483/4/1 484/9/1
f 485/5/1 486/6/1 487/1/1 488/7/1
f 489/5/1 490/6/1 491/1/1 492/7/1
f 493/6/1 494/8/1 495/2/1 496/1/1
f 497/34/1 498/20/1 499/14/1 500/27/1
f 501/20/1 502/21/1 503/15/1 504/14/1
f 505/21/1 506/22/1 507/18/1 508/15/1
f 509/1/1 510/2/1 511/3/1 512/4/1
f 513/5/1 514/6/1 515/1/1 516/7/1
f 517/7/1 518/1/1 519/4/1 520/9/1
f 521/1/1 522/2/1 523/3/1 524/4/1
f 525/1/1 526/2/1 527/3/1 528/4/1
f 529/1/1 530/2/1 531/3/1 532/4/1
f 533/6/1 534/8/1 535/2/1 536/1/1
f 537/1/1 538/2/1 539/3/1 540/4/1
f 541/6/1 542/8/1 543/2/1 544/1/1
f 545/5/1 546/6/1 547/1/1 548/7/1
f 549/5/1 550/6/1 551/1/1 552/7/1
f 553/6/1 554/8/1 555/2/1 556/1/1
f 557/6/1 558/8/1 559/2/1 560/1/1
f 561/37/1 562/29/1 563/20/1 564/34/1
f 565/29/1 566/30/1 567/21/1 568/20/1
f 569/30/1 570/31/1 571/22/1 572/21/1
f 573/7/1 574/1/1 575/4/1 576/9/1
f 577/1/1 578/2/1 579/3/1 580/4/1
f 581/1/1 582/2/1 583/3/1 584/4/1
f 585/1/1 586/2/1 587/3/1 588/4/1
f 589/6/1 590/8/1 591/2/1 592/1/1
f 593/6/1 594/8/1 595/2/1 596/1/1
f 597/6/1 598/8/1 599/2/1 600/1/1
f 601/6/1 602/8/1 603/2/1 604/1/1
f 605/6/1 606/8/1 607/2/1 608/1/1
f 609/1/1 610/2/1 611/3/1 612/4/1
f 613/6/1 614/8/1 615/2/1 616/1/1
f 617/6/1 618/8/1 619/2/1 620/1/1
f 621/1/1 622/2/1 623/3/1 624/4/1
f 625/15/1 626/18/1 627/19/1 628/16/1
f 629/23/1 630/24/1 631/25/1 632/26/1
f 633/24/1 634/27/1 635/28/1 636/25/1
f 637/27/1 638/14/1 639/17/1 640/28/1
f 641/14/1 642/15/1 643/16/1 644/17/1
f 645/15/1 646/18/1 647/19/1 648/16/1
f 649/6/1 650/8/1 651/2/1 652/1/1
f 653/6/1 654/8/1 655/2/1 656/1/1
f 657/5/1 658/6/1 659/1/1 660/7/1
f 661/6/1 662/8/1 663/2/1 664/1/1
f 665/1/1 666/2/1 667/3/1 668/4/1
f 669/6/1 670/8/1 671/2/1 672/1/1
f 673/6/1 674/8/1 675/2/1 676/1/1
f 677/6/1 678/8/1 679/2/1 680/1/1
f 681/1/1 682/2/1 683/3/1 684/4/1
f 685/6/1 686/8/1 687/2/1 688/1/1
f 689/21/1 690/22/1 691/18/1 692/15/1
f 693/32/1 694/33/1 695/24/1 696/23/1
f 697/33/1 698/34/1 699/27/1 700/24/1
f 701/34/1 702/20/1 703/14/1 704/27/1
f 705/20/1 706/21/1 707/15/1 708/14/1
f 709/21/1 710/22/1 711/18/1 712/15/1
f 713/6/1 714/8/1 715/2/1 716/1/1
f 717/5/1 718/6/1 719/1/1 720/7/1
f 721/6/1 722/8/1 723/2/1 724/1/1
f 725/6/1 726/8/1 727/2/1 728/1/1
f 729/6/1 730/8/1 731/2/1 732/1/1
f 733/6/1 734/8/1 735/2/1 736/1/1
f 737/1/1 738/2/1 739/3/1 740/4/1
f 741/6/1 742/8/1 743/2/1 744/1/1
f 745/6/1 746/8/1 747/2/1 748/1/1
f 749/6/1 750/8/1 751/2/1 752/1/1
f 753/37/1 754/29/1 755/20/1 756/34/1
f 757/35/1 758/36/1 759/33/1 760/32/1
f 761/36/1 762/37/1 763/34/1 764/33/1
f 765/37/1 766/29/1 767/20/1 768/34/1
f 769/29/1 770/30/1 771/21/1 772/20/1
f 773/30/1 774/31/1 775/22/1 776/21/1
f 777/5/1 778/6/1 779/1/1 780/7/1
f 781/6/1 782/8/1 783/2/1 784/1/1
f 785/6/1 786/8/1 787/2/1 788/1/1
f 789/5/1 790/6/1 791/1/1 792/7/1
f 793/6/1 794/8/1 795/2/1 796/1/1
f 797/6/1 798/8/1 799/2/1 800/1/1
f 801/6/1 802/8/1 803/2/1 804/1/1
f 805/5/1 806/6/1 807/1/1 808/7/1
f 809/6/1 810/8/1 811/2/1 812/1/1
f 813/6/1 814/8/1 815/2/1 816/1/1
f 817/7/1 818/1/1 819/4/1 820/9/1
f 821/5/1 822/6/1 823/1/1 824/7/1
f 825/5/1 826/6/1 827/1/1 828/7/1
f 829/6/1 830/8/1 831/2/1 832/1/1
f 833/5/1 834/6/1 835/1/1 836/7/1
f 837/5/1 838/6/1 839/1/1 840/7/1
f 841/6/1 842/8/1 843/2/1 844/1/1
f 845/5/1 846/6/1 847/1/1 848/7/1
f 849/5/1 850/6/1 851/1/1 852/7/1
f 853/6/1 854/8/1 855/2/1 856/1/1
f 857/6/1 858/8/1 859/2/1 860/1/1
f 861/5/1 862/6/1 863/1/1 864/7/1
f 865/5/1 866/6/1 867/1/1 868/7/1
f 869/6/1 870/8/1 871/2/1 872/1/1
f 873/6/1 874/8/1 875/2/1 876/1/1
f 877/5/1 878/6/1 879/1/1 880/7/1
f 881/5/1 882/6/1 883/1/1 884/7/1
f 885/6/1 886/8/1 887/2/1 888/1/1
f 889/1/1 890/2/1 891/3/1 892/4/1
f 893/1/1 894/2/1 895/3/1 896/4/1
f 897/1/1 898/2/1 899/3/1 900/4/1
f 901/1/1 902/2/1 903/3/1 904/4/1
f 905/5/1 906/6/1 907/1/1 908/7/1
f 909/5/1 910/6/1 911/1/1 912/7/1
f 913/6/1 914/8/1 915/2/1 916/1/1
f 917/5/1 918/6/1 919/1/1 920/7/1
f 921/5/1 922/6/1 923/1/1 924/7/1
f 925/6/1 926/8/1 927/2/1 928/1/1
f 929/6/1 930/8/1 931/2/1 932/1/1
f 933/5/1 934/6/1 935/1/1 936/7/1
f 937/5/1 938/6/1 939/1/1 940/7/1
f 941/6/1 942/8/1 943/2/1 944/1/1
f 945/6/1 946/8/1 947/2/1 948/1/1
f 949/1/1 950/2/1 951/3/1 952/4/1
f 953/1/1 954/2/1 955/3/1 956/4/1
f 957/6/1 958/8/1 959/2/1 960/1/1
f 961/6/1 962/8/1 963/2/1 964/1/1
f 965/6/1 966/8/1 967/2/1 968/1/1
f 969/6/1 970/8/1 971/2/1 972/1/1
f 973/6/1 974/8/1 975/2/1 976/1/1
f 977/6/1 978/8/1 979/2/1 980/1/1
f 981/38/1 982/39/1 983/40/1 984/41/1
f 985/39/1 986/42/1 987/43/1 988/40/1
f 989/7/1 990/1/1 991/4/1 992/9/1
f 993/5/1 994/6/1 995/1/1 996/7/1
f 997/6/1 998/8/1 999/2/1 1000/1/1
f 1001/6/1 1002/8/1 1003/2/1 1004/1/1
f 1005/6/1 1006/8/1 1007/2/1 1008/1/1

