# Tiled2Unity generated file. Do not modify by hand.
# Wavefront file for 'RoomD_mesh_0014.obj'

# Vertices (Count = 160)
v -48 -104 0
v -56 -104 0
v -56 -96 0
v -48 -96 0
v -56 -104 0
v -64 -104 0
v -64 -96 0
v -56 -96 0
v -64 -104 0
v -72 -104 0
v -72 -96 0
v -64 -96 0
v -72 -104 0
v -80 -104 0
v -80 -96 0
v -72 -96 0
v -80 -104 0
v -88 -104 0
v -88 -96 0
v -80 -96 0
v -88 -104 0
v -96 -104 0
v -96 -96 0
v -88 -96 0
v -96 -104 0
v -104 -104 0
v -104 -96 0
v -96 -96 0
v -104 -104 0
v -112 -104 0
v -112 -96 0
v -104 -96 0
v -112 -104 0
v -120 -104 0
v -120 -96 0
v -112 -96 0
v -120 -104 0
v -128 -104 0
v -128 -96 0
v -120 -96 0
v -48 -112 0
v -56 -112 0
v -56 -104 0
v -48 -104 0
v -56 -112 0
v -64 -112 0
v -64 -104 0
v -56 -104 0
v -64 -112 0
v -72 -112 0
v -72 -104 0
v -64 -104 0
v -72 -112 0
v -80 -112 0
v -80 -104 0
v -72 -104 0
v -80 -112 0
v -88 -112 0
v -88 -104 0
v -80 -104 0
v -88 -112 0
v -96 -112 0
v -96 -104 0
v -88 -104 0
v -96 -112 0
v -104 -112 0
v -104 -104 0
v -96 -104 0
v -104 -112 0
v -112 -112 0
v -112 -104 0
v -104 -104 0
v -112 -112 0
v -120 -112 0
v -120 -104 0
v -112 -104 0
v -120 -112 0
v -128 -112 0
v -128 -104 0
v -120 -104 0
v -48 -120 0
v -56 -120 0
v -56 -112 0
v -48 -112 0
v -56 -120 0
v -64 -120 0
v -64 -112 0
v -56 -112 0
v -64 -120 0
v -72 -120 0
v -72 -112 0
v -64 -112 0
v -72 -120 0
v -80 -120 0
v -80 -112 0
v -72 -112 0
v -80 -120 0
v -88 -120 0
v -88 -112 0
v -80 -112 0
v -88 -120 0
v -96 -120 0
v -96 -112 0
v -88 -112 0
v -96 -120 0
v -104 -120 0
v -104 -112 0
v -96 -112 0
v -104 -120 0
v -112 -120 0
v -112 -112 0
v -104 -112 0
v -112 -120 0
v -120 -120 0
v -120 -112 0
v -112 -112 0
v -120 -120 0
v -128 -120 0
v -128 -112 0
v -120 -112 0
v -48 -128 0
v -56 -128 0
v -56 -120 0
v -48 -120 0
v -56 -128 0
v -64 -128 0
v -64 -120 0
v -56 -120 0
v -64 -128 0
v -72 -128 0
v -72 -120 0
v -64 -120 0
v -72 -128 0
v -80 -128 0
v -80 -120 0
v -72 -120 0
v -80 -128 0
v -88 -128 0
v -88 -120 0
v -80 -120 0
v -88 -128 0
v -96 -128 0
v -96 -120 0
v -88 -120 0
v -96 -128 0
v -104 -128 0
v -104 -120 0
v -96 -120 0
v -104 -128 0
v -112 -128 0
v -112 -120 0
v -104 -120 0
v -112 -128 0
v -120 -128 0
v -120 -120 0
v -112 -120 0
v -120 -128 0
v -128 -128 0
v -128 -120 0
v -120 -120 0

# Texture cooridinates (Count = 74)
vt 0.2941177 0.6836735
vt 0.3088235 0.6836735
vt 0.3088235 0.6938776
vt 0.2941177 0.6938776
vt 0.3235294 0.6836735
vt 0.3235294 0.6938776
vt 0.3382353 0.6836735
vt 0.3382353 0.6938776
vt 0.4411765 0.7857143
vt 0.4558823 0.7857143
vt 0.4558823 0.7959183
vt 0.4411765 0.7959183
vt 0.3529412 0.6836735
vt 0.3676471 0.6836735
vt 0.3676471 0.6938776
vt 0.3529412 0.6938776
vt 0.2352941 0.6836735
vt 0.25 0.6836735
vt 0.25 0.6938776
vt 0.2352941 0.6938776
vt 0.4852941 0.7857143
vt 0.5 0.7857143
vt 0.5 0.7959183
vt 0.4852941 0.7959183
vt 0.6176471 0.7857143
vt 0.6323529 0.7857143
vt 0.6323529 0.7959183
vt 0.6176471 0.7959183
vt 0.2647059 0.6836735
vt 0.2794118 0.6836735
vt 0.2794118 0.6938776
vt 0.2647059 0.6938776
vt 0.2941177 0.6734694
vt 0.3088235 0.6734694
vt 0.3235294 0.6734694
vt 0.3382353 0.6734694
vt 0.3529412 0.6734694
vt 0.3676471 0.6734694
vt 0.2352941 0.6734694
vt 0.25 0.6734694
vt 0.4852941 0.7755102
vt 0.5 0.7755102
vt 0.4705882 0.7755102
vt 0.4705882 0.7857143
vt 0.2647059 0.6734694
vt 0.2794118 0.6734694
vt 0.2941177 0.6632653
vt 0.3088235 0.6632653
vt 0.3235294 0.6632653
vt 0.3382353 0.6632653
vt 0.8529412 0.8469388
vt 0.8676471 0.8469388
vt 0.8676471 0.8571429
vt 0.8529412 0.8571429
vt 0.3529412 0.6632653
vt 0.3676471 0.6632653
vt 0.2352941 0.6632653
vt 0.25 0.6632653
vt 0.2647059 0.6632653
vt 0.2794118 0.6632653
vt 0.2941177 0.6530612
vt 0.3088235 0.6530612
vt 0.3235294 0.6530612
vt 0.3382353 0.6530612
vt 0.3529412 0.6530612
vt 0.2352941 0.6530612
vt 0.25 0.6530612
vt 0.5294118 0.7653061
vt 0.5441176 0.7653061
vt 0.5441176 0.7755102
vt 0.5294118 0.7755102
vt 0.5588235 0.7653061
vt 0.5588235 0.7755102
vt 0.2794118 0.6530612

# Normal
vn 0 0 -1

# Mesh description
g RoomD_mesh_0014

# Faces
f 1/1/1 2/2/1 3/3/1 4/4/1
f 5/2/1 6/5/1 7/6/1 8/3/1
f 9/5/1 10/7/1 11/8/1 12/6/1
f 13/9/1 14/10/1 15/11/1 16/12/1
f 17/13/1 18/14/1 19/15/1 20/16/1
f 21/17/1 22/18/1 23/19/1 24/20/1
f 25/21/1 26/22/1 27/23/1 28/24/1
f 29/25/1 30/26/1 31/27/1 32/28/1
f 33/29/1 34/30/1 35/31/1 36/32/1
f 37/25/1 38/26/1 39/27/1 40/28/1
f 41/33/1 42/34/1 43/2/1 44/1/1
f 45/34/1 46/35/1 47/5/1 48/2/1
f 49/35/1 50/36/1 51/7/1 52/5/1
f 53/36/1 54/37/1 55/13/1 56/7/1
f 57/37/1 58/38/1 59/14/1 60/13/1
f 61/39/1 62/40/1 63/18/1 64/17/1
f 65/41/1 66/42/1 67/22/1 68/21/1
f 69/43/1 70/41/1 71/21/1 72/44/1
f 73/45/1 74/46/1 75/30/1 76/29/1
f 77/46/1 78/33/1 79/1/1 80/30/1
f 81/47/1 82/48/1 83/34/1 84/33/1
f 85/48/1 86/49/1 87/35/1 88/34/1
f 89/49/1 90/50/1 91/36/1 92/35/1
f 93/51/1 94/52/1 95/53/1 96/54/1
f 97/55/1 98/56/1 99/38/1 100/37/1
f 101/57/1 102/58/1 103/40/1 104/39/1
f 105/57/1 106/58/1 107/40/1 108/39/1
f 109/58/1 110/59/1 111/45/1 112/40/1
f 113/59/1 114/60/1 115/46/1 116/45/1
f 117/60/1 118/47/1 119/33/1 120/46/1
f 121/61/1 122/62/1 123/48/1 124/47/1
f 125/51/1 126/52/1 127/53/1 128/54/1
f 129/63/1 130/64/1 131/50/1 132/49/1
f 133/64/1 134/65/1 135/55/1 136/50/1
f 137/51/1 138/52/1 139/53/1 140/54/1
f 141/66/1 142/67/1 143/58/1 144/57/1
f 145/68/1 146/69/1 147/70/1 148/71/1
f 149/69/1 150/72/1 151/73/1 152/70/1
f 153/51/1 154/52/1 155/53/1 156/54/1
f 157/74/1 158/61/1 159/47/1 160/60/1

