# Tiled2Unity generated file. Do not modify by hand.
# Wavefront file for 'RoomD_mesh_0007.obj'

# Vertices (Count = 296)
v -112 -8 0
v -120 -8 0
v -120 0 0
v -112 0 0
v -120 -8 0
v -128 -8 0
v -128 0 0
v -120 0 0
v -112 -16 0
v -120 -16 0
v -120 -8 0
v -112 -8 0
v -120 -16 0
v -128 -16 0
v -128 -8 0
v -120 -8 0
v -112 -24 0
v -120 -24 0
v -120 -16 0
v -112 -16 0
v -120 -24 0
v -128 -24 0
v -128 -16 0
v -120 -16 0
v -112 -32 0
v -120 -32 0
v -120 -24 0
v -112 -24 0
v -120 -32 0
v -128 -32 0
v -128 -24 0
v -120 -24 0
v -112 -40 0
v -120 -40 0
v -120 -32 0
v -112 -32 0
v -120 -40 0
v -128 -40 0
v -128 -32 0
v -120 -32 0
v -112 -48 0
v -120 -48 0
v -120 -40 0
v -112 -40 0
v -120 -48 0
v -128 -48 0
v -128 -40 0
v -120 -40 0
v -112 -56 0
v -120 -56 0
v -120 -48 0
v -112 -48 0
v -120 -56 0
v -128 -56 0
v -128 -48 0
v -120 -48 0
v -112 -64 0
v -120 -64 0
v -120 -56 0
v -112 -56 0
v -120 -64 0
v -128 -64 0
v -128 -56 0
v -120 -56 0
v -112 -72 0
v -120 -72 0
v -120 -64 0
v -112 -64 0
v -120 -72 0
v -128 -72 0
v -128 -64 0
v -120 -64 0
v -112 -80 0
v -120 -80 0
v -120 -72 0
v -112 -72 0
v -120 -80 0
v -128 -80 0
v -128 -72 0
v -120 -72 0
v -112 -88 0
v -120 -88 0
v -120 -80 0
v -112 -80 0
v -120 -88 0
v -128 -88 0
v -128 -80 0
v -120 -80 0
v -112 -96 0
v -120 -96 0
v -120 -88 0
v -112 -88 0
v -120 -96 0
v -128 -96 0
v -128 -88 0
v -120 -88 0
v -112 -104 0
v -120 -104 0
v -120 -96 0
v -112 -96 0
v -120 -104 0
v -128 -104 0
v -128 -96 0
v -120 -96 0
v 0 -112 0
v -8 -112 0
v -8 -104 0
v 0 -104 0
v -8 -112 0
v -16 -112 0
v -16 -104 0
v -8 -104 0
v -16 -112 0
v -24 -112 0
v -24 -104 0
v -16 -104 0
v -24 -112 0
v -32 -112 0
v -32 -104 0
v -24 -104 0
v -32 -112 0
v -40 -112 0
v -40 -104 0
v -32 -104 0
v -40 -112 0
v -48 -112 0
v -48 -104 0
v -40 -104 0
v -48 -112 0
v -56 -112 0
v -56 -104 0
v -48 -104 0
v -56 -112 0
v -64 -112 0
v -64 -104 0
v -56 -104 0
v -64 -112 0
v -72 -112 0
v -72 -104 0
v -64 -104 0
v -72 -112 0
v -80 -112 0
v -80 -104 0
v -72 -104 0
v -80 -112 0
v -88 -112 0
v -88 -104 0
v -80 -104 0
v -88 -112 0
v -96 -112 0
v -96 -104 0
v -88 -104 0
v -96 -112 0
v -104 -112 0
v -104 -104 0
v -96 -104 0
v -104 -112 0
v -112 -112 0
v -112 -104 0
v -104 -104 0
v -112 -112 0
v -120 -112 0
v -120 -104 0
v -112 -104 0
v -120 -112 0
v -128 -112 0
v -128 -104 0
v -120 -104 0
v 0 -120 0
v -8 -120 0
v -8 -112 0
v 0 -112 0
v -8 -120 0
v -16 -120 0
v -16 -112 0
v -8 -112 0
v -16 -120 0
v -24 -120 0
v -24 -112 0
v -16 -112 0
v -24 -120 0
v -32 -120 0
v -32 -112 0
v -24 -112 0
v -32 -120 0
v -40 -120 0
v -40 -112 0
v -32 -112 0
v -40 -120 0
v -48 -120 0
v -48 -112 0
v -40 -112 0
v -48 -120 0
v -56 -120 0
v -56 -112 0
v -48 -112 0
v -56 -120 0
v -64 -120 0
v -64 -112 0
v -56 -112 0
v -64 -120 0
v -72 -120 0
v -72 -112 0
v -64 -112 0
v -72 -120 0
v -80 -120 0
v -80 -112 0
v -72 -112 0
v -80 -120 0
v -88 -120 0
v -88 -112 0
v -80 -112 0
v -88 -120 0
v -96 -120 0
v -96 -112 0
v -88 -112 0
v -96 -120 0
v -104 -120 0
v -104 -112 0
v -96 -112 0
v -104 -120 0
v -112 -120 0
v -112 -112 0
v -104 -112 0
v -112 -120 0
v -120 -120 0
v -120 -112 0
v -112 -112 0
v -120 -120 0
v -128 -120 0
v -128 -112 0
v -120 -112 0
v 0 -128 0
v -8 -128 0
v -8 -120 0
v 0 -120 0
v -8 -128 0
v -16 -128 0
v -16 -120 0
v -8 -120 0
v -16 -128 0
v -24 -128 0
v -24 -120 0
v -16 -120 0
v -24 -128 0
v -32 -128 0
v -32 -120 0
v -24 -120 0
v -32 -128 0
v -40 -128 0
v -40 -120 0
v -32 -120 0
v -40 -128 0
v -48 -128 0
v -48 -120 0
v -40 -120 0
v -48 -128 0
v -56 -128 0
v -56 -120 0
v -48 -120 0
v -56 -128 0
v -64 -128 0
v -64 -120 0
v -56 -120 0
v -64 -128 0
v -72 -128 0
v -72 -120 0
v -64 -120 0
v -72 -128 0
v -80 -128 0
v -80 -120 0
v -72 -120 0
v -80 -128 0
v -88 -128 0
v -88 -120 0
v -80 -120 0
v -88 -128 0
v -96 -128 0
v -96 -120 0
v -88 -120 0
v -96 -128 0
v -104 -128 0
v -104 -120 0
v -96 -120 0
v -104 -128 0
v -112 -128 0
v -112 -120 0
v -104 -120 0
v -112 -128 0
v -120 -128 0
v -120 -120 0
v -112 -120 0
v -120 -128 0
v -128 -128 0
v -128 -120 0
v -120 -120 0

# Texture cooridinates (Count = 48)
vt 0.8823529 0.9183673
vt 0.8970588 0.9183673
vt 0.8970588 0.9285714
vt 0.8823529 0.9285714
vt 0.9117647 0.9183673
vt 0.9117647 0.9285714
vt 0.8823529 0.9081632
vt 0.8970588 0.9081632
vt 0.9117647 0.9081632
vt 0.8823529 0.8979592
vt 0.8970588 0.8979592
vt 0.9117647 0.8979592
vt 0.8823529 0.8877551
vt 0.8970588 0.8877551
vt 0.9117647 0.8877551
vt 0.8823529 0.9489796
vt 0.8970588 0.9489796
vt 0.8970588 0.9591837
vt 0.8823529 0.9591837
vt 0.9117647 0.9489796
vt 0.9117647 0.9591837
vt 0.8823529 0.9387755
vt 0.8970588 0.9387755
vt 0.9117647 0.9387755
vt 0.8823529 0.877551
vt 0.8970588 0.877551
vt 0.9117647 0.877551
vt 0.5882353 0.7857143
vt 0.6029412 0.7857143
vt 0.6029412 0.7959183
vt 0.5882353 0.7959183
vt 0.6176471 0.7857143
vt 0.6176471 0.7959183
vt 0.5588235 0.7857143
vt 0.5735294 0.7857143
vt 0.5735294 0.7959183
vt 0.5588235 0.7959183
vt 0.5882353 0.7755102
vt 0.6029412 0.7755102
vt 0.6176471 0.7755102
vt 0.5588235 0.7755102
vt 0.5735294 0.7755102
vt 0.4558823 0.9489796
vt 0.4705882 0.9489796
vt 0.4705882 0.9591837
vt 0.4558823 0.9591837
vt 0.4411765 0.9489796
vt 0.4411765 0.9591837

# Normal
vn 0 0 -1

# Mesh description
g RoomD_mesh_0007

# Faces
f 1/1/1 2/2/1 3/3/1 4/4/1
f 5/2/1 6/5/1 7/6/1 8/3/1
f 9/7/1 10/8/1 11/2/1 12/1/1
f 13/8/1 14/9/1 15/5/1 16/2/1
f 17/10/1 18/11/1 19/8/1 20/7/1
f 21/11/1 22/12/1 23/9/1 24/8/1
f 25/13/1 26/14/1 27/11/1 28/10/1
f 29/14/1 30/15/1 31/12/1 32/11/1
f 33/16/1 34/17/1 35/18/1 36/19/1
f 37/17/1 38/20/1 39/21/1 40/18/1
f 41/22/1 42/23/1 43/17/1 44/16/1
f 45/23/1 46/24/1 47/20/1 48/17/1
f 49/4/1 50/3/1 51/23/1 52/22/1
f 53/3/1 54/6/1 55/24/1 56/23/1
f 57/1/1 58/2/1 59/3/1 60/4/1
f 61/2/1 62/5/1 63/6/1 64/3/1
f 65/7/1 66/8/1 67/2/1 68/1/1
f 69/8/1 70/9/1 71/5/1 72/2/1
f 73/10/1 74/11/1 75/8/1 76/7/1
f 77/11/1 78/12/1 79/9/1 80/8/1
f 81/13/1 82/14/1 83/11/1 84/10/1
f 85/14/1 86/15/1 87/12/1 88/11/1
f 89/25/1 90/26/1 91/14/1 92/13/1
f 93/26/1 94/27/1 95/15/1 96/14/1
f 97/16/1 98/17/1 99/18/1 100/19/1
f 101/17/1 102/20/1 103/21/1 104/18/1
f 105/28/1 106/29/1 107/30/1 108/31/1
f 109/29/1 110/32/1 111/33/1 112/30/1
f 113/34/1 114/35/1 115/36/1 116/37/1
f 117/35/1 118/28/1 119/31/1 120/36/1
f 121/28/1 122/29/1 123/30/1 124/31/1
f 125/29/1 126/32/1 127/33/1 128/30/1
f 129/34/1 130/35/1 131/36/1 132/37/1
f 133/35/1 134/28/1 135/31/1 136/36/1
f 137/28/1 138/29/1 139/30/1 140/31/1
f 141/29/1 142/32/1 143/33/1 144/30/1
f 145/34/1 146/35/1 147/36/1 148/37/1
f 149/35/1 150/28/1 151/31/1 152/36/1
f 153/28/1 154/29/1 155/30/1 156/31/1
f 157/29/1 158/32/1 159/33/1 160/30/1
f 161/22/1 162/23/1 163/17/1 164/16/1
f 165/23/1 166/24/1 167/20/1 168/17/1
f 169/38/1 170/39/1 171/29/1 172/28/1
f 173/39/1 174/40/1 175/32/1 176/29/1
f 177/41/1 178/42/1 179/35/1 180/34/1
f 181/42/1 182/38/1 183/28/1 184/35/1
f 185/38/1 186/39/1 187/29/1 188/28/1
f 189/39/1 190/40/1 191/32/1 192/29/1
f 193/41/1 194/42/1 195/35/1 196/34/1
f 197/42/1 198/38/1 199/28/1 200/35/1
f 201/38/1 202/39/1 203/29/1 204/28/1
f 205/39/1 206/40/1 207/32/1 208/29/1
f 209/41/1 210/42/1 211/35/1 212/34/1
f 213/42/1 214/38/1 215/28/1 216/35/1
f 217/38/1 218/39/1 219/29/1 220/28/1
f 221/39/1 222/40/1 223/32/1 224/29/1
f 225/4/1 226/3/1 227/23/1 228/22/1
f 229/3/1 230/6/1 231/24/1 232/23/1
f 233/43/1 234/44/1 235/45/1 236/46/1
f 237/43/1 238/44/1 239/45/1 240/46/1
f 241/43/1 242/44/1 243/45/1 244/46/1
f 245/43/1 246/44/1 247/45/1 248/46/1
f 249/43/1 250/44/1 251/45/1 252/46/1
f 253/43/1 254/44/1 255/45/1 256/46/1
f 257/43/1 258/44/1 259/45/1 260/46/1
f 261/47/1 262/43/1 263/46/1 264/48/1
f 265/47/1 266/43/1 267/46/1 268/48/1
f 269/47/1 270/43/1 271/46/1 272/48/1
f 273/47/1 274/43/1 275/46/1 276/48/1
f 277/43/1 278/44/1 279/45/1 280/46/1
f 281/47/1 282/43/1 283/46/1 284/48/1
f 285/43/1 286/44/1 287/45/1 288/46/1
f 289/1/1 290/2/1 291/3/1 292/4/1
f 293/2/1 294/5/1 295/6/1 296/3/1

