# Tiled2Unity generated file. Do not modify by hand.
# Wavefront file for 'RoomD_mesh_0035.obj'

# Vertices (Count = 48)
v 0 -8 0
v -8 -8 0
v -8 0 0
v 0 0 0
v 0 -16 0
v -8 -16 0
v -8 -8 0
v 0 -8 0
v 0 -24 0
v -8 -24 0
v -8 -16 0
v 0 -16 0
v 0 -32 0
v -8 -32 0
v -8 -24 0
v 0 -24 0
v 0 -40 0
v -8 -40 0
v -8 -32 0
v 0 -32 0
v 0 -48 0
v -8 -48 0
v -8 -40 0
v 0 -40 0
v 0 -56 0
v -8 -56 0
v -8 -48 0
v 0 -48 0
v 0 -64 0
v -8 -64 0
v -8 -56 0
v 0 -56 0
v 0 -72 0
v -8 -72 0
v -8 -64 0
v 0 -64 0
v 0 -80 0
v -8 -80 0
v -8 -72 0
v 0 -72 0
v 0 -88 0
v -8 -88 0
v -8 -80 0
v 0 -80 0
v 0 -96 0
v -8 -96 0
v -8 -88 0
v 0 -88 0

# Texture cooridinates (Count = 9)
vt 0.4264706 0.8877551
vt 0.4411765 0.8877551
vt 0.4411765 0.8979592
vt 0.4264706 0.8979592
vt 0.4558823 0.8979592
vt 0.4558823 0.9081632
vt 0.4411765 0.9081632
vt 0.4264706 0.9081632
vt 0.4558823 0.8877551

# Normal
vn 0 0 -1

# Mesh description
g RoomD_mesh_0035

# Faces
f 1/1/1 2/2/1 3/3/1 4/4/1
f 5/3/1 6/5/1 7/6/1 8/7/1
f 9/4/1 10/3/1 11/7/1 12/8/1
f 13/1/1 14/2/1 15/3/1 16/4/1
f 17/3/1 18/5/1 19/6/1 20/7/1
f 21/4/1 22/3/1 23/7/1 24/8/1
f 25/1/1 26/2/1 27/3/1 28/4/1
f 29/1/1 30/2/1 31/3/1 32/4/1
f 33/2/1 34/9/1 35/5/1 36/3/1
f 37/2/1 38/9/1 39/5/1 40/3/1
f 41/4/1 42/3/1 43/7/1 44/8/1
f 45/1/1 46/2/1 47/3/1 48/4/1

