# Tiled2Unity generated file. Do not modify by hand.
# Wavefront file for 'RoomD_mesh_0027.obj'

# Vertices (Count = 728)
v 0 -8 0
v -8 -8 0
v -8 0 0
v 0 0 0
v -8 -8 0
v -16 -8 0
v -16 0 0
v -8 0 0
v -16 -8 0
v -24 -8 0
v -24 0 0
v -16 0 0
v -24 -8 0
v -32 -8 0
v -32 0 0
v -24 0 0
v -32 -8 0
v -40 -8 0
v -40 0 0
v -32 0 0
v -40 -8 0
v -48 -8 0
v -48 0 0
v -40 0 0
v -48 -8 0
v -56 -8 0
v -56 0 0
v -48 0 0
v -56 -8 0
v -64 -8 0
v -64 0 0
v -56 0 0
v -64 -8 0
v -72 -8 0
v -72 0 0
v -64 0 0
v -72 -8 0
v -80 -8 0
v -80 0 0
v -72 0 0
v -80 -8 0
v -88 -8 0
v -88 0 0
v -80 0 0
v -88 -8 0
v -96 -8 0
v -96 0 0
v -88 0 0
v -96 -8 0
v -104 -8 0
v -104 0 0
v -96 0 0
v -104 -8 0
v -112 -8 0
v -112 0 0
v -104 0 0
v 0 -16 0
v -8 -16 0
v -8 -8 0
v 0 -8 0
v -8 -16 0
v -16 -16 0
v -16 -8 0
v -8 -8 0
v -16 -16 0
v -24 -16 0
v -24 -8 0
v -16 -8 0
v -24 -16 0
v -32 -16 0
v -32 -8 0
v -24 -8 0
v -32 -16 0
v -40 -16 0
v -40 -8 0
v -32 -8 0
v -40 -16 0
v -48 -16 0
v -48 -8 0
v -40 -8 0
v -48 -16 0
v -56 -16 0
v -56 -8 0
v -48 -8 0
v -56 -16 0
v -64 -16 0
v -64 -8 0
v -56 -8 0
v -64 -16 0
v -72 -16 0
v -72 -8 0
v -64 -8 0
v -72 -16 0
v -80 -16 0
v -80 -8 0
v -72 -8 0
v -80 -16 0
v -88 -16 0
v -88 -8 0
v -80 -8 0
v -88 -16 0
v -96 -16 0
v -96 -8 0
v -88 -8 0
v -96 -16 0
v -104 -16 0
v -104 -8 0
v -96 -8 0
v -104 -16 0
v -112 -16 0
v -112 -8 0
v -104 -8 0
v 0 -24 0
v -8 -24 0
v -8 -16 0
v 0 -16 0
v -8 -24 0
v -16 -24 0
v -16 -16 0
v -8 -16 0
v -16 -24 0
v -24 -24 0
v -24 -16 0
v -16 -16 0
v -24 -24 0
v -32 -24 0
v -32 -16 0
v -24 -16 0
v -32 -24 0
v -40 -24 0
v -40 -16 0
v -32 -16 0
v -40 -24 0
v -48 -24 0
v -48 -16 0
v -40 -16 0
v -48 -24 0
v -56 -24 0
v -56 -16 0
v -48 -16 0
v -56 -24 0
v -64 -24 0
v -64 -16 0
v -56 -16 0
v -64 -24 0
v -72 -24 0
v -72 -16 0
v -64 -16 0
v -72 -24 0
v -80 -24 0
v -80 -16 0
v -72 -16 0
v -80 -24 0
v -88 -24 0
v -88 -16 0
v -80 -16 0
v -88 -24 0
v -96 -24 0
v -96 -16 0
v -88 -16 0
v -96 -24 0
v -104 -24 0
v -104 -16 0
v -96 -16 0
v -104 -24 0
v -112 -24 0
v -112 -16 0
v -104 -16 0
v 0 -32 0
v -8 -32 0
v -8 -24 0
v 0 -24 0
v -8 -32 0
v -16 -32 0
v -16 -24 0
v -8 -24 0
v -16 -32 0
v -24 -32 0
v -24 -24 0
v -16 -24 0
v -24 -32 0
v -32 -32 0
v -32 -24 0
v -24 -24 0
v -32 -32 0
v -40 -32 0
v -40 -24 0
v -32 -24 0
v -40 -32 0
v -48 -32 0
v -48 -24 0
v -40 -24 0
v -48 -32 0
v -56 -32 0
v -56 -24 0
v -48 -24 0
v -56 -32 0
v -64 -32 0
v -64 -24 0
v -56 -24 0
v -64 -32 0
v -72 -32 0
v -72 -24 0
v -64 -24 0
v -72 -32 0
v -80 -32 0
v -80 -24 0
v -72 -24 0
v -80 -32 0
v -88 -32 0
v -88 -24 0
v -80 -24 0
v -88 -32 0
v -96 -32 0
v -96 -24 0
v -88 -24 0
v -96 -32 0
v -104 -32 0
v -104 -24 0
v -96 -24 0
v -104 -32 0
v -112 -32 0
v -112 -24 0
v -104 -24 0
v 0 -40 0
v -8 -40 0
v -8 -32 0
v 0 -32 0
v -8 -40 0
v -16 -40 0
v -16 -32 0
v -8 -32 0
v -16 -40 0
v -24 -40 0
v -24 -32 0
v -16 -32 0
v -24 -40 0
v -32 -40 0
v -32 -32 0
v -24 -32 0
v -32 -40 0
v -40 -40 0
v -40 -32 0
v -32 -32 0
v -40 -40 0
v -48 -40 0
v -48 -32 0
v -40 -32 0
v -48 -40 0
v -56 -40 0
v -56 -32 0
v -48 -32 0
v -56 -40 0
v -64 -40 0
v -64 -32 0
v -56 -32 0
v -64 -40 0
v -72 -40 0
v -72 -32 0
v -64 -32 0
v -72 -40 0
v -80 -40 0
v -80 -32 0
v -72 -32 0
v -80 -40 0
v -88 -40 0
v -88 -32 0
v -80 -32 0
v -88 -40 0
v -96 -40 0
v -96 -32 0
v -88 -32 0
v -96 -40 0
v -104 -40 0
v -104 -32 0
v -96 -32 0
v -104 -40 0
v -112 -40 0
v -112 -32 0
v -104 -32 0
v 0 -48 0
v -8 -48 0
v -8 -40 0
v 0 -40 0
v -8 -48 0
v -16 -48 0
v -16 -40 0
v -8 -40 0
v -16 -48 0
v -24 -48 0
v -24 -40 0
v -16 -40 0
v -24 -48 0
v -32 -48 0
v -32 -40 0
v -24 -40 0
v -32 -48 0
v -40 -48 0
v -40 -40 0
v -32 -40 0
v -40 -48 0
v -48 -48 0
v -48 -40 0
v -40 -40 0
v -48 -48 0
v -56 -48 0
v -56 -40 0
v -48 -40 0
v -56 -48 0
v -64 -48 0
v -64 -40 0
v -56 -40 0
v -64 -48 0
v -72 -48 0
v -72 -40 0
v -64 -40 0
v -72 -48 0
v -80 -48 0
v -80 -40 0
v -72 -40 0
v -80 -48 0
v -88 -48 0
v -88 -40 0
v -80 -40 0
v -88 -48 0
v -96 -48 0
v -96 -40 0
v -88 -40 0
v -96 -48 0
v -104 -48 0
v -104 -40 0
v -96 -40 0
v -104 -48 0
v -112 -48 0
v -112 -40 0
v -104 -40 0
v 0 -56 0
v -8 -56 0
v -8 -48 0
v 0 -48 0
v -8 -56 0
v -16 -56 0
v -16 -48 0
v -8 -48 0
v -16 -56 0
v -24 -56 0
v -24 -48 0
v -16 -48 0
v -24 -56 0
v -32 -56 0
v -32 -48 0
v -24 -48 0
v -32 -56 0
v -40 -56 0
v -40 -48 0
v -32 -48 0
v -40 -56 0
v -48 -56 0
v -48 -48 0
v -40 -48 0
v -48 -56 0
v -56 -56 0
v -56 -48 0
v -48 -48 0
v -56 -56 0
v -64 -56 0
v -64 -48 0
v -56 -48 0
v -64 -56 0
v -72 -56 0
v -72 -48 0
v -64 -48 0
v -72 -56 0
v -80 -56 0
v -80 -48 0
v -72 -48 0
v -80 -56 0
v -88 -56 0
v -88 -48 0
v -80 -48 0
v -88 -56 0
v -96 -56 0
v -96 -48 0
v -88 -48 0
v -96 -56 0
v -104 -56 0
v -104 -48 0
v -96 -48 0
v -104 -56 0
v -112 -56 0
v -112 -48 0
v -104 -48 0
v 0 -64 0
v -8 -64 0
v -8 -56 0
v 0 -56 0
v -8 -64 0
v -16 -64 0
v -16 -56 0
v -8 -56 0
v -16 -64 0
v -24 -64 0
v -24 -56 0
v -16 -56 0
v -24 -64 0
v -32 -64 0
v -32 -56 0
v -24 -56 0
v -32 -64 0
v -40 -64 0
v -40 -56 0
v -32 -56 0
v -40 -64 0
v -48 -64 0
v -48 -56 0
v -40 -56 0
v -48 -64 0
v -56 -64 0
v -56 -56 0
v -48 -56 0
v -56 -64 0
v -64 -64 0
v -64 -56 0
v -56 -56 0
v -64 -64 0
v -72 -64 0
v -72 -56 0
v -64 -56 0
v -72 -64 0
v -80 -64 0
v -80 -56 0
v -72 -56 0
v -80 -64 0
v -88 -64 0
v -88 -56 0
v -80 -56 0
v -88 -64 0
v -96 -64 0
v -96 -56 0
v -88 -56 0
v -96 -64 0
v -104 -64 0
v -104 -56 0
v -96 -56 0
v -104 -64 0
v -112 -64 0
v -112 -56 0
v -104 -56 0
v 0 -72 0
v -8 -72 0
v -8 -64 0
v 0 -64 0
v -8 -72 0
v -16 -72 0
v -16 -64 0
v -8 -64 0
v -16 -72 0
v -24 -72 0
v -24 -64 0
v -16 -64 0
v -24 -72 0
v -32 -72 0
v -32 -64 0
v -24 -64 0
v -32 -72 0
v -40 -72 0
v -40 -64 0
v -32 -64 0
v -40 -72 0
v -48 -72 0
v -48 -64 0
v -40 -64 0
v -48 -72 0
v -56 -72 0
v -56 -64 0
v -48 -64 0
v -56 -72 0
v -64 -72 0
v -64 -64 0
v -56 -64 0
v -64 -72 0
v -72 -72 0
v -72 -64 0
v -64 -64 0
v -72 -72 0
v -80 -72 0
v -80 -64 0
v -72 -64 0
v -80 -72 0
v -88 -72 0
v -88 -64 0
v -80 -64 0
v -88 -72 0
v -96 -72 0
v -96 -64 0
v -88 -64 0
v -96 -72 0
v -104 -72 0
v -104 -64 0
v -96 -64 0
v -104 -72 0
v -112 -72 0
v -112 -64 0
v -104 -64 0
v 0 -80 0
v -8 -80 0
v -8 -72 0
v 0 -72 0
v -8 -80 0
v -16 -80 0
v -16 -72 0
v -8 -72 0
v -16 -80 0
v -24 -80 0
v -24 -72 0
v -16 -72 0
v -24 -80 0
v -32 -80 0
v -32 -72 0
v -24 -72 0
v -32 -80 0
v -40 -80 0
v -40 -72 0
v -32 -72 0
v -40 -80 0
v -48 -80 0
v -48 -72 0
v -40 -72 0
v -48 -80 0
v -56 -80 0
v -56 -72 0
v -48 -72 0
v -56 -80 0
v -64 -80 0
v -64 -72 0
v -56 -72 0
v -64 -80 0
v -72 -80 0
v -72 -72 0
v -64 -72 0
v -72 -80 0
v -80 -80 0
v -80 -72 0
v -72 -72 0
v -80 -80 0
v -88 -80 0
v -88 -72 0
v -80 -72 0
v -88 -80 0
v -96 -80 0
v -96 -72 0
v -88 -72 0
v -96 -80 0
v -104 -80 0
v -104 -72 0
v -96 -72 0
v -104 -80 0
v -112 -80 0
v -112 -72 0
v -104 -72 0
v 0 -88 0
v -8 -88 0
v -8 -80 0
v 0 -80 0
v -8 -88 0
v -16 -88 0
v -16 -80 0
v -8 -80 0
v -16 -88 0
v -24 -88 0
v -24 -80 0
v -16 -80 0
v -24 -88 0
v -32 -88 0
v -32 -80 0
v -24 -80 0
v -32 -88 0
v -40 -88 0
v -40 -80 0
v -32 -80 0
v -40 -88 0
v -48 -88 0
v -48 -80 0
v -40 -80 0
v -48 -88 0
v -56 -88 0
v -56 -80 0
v -48 -80 0
v -56 -88 0
v -64 -88 0
v -64 -80 0
v -56 -80 0
v -64 -88 0
v -72 -88 0
v -72 -80 0
v -64 -80 0
v -72 -88 0
v -80 -88 0
v -80 -80 0
v -72 -80 0
v -80 -88 0
v -88 -88 0
v -88 -80 0
v -80 -80 0
v -88 -88 0
v -96 -88 0
v -96 -80 0
v -88 -80 0
v -96 -88 0
v -104 -88 0
v -104 -80 0
v -96 -80 0
v -104 -88 0
v -112 -88 0
v -112 -80 0
v -104 -80 0
v 0 -96 0
v -8 -96 0
v -8 -88 0
v 0 -88 0
v -8 -96 0
v -16 -96 0
v -16 -88 0
v -8 -88 0
v -16 -96 0
v -24 -96 0
v -24 -88 0
v -16 -88 0
v -24 -96 0
v -32 -96 0
v -32 -88 0
v -24 -88 0
v -32 -96 0
v -40 -96 0
v -40 -88 0
v -32 -88 0
v -40 -96 0
v -48 -96 0
v -48 -88 0
v -40 -88 0
v -48 -96 0
v -56 -96 0
v -56 -88 0
v -48 -88 0
v -56 -96 0
v -64 -96 0
v -64 -88 0
v -56 -88 0
v -64 -96 0
v -72 -96 0
v -72 -88 0
v -64 -88 0
v -72 -96 0
v -80 -96 0
v -80 -88 0
v -72 -88 0
v -80 -96 0
v -88 -96 0
v -88 -88 0
v -80 -88 0
v -88 -96 0
v -96 -96 0
v -96 -88 0
v -88 -88 0
v -96 -96 0
v -104 -96 0
v -104 -88 0
v -96 -88 0
v -104 -96 0
v -112 -96 0
v -112 -88 0
v -104 -88 0
v 0 -104 0
v -8 -104 0
v -8 -96 0
v 0 -96 0
v -8 -104 0
v -16 -104 0
v -16 -96 0
v -8 -96 0
v -16 -104 0
v -24 -104 0
v -24 -96 0
v -16 -96 0
v -24 -104 0
v -32 -104 0
v -32 -96 0
v -24 -96 0
v -32 -104 0
v -40 -104 0
v -40 -96 0
v -32 -96 0
v -40 -104 0
v -48 -104 0
v -48 -96 0
v -40 -96 0
v -48 -104 0
v -56 -104 0
v -56 -96 0
v -48 -96 0
v -56 -104 0
v -64 -104 0
v -64 -96 0
v -56 -96 0
v -64 -104 0
v -72 -104 0
v -72 -96 0
v -64 -96 0
v -72 -104 0
v -80 -104 0
v -80 -96 0
v -72 -96 0
v -80 -104 0
v -88 -104 0
v -88 -96 0
v -80 -96 0
v -88 -104 0
v -96 -104 0
v -96 -96 0
v -88 -96 0
v -96 -104 0
v -104 -104 0
v -104 -96 0
v -96 -96 0
v -104 -104 0
v -112 -104 0
v -112 -96 0
v -104 -96 0

# Texture cooridinates (Count = 36)
vt 0.5735294 0.8979592
vt 0.5882353 0.8979592
vt 0.5882353 0.9081632
vt 0.5735294 0.9081632
vt 0.2647059 0.8877551
vt 0.2794118 0.8877551
vt 0.2794118 0.8979592
vt 0.2647059 0.8979592
vt 0.2941177 0.8877551
vt 0.2941177 0.8979592
vt 0.4264706 0.8979592
vt 0.4411765 0.8979592
vt 0.4411765 0.9081632
vt 0.4264706 0.9081632
vt 0.4558823 0.8979592
vt 0.4558823 0.9081632
vt 0.4411765 0.8877551
vt 0.4558823 0.8877551
vt 0.4264706 0.8877551
vt 0.5735294 0.8877551
vt 0.5882353 0.8877551
vt 0.2647059 0.877551
vt 0.2794118 0.877551
vt 0.2941177 0.877551
vt 0.5735294 0.877551
vt 0.5882353 0.877551
vt 0.5735294 0.8673469
vt 0.5882353 0.8673469
vt 0.5735294 0.8571429
vt 0.5882353 0.8571429
vt 0.5735294 0.8469388
vt 0.5882353 0.8469388
vt 0.2794118 0.8673469
vt 0.2794118 0.8571429
vt 0.2941177 0.8571429
vt 0.2941177 0.8673469

# Normal
vn 0 0 -1

# Mesh description
g RoomD_mesh_0027

# Faces
f 1/1/1 2/2/1 3/3/1 4/4/1
f 5/5/1 6/6/1 7/7/1 8/8/1
f 9/6/1 10/9/1 11/10/1 12/7/1
f 13/11/1 14/12/1 15/13/1 16/14/1
f 17/12/1 18/15/1 19/16/1 20/13/1
f 21/17/1 22/18/1 23/15/1 24/12/1
f 25/19/1 26/17/1 27/12/1 28/11/1
f 29/11/1 30/12/1 31/13/1 32/14/1
f 33/12/1 34/15/1 35/16/1 36/13/1
f 37/17/1 38/18/1 39/15/1 40/12/1
f 41/12/1 42/15/1 43/16/1 44/13/1
f 45/17/1 46/18/1 47/15/1 48/12/1
f 49/12/1 50/15/1 51/16/1 52/13/1
f 53/17/1 54/18/1 55/15/1 56/12/1
f 57/20/1 58/21/1 59/2/1 60/1/1
f 61/22/1 62/23/1 63/6/1 64/5/1
f 65/23/1 66/24/1 67/9/1 68/6/1
f 69/19/1 70/17/1 71/12/1 72/11/1
f 73/11/1 74/12/1 75/13/1 76/14/1
f 77/12/1 78/15/1 79/16/1 80/13/1
f 81/12/1 82/15/1 83/16/1 84/13/1
f 85/11/1 86/12/1 87/13/1 88/14/1
f 89/12/1 90/15/1 91/16/1 92/13/1
f 93/17/1 94/18/1 95/15/1 96/12/1
f 97/12/1 98/15/1 99/16/1 100/13/1
f 101/17/1 102/18/1 103/15/1 104/12/1
f 105/12/1 106/15/1 107/16/1 108/13/1
f 109/17/1 110/18/1 111/15/1 112/12/1
f 113/25/1 114/26/1 115/21/1 116/20/1
f 117/5/1 118/6/1 119/7/1 120/8/1
f 121/6/1 122/9/1 123/10/1 124/7/1
f 125/19/1 126/17/1 127/12/1 128/11/1
f 129/11/1 130/12/1 131/13/1 132/14/1
f 133/12/1 134/15/1 135/16/1 136/13/1
f 137/17/1 138/18/1 139/15/1 140/12/1
f 141/11/1 142/12/1 143/13/1 144/14/1
f 145/12/1 146/15/1 147/16/1 148/13/1
f 149/17/1 150/18/1 151/15/1 152/12/1
f 153/12/1 154/15/1 155/16/1 156/13/1
f 157/17/1 158/18/1 159/15/1 160/12/1
f 161/12/1 162/15/1 163/16/1 164/13/1
f 165/17/1 166/18/1 167/15/1 168/12/1
f 169/27/1 170/28/1 171/26/1 172/25/1
f 173/22/1 174/23/1 175/6/1 176/5/1
f 177/23/1 178/24/1 179/9/1 180/6/1
f 181/19/1 182/17/1 183/12/1 184/11/1
f 185/11/1 186/12/1 187/13/1 188/14/1
f 189/12/1 190/15/1 191/16/1 192/13/1
f 193/17/1 194/18/1 195/15/1 196/12/1
f 197/11/1 198/12/1 199/13/1 200/14/1
f 201/12/1 202/15/1 203/16/1 204/13/1
f 205/17/1 206/18/1 207/15/1 208/12/1
f 209/12/1 210/15/1 211/16/1 212/13/1
f 213/17/1 214/18/1 215/15/1 216/12/1
f 217/12/1 218/15/1 219/16/1 220/13/1
f 221/17/1 222/18/1 223/15/1 224/12/1
f 225/29/1 226/30/1 227/28/1 228/27/1
f 229/5/1 230/6/1 231/7/1 232/8/1
f 233/6/1 234/9/1 235/10/1 236/7/1
f 237/19/1 238/17/1 239/12/1 240/11/1
f 241/11/1 242/12/1 243/13/1 244/14/1
f 245/12/1 246/15/1 247/16/1 248/13/1
f 249/17/1 250/18/1 251/15/1 252/12/1
f 253/12/1 254/15/1 255/16/1 256/13/1
f 257/12/1 258/15/1 259/16/1 260/13/1
f 261/17/1 262/18/1 263/15/1 264/12/1
f 265/12/1 266/15/1 267/16/1 268/13/1
f 269/12/1 270/15/1 271/16/1 272/13/1
f 273/12/1 274/15/1 275/16/1 276/13/1
f 277/17/1 278/18/1 279/15/1 280/12/1
f 281/31/1 282/32/1 283/30/1 284/29/1
f 285/22/1 286/23/1 287/6/1 288/5/1
f 289/23/1 290/24/1 291/9/1 292/6/1
f 293/12/1 294/15/1 295/16/1 296/13/1
f 297/11/1 298/12/1 299/13/1 300/14/1
f 301/12/1 302/15/1 303/16/1 304/13/1
f 305/33/1 306/34/1 307/35/1 308/36/1
f 309/17/1 310/18/1 311/15/1 312/12/1
f 313/12/1 314/15/1 315/16/1 316/13/1
f 317/19/1 318/17/1 319/12/1 320/11/1
f 321/17/1 322/18/1 323/15/1 324/12/1
f 325/12/1 326/15/1 327/16/1 328/13/1
f 329/12/1 330/15/1 331/16/1 332/13/1
f 333/12/1 334/15/1 335/16/1 336/13/1
f 337/6/1 338/9/1 339/10/1 340/7/1
f 341/5/1 342/6/1 343/7/1 344/8/1
f 345/6/1 346/9/1 347/10/1 348/7/1
f 349/12/1 350/15/1 351/16/1 352/13/1
f 353/11/1 354/12/1 355/13/1 356/14/1
f 357/12/1 358/15/1 359/16/1 360/13/1
f 361/17/1 362/18/1 363/15/1 364/12/1
f 365/12/1 366/15/1 367/16/1 368/13/1
f 369/12/1 370/15/1 371/16/1 372/13/1
f 373/19/1 374/17/1 375/12/1 376/11/1
f 377/17/1 378/18/1 379/15/1 380/12/1
f 381/12/1 382/15/1 383/16/1 384/13/1
f 385/12/1 386/15/1 387/16/1 388/13/1
f 389/17/1 390/18/1 391/15/1 392/12/1
f 393/23/1 394/24/1 395/9/1 396/6/1
f 397/22/1 398/23/1 399/6/1 400/5/1
f 401/23/1 402/24/1 403/9/1 404/6/1
f 405/12/1 406/15/1 407/16/1 408/13/1
f 409/11/1 410/12/1 411/13/1 412/14/1
f 413/12/1 414/15/1 415/16/1 416/13/1
f 417/17/1 418/18/1 419/15/1 420/12/1
f 421/12/1 422/15/1 423/16/1 424/13/1
f 425/12/1 426/15/1 427/16/1 428/13/1
f 429/19/1 430/17/1 431/12/1 432/11/1
f 433/17/1 434/18/1 435/15/1 436/12/1
f 437/12/1 438/15/1 439/16/1 440/13/1
f 441/17/1 442/18/1 443/15/1 444/12/1
f 445/17/1 446/18/1 447/15/1 448/12/1
f 449/17/1 450/18/1 451/15/1 452/12/1
f 453/11/1 454/12/1 455/13/1 456/14/1
f 457/11/1 458/12/1 459/13/1 460/14/1
f 461/12/1 462/15/1 463/16/1 464/13/1
f 465/11/1 466/12/1 467/13/1 468/14/1
f 469/12/1 470/15/1 471/16/1 472/13/1
f 473/17/1 474/18/1 475/15/1 476/12/1
f 477/17/1 478/18/1 479/15/1 480/12/1
f 481/12/1 482/15/1 483/16/1 484/13/1
f 485/19/1 486/17/1 487/12/1 488/11/1
f 489/17/1 490/18/1 491/15/1 492/12/1
f 493/12/1 494/15/1 495/16/1 496/13/1
f 497/17/1 498/18/1 499/15/1 500/12/1
f 501/17/1 502/18/1 503/15/1 504/12/1
f 505/11/1 506/12/1 507/13/1 508/14/1
f 509/12/1 510/15/1 511/16/1 512/13/1
f 513/12/1 514/15/1 515/16/1 516/13/1
f 517/12/1 518/15/1 519/16/1 520/13/1
f 521/11/1 522/12/1 523/13/1 524/14/1
f 525/12/1 526/15/1 527/16/1 528/13/1
f 529/17/1 530/18/1 531/15/1 532/12/1
f 533/17/1 534/18/1 535/15/1 536/12/1
f 537/12/1 538/15/1 539/16/1 540/13/1
f 541/19/1 542/17/1 543/12/1 544/11/1
f 545/17/1 546/18/1 547/15/1 548/12/1
f 549/12/1 550/15/1 551/16/1 552/13/1
f 553/17/1 554/18/1 555/15/1 556/12/1
f 557/17/1 558/18/1 559/15/1 560/12/1
f 561/11/1 562/12/1 563/13/1 564/14/1
f 565/12/1 566/15/1 567/16/1 568/13/1
f 569/17/1 570/18/1 571/15/1 572/12/1
f 573/12/1 574/15/1 575/16/1 576/13/1
f 577/11/1 578/12/1 579/13/1 580/14/1
f 581/12/1 582/15/1 583/16/1 584/13/1
f 585/17/1 586/18/1 587/15/1 588/12/1
f 589/17/1 590/18/1 591/15/1 592/12/1
f 593/12/1 594/15/1 595/16/1 596/13/1
f 597/19/1 598/17/1 599/12/1 600/11/1
f 601/17/1 602/18/1 603/15/1 604/12/1
f 605/12/1 606/15/1 607/16/1 608/13/1
f 609/17/1 610/18/1 611/15/1 612/12/1
f 613/17/1 614/18/1 615/15/1 616/12/1
f 617/12/1 618/15/1 619/16/1 620/13/1
f 621/12/1 622/15/1 623/16/1 624/13/1
f 625/17/1 626/18/1 627/15/1 628/12/1
f 629/12/1 630/15/1 631/16/1 632/13/1
f 633/11/1 634/12/1 635/13/1 636/14/1
f 637/12/1 638/15/1 639/16/1 640/13/1
f 641/17/1 642/18/1 643/15/1 644/12/1
f 645/17/1 646/18/1 647/15/1 648/12/1
f 649/12/1 650/15/1 651/16/1 652/13/1
f 653/19/1 654/17/1 655/12/1 656/11/1
f 657/17/1 658/18/1 659/15/1 660/12/1
f 661/12/1 662/15/1 663/16/1 664/13/1
f 665/17/1 666/18/1 667/15/1 668/12/1
f 669/17/1 670/18/1 671/15/1 672/12/1
f 673/12/1 674/15/1 675/16/1 676/13/1
f 677/17/1 678/18/1 679/15/1 680/12/1
f 681/12/1 682/15/1 683/16/1 684/13/1
f 685/17/1 686/18/1 687/15/1 688/12/1
f 689/11/1 690/12/1 691/13/1 692/14/1
f 693/12/1 694/15/1 695/16/1 696/13/1
f 697/11/1 698/12/1 699/13/1 700/14/1
f 701/12/1 702/15/1 703/16/1 704/13/1
f 705/12/1 706/15/1 707/16/1 708/13/1
f 709/12/1 710/15/1 711/16/1 712/13/1
f 713/19/1 714/17/1 715/12/1 716/11/1
f 717/17/1 718/18/1 719/15/1 720/12/1
f 721/17/1 722/18/1 723/15/1 724/12/1
f 725/17/1 726/18/1 727/15/1 728/12/1

