# Tiled2Unity generated file. Do not modify by hand.
# Wavefront file for 'RoomD_mesh_0009.obj'

# Vertices (Count = 160)
v 0 -40 0
v -8 -40 0
v -8 -32 0
v 0 -32 0
v -8 -40 0
v -16 -40 0
v -16 -32 0
v -8 -32 0
v -16 -40 0
v -24 -40 0
v -24 -32 0
v -16 -32 0
v -24 -40 0
v -32 -40 0
v -32 -32 0
v -24 -32 0
v -32 -40 0
v -40 -40 0
v -40 -32 0
v -32 -32 0
v -40 -40 0
v -48 -40 0
v -48 -32 0
v -40 -32 0
v -48 -40 0
v -56 -40 0
v -56 -32 0
v -48 -32 0
v -56 -40 0
v -64 -40 0
v -64 -32 0
v -56 -32 0
v 0 -48 0
v -8 -48 0
v -8 -40 0
v 0 -40 0
v -8 -48 0
v -16 -48 0
v -16 -40 0
v -8 -40 0
v -16 -48 0
v -24 -48 0
v -24 -40 0
v -16 -40 0
v -24 -48 0
v -32 -48 0
v -32 -40 0
v -24 -40 0
v -32 -48 0
v -40 -48 0
v -40 -40 0
v -32 -40 0
v -40 -48 0
v -48 -48 0
v -48 -40 0
v -40 -40 0
v -48 -48 0
v -56 -48 0
v -56 -40 0
v -48 -40 0
v -56 -48 0
v -64 -48 0
v -64 -40 0
v -56 -40 0
v 0 -56 0
v -8 -56 0
v -8 -48 0
v 0 -48 0
v -8 -56 0
v -16 -56 0
v -16 -48 0
v -8 -48 0
v -16 -56 0
v -24 -56 0
v -24 -48 0
v -16 -48 0
v -24 -56 0
v -32 -56 0
v -32 -48 0
v -24 -48 0
v -32 -56 0
v -40 -56 0
v -40 -48 0
v -32 -48 0
v -40 -56 0
v -48 -56 0
v -48 -48 0
v -40 -48 0
v -48 -56 0
v -56 -56 0
v -56 -48 0
v -48 -48 0
v -56 -56 0
v -64 -56 0
v -64 -48 0
v -56 -48 0
v 0 -64 0
v -8 -64 0
v -8 -56 0
v 0 -56 0
v -8 -64 0
v -16 -64 0
v -16 -56 0
v -8 -56 0
v -16 -64 0
v -24 -64 0
v -24 -56 0
v -16 -56 0
v -24 -64 0
v -32 -64 0
v -32 -56 0
v -24 -56 0
v -32 -64 0
v -40 -64 0
v -40 -56 0
v -32 -56 0
v -40 -64 0
v -48 -64 0
v -48 -56 0
v -40 -56 0
v -48 -64 0
v -56 -64 0
v -56 -56 0
v -48 -56 0
v -56 -64 0
v -64 -64 0
v -64 -56 0
v -56 -56 0
v 0 -72 0
v -8 -72 0
v -8 -64 0
v 0 -64 0
v -8 -72 0
v -16 -72 0
v -16 -64 0
v -8 -64 0
v -16 -72 0
v -24 -72 0
v -24 -64 0
v -16 -64 0
v -24 -72 0
v -32 -72 0
v -32 -64 0
v -24 -64 0
v -32 -72 0
v -40 -72 0
v -40 -64 0
v -32 -64 0
v -40 -72 0
v -48 -72 0
v -48 -64 0
v -40 -64 0
v -48 -72 0
v -56 -72 0
v -56 -64 0
v -48 -64 0
v -56 -72 0
v -64 -72 0
v -64 -64 0
v -56 -64 0

# Texture cooridinates (Count = 42)
vt 0.2647059 0.9693878
vt 0.2794118 0.9693878
vt 0.2794118 0.9795918
vt 0.2647059 0.9795918
vt 0.2941177 0.9693878
vt 0.2941177 0.9795918
vt 0.3823529 0.7755102
vt 0.3970588 0.7755102
vt 0.3970588 0.7857143
vt 0.3823529 0.7857143
vt 0.4117647 0.7755102
vt 0.4117647 0.7857143
vt 0.2647059 0.7755102
vt 0.2794118 0.7755102
vt 0.2794118 0.7857143
vt 0.2647059 0.7857143
vt 0.2941177 0.7755102
vt 0.2941177 0.7857143
vt 0.3823529 0.755102
vt 0.3970588 0.755102
vt 0.3970588 0.7653061
vt 0.3823529 0.7653061
vt 0.5882353 0.7653061
vt 0.6029412 0.7653061
vt 0.6029412 0.7755102
vt 0.5882353 0.7755102
vt 0.4117647 0.755102
vt 0.4117647 0.7653061
vt 0.4117647 0.9489796
vt 0.4264706 0.9489796
vt 0.4264706 0.9591837
vt 0.4117647 0.9591837
vt 0.4411765 0.9489796
vt 0.4411765 0.9591837
vt 0.5882353 0.755102
vt 0.6029412 0.755102
vt 0.2647059 0.7653061
vt 0.2794118 0.7653061
vt 0.2941177 0.7653061
vt 0.2647059 0.755102
vt 0.2794118 0.755102
vt 0.2941177 0.755102

# Normal
vn 0 0 -1

# Mesh description
g RoomD_mesh_0009

# Faces
f 1/1/1 2/2/1 3/3/1 4/4/1
f 5/2/1 6/5/1 7/6/1 8/3/1
f 9/1/1 10/2/1 11/3/1 12/4/1
f 13/1/1 14/2/1 15/3/1 16/4/1
f 17/1/1 18/2/1 19/3/1 20/4/1
f 21/1/1 22/2/1 23/3/1 24/4/1
f 25/1/1 26/2/1 27/3/1 28/4/1
f 29/2/1 30/5/1 31/6/1 32/3/1
f 33/7/1 34/8/1 35/9/1 36/10/1
f 37/8/1 38/11/1 39/12/1 40/9/1
f 41/7/1 42/8/1 43/9/1 44/10/1
f 45/8/1 46/11/1 47/12/1 48/9/1
f 49/7/1 50/8/1 51/9/1 52/10/1
f 53/8/1 54/11/1 55/12/1 56/9/1
f 57/13/1 58/14/1 59/15/1 60/16/1
f 61/14/1 62/17/1 63/18/1 64/15/1
f 65/19/1 66/20/1 67/21/1 68/22/1
f 69/23/1 70/24/1 71/25/1 72/26/1
f 73/19/1 74/20/1 75/21/1 76/22/1
f 77/20/1 78/27/1 79/28/1 80/21/1
f 81/19/1 82/20/1 83/21/1 84/22/1
f 85/20/1 86/27/1 87/28/1 88/21/1
f 89/29/1 90/30/1 91/31/1 92/32/1
f 93/30/1 94/33/1 95/34/1 96/31/1
f 97/19/1 98/20/1 99/21/1 100/22/1
f 101/35/1 102/36/1 103/24/1 104/23/1
f 105/19/1 106/20/1 107/21/1 108/22/1
f 109/20/1 110/27/1 111/28/1 112/21/1
f 113/19/1 114/20/1 115/21/1 116/22/1
f 117/23/1 118/24/1 119/25/1 120/26/1
f 121/37/1 122/38/1 123/14/1 124/13/1
f 125/38/1 126/39/1 127/17/1 128/14/1
f 129/19/1 130/20/1 131/21/1 132/22/1
f 133/20/1 134/27/1 135/28/1 136/21/1
f 137/19/1 138/20/1 139/21/1 140/22/1
f 141/20/1 142/27/1 143/28/1 144/21/1
f 145/19/1 146/20/1 147/21/1 148/22/1
f 149/35/1 150/36/1 151/24/1 152/23/1
f 153/40/1 154/41/1 155/38/1 156/37/1
f 157/41/1 158/42/1 159/39/1 160/38/1

