# Tiled2Unity generated file. Do not modify by hand.
# Wavefront file for 'RoomD_mesh_0022.obj'

# Vertices (Count = 576)
v 0 -56 0
v -8 -56 0
v -8 -48 0
v 0 -48 0
v -8 -56 0
v -16 -56 0
v -16 -48 0
v -8 -48 0
v -16 -56 0
v -24 -56 0
v -24 -48 0
v -16 -48 0
v -24 -56 0
v -32 -56 0
v -32 -48 0
v -24 -48 0
v -32 -56 0
v -40 -56 0
v -40 -48 0
v -32 -48 0
v -40 -56 0
v -48 -56 0
v -48 -48 0
v -40 -48 0
v -48 -56 0
v -56 -56 0
v -56 -48 0
v -48 -48 0
v -56 -56 0
v -64 -56 0
v -64 -48 0
v -56 -48 0
v -64 -56 0
v -72 -56 0
v -72 -48 0
v -64 -48 0
v -72 -56 0
v -80 -56 0
v -80 -48 0
v -72 -48 0
v -80 -56 0
v -88 -56 0
v -88 -48 0
v -80 -48 0
v -88 -56 0
v -96 -56 0
v -96 -48 0
v -88 -48 0
v -96 -56 0
v -104 -56 0
v -104 -48 0
v -96 -48 0
v -104 -56 0
v -112 -56 0
v -112 -48 0
v -104 -48 0
v -112 -56 0
v -120 -56 0
v -120 -48 0
v -112 -48 0
v -120 -56 0
v -128 -56 0
v -128 -48 0
v -120 -48 0
v 0 -64 0
v -8 -64 0
v -8 -56 0
v 0 -56 0
v -8 -64 0
v -16 -64 0
v -16 -56 0
v -8 -56 0
v -16 -64 0
v -24 -64 0
v -24 -56 0
v -16 -56 0
v -24 -64 0
v -32 -64 0
v -32 -56 0
v -24 -56 0
v -32 -64 0
v -40 -64 0
v -40 -56 0
v -32 -56 0
v -40 -64 0
v -48 -64 0
v -48 -56 0
v -40 -56 0
v -48 -64 0
v -56 -64 0
v -56 -56 0
v -48 -56 0
v -56 -64 0
v -64 -64 0
v -64 -56 0
v -56 -56 0
v -64 -64 0
v -72 -64 0
v -72 -56 0
v -64 -56 0
v -72 -64 0
v -80 -64 0
v -80 -56 0
v -72 -56 0
v -80 -64 0
v -88 -64 0
v -88 -56 0
v -80 -56 0
v -88 -64 0
v -96 -64 0
v -96 -56 0
v -88 -56 0
v -96 -64 0
v -104 -64 0
v -104 -56 0
v -96 -56 0
v -104 -64 0
v -112 -64 0
v -112 -56 0
v -104 -56 0
v -112 -64 0
v -120 -64 0
v -120 -56 0
v -112 -56 0
v -120 -64 0
v -128 -64 0
v -128 -56 0
v -120 -56 0
v 0 -72 0
v -8 -72 0
v -8 -64 0
v 0 -64 0
v -8 -72 0
v -16 -72 0
v -16 -64 0
v -8 -64 0
v -16 -72 0
v -24 -72 0
v -24 -64 0
v -16 -64 0
v -24 -72 0
v -32 -72 0
v -32 -64 0
v -24 -64 0
v -32 -72 0
v -40 -72 0
v -40 -64 0
v -32 -64 0
v -40 -72 0
v -48 -72 0
v -48 -64 0
v -40 -64 0
v -48 -72 0
v -56 -72 0
v -56 -64 0
v -48 -64 0
v -56 -72 0
v -64 -72 0
v -64 -64 0
v -56 -64 0
v -64 -72 0
v -72 -72 0
v -72 -64 0
v -64 -64 0
v -72 -72 0
v -80 -72 0
v -80 -64 0
v -72 -64 0
v -80 -72 0
v -88 -72 0
v -88 -64 0
v -80 -64 0
v -88 -72 0
v -96 -72 0
v -96 -64 0
v -88 -64 0
v -96 -72 0
v -104 -72 0
v -104 -64 0
v -96 -64 0
v -104 -72 0
v -112 -72 0
v -112 -64 0
v -104 -64 0
v -112 -72 0
v -120 -72 0
v -120 -64 0
v -112 -64 0
v -120 -72 0
v -128 -72 0
v -128 -64 0
v -120 -64 0
v 0 -80 0
v -8 -80 0
v -8 -72 0
v 0 -72 0
v -8 -80 0
v -16 -80 0
v -16 -72 0
v -8 -72 0
v -16 -80 0
v -24 -80 0
v -24 -72 0
v -16 -72 0
v -24 -80 0
v -32 -80 0
v -32 -72 0
v -24 -72 0
v -32 -80 0
v -40 -80 0
v -40 -72 0
v -32 -72 0
v -40 -80 0
v -48 -80 0
v -48 -72 0
v -40 -72 0
v -48 -80 0
v -56 -80 0
v -56 -72 0
v -48 -72 0
v -56 -80 0
v -64 -80 0
v -64 -72 0
v -56 -72 0
v -64 -80 0
v -72 -80 0
v -72 -72 0
v -64 -72 0
v -72 -80 0
v -80 -80 0
v -80 -72 0
v -72 -72 0
v -80 -80 0
v -88 -80 0
v -88 -72 0
v -80 -72 0
v -88 -80 0
v -96 -80 0
v -96 -72 0
v -88 -72 0
v -96 -80 0
v -104 -80 0
v -104 -72 0
v -96 -72 0
v -104 -80 0
v -112 -80 0
v -112 -72 0
v -104 -72 0
v -112 -80 0
v -120 -80 0
v -120 -72 0
v -112 -72 0
v -120 -80 0
v -128 -80 0
v -128 -72 0
v -120 -72 0
v 0 -88 0
v -8 -88 0
v -8 -80 0
v 0 -80 0
v -8 -88 0
v -16 -88 0
v -16 -80 0
v -8 -80 0
v -16 -88 0
v -24 -88 0
v -24 -80 0
v -16 -80 0
v -24 -88 0
v -32 -88 0
v -32 -80 0
v -24 -80 0
v -32 -88 0
v -40 -88 0
v -40 -80 0
v -32 -80 0
v -40 -88 0
v -48 -88 0
v -48 -80 0
v -40 -80 0
v -48 -88 0
v -56 -88 0
v -56 -80 0
v -48 -80 0
v -56 -88 0
v -64 -88 0
v -64 -80 0
v -56 -80 0
v -64 -88 0
v -72 -88 0
v -72 -80 0
v -64 -80 0
v -72 -88 0
v -80 -88 0
v -80 -80 0
v -72 -80 0
v -80 -88 0
v -88 -88 0
v -88 -80 0
v -80 -80 0
v -88 -88 0
v -96 -88 0
v -96 -80 0
v -88 -80 0
v -96 -88 0
v -104 -88 0
v -104 -80 0
v -96 -80 0
v -104 -88 0
v -112 -88 0
v -112 -80 0
v -104 -80 0
v -112 -88 0
v -120 -88 0
v -120 -80 0
v -112 -80 0
v -120 -88 0
v -128 -88 0
v -128 -80 0
v -120 -80 0
v 0 -96 0
v -8 -96 0
v -8 -88 0
v 0 -88 0
v -8 -96 0
v -16 -96 0
v -16 -88 0
v -8 -88 0
v -16 -96 0
v -24 -96 0
v -24 -88 0
v -16 -88 0
v -24 -96 0
v -32 -96 0
v -32 -88 0
v -24 -88 0
v -32 -96 0
v -40 -96 0
v -40 -88 0
v -32 -88 0
v -40 -96 0
v -48 -96 0
v -48 -88 0
v -40 -88 0
v -48 -96 0
v -56 -96 0
v -56 -88 0
v -48 -88 0
v -56 -96 0
v -64 -96 0
v -64 -88 0
v -56 -88 0
v -64 -96 0
v -72 -96 0
v -72 -88 0
v -64 -88 0
v -72 -96 0
v -80 -96 0
v -80 -88 0
v -72 -88 0
v -80 -96 0
v -88 -96 0
v -88 -88 0
v -80 -88 0
v -88 -96 0
v -96 -96 0
v -96 -88 0
v -88 -88 0
v -96 -96 0
v -104 -96 0
v -104 -88 0
v -96 -88 0
v -104 -96 0
v -112 -96 0
v -112 -88 0
v -104 -88 0
v -112 -96 0
v -120 -96 0
v -120 -88 0
v -112 -88 0
v -120 -96 0
v -128 -96 0
v -128 -88 0
v -120 -88 0
v 0 -104 0
v -8 -104 0
v -8 -96 0
v 0 -96 0
v -8 -104 0
v -16 -104 0
v -16 -96 0
v -8 -96 0
v -16 -104 0
v -24 -104 0
v -24 -96 0
v -16 -96 0
v -24 -104 0
v -32 -104 0
v -32 -96 0
v -24 -96 0
v -32 -104 0
v -40 -104 0
v -40 -96 0
v -32 -96 0
v -40 -104 0
v -48 -104 0
v -48 -96 0
v -40 -96 0
v -48 -104 0
v -56 -104 0
v -56 -96 0
v -48 -96 0
v -56 -104 0
v -64 -104 0
v -64 -96 0
v -56 -96 0
v -64 -104 0
v -72 -104 0
v -72 -96 0
v -64 -96 0
v -72 -104 0
v -80 -104 0
v -80 -96 0
v -72 -96 0
v -80 -104 0
v -88 -104 0
v -88 -96 0
v -80 -96 0
v -88 -104 0
v -96 -104 0
v -96 -96 0
v -88 -96 0
v -96 -104 0
v -104 -104 0
v -104 -96 0
v -96 -96 0
v -104 -104 0
v -112 -104 0
v -112 -96 0
v -104 -96 0
v -112 -104 0
v -120 -104 0
v -120 -96 0
v -112 -96 0
v -120 -104 0
v -128 -104 0
v -128 -96 0
v -120 -96 0
v 0 -112 0
v -8 -112 0
v -8 -104 0
v 0 -104 0
v -8 -112 0
v -16 -112 0
v -16 -104 0
v -8 -104 0
v -16 -112 0
v -24 -112 0
v -24 -104 0
v -16 -104 0
v -24 -112 0
v -32 -112 0
v -32 -104 0
v -24 -104 0
v -32 -112 0
v -40 -112 0
v -40 -104 0
v -32 -104 0
v -40 -112 0
v -48 -112 0
v -48 -104 0
v -40 -104 0
v -48 -112 0
v -56 -112 0
v -56 -104 0
v -48 -104 0
v -56 -112 0
v -64 -112 0
v -64 -104 0
v -56 -104 0
v -64 -112 0
v -72 -112 0
v -72 -104 0
v -64 -104 0
v -72 -112 0
v -80 -112 0
v -80 -104 0
v -72 -104 0
v -80 -112 0
v -88 -112 0
v -88 -104 0
v -80 -104 0
v -88 -112 0
v -96 -112 0
v -96 -104 0
v -88 -104 0
v -96 -112 0
v -104 -112 0
v -104 -104 0
v -96 -104 0
v -104 -112 0
v -112 -112 0
v -112 -104 0
v -104 -104 0
v -112 -112 0
v -120 -112 0
v -120 -104 0
v -112 -104 0
v -120 -112 0
v -128 -112 0
v -128 -104 0
v -120 -104 0
v 0 -120 0
v -8 -120 0
v -8 -112 0
v 0 -112 0
v -8 -120 0
v -16 -120 0
v -16 -112 0
v -8 -112 0
v -16 -120 0
v -24 -120 0
v -24 -112 0
v -16 -112 0
v -24 -120 0
v -32 -120 0
v -32 -112 0
v -24 -112 0
v -32 -120 0
v -40 -120 0
v -40 -112 0
v -32 -112 0
v -40 -120 0
v -48 -120 0
v -48 -112 0
v -40 -112 0
v -48 -120 0
v -56 -120 0
v -56 -112 0
v -48 -112 0
v -120 -120 0
v -128 -120 0
v -128 -112 0
v -120 -112 0
v 0 -128 0
v -8 -128 0
v -8 -120 0
v 0 -120 0
v -8 -128 0
v -16 -128 0
v -16 -120 0
v -8 -120 0
v -16 -128 0
v -24 -128 0
v -24 -120 0
v -16 -120 0
v -24 -128 0
v -32 -128 0
v -32 -120 0
v -24 -120 0
v -32 -128 0
v -40 -128 0
v -40 -120 0
v -32 -120 0
v -40 -128 0
v -48 -128 0
v -48 -120 0
v -40 -120 0
v -48 -128 0
v -56 -128 0
v -56 -120 0
v -48 -120 0
v -120 -128 0
v -128 -128 0
v -128 -120 0
v -120 -120 0

# Texture cooridinates (Count = 91)
vt 0.4558823 0.9285714
vt 0.4705882 0.9285714
vt 0.4705882 0.9387755
vt 0.4558823 0.9387755
vt 0.6617647 0.9285714
vt 0.6764706 0.9285714
vt 0.6764706 0.9387755
vt 0.6617647 0.9387755
vt 0.2794118 0.9285714
vt 0.2941177 0.9285714
vt 0.2941177 0.9387755
vt 0.2794118 0.9387755
vt 0.3088235 0.9285714
vt 0.3088235 0.9387755
vt 0.3235294 0.9285714
vt 0.3235294 0.9387755
vt 0.3382353 0.9285714
vt 0.3382353 0.9387755
vt 0.3529412 0.9285714
vt 0.3529412 0.9387755
vt 0.3676471 0.9285714
vt 0.3676471 0.9387755
vt 0.3823529 0.9285714
vt 0.3823529 0.9387755
vt 0.3970588 0.9285714
vt 0.3970588 0.9387755
vt 0.4117647 0.9285714
vt 0.4117647 0.9387755
vt 0.4264706 0.9285714
vt 0.4264706 0.9387755
vt 0.4411765 0.9285714
vt 0.4411765 0.9387755
vt 0.4264706 0.8979592
vt 0.4411765 0.8979592
vt 0.4411765 0.9081632
vt 0.4264706 0.9081632
vt 0.4558823 0.8979592
vt 0.4558823 0.9081632
vt 0.4264706 0.8877551
vt 0.4411765 0.8877551
vt 0.4558823 0.8877551
vt 0.2647059 0.9081632
vt 0.2794118 0.9081632
vt 0.2794118 0.9183673
vt 0.2647059 0.9183673
vt 0.2941177 0.9081632
vt 0.2941177 0.9183673
vt 0.3088235 0.9081632
vt 0.3088235 0.9183673
vt 0.3235294 0.9081632
vt 0.3235294 0.9183673
vt 0.3382353 0.9081632
vt 0.3382353 0.9183673
vt 0.3529412 0.9081632
vt 0.3529412 0.9183673
vt 0.3676471 0.9081632
vt 0.3676471 0.9183673
vt 0.3823529 0.9081632
vt 0.3823529 0.9183673
vt 0.2647059 0.8979592
vt 0.2794118 0.8979592
vt 0.2941177 0.8979592
vt 0.3088235 0.8979592
vt 0.3235294 0.8979592
vt 0.3382353 0.8979592
vt 0.3529412 0.8979592
vt 0.3676471 0.8979592
vt 0.3823529 0.8979592
vt 0.2647059 0.8877551
vt 0.2794118 0.8877551
vt 0.2941177 0.8877551
vt 0.4705882 0.9081632
vt 0.4852941 0.9081632
vt 0.4852941 0.9183673
vt 0.4705882 0.9183673
vt 0.5 0.9081632
vt 0.5 0.9183673
vt 0.5735294 0.9081632
vt 0.5882353 0.9081632
vt 0.5882353 0.9183673
vt 0.5735294 0.9183673
vt 0.2647059 0.877551
vt 0.2794118 0.877551
vt 0.2941177 0.877551
vt 0.4705882 0.8979592
vt 0.4852941 0.8979592
vt 0.5 0.8979592
vt 0.5588235 0.8877551
vt 0.5735294 0.8877551
vt 0.5735294 0.8979592
vt 0.5588235 0.8979592

# Normal
vn 0 0 -1

# Mesh description
g RoomD_mesh_0022

# Faces
f 1/1/1 2/2/1 3/3/1 4/4/1
f 5/5/1 6/6/1 7/7/1 8/8/1
f 9/9/1 10/10/1 11/11/1 12/12/1
f 13/10/1 14/13/1 15/14/1 16/11/1
f 17/13/1 18/15/1 19/16/1 20/14/1
f 21/15/1 22/17/1 23/18/1 24/16/1
f 25/17/1 26/19/1 27/20/1 28/18/1
f 29/19/1 30/21/1 31/22/1 32/20/1
f 33/21/1 34/23/1 35/24/1 36/22/1
f 37/23/1 38/25/1 39/26/1 40/24/1
f 41/25/1 42/27/1 43/28/1 44/26/1
f 45/27/1 46/29/1 47/30/1 48/28/1
f 49/29/1 50/31/1 51/32/1 52/30/1
f 53/31/1 54/1/1 55/4/1 56/32/1
f 57/1/1 58/2/1 59/3/1 60/4/1
f 61/5/1 62/6/1 63/7/1 64/8/1
f 65/33/1 66/34/1 67/35/1 68/36/1
f 69/33/1 70/34/1 71/35/1 72/36/1
f 73/33/1 74/34/1 75/35/1 76/36/1
f 77/33/1 78/34/1 79/35/1 80/36/1
f 81/33/1 82/34/1 83/35/1 84/36/1
f 85/33/1 86/34/1 87/35/1 88/36/1
f 89/33/1 90/34/1 91/35/1 92/36/1
f 93/33/1 94/34/1 95/35/1 96/36/1
f 97/33/1 98/34/1 99/35/1 100/36/1
f 101/34/1 102/37/1 103/38/1 104/35/1
f 105/33/1 106/34/1 107/35/1 108/36/1
f 109/33/1 110/34/1 111/35/1 112/36/1
f 113/34/1 114/37/1 115/38/1 116/35/1
f 117/34/1 118/37/1 119/38/1 120/35/1
f 121/34/1 122/37/1 123/38/1 124/35/1
f 125/34/1 126/37/1 127/38/1 128/35/1
f 129/39/1 130/40/1 131/34/1 132/33/1
f 133/39/1 134/40/1 135/34/1 136/33/1
f 137/39/1 138/40/1 139/34/1 140/33/1
f 141/39/1 142/40/1 143/34/1 144/33/1
f 145/39/1 146/40/1 147/34/1 148/33/1
f 149/39/1 150/40/1 151/34/1 152/33/1
f 153/39/1 154/40/1 155/34/1 156/33/1
f 157/33/1 158/34/1 159/35/1 160/36/1
f 161/34/1 162/37/1 163/38/1 164/35/1
f 165/34/1 166/37/1 167/38/1 168/35/1
f 169/33/1 170/34/1 171/35/1 172/36/1
f 173/33/1 174/34/1 175/35/1 176/36/1
f 177/33/1 178/34/1 179/35/1 180/36/1
f 181/33/1 182/34/1 183/35/1 184/36/1
f 185/33/1 186/34/1 187/35/1 188/36/1
f 189/33/1 190/34/1 191/35/1 192/36/1
f 193/33/1 194/34/1 195/35/1 196/36/1
f 197/39/1 198/40/1 199/34/1 200/33/1
f 201/39/1 202/40/1 203/34/1 204/33/1
f 205/39/1 206/40/1 207/34/1 208/33/1
f 209/40/1 210/41/1 211/37/1 212/34/1
f 213/33/1 214/34/1 215/35/1 216/36/1
f 217/34/1 218/37/1 219/38/1 220/35/1
f 221/34/1 222/37/1 223/38/1 224/35/1
f 225/40/1 226/41/1 227/37/1 228/34/1
f 229/40/1 230/41/1 231/37/1 232/34/1
f 233/39/1 234/40/1 235/34/1 236/33/1
f 237/39/1 238/40/1 239/34/1 240/33/1
f 241/39/1 242/40/1 243/34/1 244/33/1
f 245/39/1 246/40/1 247/34/1 248/33/1
f 249/39/1 250/40/1 251/34/1 252/33/1
f 253/39/1 254/40/1 255/34/1 256/33/1
f 257/39/1 258/40/1 259/34/1 260/33/1
f 261/39/1 262/40/1 263/34/1 264/33/1
f 265/33/1 266/34/1 267/35/1 268/36/1
f 269/34/1 270/37/1 271/38/1 272/35/1
f 273/33/1 274/34/1 275/35/1 276/36/1
f 277/34/1 278/37/1 279/38/1 280/35/1
f 281/34/1 282/37/1 283/38/1 284/35/1
f 285/33/1 286/34/1 287/35/1 288/36/1
f 289/33/1 290/34/1 291/35/1 292/36/1
f 293/34/1 294/37/1 295/38/1 296/35/1
f 297/34/1 298/37/1 299/38/1 300/35/1
f 301/34/1 302/37/1 303/38/1 304/35/1
f 305/40/1 306/41/1 307/37/1 308/34/1
f 309/34/1 310/37/1 311/38/1 312/35/1
f 313/33/1 314/34/1 315/35/1 316/36/1
f 317/34/1 318/37/1 319/38/1 320/35/1
f 321/33/1 322/34/1 323/35/1 324/36/1
f 325/33/1 326/34/1 327/35/1 328/36/1
f 329/33/1 330/34/1 331/35/1 332/36/1
f 333/33/1 334/34/1 335/35/1 336/36/1
f 337/33/1 338/34/1 339/35/1 340/36/1
f 341/33/1 342/34/1 343/35/1 344/36/1
f 345/34/1 346/37/1 347/38/1 348/35/1
f 349/34/1 350/37/1 351/38/1 352/35/1
f 353/34/1 354/37/1 355/38/1 356/35/1
f 357/40/1 358/41/1 359/37/1 360/34/1
f 361/40/1 362/41/1 363/37/1 364/34/1
f 365/40/1 366/41/1 367/37/1 368/34/1
f 369/40/1 370/41/1 371/37/1 372/34/1
f 373/40/1 374/41/1 375/37/1 376/34/1
f 377/33/1 378/34/1 379/35/1 380/36/1
f 381/33/1 382/34/1 383/35/1 384/36/1
f 385/33/1 386/34/1 387/35/1 388/36/1
f 389/39/1 390/40/1 391/34/1 392/33/1
f 393/33/1 394/34/1 395/35/1 396/36/1
f 397/42/1 398/43/1 399/44/1 400/45/1
f 401/43/1 402/46/1 403/47/1 404/44/1
f 405/46/1 406/48/1 407/49/1 408/47/1
f 409/48/1 410/50/1 411/51/1 412/49/1
f 413/50/1 414/52/1 415/53/1 416/51/1
f 417/52/1 418/54/1 419/55/1 420/53/1
f 421/54/1 422/56/1 423/57/1 424/55/1
f 425/56/1 426/58/1 427/59/1 428/57/1
f 429/46/1 430/48/1 431/49/1 432/47/1
f 433/48/1 434/50/1 435/51/1 436/49/1
f 437/50/1 438/52/1 439/53/1 440/51/1
f 441/52/1 442/54/1 443/55/1 444/53/1
f 445/54/1 446/56/1 447/57/1 448/55/1
f 449/34/1 450/37/1 451/38/1 452/35/1
f 453/34/1 454/37/1 455/38/1 456/35/1
f 457/34/1 458/37/1 459/38/1 460/35/1
f 461/60/1 462/61/1 463/43/1 464/42/1
f 465/61/1 466/62/1 467/46/1 468/43/1
f 469/62/1 470/63/1 471/48/1 472/46/1
f 473/63/1 474/64/1 475/50/1 476/48/1
f 477/64/1 478/65/1 479/52/1 480/50/1
f 481/65/1 482/66/1 483/54/1 484/52/1
f 485/66/1 486/67/1 487/56/1 488/54/1
f 489/67/1 490/68/1 491/58/1 492/56/1
f 493/62/1 494/63/1 495/48/1 496/46/1
f 497/63/1 498/64/1 499/50/1 500/48/1
f 501/64/1 502/65/1 503/52/1 504/50/1
f 505/65/1 506/66/1 507/54/1 508/52/1
f 509/66/1 510/67/1 511/56/1 512/54/1
f 513/40/1 514/41/1 515/37/1 516/34/1
f 517/40/1 518/41/1 519/37/1 520/34/1
f 521/40/1 522/41/1 523/37/1 524/34/1
f 525/69/1 526/70/1 527/61/1 528/60/1
f 529/70/1 530/71/1 531/62/1 532/61/1
f 533/72/1 534/73/1 535/74/1 536/75/1
f 537/73/1 538/76/1 539/77/1 540/74/1
f 541/78/1 542/79/1 543/80/1 544/81/1
f 545/40/1 546/41/1 547/37/1 548/34/1
f 549/40/1 550/41/1 551/37/1 552/34/1
f 553/40/1 554/41/1 555/37/1 556/34/1
f 557/82/1 558/83/1 559/70/1 560/69/1
f 561/83/1 562/84/1 563/71/1 564/70/1
f 565/85/1 566/86/1 567/73/1 568/72/1
f 569/86/1 570/87/1 571/76/1 572/73/1
f 573/88/1 574/89/1 575/90/1 576/91/1

