# Tiled2Unity generated file. Do not modify by hand.
# Wavefront file for 'RoomD_mesh_0011.obj'

# Vertices (Count = 292)
v 0 -8 0
v -8 -8 0
v -8 0 0
v 0 0 0
v -8 -8 0
v -16 -8 0
v -16 0 0
v -8 0 0
v -16 -8 0
v -24 -8 0
v -24 0 0
v -16 0 0
v -24 -8 0
v -32 -8 0
v -32 0 0
v -24 0 0
v -32 -8 0
v -40 -8 0
v -40 0 0
v -32 0 0
v -40 -8 0
v -48 -8 0
v -48 0 0
v -40 0 0
v -48 -8 0
v -56 -8 0
v -56 0 0
v -48 0 0
v -56 -8 0
v -64 -8 0
v -64 0 0
v -56 0 0
v -64 -8 0
v -72 -8 0
v -72 0 0
v -64 0 0
v -72 -8 0
v -80 -8 0
v -80 0 0
v -72 0 0
v -80 -8 0
v -88 -8 0
v -88 0 0
v -80 0 0
v -88 -8 0
v -96 -8 0
v -96 0 0
v -88 0 0
v -96 -8 0
v -104 -8 0
v -104 0 0
v -96 0 0
v -104 -8 0
v -112 -8 0
v -112 0 0
v -104 0 0
v -112 -8 0
v -120 -8 0
v -120 0 0
v -112 0 0
v -120 -8 0
v -128 -8 0
v -128 0 0
v -120 0 0
v 0 -16 0
v -8 -16 0
v -8 -8 0
v 0 -8 0
v -8 -16 0
v -16 -16 0
v -16 -8 0
v -8 -8 0
v -16 -16 0
v -24 -16 0
v -24 -8 0
v -16 -8 0
v -24 -16 0
v -32 -16 0
v -32 -8 0
v -24 -8 0
v -32 -16 0
v -40 -16 0
v -40 -8 0
v -32 -8 0
v -40 -16 0
v -48 -16 0
v -48 -8 0
v -40 -8 0
v -48 -16 0
v -56 -16 0
v -56 -8 0
v -48 -8 0
v -56 -16 0
v -64 -16 0
v -64 -8 0
v -56 -8 0
v -64 -16 0
v -72 -16 0
v -72 -8 0
v -64 -8 0
v -72 -16 0
v -80 -16 0
v -80 -8 0
v -72 -8 0
v -80 -16 0
v -88 -16 0
v -88 -8 0
v -80 -8 0
v -88 -16 0
v -96 -16 0
v -96 -8 0
v -88 -8 0
v -96 -16 0
v -104 -16 0
v -104 -8 0
v -96 -8 0
v -104 -16 0
v -112 -16 0
v -112 -8 0
v -104 -8 0
v -112 -16 0
v -120 -16 0
v -120 -8 0
v -112 -8 0
v -120 -16 0
v -128 -16 0
v -128 -8 0
v -120 -8 0
v -112 -24 0
v -120 -24 0
v -120 -16 0
v -112 -16 0
v -120 -24 0
v -128 -24 0
v -128 -16 0
v -120 -16 0
v -112 -32 0
v -120 -32 0
v -120 -24 0
v -112 -24 0
v -120 -32 0
v -128 -32 0
v -128 -24 0
v -120 -24 0
v -112 -40 0
v -120 -40 0
v -120 -32 0
v -112 -32 0
v -120 -40 0
v -128 -40 0
v -128 -32 0
v -120 -32 0
v -112 -48 0
v -120 -48 0
v -120 -40 0
v -112 -40 0
v -120 -48 0
v -128 -48 0
v -128 -40 0
v -120 -40 0
v -112 -56 0
v -120 -56 0
v -120 -48 0
v -112 -48 0
v -120 -56 0
v -128 -56 0
v -128 -48 0
v -120 -48 0
v -112 -64 0
v -120 -64 0
v -120 -56 0
v -112 -56 0
v -120 -64 0
v -128 -64 0
v -128 -56 0
v -120 -56 0
v -112 -72 0
v -120 -72 0
v -120 -64 0
v -112 -64 0
v -120 -72 0
v -128 -72 0
v -128 -64 0
v -120 -64 0
v -112 -80 0
v -120 -80 0
v -120 -72 0
v -112 -72 0
v -120 -80 0
v -128 -80 0
v -128 -72 0
v -120 -72 0
v -112 -88 0
v -120 -88 0
v -120 -80 0
v -112 -80 0
v -120 -88 0
v -128 -88 0
v -128 -80 0
v -120 -80 0
v -112 -96 0
v -120 -96 0
v -120 -88 0
v -112 -88 0
v -120 -96 0
v -128 -96 0
v -128 -88 0
v -120 -88 0
v -112 -104 0
v -120 -104 0
v -120 -96 0
v -112 -96 0
v -120 -104 0
v -128 -104 0
v -128 -96 0
v -120 -96 0
v -112 -112 0
v -120 -112 0
v -120 -104 0
v -112 -104 0
v -120 -112 0
v -128 -112 0
v -128 -104 0
v -120 -104 0
v -112 -120 0
v -120 -120 0
v -120 -112 0
v -112 -112 0
v -120 -120 0
v -128 -120 0
v -128 -112 0
v -120 -112 0
v -8 -128 0
v -16 -128 0
v -16 -120 0
v -8 -120 0
v -16 -128 0
v -24 -128 0
v -24 -120 0
v -16 -120 0
v -24 -128 0
v -32 -128 0
v -32 -120 0
v -24 -120 0
v -32 -128 0
v -40 -128 0
v -40 -120 0
v -32 -120 0
v -40 -128 0
v -48 -128 0
v -48 -120 0
v -40 -120 0
v -48 -128 0
v -56 -128 0
v -56 -120 0
v -48 -120 0
v -56 -128 0
v -64 -128 0
v -64 -120 0
v -56 -120 0
v -64 -128 0
v -72 -128 0
v -72 -120 0
v -64 -120 0
v -72 -128 0
v -80 -128 0
v -80 -120 0
v -72 -120 0
v -80 -128 0
v -88 -128 0
v -88 -120 0
v -80 -120 0
v -88 -128 0
v -96 -128 0
v -96 -120 0
v -88 -120 0
v -96 -128 0
v -104 -128 0
v -104 -120 0
v -96 -120 0
v -104 -128 0
v -112 -128 0
v -112 -120 0
v -104 -120 0
v -112 -128 0
v -120 -128 0
v -120 -120 0
v -112 -120 0
v -120 -128 0
v -128 -128 0
v -128 -120 0
v -120 -120 0

# Texture cooridinates (Count = 74)
vt 0.4705882 0.7653061
vt 0.4852941 0.7653061
vt 0.4852941 0.7755102
vt 0.4705882 0.7755102
vt 0.5 0.7653061
vt 0.5 0.7755102
vt 0.4264706 0.9387755
vt 0.4411765 0.9387755
vt 0.4411765 0.9489796
vt 0.4264706 0.9489796
vt 0.4558823 0.9489796
vt 0.4558823 0.9591837
vt 0.4411765 0.9591837
vt 0.4705882 0.9489796
vt 0.4705882 0.9591837
vt 0.4264706 0.9591837
vt 0.5588235 0.7653061
vt 0.5735294 0.7653061
vt 0.5735294 0.7755102
vt 0.5588235 0.7755102
vt 0.5882353 0.7653061
vt 0.5882353 0.7755102
vt 0.8823529 0.9081632
vt 0.8970588 0.9081632
vt 0.8970588 0.9183673
vt 0.8823529 0.9183673
vt 0.9117647 0.9081632
vt 0.9117647 0.9183673
vt 0.4705882 0.755102
vt 0.4852941 0.755102
vt 0.5 0.755102
vt 0.4558823 0.9387755
vt 0.4705882 0.9387755
vt 0.5588235 0.755102
vt 0.5735294 0.755102
vt 0.5882353 0.755102
vt 0.8823529 0.8979592
vt 0.8970588 0.8979592
vt 0.9117647 0.8979592
vt 0.8823529 0.8877551
vt 0.8970588 0.8877551
vt 0.9117647 0.8877551
vt 0.8823529 0.877551
vt 0.8970588 0.877551
vt 0.9117647 0.877551
vt 0.8823529 0.9489796
vt 0.8970588 0.9489796
vt 0.8970588 0.9591837
vt 0.8823529 0.9591837
vt 0.9117647 0.9489796
vt 0.9117647 0.9591837
vt 0.8823529 0.9387755
vt 0.8970588 0.9387755
vt 0.9117647 0.9387755
vt 0.8823529 0.9285714
vt 0.8970588 0.9285714
vt 0.9117647 0.9285714
vt 0.6176471 0.8673469
vt 0.6323529 0.8673469
vt 0.6323529 0.877551
vt 0.6176471 0.877551
vt 0.6470588 0.8673469
vt 0.6470588 0.877551
vt 0.6617647 0.8673469
vt 0.6617647 0.877551
vt 0.5882353 0.7857143
vt 0.6029412 0.7857143
vt 0.6029412 0.7959183
vt 0.5882353 0.7959183
vt 0.6176471 0.7857143
vt 0.6176471 0.7959183
vt 0.8823529 0.8673469
vt 0.8970588 0.8673469
vt 0.9117647 0.8673469

# Normal
vn 0 0 -1

# Mesh description
g RoomD_mesh_0011

# Faces
f 1/1/1 2/2/1 3/3/1 4/4/1
f 5/2/1 6/5/1 7/6/1 8/3/1
f 9/7/1 10/8/1 11/9/1 12/10/1
f 13/9/1 14/11/1 15/12/1 16/13/1
f 17/11/1 18/14/1 19/15/1 20/12/1
f 21/10/1 22/9/1 23/13/1 24/16/1
f 25/10/1 26/9/1 27/13/1 28/16/1
f 29/11/1 30/14/1 31/15/1 32/12/1
f 33/11/1 34/14/1 35/15/1 36/12/1
f 37/11/1 38/14/1 39/15/1 40/12/1
f 41/17/1 42/18/1 43/19/1 44/20/1
f 45/18/1 46/21/1 47/22/1 48/19/1
f 49/11/1 50/14/1 51/15/1 52/12/1
f 53/11/1 54/14/1 55/15/1 56/12/1
f 57/23/1 58/24/1 59/25/1 60/26/1
f 61/24/1 62/27/1 63/28/1 64/25/1
f 65/29/1 66/30/1 67/2/1 68/1/1
f 69/30/1 70/31/1 71/5/1 72/2/1
f 73/7/1 74/8/1 75/9/1 76/10/1
f 77/8/1 78/32/1 79/11/1 80/9/1
f 81/32/1 82/33/1 83/14/1 84/11/1
f 85/8/1 86/32/1 87/11/1 88/9/1
f 89/10/1 90/9/1 91/13/1 92/16/1
f 93/32/1 94/33/1 95/14/1 96/11/1
f 97/10/1 98/9/1 99/13/1 100/16/1
f 101/32/1 102/33/1 103/14/1 104/11/1
f 105/34/1 106/35/1 107/18/1 108/17/1
f 109/35/1 110/36/1 111/21/1 112/18/1
f 113/32/1 114/33/1 115/14/1 116/11/1
f 117/32/1 118/33/1 119/14/1 120/11/1
f 121/37/1 122/38/1 123/24/1 124/23/1
f 125/38/1 126/39/1 127/27/1 128/24/1
f 129/40/1 130/41/1 131/38/1 132/37/1
f 133/41/1 134/42/1 135/39/1 136/38/1
f 137/43/1 138/44/1 139/41/1 140/40/1
f 141/44/1 142/45/1 143/42/1 144/41/1
f 145/46/1 146/47/1 147/48/1 148/49/1
f 149/47/1 150/50/1 151/51/1 152/48/1
f 153/52/1 154/53/1 155/47/1 156/46/1
f 157/53/1 158/54/1 159/50/1 160/47/1
f 161/55/1 162/56/1 163/53/1 164/52/1
f 165/56/1 166/57/1 167/54/1 168/53/1
f 169/26/1 170/25/1 171/56/1 172/55/1
f 173/25/1 174/28/1 175/57/1 176/56/1
f 177/23/1 178/24/1 179/25/1 180/26/1
f 181/24/1 182/27/1 183/28/1 184/25/1
f 185/37/1 186/38/1 187/24/1 188/23/1
f 189/38/1 190/39/1 191/27/1 192/24/1
f 193/40/1 194/41/1 195/38/1 196/37/1
f 197/41/1 198/42/1 199/39/1 200/38/1
f 201/43/1 202/44/1 203/41/1 204/40/1
f 205/44/1 206/45/1 207/42/1 208/41/1
f 209/46/1 210/47/1 211/48/1 212/49/1
f 213/47/1 214/50/1 215/51/1 216/48/1
f 217/52/1 218/53/1 219/47/1 220/46/1
f 221/53/1 222/54/1 223/50/1 224/47/1
f 225/55/1 226/56/1 227/53/1 228/52/1
f 229/56/1 230/57/1 231/54/1 232/53/1
f 233/58/1 234/59/1 235/60/1 236/61/1
f 237/59/1 238/62/1 239/63/1 240/60/1
f 241/62/1 242/64/1 243/65/1 244/63/1
f 245/62/1 246/64/1 247/65/1 248/63/1
f 249/62/1 250/64/1 251/65/1 252/63/1
f 253/66/1 254/67/1 255/68/1 256/69/1
f 257/67/1 258/70/1 259/71/1 260/68/1
f 261/66/1 262/67/1 263/68/1 264/69/1
f 265/62/1 266/64/1 267/65/1 268/63/1
f 269/66/1 270/67/1 271/68/1 272/69/1
f 273/67/1 274/70/1 275/71/1 276/68/1
f 277/66/1 278/67/1 279/68/1 280/69/1
f 281/67/1 282/70/1 283/71/1 284/68/1
f 285/72/1 286/73/1 287/44/1 288/43/1
f 289/73/1 290/74/1 291/45/1 292/44/1

